%TF.GenerationSoftware,KiCad,Pcbnew,6.0.0*%
%TF.CreationDate,2022-01-04T22:10:12+01:00*%
%TF.ProjectId,mini_light,6d696e69-5f6c-4696-9768-742e6b696361,v1.1*%
%TF.SameCoordinates,Original*%
%TF.FileFunction,Soldermask,Top*%
%TF.FilePolarity,Negative*%
%FSLAX46Y46*%
G04 Gerber Fmt 4.6, Leading zero omitted, Abs format (unit mm)*
G04 Created by KiCad (PCBNEW 6.0.0) date 2022-01-04 22:10:12*
%MOMM*%
%LPD*%
G01*
G04 APERTURE LIST*
G04 Aperture macros list*
%AMRoundRect*
0 Rectangle with rounded corners*
0 $1 Rounding radius*
0 $2 $3 $4 $5 $6 $7 $8 $9 X,Y pos of 4 corners*
0 Add a 4 corners polygon primitive as box body*
4,1,4,$2,$3,$4,$5,$6,$7,$8,$9,$2,$3,0*
0 Add four circle primitives for the rounded corners*
1,1,$1+$1,$2,$3*
1,1,$1+$1,$4,$5*
1,1,$1+$1,$6,$7*
1,1,$1+$1,$8,$9*
0 Add four rect primitives between the rounded corners*
20,1,$1+$1,$2,$3,$4,$5,0*
20,1,$1+$1,$4,$5,$6,$7,0*
20,1,$1+$1,$6,$7,$8,$9,0*
20,1,$1+$1,$8,$9,$2,$3,0*%
G04 Aperture macros list end*
%ADD10RoundRect,0.160000X-0.252791X0.026517X0.026517X-0.252791X0.252791X-0.026517X-0.026517X0.252791X0*%
%ADD11RoundRect,0.150000X-0.256326X-0.468458X0.468458X0.256326X0.256326X0.468458X-0.468458X-0.256326X0*%
%ADD12C,3.200000*%
%ADD13R,1.200000X1.200000*%
%ADD14RoundRect,0.250000X1.500000X-0.250000X1.500000X0.250000X-1.500000X0.250000X-1.500000X-0.250000X0*%
%ADD15RoundRect,0.250001X1.449999X-0.499999X1.449999X0.499999X-1.449999X0.499999X-1.449999X-0.499999X0*%
%ADD16R,1.500000X4.200000*%
%ADD17RoundRect,0.155000X-0.155000X0.212500X-0.155000X-0.212500X0.155000X-0.212500X0.155000X0.212500X0*%
%ADD18RoundRect,0.250000X-0.475000X0.337500X-0.475000X-0.337500X0.475000X-0.337500X0.475000X0.337500X0*%
%ADD19RoundRect,0.250000X-1.500000X0.250000X-1.500000X-0.250000X1.500000X-0.250000X1.500000X0.250000X0*%
%ADD20RoundRect,0.250001X-1.449999X0.499999X-1.449999X-0.499999X1.449999X-0.499999X1.449999X0.499999X0*%
G04 APERTURE END LIST*
D10*
%TO.C,R1*%
X136377504Y-99877504D03*
X137222496Y-100722496D03*
%TD*%
D11*
%TO.C,U1*%
X136647830Y-98132583D03*
X137319581Y-98804334D03*
X137991332Y-99476085D03*
X139600000Y-97867417D03*
X138256498Y-96523915D03*
%TD*%
D12*
%TO.C,H1*%
X141400000Y-102100000D03*
%TD*%
D13*
%TO.C,D1*%
X134300000Y-96500000D03*
X134300000Y-99300000D03*
%TD*%
D14*
%TO.C,J1*%
X147150000Y-102000000D03*
X147150000Y-100000000D03*
X147150000Y-98000000D03*
D15*
X152900000Y-104350000D03*
X152900000Y-95650000D03*
%TD*%
D16*
%TO.C,L1*%
X128600000Y-98000000D03*
X132200000Y-98000000D03*
%TD*%
D17*
%TO.C,C2*%
X141300000Y-96532500D03*
X141300000Y-97667500D03*
%TD*%
D18*
%TO.C,C1*%
X143600000Y-95962500D03*
X143600000Y-98037500D03*
%TD*%
D19*
%TO.C,J2*%
X93050000Y-98000000D03*
X93050000Y-100000000D03*
X93050000Y-102000000D03*
D20*
X87300000Y-104350000D03*
X87300000Y-95650000D03*
%TD*%
D12*
%TO.C,H2*%
X98800000Y-97900000D03*
%TD*%
G36*
X122442121Y-100920002D02*
G01*
X122488614Y-100973658D01*
X122500000Y-101026000D01*
X122500000Y-102974000D01*
X122479998Y-103042121D01*
X122426342Y-103088614D01*
X122374000Y-103100000D01*
X114226000Y-103100000D01*
X114157879Y-103079998D01*
X114111386Y-103026342D01*
X114100000Y-102974000D01*
X114100000Y-101026000D01*
X114120002Y-100957879D01*
X114173658Y-100911386D01*
X114226000Y-100900000D01*
X122374000Y-100900000D01*
X122442121Y-100920002D01*
G37*
G36*
X118042121Y-96820002D02*
G01*
X118088614Y-96873658D01*
X118100000Y-96926000D01*
X118100000Y-98974000D01*
X118079998Y-99042121D01*
X118026342Y-99088614D01*
X117974000Y-99100000D01*
X109826000Y-99100000D01*
X109757879Y-99079998D01*
X109711386Y-99026342D01*
X109700000Y-98974000D01*
X109700000Y-96926000D01*
X109720002Y-96857879D01*
X109773658Y-96811386D01*
X109826000Y-96800000D01*
X117974000Y-96800000D01*
X118042121Y-96820002D01*
G37*
G36*
X131242121Y-100920002D02*
G01*
X131288614Y-100973658D01*
X131300000Y-101026000D01*
X131300000Y-102974000D01*
X131279998Y-103042121D01*
X131226342Y-103088614D01*
X131174000Y-103100000D01*
X123026000Y-103100000D01*
X122957879Y-103079998D01*
X122911386Y-103026342D01*
X122900000Y-102974000D01*
X122900000Y-101026000D01*
X122920002Y-100957879D01*
X122973658Y-100911386D01*
X123026000Y-100900000D01*
X131174000Y-100900000D01*
X131242121Y-100920002D01*
G37*
G36*
X126842121Y-96820002D02*
G01*
X126888614Y-96873658D01*
X126900000Y-96926000D01*
X126900000Y-98974000D01*
X126879998Y-99042121D01*
X126826342Y-99088614D01*
X126774000Y-99100000D01*
X118626000Y-99100000D01*
X118557879Y-99079998D01*
X118511386Y-99026342D01*
X118500000Y-98974000D01*
X118500000Y-96926000D01*
X118520002Y-96857879D01*
X118573658Y-96811386D01*
X118626000Y-96800000D01*
X126774000Y-96800000D01*
X126842121Y-96820002D01*
G37*
G36*
X109242121Y-96820002D02*
G01*
X109288614Y-96873658D01*
X109300000Y-96926000D01*
X109300000Y-99481885D01*
X109304475Y-99497124D01*
X109305865Y-99498329D01*
X109313548Y-99500000D01*
X113574000Y-99500000D01*
X113642121Y-99520002D01*
X113688614Y-99573658D01*
X113700000Y-99626000D01*
X113700000Y-102974000D01*
X113679998Y-103042121D01*
X113626342Y-103088614D01*
X113574000Y-103100000D01*
X107326000Y-103100000D01*
X107257879Y-103079998D01*
X107211386Y-103026342D01*
X107200000Y-102974000D01*
X107200000Y-96926000D01*
X107220002Y-96857879D01*
X107273658Y-96811386D01*
X107326000Y-96800000D01*
X109174000Y-96800000D01*
X109242121Y-96820002D01*
G37*
M02*
