%TF.GenerationSoftware,KiCad,Pcbnew,6.0.0*%
%TF.CreationDate,2022-01-04T22:10:12+01:00*%
%TF.ProjectId,mini_light,6d696e69-5f6c-4696-9768-742e6b696361,v1.1*%
%TF.SameCoordinates,Original*%
%TF.FileFunction,Soldermask,Bot*%
%TF.FilePolarity,Negative*%
%FSLAX46Y46*%
G04 Gerber Fmt 4.6, Leading zero omitted, Abs format (unit mm)*
G04 Created by KiCad (PCBNEW 6.0.0) date 2022-01-04 22:10:12*
%MOMM*%
%LPD*%
G01*
G04 APERTURE LIST*
G04 Aperture macros list*
%AMRoundRect*
0 Rectangle with rounded corners*
0 $1 Rounding radius*
0 $2 $3 $4 $5 $6 $7 $8 $9 X,Y pos of 4 corners*
0 Add a 4 corners polygon primitive as box body*
4,1,4,$2,$3,$4,$5,$6,$7,$8,$9,$2,$3,0*
0 Add four circle primitives for the rounded corners*
1,1,$1+$1,$2,$3*
1,1,$1+$1,$4,$5*
1,1,$1+$1,$6,$7*
1,1,$1+$1,$8,$9*
0 Add four rect primitives between the rounded corners*
20,1,$1+$1,$2,$3,$4,$5,0*
20,1,$1+$1,$4,$5,$6,$7,0*
20,1,$1+$1,$6,$7,$8,$9,0*
20,1,$1+$1,$8,$9,$2,$3,0*%
G04 Aperture macros list end*
%ADD10C,3.200000*%
%ADD11RoundRect,0.250000X-0.350000X-0.450000X0.350000X-0.450000X0.350000X0.450000X-0.350000X0.450000X0*%
%ADD12R,2.060000X1.800000*%
%ADD13R,0.600000X0.500000*%
%ADD14R,0.990000X1.800000*%
G04 APERTURE END LIST*
D10*
%TO.C,H1*%
X141400000Y-102100000D03*
%TD*%
%TO.C,H2*%
X98800000Y-97900000D03*
%TD*%
D11*
%TO.C,R2*%
X132200000Y-96900000D03*
X134200000Y-96900000D03*
%TD*%
%TO.C,R3*%
X132200000Y-98800000D03*
X134200000Y-98800000D03*
%TD*%
D12*
%TO.C,D2*%
X130270000Y-102000000D03*
D13*
X132750000Y-102000000D03*
D14*
X132250000Y-102000000D03*
%TD*%
D12*
%TO.C,D3*%
X121470000Y-102000000D03*
D13*
X123950000Y-102000000D03*
D14*
X123450000Y-102000000D03*
%TD*%
D12*
%TO.C,D7*%
X108270000Y-98000000D03*
D14*
X110250000Y-98000000D03*
D13*
X110750000Y-98000000D03*
%TD*%
D12*
%TO.C,D5*%
X125870000Y-98000000D03*
D14*
X127850000Y-98000000D03*
D13*
X128350000Y-98000000D03*
%TD*%
D12*
%TO.C,D6*%
X117070000Y-98000000D03*
D13*
X119550000Y-98000000D03*
D14*
X119050000Y-98000000D03*
%TD*%
D12*
%TO.C,D4*%
X112670000Y-102000000D03*
D13*
X115150000Y-102000000D03*
D14*
X114650000Y-102000000D03*
%TD*%
G36*
X109242121Y-96220002D02*
G01*
X109288614Y-96273658D01*
X109300000Y-96326000D01*
X109300000Y-100181885D01*
X109304475Y-100197124D01*
X109305865Y-100198329D01*
X109313548Y-100200000D01*
X113574000Y-100200000D01*
X113642121Y-100220002D01*
X113688614Y-100273658D01*
X113700000Y-100326000D01*
X113700000Y-103674000D01*
X113679998Y-103742121D01*
X113626342Y-103788614D01*
X113574000Y-103800000D01*
X106026000Y-103800000D01*
X105957879Y-103779998D01*
X105911386Y-103726342D01*
X105900000Y-103674000D01*
X105900000Y-96326000D01*
X105920002Y-96257879D01*
X105973658Y-96211386D01*
X106026000Y-96200000D01*
X109174000Y-96200000D01*
X109242121Y-96220002D01*
G37*
G36*
X126842121Y-96220002D02*
G01*
X126888614Y-96273658D01*
X126900000Y-96326000D01*
X126900000Y-99674000D01*
X126879998Y-99742121D01*
X126826342Y-99788614D01*
X126774000Y-99800000D01*
X118626000Y-99800000D01*
X118557879Y-99779998D01*
X118511386Y-99726342D01*
X118500000Y-99674000D01*
X118500000Y-96326000D01*
X118520002Y-96257879D01*
X118573658Y-96211386D01*
X118626000Y-96200000D01*
X126774000Y-96200000D01*
X126842121Y-96220002D01*
G37*
G36*
X122442121Y-100220002D02*
G01*
X122488614Y-100273658D01*
X122500000Y-100326000D01*
X122500000Y-103674000D01*
X122479998Y-103742121D01*
X122426342Y-103788614D01*
X122374000Y-103800000D01*
X114226000Y-103800000D01*
X114157879Y-103779998D01*
X114111386Y-103726342D01*
X114100000Y-103674000D01*
X114100000Y-100326000D01*
X114120002Y-100257879D01*
X114173658Y-100211386D01*
X114226000Y-100200000D01*
X122374000Y-100200000D01*
X122442121Y-100220002D01*
G37*
G36*
X118042121Y-96220002D02*
G01*
X118088614Y-96273658D01*
X118100000Y-96326000D01*
X118100000Y-99674000D01*
X118079998Y-99742121D01*
X118026342Y-99788614D01*
X117974000Y-99800000D01*
X109826000Y-99800000D01*
X109757879Y-99779998D01*
X109711386Y-99726342D01*
X109700000Y-99674000D01*
X109700000Y-96326000D01*
X109720002Y-96257879D01*
X109773658Y-96211386D01*
X109826000Y-96200000D01*
X117974000Y-96200000D01*
X118042121Y-96220002D01*
G37*
G36*
X133542121Y-96220002D02*
G01*
X133588614Y-96273658D01*
X133600000Y-96326000D01*
X133600000Y-99481885D01*
X133604475Y-99497124D01*
X133605865Y-99498329D01*
X133613548Y-99500000D01*
X134174000Y-99500000D01*
X134242121Y-99520002D01*
X134288614Y-99573658D01*
X134300000Y-99626000D01*
X134300000Y-103674000D01*
X134279998Y-103742121D01*
X134226342Y-103788614D01*
X134174000Y-103800000D01*
X131826000Y-103800000D01*
X131757879Y-103779998D01*
X131711386Y-103726342D01*
X131700000Y-103674000D01*
X131700000Y-99818115D01*
X131695525Y-99802876D01*
X131694135Y-99801671D01*
X131686452Y-99800000D01*
X127426000Y-99800000D01*
X127357879Y-99779998D01*
X127311386Y-99726342D01*
X127300000Y-99674000D01*
X127300000Y-96326000D01*
X127320002Y-96257879D01*
X127373658Y-96211386D01*
X127426000Y-96200000D01*
X133474000Y-96200000D01*
X133542121Y-96220002D01*
G37*
G36*
X131242121Y-100220002D02*
G01*
X131288614Y-100273658D01*
X131300000Y-100326000D01*
X131300000Y-103674000D01*
X131279998Y-103742121D01*
X131226342Y-103788614D01*
X131174000Y-103800000D01*
X123026000Y-103800000D01*
X122957879Y-103779998D01*
X122911386Y-103726342D01*
X122900000Y-103674000D01*
X122900000Y-100326000D01*
X122920002Y-100257879D01*
X122973658Y-100211386D01*
X123026000Y-100200000D01*
X131174000Y-100200000D01*
X131242121Y-100220002D01*
G37*
M02*
