%TF.GenerationSoftware,KiCad,Pcbnew,6.0.0*%
%TF.CreationDate,2022-01-04T22:10:12+01:00*%
%TF.ProjectId,mini_light,6d696e69-5f6c-4696-9768-742e6b696361,v1.1*%
%TF.SameCoordinates,Original*%
%TF.FileFunction,Copper,L2,Bot*%
%TF.FilePolarity,Positive*%
%FSLAX46Y46*%
G04 Gerber Fmt 4.6, Leading zero omitted, Abs format (unit mm)*
G04 Created by KiCad (PCBNEW 6.0.0) date 2022-01-04 22:10:12*
%MOMM*%
%LPD*%
G01*
G04 APERTURE LIST*
G04 Aperture macros list*
%AMRoundRect*
0 Rectangle with rounded corners*
0 $1 Rounding radius*
0 $2 $3 $4 $5 $6 $7 $8 $9 X,Y pos of 4 corners*
0 Add a 4 corners polygon primitive as box body*
4,1,4,$2,$3,$4,$5,$6,$7,$8,$9,$2,$3,0*
0 Add four circle primitives for the rounded corners*
1,1,$1+$1,$2,$3*
1,1,$1+$1,$4,$5*
1,1,$1+$1,$6,$7*
1,1,$1+$1,$8,$9*
0 Add four rect primitives between the rounded corners*
20,1,$1+$1,$2,$3,$4,$5,0*
20,1,$1+$1,$4,$5,$6,$7,0*
20,1,$1+$1,$6,$7,$8,$9,0*
20,1,$1+$1,$8,$9,$2,$3,0*%
G04 Aperture macros list end*
%TA.AperFunction,SMDPad,CuDef*%
%ADD10RoundRect,0.250000X-0.350000X-0.450000X0.350000X-0.450000X0.350000X0.450000X-0.350000X0.450000X0*%
%TD*%
%TA.AperFunction,SMDPad,CuDef*%
%ADD11R,1.650000X1.440000*%
%TD*%
%TA.AperFunction,SMDPad,CuDef*%
%ADD12R,2.060000X1.800000*%
%TD*%
%TA.AperFunction,SMDPad,CuDef*%
%ADD13R,0.790000X1.440000*%
%TD*%
%TA.AperFunction,SMDPad,CuDef*%
%ADD14R,0.600000X0.500000*%
%TD*%
%TA.AperFunction,SMDPad,CuDef*%
%ADD15R,0.990000X1.800000*%
%TD*%
%TA.AperFunction,ViaPad*%
%ADD16C,1.000000*%
%TD*%
%TA.AperFunction,ViaPad*%
%ADD17C,0.600000*%
%TD*%
%TA.AperFunction,Conductor*%
%ADD18C,1.000000*%
%TD*%
%TA.AperFunction,Conductor*%
%ADD19C,0.200000*%
%TD*%
%TA.AperFunction,Conductor*%
%ADD20C,0.450000*%
%TD*%
G04 APERTURE END LIST*
D10*
%TO.P,R2,1*%
%TO.N,Net-(D2-Pad2)*%
X132200000Y-96900000D03*
%TO.P,R2,2*%
%TO.N,+12V*%
X134200000Y-96900000D03*
%TD*%
%TO.P,R3,1*%
%TO.N,Net-(D2-Pad2)*%
X132200000Y-98800000D03*
%TO.P,R3,2*%
%TO.N,+12V*%
X134200000Y-98800000D03*
%TD*%
D11*
%TO.P,D2,1,K*%
%TO.N,Net-(D2-Pad1)*%
X130270000Y-102000000D03*
D12*
X130270000Y-102000000D03*
D13*
%TO.P,D2,2,A*%
%TO.N,Net-(D2-Pad2)*%
X132250000Y-102000000D03*
D14*
X132750000Y-102000000D03*
D15*
X132250000Y-102000000D03*
%TD*%
D11*
%TO.P,D3,1,K*%
%TO.N,Net-(D3-Pad1)*%
X121470000Y-102000000D03*
D12*
X121470000Y-102000000D03*
D14*
%TO.P,D3,2,A*%
%TO.N,Net-(D2-Pad1)*%
X123950000Y-102000000D03*
D13*
X123450000Y-102000000D03*
D15*
X123450000Y-102000000D03*
%TD*%
D12*
%TO.P,D7,1,K*%
%TO.N,Net-(D4-Pad1)*%
X108270000Y-98000000D03*
D11*
X108270000Y-98000000D03*
D15*
%TO.P,D7,2,A*%
%TO.N,Net-(D6-Pad1)*%
X110250000Y-98000000D03*
D13*
X110250000Y-98000000D03*
D14*
X110750000Y-98000000D03*
%TD*%
D11*
%TO.P,D5,1,K*%
%TO.N,Net-(D5-Pad1)*%
X125870000Y-98000000D03*
D12*
X125870000Y-98000000D03*
D13*
%TO.P,D5,2,A*%
%TO.N,Net-(D2-Pad2)*%
X127850000Y-98000000D03*
D15*
X127850000Y-98000000D03*
D14*
X128350000Y-98000000D03*
%TD*%
D11*
%TO.P,D6,1,K*%
%TO.N,Net-(D6-Pad1)*%
X117070000Y-98000000D03*
D12*
X117070000Y-98000000D03*
D14*
%TO.P,D6,2,A*%
%TO.N,Net-(D5-Pad1)*%
X119550000Y-98000000D03*
D15*
X119050000Y-98000000D03*
D13*
X119050000Y-98000000D03*
%TD*%
D12*
%TO.P,D4,1,K*%
%TO.N,Net-(D4-Pad1)*%
X112670000Y-102000000D03*
D11*
X112670000Y-102000000D03*
D14*
%TO.P,D4,2,A*%
%TO.N,Net-(D3-Pad1)*%
X115150000Y-102000000D03*
D13*
X114650000Y-102000000D03*
D15*
X114650000Y-102000000D03*
%TD*%
D16*
%TO.N,+12V*%
X135800000Y-96500000D03*
X137000000Y-96500000D03*
X102300000Y-95200000D03*
X103500000Y-95200000D03*
X89200000Y-98000000D03*
X90400000Y-98000000D03*
D17*
%TO.N,GND*%
X90155000Y-104651500D03*
X100315000Y-103381500D03*
X104125000Y-102111500D03*
X137145000Y-104651500D03*
X92695000Y-95761500D03*
X104125000Y-103381500D03*
X138415000Y-103381500D03*
X149845000Y-95761500D03*
X90155000Y-100841500D03*
X92695000Y-103381500D03*
X153655000Y-98301500D03*
X149845000Y-99571500D03*
X87615000Y-102111500D03*
X99045000Y-100841500D03*
X100400000Y-100400000D03*
X137145000Y-103381500D03*
X142225000Y-104651500D03*
X145000000Y-97300000D03*
X93965000Y-95761500D03*
X104125000Y-97031500D03*
X138415000Y-102111500D03*
X148575000Y-104651500D03*
X100315000Y-95761500D03*
X147305000Y-95761500D03*
X152385000Y-100841500D03*
X149845000Y-98301500D03*
X104125000Y-99571500D03*
X153655000Y-99571500D03*
X138400000Y-100800000D03*
X151115000Y-102111500D03*
X149845000Y-102111500D03*
X152385000Y-102111500D03*
X90155000Y-103381500D03*
X86345000Y-99571500D03*
X104125000Y-98301500D03*
X91425000Y-95761500D03*
X146035000Y-103381500D03*
X87615000Y-100841500D03*
X148575000Y-103381500D03*
X95235000Y-104651500D03*
X101585000Y-103381500D03*
X143495000Y-100841500D03*
X140900000Y-99600000D03*
X96505000Y-95761500D03*
X96505000Y-99571500D03*
X145000000Y-98900000D03*
X97775000Y-100841500D03*
X152385000Y-98301500D03*
X95235000Y-95761500D03*
X97775000Y-95761500D03*
X153655000Y-100841500D03*
X143495000Y-103381500D03*
X86345000Y-100841500D03*
X152385000Y-99571500D03*
X144765000Y-103381500D03*
X92695000Y-104651500D03*
X95300000Y-103400000D03*
X144765000Y-104651500D03*
X102855000Y-102111500D03*
X149845000Y-100841500D03*
X86345000Y-98301500D03*
X104125000Y-100841500D03*
X140955000Y-104651500D03*
X142200000Y-97600000D03*
X134100000Y-105000000D03*
X102855000Y-103381500D03*
X96505000Y-98301500D03*
X135875000Y-104651500D03*
X90155000Y-99571500D03*
X134900000Y-101800000D03*
X87615000Y-98301500D03*
X97100000Y-105000000D03*
X88885000Y-99571500D03*
X101585000Y-98301500D03*
X145600000Y-95000000D03*
X149845000Y-97031500D03*
X88885000Y-100841500D03*
X151115000Y-98301500D03*
X147305000Y-103381500D03*
X93965000Y-103381500D03*
X88885000Y-102111500D03*
X93965000Y-104651500D03*
X148575000Y-95761500D03*
X87615000Y-99571500D03*
X96505000Y-100841500D03*
X91425000Y-103381500D03*
X101585000Y-97031500D03*
X151115000Y-100841500D03*
X146035000Y-104651500D03*
X138307264Y-98358757D03*
X138415000Y-104651500D03*
X101300000Y-99500000D03*
X151115000Y-99571500D03*
X149845000Y-104651500D03*
X90155000Y-95761500D03*
X139600000Y-99600000D03*
X153655000Y-102111500D03*
X96505000Y-97031500D03*
X142225000Y-99571500D03*
X143495000Y-104651500D03*
X90155000Y-102111500D03*
X149845000Y-103381500D03*
X135600000Y-100600000D03*
X139685000Y-104651500D03*
X99045000Y-103381500D03*
X147305000Y-104651500D03*
X91425000Y-104651500D03*
X135300000Y-97700000D03*
X86345000Y-102111500D03*
%TO.N,Net-(D2-Pad1)*%
X124000000Y-101400000D03*
X125400000Y-102600000D03*
X128200000Y-102600000D03*
X131000000Y-101400000D03*
X126800000Y-101400000D03*
X131000000Y-102600000D03*
X125400000Y-101400000D03*
X130300000Y-102000000D03*
X128200000Y-101400000D03*
X129600000Y-102600000D03*
X124000000Y-102600000D03*
X129600000Y-101400000D03*
X126800000Y-102600000D03*
%TO.N,Net-(D3-Pad1)*%
X118000000Y-102600000D03*
X122200000Y-102600000D03*
X120800000Y-102600000D03*
X121500000Y-102000000D03*
X120800000Y-101400000D03*
X118000000Y-101400000D03*
X115200000Y-101400000D03*
X115200000Y-102600000D03*
X116600000Y-102600000D03*
X116600000Y-101400000D03*
X119400000Y-102600000D03*
X122200000Y-101400000D03*
X119400000Y-101400000D03*
%TO.N,Net-(D2-Pad2)*%
X138600000Y-97523415D03*
%TO.N,Net-(D5-Pad1)*%
X119600000Y-98600000D03*
X126600000Y-97400000D03*
X125900000Y-98000000D03*
X123800000Y-98600000D03*
X122400000Y-98600000D03*
X119600000Y-97400000D03*
X122400000Y-97400000D03*
X125200000Y-98600000D03*
X121000000Y-98600000D03*
X126600000Y-98600000D03*
X121000000Y-97400000D03*
X125200000Y-97400000D03*
X123800000Y-97400000D03*
%TO.N,Net-(D6-Pad1)*%
X117100000Y-98000000D03*
X110800000Y-97400000D03*
X110800000Y-98600000D03*
X116400000Y-98600000D03*
X117800000Y-97400000D03*
X115000000Y-98600000D03*
X112200000Y-97400000D03*
X112200000Y-98600000D03*
X113600000Y-97400000D03*
X113600000Y-98600000D03*
X117800000Y-98600000D03*
X115000000Y-97400000D03*
X116400000Y-97400000D03*
%TO.N,Ctrl*%
X136600000Y-101300000D03*
X145100000Y-101200000D03*
%TO.N,Net-(D4-Pad1)*%
X112000000Y-102600000D03*
X109000000Y-98600000D03*
X112000000Y-101400000D03*
X107800000Y-102600000D03*
X112700000Y-102000000D03*
X110600000Y-102600000D03*
X107600000Y-100000000D03*
X109200000Y-101400000D03*
X113400000Y-101400000D03*
X109200000Y-102600000D03*
X113400000Y-102600000D03*
X107600000Y-97400000D03*
X109000000Y-97400000D03*
X110600000Y-101400000D03*
X109000000Y-100000000D03*
X107800000Y-101400000D03*
X107600000Y-98600000D03*
X108300000Y-98000000D03*
%TD*%
D18*
%TO.N,+12V*%
X100500000Y-102100000D02*
X102900000Y-99700000D01*
X95000000Y-102100000D02*
X100500000Y-102100000D01*
X102300000Y-95200000D02*
X103500000Y-95200000D01*
X90900000Y-98000000D02*
X95000000Y-102100000D01*
X102900000Y-99700000D02*
X102900000Y-95200000D01*
X134200000Y-96900000D02*
X134600000Y-96500000D01*
X89200000Y-98000000D02*
X90900000Y-98000000D01*
X134600000Y-96500000D02*
X137000000Y-96500000D01*
X134200000Y-98800000D02*
X134200000Y-96900000D01*
D19*
%TO.N,Net-(D2-Pad2)*%
X133199520Y-99799520D02*
X132200000Y-98800000D01*
X135700480Y-99799520D02*
X133199520Y-99799520D01*
X138600000Y-97523415D02*
X137976585Y-97523415D01*
X137976585Y-97523415D02*
X135700480Y-99799520D01*
D20*
%TO.N,Ctrl*%
X136700000Y-101300000D02*
X139600000Y-98400000D01*
X145100000Y-100600000D02*
X145100000Y-101200000D01*
X136600000Y-101300000D02*
X136700000Y-101300000D01*
X142900000Y-98400000D02*
X145100000Y-100600000D01*
X139600000Y-98400000D02*
X142900000Y-98400000D01*
%TD*%
%TA.AperFunction,Conductor*%
%TO.N,GND*%
G36*
X101591234Y-94674002D02*
G01*
X101637727Y-94727658D01*
X101647831Y-94797932D01*
X101629024Y-94848256D01*
X101619909Y-94862400D01*
X101617499Y-94869021D01*
X101616626Y-94870780D01*
X101608230Y-94888725D01*
X101603368Y-94897096D01*
X101601245Y-94904104D01*
X101601245Y-94904105D01*
X101584979Y-94957811D01*
X101582796Y-94964365D01*
X101562015Y-95021463D01*
X101561132Y-95028454D01*
X101560710Y-95031794D01*
X101556296Y-95052516D01*
X101554491Y-95058475D01*
X101554490Y-95058479D01*
X101552370Y-95065480D01*
X101550585Y-95094264D01*
X101548678Y-95125004D01*
X101547928Y-95132980D01*
X101540800Y-95189399D01*
X101541488Y-95196414D01*
X101542194Y-95203619D01*
X101542553Y-95223715D01*
X101541929Y-95233767D01*
X101541929Y-95233773D01*
X101541476Y-95241080D01*
X101550931Y-95296108D01*
X101552147Y-95305127D01*
X101557318Y-95357862D01*
X101563052Y-95375098D01*
X101567671Y-95393524D01*
X101571271Y-95414477D01*
X101574134Y-95421206D01*
X101574135Y-95421209D01*
X101591636Y-95462338D01*
X101595251Y-95471893D01*
X101610748Y-95518479D01*
X101622161Y-95537323D01*
X101630319Y-95553250D01*
X101640156Y-95576368D01*
X101644495Y-95582264D01*
X101668713Y-95615173D01*
X101675007Y-95624583D01*
X101693453Y-95655040D01*
X101698435Y-95663267D01*
X101703326Y-95668332D01*
X101703327Y-95668333D01*
X101716418Y-95681889D01*
X101727262Y-95694733D01*
X101744437Y-95718071D01*
X101750021Y-95722815D01*
X101778236Y-95746786D01*
X101787292Y-95755282D01*
X101811127Y-95779964D01*
X101811131Y-95779967D01*
X101816021Y-95785031D01*
X101840923Y-95801326D01*
X101853505Y-95810731D01*
X101872941Y-95827243D01*
X101872945Y-95827246D01*
X101878520Y-95831982D01*
X101907549Y-95846805D01*
X101914601Y-95850406D01*
X101926293Y-95857191D01*
X101957660Y-95877717D01*
X101964260Y-95880171D01*
X101964261Y-95880172D01*
X101989172Y-95889436D01*
X102002556Y-95895318D01*
X102028687Y-95908662D01*
X102028693Y-95908664D01*
X102035212Y-95911993D01*
X102049449Y-95915477D01*
X102110861Y-95951094D01*
X102143270Y-96014262D01*
X102145500Y-96037865D01*
X102145500Y-99335286D01*
X102125498Y-99403407D01*
X102108595Y-99424381D01*
X100224381Y-101308595D01*
X100162069Y-101342621D01*
X100135286Y-101345500D01*
X95364714Y-101345500D01*
X95296593Y-101325498D01*
X95275619Y-101308595D01*
X91909210Y-97942186D01*
X96941018Y-97942186D01*
X96966579Y-98210100D01*
X96967664Y-98214534D01*
X96967665Y-98214540D01*
X97017877Y-98419740D01*
X97030547Y-98471518D01*
X97131583Y-98720963D01*
X97267569Y-98953210D01*
X97435658Y-99163395D01*
X97632327Y-99347113D01*
X97853457Y-99500516D01*
X98094416Y-99620391D01*
X98098750Y-99621812D01*
X98098753Y-99621813D01*
X98345823Y-99702807D01*
X98345829Y-99702808D01*
X98350156Y-99704227D01*
X98354647Y-99705007D01*
X98354648Y-99705007D01*
X98611538Y-99749611D01*
X98611546Y-99749612D01*
X98615319Y-99750267D01*
X98619156Y-99750458D01*
X98698777Y-99754422D01*
X98698785Y-99754422D01*
X98700348Y-99754500D01*
X98868374Y-99754500D01*
X98870642Y-99754335D01*
X98870654Y-99754335D01*
X99001457Y-99744844D01*
X99068425Y-99739985D01*
X99072880Y-99739001D01*
X99072883Y-99739001D01*
X99326770Y-99682947D01*
X99326772Y-99682946D01*
X99331226Y-99681963D01*
X99582900Y-99586613D01*
X99818172Y-99455931D01*
X99886995Y-99403407D01*
X100028491Y-99295421D01*
X100028495Y-99295417D01*
X100032116Y-99292654D01*
X100220249Y-99100203D01*
X100327242Y-98953210D01*
X100375942Y-98886304D01*
X100375947Y-98886297D01*
X100378630Y-98882610D01*
X100503941Y-98644433D01*
X100581578Y-98424583D01*
X100592034Y-98394975D01*
X100592034Y-98394974D01*
X100593557Y-98390662D01*
X100626956Y-98221209D01*
X100644720Y-98131083D01*
X100644721Y-98131077D01*
X100645601Y-98126611D01*
X100646247Y-98113642D01*
X100658755Y-97862383D01*
X100658755Y-97862377D01*
X100658982Y-97857814D01*
X100633421Y-97589900D01*
X100622425Y-97544960D01*
X100570539Y-97332920D01*
X100569453Y-97328482D01*
X100468417Y-97079037D01*
X100332431Y-96846790D01*
X100212272Y-96696538D01*
X100167194Y-96640171D01*
X100167193Y-96640169D01*
X100164342Y-96636605D01*
X99967673Y-96452887D01*
X99746543Y-96299484D01*
X99505584Y-96179609D01*
X99501250Y-96178188D01*
X99501247Y-96178187D01*
X99254177Y-96097193D01*
X99254171Y-96097192D01*
X99249844Y-96095773D01*
X99228229Y-96092020D01*
X98988462Y-96050389D01*
X98988454Y-96050388D01*
X98984681Y-96049733D01*
X98974718Y-96049237D01*
X98901223Y-96045578D01*
X98901215Y-96045578D01*
X98899652Y-96045500D01*
X98731626Y-96045500D01*
X98729358Y-96045665D01*
X98729346Y-96045665D01*
X98598543Y-96055156D01*
X98531575Y-96060015D01*
X98527120Y-96060999D01*
X98527117Y-96060999D01*
X98273230Y-96117053D01*
X98273228Y-96117054D01*
X98268774Y-96118037D01*
X98017100Y-96213387D01*
X98013114Y-96215601D01*
X98013112Y-96215602D01*
X97785821Y-96341851D01*
X97781828Y-96344069D01*
X97778196Y-96346841D01*
X97571509Y-96504579D01*
X97571505Y-96504583D01*
X97567884Y-96507346D01*
X97379751Y-96699797D01*
X97377066Y-96703486D01*
X97224058Y-96913696D01*
X97224053Y-96913703D01*
X97221370Y-96917390D01*
X97096059Y-97155567D01*
X97006443Y-97409338D01*
X96984609Y-97520117D01*
X96955428Y-97668169D01*
X96954399Y-97673389D01*
X96954172Y-97677942D01*
X96954172Y-97677945D01*
X96941374Y-97935041D01*
X96941018Y-97942186D01*
X91909210Y-97942186D01*
X91480724Y-97513700D01*
X91468337Y-97499287D01*
X91459904Y-97487828D01*
X91455563Y-97481929D01*
X91415521Y-97447911D01*
X91408005Y-97440981D01*
X91402362Y-97435338D01*
X91380202Y-97417806D01*
X91376816Y-97415030D01*
X91370117Y-97409338D01*
X91321480Y-97368018D01*
X91314960Y-97364689D01*
X91309982Y-97361369D01*
X91304909Y-97358236D01*
X91299167Y-97353693D01*
X91254721Y-97332920D01*
X91233383Y-97322947D01*
X91229433Y-97321016D01*
X91171307Y-97291336D01*
X91164788Y-97288007D01*
X91157678Y-97286267D01*
X91152058Y-97284177D01*
X91146407Y-97282297D01*
X91139778Y-97279199D01*
X91132614Y-97277709D01*
X91132611Y-97277708D01*
X91075770Y-97265886D01*
X91068686Y-97264413D01*
X91064427Y-97263449D01*
X90993892Y-97246189D01*
X90988295Y-97245842D01*
X90988290Y-97245841D01*
X90982786Y-97245500D01*
X90982788Y-97245466D01*
X90978729Y-97245223D01*
X90974695Y-97244863D01*
X90967527Y-97243372D01*
X90952708Y-97243773D01*
X90890585Y-97245454D01*
X90887177Y-97245500D01*
X90452667Y-97245500D01*
X90437748Y-97244614D01*
X90427332Y-97243372D01*
X90405301Y-97240745D01*
X90398298Y-97241481D01*
X90398297Y-97241481D01*
X90366623Y-97244810D01*
X90353453Y-97245500D01*
X89252667Y-97245500D01*
X89237748Y-97244614D01*
X89227332Y-97243372D01*
X89205301Y-97240745D01*
X89198298Y-97241481D01*
X89198295Y-97241481D01*
X89163537Y-97245134D01*
X89159054Y-97245500D01*
X89155947Y-97245500D01*
X89152301Y-97245925D01*
X89152302Y-97245925D01*
X89119079Y-97249798D01*
X89117659Y-97249956D01*
X89043959Y-97257702D01*
X89043958Y-97257702D01*
X89036957Y-97258438D01*
X89033092Y-97259753D01*
X89032512Y-97259890D01*
X89025246Y-97260738D01*
X88951635Y-97287458D01*
X88949252Y-97288295D01*
X88876717Y-97312988D01*
X88871772Y-97316030D01*
X88868517Y-97317383D01*
X88866742Y-97318272D01*
X88859866Y-97320768D01*
X88797940Y-97361369D01*
X88797395Y-97361726D01*
X88794332Y-97363671D01*
X88738545Y-97397991D01*
X88738538Y-97397996D01*
X88732544Y-97401684D01*
X88727515Y-97406608D01*
X88724206Y-97409194D01*
X88720451Y-97411884D01*
X88718849Y-97413223D01*
X88712732Y-97417234D01*
X88707699Y-97422546D01*
X88707700Y-97422546D01*
X88663902Y-97468780D01*
X88660587Y-97472150D01*
X88618158Y-97513700D01*
X88611605Y-97520117D01*
X88607787Y-97526042D01*
X88603337Y-97531498D01*
X88603123Y-97531323D01*
X88600418Y-97534770D01*
X88596771Y-97539646D01*
X88591736Y-97544960D01*
X88588059Y-97551290D01*
X88588057Y-97551293D01*
X88557976Y-97603081D01*
X88554935Y-97608050D01*
X88519909Y-97662400D01*
X88517499Y-97669021D01*
X88516626Y-97670780D01*
X88508230Y-97688725D01*
X88503368Y-97697096D01*
X88501245Y-97704104D01*
X88501245Y-97704105D01*
X88484979Y-97757811D01*
X88482796Y-97764365D01*
X88462015Y-97821463D01*
X88461132Y-97828454D01*
X88460710Y-97831794D01*
X88456296Y-97852516D01*
X88454491Y-97858475D01*
X88454490Y-97858479D01*
X88452370Y-97865480D01*
X88448829Y-97922575D01*
X88448678Y-97925004D01*
X88447928Y-97932980D01*
X88440800Y-97989399D01*
X88441488Y-97996414D01*
X88442194Y-98003619D01*
X88442553Y-98023715D01*
X88441929Y-98033767D01*
X88441929Y-98033773D01*
X88441476Y-98041080D01*
X88450931Y-98096108D01*
X88452147Y-98105127D01*
X88457318Y-98157862D01*
X88463052Y-98175098D01*
X88467671Y-98193524D01*
X88471271Y-98214477D01*
X88474134Y-98221206D01*
X88474135Y-98221209D01*
X88491636Y-98262338D01*
X88495251Y-98271893D01*
X88510748Y-98318479D01*
X88522161Y-98337323D01*
X88530319Y-98353250D01*
X88540156Y-98376368D01*
X88544495Y-98382264D01*
X88568713Y-98415173D01*
X88575007Y-98424583D01*
X88598435Y-98463267D01*
X88603326Y-98468332D01*
X88603327Y-98468333D01*
X88616418Y-98481889D01*
X88627262Y-98494733D01*
X88644437Y-98518071D01*
X88650021Y-98522815D01*
X88678236Y-98546786D01*
X88687292Y-98555282D01*
X88711127Y-98579964D01*
X88711131Y-98579967D01*
X88716021Y-98585031D01*
X88740923Y-98601326D01*
X88753505Y-98610731D01*
X88772941Y-98627243D01*
X88772945Y-98627246D01*
X88778520Y-98631982D01*
X88785034Y-98635308D01*
X88814601Y-98650406D01*
X88826293Y-98657191D01*
X88857660Y-98677717D01*
X88864260Y-98680171D01*
X88864261Y-98680172D01*
X88889172Y-98689436D01*
X88902556Y-98695318D01*
X88928687Y-98708662D01*
X88928693Y-98708664D01*
X88935212Y-98711993D01*
X88970842Y-98720711D01*
X88984791Y-98724996D01*
X89016315Y-98736720D01*
X89040859Y-98739995D01*
X89053472Y-98741678D01*
X89066754Y-98744182D01*
X89100651Y-98752476D01*
X89100655Y-98752477D01*
X89106108Y-98753811D01*
X89111705Y-98754158D01*
X89111710Y-98754159D01*
X89115275Y-98754380D01*
X89115284Y-98754380D01*
X89117214Y-98754500D01*
X89141204Y-98754500D01*
X89157868Y-98755607D01*
X89177118Y-98758176D01*
X89177122Y-98758176D01*
X89184099Y-98759107D01*
X89191110Y-98758469D01*
X89191114Y-98758469D01*
X89229020Y-98755019D01*
X89240439Y-98754500D01*
X90341204Y-98754500D01*
X90357868Y-98755607D01*
X90377118Y-98758176D01*
X90377122Y-98758176D01*
X90384099Y-98759107D01*
X90391110Y-98758469D01*
X90391114Y-98758469D01*
X90429020Y-98755019D01*
X90440439Y-98754500D01*
X90535285Y-98754500D01*
X90603406Y-98774502D01*
X90624380Y-98791405D01*
X94419279Y-102586304D01*
X94431666Y-102600716D01*
X94444437Y-102618071D01*
X94453369Y-102625659D01*
X94484472Y-102652083D01*
X94491988Y-102659013D01*
X94497638Y-102664663D01*
X94500507Y-102666933D01*
X94500515Y-102666940D01*
X94519786Y-102682186D01*
X94523186Y-102684973D01*
X94535819Y-102695705D01*
X94578520Y-102731982D01*
X94585036Y-102735309D01*
X94590004Y-102738622D01*
X94595090Y-102741763D01*
X94600833Y-102746307D01*
X94607467Y-102749407D01*
X94607466Y-102749407D01*
X94666617Y-102777053D01*
X94670567Y-102778984D01*
X94735212Y-102811993D01*
X94742322Y-102813733D01*
X94747934Y-102815820D01*
X94753591Y-102817702D01*
X94760222Y-102820801D01*
X94767387Y-102822291D01*
X94767389Y-102822292D01*
X94831328Y-102835591D01*
X94835612Y-102836561D01*
X94906108Y-102853811D01*
X94911710Y-102854159D01*
X94911713Y-102854159D01*
X94917214Y-102854500D01*
X94917212Y-102854534D01*
X94921250Y-102854777D01*
X94925311Y-102855139D01*
X94932473Y-102856629D01*
X95009452Y-102854546D01*
X95012860Y-102854500D01*
X100433235Y-102854500D01*
X100452185Y-102855933D01*
X100466255Y-102858074D01*
X100466259Y-102858074D01*
X100473489Y-102859174D01*
X100480780Y-102858581D01*
X100480783Y-102858581D01*
X100525848Y-102854915D01*
X100536063Y-102854500D01*
X100544053Y-102854500D01*
X100551302Y-102853655D01*
X100572113Y-102851229D01*
X100576487Y-102850796D01*
X100641549Y-102845504D01*
X100641552Y-102845503D01*
X100648847Y-102844910D01*
X100655809Y-102842655D01*
X100661677Y-102841482D01*
X100667484Y-102840110D01*
X100674754Y-102839262D01*
X100743060Y-102814468D01*
X100747163Y-102813060D01*
X100816222Y-102790688D01*
X100822479Y-102786891D01*
X100827926Y-102784398D01*
X100833254Y-102781730D01*
X100840134Y-102779232D01*
X100900849Y-102739426D01*
X100904559Y-102737085D01*
X100961838Y-102702327D01*
X100961840Y-102702325D01*
X100966633Y-102699417D01*
X100974974Y-102692051D01*
X100974996Y-102692076D01*
X100978041Y-102689376D01*
X100981146Y-102686780D01*
X100987268Y-102682766D01*
X101040216Y-102626873D01*
X101042593Y-102624432D01*
X103386304Y-100280721D01*
X103400717Y-100268334D01*
X103412172Y-100259904D01*
X103418071Y-100255563D01*
X103452083Y-100215528D01*
X103459013Y-100208012D01*
X103464663Y-100202362D01*
X103466933Y-100199493D01*
X103466940Y-100199485D01*
X103482186Y-100180214D01*
X103484973Y-100176814D01*
X103527247Y-100127054D01*
X103527248Y-100127052D01*
X103531982Y-100121480D01*
X103535309Y-100114964D01*
X103538622Y-100109996D01*
X103541763Y-100104910D01*
X103546307Y-100099167D01*
X103577053Y-100033383D01*
X103578984Y-100029433D01*
X103608664Y-99971307D01*
X103611993Y-99964788D01*
X103613733Y-99957678D01*
X103615820Y-99952066D01*
X103617702Y-99946409D01*
X103620801Y-99939778D01*
X103635592Y-99868667D01*
X103636562Y-99864383D01*
X103652476Y-99799346D01*
X103653811Y-99793892D01*
X103654500Y-99782786D01*
X103654534Y-99782788D01*
X103654777Y-99778750D01*
X103655139Y-99774689D01*
X103656629Y-99767527D01*
X103654546Y-99690548D01*
X103654500Y-99687140D01*
X103654500Y-96034922D01*
X103674502Y-95966801D01*
X103728158Y-95920308D01*
X103737509Y-95916483D01*
X103742906Y-95914524D01*
X103746961Y-95913130D01*
X103806960Y-95893635D01*
X103806963Y-95893634D01*
X103813659Y-95891458D01*
X103819708Y-95887852D01*
X103826123Y-95884942D01*
X103826307Y-95885348D01*
X103826766Y-95885130D01*
X103826706Y-95885009D01*
X103833259Y-95881728D01*
X103840134Y-95879232D01*
X103846251Y-95875221D01*
X103846258Y-95875218D01*
X103897630Y-95841537D01*
X103902196Y-95838681D01*
X103952995Y-95808398D01*
X103953000Y-95808394D01*
X103959056Y-95804784D01*
X103964163Y-95799920D01*
X103969765Y-95795668D01*
X103969787Y-95795697D01*
X103980465Y-95787226D01*
X103981151Y-95786777D01*
X103981154Y-95786774D01*
X103987268Y-95782766D01*
X103992296Y-95777458D01*
X103992300Y-95777455D01*
X104031943Y-95735606D01*
X104036524Y-95731013D01*
X104045133Y-95722815D01*
X104081638Y-95688052D01*
X104086543Y-95680669D01*
X104100014Y-95663749D01*
X104103228Y-95660356D01*
X104108264Y-95655040D01*
X104138984Y-95602152D01*
X104142990Y-95595711D01*
X104171414Y-95552930D01*
X104171418Y-95552923D01*
X104175311Y-95547063D01*
X104179833Y-95535159D01*
X104188665Y-95516621D01*
X104192955Y-95509235D01*
X104192956Y-95509233D01*
X104196632Y-95502904D01*
X104213265Y-95447985D01*
X104216051Y-95439815D01*
X104235420Y-95388824D01*
X104236400Y-95381854D01*
X104236401Y-95381848D01*
X104237731Y-95372380D01*
X104241912Y-95353397D01*
X104247630Y-95334520D01*
X104249453Y-95305135D01*
X104250945Y-95281093D01*
X104251929Y-95271361D01*
X104258426Y-95225126D01*
X104258978Y-95221200D01*
X104259274Y-95200000D01*
X104258373Y-95191967D01*
X104257829Y-95170118D01*
X104258524Y-95158920D01*
X104248039Y-95097901D01*
X104247004Y-95090608D01*
X104241191Y-95038783D01*
X104240406Y-95031784D01*
X104236469Y-95020479D01*
X104231284Y-95000393D01*
X104229968Y-94992734D01*
X104228729Y-94985523D01*
X104205972Y-94932042D01*
X104202927Y-94924158D01*
X104187056Y-94878584D01*
X104187054Y-94878580D01*
X104184738Y-94871929D01*
X104178784Y-94862400D01*
X104176349Y-94858502D01*
X104167265Y-94841072D01*
X104162271Y-94829336D01*
X104154004Y-94758822D01*
X104185171Y-94695032D01*
X104245878Y-94658219D01*
X104278211Y-94654000D01*
X154720000Y-94654000D01*
X154788121Y-94674002D01*
X154834614Y-94727658D01*
X154846000Y-94780000D01*
X154846000Y-105220000D01*
X154825998Y-105288121D01*
X154772342Y-105334614D01*
X154720000Y-105346000D01*
X85480000Y-105346000D01*
X85411879Y-105325998D01*
X85365386Y-105272342D01*
X85354000Y-105220000D01*
X85354000Y-103674000D01*
X105646000Y-103674000D01*
X105646360Y-103677347D01*
X105646360Y-103677351D01*
X105648851Y-103700516D01*
X105651804Y-103727990D01*
X105652522Y-103731290D01*
X105652522Y-103731291D01*
X105656567Y-103749884D01*
X105663190Y-103780332D01*
X105670384Y-103806555D01*
X105678263Y-103820391D01*
X105716362Y-103887298D01*
X105716365Y-103887302D01*
X105719425Y-103892676D01*
X105728204Y-103902807D01*
X105761604Y-103941353D01*
X105765918Y-103946332D01*
X105798502Y-103977773D01*
X105886319Y-104023709D01*
X105954440Y-104043711D01*
X105958899Y-104044352D01*
X105958903Y-104044353D01*
X105980639Y-104047478D01*
X106026000Y-104054000D01*
X113574000Y-104054000D01*
X113577347Y-104053640D01*
X113577351Y-104053640D01*
X113624626Y-104048558D01*
X113624633Y-104048557D01*
X113627990Y-104048196D01*
X113631291Y-104047478D01*
X113678678Y-104037170D01*
X113678685Y-104037168D01*
X113680332Y-104036810D01*
X113706555Y-104029616D01*
X113747320Y-104006403D01*
X113787298Y-103983638D01*
X113787302Y-103983635D01*
X113792676Y-103980575D01*
X113797351Y-103976524D01*
X113797354Y-103976522D01*
X113815566Y-103960741D01*
X113880147Y-103931248D01*
X113950421Y-103941353D01*
X113985568Y-103965293D01*
X113992019Y-103971518D01*
X113992021Y-103971520D01*
X113998502Y-103977773D01*
X114086319Y-104023709D01*
X114154440Y-104043711D01*
X114158899Y-104044352D01*
X114158903Y-104044353D01*
X114180639Y-104047478D01*
X114226000Y-104054000D01*
X122374000Y-104054000D01*
X122377347Y-104053640D01*
X122377351Y-104053640D01*
X122424626Y-104048558D01*
X122424633Y-104048557D01*
X122427990Y-104048196D01*
X122431291Y-104047478D01*
X122478678Y-104037170D01*
X122478685Y-104037168D01*
X122480332Y-104036810D01*
X122506555Y-104029616D01*
X122547320Y-104006403D01*
X122587298Y-103983638D01*
X122587302Y-103983635D01*
X122592676Y-103980575D01*
X122597351Y-103976524D01*
X122597354Y-103976522D01*
X122615566Y-103960741D01*
X122680147Y-103931248D01*
X122750421Y-103941353D01*
X122785568Y-103965293D01*
X122792019Y-103971518D01*
X122792021Y-103971520D01*
X122798502Y-103977773D01*
X122886319Y-104023709D01*
X122954440Y-104043711D01*
X122958899Y-104044352D01*
X122958903Y-104044353D01*
X122980639Y-104047478D01*
X123026000Y-104054000D01*
X131174000Y-104054000D01*
X131177347Y-104053640D01*
X131177351Y-104053640D01*
X131224626Y-104048558D01*
X131224633Y-104048557D01*
X131227990Y-104048196D01*
X131231291Y-104047478D01*
X131278678Y-104037170D01*
X131278685Y-104037168D01*
X131280332Y-104036810D01*
X131306555Y-104029616D01*
X131347320Y-104006403D01*
X131387298Y-103983638D01*
X131387302Y-103983635D01*
X131392676Y-103980575D01*
X131397351Y-103976524D01*
X131397354Y-103976522D01*
X131415566Y-103960741D01*
X131480147Y-103931248D01*
X131550421Y-103941353D01*
X131585568Y-103965293D01*
X131592019Y-103971518D01*
X131592021Y-103971520D01*
X131598502Y-103977773D01*
X131686319Y-104023709D01*
X131754440Y-104043711D01*
X131758899Y-104044352D01*
X131758903Y-104044353D01*
X131780639Y-104047478D01*
X131826000Y-104054000D01*
X134174000Y-104054000D01*
X134177347Y-104053640D01*
X134177351Y-104053640D01*
X134224626Y-104048558D01*
X134224633Y-104048557D01*
X134227990Y-104048196D01*
X134231291Y-104047478D01*
X134278678Y-104037170D01*
X134278685Y-104037168D01*
X134280332Y-104036810D01*
X134306555Y-104029616D01*
X134347320Y-104006403D01*
X134387298Y-103983638D01*
X134387302Y-103983635D01*
X134392676Y-103980575D01*
X134427433Y-103950458D01*
X134444209Y-103935922D01*
X134444214Y-103935917D01*
X134446332Y-103934082D01*
X134477773Y-103901498D01*
X134523709Y-103813681D01*
X134543711Y-103745560D01*
X134554000Y-103674000D01*
X134554000Y-102142186D01*
X139541018Y-102142186D01*
X139566579Y-102410100D01*
X139630547Y-102671518D01*
X139731583Y-102920963D01*
X139867569Y-103153210D01*
X140035658Y-103363395D01*
X140232327Y-103547113D01*
X140453457Y-103700516D01*
X140694416Y-103820391D01*
X140698750Y-103821812D01*
X140698753Y-103821813D01*
X140945823Y-103902807D01*
X140945829Y-103902808D01*
X140950156Y-103904227D01*
X140954647Y-103905007D01*
X140954648Y-103905007D01*
X141211538Y-103949611D01*
X141211546Y-103949612D01*
X141215319Y-103950267D01*
X141219156Y-103950458D01*
X141298777Y-103954422D01*
X141298785Y-103954422D01*
X141300348Y-103954500D01*
X141468374Y-103954500D01*
X141470642Y-103954335D01*
X141470654Y-103954335D01*
X141610208Y-103944209D01*
X141668425Y-103939985D01*
X141672880Y-103939001D01*
X141672883Y-103939001D01*
X141926770Y-103882947D01*
X141926772Y-103882946D01*
X141931226Y-103881963D01*
X142182900Y-103786613D01*
X142256810Y-103745560D01*
X142414179Y-103658149D01*
X142414180Y-103658148D01*
X142418172Y-103655931D01*
X142564842Y-103543996D01*
X142628491Y-103495421D01*
X142628495Y-103495417D01*
X142632116Y-103492654D01*
X142820249Y-103300203D01*
X142927242Y-103153210D01*
X142975942Y-103086304D01*
X142975947Y-103086297D01*
X142978630Y-103082610D01*
X143103941Y-102844433D01*
X143193557Y-102590662D01*
X143218688Y-102463156D01*
X143244720Y-102331083D01*
X143244721Y-102331077D01*
X143245601Y-102326611D01*
X143254782Y-102142186D01*
X143258755Y-102062383D01*
X143258755Y-102062377D01*
X143258982Y-102057814D01*
X143233421Y-101789900D01*
X143232065Y-101784355D01*
X143170539Y-101532920D01*
X143169453Y-101528482D01*
X143068417Y-101279037D01*
X142932431Y-101046790D01*
X142764342Y-100836605D01*
X142567673Y-100652887D01*
X142346543Y-100499484D01*
X142105584Y-100379609D01*
X142101250Y-100378188D01*
X142101247Y-100378187D01*
X141854177Y-100297193D01*
X141854171Y-100297192D01*
X141849844Y-100295773D01*
X141801379Y-100287358D01*
X141588462Y-100250389D01*
X141588454Y-100250388D01*
X141584681Y-100249733D01*
X141574718Y-100249237D01*
X141501223Y-100245578D01*
X141501215Y-100245578D01*
X141499652Y-100245500D01*
X141331626Y-100245500D01*
X141329358Y-100245665D01*
X141329346Y-100245665D01*
X141198543Y-100255156D01*
X141131575Y-100260015D01*
X141127120Y-100260999D01*
X141127117Y-100260999D01*
X140873230Y-100317053D01*
X140873228Y-100317054D01*
X140868774Y-100318037D01*
X140617100Y-100413387D01*
X140613114Y-100415601D01*
X140613112Y-100415602D01*
X140491089Y-100483380D01*
X140381828Y-100544069D01*
X140378196Y-100546841D01*
X140171509Y-100704579D01*
X140171505Y-100704583D01*
X140167884Y-100707346D01*
X139979751Y-100899797D01*
X139977066Y-100903486D01*
X139824058Y-101113696D01*
X139824053Y-101113703D01*
X139821370Y-101117390D01*
X139696059Y-101355567D01*
X139606443Y-101609338D01*
X139590757Y-101688923D01*
X139557179Y-101859285D01*
X139554399Y-101873389D01*
X139554172Y-101877942D01*
X139554172Y-101877945D01*
X139544991Y-102062383D01*
X139541018Y-102142186D01*
X134554000Y-102142186D01*
X134554000Y-101300000D01*
X136040715Y-101300000D01*
X136059772Y-101444754D01*
X136062931Y-101452380D01*
X136094454Y-101528482D01*
X136115645Y-101579642D01*
X136204526Y-101695474D01*
X136211076Y-101700500D01*
X136211079Y-101700503D01*
X136287685Y-101759285D01*
X136320357Y-101784355D01*
X136455246Y-101840228D01*
X136600000Y-101859285D01*
X136608188Y-101858207D01*
X136736566Y-101841306D01*
X136744754Y-101840228D01*
X136879643Y-101784355D01*
X136912315Y-101759285D01*
X136988921Y-101700503D01*
X136988924Y-101700500D01*
X136995474Y-101695474D01*
X137026242Y-101655375D01*
X137043957Y-101636627D01*
X137044311Y-101636322D01*
X137065049Y-101618453D01*
X137069928Y-101610925D01*
X137075834Y-101604156D01*
X137075901Y-101604215D01*
X137084381Y-101593734D01*
X139761711Y-98916405D01*
X139824023Y-98882379D01*
X139850806Y-98879500D01*
X142649195Y-98879500D01*
X142717316Y-98899502D01*
X142738290Y-98916405D01*
X144583595Y-100761710D01*
X144617621Y-100824022D01*
X144620500Y-100850805D01*
X144620500Y-100883573D01*
X144610909Y-100931791D01*
X144559772Y-101055246D01*
X144540715Y-101200000D01*
X144541793Y-101208188D01*
X144555012Y-101308595D01*
X144559772Y-101344754D01*
X144579578Y-101392570D01*
X144604353Y-101452380D01*
X144615645Y-101479642D01*
X144620672Y-101486193D01*
X144692378Y-101579642D01*
X144704526Y-101595474D01*
X144711076Y-101600500D01*
X144711079Y-101600503D01*
X144782591Y-101655376D01*
X144820357Y-101684355D01*
X144955246Y-101740228D01*
X145100000Y-101759285D01*
X145108188Y-101758207D01*
X145236566Y-101741306D01*
X145244754Y-101740228D01*
X145379643Y-101684355D01*
X145417409Y-101655376D01*
X145488921Y-101600503D01*
X145488924Y-101600500D01*
X145495474Y-101595474D01*
X145507623Y-101579642D01*
X145579328Y-101486193D01*
X145584355Y-101479642D01*
X145595648Y-101452380D01*
X145620422Y-101392570D01*
X145640228Y-101344754D01*
X145644989Y-101308595D01*
X145658207Y-101208188D01*
X145659285Y-101200000D01*
X145640228Y-101055246D01*
X145589091Y-100931791D01*
X145579500Y-100883573D01*
X145579500Y-100667825D01*
X145580754Y-100656600D01*
X145580170Y-100656553D01*
X145580890Y-100647607D01*
X145582871Y-100638851D01*
X145579742Y-100588416D01*
X145579500Y-100580615D01*
X145579500Y-100565569D01*
X145578143Y-100556092D01*
X145577113Y-100546037D01*
X145574922Y-100510726D01*
X145574366Y-100501764D01*
X145571318Y-100493320D01*
X145570106Y-100487469D01*
X145567908Y-100478656D01*
X145566232Y-100472923D01*
X145564959Y-100464036D01*
X145546598Y-100423654D01*
X145542800Y-100414325D01*
X145527728Y-100372573D01*
X145522433Y-100365325D01*
X145519646Y-100360083D01*
X145515046Y-100352211D01*
X145511826Y-100347176D01*
X145508110Y-100339003D01*
X145479161Y-100305405D01*
X145472879Y-100297494D01*
X145468346Y-100291290D01*
X145468344Y-100291288D01*
X145465473Y-100287358D01*
X145455317Y-100277202D01*
X145448959Y-100270355D01*
X145424310Y-100241748D01*
X145424309Y-100241747D01*
X145418453Y-100234951D01*
X145410926Y-100230072D01*
X145404156Y-100224166D01*
X145404215Y-100224099D01*
X145393734Y-100215619D01*
X143287019Y-98108904D01*
X143279968Y-98100079D01*
X143279521Y-98100459D01*
X143273703Y-98093623D01*
X143268913Y-98086031D01*
X143231027Y-98052571D01*
X143225340Y-98047225D01*
X143214711Y-98036596D01*
X143209836Y-98032942D01*
X143207048Y-98030852D01*
X143199217Y-98024476D01*
X143172693Y-98001052D01*
X143165964Y-97995109D01*
X143157836Y-97991293D01*
X143152858Y-97988023D01*
X143145035Y-97983322D01*
X143139816Y-97980465D01*
X143132635Y-97975083D01*
X143091100Y-97959512D01*
X143081799Y-97955593D01*
X143041634Y-97936736D01*
X143032767Y-97935355D01*
X143027091Y-97933620D01*
X143018214Y-97931292D01*
X143012428Y-97930020D01*
X143004025Y-97926870D01*
X142978917Y-97925004D01*
X142959800Y-97923583D01*
X142949763Y-97922432D01*
X142937357Y-97920500D01*
X142922990Y-97920500D01*
X142913652Y-97920154D01*
X142867052Y-97916691D01*
X142858276Y-97918564D01*
X142849319Y-97919175D01*
X142849313Y-97919085D01*
X142835909Y-97920500D01*
X139667821Y-97920500D01*
X139656601Y-97919246D01*
X139656554Y-97919831D01*
X139647606Y-97919111D01*
X139638851Y-97917130D01*
X139590104Y-97920154D01*
X139588427Y-97920258D01*
X139580626Y-97920500D01*
X139565569Y-97920500D01*
X139556082Y-97921859D01*
X139546025Y-97922889D01*
X139501764Y-97925634D01*
X139493315Y-97928684D01*
X139487465Y-97929896D01*
X139478648Y-97932094D01*
X139472921Y-97933769D01*
X139464036Y-97935041D01*
X139423650Y-97953404D01*
X139414298Y-97957210D01*
X139381020Y-97969223D01*
X139381016Y-97969225D01*
X139372573Y-97972273D01*
X139365320Y-97977572D01*
X139360071Y-97980363D01*
X139352195Y-97984965D01*
X139347179Y-97988173D01*
X139339003Y-97991890D01*
X139305402Y-98020842D01*
X139297489Y-98027125D01*
X139287357Y-98034527D01*
X139277195Y-98044689D01*
X139270349Y-98051046D01*
X139234951Y-98081547D01*
X139230067Y-98089082D01*
X139224168Y-98095844D01*
X139224100Y-98095784D01*
X139215622Y-98106262D01*
X136608559Y-100713326D01*
X136546247Y-100747351D01*
X136535915Y-100749152D01*
X136493321Y-100754759D01*
X136463433Y-100758694D01*
X136463432Y-100758694D01*
X136455246Y-100759772D01*
X136447619Y-100762931D01*
X136447620Y-100762931D01*
X136327986Y-100812485D01*
X136327984Y-100812486D01*
X136320358Y-100815645D01*
X136204526Y-100904526D01*
X136199503Y-100911072D01*
X136192378Y-100920358D01*
X136115645Y-101020358D01*
X136112486Y-101027984D01*
X136112485Y-101027986D01*
X136103062Y-101050735D01*
X136059772Y-101155246D01*
X136040715Y-101300000D01*
X134554000Y-101300000D01*
X134554000Y-100280020D01*
X134574002Y-100211899D01*
X134627658Y-100165406D01*
X134680000Y-100154020D01*
X135649223Y-100154020D01*
X135669017Y-100156126D01*
X135673370Y-100156331D01*
X135683550Y-100158523D01*
X135714220Y-100154893D01*
X135719563Y-100154578D01*
X135719552Y-100154448D01*
X135724732Y-100154020D01*
X135729931Y-100154020D01*
X135735055Y-100153167D01*
X135735068Y-100153166D01*
X135747521Y-100151093D01*
X135753396Y-100150256D01*
X135790409Y-100145875D01*
X135800750Y-100144651D01*
X135808458Y-100140950D01*
X135816897Y-100139545D01*
X135858881Y-100116891D01*
X135864144Y-100114210D01*
X135878484Y-100107324D01*
X135907138Y-100093565D01*
X135911130Y-100090209D01*
X135913077Y-100088262D01*
X135914702Y-100086772D01*
X135915134Y-100086539D01*
X135915167Y-100086575D01*
X135915325Y-100086436D01*
X135920760Y-100083503D01*
X135954837Y-100046639D01*
X135958266Y-100043073D01*
X138057318Y-97944021D01*
X138119630Y-97909995D01*
X138190445Y-97915060D01*
X138223112Y-97933151D01*
X138320357Y-98007770D01*
X138455246Y-98063643D01*
X138600000Y-98082700D01*
X138608188Y-98081622D01*
X138736566Y-98064721D01*
X138744754Y-98063643D01*
X138879643Y-98007770D01*
X138892700Y-97997751D01*
X138988921Y-97923918D01*
X138988924Y-97923915D01*
X138995474Y-97918889D01*
X139026915Y-97877915D01*
X139064867Y-97828454D01*
X139084355Y-97803057D01*
X139140228Y-97668169D01*
X139150999Y-97586358D01*
X139158207Y-97531603D01*
X139159285Y-97523415D01*
X139148909Y-97444602D01*
X139141306Y-97386847D01*
X139141305Y-97386845D01*
X139140228Y-97378661D01*
X139117150Y-97322947D01*
X139087515Y-97251401D01*
X139087514Y-97251399D01*
X139084355Y-97243773D01*
X139027570Y-97169769D01*
X139000501Y-97134492D01*
X139000500Y-97134491D01*
X138995474Y-97127941D01*
X138988924Y-97122915D01*
X138988921Y-97122912D01*
X138886196Y-97044088D01*
X138886194Y-97044087D01*
X138879643Y-97039060D01*
X138744754Y-96983187D01*
X138600000Y-96964130D01*
X138591812Y-96965208D01*
X138463432Y-96982109D01*
X138463430Y-96982110D01*
X138455246Y-96983187D01*
X138407430Y-97002993D01*
X138327986Y-97035900D01*
X138327984Y-97035901D01*
X138320358Y-97039060D01*
X138204526Y-97127941D01*
X138200989Y-97132550D01*
X138139673Y-97166035D01*
X138112886Y-97168915D01*
X138027843Y-97168915D01*
X138008049Y-97166809D01*
X138003696Y-97166604D01*
X137993516Y-97164412D01*
X137962847Y-97168042D01*
X137957502Y-97168357D01*
X137957513Y-97168487D01*
X137952335Y-97168915D01*
X137947134Y-97168915D01*
X137929549Y-97171842D01*
X137923672Y-97172679D01*
X137876315Y-97178284D01*
X137868607Y-97181985D01*
X137860168Y-97183390D01*
X137845216Y-97191458D01*
X137818200Y-97206035D01*
X137812909Y-97208731D01*
X137777068Y-97225941D01*
X137777065Y-97225943D01*
X137769928Y-97229370D01*
X137765935Y-97232726D01*
X137764009Y-97234652D01*
X137762359Y-97236165D01*
X137761923Y-97236401D01*
X137761891Y-97236366D01*
X137761740Y-97236499D01*
X137756305Y-97239432D01*
X137749236Y-97247079D01*
X137722228Y-97276296D01*
X137718799Y-97279862D01*
X136645409Y-98353253D01*
X135590547Y-99408115D01*
X135528235Y-99442140D01*
X135501452Y-99445020D01*
X135178931Y-99445020D01*
X135110810Y-99425018D01*
X135064317Y-99371362D01*
X135053668Y-99305410D01*
X135054500Y-99297756D01*
X135054500Y-98302244D01*
X135051203Y-98271899D01*
X135048651Y-98248403D01*
X135048651Y-98248402D01*
X135047798Y-98240552D01*
X134997071Y-98105236D01*
X134979674Y-98082023D01*
X134954826Y-98015517D01*
X134954500Y-98006458D01*
X134954500Y-97693542D01*
X134974502Y-97625421D01*
X134979674Y-97617977D01*
X134991688Y-97601947D01*
X134991689Y-97601946D01*
X134997071Y-97594764D01*
X135037159Y-97487828D01*
X135045026Y-97466843D01*
X135045026Y-97466841D01*
X135047798Y-97459448D01*
X135054500Y-97397756D01*
X135054500Y-97380500D01*
X135074502Y-97312379D01*
X135128158Y-97265886D01*
X135180500Y-97254500D01*
X135741204Y-97254500D01*
X135757868Y-97255607D01*
X135777118Y-97258176D01*
X135777122Y-97258176D01*
X135784099Y-97259107D01*
X135791110Y-97258469D01*
X135791114Y-97258469D01*
X135829020Y-97255019D01*
X135840439Y-97254500D01*
X136941204Y-97254500D01*
X136957868Y-97255607D01*
X136977118Y-97258176D01*
X136977122Y-97258176D01*
X136984099Y-97259107D01*
X136991110Y-97258469D01*
X136991114Y-97258469D01*
X137029020Y-97255019D01*
X137040219Y-97254510D01*
X137040391Y-97254500D01*
X137044053Y-97254500D01*
X137047687Y-97254076D01*
X137047692Y-97254076D01*
X137075632Y-97250818D01*
X137078805Y-97250488D01*
X137126046Y-97246189D01*
X137152673Y-97243766D01*
X137159371Y-97241590D01*
X137160063Y-97241448D01*
X137165558Y-97240565D01*
X137167483Y-97240110D01*
X137174754Y-97239262D01*
X137242913Y-97214522D01*
X137246961Y-97213130D01*
X137306960Y-97193635D01*
X137306963Y-97193634D01*
X137313659Y-97191458D01*
X137319708Y-97187852D01*
X137326123Y-97184942D01*
X137326307Y-97185348D01*
X137326766Y-97185130D01*
X137326706Y-97185009D01*
X137333259Y-97181728D01*
X137340134Y-97179232D01*
X137346251Y-97175221D01*
X137346258Y-97175218D01*
X137397630Y-97141537D01*
X137402196Y-97138681D01*
X137452995Y-97108398D01*
X137453000Y-97108394D01*
X137459056Y-97104784D01*
X137464163Y-97099920D01*
X137469765Y-97095668D01*
X137469787Y-97095697D01*
X137480465Y-97087226D01*
X137481151Y-97086777D01*
X137481154Y-97086774D01*
X137487268Y-97082766D01*
X137492296Y-97077458D01*
X137492300Y-97077455D01*
X137528671Y-97039060D01*
X137531946Y-97035603D01*
X137536524Y-97031013D01*
X137581638Y-96988052D01*
X137586543Y-96980669D01*
X137600014Y-96963749D01*
X137603228Y-96960356D01*
X137608264Y-96955040D01*
X137638984Y-96902152D01*
X137642990Y-96895711D01*
X137671414Y-96852930D01*
X137671418Y-96852923D01*
X137675311Y-96847063D01*
X137679833Y-96835159D01*
X137688665Y-96816621D01*
X137692955Y-96809235D01*
X137692956Y-96809233D01*
X137696632Y-96802904D01*
X137713265Y-96747985D01*
X137716051Y-96739815D01*
X137735420Y-96688824D01*
X137736400Y-96681854D01*
X137736401Y-96681848D01*
X137737731Y-96672380D01*
X137741912Y-96653397D01*
X137747630Y-96634520D01*
X137750945Y-96581093D01*
X137751929Y-96571361D01*
X137758426Y-96525126D01*
X137758978Y-96521200D01*
X137759126Y-96510600D01*
X137759219Y-96503961D01*
X137759219Y-96503956D01*
X137759274Y-96500000D01*
X137758373Y-96491967D01*
X137757829Y-96470118D01*
X137758524Y-96458920D01*
X137748039Y-96397901D01*
X137747004Y-96390608D01*
X137741191Y-96338783D01*
X137740406Y-96331784D01*
X137736469Y-96320479D01*
X137731284Y-96300393D01*
X137729968Y-96292734D01*
X137728729Y-96285523D01*
X137705972Y-96232042D01*
X137702927Y-96224158D01*
X137687056Y-96178584D01*
X137687054Y-96178580D01*
X137684738Y-96171929D01*
X137681004Y-96165953D01*
X137676349Y-96158502D01*
X137667266Y-96141072D01*
X137662712Y-96130370D01*
X137662708Y-96130363D01*
X137659844Y-96123632D01*
X137655510Y-96117742D01*
X137655505Y-96117734D01*
X137627654Y-96079889D01*
X137622282Y-96071978D01*
X137598768Y-96034348D01*
X137598767Y-96034347D01*
X137595038Y-96028379D01*
X137590079Y-96023385D01*
X137590075Y-96023380D01*
X137581159Y-96014401D01*
X137569087Y-96000304D01*
X137559907Y-95987830D01*
X137559901Y-95987824D01*
X137555563Y-95981929D01*
X137517085Y-95949240D01*
X137509261Y-95942002D01*
X137506541Y-95939262D01*
X137475764Y-95908269D01*
X137455860Y-95895637D01*
X137441798Y-95885279D01*
X137427060Y-95872758D01*
X137427058Y-95872756D01*
X137421480Y-95868018D01*
X137414963Y-95864690D01*
X137414958Y-95864687D01*
X137379937Y-95846805D01*
X137369727Y-95840976D01*
X137332844Y-95817569D01*
X137306986Y-95808362D01*
X137291965Y-95801884D01*
X137271312Y-95791338D01*
X137271309Y-95791337D01*
X137264788Y-95788007D01*
X137257676Y-95786267D01*
X137257674Y-95786266D01*
X137223198Y-95777830D01*
X137210892Y-95774144D01*
X137173381Y-95760787D01*
X137166390Y-95759953D01*
X137166388Y-95759953D01*
X137148745Y-95757850D01*
X137142297Y-95757081D01*
X137127271Y-95754357D01*
X137106217Y-95749205D01*
X137099340Y-95747522D01*
X137099338Y-95747522D01*
X137093892Y-95746189D01*
X137088295Y-95745842D01*
X137088290Y-95745841D01*
X137084725Y-95745620D01*
X137084716Y-95745620D01*
X137082786Y-95745500D01*
X137052667Y-95745500D01*
X137037748Y-95744614D01*
X137032812Y-95744025D01*
X137005301Y-95740745D01*
X136998298Y-95741481D01*
X136998297Y-95741481D01*
X136966623Y-95744810D01*
X136953453Y-95745500D01*
X135852667Y-95745500D01*
X135837748Y-95744614D01*
X135832812Y-95744025D01*
X135805301Y-95740745D01*
X135798298Y-95741481D01*
X135798297Y-95741481D01*
X135766623Y-95744810D01*
X135753453Y-95745500D01*
X134666766Y-95745500D01*
X134647816Y-95744067D01*
X134633746Y-95741926D01*
X134633740Y-95741926D01*
X134626511Y-95740826D01*
X134619220Y-95741419D01*
X134619217Y-95741419D01*
X134574152Y-95745085D01*
X134563937Y-95745500D01*
X134555947Y-95745500D01*
X134527865Y-95748774D01*
X134523522Y-95749204D01*
X134451152Y-95755090D01*
X134444186Y-95757347D01*
X134438318Y-95758519D01*
X134432517Y-95759890D01*
X134425246Y-95760738D01*
X134358321Y-95785031D01*
X134356971Y-95785521D01*
X134352817Y-95786947D01*
X134339261Y-95791338D01*
X134290744Y-95807055D01*
X134290741Y-95807056D01*
X134283778Y-95809312D01*
X134277523Y-95813108D01*
X134272059Y-95815609D01*
X134266741Y-95818272D01*
X134259866Y-95820768D01*
X134253747Y-95824780D01*
X134199144Y-95860579D01*
X134195440Y-95862916D01*
X134133366Y-95900584D01*
X134125026Y-95907950D01*
X134125003Y-95907924D01*
X134121960Y-95910624D01*
X134118857Y-95913218D01*
X134112732Y-95917234D01*
X134112628Y-95917344D01*
X134050238Y-95944515D01*
X134034512Y-95945500D01*
X133802244Y-95945500D01*
X133798848Y-95945869D01*
X133798847Y-95945869D01*
X133748403Y-95951349D01*
X133748402Y-95951349D01*
X133740552Y-95952202D01*
X133733159Y-95954974D01*
X133733157Y-95954974D01*
X133726262Y-95957559D01*
X133605236Y-96002929D01*
X133591326Y-96013354D01*
X133524819Y-96038200D01*
X133455665Y-96023195D01*
X133454661Y-96022227D01*
X133366844Y-95976291D01*
X133298723Y-95956289D01*
X133294264Y-95955648D01*
X133294260Y-95955647D01*
X133262592Y-95951094D01*
X133227163Y-95946000D01*
X132606987Y-95946000D01*
X132600828Y-95945834D01*
X132597756Y-95945500D01*
X131802244Y-95945500D01*
X131799172Y-95945834D01*
X131793013Y-95946000D01*
X127426000Y-95946000D01*
X127422653Y-95946360D01*
X127422649Y-95946360D01*
X127375374Y-95951442D01*
X127375367Y-95951443D01*
X127372010Y-95951804D01*
X127368710Y-95952522D01*
X127368709Y-95952522D01*
X127321322Y-95962830D01*
X127321315Y-95962832D01*
X127319668Y-95963190D01*
X127293445Y-95970384D01*
X127273171Y-95981929D01*
X127212702Y-96016362D01*
X127212698Y-96016365D01*
X127207324Y-96019425D01*
X127202649Y-96023476D01*
X127202646Y-96023478D01*
X127184434Y-96039259D01*
X127119853Y-96068752D01*
X127049579Y-96058647D01*
X127014432Y-96034707D01*
X127007981Y-96028482D01*
X127007979Y-96028480D01*
X127001498Y-96022227D01*
X126913681Y-95976291D01*
X126845560Y-95956289D01*
X126841101Y-95955648D01*
X126841097Y-95955647D01*
X126809429Y-95951094D01*
X126774000Y-95946000D01*
X118626000Y-95946000D01*
X118622653Y-95946360D01*
X118622649Y-95946360D01*
X118575374Y-95951442D01*
X118575367Y-95951443D01*
X118572010Y-95951804D01*
X118568710Y-95952522D01*
X118568709Y-95952522D01*
X118521322Y-95962830D01*
X118521315Y-95962832D01*
X118519668Y-95963190D01*
X118493445Y-95970384D01*
X118473171Y-95981929D01*
X118412702Y-96016362D01*
X118412698Y-96016365D01*
X118407324Y-96019425D01*
X118396873Y-96028481D01*
X118384510Y-96039193D01*
X118319929Y-96068685D01*
X118249655Y-96058580D01*
X118214507Y-96034638D01*
X118214207Y-96034348D01*
X118213070Y-96033251D01*
X118208127Y-96028481D01*
X118208124Y-96028479D01*
X118201645Y-96022227D01*
X118113828Y-95976291D01*
X118045707Y-95956289D01*
X118041248Y-95955648D01*
X118041244Y-95955647D01*
X118009576Y-95951094D01*
X117974147Y-95946000D01*
X109826000Y-95946000D01*
X109822653Y-95946360D01*
X109822649Y-95946360D01*
X109775374Y-95951442D01*
X109775367Y-95951443D01*
X109772010Y-95951804D01*
X109768710Y-95952522D01*
X109768709Y-95952522D01*
X109721322Y-95962830D01*
X109721315Y-95962832D01*
X109719668Y-95963190D01*
X109693445Y-95970384D01*
X109673171Y-95981929D01*
X109612702Y-96016362D01*
X109612698Y-96016365D01*
X109607324Y-96019425D01*
X109602649Y-96023476D01*
X109602646Y-96023478D01*
X109584434Y-96039259D01*
X109519853Y-96068752D01*
X109449579Y-96058647D01*
X109414432Y-96034707D01*
X109407981Y-96028482D01*
X109407979Y-96028480D01*
X109401498Y-96022227D01*
X109313681Y-95976291D01*
X109245560Y-95956289D01*
X109241101Y-95955648D01*
X109241097Y-95955647D01*
X109209429Y-95951094D01*
X109174000Y-95946000D01*
X106026000Y-95946000D01*
X106022653Y-95946360D01*
X106022649Y-95946360D01*
X105975374Y-95951442D01*
X105975367Y-95951443D01*
X105972010Y-95951804D01*
X105968710Y-95952522D01*
X105968709Y-95952522D01*
X105921322Y-95962830D01*
X105921315Y-95962832D01*
X105919668Y-95963190D01*
X105893445Y-95970384D01*
X105873171Y-95981929D01*
X105812702Y-96016362D01*
X105812698Y-96016365D01*
X105807324Y-96019425D01*
X105784510Y-96039193D01*
X105759345Y-96060999D01*
X105753668Y-96065918D01*
X105722227Y-96098502D01*
X105676291Y-96186319D01*
X105656289Y-96254440D01*
X105646000Y-96326000D01*
X105646000Y-103674000D01*
X85354000Y-103674000D01*
X85354000Y-94780000D01*
X85374002Y-94711879D01*
X85427658Y-94665386D01*
X85480000Y-94654000D01*
X101523113Y-94654000D01*
X101591234Y-94674002D01*
G37*
%TD.AperFunction*%
%TD*%
%TA.AperFunction,Conductor*%
%TO.N,Net-(D2-Pad2)*%
G36*
X133295284Y-96220002D02*
G01*
X133341777Y-96273658D01*
X133351382Y-96340463D01*
X133352202Y-96340552D01*
X133345500Y-96402244D01*
X133345500Y-97397756D01*
X133352202Y-97459448D01*
X133402929Y-97594764D01*
X133408311Y-97601946D01*
X133408312Y-97601947D01*
X133420326Y-97617977D01*
X133445174Y-97684483D01*
X133445500Y-97693542D01*
X133445500Y-98006458D01*
X133425498Y-98074579D01*
X133420326Y-98082023D01*
X133402929Y-98105236D01*
X133352202Y-98240552D01*
X133345500Y-98302244D01*
X133345500Y-99297756D01*
X133352202Y-99359448D01*
X133402929Y-99494764D01*
X133408309Y-99501943D01*
X133408311Y-99501946D01*
X133474287Y-99589977D01*
X133489596Y-99610404D01*
X133496776Y-99615785D01*
X133598054Y-99691689D01*
X133598057Y-99691691D01*
X133605236Y-99697071D01*
X133694954Y-99730704D01*
X133733157Y-99745026D01*
X133733159Y-99745026D01*
X133740552Y-99747798D01*
X133748402Y-99748651D01*
X133748403Y-99748651D01*
X133798847Y-99754131D01*
X133802244Y-99754500D01*
X134174000Y-99754500D01*
X134242121Y-99774502D01*
X134288614Y-99828158D01*
X134300000Y-99880500D01*
X134300000Y-103674000D01*
X134279998Y-103742121D01*
X134226342Y-103788614D01*
X134174000Y-103800000D01*
X131826000Y-103800000D01*
X131757879Y-103779998D01*
X131711386Y-103726342D01*
X131700000Y-103674000D01*
X131700000Y-99800000D01*
X127426000Y-99800000D01*
X127357879Y-99779998D01*
X127311386Y-99726342D01*
X127300000Y-99674000D01*
X127300000Y-96326000D01*
X127320002Y-96257879D01*
X127373658Y-96211386D01*
X127426000Y-96200000D01*
X133227163Y-96200000D01*
X133295284Y-96220002D01*
G37*
%TD.AperFunction*%
%TD*%
%TA.AperFunction,Conductor*%
%TO.N,Net-(D2-Pad1)*%
G36*
X131242121Y-100220002D02*
G01*
X131288614Y-100273658D01*
X131300000Y-100326000D01*
X131300000Y-103674000D01*
X131279998Y-103742121D01*
X131226342Y-103788614D01*
X131174000Y-103800000D01*
X123026000Y-103800000D01*
X122957879Y-103779998D01*
X122911386Y-103726342D01*
X122900000Y-103674000D01*
X122900000Y-100326000D01*
X122920002Y-100257879D01*
X122973658Y-100211386D01*
X123026000Y-100200000D01*
X131174000Y-100200000D01*
X131242121Y-100220002D01*
G37*
%TD.AperFunction*%
%TD*%
%TA.AperFunction,Conductor*%
%TO.N,Net-(D5-Pad1)*%
G36*
X126842121Y-96220002D02*
G01*
X126888614Y-96273658D01*
X126900000Y-96326000D01*
X126900000Y-99674000D01*
X126879998Y-99742121D01*
X126826342Y-99788614D01*
X126774000Y-99800000D01*
X118626000Y-99800000D01*
X118557879Y-99779998D01*
X118511386Y-99726342D01*
X118500000Y-99674000D01*
X118500000Y-96326000D01*
X118520002Y-96257879D01*
X118573658Y-96211386D01*
X118626000Y-96200000D01*
X126774000Y-96200000D01*
X126842121Y-96220002D01*
G37*
%TD.AperFunction*%
%TD*%
%TA.AperFunction,Conductor*%
%TO.N,Net-(D6-Pad1)*%
G36*
X118042268Y-96220002D02*
G01*
X118088761Y-96273658D01*
X118100147Y-96325853D01*
X118104022Y-99650667D01*
X118084099Y-99718811D01*
X118030498Y-99765367D01*
X117978375Y-99776814D01*
X109826353Y-99799632D01*
X109758176Y-99779820D01*
X109711533Y-99726295D01*
X109700000Y-99673632D01*
X109700000Y-96326000D01*
X109720002Y-96257879D01*
X109773658Y-96211386D01*
X109826000Y-96200000D01*
X117974147Y-96200000D01*
X118042268Y-96220002D01*
G37*
%TD.AperFunction*%
%TD*%
%TA.AperFunction,Conductor*%
%TO.N,Net-(D4-Pad1)*%
G36*
X109242121Y-96220002D02*
G01*
X109288614Y-96273658D01*
X109300000Y-96326000D01*
X109300000Y-100200000D01*
X113574000Y-100200000D01*
X113642121Y-100220002D01*
X113688614Y-100273658D01*
X113700000Y-100326000D01*
X113700000Y-103674000D01*
X113679998Y-103742121D01*
X113626342Y-103788614D01*
X113574000Y-103800000D01*
X106026000Y-103800000D01*
X105957879Y-103779998D01*
X105911386Y-103726342D01*
X105900000Y-103674000D01*
X105900000Y-96326000D01*
X105920002Y-96257879D01*
X105973658Y-96211386D01*
X106026000Y-96200000D01*
X109174000Y-96200000D01*
X109242121Y-96220002D01*
G37*
%TD.AperFunction*%
%TD*%
%TA.AperFunction,Conductor*%
%TO.N,Net-(D3-Pad1)*%
G36*
X122442121Y-100220002D02*
G01*
X122488614Y-100273658D01*
X122500000Y-100326000D01*
X122500000Y-103674000D01*
X122479998Y-103742121D01*
X122426342Y-103788614D01*
X122374000Y-103800000D01*
X114226000Y-103800000D01*
X114157879Y-103779998D01*
X114111386Y-103726342D01*
X114100000Y-103674000D01*
X114100000Y-100326000D01*
X114120002Y-100257879D01*
X114173658Y-100211386D01*
X114226000Y-100200000D01*
X122374000Y-100200000D01*
X122442121Y-100220002D01*
G37*
%TD.AperFunction*%
%TD*%
M02*
