%TF.GenerationSoftware,KiCad,Pcbnew,6.0.0*%
%TF.CreationDate,2022-01-04T22:09:20+01:00*%
%TF.ProjectId,mini_light_control,6d696e69-5f6c-4696-9768-745f636f6e74,v1.0*%
%TF.SameCoordinates,Original*%
%TF.FileFunction,Copper,L2,Bot*%
%TF.FilePolarity,Positive*%
%FSLAX46Y46*%
G04 Gerber Fmt 4.6, Leading zero omitted, Abs format (unit mm)*
G04 Created by KiCad (PCBNEW 6.0.0) date 2022-01-04 22:09:20*
%MOMM*%
%LPD*%
G01*
G04 APERTURE LIST*
G04 Aperture macros list*
%AMRoundRect*
0 Rectangle with rounded corners*
0 $1 Rounding radius*
0 $2 $3 $4 $5 $6 $7 $8 $9 X,Y pos of 4 corners*
0 Add a 4 corners polygon primitive as box body*
4,1,4,$2,$3,$4,$5,$6,$7,$8,$9,$2,$3,0*
0 Add four circle primitives for the rounded corners*
1,1,$1+$1,$2,$3*
1,1,$1+$1,$4,$5*
1,1,$1+$1,$6,$7*
1,1,$1+$1,$8,$9*
0 Add four rect primitives between the rounded corners*
20,1,$1+$1,$2,$3,$4,$5,0*
20,1,$1+$1,$4,$5,$6,$7,0*
20,1,$1+$1,$6,$7,$8,$9,0*
20,1,$1+$1,$8,$9,$2,$3,0*%
G04 Aperture macros list end*
%TA.AperFunction,ComponentPad*%
%ADD10RoundRect,0.250000X-0.350000X-0.625000X0.350000X-0.625000X0.350000X0.625000X-0.350000X0.625000X0*%
%TD*%
%TA.AperFunction,ComponentPad*%
%ADD11O,1.200000X1.750000*%
%TD*%
%TA.AperFunction,ComponentPad*%
%ADD12RoundRect,0.250000X-0.625000X0.350000X-0.625000X-0.350000X0.625000X-0.350000X0.625000X0.350000X0*%
%TD*%
%TA.AperFunction,ComponentPad*%
%ADD13O,1.750000X1.200000*%
%TD*%
%TA.AperFunction,SMDPad,CuDef*%
%ADD14RoundRect,0.150000X0.825000X0.150000X-0.825000X0.150000X-0.825000X-0.150000X0.825000X-0.150000X0*%
%TD*%
%TA.AperFunction,SMDPad,CuDef*%
%ADD15RoundRect,0.160000X0.160000X-0.197500X0.160000X0.197500X-0.160000X0.197500X-0.160000X-0.197500X0*%
%TD*%
%TA.AperFunction,SMDPad,CuDef*%
%ADD16RoundRect,0.160000X-0.160000X0.197500X-0.160000X-0.197500X0.160000X-0.197500X0.160000X0.197500X0*%
%TD*%
%TA.AperFunction,SMDPad,CuDef*%
%ADD17RoundRect,0.160000X-0.197500X-0.160000X0.197500X-0.160000X0.197500X0.160000X-0.197500X0.160000X0*%
%TD*%
%TA.AperFunction,SMDPad,CuDef*%
%ADD18RoundRect,0.155000X-0.155000X0.212500X-0.155000X-0.212500X0.155000X-0.212500X0.155000X0.212500X0*%
%TD*%
%TA.AperFunction,SMDPad,CuDef*%
%ADD19RoundRect,0.155000X-0.212500X-0.155000X0.212500X-0.155000X0.212500X0.155000X-0.212500X0.155000X0*%
%TD*%
%TA.AperFunction,SMDPad,CuDef*%
%ADD20RoundRect,0.155000X0.212500X0.155000X-0.212500X0.155000X-0.212500X-0.155000X0.212500X-0.155000X0*%
%TD*%
%TA.AperFunction,SMDPad,CuDef*%
%ADD21RoundRect,0.237500X-0.300000X-0.237500X0.300000X-0.237500X0.300000X0.237500X-0.300000X0.237500X0*%
%TD*%
%TA.AperFunction,SMDPad,CuDef*%
%ADD22RoundRect,0.150000X-0.150000X0.512500X-0.150000X-0.512500X0.150000X-0.512500X0.150000X0.512500X0*%
%TD*%
%TA.AperFunction,SMDPad,CuDef*%
%ADD23RoundRect,0.250000X-0.337500X-0.475000X0.337500X-0.475000X0.337500X0.475000X-0.337500X0.475000X0*%
%TD*%
%TA.AperFunction,SMDPad,CuDef*%
%ADD24R,1.200000X1.200000*%
%TD*%
%TA.AperFunction,ViaPad*%
%ADD25C,0.600000*%
%TD*%
%TA.AperFunction,Conductor*%
%ADD26C,0.450000*%
%TD*%
G04 APERTURE END LIST*
D10*
%TO.P,J7,1,Pin_1*%
%TO.N,Net-(R9-Pad1)*%
X149000000Y-59000000D03*
D11*
%TO.P,J7,2,Pin_2*%
%TO.N,Net-(C10-Pad1)*%
X151000000Y-59000000D03*
%TD*%
D10*
%TO.P,J3,1,Pin_1*%
%TO.N,Net-(R3-Pad1)*%
X124968000Y-59000000D03*
D11*
%TO.P,J3,2,Pin_2*%
%TO.N,Net-(C3-Pad1)*%
X126968000Y-59000000D03*
%TD*%
D10*
%TO.P,J6,1,Pin_1*%
%TO.N,Net-(R7-Pad1)*%
X137000000Y-59000000D03*
D11*
%TO.P,J6,2,Pin_2*%
%TO.N,Net-(C9-Pad1)*%
X139000000Y-59000000D03*
%TD*%
D10*
%TO.P,J2,1,Pin_1*%
%TO.N,Net-(R1-Pad1)*%
X113046000Y-59000000D03*
D11*
%TO.P,J2,2,Pin_2*%
%TO.N,Net-(C2-Pad1)*%
X115046000Y-59000000D03*
%TD*%
D12*
%TO.P,J1,1,Pin_1*%
%TO.N,+12V*%
X106000000Y-48000000D03*
D13*
%TO.P,J1,2,Pin_2*%
%TO.N,GND*%
X106000000Y-50000000D03*
%TD*%
D14*
%TO.P,U3,1*%
%TO.N,Net-(J9-Pad3)*%
X142775000Y-42795000D03*
%TO.P,U3,2,-*%
X142775000Y-44065000D03*
%TO.P,U3,3,+*%
%TO.N,Net-(C10-Pad1)*%
X142775000Y-45335000D03*
%TO.P,U3,4,V-*%
%TO.N,GND*%
X142775000Y-46605000D03*
%TO.P,U3,5,+*%
%TO.N,Net-(C9-Pad1)*%
X137825000Y-46605000D03*
%TO.P,U3,6,-*%
%TO.N,Net-(J8-Pad3)*%
X137825000Y-45335000D03*
%TO.P,U3,7*%
X137825000Y-44065000D03*
%TO.P,U3,8,V+*%
%TO.N,+12V*%
X137825000Y-42795000D03*
%TD*%
D15*
%TO.P,R4,1*%
%TO.N,GND*%
X121700000Y-46497500D03*
%TO.P,R4,2*%
%TO.N,Net-(C3-Pad1)*%
X121700000Y-45302500D03*
%TD*%
D16*
%TO.P,R1,1*%
%TO.N,Net-(R1-Pad1)*%
X111400000Y-58302500D03*
%TO.P,R1,2*%
%TO.N,+5V*%
X111400000Y-59497500D03*
%TD*%
%TO.P,R7,1*%
%TO.N,Net-(R7-Pad1)*%
X135400000Y-58302500D03*
%TO.P,R7,2*%
%TO.N,+5V*%
X135400000Y-59497500D03*
%TD*%
D17*
%TO.P,R8,1*%
%TO.N,GND*%
X136602500Y-49100000D03*
%TO.P,R8,2*%
%TO.N,Net-(C9-Pad1)*%
X137797500Y-49100000D03*
%TD*%
D15*
%TO.P,R10,1*%
%TO.N,GND*%
X145700000Y-46597500D03*
%TO.P,R10,2*%
%TO.N,Net-(C10-Pad1)*%
X145700000Y-45402500D03*
%TD*%
%TO.P,R6,1*%
%TO.N,Net-(C3-Pad1)*%
X120600000Y-43997500D03*
%TO.P,R6,2*%
%TO.N,Net-(J5-Pad3)*%
X120600000Y-42802500D03*
%TD*%
D18*
%TO.P,C10,1*%
%TO.N,Net-(C10-Pad1)*%
X144600000Y-45432500D03*
%TO.P,C10,2*%
%TO.N,GND*%
X144600000Y-46567500D03*
%TD*%
D19*
%TO.P,C11,1*%
%TO.N,+12V*%
X138432500Y-41400000D03*
%TO.P,C11,2*%
%TO.N,GND*%
X139567500Y-41400000D03*
%TD*%
D20*
%TO.P,C9,1*%
%TO.N,Net-(C9-Pad1)*%
X137767500Y-48000000D03*
%TO.P,C9,2*%
%TO.N,GND*%
X136632500Y-48000000D03*
%TD*%
D21*
%TO.P,C8,1*%
%TO.N,+5V*%
X108487502Y-56937501D03*
%TO.P,C8,2*%
%TO.N,GND*%
X110212502Y-56937501D03*
%TD*%
D18*
%TO.P,C3,1*%
%TO.N,Net-(C3-Pad1)*%
X120600000Y-45332500D03*
%TO.P,C3,2*%
%TO.N,GND*%
X120600000Y-46467500D03*
%TD*%
D15*
%TO.P,R11,1*%
%TO.N,Net-(C9-Pad1)*%
X136000000Y-45297500D03*
%TO.P,R11,2*%
%TO.N,Net-(J8-Pad3)*%
X136000000Y-44102500D03*
%TD*%
D19*
%TO.P,C4,1*%
%TO.N,+12V*%
X114432500Y-41400000D03*
%TO.P,C4,2*%
%TO.N,GND*%
X115567500Y-41400000D03*
%TD*%
D14*
%TO.P,U1,1*%
%TO.N,Net-(J5-Pad3)*%
X118775000Y-42795000D03*
%TO.P,U1,2,-*%
X118775000Y-44065000D03*
%TO.P,U1,3,+*%
%TO.N,Net-(C3-Pad1)*%
X118775000Y-45335000D03*
%TO.P,U1,4,V-*%
%TO.N,GND*%
X118775000Y-46605000D03*
%TO.P,U1,5,+*%
%TO.N,Net-(C2-Pad1)*%
X113825000Y-46605000D03*
%TO.P,U1,6,-*%
%TO.N,Net-(J4-Pad3)*%
X113825000Y-45335000D03*
%TO.P,U1,7*%
X113825000Y-44065000D03*
%TO.P,U1,8,V+*%
%TO.N,+12V*%
X113825000Y-42795000D03*
%TD*%
D15*
%TO.P,R12,1*%
%TO.N,Net-(C10-Pad1)*%
X144600000Y-43997500D03*
%TO.P,R12,2*%
%TO.N,Net-(J9-Pad3)*%
X144600000Y-42802500D03*
%TD*%
D17*
%TO.P,R2,1*%
%TO.N,GND*%
X112602500Y-49100000D03*
%TO.P,R2,2*%
%TO.N,Net-(C2-Pad1)*%
X113797500Y-49100000D03*
%TD*%
D16*
%TO.P,R3,1*%
%TO.N,Net-(R3-Pad1)*%
X123400000Y-58302500D03*
%TO.P,R3,2*%
%TO.N,+5V*%
X123400000Y-59497500D03*
%TD*%
%TO.P,R9,1*%
%TO.N,Net-(R9-Pad1)*%
X147400000Y-58302500D03*
%TO.P,R9,2*%
%TO.N,+5V*%
X147400000Y-59497500D03*
%TD*%
D22*
%TO.P,U2,1,IN*%
%TO.N,+12V*%
X108350000Y-52862500D03*
%TO.P,U2,2,GND*%
%TO.N,GND*%
X109300000Y-52862500D03*
%TO.P,U2,3,EN*%
%TO.N,+12V*%
X110250000Y-52862500D03*
%TO.P,U2,4,NC*%
%TO.N,GND*%
X110250000Y-55137500D03*
%TO.P,U2,5,OUT*%
%TO.N,+5V*%
X108350000Y-55137500D03*
%TD*%
D20*
%TO.P,C2,1*%
%TO.N,Net-(C2-Pad1)*%
X113767500Y-48000000D03*
%TO.P,C2,2*%
%TO.N,GND*%
X112632500Y-48000000D03*
%TD*%
D23*
%TO.P,C5,1*%
%TO.N,+12V*%
X108362500Y-50900000D03*
%TO.P,C5,2*%
%TO.N,GND*%
X110437500Y-50900000D03*
%TD*%
D24*
%TO.P,D1,1,K*%
%TO.N,+12V*%
X106300000Y-52000000D03*
%TO.P,D1,2,A*%
%TO.N,+5V*%
X106300000Y-54800000D03*
%TD*%
D15*
%TO.P,R5,1*%
%TO.N,Net-(C2-Pad1)*%
X112000000Y-45297500D03*
%TO.P,R5,2*%
%TO.N,Net-(J4-Pad3)*%
X112000000Y-44102500D03*
%TD*%
D25*
%TO.N,GND*%
X106475000Y-40875000D03*
X116475000Y-36875000D03*
X136475000Y-36875000D03*
X136475000Y-50875000D03*
X146475000Y-56875000D03*
X122475000Y-50875000D03*
X102475000Y-44875000D03*
X140475000Y-56875000D03*
X122475000Y-56875000D03*
X125900000Y-47100000D03*
X128475000Y-56875000D03*
X116475000Y-56875000D03*
X114475000Y-38875000D03*
X108475000Y-60875000D03*
X132475000Y-56875000D03*
X109400000Y-49200000D03*
X160475000Y-56875000D03*
X162475000Y-36875000D03*
X102475000Y-56875000D03*
X160475000Y-54875000D03*
X132475000Y-58875000D03*
X124475000Y-56875000D03*
X128475000Y-58875000D03*
X102475000Y-60875000D03*
X130475000Y-56875000D03*
X162475000Y-58875000D03*
X110475000Y-44875000D03*
X148475000Y-36875000D03*
X106475000Y-42875000D03*
X104475000Y-42875000D03*
X148475000Y-38875000D03*
X162475000Y-48875000D03*
X152475000Y-58875000D03*
X162475000Y-38875000D03*
X156475000Y-42875000D03*
X112475000Y-56875000D03*
X160475000Y-52875000D03*
X102475000Y-40875000D03*
X156475000Y-56875000D03*
X156475000Y-38875000D03*
X122700000Y-41600000D03*
X162475000Y-46875000D03*
X162475000Y-54875000D03*
X126475000Y-38875000D03*
X140475000Y-58875000D03*
X158475000Y-48875000D03*
X148475000Y-50875000D03*
X134475000Y-56875000D03*
X130475000Y-58875000D03*
X160475000Y-50875000D03*
X152475000Y-38875000D03*
X162475000Y-40875000D03*
X142475000Y-58875000D03*
X158475000Y-46875000D03*
X120200000Y-41600000D03*
X162475000Y-56875000D03*
X122475000Y-58875000D03*
X154475000Y-60875000D03*
X150000000Y-47200000D03*
X162475000Y-60875000D03*
X106475000Y-56875000D03*
X140475000Y-38875000D03*
X136475000Y-56875000D03*
X112475000Y-36875000D03*
X112475000Y-38875000D03*
X146475000Y-50875000D03*
X146700000Y-43900000D03*
X158475000Y-42875000D03*
X158475000Y-56875000D03*
X160475000Y-46875000D03*
X124475000Y-48875000D03*
X140475000Y-36875000D03*
X154475000Y-58875000D03*
X138475000Y-38875000D03*
X120475000Y-58875000D03*
X152475000Y-56875000D03*
X116475000Y-58875000D03*
X123100000Y-47100000D03*
X120475000Y-56875000D03*
X110600000Y-41700000D03*
X124475000Y-38875000D03*
X118475000Y-56875000D03*
X138475000Y-36875000D03*
X124475000Y-36875000D03*
X150475000Y-60875000D03*
X144475000Y-56875000D03*
X106475000Y-60875000D03*
X128475000Y-36875000D03*
X156475000Y-60875000D03*
X110475000Y-46875000D03*
X148475000Y-56875000D03*
X162475000Y-52875000D03*
X116475000Y-38875000D03*
X134475000Y-50875000D03*
X144475000Y-58875000D03*
X114475000Y-36875000D03*
X118475000Y-58875000D03*
X160475000Y-44875000D03*
X122700000Y-44000000D03*
X162475000Y-42875000D03*
X112475000Y-50875000D03*
X102475000Y-36875000D03*
X160475000Y-48875000D03*
X146475000Y-40875000D03*
X128475000Y-38875000D03*
X104475000Y-44875000D03*
X110475000Y-58875000D03*
X134475000Y-44875000D03*
X152475000Y-36875000D03*
X136475000Y-38875000D03*
X160475000Y-42875000D03*
X148475000Y-48875000D03*
X158475000Y-52875000D03*
X106475000Y-36875000D03*
X162475000Y-50875000D03*
X134475000Y-46875000D03*
X124475000Y-50875000D03*
X158475000Y-44875000D03*
X102475000Y-42875000D03*
X146900000Y-47100000D03*
X148475000Y-60875000D03*
X156475000Y-58875000D03*
X144475000Y-40875000D03*
X142475000Y-56875000D03*
X106475000Y-44875000D03*
X132475000Y-42875000D03*
X158475000Y-54875000D03*
X160475000Y-36875000D03*
X162475000Y-44875000D03*
X156475000Y-40875000D03*
X134475000Y-58875000D03*
X150475000Y-38875000D03*
X158475000Y-50875000D03*
X154475000Y-56875000D03*
X152475000Y-60875000D03*
X126475000Y-36875000D03*
X150475000Y-36875000D03*
X156475000Y-36875000D03*
X158475000Y-36875000D03*
%TO.N,+12V*%
X111400000Y-52900000D03*
%TO.N,Net-(J4-Pad3)*%
X110500000Y-42800000D03*
%TO.N,Net-(J5-Pad3)*%
X122500000Y-42800000D03*
%TO.N,Net-(J8-Pad3)*%
X134500000Y-42800000D03*
%TO.N,Net-(J9-Pad3)*%
X146500000Y-42800000D03*
%TD*%
D26*
%TO.N,GND*%
X109300000Y-52900000D02*
X109300000Y-52037500D01*
X109300000Y-52037500D02*
X110437500Y-50900000D01*
%TO.N,Net-(C2-Pad1)*%
X113767500Y-48000000D02*
X113767500Y-46662500D01*
X112000000Y-45297500D02*
X112000000Y-45654999D01*
X112950001Y-46605000D02*
X113825000Y-46605000D01*
X115000000Y-50302500D02*
X113797500Y-49100000D01*
X115000000Y-59000000D02*
X115000000Y-50302500D01*
X112000000Y-45654999D02*
X112950001Y-46605000D01*
X113797500Y-49100000D02*
X113797500Y-48030000D01*
%TO.N,Net-(C3-Pad1)*%
X122597500Y-45302500D02*
X121700000Y-45302500D01*
X120600000Y-43997500D02*
X120600000Y-45332500D01*
X122600000Y-45300000D02*
X122597500Y-45302500D01*
X127000000Y-49700000D02*
X122600000Y-45300000D01*
X121700000Y-45302500D02*
X120630000Y-45302500D01*
X127000000Y-59000000D02*
X127000000Y-49700000D01*
X118775000Y-45335000D02*
X120597500Y-45335000D01*
%TO.N,Net-(C9-Pad1)*%
X136000000Y-45297500D02*
X136000000Y-45654999D01*
X137797500Y-49100000D02*
X137797500Y-48030000D01*
X137767500Y-48000000D02*
X137767500Y-46662500D01*
X139000000Y-50302500D02*
X137797500Y-49100000D01*
X136950001Y-46605000D02*
X137825000Y-46605000D01*
X136000000Y-45654999D02*
X136950001Y-46605000D01*
X139000000Y-59000000D02*
X139000000Y-50302500D01*
%TO.N,Net-(C10-Pad1)*%
X145700000Y-45402500D02*
X144630000Y-45402500D01*
X144502500Y-45335000D02*
X144600000Y-45432500D01*
X146600000Y-45400000D02*
X146597500Y-45402500D01*
X151000000Y-59000000D02*
X151000000Y-49800000D01*
X142775000Y-45335000D02*
X144502500Y-45335000D01*
X151000000Y-49800000D02*
X146600000Y-45400000D01*
X144600000Y-43997500D02*
X144600000Y-45432500D01*
X146597500Y-45402500D02*
X145700000Y-45402500D01*
%TO.N,+12V*%
X137825000Y-42795000D02*
X137825000Y-42007500D01*
X114465480Y-40665480D02*
X109934520Y-40665480D01*
X106000000Y-48000000D02*
X107299520Y-49299520D01*
X114432500Y-41400000D02*
X114432500Y-40698460D01*
X108362500Y-47962500D02*
X108362500Y-50900000D01*
X107400000Y-50900000D02*
X107299520Y-51000480D01*
X107299520Y-49299520D02*
X107299520Y-51000480D01*
X137697980Y-40665480D02*
X114465480Y-40665480D01*
X108362500Y-42237500D02*
X108362500Y-47962500D01*
X137825000Y-42007500D02*
X138432500Y-41400000D01*
X108350000Y-50912500D02*
X108362500Y-50900000D01*
X110300000Y-52900000D02*
X111400000Y-52900000D01*
X108362500Y-50900000D02*
X107400000Y-50900000D01*
X109934520Y-40665480D02*
X108362500Y-42237500D01*
X114432500Y-40698460D02*
X114465480Y-40665480D01*
X108350000Y-52862500D02*
X108350000Y-50912500D01*
X138432500Y-41400000D02*
X137697980Y-40665480D01*
X107299520Y-51000480D02*
X106300000Y-52000000D01*
X113825000Y-42007500D02*
X114432500Y-41400000D01*
X113825000Y-42795000D02*
X113825000Y-42007500D01*
%TO.N,Net-(R1-Pad1)*%
X111400000Y-58302500D02*
X112302500Y-58302500D01*
X112302500Y-58302500D02*
X113000000Y-59000000D01*
%TO.N,Net-(R3-Pad1)*%
X123400000Y-58302500D02*
X124302500Y-58302500D01*
X124302500Y-58302500D02*
X125000000Y-59000000D01*
%TO.N,Net-(J4-Pad3)*%
X113825000Y-45335000D02*
X113825000Y-44065000D01*
X113825000Y-44065000D02*
X112037500Y-44065000D01*
X110697500Y-42800000D02*
X112000000Y-44102500D01*
X110500000Y-42800000D02*
X110697500Y-42800000D01*
%TO.N,Net-(J5-Pad3)*%
X118775000Y-42795000D02*
X118775000Y-44065000D01*
X122500000Y-42800000D02*
X120602500Y-42800000D01*
X120600000Y-42802500D02*
X118782500Y-42802500D01*
%TO.N,Net-(R7-Pad1)*%
X136302500Y-58302500D02*
X137000000Y-59000000D01*
X135400000Y-58302500D02*
X136302500Y-58302500D01*
%TO.N,Net-(R9-Pad1)*%
X147400000Y-58302500D02*
X148302500Y-58302500D01*
X148302500Y-58302500D02*
X149000000Y-59000000D01*
%TO.N,Net-(J8-Pad3)*%
X134500000Y-42800000D02*
X134697500Y-42800000D01*
X134697500Y-42800000D02*
X136000000Y-44102500D01*
X137825000Y-44065000D02*
X136037500Y-44065000D01*
X137825000Y-44065000D02*
X137825000Y-45335000D01*
%TO.N,Net-(J9-Pad3)*%
X142775000Y-42795000D02*
X142775000Y-44065000D01*
X146500000Y-42800000D02*
X144602500Y-42800000D01*
X144600000Y-42802500D02*
X142782500Y-42802500D01*
%TO.N,+5V*%
X111400000Y-61000000D02*
X110700000Y-61000000D01*
X123400000Y-59497500D02*
X123400000Y-61000000D01*
X111400000Y-59497500D02*
X111400000Y-61000000D01*
X110700000Y-61000000D02*
X108487502Y-58787502D01*
X145897500Y-61000000D02*
X147400000Y-59497500D01*
X135300000Y-61000000D02*
X145897500Y-61000000D01*
X108487502Y-58787502D02*
X108487502Y-56937501D01*
X111400000Y-61000000D02*
X123400000Y-61000000D01*
X108350000Y-55175000D02*
X108350000Y-56799999D01*
X108350000Y-56799999D02*
X108487502Y-56937501D01*
X106300000Y-54800000D02*
X107975000Y-54800000D01*
X123400000Y-61000000D02*
X135300000Y-61000000D01*
X135400000Y-59497500D02*
X135400000Y-60900000D01*
X107975000Y-54800000D02*
X108350000Y-55175000D01*
X135400000Y-60900000D02*
X135300000Y-61000000D01*
%TD*%
%TA.AperFunction,Conductor*%
%TO.N,GND*%
G36*
X163188121Y-35274002D02*
G01*
X163234614Y-35327658D01*
X163246000Y-35380000D01*
X163246000Y-62620000D01*
X163225998Y-62688121D01*
X163172342Y-62734614D01*
X163120000Y-62746000D01*
X100880000Y-62746000D01*
X100811879Y-62725998D01*
X100765386Y-62672342D01*
X100754000Y-62620000D01*
X100754000Y-59042186D01*
X102641018Y-59042186D01*
X102666579Y-59310100D01*
X102667664Y-59314534D01*
X102667665Y-59314540D01*
X102729461Y-59567080D01*
X102730547Y-59571518D01*
X102831583Y-59820963D01*
X102967569Y-60053210D01*
X103135658Y-60263395D01*
X103332327Y-60447113D01*
X103553457Y-60600516D01*
X103794416Y-60720391D01*
X103798750Y-60721812D01*
X103798753Y-60721813D01*
X104045823Y-60802807D01*
X104045829Y-60802808D01*
X104050156Y-60804227D01*
X104054647Y-60805007D01*
X104054648Y-60805007D01*
X104311538Y-60849611D01*
X104311546Y-60849612D01*
X104315319Y-60850267D01*
X104319156Y-60850458D01*
X104398777Y-60854422D01*
X104398785Y-60854422D01*
X104400348Y-60854500D01*
X104568374Y-60854500D01*
X104570642Y-60854335D01*
X104570654Y-60854335D01*
X104701457Y-60844844D01*
X104768425Y-60839985D01*
X104772880Y-60839001D01*
X104772883Y-60839001D01*
X105026770Y-60782947D01*
X105026772Y-60782946D01*
X105031226Y-60781963D01*
X105282900Y-60686613D01*
X105518172Y-60555931D01*
X105612955Y-60483595D01*
X105728491Y-60395421D01*
X105728495Y-60395417D01*
X105732116Y-60392654D01*
X105920249Y-60200203D01*
X105975833Y-60123839D01*
X106075942Y-59986304D01*
X106075947Y-59986297D01*
X106078630Y-59982610D01*
X106203941Y-59744433D01*
X106293557Y-59490662D01*
X106327595Y-59317968D01*
X106344720Y-59231083D01*
X106344721Y-59231077D01*
X106345601Y-59226611D01*
X106345828Y-59222055D01*
X106358755Y-58962383D01*
X106358755Y-58962377D01*
X106358982Y-58957814D01*
X106333421Y-58689900D01*
X106329829Y-58675218D01*
X106270539Y-58432920D01*
X106269453Y-58428482D01*
X106168417Y-58179037D01*
X106055647Y-57986440D01*
X106034741Y-57950735D01*
X106034740Y-57950734D01*
X106032431Y-57946790D01*
X105889350Y-57767876D01*
X105867194Y-57740171D01*
X105867193Y-57740169D01*
X105864342Y-57736605D01*
X105667673Y-57552887D01*
X105446543Y-57399484D01*
X105205584Y-57279609D01*
X105201250Y-57278188D01*
X105201247Y-57278187D01*
X104954177Y-57197193D01*
X104954171Y-57197192D01*
X104949844Y-57195773D01*
X104945352Y-57194993D01*
X104688462Y-57150389D01*
X104688454Y-57150388D01*
X104684681Y-57149733D01*
X104674718Y-57149237D01*
X104601223Y-57145578D01*
X104601215Y-57145578D01*
X104599652Y-57145500D01*
X104431626Y-57145500D01*
X104429358Y-57145665D01*
X104429346Y-57145665D01*
X104298543Y-57155156D01*
X104231575Y-57160015D01*
X104227120Y-57160999D01*
X104227117Y-57160999D01*
X103973230Y-57217053D01*
X103973228Y-57217054D01*
X103968774Y-57218037D01*
X103717100Y-57313387D01*
X103713114Y-57315601D01*
X103713112Y-57315602D01*
X103528102Y-57418366D01*
X103481828Y-57444069D01*
X103478196Y-57446841D01*
X103271509Y-57604579D01*
X103271505Y-57604583D01*
X103267884Y-57607346D01*
X103079751Y-57799797D01*
X103055007Y-57833792D01*
X102924058Y-58013696D01*
X102924053Y-58013703D01*
X102921370Y-58017390D01*
X102796059Y-58255567D01*
X102706443Y-58509338D01*
X102698978Y-58547212D01*
X102657509Y-58757611D01*
X102654399Y-58773389D01*
X102654172Y-58777942D01*
X102654172Y-58777945D01*
X102641753Y-59027431D01*
X102641018Y-59042186D01*
X100754000Y-59042186D01*
X100754000Y-54174933D01*
X105445500Y-54174933D01*
X105445501Y-55425066D01*
X105460266Y-55499301D01*
X105516516Y-55583484D01*
X105600699Y-55639734D01*
X105674933Y-55654500D01*
X106299898Y-55654500D01*
X106925066Y-55654499D01*
X106960818Y-55647388D01*
X106987126Y-55642156D01*
X106987128Y-55642155D01*
X106999301Y-55639734D01*
X107009621Y-55632839D01*
X107009622Y-55632838D01*
X107073168Y-55590377D01*
X107083484Y-55583484D01*
X107139734Y-55499301D01*
X107154500Y-55425067D01*
X107154500Y-55405500D01*
X107174502Y-55337379D01*
X107228158Y-55290886D01*
X107280500Y-55279500D01*
X107669500Y-55279500D01*
X107737621Y-55299502D01*
X107784114Y-55353158D01*
X107795500Y-55405500D01*
X107795500Y-55681834D01*
X107810502Y-55776555D01*
X107856767Y-55867354D01*
X107870500Y-55924557D01*
X107870500Y-56263664D01*
X107850498Y-56331785D01*
X107838497Y-56346677D01*
X107836028Y-56348527D01*
X107751509Y-56461302D01*
X107702038Y-56593265D01*
X107695502Y-56653431D01*
X107695502Y-57221571D01*
X107702038Y-57281737D01*
X107718965Y-57326888D01*
X107746180Y-57399484D01*
X107751509Y-57413700D01*
X107836028Y-57526475D01*
X107948284Y-57610605D01*
X107948803Y-57610994D01*
X107948199Y-57611799D01*
X107992659Y-57656360D01*
X108008002Y-57716619D01*
X108008002Y-58719682D01*
X108006748Y-58730902D01*
X108007333Y-58730949D01*
X108006613Y-58739894D01*
X108004632Y-58748651D01*
X108005188Y-58757611D01*
X108007760Y-58799075D01*
X108008002Y-58806876D01*
X108008002Y-58821933D01*
X108008636Y-58826359D01*
X108009360Y-58831410D01*
X108010391Y-58841477D01*
X108013136Y-58885738D01*
X108016186Y-58894187D01*
X108017398Y-58900037D01*
X108019596Y-58908854D01*
X108021271Y-58914581D01*
X108022543Y-58923466D01*
X108040906Y-58963852D01*
X108044712Y-58973204D01*
X108056725Y-59006482D01*
X108056727Y-59006486D01*
X108059775Y-59014929D01*
X108065074Y-59022182D01*
X108067865Y-59027431D01*
X108072470Y-59035313D01*
X108075676Y-59040327D01*
X108079392Y-59048499D01*
X108085251Y-59055299D01*
X108085252Y-59055300D01*
X108096597Y-59068466D01*
X108106007Y-59079386D01*
X108108340Y-59082094D01*
X108114628Y-59090013D01*
X108122029Y-59100144D01*
X108132185Y-59110300D01*
X108138542Y-59117146D01*
X108169049Y-59152551D01*
X108176576Y-59157430D01*
X108183346Y-59163336D01*
X108183287Y-59163403D01*
X108193768Y-59171883D01*
X110312981Y-61291096D01*
X110320032Y-61299921D01*
X110320479Y-61299541D01*
X110326297Y-61306377D01*
X110331087Y-61313969D01*
X110337816Y-61319912D01*
X110368973Y-61347429D01*
X110374660Y-61352775D01*
X110385289Y-61363404D01*
X110388867Y-61366086D01*
X110388870Y-61366088D01*
X110392943Y-61369140D01*
X110400787Y-61375526D01*
X110434036Y-61404891D01*
X110442159Y-61408705D01*
X110447131Y-61411971D01*
X110454954Y-61416671D01*
X110460183Y-61419534D01*
X110467366Y-61424917D01*
X110475771Y-61428068D01*
X110475773Y-61428069D01*
X110508886Y-61440482D01*
X110518191Y-61444402D01*
X110558366Y-61463264D01*
X110567238Y-61464645D01*
X110572942Y-61466389D01*
X110581737Y-61468696D01*
X110587570Y-61469979D01*
X110595976Y-61473130D01*
X110604926Y-61473795D01*
X110604930Y-61473796D01*
X110637400Y-61476209D01*
X110640204Y-61476417D01*
X110650241Y-61477569D01*
X110653920Y-61478142D01*
X110657837Y-61478752D01*
X110657839Y-61478752D01*
X110662643Y-61479500D01*
X110677011Y-61479500D01*
X110686349Y-61479846D01*
X110732949Y-61483309D01*
X110741725Y-61481436D01*
X110750682Y-61480825D01*
X110750688Y-61480915D01*
X110764092Y-61479500D01*
X111391799Y-61479500D01*
X111392570Y-61479502D01*
X111465745Y-61479949D01*
X111467027Y-61479583D01*
X111468238Y-61479500D01*
X123391799Y-61479500D01*
X123392570Y-61479502D01*
X123465745Y-61479949D01*
X123467027Y-61479583D01*
X123468238Y-61479500D01*
X135232180Y-61479500D01*
X135243400Y-61480754D01*
X135243447Y-61480169D01*
X135252392Y-61480889D01*
X135261149Y-61482870D01*
X135311573Y-61479742D01*
X135319374Y-61479500D01*
X145829680Y-61479500D01*
X145840900Y-61480754D01*
X145840947Y-61480169D01*
X145849892Y-61480889D01*
X145858649Y-61482870D01*
X145909073Y-61479742D01*
X145916874Y-61479500D01*
X145931931Y-61479500D01*
X145941418Y-61478141D01*
X145951475Y-61477111D01*
X145995736Y-61474366D01*
X146004185Y-61471316D01*
X146010035Y-61470104D01*
X146018852Y-61467906D01*
X146024579Y-61466231D01*
X146033464Y-61464959D01*
X146073850Y-61446596D01*
X146083202Y-61442790D01*
X146116480Y-61430777D01*
X146116484Y-61430775D01*
X146124927Y-61427727D01*
X146132180Y-61422428D01*
X146137429Y-61419637D01*
X146145311Y-61415032D01*
X146150325Y-61411826D01*
X146158497Y-61408110D01*
X146192093Y-61379161D01*
X146200011Y-61372874D01*
X146202976Y-61370708D01*
X146206207Y-61368348D01*
X146206211Y-61368345D01*
X146210142Y-61365473D01*
X146220298Y-61355317D01*
X146227145Y-61348959D01*
X146255752Y-61324310D01*
X146255753Y-61324309D01*
X146262549Y-61318453D01*
X146267428Y-61310926D01*
X146273334Y-61304156D01*
X146273401Y-61304215D01*
X146281881Y-61293734D01*
X147429211Y-60146404D01*
X147491523Y-60112378D01*
X147518306Y-60109499D01*
X147592622Y-60109499D01*
X147634441Y-60102876D01*
X147679886Y-60095679D01*
X147679888Y-60095678D01*
X147689684Y-60094127D01*
X147726790Y-60075221D01*
X147797842Y-60039018D01*
X147806674Y-60034518D01*
X147899518Y-59941674D01*
X147959127Y-59824684D01*
X147962204Y-59826252D01*
X147992321Y-59782191D01*
X148057713Y-59754543D01*
X148127672Y-59766637D01*
X148179986Y-59814634D01*
X148190080Y-59835489D01*
X148202929Y-59869764D01*
X148208309Y-59876943D01*
X148208311Y-59876946D01*
X148262077Y-59948685D01*
X148289596Y-59985404D01*
X148296776Y-59990785D01*
X148398054Y-60066689D01*
X148398057Y-60066691D01*
X148405236Y-60072071D01*
X148490384Y-60103991D01*
X148533157Y-60120026D01*
X148533159Y-60120026D01*
X148540552Y-60122798D01*
X148548402Y-60123651D01*
X148548403Y-60123651D01*
X148550134Y-60123839D01*
X148602244Y-60129500D01*
X149397756Y-60129500D01*
X149449866Y-60123839D01*
X149451597Y-60123651D01*
X149451598Y-60123651D01*
X149459448Y-60122798D01*
X149466841Y-60120026D01*
X149466843Y-60120026D01*
X149509616Y-60103991D01*
X149594764Y-60072071D01*
X149601943Y-60066691D01*
X149601946Y-60066689D01*
X149703224Y-59990785D01*
X149710404Y-59985404D01*
X149737923Y-59948685D01*
X149791689Y-59876946D01*
X149791691Y-59876943D01*
X149797071Y-59869764D01*
X149847798Y-59734448D01*
X149850011Y-59714082D01*
X149854131Y-59676153D01*
X149854131Y-59676152D01*
X149854500Y-59672756D01*
X149854500Y-58327244D01*
X149854131Y-58323847D01*
X149848651Y-58273403D01*
X149848651Y-58273402D01*
X149847798Y-58265552D01*
X149797071Y-58130236D01*
X149791691Y-58123057D01*
X149791689Y-58123054D01*
X149715785Y-58021776D01*
X149710404Y-58014596D01*
X149680021Y-57991825D01*
X149601946Y-57933311D01*
X149601943Y-57933309D01*
X149594764Y-57927929D01*
X149496241Y-57890995D01*
X149466843Y-57879974D01*
X149466841Y-57879974D01*
X149459448Y-57877202D01*
X149451598Y-57876349D01*
X149451597Y-57876349D01*
X149401153Y-57870869D01*
X149401152Y-57870869D01*
X149397756Y-57870500D01*
X148602244Y-57870500D01*
X148598850Y-57870869D01*
X148598845Y-57870869D01*
X148565347Y-57874508D01*
X148507514Y-57867228D01*
X148493607Y-57862015D01*
X148484299Y-57858093D01*
X148444134Y-57839236D01*
X148435267Y-57837855D01*
X148429591Y-57836120D01*
X148420714Y-57833792D01*
X148414928Y-57832520D01*
X148406525Y-57829370D01*
X148383576Y-57827664D01*
X148362300Y-57826083D01*
X148352263Y-57824932D01*
X148339857Y-57823000D01*
X148325490Y-57823000D01*
X148316152Y-57822654D01*
X148301767Y-57821585D01*
X148269552Y-57819191D01*
X148260776Y-57821064D01*
X148251819Y-57821675D01*
X148251813Y-57821585D01*
X148238409Y-57823000D01*
X147916382Y-57823000D01*
X147848261Y-57802998D01*
X147827287Y-57786095D01*
X147806674Y-57765482D01*
X147689684Y-57705873D01*
X147679895Y-57704322D01*
X147679893Y-57704322D01*
X147652120Y-57699923D01*
X147592623Y-57690500D01*
X147400039Y-57690500D01*
X147207378Y-57690501D01*
X147183012Y-57694360D01*
X147120114Y-57704321D01*
X147120112Y-57704322D01*
X147110316Y-57705873D01*
X147101479Y-57710376D01*
X147101478Y-57710376D01*
X147056118Y-57733488D01*
X146993326Y-57765482D01*
X146900482Y-57858326D01*
X146840873Y-57975316D01*
X146839322Y-57985105D01*
X146839322Y-57985107D01*
X146837766Y-57994933D01*
X146825500Y-58072377D01*
X146825501Y-58532622D01*
X146840873Y-58629684D01*
X146900482Y-58746674D01*
X146964713Y-58810905D01*
X146998739Y-58873217D01*
X146993674Y-58944032D01*
X146964713Y-58989095D01*
X146900482Y-59053326D01*
X146840873Y-59170316D01*
X146825500Y-59267377D01*
X146825500Y-59341695D01*
X146805498Y-59409816D01*
X146788595Y-59430790D01*
X145735790Y-60483595D01*
X145673478Y-60517621D01*
X145646695Y-60520500D01*
X136005500Y-60520500D01*
X135937379Y-60500498D01*
X135890886Y-60446842D01*
X135879500Y-60394500D01*
X135879500Y-60007527D01*
X135898553Y-59942639D01*
X135899518Y-59941674D01*
X135959127Y-59824684D01*
X135962204Y-59826252D01*
X135992321Y-59782191D01*
X136057713Y-59754543D01*
X136127672Y-59766637D01*
X136179986Y-59814634D01*
X136190080Y-59835489D01*
X136202929Y-59869764D01*
X136208309Y-59876943D01*
X136208311Y-59876946D01*
X136262077Y-59948685D01*
X136289596Y-59985404D01*
X136296776Y-59990785D01*
X136398054Y-60066689D01*
X136398057Y-60066691D01*
X136405236Y-60072071D01*
X136490384Y-60103991D01*
X136533157Y-60120026D01*
X136533159Y-60120026D01*
X136540552Y-60122798D01*
X136548402Y-60123651D01*
X136548403Y-60123651D01*
X136550134Y-60123839D01*
X136602244Y-60129500D01*
X137397756Y-60129500D01*
X137449866Y-60123839D01*
X137451597Y-60123651D01*
X137451598Y-60123651D01*
X137459448Y-60122798D01*
X137466841Y-60120026D01*
X137466843Y-60120026D01*
X137509616Y-60103991D01*
X137594764Y-60072071D01*
X137601943Y-60066691D01*
X137601946Y-60066689D01*
X137703224Y-59990785D01*
X137710404Y-59985404D01*
X137737923Y-59948685D01*
X137791689Y-59876946D01*
X137791691Y-59876943D01*
X137797071Y-59869764D01*
X137847798Y-59734448D01*
X137850011Y-59714082D01*
X137854131Y-59676153D01*
X137854131Y-59676152D01*
X137854500Y-59672756D01*
X137854500Y-58327244D01*
X137854131Y-58323847D01*
X137848651Y-58273403D01*
X137848651Y-58273402D01*
X137847798Y-58265552D01*
X137797071Y-58130236D01*
X137791691Y-58123057D01*
X137791689Y-58123054D01*
X137715785Y-58021776D01*
X137710404Y-58014596D01*
X137680021Y-57991825D01*
X137601946Y-57933311D01*
X137601943Y-57933309D01*
X137594764Y-57927929D01*
X137496241Y-57890995D01*
X137466843Y-57879974D01*
X137466841Y-57879974D01*
X137459448Y-57877202D01*
X137451598Y-57876349D01*
X137451597Y-57876349D01*
X137401153Y-57870869D01*
X137401152Y-57870869D01*
X137397756Y-57870500D01*
X136602244Y-57870500D01*
X136598850Y-57870869D01*
X136598845Y-57870869D01*
X136565347Y-57874508D01*
X136507514Y-57867228D01*
X136493607Y-57862015D01*
X136484299Y-57858093D01*
X136444134Y-57839236D01*
X136435267Y-57837855D01*
X136429591Y-57836120D01*
X136420714Y-57833792D01*
X136414928Y-57832520D01*
X136406525Y-57829370D01*
X136383576Y-57827664D01*
X136362300Y-57826083D01*
X136352263Y-57824932D01*
X136339857Y-57823000D01*
X136325490Y-57823000D01*
X136316152Y-57822654D01*
X136301767Y-57821585D01*
X136269552Y-57819191D01*
X136260776Y-57821064D01*
X136251819Y-57821675D01*
X136251813Y-57821585D01*
X136238409Y-57823000D01*
X135916382Y-57823000D01*
X135848261Y-57802998D01*
X135827287Y-57786095D01*
X135806674Y-57765482D01*
X135689684Y-57705873D01*
X135679895Y-57704322D01*
X135679893Y-57704322D01*
X135652120Y-57699923D01*
X135592623Y-57690500D01*
X135400039Y-57690500D01*
X135207378Y-57690501D01*
X135183012Y-57694360D01*
X135120114Y-57704321D01*
X135120112Y-57704322D01*
X135110316Y-57705873D01*
X135101479Y-57710376D01*
X135101478Y-57710376D01*
X135056118Y-57733488D01*
X134993326Y-57765482D01*
X134900482Y-57858326D01*
X134840873Y-57975316D01*
X134839322Y-57985105D01*
X134839322Y-57985107D01*
X134837766Y-57994933D01*
X134825500Y-58072377D01*
X134825501Y-58532622D01*
X134840873Y-58629684D01*
X134900482Y-58746674D01*
X134964713Y-58810905D01*
X134998739Y-58873217D01*
X134993674Y-58944032D01*
X134964713Y-58989095D01*
X134900482Y-59053326D01*
X134840873Y-59170316D01*
X134825500Y-59267377D01*
X134825501Y-59727622D01*
X134840873Y-59824684D01*
X134845374Y-59833517D01*
X134845376Y-59833522D01*
X134859560Y-59861360D01*
X134896750Y-59934350D01*
X134896751Y-59934352D01*
X134900482Y-59941674D01*
X134899536Y-59942156D01*
X134920294Y-60000330D01*
X134920500Y-60007527D01*
X134920500Y-60394500D01*
X134900498Y-60462621D01*
X134846842Y-60509114D01*
X134794500Y-60520500D01*
X124005500Y-60520500D01*
X123937379Y-60500498D01*
X123890886Y-60446842D01*
X123879500Y-60394500D01*
X123879500Y-60007527D01*
X123898553Y-59942639D01*
X123899518Y-59941674D01*
X123932496Y-59876951D01*
X123941762Y-59858766D01*
X123990511Y-59807151D01*
X124059425Y-59790085D01*
X124126627Y-59812986D01*
X124164550Y-59855461D01*
X124167776Y-59861354D01*
X124170929Y-59869764D01*
X124176312Y-59876946D01*
X124176315Y-59876951D01*
X124230077Y-59948685D01*
X124257596Y-59985404D01*
X124264776Y-59990785D01*
X124366054Y-60066689D01*
X124366057Y-60066691D01*
X124373236Y-60072071D01*
X124458384Y-60103991D01*
X124501157Y-60120026D01*
X124501159Y-60120026D01*
X124508552Y-60122798D01*
X124516402Y-60123651D01*
X124516403Y-60123651D01*
X124518134Y-60123839D01*
X124570244Y-60129500D01*
X125365756Y-60129500D01*
X125417866Y-60123839D01*
X125419597Y-60123651D01*
X125419598Y-60123651D01*
X125427448Y-60122798D01*
X125434841Y-60120026D01*
X125434843Y-60120026D01*
X125477616Y-60103991D01*
X125562764Y-60072071D01*
X125569943Y-60066691D01*
X125569946Y-60066689D01*
X125671224Y-59990785D01*
X125678404Y-59985404D01*
X125705923Y-59948685D01*
X125759689Y-59876946D01*
X125759691Y-59876943D01*
X125765071Y-59869764D01*
X125815798Y-59734448D01*
X125818011Y-59714082D01*
X125822131Y-59676153D01*
X125822131Y-59676152D01*
X125822500Y-59672756D01*
X125822500Y-58327244D01*
X125822131Y-58323847D01*
X125816651Y-58273403D01*
X125816651Y-58273402D01*
X125815798Y-58265552D01*
X125765071Y-58130236D01*
X125759691Y-58123057D01*
X125759689Y-58123054D01*
X125683785Y-58021776D01*
X125678404Y-58014596D01*
X125648021Y-57991825D01*
X125569946Y-57933311D01*
X125569943Y-57933309D01*
X125562764Y-57927929D01*
X125464241Y-57890995D01*
X125434843Y-57879974D01*
X125434841Y-57879974D01*
X125427448Y-57877202D01*
X125419598Y-57876349D01*
X125419597Y-57876349D01*
X125369153Y-57870869D01*
X125369152Y-57870869D01*
X125365756Y-57870500D01*
X124570244Y-57870500D01*
X124558161Y-57871813D01*
X124500324Y-57864533D01*
X124493590Y-57862009D01*
X124484306Y-57858097D01*
X124444134Y-57839236D01*
X124435267Y-57837855D01*
X124429591Y-57836120D01*
X124420714Y-57833792D01*
X124414928Y-57832520D01*
X124406525Y-57829370D01*
X124383576Y-57827664D01*
X124362300Y-57826083D01*
X124352263Y-57824932D01*
X124339857Y-57823000D01*
X124325490Y-57823000D01*
X124316152Y-57822654D01*
X124301767Y-57821585D01*
X124269552Y-57819191D01*
X124260776Y-57821064D01*
X124251819Y-57821675D01*
X124251813Y-57821585D01*
X124238409Y-57823000D01*
X123916382Y-57823000D01*
X123848261Y-57802998D01*
X123827287Y-57786095D01*
X123806674Y-57765482D01*
X123689684Y-57705873D01*
X123679895Y-57704322D01*
X123679893Y-57704322D01*
X123652120Y-57699923D01*
X123592623Y-57690500D01*
X123400039Y-57690500D01*
X123207378Y-57690501D01*
X123183012Y-57694360D01*
X123120114Y-57704321D01*
X123120112Y-57704322D01*
X123110316Y-57705873D01*
X123101479Y-57710376D01*
X123101478Y-57710376D01*
X123056118Y-57733488D01*
X122993326Y-57765482D01*
X122900482Y-57858326D01*
X122840873Y-57975316D01*
X122839322Y-57985105D01*
X122839322Y-57985107D01*
X122837766Y-57994933D01*
X122825500Y-58072377D01*
X122825501Y-58532622D01*
X122840873Y-58629684D01*
X122900482Y-58746674D01*
X122964713Y-58810905D01*
X122998739Y-58873217D01*
X122993674Y-58944032D01*
X122964713Y-58989095D01*
X122900482Y-59053326D01*
X122840873Y-59170316D01*
X122825500Y-59267377D01*
X122825501Y-59727622D01*
X122840873Y-59824684D01*
X122845374Y-59833517D01*
X122845376Y-59833522D01*
X122859560Y-59861360D01*
X122896750Y-59934350D01*
X122896751Y-59934352D01*
X122900482Y-59941674D01*
X122899536Y-59942156D01*
X122920294Y-60000330D01*
X122920500Y-60007527D01*
X122920500Y-60394500D01*
X122900498Y-60462621D01*
X122846842Y-60509114D01*
X122794500Y-60520500D01*
X112005500Y-60520500D01*
X111937379Y-60500498D01*
X111890886Y-60446842D01*
X111879500Y-60394500D01*
X111879500Y-60007527D01*
X111898553Y-59942639D01*
X111899518Y-59941674D01*
X111959127Y-59824684D01*
X111965447Y-59784779D01*
X111995858Y-59720626D01*
X112056126Y-59683099D01*
X112127116Y-59684112D01*
X112186288Y-59723344D01*
X112207878Y-59760260D01*
X112222640Y-59799637D01*
X112248929Y-59869764D01*
X112254309Y-59876943D01*
X112254311Y-59876946D01*
X112308077Y-59948685D01*
X112335596Y-59985404D01*
X112342776Y-59990785D01*
X112444054Y-60066689D01*
X112444057Y-60066691D01*
X112451236Y-60072071D01*
X112536384Y-60103991D01*
X112579157Y-60120026D01*
X112579159Y-60120026D01*
X112586552Y-60122798D01*
X112594402Y-60123651D01*
X112594403Y-60123651D01*
X112596134Y-60123839D01*
X112648244Y-60129500D01*
X113443756Y-60129500D01*
X113495866Y-60123839D01*
X113497597Y-60123651D01*
X113497598Y-60123651D01*
X113505448Y-60122798D01*
X113512841Y-60120026D01*
X113512843Y-60120026D01*
X113555616Y-60103991D01*
X113640764Y-60072071D01*
X113647943Y-60066691D01*
X113647946Y-60066689D01*
X113749224Y-59990785D01*
X113756404Y-59985404D01*
X113783923Y-59948685D01*
X113837689Y-59876946D01*
X113837691Y-59876943D01*
X113843071Y-59869764D01*
X113893798Y-59734448D01*
X113896011Y-59714082D01*
X113900131Y-59676153D01*
X113900131Y-59676152D01*
X113900500Y-59672756D01*
X113900500Y-58327244D01*
X113900131Y-58323847D01*
X113894651Y-58273403D01*
X113894651Y-58273402D01*
X113893798Y-58265552D01*
X113843071Y-58130236D01*
X113837691Y-58123057D01*
X113837689Y-58123054D01*
X113761785Y-58021776D01*
X113756404Y-58014596D01*
X113726021Y-57991825D01*
X113647946Y-57933311D01*
X113647943Y-57933309D01*
X113640764Y-57927929D01*
X113542241Y-57890995D01*
X113512843Y-57879974D01*
X113512841Y-57879974D01*
X113505448Y-57877202D01*
X113497598Y-57876349D01*
X113497597Y-57876349D01*
X113447153Y-57870869D01*
X113447152Y-57870869D01*
X113443756Y-57870500D01*
X112648244Y-57870500D01*
X112592848Y-57876518D01*
X112586552Y-57877202D01*
X112586434Y-57876116D01*
X112520139Y-57871961D01*
X112493591Y-57862009D01*
X112484299Y-57858093D01*
X112444134Y-57839236D01*
X112435267Y-57837855D01*
X112429591Y-57836120D01*
X112420714Y-57833792D01*
X112414928Y-57832520D01*
X112406525Y-57829370D01*
X112383576Y-57827664D01*
X112362300Y-57826083D01*
X112352263Y-57824932D01*
X112339857Y-57823000D01*
X112325490Y-57823000D01*
X112316152Y-57822654D01*
X112301767Y-57821585D01*
X112269552Y-57819191D01*
X112260776Y-57821064D01*
X112251819Y-57821675D01*
X112251813Y-57821585D01*
X112238409Y-57823000D01*
X111916382Y-57823000D01*
X111848261Y-57802998D01*
X111827287Y-57786095D01*
X111806674Y-57765482D01*
X111689684Y-57705873D01*
X111679895Y-57704322D01*
X111679893Y-57704322D01*
X111652120Y-57699923D01*
X111592623Y-57690500D01*
X111572277Y-57690500D01*
X111296206Y-57690501D01*
X111228087Y-57670499D01*
X111181594Y-57616844D01*
X111171489Y-57546570D01*
X111186421Y-57505355D01*
X111185819Y-57505074D01*
X111195059Y-57485259D01*
X111213489Y-57429695D01*
X111213978Y-57415602D01*
X111207767Y-57412501D01*
X110705617Y-57412501D01*
X110690378Y-57416976D01*
X110689173Y-57418366D01*
X110687502Y-57426049D01*
X110687502Y-57884423D01*
X110691475Y-57897954D01*
X110723016Y-57902489D01*
X110787597Y-57931982D01*
X110825980Y-57991708D01*
X110829532Y-58046919D01*
X110826275Y-58067479D01*
X110826274Y-58067489D01*
X110825500Y-58072377D01*
X110825501Y-58532622D01*
X110840873Y-58629684D01*
X110900482Y-58746674D01*
X110964713Y-58810905D01*
X110998739Y-58873217D01*
X110993674Y-58944032D01*
X110964713Y-58989095D01*
X110900482Y-59053326D01*
X110840873Y-59170316D01*
X110825500Y-59267377D01*
X110825501Y-59727622D01*
X110840873Y-59824684D01*
X110845374Y-59833517D01*
X110845376Y-59833522D01*
X110859560Y-59861360D01*
X110896750Y-59934350D01*
X110896751Y-59934352D01*
X110900482Y-59941674D01*
X110899536Y-59942156D01*
X110920294Y-60000330D01*
X110920500Y-60007527D01*
X110920500Y-60238195D01*
X110900498Y-60306316D01*
X110846842Y-60352809D01*
X110776568Y-60362913D01*
X110711988Y-60333419D01*
X110705405Y-60327290D01*
X109003907Y-58625792D01*
X108969881Y-58563480D01*
X108967002Y-58536697D01*
X108967002Y-57716619D01*
X108987004Y-57648498D01*
X109026629Y-57611564D01*
X109026201Y-57610994D01*
X109026720Y-57610605D01*
X109034761Y-57604579D01*
X109106837Y-57550562D01*
X109173344Y-57525715D01*
X109242726Y-57540769D01*
X109289546Y-57585087D01*
X109320429Y-57634993D01*
X109329462Y-57646391D01*
X109442131Y-57758864D01*
X109453542Y-57767876D01*
X109589065Y-57851413D01*
X109602243Y-57857557D01*
X109720308Y-57896718D01*
X109734401Y-57897207D01*
X109737502Y-57890995D01*
X109737502Y-56039857D01*
X109757504Y-55971736D01*
X109811160Y-55925243D01*
X109869520Y-55915771D01*
X109869520Y-55914501D01*
X109931885Y-55914501D01*
X109947124Y-55910026D01*
X109948329Y-55908636D01*
X109950000Y-55900953D01*
X109950000Y-55896386D01*
X110550000Y-55896386D01*
X110554475Y-55911625D01*
X110555865Y-55912830D01*
X110576783Y-55917380D01*
X110576454Y-55918891D01*
X110629623Y-55934503D01*
X110676116Y-55988159D01*
X110687502Y-56040501D01*
X110687502Y-56444386D01*
X110691977Y-56459625D01*
X110693367Y-56460830D01*
X110701050Y-56462501D01*
X111201072Y-56462501D01*
X111214603Y-56458528D01*
X111215584Y-56451702D01*
X111194514Y-56388548D01*
X111188349Y-56375386D01*
X111104576Y-56240009D01*
X111095542Y-56228611D01*
X110982873Y-56116138D01*
X110971462Y-56107126D01*
X110835939Y-56023589D01*
X110822762Y-56017445D01*
X110776528Y-56002110D01*
X110718168Y-55961680D01*
X110690931Y-55896116D01*
X110702995Y-55827185D01*
X110735754Y-55760165D01*
X110741463Y-55741694D01*
X110749340Y-55687703D01*
X110750000Y-55678604D01*
X110750000Y-55455615D01*
X110745525Y-55440376D01*
X110744135Y-55439171D01*
X110736452Y-55437500D01*
X110568115Y-55437500D01*
X110552876Y-55441975D01*
X110551671Y-55443365D01*
X110550000Y-55451048D01*
X110550000Y-55896386D01*
X109950000Y-55896386D01*
X109950000Y-55455615D01*
X109945525Y-55440376D01*
X109944135Y-55439171D01*
X109936452Y-55437500D01*
X109768116Y-55437500D01*
X109752877Y-55441975D01*
X109751672Y-55443365D01*
X109750001Y-55451048D01*
X109750001Y-55678568D01*
X109750672Y-55687734D01*
X109758700Y-55742278D01*
X109764443Y-55760759D01*
X109786419Y-55805520D01*
X109798487Y-55875484D01*
X109770813Y-55940865D01*
X109713192Y-55980575D01*
X109601049Y-56017989D01*
X109587887Y-56024154D01*
X109452510Y-56107927D01*
X109441112Y-56116961D01*
X109328639Y-56229630D01*
X109319625Y-56241044D01*
X109289630Y-56289705D01*
X109236858Y-56337199D01*
X109166787Y-56348623D01*
X109106806Y-56324417D01*
X109033384Y-56269391D01*
X109033383Y-56269390D01*
X109026201Y-56264008D01*
X109017800Y-56260858D01*
X109017797Y-56260857D01*
X108911270Y-56220922D01*
X108854506Y-56178280D01*
X108829806Y-56111719D01*
X108829500Y-56102940D01*
X108829500Y-55924557D01*
X108843233Y-55867354D01*
X108889498Y-55776555D01*
X108904500Y-55681834D01*
X108904500Y-54819385D01*
X109750000Y-54819385D01*
X109754475Y-54834624D01*
X109755865Y-54835829D01*
X109763548Y-54837500D01*
X109931885Y-54837500D01*
X109947124Y-54833025D01*
X109948329Y-54831635D01*
X109950000Y-54823952D01*
X109950000Y-54819385D01*
X110550000Y-54819385D01*
X110554475Y-54834624D01*
X110555865Y-54835829D01*
X110563548Y-54837500D01*
X110731884Y-54837500D01*
X110747123Y-54833025D01*
X110748328Y-54831635D01*
X110749999Y-54823952D01*
X110749999Y-54596432D01*
X110749328Y-54587266D01*
X110741300Y-54532722D01*
X110735557Y-54514241D01*
X110693111Y-54427787D01*
X110681151Y-54411082D01*
X110613428Y-54343477D01*
X110596700Y-54331545D01*
X110566277Y-54316674D01*
X110552375Y-54314301D01*
X110550158Y-54317559D01*
X110550000Y-54318563D01*
X110550000Y-54819385D01*
X109950000Y-54819385D01*
X109950000Y-54326824D01*
X109946027Y-54313293D01*
X109942186Y-54312741D01*
X109941112Y-54313073D01*
X109902787Y-54331889D01*
X109886082Y-54343849D01*
X109818477Y-54411572D01*
X109806545Y-54428300D01*
X109764245Y-54514838D01*
X109758537Y-54533306D01*
X109750660Y-54587297D01*
X109750000Y-54596396D01*
X109750000Y-54819385D01*
X108904500Y-54819385D01*
X108904500Y-54593166D01*
X108889498Y-54498445D01*
X108831326Y-54384277D01*
X108740723Y-54293674D01*
X108626555Y-54235502D01*
X108531834Y-54220500D01*
X108168166Y-54220500D01*
X108073445Y-54235502D01*
X107959277Y-54293674D01*
X107955629Y-54297322D01*
X107891250Y-54320294D01*
X107884054Y-54320500D01*
X107280499Y-54320500D01*
X107212378Y-54300498D01*
X107165885Y-54246842D01*
X107154499Y-54194500D01*
X107154499Y-54174934D01*
X107139734Y-54100699D01*
X107083484Y-54016516D01*
X106999301Y-53960266D01*
X106925067Y-53945500D01*
X106300102Y-53945500D01*
X105674934Y-53945501D01*
X105639182Y-53952612D01*
X105612874Y-53957844D01*
X105612872Y-53957845D01*
X105600699Y-53960266D01*
X105590379Y-53967161D01*
X105590378Y-53967162D01*
X105562344Y-53985894D01*
X105516516Y-54016516D01*
X105460266Y-54100699D01*
X105445500Y-54174933D01*
X100754000Y-54174933D01*
X100754000Y-50516615D01*
X104742731Y-50516615D01*
X104757626Y-50549376D01*
X104763578Y-50559727D01*
X104878968Y-50722397D01*
X104886761Y-50731425D01*
X105030831Y-50869342D01*
X105040196Y-50876738D01*
X105207741Y-50984921D01*
X105218345Y-50990417D01*
X105403311Y-51064961D01*
X105418334Y-51069411D01*
X105477968Y-51107938D01*
X105507306Y-51172590D01*
X105497034Y-51242839D01*
X105487315Y-51260218D01*
X105460266Y-51300699D01*
X105445500Y-51374933D01*
X105445501Y-52625066D01*
X105460266Y-52699301D01*
X105467161Y-52709620D01*
X105467162Y-52709622D01*
X105507516Y-52770015D01*
X105516516Y-52783484D01*
X105600699Y-52839734D01*
X105674933Y-52854500D01*
X106299898Y-52854500D01*
X106925066Y-52854499D01*
X106960818Y-52847388D01*
X106987126Y-52842156D01*
X106987128Y-52842155D01*
X106999301Y-52839734D01*
X107009621Y-52832839D01*
X107009622Y-52832838D01*
X107073168Y-52790377D01*
X107083484Y-52783484D01*
X107139734Y-52699301D01*
X107154500Y-52625067D01*
X107154499Y-51875806D01*
X107174501Y-51807685D01*
X107191404Y-51786711D01*
X107382302Y-51595813D01*
X107444614Y-51561787D01*
X107515429Y-51566852D01*
X107572265Y-51609399D01*
X107576525Y-51616020D01*
X107577929Y-51619764D01*
X107664596Y-51735404D01*
X107671776Y-51740785D01*
X107773054Y-51816689D01*
X107773057Y-51816691D01*
X107780236Y-51822071D01*
X107788638Y-51825221D01*
X107788642Y-51825223D01*
X107788731Y-51825256D01*
X107788806Y-51825313D01*
X107796515Y-51829533D01*
X107795906Y-51830646D01*
X107845495Y-51867898D01*
X107870194Y-51934460D01*
X107870500Y-51943237D01*
X107870500Y-52075443D01*
X107856767Y-52132645D01*
X107810502Y-52223445D01*
X107795500Y-52318166D01*
X107795500Y-53406834D01*
X107810502Y-53501555D01*
X107868674Y-53615723D01*
X107959277Y-53706326D01*
X108073445Y-53764498D01*
X108168166Y-53779500D01*
X108531834Y-53779500D01*
X108536719Y-53778726D01*
X108536736Y-53778725D01*
X108547949Y-53776949D01*
X108618359Y-53786050D01*
X108656750Y-53812303D01*
X108737896Y-53893449D01*
X108750322Y-53903089D01*
X108879777Y-53979647D01*
X108894213Y-53985894D01*
X108982605Y-54011574D01*
X108996705Y-54011534D01*
X109000000Y-54004264D01*
X109000000Y-52688500D01*
X109020002Y-52620379D01*
X109073658Y-52573886D01*
X109126000Y-52562500D01*
X109474000Y-52562500D01*
X109542121Y-52582502D01*
X109588614Y-52636158D01*
X109600000Y-52688500D01*
X109600000Y-53998513D01*
X109603973Y-54012044D01*
X109611871Y-54013179D01*
X109705787Y-53985894D01*
X109720223Y-53979647D01*
X109849678Y-53903089D01*
X109862104Y-53893449D01*
X109943250Y-53812303D01*
X110005562Y-53778277D01*
X110052051Y-53776949D01*
X110063264Y-53778725D01*
X110063281Y-53778726D01*
X110068166Y-53779500D01*
X110431834Y-53779500D01*
X110526555Y-53764498D01*
X110640723Y-53706326D01*
X110731326Y-53615723D01*
X110789498Y-53501555D01*
X110791995Y-53485789D01*
X110822408Y-53421636D01*
X110882676Y-53384109D01*
X110916444Y-53379500D01*
X111083573Y-53379500D01*
X111131790Y-53389091D01*
X111255246Y-53440228D01*
X111400000Y-53459285D01*
X111408188Y-53458207D01*
X111536566Y-53441306D01*
X111544754Y-53440228D01*
X111679643Y-53384355D01*
X111686196Y-53379327D01*
X111788921Y-53300503D01*
X111788924Y-53300500D01*
X111795474Y-53295474D01*
X111884355Y-53179642D01*
X111940228Y-53044754D01*
X111959285Y-52900000D01*
X111943946Y-52783484D01*
X111941306Y-52763432D01*
X111941305Y-52763430D01*
X111940228Y-52755246D01*
X111912012Y-52687128D01*
X111887515Y-52627986D01*
X111887514Y-52627984D01*
X111884355Y-52620358D01*
X111795474Y-52504526D01*
X111788924Y-52499500D01*
X111788921Y-52499497D01*
X111686196Y-52420673D01*
X111686194Y-52420672D01*
X111679643Y-52415645D01*
X111544754Y-52359772D01*
X111400000Y-52340715D01*
X111391812Y-52341793D01*
X111263432Y-52358694D01*
X111263430Y-52358695D01*
X111255246Y-52359772D01*
X111156926Y-52400498D01*
X111131792Y-52410909D01*
X111083573Y-52420500D01*
X110928322Y-52420500D01*
X110860201Y-52400498D01*
X110813708Y-52346842D01*
X110803873Y-52314210D01*
X110796782Y-52269438D01*
X110805882Y-52199027D01*
X110851604Y-52144713D01*
X110908229Y-52124401D01*
X110924205Y-52122744D01*
X110937600Y-52119851D01*
X111091784Y-52068412D01*
X111104962Y-52062239D01*
X111242807Y-51976937D01*
X111254208Y-51967901D01*
X111368739Y-51853171D01*
X111377751Y-51841760D01*
X111462816Y-51703757D01*
X111468963Y-51690576D01*
X111520138Y-51536290D01*
X111523005Y-51522914D01*
X111532672Y-51428562D01*
X111532827Y-51425527D01*
X111528525Y-51410876D01*
X111527135Y-51409671D01*
X111519452Y-51408000D01*
X110055500Y-51408000D01*
X109987379Y-51387998D01*
X109940886Y-51334342D01*
X109929500Y-51282000D01*
X109929500Y-50373885D01*
X110945500Y-50373885D01*
X110949975Y-50389124D01*
X110951365Y-50390329D01*
X110959048Y-50392000D01*
X111514884Y-50392000D01*
X111530123Y-50387525D01*
X111531328Y-50386135D01*
X111532999Y-50378452D01*
X111532999Y-50377905D01*
X111532662Y-50371386D01*
X111522743Y-50275794D01*
X111519851Y-50262400D01*
X111468412Y-50108216D01*
X111462239Y-50095038D01*
X111376937Y-49957193D01*
X111367901Y-49945792D01*
X111253171Y-49831261D01*
X111241760Y-49822249D01*
X111103757Y-49737184D01*
X111090576Y-49731037D01*
X110962694Y-49688620D01*
X110948601Y-49688131D01*
X110945500Y-49694342D01*
X110945500Y-50373885D01*
X109929500Y-50373885D01*
X109929500Y-49700899D01*
X109925527Y-49687368D01*
X109918701Y-49686387D01*
X109783216Y-49731588D01*
X109770038Y-49737761D01*
X109632193Y-49823063D01*
X109620792Y-49832099D01*
X109506261Y-49946829D01*
X109497249Y-49958240D01*
X109412184Y-50096243D01*
X109406036Y-50109426D01*
X109384283Y-50175010D01*
X109343853Y-50233370D01*
X109278288Y-50260607D01*
X109208407Y-50248074D01*
X109154170Y-50195853D01*
X109150223Y-50188643D01*
X109147071Y-50180236D01*
X109136804Y-50166536D01*
X109065785Y-50071776D01*
X109060404Y-50064596D01*
X109029591Y-50041503D01*
X108951946Y-49983311D01*
X108951943Y-49983309D01*
X108944764Y-49977929D01*
X108923769Y-49970059D01*
X108867006Y-49927417D01*
X108842306Y-49860856D01*
X108842000Y-49852077D01*
X108842000Y-49431277D01*
X111758608Y-49431277D01*
X111789439Y-49529661D01*
X111795645Y-49543406D01*
X111871533Y-49668711D01*
X111880840Y-49680580D01*
X111984420Y-49784160D01*
X111996289Y-49793467D01*
X112121594Y-49869355D01*
X112135339Y-49875561D01*
X112272194Y-49918448D01*
X112279297Y-49917072D01*
X112282500Y-49905094D01*
X112282500Y-49438115D01*
X112278025Y-49422876D01*
X112276635Y-49421671D01*
X112268952Y-49420000D01*
X111773189Y-49420000D01*
X111759658Y-49423973D01*
X111758608Y-49431277D01*
X108842000Y-49431277D01*
X108842000Y-48776813D01*
X111760236Y-48776813D01*
X111766893Y-48780000D01*
X112264385Y-48780000D01*
X112279624Y-48775525D01*
X112280829Y-48774135D01*
X112282500Y-48766452D01*
X112282500Y-48328115D01*
X112278025Y-48312876D01*
X112276635Y-48311671D01*
X112268952Y-48310000D01*
X111791861Y-48310000D01*
X111778330Y-48313973D01*
X111777280Y-48321277D01*
X111809029Y-48422589D01*
X111815236Y-48436335D01*
X111832608Y-48465020D01*
X111850787Y-48533649D01*
X111832607Y-48595563D01*
X111795647Y-48656591D01*
X111789439Y-48670339D01*
X111760491Y-48762713D01*
X111760236Y-48776813D01*
X108842000Y-48776813D01*
X108842000Y-47686813D01*
X111778908Y-47686813D01*
X111785565Y-47690000D01*
X112304385Y-47690000D01*
X112319624Y-47685525D01*
X112320829Y-47684135D01*
X112322500Y-47676452D01*
X112322500Y-47204204D01*
X112318229Y-47189659D01*
X112306096Y-47187597D01*
X112304946Y-47187702D01*
X112291912Y-47190313D01*
X112152411Y-47234029D01*
X112138666Y-47240235D01*
X112014396Y-47315496D01*
X112002527Y-47324803D01*
X111899803Y-47427527D01*
X111890496Y-47439396D01*
X111815235Y-47563666D01*
X111809029Y-47577411D01*
X111779163Y-47672713D01*
X111778908Y-47686813D01*
X108842000Y-47686813D01*
X108842000Y-42488305D01*
X108862002Y-42420184D01*
X108878905Y-42399210D01*
X110096230Y-41181885D01*
X110158542Y-41147859D01*
X110185325Y-41144980D01*
X113684500Y-41144980D01*
X113752621Y-41164982D01*
X113799114Y-41218638D01*
X113810500Y-41270980D01*
X113810500Y-41291695D01*
X113790498Y-41359816D01*
X113773595Y-41380790D01*
X113533904Y-41620481D01*
X113525079Y-41627532D01*
X113525459Y-41627979D01*
X113518623Y-41633797D01*
X113511031Y-41638587D01*
X113505088Y-41645316D01*
X113477571Y-41676473D01*
X113472225Y-41682160D01*
X113461596Y-41692789D01*
X113458907Y-41696377D01*
X113455852Y-41700452D01*
X113449476Y-41708283D01*
X113435995Y-41723548D01*
X113420109Y-41741536D01*
X113416293Y-41749664D01*
X113413023Y-41754642D01*
X113408322Y-41762465D01*
X113405465Y-41767684D01*
X113400083Y-41774865D01*
X113391149Y-41798698D01*
X113384514Y-41816396D01*
X113380593Y-41825701D01*
X113361736Y-41865866D01*
X113360355Y-41874733D01*
X113358620Y-41880409D01*
X113356292Y-41889286D01*
X113355020Y-41895072D01*
X113351870Y-41903475D01*
X113351205Y-41912425D01*
X113348583Y-41947700D01*
X113347432Y-41957737D01*
X113345500Y-41970143D01*
X113345500Y-41984510D01*
X113345154Y-41993848D01*
X113341691Y-42040448D01*
X113343564Y-42049224D01*
X113344175Y-42058181D01*
X113344085Y-42058187D01*
X113345500Y-42071591D01*
X113345500Y-42114500D01*
X113325498Y-42182621D01*
X113271842Y-42229114D01*
X113219500Y-42240500D01*
X112968166Y-42240500D01*
X112873445Y-42255502D01*
X112759277Y-42313674D01*
X112668674Y-42404277D01*
X112610502Y-42518445D01*
X112595500Y-42613166D01*
X112595500Y-42976834D01*
X112610502Y-43071555D01*
X112668674Y-43185723D01*
X112759277Y-43276326D01*
X112834687Y-43314750D01*
X112840542Y-43317733D01*
X112892157Y-43366482D01*
X112909223Y-43435397D01*
X112886322Y-43502598D01*
X112840543Y-43542266D01*
X112782647Y-43571766D01*
X112725443Y-43585500D01*
X112472527Y-43585500D01*
X112407639Y-43566447D01*
X112406674Y-43565482D01*
X112289684Y-43505873D01*
X112279895Y-43504322D01*
X112279893Y-43504322D01*
X112252120Y-43499923D01*
X112192623Y-43490500D01*
X112118305Y-43490500D01*
X112050184Y-43470498D01*
X112029210Y-43453595D01*
X111084519Y-42508904D01*
X111077468Y-42500079D01*
X111077021Y-42500459D01*
X111071203Y-42493623D01*
X111066413Y-42486031D01*
X111028527Y-42452571D01*
X111022840Y-42447225D01*
X111012211Y-42436596D01*
X111007336Y-42432942D01*
X111004548Y-42430852D01*
X110996717Y-42424476D01*
X110970193Y-42401052D01*
X110963464Y-42395109D01*
X110955336Y-42391293D01*
X110950358Y-42388023D01*
X110942535Y-42383322D01*
X110937316Y-42380465D01*
X110930135Y-42375083D01*
X110888600Y-42359512D01*
X110879299Y-42355593D01*
X110839134Y-42336736D01*
X110830267Y-42335355D01*
X110824591Y-42333620D01*
X110807741Y-42329200D01*
X110801530Y-42326872D01*
X110801943Y-42325771D01*
X110783529Y-42318627D01*
X110779643Y-42315645D01*
X110772017Y-42312486D01*
X110772015Y-42312485D01*
X110652383Y-42262932D01*
X110644754Y-42259772D01*
X110500000Y-42240715D01*
X110491812Y-42241793D01*
X110363432Y-42258694D01*
X110363430Y-42258695D01*
X110355246Y-42259772D01*
X110341461Y-42265482D01*
X110227986Y-42312485D01*
X110227984Y-42312486D01*
X110220358Y-42315645D01*
X110104526Y-42404526D01*
X110015645Y-42520358D01*
X109959772Y-42655246D01*
X109940715Y-42800000D01*
X109959772Y-42944754D01*
X109979578Y-42992570D01*
X110008239Y-43061762D01*
X110015645Y-43079642D01*
X110104526Y-43195474D01*
X110111076Y-43200500D01*
X110111079Y-43200503D01*
X110209893Y-43276326D01*
X110220357Y-43284355D01*
X110355246Y-43340228D01*
X110500000Y-43359285D01*
X110508188Y-43358207D01*
X110516446Y-43358207D01*
X110516446Y-43359574D01*
X110578061Y-43369182D01*
X110613455Y-43394070D01*
X111388596Y-44169211D01*
X111422622Y-44231523D01*
X111425501Y-44258306D01*
X111425501Y-44332622D01*
X111440873Y-44429684D01*
X111445376Y-44438521D01*
X111445376Y-44438522D01*
X111454140Y-44455723D01*
X111500482Y-44546674D01*
X111564713Y-44610905D01*
X111598739Y-44673217D01*
X111593674Y-44744032D01*
X111564713Y-44789095D01*
X111500482Y-44853326D01*
X111440873Y-44970316D01*
X111425500Y-45067377D01*
X111425501Y-45527622D01*
X111426276Y-45532515D01*
X111438794Y-45611555D01*
X111440873Y-45624684D01*
X111500482Y-45741674D01*
X111508034Y-45749226D01*
X111508688Y-45750329D01*
X111513321Y-45756706D01*
X111512724Y-45757140D01*
X111533250Y-45791776D01*
X111535041Y-45790962D01*
X111535041Y-45790963D01*
X111553404Y-45831349D01*
X111557210Y-45840701D01*
X111569223Y-45873979D01*
X111569225Y-45873983D01*
X111572273Y-45882426D01*
X111577572Y-45889679D01*
X111580363Y-45894928D01*
X111584968Y-45902810D01*
X111588174Y-45907824D01*
X111591890Y-45915996D01*
X111597749Y-45922796D01*
X111597750Y-45922797D01*
X111620838Y-45949591D01*
X111627126Y-45957510D01*
X111634527Y-45967641D01*
X111644683Y-45977797D01*
X111651040Y-45984643D01*
X111681547Y-46020048D01*
X111689074Y-46024927D01*
X111695844Y-46030833D01*
X111695785Y-46030900D01*
X111706265Y-46039379D01*
X112562986Y-46896101D01*
X112570033Y-46904921D01*
X112570480Y-46904541D01*
X112576297Y-46911376D01*
X112581088Y-46918969D01*
X112618965Y-46952421D01*
X112624652Y-46957767D01*
X112635289Y-46968404D01*
X112638875Y-46971092D01*
X112638879Y-46971095D01*
X112642951Y-46974147D01*
X112650794Y-46980532D01*
X112666052Y-46994007D01*
X112670890Y-46998280D01*
X112676576Y-47003625D01*
X112759277Y-47086326D01*
X112816691Y-47115580D01*
X112873445Y-47144498D01*
X112871624Y-47148073D01*
X112914090Y-47177148D01*
X112941687Y-47242561D01*
X112942500Y-47256849D01*
X112942500Y-48795717D01*
X112928978Y-48841771D01*
X112922500Y-48871548D01*
X112922500Y-49903535D01*
X112926756Y-49918031D01*
X112931556Y-49918840D01*
X113069661Y-49875561D01*
X113083406Y-49869355D01*
X113208711Y-49793467D01*
X113220580Y-49784160D01*
X113322974Y-49681766D01*
X113385286Y-49647740D01*
X113451748Y-49652494D01*
X113452051Y-49651561D01*
X113455817Y-49652785D01*
X113456101Y-49652805D01*
X113456727Y-49653081D01*
X113461482Y-49654626D01*
X113470316Y-49659127D01*
X113567377Y-49674500D01*
X113641695Y-49674500D01*
X113709816Y-49694502D01*
X113730790Y-49711405D01*
X114483595Y-50464210D01*
X114517621Y-50526522D01*
X114520500Y-50553305D01*
X114520500Y-57991825D01*
X114500498Y-58059946D01*
X114475828Y-58088063D01*
X114434422Y-58123054D01*
X114423546Y-58132245D01*
X114419399Y-58137668D01*
X114419398Y-58137670D01*
X114314925Y-58274315D01*
X114314923Y-58274319D01*
X114310781Y-58279736D01*
X114307899Y-58285916D01*
X114307898Y-58285918D01*
X114268254Y-58370936D01*
X114232318Y-58448000D01*
X114230832Y-58454648D01*
X114230831Y-58454651D01*
X114214510Y-58527667D01*
X114191818Y-58629188D01*
X114191500Y-58634876D01*
X114191500Y-59321385D01*
X114206512Y-59459573D01*
X114265730Y-59635535D01*
X114361351Y-59794677D01*
X114366039Y-59799634D01*
X114366041Y-59799637D01*
X114439154Y-59876951D01*
X114488916Y-59929572D01*
X114642471Y-60033928D01*
X114648805Y-60036461D01*
X114648808Y-60036463D01*
X114808516Y-60100342D01*
X114808521Y-60100343D01*
X114814853Y-60102876D01*
X114821580Y-60103990D01*
X114821585Y-60103991D01*
X114991282Y-60132084D01*
X114991285Y-60132084D01*
X114998019Y-60133199D01*
X115004836Y-60132842D01*
X115004840Y-60132842D01*
X115155920Y-60124923D01*
X115183424Y-60123482D01*
X115189996Y-60121672D01*
X115190001Y-60121671D01*
X115355835Y-60075992D01*
X115362417Y-60074179D01*
X115526648Y-59987590D01*
X115668454Y-59867755D01*
X115673342Y-59861362D01*
X115777075Y-59725685D01*
X115777077Y-59725681D01*
X115781219Y-59720264D01*
X115798077Y-59684112D01*
X115856802Y-59558177D01*
X115856803Y-59558174D01*
X115859682Y-59552000D01*
X115872429Y-59494975D01*
X115899056Y-59375849D01*
X115900182Y-59370812D01*
X115900500Y-59365124D01*
X115900500Y-58678615D01*
X115885488Y-58540427D01*
X115826270Y-58364465D01*
X115730649Y-58205323D01*
X115709792Y-58183267D01*
X115607773Y-58075386D01*
X115607771Y-58075384D01*
X115603084Y-58070428D01*
X115597446Y-58066596D01*
X115597442Y-58066593D01*
X115534677Y-58023938D01*
X115489579Y-57969105D01*
X115479500Y-57919726D01*
X115479500Y-50370325D01*
X115480754Y-50359100D01*
X115480170Y-50359053D01*
X115480890Y-50350107D01*
X115482871Y-50341351D01*
X115479742Y-50290916D01*
X115479500Y-50283115D01*
X115479500Y-50268069D01*
X115478689Y-50262400D01*
X115478143Y-50258592D01*
X115477113Y-50248537D01*
X115474922Y-50213226D01*
X115474366Y-50204264D01*
X115471318Y-50195820D01*
X115470106Y-50189969D01*
X115467908Y-50181156D01*
X115466232Y-50175423D01*
X115464959Y-50166536D01*
X115446598Y-50126154D01*
X115442800Y-50116825D01*
X115427728Y-50075073D01*
X115422433Y-50067825D01*
X115419646Y-50062583D01*
X115415046Y-50054711D01*
X115411826Y-50049676D01*
X115408110Y-50041503D01*
X115379161Y-50007905D01*
X115372879Y-49999994D01*
X115368346Y-49993790D01*
X115368344Y-49993788D01*
X115365473Y-49989858D01*
X115355317Y-49979702D01*
X115348959Y-49972855D01*
X115324310Y-49944248D01*
X115324309Y-49944247D01*
X115318453Y-49937451D01*
X115310926Y-49932572D01*
X115304156Y-49926666D01*
X115304215Y-49926599D01*
X115293734Y-49918119D01*
X114446404Y-49070789D01*
X114412378Y-49008477D01*
X114409499Y-48981694D01*
X114409499Y-48907378D01*
X114405640Y-48883012D01*
X114395679Y-48820114D01*
X114395678Y-48820112D01*
X114394127Y-48810316D01*
X114387379Y-48797071D01*
X114339018Y-48702158D01*
X114334518Y-48693326D01*
X114313905Y-48672713D01*
X114279879Y-48610401D01*
X114277000Y-48583618D01*
X114277000Y-48489310D01*
X114297002Y-48421189D01*
X114302854Y-48413927D01*
X114302583Y-48413730D01*
X114308410Y-48405710D01*
X114315422Y-48398698D01*
X114374312Y-48283120D01*
X114389500Y-48187226D01*
X114389500Y-47812774D01*
X114374312Y-47716880D01*
X114315422Y-47601302D01*
X114283905Y-47569785D01*
X114249879Y-47507473D01*
X114247000Y-47480690D01*
X114247000Y-47285500D01*
X114267002Y-47217379D01*
X114320658Y-47170886D01*
X114373000Y-47159500D01*
X114681834Y-47159500D01*
X114776555Y-47144498D01*
X114890723Y-47086326D01*
X114981326Y-46995723D01*
X115021503Y-46916871D01*
X117311821Y-46916871D01*
X117339106Y-47010787D01*
X117345353Y-47025223D01*
X117421911Y-47154678D01*
X117431551Y-47167104D01*
X117537896Y-47273449D01*
X117550322Y-47283089D01*
X117679779Y-47359648D01*
X117694210Y-47365893D01*
X117840065Y-47408269D01*
X117852667Y-47410570D01*
X117881084Y-47412807D01*
X117886014Y-47413000D01*
X118456885Y-47413000D01*
X118472124Y-47408525D01*
X118473329Y-47407135D01*
X118475000Y-47399452D01*
X118475000Y-47394884D01*
X119075000Y-47394884D01*
X119079475Y-47410123D01*
X119080865Y-47411328D01*
X119088548Y-47412999D01*
X119663984Y-47412999D01*
X119668920Y-47412805D01*
X119697336Y-47410570D01*
X119709931Y-47408270D01*
X119855790Y-47365893D01*
X119870221Y-47359648D01*
X119999675Y-47283090D01*
X120001939Y-47281334D01*
X120004038Y-47280510D01*
X120006498Y-47279055D01*
X120006733Y-47279452D01*
X120068025Y-47255388D01*
X120137647Y-47269290D01*
X120144435Y-47273119D01*
X120163662Y-47284763D01*
X120177411Y-47290971D01*
X120272713Y-47320837D01*
X120286813Y-47321092D01*
X120290000Y-47314435D01*
X120290000Y-47308139D01*
X120910000Y-47308139D01*
X120913973Y-47321670D01*
X120921277Y-47322720D01*
X121022589Y-47290971D01*
X121036335Y-47284764D01*
X121065020Y-47267392D01*
X121133649Y-47249213D01*
X121195563Y-47267393D01*
X121256591Y-47304353D01*
X121270339Y-47310561D01*
X121362713Y-47339509D01*
X121376813Y-47339764D01*
X121380000Y-47333107D01*
X121380000Y-47326811D01*
X122020000Y-47326811D01*
X122023973Y-47340342D01*
X122031277Y-47341392D01*
X122129661Y-47310561D01*
X122143406Y-47304355D01*
X122268711Y-47228467D01*
X122280580Y-47219160D01*
X122384160Y-47115580D01*
X122393467Y-47103711D01*
X122469355Y-46978406D01*
X122475561Y-46964661D01*
X122518448Y-46827806D01*
X122517072Y-46820703D01*
X122505094Y-46817500D01*
X122038115Y-46817500D01*
X122022876Y-46821975D01*
X122021671Y-46823365D01*
X122020000Y-46831048D01*
X122020000Y-47326811D01*
X121380000Y-47326811D01*
X121380000Y-46835615D01*
X121375525Y-46820376D01*
X121374135Y-46819171D01*
X121366452Y-46817500D01*
X120928115Y-46817500D01*
X120912876Y-46821975D01*
X120911671Y-46823365D01*
X120910000Y-46831048D01*
X120910000Y-47308139D01*
X120290000Y-47308139D01*
X120290000Y-46923115D01*
X120285525Y-46907876D01*
X120284135Y-46906671D01*
X120276452Y-46905000D01*
X119093115Y-46905000D01*
X119077876Y-46909475D01*
X119076671Y-46910865D01*
X119075000Y-46918548D01*
X119075000Y-47394884D01*
X118475000Y-47394884D01*
X118475000Y-46923115D01*
X118470525Y-46907876D01*
X118469135Y-46906671D01*
X118461452Y-46905000D01*
X117326487Y-46905000D01*
X117312956Y-46908973D01*
X117311821Y-46916871D01*
X115021503Y-46916871D01*
X115039498Y-46881555D01*
X115054500Y-46786834D01*
X115054500Y-46423166D01*
X115039498Y-46328445D01*
X115018689Y-46287605D01*
X117313426Y-46287605D01*
X117313466Y-46301705D01*
X117320736Y-46305000D01*
X119723885Y-46305000D01*
X119739124Y-46300525D01*
X119740329Y-46299135D01*
X119742000Y-46291452D01*
X119742000Y-46283500D01*
X119762002Y-46215379D01*
X119815658Y-46168886D01*
X119868000Y-46157500D01*
X121395717Y-46157500D01*
X121441771Y-46171022D01*
X121471548Y-46177500D01*
X122503535Y-46177500D01*
X122518774Y-46173025D01*
X122520037Y-46171567D01*
X122548450Y-46113148D01*
X122609090Y-46076226D01*
X122680066Y-46077949D01*
X122730738Y-46108853D01*
X126483595Y-49861710D01*
X126517621Y-49924022D01*
X126520500Y-49950805D01*
X126520500Y-57925911D01*
X126500498Y-57994032D01*
X126475829Y-58022147D01*
X126422177Y-58067487D01*
X126350759Y-58127839D01*
X126350756Y-58127843D01*
X126345546Y-58132245D01*
X126341399Y-58137668D01*
X126341398Y-58137670D01*
X126236925Y-58274315D01*
X126236923Y-58274319D01*
X126232781Y-58279736D01*
X126229899Y-58285916D01*
X126229898Y-58285918D01*
X126190254Y-58370936D01*
X126154318Y-58448000D01*
X126152832Y-58454648D01*
X126152831Y-58454651D01*
X126136510Y-58527667D01*
X126113818Y-58629188D01*
X126113500Y-58634876D01*
X126113500Y-59321385D01*
X126128512Y-59459573D01*
X126187730Y-59635535D01*
X126283351Y-59794677D01*
X126288039Y-59799634D01*
X126288041Y-59799637D01*
X126361154Y-59876951D01*
X126410916Y-59929572D01*
X126564471Y-60033928D01*
X126570805Y-60036461D01*
X126570808Y-60036463D01*
X126730516Y-60100342D01*
X126730521Y-60100343D01*
X126736853Y-60102876D01*
X126743580Y-60103990D01*
X126743585Y-60103991D01*
X126913282Y-60132084D01*
X126913285Y-60132084D01*
X126920019Y-60133199D01*
X126926836Y-60132842D01*
X126926840Y-60132842D01*
X127077920Y-60124923D01*
X127105424Y-60123482D01*
X127111996Y-60121672D01*
X127112001Y-60121671D01*
X127277835Y-60075992D01*
X127284417Y-60074179D01*
X127448648Y-59987590D01*
X127590454Y-59867755D01*
X127595342Y-59861362D01*
X127699075Y-59725685D01*
X127699077Y-59725681D01*
X127703219Y-59720264D01*
X127720077Y-59684112D01*
X127778802Y-59558177D01*
X127778803Y-59558174D01*
X127781682Y-59552000D01*
X127794429Y-59494975D01*
X127821056Y-59375849D01*
X127822182Y-59370812D01*
X127822500Y-59365124D01*
X127822500Y-58678615D01*
X127807488Y-58540427D01*
X127748270Y-58364465D01*
X127652649Y-58205323D01*
X127631792Y-58183267D01*
X127574850Y-58123054D01*
X127525084Y-58070428D01*
X127522946Y-58068975D01*
X127484924Y-58010953D01*
X127479500Y-57974381D01*
X127479500Y-49767826D01*
X127480754Y-49756601D01*
X127480170Y-49756554D01*
X127480890Y-49747608D01*
X127482871Y-49738852D01*
X127479742Y-49688416D01*
X127479500Y-49680615D01*
X127479500Y-49665569D01*
X127478578Y-49659127D01*
X127478143Y-49656092D01*
X127477113Y-49646037D01*
X127474922Y-49610726D01*
X127474366Y-49601764D01*
X127471318Y-49593320D01*
X127470106Y-49587469D01*
X127467908Y-49578656D01*
X127466232Y-49572923D01*
X127464959Y-49564036D01*
X127446598Y-49523654D01*
X127442800Y-49514325D01*
X127427728Y-49472573D01*
X127422433Y-49465325D01*
X127419646Y-49460083D01*
X127415046Y-49452211D01*
X127411826Y-49447176D01*
X127408110Y-49439003D01*
X127401453Y-49431277D01*
X135758608Y-49431277D01*
X135789439Y-49529661D01*
X135795645Y-49543406D01*
X135871533Y-49668711D01*
X135880840Y-49680580D01*
X135984420Y-49784160D01*
X135996289Y-49793467D01*
X136121594Y-49869355D01*
X136135339Y-49875561D01*
X136272194Y-49918448D01*
X136279297Y-49917072D01*
X136282500Y-49905094D01*
X136282500Y-49438115D01*
X136278025Y-49422876D01*
X136276635Y-49421671D01*
X136268952Y-49420000D01*
X135773189Y-49420000D01*
X135759658Y-49423973D01*
X135758608Y-49431277D01*
X127401453Y-49431277D01*
X127391736Y-49420000D01*
X127379161Y-49405405D01*
X127372879Y-49397494D01*
X127368346Y-49391290D01*
X127368344Y-49391288D01*
X127365473Y-49387358D01*
X127355317Y-49377202D01*
X127348959Y-49370355D01*
X127324310Y-49341748D01*
X127324309Y-49341747D01*
X127318453Y-49334951D01*
X127310926Y-49330072D01*
X127304156Y-49324166D01*
X127304215Y-49324099D01*
X127293734Y-49315619D01*
X126754928Y-48776813D01*
X135760236Y-48776813D01*
X135766893Y-48780000D01*
X136264385Y-48780000D01*
X136279624Y-48775525D01*
X136280829Y-48774135D01*
X136282500Y-48766452D01*
X136282500Y-48328115D01*
X136278025Y-48312876D01*
X136276635Y-48311671D01*
X136268952Y-48310000D01*
X135791861Y-48310000D01*
X135778330Y-48313973D01*
X135777280Y-48321277D01*
X135809029Y-48422589D01*
X135815236Y-48436335D01*
X135832608Y-48465020D01*
X135850787Y-48533649D01*
X135832607Y-48595563D01*
X135795647Y-48656591D01*
X135789439Y-48670339D01*
X135760491Y-48762713D01*
X135760236Y-48776813D01*
X126754928Y-48776813D01*
X125664928Y-47686813D01*
X135778908Y-47686813D01*
X135785565Y-47690000D01*
X136304385Y-47690000D01*
X136319624Y-47685525D01*
X136320829Y-47684135D01*
X136322500Y-47676452D01*
X136322500Y-47204204D01*
X136318229Y-47189659D01*
X136306096Y-47187597D01*
X136304946Y-47187702D01*
X136291912Y-47190313D01*
X136152411Y-47234029D01*
X136138666Y-47240235D01*
X136014396Y-47315496D01*
X136002527Y-47324803D01*
X135899803Y-47427527D01*
X135890496Y-47439396D01*
X135815235Y-47563666D01*
X135809029Y-47577411D01*
X135779163Y-47672713D01*
X135778908Y-47686813D01*
X125664928Y-47686813D01*
X122944905Y-44966790D01*
X122944362Y-44966244D01*
X122892887Y-44914136D01*
X122868933Y-44900831D01*
X122854553Y-44891510D01*
X122846107Y-44885180D01*
X122832635Y-44875083D01*
X122810461Y-44866770D01*
X122793517Y-44858941D01*
X122780665Y-44851802D01*
X122780664Y-44851801D01*
X122772815Y-44847442D01*
X122746085Y-44841394D01*
X122739597Y-44839453D01*
X122739134Y-44839236D01*
X122738584Y-44839150D01*
X122729678Y-44836487D01*
X122704025Y-44826870D01*
X122680418Y-44825116D01*
X122661950Y-44822356D01*
X122638852Y-44817129D01*
X122611510Y-44818825D01*
X122594373Y-44818721D01*
X122592260Y-44818564D01*
X122567052Y-44816691D01*
X122550500Y-44820224D01*
X122524198Y-44823000D01*
X122216382Y-44823000D01*
X122148261Y-44802998D01*
X122127287Y-44786095D01*
X122106674Y-44765482D01*
X121989684Y-44705873D01*
X121979895Y-44704322D01*
X121979893Y-44704322D01*
X121952120Y-44699923D01*
X121892623Y-44690500D01*
X121700039Y-44690500D01*
X121507378Y-44690501D01*
X121483012Y-44694360D01*
X121420114Y-44704321D01*
X121420112Y-44704322D01*
X121410316Y-44705873D01*
X121401479Y-44710376D01*
X121401478Y-44710376D01*
X121363945Y-44729500D01*
X121293326Y-44765482D01*
X121286315Y-44772493D01*
X121279563Y-44777399D01*
X121212696Y-44801259D01*
X121143544Y-44785180D01*
X121094063Y-44734268D01*
X121079500Y-44675465D01*
X121079500Y-44507527D01*
X121098553Y-44442639D01*
X121099518Y-44441674D01*
X121159127Y-44324684D01*
X121174500Y-44227623D01*
X121174499Y-43767378D01*
X121159127Y-43670316D01*
X121099518Y-43553326D01*
X121040787Y-43494595D01*
X121006761Y-43432283D01*
X121011826Y-43361468D01*
X121054373Y-43304632D01*
X121120893Y-43279821D01*
X121129882Y-43279500D01*
X122183573Y-43279500D01*
X122231790Y-43289091D01*
X122355246Y-43340228D01*
X122500000Y-43359285D01*
X122508188Y-43358207D01*
X122636566Y-43341306D01*
X122644754Y-43340228D01*
X122779643Y-43284355D01*
X122790107Y-43276326D01*
X122888921Y-43200503D01*
X122888924Y-43200500D01*
X122895474Y-43195474D01*
X122984355Y-43079642D01*
X122991762Y-43061762D01*
X123020422Y-42992570D01*
X123040228Y-42944754D01*
X123059285Y-42800000D01*
X123040228Y-42655246D01*
X122984355Y-42520358D01*
X122915675Y-42430852D01*
X122900501Y-42411077D01*
X122900500Y-42411076D01*
X122895474Y-42404526D01*
X122888924Y-42399500D01*
X122888921Y-42399497D01*
X122786196Y-42320673D01*
X122786194Y-42320672D01*
X122779643Y-42315645D01*
X122644754Y-42259772D01*
X122500000Y-42240715D01*
X122491812Y-42241793D01*
X122363432Y-42258694D01*
X122363430Y-42258695D01*
X122355246Y-42259772D01*
X122235756Y-42309267D01*
X122231792Y-42310909D01*
X122183573Y-42320500D01*
X121113882Y-42320500D01*
X121045761Y-42300498D01*
X121024787Y-42283595D01*
X121006674Y-42265482D01*
X120889684Y-42205873D01*
X120879895Y-42204322D01*
X120879893Y-42204322D01*
X120852120Y-42199923D01*
X120792623Y-42190500D01*
X120600039Y-42190500D01*
X120407378Y-42190501D01*
X120383012Y-42194360D01*
X120320114Y-42204321D01*
X120320112Y-42204322D01*
X120310316Y-42205873D01*
X120301479Y-42210376D01*
X120301478Y-42210376D01*
X120275038Y-42223848D01*
X120193326Y-42265482D01*
X120172713Y-42286095D01*
X120110401Y-42320121D01*
X120083618Y-42323000D01*
X119889277Y-42323000D01*
X119832074Y-42309267D01*
X119790702Y-42288187D01*
X119726555Y-42255502D01*
X119631834Y-42240500D01*
X117918166Y-42240500D01*
X117823445Y-42255502D01*
X117709277Y-42313674D01*
X117618674Y-42404277D01*
X117560502Y-42518445D01*
X117545500Y-42613166D01*
X117545500Y-42976834D01*
X117560502Y-43071555D01*
X117618674Y-43185723D01*
X117709277Y-43276326D01*
X117784687Y-43314750D01*
X117790542Y-43317733D01*
X117842157Y-43366482D01*
X117859223Y-43435397D01*
X117836322Y-43502598D01*
X117790542Y-43542267D01*
X117709277Y-43583674D01*
X117618674Y-43674277D01*
X117560502Y-43788445D01*
X117545500Y-43883166D01*
X117545500Y-44246834D01*
X117560502Y-44341555D01*
X117618674Y-44455723D01*
X117709277Y-44546326D01*
X117757190Y-44570739D01*
X117790542Y-44587733D01*
X117842157Y-44636482D01*
X117859223Y-44705397D01*
X117836322Y-44772598D01*
X117790542Y-44812267D01*
X117709277Y-44853674D01*
X117618674Y-44944277D01*
X117560502Y-45058445D01*
X117545500Y-45153166D01*
X117545500Y-45516834D01*
X117560502Y-45611555D01*
X117618674Y-45725723D01*
X117621442Y-45728491D01*
X117644180Y-45792217D01*
X117628101Y-45861369D01*
X117582525Y-45907867D01*
X117550323Y-45926911D01*
X117537896Y-45936551D01*
X117431551Y-46042896D01*
X117421911Y-46055322D01*
X117345353Y-46184777D01*
X117339106Y-46199213D01*
X117313426Y-46287605D01*
X115018689Y-46287605D01*
X114981326Y-46214277D01*
X114890723Y-46123674D01*
X114809458Y-46082267D01*
X114757843Y-46033518D01*
X114740777Y-45964603D01*
X114763678Y-45897402D01*
X114809458Y-45857733D01*
X114815313Y-45854750D01*
X114890723Y-45816326D01*
X114981326Y-45725723D01*
X115039498Y-45611555D01*
X115054500Y-45516834D01*
X115054500Y-45153166D01*
X115039498Y-45058445D01*
X114981326Y-44944277D01*
X114890723Y-44853674D01*
X114809458Y-44812267D01*
X114757843Y-44763518D01*
X114740777Y-44694603D01*
X114763678Y-44627402D01*
X114809458Y-44587733D01*
X114842810Y-44570739D01*
X114890723Y-44546326D01*
X114981326Y-44455723D01*
X115039498Y-44341555D01*
X115054500Y-44246834D01*
X115054500Y-43883166D01*
X115039498Y-43788445D01*
X114981326Y-43674277D01*
X114890723Y-43583674D01*
X114809458Y-43542267D01*
X114757843Y-43493518D01*
X114740777Y-43424603D01*
X114763678Y-43357402D01*
X114809458Y-43317733D01*
X114815313Y-43314750D01*
X114890723Y-43276326D01*
X114981326Y-43185723D01*
X115039498Y-43071555D01*
X115054500Y-42976834D01*
X115054500Y-42613166D01*
X115039498Y-42518445D01*
X114981326Y-42404277D01*
X114947352Y-42370303D01*
X114913326Y-42307991D01*
X114918391Y-42237176D01*
X114960938Y-42180340D01*
X115027458Y-42155529D01*
X115079800Y-42164856D01*
X115080162Y-42163699D01*
X115226912Y-42209687D01*
X115239593Y-42212227D01*
X115254335Y-42209331D01*
X115257500Y-42197437D01*
X115257500Y-42195796D01*
X115877500Y-42195796D01*
X115881771Y-42210341D01*
X115893904Y-42212403D01*
X115895054Y-42212298D01*
X115908088Y-42209687D01*
X116047589Y-42165971D01*
X116061334Y-42159765D01*
X116185604Y-42084504D01*
X116197473Y-42075197D01*
X116300197Y-41972473D01*
X116309504Y-41960604D01*
X116384765Y-41836334D01*
X116390971Y-41822589D01*
X116420837Y-41727287D01*
X116421092Y-41713187D01*
X116414435Y-41710000D01*
X115895615Y-41710000D01*
X115880376Y-41714475D01*
X115879171Y-41715865D01*
X115877500Y-41723548D01*
X115877500Y-42195796D01*
X115257500Y-42195796D01*
X115257500Y-41270980D01*
X115277502Y-41202859D01*
X115331158Y-41156366D01*
X115383500Y-41144980D01*
X137447175Y-41144980D01*
X137515296Y-41164982D01*
X137536270Y-41181885D01*
X137665290Y-41310905D01*
X137699316Y-41373217D01*
X137694251Y-41444032D01*
X137665290Y-41489095D01*
X137533904Y-41620481D01*
X137525079Y-41627532D01*
X137525459Y-41627979D01*
X137518623Y-41633797D01*
X137511031Y-41638587D01*
X137505088Y-41645316D01*
X137477571Y-41676473D01*
X137472225Y-41682160D01*
X137461596Y-41692789D01*
X137458907Y-41696377D01*
X137455852Y-41700452D01*
X137449476Y-41708283D01*
X137435995Y-41723548D01*
X137420109Y-41741536D01*
X137416293Y-41749664D01*
X137413023Y-41754642D01*
X137408322Y-41762465D01*
X137405465Y-41767684D01*
X137400083Y-41774865D01*
X137391149Y-41798698D01*
X137384514Y-41816396D01*
X137380593Y-41825701D01*
X137361736Y-41865866D01*
X137360355Y-41874733D01*
X137358620Y-41880409D01*
X137356292Y-41889286D01*
X137355020Y-41895072D01*
X137351870Y-41903475D01*
X137351205Y-41912425D01*
X137348583Y-41947700D01*
X137347432Y-41957737D01*
X137345500Y-41970143D01*
X137345500Y-41984510D01*
X137345154Y-41993848D01*
X137341691Y-42040448D01*
X137343564Y-42049224D01*
X137344175Y-42058181D01*
X137344085Y-42058187D01*
X137345500Y-42071591D01*
X137345500Y-42114500D01*
X137325498Y-42182621D01*
X137271842Y-42229114D01*
X137219500Y-42240500D01*
X136968166Y-42240500D01*
X136873445Y-42255502D01*
X136759277Y-42313674D01*
X136668674Y-42404277D01*
X136610502Y-42518445D01*
X136595500Y-42613166D01*
X136595500Y-42976834D01*
X136610502Y-43071555D01*
X136668674Y-43185723D01*
X136759277Y-43276326D01*
X136834687Y-43314750D01*
X136840542Y-43317733D01*
X136892157Y-43366482D01*
X136909223Y-43435397D01*
X136886322Y-43502598D01*
X136840543Y-43542266D01*
X136782647Y-43571766D01*
X136725443Y-43585500D01*
X136472527Y-43585500D01*
X136407639Y-43566447D01*
X136406674Y-43565482D01*
X136289684Y-43505873D01*
X136279895Y-43504322D01*
X136279893Y-43504322D01*
X136252120Y-43499923D01*
X136192623Y-43490500D01*
X136118305Y-43490500D01*
X136050184Y-43470498D01*
X136029210Y-43453595D01*
X135084519Y-42508904D01*
X135077468Y-42500079D01*
X135077021Y-42500459D01*
X135071203Y-42493623D01*
X135066413Y-42486031D01*
X135028527Y-42452571D01*
X135022840Y-42447225D01*
X135012211Y-42436596D01*
X135007336Y-42432942D01*
X135004548Y-42430852D01*
X134996717Y-42424476D01*
X134970193Y-42401052D01*
X134963464Y-42395109D01*
X134955336Y-42391293D01*
X134950358Y-42388023D01*
X134942535Y-42383322D01*
X134937316Y-42380465D01*
X134930135Y-42375083D01*
X134888600Y-42359512D01*
X134879299Y-42355593D01*
X134839134Y-42336736D01*
X134830267Y-42335355D01*
X134824591Y-42333620D01*
X134807741Y-42329200D01*
X134801530Y-42326872D01*
X134801943Y-42325771D01*
X134783529Y-42318627D01*
X134779643Y-42315645D01*
X134772017Y-42312486D01*
X134772015Y-42312485D01*
X134652383Y-42262932D01*
X134644754Y-42259772D01*
X134500000Y-42240715D01*
X134491812Y-42241793D01*
X134363432Y-42258694D01*
X134363430Y-42258695D01*
X134355246Y-42259772D01*
X134341461Y-42265482D01*
X134227986Y-42312485D01*
X134227984Y-42312486D01*
X134220358Y-42315645D01*
X134104526Y-42404526D01*
X134015645Y-42520358D01*
X133959772Y-42655246D01*
X133940715Y-42800000D01*
X133959772Y-42944754D01*
X133979578Y-42992570D01*
X134008239Y-43061762D01*
X134015645Y-43079642D01*
X134104526Y-43195474D01*
X134111076Y-43200500D01*
X134111079Y-43200503D01*
X134209893Y-43276326D01*
X134220357Y-43284355D01*
X134355246Y-43340228D01*
X134500000Y-43359285D01*
X134508188Y-43358207D01*
X134516446Y-43358207D01*
X134516446Y-43359574D01*
X134578061Y-43369182D01*
X134613455Y-43394070D01*
X135388596Y-44169211D01*
X135422622Y-44231523D01*
X135425501Y-44258306D01*
X135425501Y-44332622D01*
X135440873Y-44429684D01*
X135445376Y-44438521D01*
X135445376Y-44438522D01*
X135454140Y-44455723D01*
X135500482Y-44546674D01*
X135564713Y-44610905D01*
X135598739Y-44673217D01*
X135593674Y-44744032D01*
X135564713Y-44789095D01*
X135500482Y-44853326D01*
X135440873Y-44970316D01*
X135425500Y-45067377D01*
X135425501Y-45527622D01*
X135426276Y-45532515D01*
X135438794Y-45611555D01*
X135440873Y-45624684D01*
X135500482Y-45741674D01*
X135508034Y-45749226D01*
X135508688Y-45750329D01*
X135513321Y-45756706D01*
X135512724Y-45757140D01*
X135533250Y-45791776D01*
X135535041Y-45790962D01*
X135535041Y-45790963D01*
X135553404Y-45831349D01*
X135557210Y-45840701D01*
X135569223Y-45873979D01*
X135569225Y-45873983D01*
X135572273Y-45882426D01*
X135577572Y-45889679D01*
X135580363Y-45894928D01*
X135584968Y-45902810D01*
X135588174Y-45907824D01*
X135591890Y-45915996D01*
X135597749Y-45922796D01*
X135597750Y-45922797D01*
X135620838Y-45949591D01*
X135627126Y-45957510D01*
X135634527Y-45967641D01*
X135644683Y-45977797D01*
X135651040Y-45984643D01*
X135681547Y-46020048D01*
X135689074Y-46024927D01*
X135695844Y-46030833D01*
X135695785Y-46030900D01*
X135706265Y-46039379D01*
X136562986Y-46896101D01*
X136570033Y-46904921D01*
X136570480Y-46904541D01*
X136576297Y-46911376D01*
X136581088Y-46918969D01*
X136618965Y-46952421D01*
X136624652Y-46957767D01*
X136635289Y-46968404D01*
X136638875Y-46971092D01*
X136638879Y-46971095D01*
X136642951Y-46974147D01*
X136650794Y-46980532D01*
X136666052Y-46994007D01*
X136670890Y-46998280D01*
X136676576Y-47003625D01*
X136759277Y-47086326D01*
X136816691Y-47115580D01*
X136873445Y-47144498D01*
X136871624Y-47148073D01*
X136914090Y-47177148D01*
X136941687Y-47242561D01*
X136942500Y-47256849D01*
X136942500Y-48795717D01*
X136928978Y-48841771D01*
X136922500Y-48871548D01*
X136922500Y-49903535D01*
X136926756Y-49918031D01*
X136931556Y-49918840D01*
X137069661Y-49875561D01*
X137083406Y-49869355D01*
X137208711Y-49793467D01*
X137220580Y-49784160D01*
X137322974Y-49681766D01*
X137385286Y-49647740D01*
X137451748Y-49652494D01*
X137452051Y-49651561D01*
X137455817Y-49652785D01*
X137456101Y-49652805D01*
X137456727Y-49653081D01*
X137461482Y-49654626D01*
X137470316Y-49659127D01*
X137567377Y-49674500D01*
X137641695Y-49674500D01*
X137709816Y-49694502D01*
X137730790Y-49711405D01*
X138483595Y-50464210D01*
X138517621Y-50526522D01*
X138520500Y-50553305D01*
X138520500Y-57952953D01*
X138500498Y-58021074D01*
X138475829Y-58049190D01*
X138377546Y-58132245D01*
X138373399Y-58137668D01*
X138373398Y-58137670D01*
X138268925Y-58274315D01*
X138268923Y-58274319D01*
X138264781Y-58279736D01*
X138261899Y-58285916D01*
X138261898Y-58285918D01*
X138222254Y-58370936D01*
X138186318Y-58448000D01*
X138184832Y-58454648D01*
X138184831Y-58454651D01*
X138168510Y-58527667D01*
X138145818Y-58629188D01*
X138145500Y-58634876D01*
X138145500Y-59321385D01*
X138160512Y-59459573D01*
X138219730Y-59635535D01*
X138315351Y-59794677D01*
X138320039Y-59799634D01*
X138320041Y-59799637D01*
X138393154Y-59876951D01*
X138442916Y-59929572D01*
X138596471Y-60033928D01*
X138602805Y-60036461D01*
X138602808Y-60036463D01*
X138762516Y-60100342D01*
X138762521Y-60100343D01*
X138768853Y-60102876D01*
X138775580Y-60103990D01*
X138775585Y-60103991D01*
X138945282Y-60132084D01*
X138945285Y-60132084D01*
X138952019Y-60133199D01*
X138958836Y-60132842D01*
X138958840Y-60132842D01*
X139109920Y-60124923D01*
X139137424Y-60123482D01*
X139143996Y-60121672D01*
X139144001Y-60121671D01*
X139309835Y-60075992D01*
X139316417Y-60074179D01*
X139480648Y-59987590D01*
X139622454Y-59867755D01*
X139627342Y-59861362D01*
X139731075Y-59725685D01*
X139731077Y-59725681D01*
X139735219Y-59720264D01*
X139752077Y-59684112D01*
X139810802Y-59558177D01*
X139810803Y-59558174D01*
X139813682Y-59552000D01*
X139826429Y-59494975D01*
X139853056Y-59375849D01*
X139854182Y-59370812D01*
X139854500Y-59365124D01*
X139854500Y-58678615D01*
X139839488Y-58540427D01*
X139780270Y-58364465D01*
X139684649Y-58205323D01*
X139663792Y-58183267D01*
X139606850Y-58123054D01*
X139557084Y-58070428D01*
X139534678Y-58055201D01*
X139489579Y-58000369D01*
X139479500Y-57950989D01*
X139479500Y-50370325D01*
X139480754Y-50359100D01*
X139480170Y-50359053D01*
X139480890Y-50350107D01*
X139482871Y-50341351D01*
X139479742Y-50290916D01*
X139479500Y-50283115D01*
X139479500Y-50268069D01*
X139478689Y-50262400D01*
X139478143Y-50258592D01*
X139477113Y-50248537D01*
X139474922Y-50213226D01*
X139474366Y-50204264D01*
X139471318Y-50195820D01*
X139470106Y-50189969D01*
X139467908Y-50181156D01*
X139466232Y-50175423D01*
X139464959Y-50166536D01*
X139446598Y-50126154D01*
X139442800Y-50116825D01*
X139427728Y-50075073D01*
X139422433Y-50067825D01*
X139419646Y-50062583D01*
X139415046Y-50054711D01*
X139411826Y-50049676D01*
X139408110Y-50041503D01*
X139379161Y-50007905D01*
X139372879Y-49999994D01*
X139368346Y-49993790D01*
X139368344Y-49993788D01*
X139365473Y-49989858D01*
X139355317Y-49979702D01*
X139348959Y-49972855D01*
X139324310Y-49944248D01*
X139324309Y-49944247D01*
X139318453Y-49937451D01*
X139310926Y-49932572D01*
X139304156Y-49926666D01*
X139304215Y-49926599D01*
X139293734Y-49918119D01*
X138446404Y-49070789D01*
X138412378Y-49008477D01*
X138409499Y-48981694D01*
X138409499Y-48907378D01*
X138405640Y-48883012D01*
X138395679Y-48820114D01*
X138395678Y-48820112D01*
X138394127Y-48810316D01*
X138387379Y-48797071D01*
X138339018Y-48702158D01*
X138334518Y-48693326D01*
X138313905Y-48672713D01*
X138279879Y-48610401D01*
X138277000Y-48583618D01*
X138277000Y-48489310D01*
X138297002Y-48421189D01*
X138302854Y-48413927D01*
X138302583Y-48413730D01*
X138308410Y-48405710D01*
X138315422Y-48398698D01*
X138374312Y-48283120D01*
X138389500Y-48187226D01*
X138389500Y-47812774D01*
X138374312Y-47716880D01*
X138315422Y-47601302D01*
X138283905Y-47569785D01*
X138249879Y-47507473D01*
X138247000Y-47480690D01*
X138247000Y-47285500D01*
X138267002Y-47217379D01*
X138320658Y-47170886D01*
X138373000Y-47159500D01*
X138681834Y-47159500D01*
X138776555Y-47144498D01*
X138890723Y-47086326D01*
X138981326Y-46995723D01*
X139021503Y-46916871D01*
X141311821Y-46916871D01*
X141339106Y-47010787D01*
X141345353Y-47025223D01*
X141421911Y-47154678D01*
X141431551Y-47167104D01*
X141537896Y-47273449D01*
X141550322Y-47283089D01*
X141679779Y-47359648D01*
X141694210Y-47365893D01*
X141840065Y-47408269D01*
X141852667Y-47410570D01*
X141881084Y-47412807D01*
X141886014Y-47413000D01*
X142456885Y-47413000D01*
X142472124Y-47408525D01*
X142473329Y-47407135D01*
X142475000Y-47399452D01*
X142475000Y-47394884D01*
X143075000Y-47394884D01*
X143079475Y-47410123D01*
X143080865Y-47411328D01*
X143088548Y-47412999D01*
X143663984Y-47412999D01*
X143668920Y-47412805D01*
X143697336Y-47410570D01*
X143709931Y-47408270D01*
X143855790Y-47365893D01*
X143870221Y-47359648D01*
X143932797Y-47322641D01*
X144001613Y-47305182D01*
X144062208Y-47323319D01*
X144163667Y-47384765D01*
X144177411Y-47390971D01*
X144272713Y-47420837D01*
X144286813Y-47421092D01*
X144290000Y-47414435D01*
X144290000Y-47408139D01*
X144910000Y-47408139D01*
X144913973Y-47421670D01*
X144921277Y-47422720D01*
X145022589Y-47390971D01*
X145036335Y-47384764D01*
X145065020Y-47367392D01*
X145133649Y-47349213D01*
X145195563Y-47367393D01*
X145256591Y-47404353D01*
X145270339Y-47410561D01*
X145362713Y-47439509D01*
X145376813Y-47439764D01*
X145380000Y-47433107D01*
X145380000Y-47426811D01*
X146020000Y-47426811D01*
X146023973Y-47440342D01*
X146031277Y-47441392D01*
X146129661Y-47410561D01*
X146143406Y-47404355D01*
X146268711Y-47328467D01*
X146280580Y-47319160D01*
X146384160Y-47215580D01*
X146393467Y-47203711D01*
X146469355Y-47078406D01*
X146475561Y-47064661D01*
X146518448Y-46927806D01*
X146517072Y-46920703D01*
X146505094Y-46917500D01*
X146038115Y-46917500D01*
X146022876Y-46921975D01*
X146021671Y-46923365D01*
X146020000Y-46931048D01*
X146020000Y-47426811D01*
X145380000Y-47426811D01*
X145380000Y-46935615D01*
X145375525Y-46920376D01*
X145374135Y-46919171D01*
X145366452Y-46917500D01*
X144928115Y-46917500D01*
X144912876Y-46921975D01*
X144911671Y-46923365D01*
X144910000Y-46931048D01*
X144910000Y-47408139D01*
X144290000Y-47408139D01*
X144290000Y-46923115D01*
X144285525Y-46907876D01*
X144284135Y-46906671D01*
X144276452Y-46905000D01*
X143093115Y-46905000D01*
X143077876Y-46909475D01*
X143076671Y-46910865D01*
X143075000Y-46918548D01*
X143075000Y-47394884D01*
X142475000Y-47394884D01*
X142475000Y-46923115D01*
X142470525Y-46907876D01*
X142469135Y-46906671D01*
X142461452Y-46905000D01*
X141326487Y-46905000D01*
X141312956Y-46908973D01*
X141311821Y-46916871D01*
X139021503Y-46916871D01*
X139039498Y-46881555D01*
X139054500Y-46786834D01*
X139054500Y-46423166D01*
X139039498Y-46328445D01*
X139018689Y-46287605D01*
X141313426Y-46287605D01*
X141313466Y-46301705D01*
X141320736Y-46305000D01*
X143723885Y-46305000D01*
X143739711Y-46300353D01*
X143798449Y-46262604D01*
X143833948Y-46257500D01*
X145395717Y-46257500D01*
X145441771Y-46271022D01*
X145471548Y-46277500D01*
X146503535Y-46277500D01*
X146518774Y-46273025D01*
X146520037Y-46271567D01*
X146548450Y-46213148D01*
X146609090Y-46176226D01*
X146680066Y-46177949D01*
X146730738Y-46208853D01*
X150483595Y-49961710D01*
X150517621Y-50024022D01*
X150520500Y-50050805D01*
X150520500Y-57952953D01*
X150500498Y-58021074D01*
X150475829Y-58049190D01*
X150377546Y-58132245D01*
X150373399Y-58137668D01*
X150373398Y-58137670D01*
X150268925Y-58274315D01*
X150268923Y-58274319D01*
X150264781Y-58279736D01*
X150261899Y-58285916D01*
X150261898Y-58285918D01*
X150222254Y-58370936D01*
X150186318Y-58448000D01*
X150184832Y-58454648D01*
X150184831Y-58454651D01*
X150168510Y-58527667D01*
X150145818Y-58629188D01*
X150145500Y-58634876D01*
X150145500Y-59321385D01*
X150160512Y-59459573D01*
X150219730Y-59635535D01*
X150315351Y-59794677D01*
X150320039Y-59799634D01*
X150320041Y-59799637D01*
X150393154Y-59876951D01*
X150442916Y-59929572D01*
X150596471Y-60033928D01*
X150602805Y-60036461D01*
X150602808Y-60036463D01*
X150762516Y-60100342D01*
X150762521Y-60100343D01*
X150768853Y-60102876D01*
X150775580Y-60103990D01*
X150775585Y-60103991D01*
X150945282Y-60132084D01*
X150945285Y-60132084D01*
X150952019Y-60133199D01*
X150958836Y-60132842D01*
X150958840Y-60132842D01*
X151109920Y-60124923D01*
X151137424Y-60123482D01*
X151143996Y-60121672D01*
X151144001Y-60121671D01*
X151309835Y-60075992D01*
X151316417Y-60074179D01*
X151480648Y-59987590D01*
X151622454Y-59867755D01*
X151627342Y-59861362D01*
X151731075Y-59725685D01*
X151731077Y-59725681D01*
X151735219Y-59720264D01*
X151752077Y-59684112D01*
X151810802Y-59558177D01*
X151810803Y-59558174D01*
X151813682Y-59552000D01*
X151826429Y-59494975D01*
X151853056Y-59375849D01*
X151854182Y-59370812D01*
X151854500Y-59365124D01*
X151854500Y-59042186D01*
X157641018Y-59042186D01*
X157666579Y-59310100D01*
X157667664Y-59314534D01*
X157667665Y-59314540D01*
X157729461Y-59567080D01*
X157730547Y-59571518D01*
X157831583Y-59820963D01*
X157967569Y-60053210D01*
X158135658Y-60263395D01*
X158332327Y-60447113D01*
X158553457Y-60600516D01*
X158794416Y-60720391D01*
X158798750Y-60721812D01*
X158798753Y-60721813D01*
X159045823Y-60802807D01*
X159045829Y-60802808D01*
X159050156Y-60804227D01*
X159054647Y-60805007D01*
X159054648Y-60805007D01*
X159311538Y-60849611D01*
X159311546Y-60849612D01*
X159315319Y-60850267D01*
X159319156Y-60850458D01*
X159398777Y-60854422D01*
X159398785Y-60854422D01*
X159400348Y-60854500D01*
X159568374Y-60854500D01*
X159570642Y-60854335D01*
X159570654Y-60854335D01*
X159701457Y-60844844D01*
X159768425Y-60839985D01*
X159772880Y-60839001D01*
X159772883Y-60839001D01*
X160026770Y-60782947D01*
X160026772Y-60782946D01*
X160031226Y-60781963D01*
X160282900Y-60686613D01*
X160518172Y-60555931D01*
X160612955Y-60483595D01*
X160728491Y-60395421D01*
X160728495Y-60395417D01*
X160732116Y-60392654D01*
X160920249Y-60200203D01*
X160975833Y-60123839D01*
X161075942Y-59986304D01*
X161075947Y-59986297D01*
X161078630Y-59982610D01*
X161203941Y-59744433D01*
X161293557Y-59490662D01*
X161327595Y-59317968D01*
X161344720Y-59231083D01*
X161344721Y-59231077D01*
X161345601Y-59226611D01*
X161345828Y-59222055D01*
X161358755Y-58962383D01*
X161358755Y-58962377D01*
X161358982Y-58957814D01*
X161333421Y-58689900D01*
X161329829Y-58675218D01*
X161270539Y-58432920D01*
X161269453Y-58428482D01*
X161168417Y-58179037D01*
X161055647Y-57986440D01*
X161034741Y-57950735D01*
X161034740Y-57950734D01*
X161032431Y-57946790D01*
X160889350Y-57767876D01*
X160867194Y-57740171D01*
X160867193Y-57740169D01*
X160864342Y-57736605D01*
X160667673Y-57552887D01*
X160446543Y-57399484D01*
X160205584Y-57279609D01*
X160201250Y-57278188D01*
X160201247Y-57278187D01*
X159954177Y-57197193D01*
X159954171Y-57197192D01*
X159949844Y-57195773D01*
X159945352Y-57194993D01*
X159688462Y-57150389D01*
X159688454Y-57150388D01*
X159684681Y-57149733D01*
X159674718Y-57149237D01*
X159601223Y-57145578D01*
X159601215Y-57145578D01*
X159599652Y-57145500D01*
X159431626Y-57145500D01*
X159429358Y-57145665D01*
X159429346Y-57145665D01*
X159298543Y-57155156D01*
X159231575Y-57160015D01*
X159227120Y-57160999D01*
X159227117Y-57160999D01*
X158973230Y-57217053D01*
X158973228Y-57217054D01*
X158968774Y-57218037D01*
X158717100Y-57313387D01*
X158713114Y-57315601D01*
X158713112Y-57315602D01*
X158528102Y-57418366D01*
X158481828Y-57444069D01*
X158478196Y-57446841D01*
X158271509Y-57604579D01*
X158271505Y-57604583D01*
X158267884Y-57607346D01*
X158079751Y-57799797D01*
X158055007Y-57833792D01*
X157924058Y-58013696D01*
X157924053Y-58013703D01*
X157921370Y-58017390D01*
X157796059Y-58255567D01*
X157706443Y-58509338D01*
X157698978Y-58547212D01*
X157657509Y-58757611D01*
X157654399Y-58773389D01*
X157654172Y-58777942D01*
X157654172Y-58777945D01*
X157641753Y-59027431D01*
X157641018Y-59042186D01*
X151854500Y-59042186D01*
X151854500Y-58678615D01*
X151839488Y-58540427D01*
X151780270Y-58364465D01*
X151684649Y-58205323D01*
X151663792Y-58183267D01*
X151606850Y-58123054D01*
X151557084Y-58070428D01*
X151534678Y-58055201D01*
X151489579Y-58000369D01*
X151479500Y-57950989D01*
X151479500Y-49867826D01*
X151480754Y-49856601D01*
X151480170Y-49856554D01*
X151480890Y-49847608D01*
X151482871Y-49838852D01*
X151479742Y-49788416D01*
X151479500Y-49780615D01*
X151479500Y-49765569D01*
X151478143Y-49756092D01*
X151477113Y-49746037D01*
X151474922Y-49710726D01*
X151474366Y-49701764D01*
X151471318Y-49693320D01*
X151470106Y-49687469D01*
X151467908Y-49678656D01*
X151466232Y-49672923D01*
X151464959Y-49664036D01*
X151446598Y-49623654D01*
X151442800Y-49614325D01*
X151427728Y-49572573D01*
X151422433Y-49565325D01*
X151419646Y-49560083D01*
X151415046Y-49552211D01*
X151411826Y-49547176D01*
X151408110Y-49539003D01*
X151379161Y-49505405D01*
X151372879Y-49497494D01*
X151368346Y-49491290D01*
X151368344Y-49491288D01*
X151365473Y-49487358D01*
X151355317Y-49477202D01*
X151348959Y-49470355D01*
X151324310Y-49441748D01*
X151324309Y-49441747D01*
X151318453Y-49434951D01*
X151310926Y-49430072D01*
X151304156Y-49424166D01*
X151304215Y-49424099D01*
X151293734Y-49415619D01*
X146944905Y-45066790D01*
X146944362Y-45066244D01*
X146899197Y-45020524D01*
X146892887Y-45014136D01*
X146868933Y-45000831D01*
X146854553Y-44991510D01*
X146852773Y-44990176D01*
X146832635Y-44975083D01*
X146810461Y-44966770D01*
X146793517Y-44958941D01*
X146780665Y-44951802D01*
X146780664Y-44951801D01*
X146772815Y-44947442D01*
X146746085Y-44941394D01*
X146739597Y-44939453D01*
X146739134Y-44939236D01*
X146738584Y-44939150D01*
X146729678Y-44936487D01*
X146704025Y-44926870D01*
X146680418Y-44925116D01*
X146661950Y-44922356D01*
X146638852Y-44917129D01*
X146611510Y-44918825D01*
X146594373Y-44918721D01*
X146592260Y-44918564D01*
X146567052Y-44916691D01*
X146550500Y-44920224D01*
X146524198Y-44923000D01*
X146216382Y-44923000D01*
X146148261Y-44902998D01*
X146127287Y-44886095D01*
X146106674Y-44865482D01*
X145989684Y-44805873D01*
X145979895Y-44804322D01*
X145979893Y-44804322D01*
X145952120Y-44799923D01*
X145892623Y-44790500D01*
X145700039Y-44790500D01*
X145507378Y-44790501D01*
X145483012Y-44794360D01*
X145420114Y-44804321D01*
X145420112Y-44804322D01*
X145410316Y-44805873D01*
X145401479Y-44810376D01*
X145401478Y-44810376D01*
X145387779Y-44817356D01*
X145293326Y-44865482D01*
X145286315Y-44872493D01*
X145279563Y-44877399D01*
X145212696Y-44901259D01*
X145143544Y-44885180D01*
X145094063Y-44834268D01*
X145079500Y-44775465D01*
X145079500Y-44507527D01*
X145098553Y-44442639D01*
X145099518Y-44441674D01*
X145159127Y-44324684D01*
X145174500Y-44227623D01*
X145174499Y-43767378D01*
X145159127Y-43670316D01*
X145099518Y-43553326D01*
X145040787Y-43494595D01*
X145006761Y-43432283D01*
X145011826Y-43361468D01*
X145054373Y-43304632D01*
X145120893Y-43279821D01*
X145129882Y-43279500D01*
X146183573Y-43279500D01*
X146231790Y-43289091D01*
X146355246Y-43340228D01*
X146500000Y-43359285D01*
X146508188Y-43358207D01*
X146636566Y-43341306D01*
X146644754Y-43340228D01*
X146779643Y-43284355D01*
X146790107Y-43276326D01*
X146888921Y-43200503D01*
X146888924Y-43200500D01*
X146895474Y-43195474D01*
X146984355Y-43079642D01*
X146991762Y-43061762D01*
X147020422Y-42992570D01*
X147040228Y-42944754D01*
X147059285Y-42800000D01*
X147040228Y-42655246D01*
X146984355Y-42520358D01*
X146915675Y-42430852D01*
X146900501Y-42411077D01*
X146900500Y-42411076D01*
X146895474Y-42404526D01*
X146888924Y-42399500D01*
X146888921Y-42399497D01*
X146786196Y-42320673D01*
X146786194Y-42320672D01*
X146779643Y-42315645D01*
X146644754Y-42259772D01*
X146500000Y-42240715D01*
X146491812Y-42241793D01*
X146363432Y-42258694D01*
X146363430Y-42258695D01*
X146355246Y-42259772D01*
X146235756Y-42309267D01*
X146231792Y-42310909D01*
X146183573Y-42320500D01*
X145113882Y-42320500D01*
X145045761Y-42300498D01*
X145024787Y-42283595D01*
X145006674Y-42265482D01*
X144889684Y-42205873D01*
X144879895Y-42204322D01*
X144879893Y-42204322D01*
X144852120Y-42199923D01*
X144792623Y-42190500D01*
X144600039Y-42190500D01*
X144407378Y-42190501D01*
X144383012Y-42194360D01*
X144320114Y-42204321D01*
X144320112Y-42204322D01*
X144310316Y-42205873D01*
X144301479Y-42210376D01*
X144301478Y-42210376D01*
X144275038Y-42223848D01*
X144193326Y-42265482D01*
X144172713Y-42286095D01*
X144110401Y-42320121D01*
X144083618Y-42323000D01*
X143889277Y-42323000D01*
X143832074Y-42309267D01*
X143790702Y-42288187D01*
X143726555Y-42255502D01*
X143631834Y-42240500D01*
X141918166Y-42240500D01*
X141823445Y-42255502D01*
X141709277Y-42313674D01*
X141618674Y-42404277D01*
X141560502Y-42518445D01*
X141545500Y-42613166D01*
X141545500Y-42976834D01*
X141560502Y-43071555D01*
X141618674Y-43185723D01*
X141709277Y-43276326D01*
X141784687Y-43314750D01*
X141790542Y-43317733D01*
X141842157Y-43366482D01*
X141859223Y-43435397D01*
X141836322Y-43502598D01*
X141790542Y-43542267D01*
X141709277Y-43583674D01*
X141618674Y-43674277D01*
X141560502Y-43788445D01*
X141545500Y-43883166D01*
X141545500Y-44246834D01*
X141560502Y-44341555D01*
X141618674Y-44455723D01*
X141709277Y-44546326D01*
X141757190Y-44570739D01*
X141790542Y-44587733D01*
X141842157Y-44636482D01*
X141859223Y-44705397D01*
X141836322Y-44772598D01*
X141790542Y-44812267D01*
X141709277Y-44853674D01*
X141618674Y-44944277D01*
X141560502Y-45058445D01*
X141545500Y-45153166D01*
X141545500Y-45516834D01*
X141560502Y-45611555D01*
X141618674Y-45725723D01*
X141621442Y-45728491D01*
X141644180Y-45792217D01*
X141628101Y-45861369D01*
X141582525Y-45907867D01*
X141550323Y-45926911D01*
X141537896Y-45936551D01*
X141431551Y-46042896D01*
X141421911Y-46055322D01*
X141345353Y-46184777D01*
X141339106Y-46199213D01*
X141313426Y-46287605D01*
X139018689Y-46287605D01*
X138981326Y-46214277D01*
X138890723Y-46123674D01*
X138809458Y-46082267D01*
X138757843Y-46033518D01*
X138740777Y-45964603D01*
X138763678Y-45897402D01*
X138809458Y-45857733D01*
X138815313Y-45854750D01*
X138890723Y-45816326D01*
X138981326Y-45725723D01*
X139039498Y-45611555D01*
X139054500Y-45516834D01*
X139054500Y-45153166D01*
X139039498Y-45058445D01*
X138981326Y-44944277D01*
X138890723Y-44853674D01*
X138809458Y-44812267D01*
X138757843Y-44763518D01*
X138740777Y-44694603D01*
X138763678Y-44627402D01*
X138809458Y-44587733D01*
X138842810Y-44570739D01*
X138890723Y-44546326D01*
X138981326Y-44455723D01*
X139039498Y-44341555D01*
X139054500Y-44246834D01*
X139054500Y-43883166D01*
X139039498Y-43788445D01*
X138981326Y-43674277D01*
X138890723Y-43583674D01*
X138809458Y-43542267D01*
X138757843Y-43493518D01*
X138740777Y-43424603D01*
X138763678Y-43357402D01*
X138809458Y-43317733D01*
X138815313Y-43314750D01*
X138890723Y-43276326D01*
X138981326Y-43185723D01*
X139039498Y-43071555D01*
X139054500Y-42976834D01*
X139054500Y-42613166D01*
X139039498Y-42518445D01*
X138981326Y-42404277D01*
X138947352Y-42370303D01*
X138913326Y-42307991D01*
X138918391Y-42237176D01*
X138960938Y-42180340D01*
X139027458Y-42155529D01*
X139079800Y-42164856D01*
X139080162Y-42163699D01*
X139226912Y-42209687D01*
X139239593Y-42212227D01*
X139254335Y-42209331D01*
X139257500Y-42197437D01*
X139257500Y-42195796D01*
X139877500Y-42195796D01*
X139881771Y-42210341D01*
X139893904Y-42212403D01*
X139895054Y-42212298D01*
X139908088Y-42209687D01*
X140047589Y-42165971D01*
X140061334Y-42159765D01*
X140185604Y-42084504D01*
X140197473Y-42075197D01*
X140300197Y-41972473D01*
X140309504Y-41960604D01*
X140384765Y-41836334D01*
X140390971Y-41822589D01*
X140420837Y-41727287D01*
X140421092Y-41713187D01*
X140414435Y-41710000D01*
X139895615Y-41710000D01*
X139880376Y-41714475D01*
X139879171Y-41715865D01*
X139877500Y-41723548D01*
X139877500Y-42195796D01*
X139257500Y-42195796D01*
X139257500Y-41071885D01*
X139877500Y-41071885D01*
X139881975Y-41087124D01*
X139883365Y-41088329D01*
X139891048Y-41090000D01*
X140408139Y-41090000D01*
X140421670Y-41086027D01*
X140422720Y-41078723D01*
X140390971Y-40977411D01*
X140384765Y-40963666D01*
X140309504Y-40839396D01*
X140300197Y-40827527D01*
X140197473Y-40724803D01*
X140185604Y-40715496D01*
X140061334Y-40640235D01*
X140047589Y-40634029D01*
X139908088Y-40590313D01*
X139895407Y-40587773D01*
X139880665Y-40590669D01*
X139877500Y-40602563D01*
X139877500Y-41071885D01*
X139257500Y-41071885D01*
X139257500Y-40604204D01*
X139253229Y-40589659D01*
X139241096Y-40587597D01*
X139239946Y-40587702D01*
X139226912Y-40590313D01*
X139087411Y-40634029D01*
X139073666Y-40640235D01*
X138949396Y-40715496D01*
X138937527Y-40724803D01*
X138851772Y-40810558D01*
X138789460Y-40844584D01*
X138742967Y-40845912D01*
X138705543Y-40839985D01*
X138677226Y-40835500D01*
X138598305Y-40835500D01*
X138530184Y-40815498D01*
X138509210Y-40798595D01*
X138084999Y-40374384D01*
X138077948Y-40365559D01*
X138077501Y-40365939D01*
X138071683Y-40359103D01*
X138066893Y-40351511D01*
X138029007Y-40318051D01*
X138023320Y-40312705D01*
X138012691Y-40302076D01*
X138006095Y-40297132D01*
X138005028Y-40296332D01*
X137997197Y-40289956D01*
X137970673Y-40266532D01*
X137963944Y-40260589D01*
X137955816Y-40256773D01*
X137950838Y-40253503D01*
X137943015Y-40248802D01*
X137937796Y-40245945D01*
X137930615Y-40240563D01*
X137889080Y-40224992D01*
X137879779Y-40221073D01*
X137839614Y-40202216D01*
X137830747Y-40200835D01*
X137825071Y-40199100D01*
X137816194Y-40196772D01*
X137810408Y-40195500D01*
X137802005Y-40192350D01*
X137777893Y-40190558D01*
X137757780Y-40189063D01*
X137747743Y-40187912D01*
X137735337Y-40185980D01*
X137720970Y-40185980D01*
X137711632Y-40185634D01*
X137665032Y-40182171D01*
X137656256Y-40184044D01*
X137647299Y-40184655D01*
X137647293Y-40184565D01*
X137633889Y-40185980D01*
X114533305Y-40185980D01*
X114522080Y-40184726D01*
X114522033Y-40185310D01*
X114513087Y-40184590D01*
X114504331Y-40182609D01*
X114455573Y-40185634D01*
X114453897Y-40185738D01*
X114446095Y-40185980D01*
X110002340Y-40185980D01*
X109991120Y-40184726D01*
X109991073Y-40185311D01*
X109982128Y-40184591D01*
X109973371Y-40182610D01*
X109924624Y-40185634D01*
X109922947Y-40185738D01*
X109915146Y-40185980D01*
X109900089Y-40185980D01*
X109890602Y-40187339D01*
X109880545Y-40188369D01*
X109836284Y-40191114D01*
X109827835Y-40194164D01*
X109821985Y-40195376D01*
X109813168Y-40197574D01*
X109807441Y-40199249D01*
X109798556Y-40200521D01*
X109758170Y-40218884D01*
X109748818Y-40222690D01*
X109715540Y-40234703D01*
X109715536Y-40234705D01*
X109707093Y-40237753D01*
X109699840Y-40243052D01*
X109694591Y-40245843D01*
X109686709Y-40250448D01*
X109681695Y-40253654D01*
X109673523Y-40257370D01*
X109666723Y-40263229D01*
X109666722Y-40263230D01*
X109639928Y-40286318D01*
X109632009Y-40292606D01*
X109629044Y-40294772D01*
X109625813Y-40297132D01*
X109625809Y-40297135D01*
X109621878Y-40300007D01*
X109611722Y-40310163D01*
X109604876Y-40316520D01*
X109569471Y-40347027D01*
X109564592Y-40354554D01*
X109558686Y-40361324D01*
X109558619Y-40361265D01*
X109550139Y-40371746D01*
X108071404Y-41850481D01*
X108062579Y-41857532D01*
X108062959Y-41857979D01*
X108056123Y-41863797D01*
X108048531Y-41868587D01*
X108042588Y-41875316D01*
X108015071Y-41906473D01*
X108009725Y-41912160D01*
X107999096Y-41922789D01*
X107996407Y-41926377D01*
X107993352Y-41930452D01*
X107986976Y-41938283D01*
X107978660Y-41947700D01*
X107957609Y-41971536D01*
X107953793Y-41979664D01*
X107950523Y-41984642D01*
X107945822Y-41992465D01*
X107942965Y-41997684D01*
X107937583Y-42004865D01*
X107934433Y-42013268D01*
X107922014Y-42046396D01*
X107918093Y-42055701D01*
X107899236Y-42095866D01*
X107897855Y-42104733D01*
X107896120Y-42110409D01*
X107893792Y-42119286D01*
X107892520Y-42125072D01*
X107889370Y-42133475D01*
X107888705Y-42142425D01*
X107886083Y-42177700D01*
X107884932Y-42187737D01*
X107883000Y-42200143D01*
X107883000Y-42214510D01*
X107882654Y-42223848D01*
X107879191Y-42270448D01*
X107881064Y-42279224D01*
X107881675Y-42288181D01*
X107881585Y-42288187D01*
X107883000Y-42301591D01*
X107883000Y-48901183D01*
X107862998Y-48969304D01*
X107809342Y-49015797D01*
X107739068Y-49025901D01*
X107674488Y-48996407D01*
X107665003Y-48986868D01*
X107664993Y-48986878D01*
X107654837Y-48976722D01*
X107648479Y-48969875D01*
X107623830Y-48941268D01*
X107623829Y-48941267D01*
X107617973Y-48934471D01*
X107610446Y-48929592D01*
X107603676Y-48923686D01*
X107603735Y-48923619D01*
X107593254Y-48915139D01*
X107166331Y-48488216D01*
X107132305Y-48425904D01*
X107130048Y-48397756D01*
X107129500Y-48397756D01*
X107129500Y-47602244D01*
X107122798Y-47540552D01*
X107072071Y-47405236D01*
X107066691Y-47398057D01*
X107066689Y-47398054D01*
X106990785Y-47296776D01*
X106985404Y-47289596D01*
X106958310Y-47269290D01*
X106876946Y-47208311D01*
X106876943Y-47208309D01*
X106869764Y-47202929D01*
X106753916Y-47159500D01*
X106741843Y-47154974D01*
X106741841Y-47154974D01*
X106734448Y-47152202D01*
X106726598Y-47151349D01*
X106726597Y-47151349D01*
X106676153Y-47145869D01*
X106676152Y-47145869D01*
X106672756Y-47145500D01*
X105327244Y-47145500D01*
X105323848Y-47145869D01*
X105323847Y-47145869D01*
X105273403Y-47151349D01*
X105273402Y-47151349D01*
X105265552Y-47152202D01*
X105258159Y-47154974D01*
X105258157Y-47154974D01*
X105246084Y-47159500D01*
X105130236Y-47202929D01*
X105123057Y-47208309D01*
X105123054Y-47208311D01*
X105041690Y-47269290D01*
X105014596Y-47289596D01*
X105009215Y-47296776D01*
X104933311Y-47398054D01*
X104933309Y-47398057D01*
X104927929Y-47405236D01*
X104877202Y-47540552D01*
X104870500Y-47602244D01*
X104870500Y-48397756D01*
X104877202Y-48459448D01*
X104927929Y-48594764D01*
X104933309Y-48601943D01*
X104933311Y-48601946D01*
X104984569Y-48670339D01*
X105014596Y-48710404D01*
X105021776Y-48715785D01*
X105123054Y-48791689D01*
X105123057Y-48791691D01*
X105130236Y-48797071D01*
X105159443Y-48808020D01*
X105216207Y-48850662D01*
X105240907Y-48917224D01*
X105225699Y-48986572D01*
X105172905Y-49038018D01*
X105129022Y-49060619D01*
X105118976Y-49067069D01*
X104962143Y-49190262D01*
X104953494Y-49198499D01*
X104822788Y-49349123D01*
X104815853Y-49358847D01*
X104747894Y-49476319D01*
X104744557Y-49490020D01*
X104745832Y-49491025D01*
X104750880Y-49492000D01*
X106382000Y-49492000D01*
X106450121Y-49512002D01*
X106496614Y-49565658D01*
X106508000Y-49618000D01*
X106508000Y-50382000D01*
X106487998Y-50450121D01*
X106434342Y-50496614D01*
X106382000Y-50508000D01*
X104756929Y-50508000D01*
X104743398Y-50511973D01*
X104742731Y-50516615D01*
X100754000Y-50516615D01*
X100754000Y-39042186D01*
X102641018Y-39042186D01*
X102666579Y-39310100D01*
X102730547Y-39571518D01*
X102831583Y-39820963D01*
X102967569Y-40053210D01*
X102970422Y-40056777D01*
X103130840Y-40257370D01*
X103135658Y-40263395D01*
X103332327Y-40447113D01*
X103553457Y-40600516D01*
X103794416Y-40720391D01*
X103798750Y-40721812D01*
X103798753Y-40721813D01*
X104045823Y-40802807D01*
X104045829Y-40802808D01*
X104050156Y-40804227D01*
X104054647Y-40805007D01*
X104054648Y-40805007D01*
X104311538Y-40849611D01*
X104311546Y-40849612D01*
X104315319Y-40850267D01*
X104319156Y-40850458D01*
X104398777Y-40854422D01*
X104398785Y-40854422D01*
X104400348Y-40854500D01*
X104568374Y-40854500D01*
X104570642Y-40854335D01*
X104570654Y-40854335D01*
X104705040Y-40844584D01*
X104768425Y-40839985D01*
X104772880Y-40839001D01*
X104772883Y-40839001D01*
X105026770Y-40782947D01*
X105026772Y-40782946D01*
X105031226Y-40781963D01*
X105282900Y-40686613D01*
X105460974Y-40587702D01*
X105514179Y-40558149D01*
X105514180Y-40558148D01*
X105518172Y-40555931D01*
X105664842Y-40443996D01*
X105728491Y-40395421D01*
X105728495Y-40395417D01*
X105732116Y-40392654D01*
X105920249Y-40200203D01*
X106027242Y-40053210D01*
X106075942Y-39986304D01*
X106075947Y-39986297D01*
X106078630Y-39982610D01*
X106203941Y-39744433D01*
X106293557Y-39490662D01*
X106318688Y-39363156D01*
X106344720Y-39231083D01*
X106344721Y-39231077D01*
X106345601Y-39226611D01*
X106354782Y-39042186D01*
X157641018Y-39042186D01*
X157666579Y-39310100D01*
X157730547Y-39571518D01*
X157831583Y-39820963D01*
X157967569Y-40053210D01*
X157970422Y-40056777D01*
X158130840Y-40257370D01*
X158135658Y-40263395D01*
X158332327Y-40447113D01*
X158553457Y-40600516D01*
X158794416Y-40720391D01*
X158798750Y-40721812D01*
X158798753Y-40721813D01*
X159045823Y-40802807D01*
X159045829Y-40802808D01*
X159050156Y-40804227D01*
X159054647Y-40805007D01*
X159054648Y-40805007D01*
X159311538Y-40849611D01*
X159311546Y-40849612D01*
X159315319Y-40850267D01*
X159319156Y-40850458D01*
X159398777Y-40854422D01*
X159398785Y-40854422D01*
X159400348Y-40854500D01*
X159568374Y-40854500D01*
X159570642Y-40854335D01*
X159570654Y-40854335D01*
X159705040Y-40844584D01*
X159768425Y-40839985D01*
X159772880Y-40839001D01*
X159772883Y-40839001D01*
X160026770Y-40782947D01*
X160026772Y-40782946D01*
X160031226Y-40781963D01*
X160282900Y-40686613D01*
X160460974Y-40587702D01*
X160514179Y-40558149D01*
X160514180Y-40558148D01*
X160518172Y-40555931D01*
X160664842Y-40443996D01*
X160728491Y-40395421D01*
X160728495Y-40395417D01*
X160732116Y-40392654D01*
X160920249Y-40200203D01*
X161027242Y-40053210D01*
X161075942Y-39986304D01*
X161075947Y-39986297D01*
X161078630Y-39982610D01*
X161203941Y-39744433D01*
X161293557Y-39490662D01*
X161318688Y-39363156D01*
X161344720Y-39231083D01*
X161344721Y-39231077D01*
X161345601Y-39226611D01*
X161354782Y-39042186D01*
X161358755Y-38962383D01*
X161358755Y-38962377D01*
X161358982Y-38957814D01*
X161333421Y-38689900D01*
X161269453Y-38428482D01*
X161168417Y-38179037D01*
X161032431Y-37946790D01*
X160864342Y-37736605D01*
X160667673Y-37552887D01*
X160446543Y-37399484D01*
X160205584Y-37279609D01*
X160201250Y-37278188D01*
X160201247Y-37278187D01*
X159954177Y-37197193D01*
X159954171Y-37197192D01*
X159949844Y-37195773D01*
X159945352Y-37194993D01*
X159688462Y-37150389D01*
X159688454Y-37150388D01*
X159684681Y-37149733D01*
X159674718Y-37149237D01*
X159601223Y-37145578D01*
X159601215Y-37145578D01*
X159599652Y-37145500D01*
X159431626Y-37145500D01*
X159429358Y-37145665D01*
X159429346Y-37145665D01*
X159298543Y-37155156D01*
X159231575Y-37160015D01*
X159227120Y-37160999D01*
X159227117Y-37160999D01*
X158973230Y-37217053D01*
X158973228Y-37217054D01*
X158968774Y-37218037D01*
X158717100Y-37313387D01*
X158481828Y-37444069D01*
X158478196Y-37446841D01*
X158271509Y-37604579D01*
X158271505Y-37604583D01*
X158267884Y-37607346D01*
X158079751Y-37799797D01*
X158077066Y-37803486D01*
X157924058Y-38013696D01*
X157924053Y-38013703D01*
X157921370Y-38017390D01*
X157796059Y-38255567D01*
X157706443Y-38509338D01*
X157705560Y-38513820D01*
X157670855Y-38689900D01*
X157654399Y-38773389D01*
X157654172Y-38777942D01*
X157654172Y-38777945D01*
X157644991Y-38962383D01*
X157641018Y-39042186D01*
X106354782Y-39042186D01*
X106358755Y-38962383D01*
X106358755Y-38962377D01*
X106358982Y-38957814D01*
X106333421Y-38689900D01*
X106269453Y-38428482D01*
X106168417Y-38179037D01*
X106032431Y-37946790D01*
X105864342Y-37736605D01*
X105667673Y-37552887D01*
X105446543Y-37399484D01*
X105205584Y-37279609D01*
X105201250Y-37278188D01*
X105201247Y-37278187D01*
X104954177Y-37197193D01*
X104954171Y-37197192D01*
X104949844Y-37195773D01*
X104945352Y-37194993D01*
X104688462Y-37150389D01*
X104688454Y-37150388D01*
X104684681Y-37149733D01*
X104674718Y-37149237D01*
X104601223Y-37145578D01*
X104601215Y-37145578D01*
X104599652Y-37145500D01*
X104431626Y-37145500D01*
X104429358Y-37145665D01*
X104429346Y-37145665D01*
X104298543Y-37155156D01*
X104231575Y-37160015D01*
X104227120Y-37160999D01*
X104227117Y-37160999D01*
X103973230Y-37217053D01*
X103973228Y-37217054D01*
X103968774Y-37218037D01*
X103717100Y-37313387D01*
X103481828Y-37444069D01*
X103478196Y-37446841D01*
X103271509Y-37604579D01*
X103271505Y-37604583D01*
X103267884Y-37607346D01*
X103079751Y-37799797D01*
X103077066Y-37803486D01*
X102924058Y-38013696D01*
X102924053Y-38013703D01*
X102921370Y-38017390D01*
X102796059Y-38255567D01*
X102706443Y-38509338D01*
X102705560Y-38513820D01*
X102670855Y-38689900D01*
X102654399Y-38773389D01*
X102654172Y-38777942D01*
X102654172Y-38777945D01*
X102644991Y-38962383D01*
X102641018Y-39042186D01*
X100754000Y-39042186D01*
X100754000Y-35380000D01*
X100774002Y-35311879D01*
X100827658Y-35265386D01*
X100880000Y-35254000D01*
X163120000Y-35254000D01*
X163188121Y-35274002D01*
G37*
%TD.AperFunction*%
%TD*%
M02*
