%TF.GenerationSoftware,KiCad,Pcbnew,6.0.0*%
%TF.CreationDate,2022-01-04T21:54:10+01:00*%
%TF.ProjectId,mini_light_control,6d696e69-5f6c-4696-9768-745f636f6e74,v1.0*%
%TF.SameCoordinates,Original*%
%TF.FileFunction,Soldermask,Top*%
%TF.FilePolarity,Negative*%
%FSLAX46Y46*%
G04 Gerber Fmt 4.6, Leading zero omitted, Abs format (unit mm)*
G04 Created by KiCad (PCBNEW 6.0.0) date 2022-01-04 21:54:10*
%MOMM*%
%LPD*%
G01*
G04 APERTURE LIST*
G04 Aperture macros list*
%AMRoundRect*
0 Rectangle with rounded corners*
0 $1 Rounding radius*
0 $2 $3 $4 $5 $6 $7 $8 $9 X,Y pos of 4 corners*
0 Add a 4 corners polygon primitive as box body*
4,1,4,$2,$3,$4,$5,$6,$7,$8,$9,$2,$3,0*
0 Add four circle primitives for the rounded corners*
1,1,$1+$1,$2,$3*
1,1,$1+$1,$4,$5*
1,1,$1+$1,$6,$7*
1,1,$1+$1,$8,$9*
0 Add four rect primitives between the rounded corners*
20,1,$1+$1,$2,$3,$4,$5,0*
20,1,$1+$1,$4,$5,$6,$7,0*
20,1,$1+$1,$6,$7,$8,$9,0*
20,1,$1+$1,$8,$9,$2,$3,0*%
G04 Aperture macros list end*
%ADD10RoundRect,0.250000X1.500000X0.550000X-1.500000X0.550000X-1.500000X-0.550000X1.500000X-0.550000X0*%
%ADD11RoundRect,0.250000X-0.350000X-0.625000X0.350000X-0.625000X0.350000X0.625000X-0.350000X0.625000X0*%
%ADD12O,1.200000X1.750000*%
%ADD13C,3.200000*%
%ADD14RoundRect,0.250000X0.250000X1.500000X-0.250000X1.500000X-0.250000X-1.500000X0.250000X-1.500000X0*%
%ADD15RoundRect,0.250001X0.499999X1.449999X-0.499999X1.449999X-0.499999X-1.449999X0.499999X-1.449999X0*%
%ADD16O,1.750000X1.200000*%
%ADD17RoundRect,0.250000X-0.625000X0.350000X-0.625000X-0.350000X0.625000X-0.350000X0.625000X0.350000X0*%
G04 APERTURE END LIST*
D10*
%TO.C,C12*%
X141700000Y-49000000D03*
X136300000Y-49000000D03*
%TD*%
%TO.C,C13*%
X153700000Y-49000000D03*
X148300000Y-49000000D03*
%TD*%
D11*
%TO.C,J7*%
X149000000Y-59000000D03*
D12*
X151000000Y-59000000D03*
%TD*%
D13*
%TO.C,H1*%
X159500000Y-59000000D03*
%TD*%
%TO.C,H4*%
X159500000Y-39000000D03*
%TD*%
D11*
%TO.C,J3*%
X124968000Y-59000000D03*
D12*
X126968000Y-59000000D03*
%TD*%
D10*
%TO.C,C7*%
X129700000Y-49000000D03*
X124300000Y-49000000D03*
%TD*%
D13*
%TO.C,H3*%
X104500000Y-39000000D03*
%TD*%
D14*
%TO.C,J4*%
X116000000Y-42850000D03*
X114000000Y-42850000D03*
X112000000Y-42850000D03*
D15*
X109650000Y-37100000D03*
X118350000Y-37100000D03*
%TD*%
D11*
%TO.C,J6*%
X137000000Y-59000000D03*
D12*
X139000000Y-59000000D03*
%TD*%
D11*
%TO.C,J2*%
X113046000Y-59000000D03*
D12*
X115046000Y-59000000D03*
%TD*%
D10*
%TO.C,C6*%
X117700000Y-49000000D03*
X112300000Y-49000000D03*
%TD*%
D14*
%TO.C,J8*%
X140000000Y-42850000D03*
X138000000Y-42850000D03*
X136000000Y-42850000D03*
D15*
X133650000Y-37100000D03*
X142350000Y-37100000D03*
%TD*%
D13*
%TO.C,H2*%
X104500000Y-59000000D03*
%TD*%
D16*
%TO.C,J1*%
X106000000Y-50000000D03*
D17*
X106000000Y-48000000D03*
%TD*%
D14*
%TO.C,J9*%
X152000000Y-42850000D03*
X150000000Y-42850000D03*
X148000000Y-42850000D03*
D15*
X154350000Y-37100000D03*
X145650000Y-37100000D03*
%TD*%
D14*
%TO.C,J5*%
X128000000Y-42850000D03*
X126000000Y-42850000D03*
X124000000Y-42850000D03*
D15*
X130350000Y-37100000D03*
X121650000Y-37100000D03*
%TD*%
M02*
