%TF.GenerationSoftware,KiCad,Pcbnew,(5.99.0-12650-g5c402a64ab)*%
%TF.CreationDate,2021-10-10T22:09:24+02:00*%
%TF.ProjectId,mini_light_control,6d696e69-5f6c-4696-9768-745f636f6e74,v1.0*%
%TF.SameCoordinates,Original*%
%TF.FileFunction,Copper,L2,Bot*%
%TF.FilePolarity,Positive*%
%FSLAX46Y46*%
G04 Gerber Fmt 4.6, Leading zero omitted, Abs format (unit mm)*
G04 Created by KiCad (PCBNEW (5.99.0-12650-g5c402a64ab)) date 2021-10-10 22:09:24*
%MOMM*%
%LPD*%
G01*
G04 APERTURE LIST*
G04 Aperture macros list*
%AMRoundRect*
0 Rectangle with rounded corners*
0 $1 Rounding radius*
0 $2 $3 $4 $5 $6 $7 $8 $9 X,Y pos of 4 corners*
0 Add a 4 corners polygon primitive as box body*
4,1,4,$2,$3,$4,$5,$6,$7,$8,$9,$2,$3,0*
0 Add four circle primitives for the rounded corners*
1,1,$1+$1,$2,$3*
1,1,$1+$1,$4,$5*
1,1,$1+$1,$6,$7*
1,1,$1+$1,$8,$9*
0 Add four rect primitives between the rounded corners*
20,1,$1+$1,$2,$3,$4,$5,0*
20,1,$1+$1,$4,$5,$6,$7,0*
20,1,$1+$1,$6,$7,$8,$9,0*
20,1,$1+$1,$8,$9,$2,$3,0*%
G04 Aperture macros list end*
%TA.AperFunction,ComponentPad*%
%ADD10RoundRect,0.250000X0.350000X0.625000X-0.350000X0.625000X-0.350000X-0.625000X0.350000X-0.625000X0*%
%TD*%
%TA.AperFunction,ComponentPad*%
%ADD11O,1.200000X1.750000*%
%TD*%
%TA.AperFunction,ComponentPad*%
%ADD12RoundRect,0.250000X0.625000X-0.350000X0.625000X0.350000X-0.625000X0.350000X-0.625000X-0.350000X0*%
%TD*%
%TA.AperFunction,ComponentPad*%
%ADD13O,1.750000X1.200000*%
%TD*%
%TA.AperFunction,SMDPad,CuDef*%
%ADD14RoundRect,0.150000X0.825000X0.150000X-0.825000X0.150000X-0.825000X-0.150000X0.825000X-0.150000X0*%
%TD*%
%TA.AperFunction,SMDPad,CuDef*%
%ADD15RoundRect,0.160000X0.160000X-0.197500X0.160000X0.197500X-0.160000X0.197500X-0.160000X-0.197500X0*%
%TD*%
%TA.AperFunction,SMDPad,CuDef*%
%ADD16RoundRect,0.160000X-0.160000X0.197500X-0.160000X-0.197500X0.160000X-0.197500X0.160000X0.197500X0*%
%TD*%
%TA.AperFunction,SMDPad,CuDef*%
%ADD17RoundRect,0.160000X-0.197500X-0.160000X0.197500X-0.160000X0.197500X0.160000X-0.197500X0.160000X0*%
%TD*%
%TA.AperFunction,SMDPad,CuDef*%
%ADD18RoundRect,0.155000X-0.155000X0.212500X-0.155000X-0.212500X0.155000X-0.212500X0.155000X0.212500X0*%
%TD*%
%TA.AperFunction,SMDPad,CuDef*%
%ADD19RoundRect,0.155000X-0.212500X-0.155000X0.212500X-0.155000X0.212500X0.155000X-0.212500X0.155000X0*%
%TD*%
%TA.AperFunction,SMDPad,CuDef*%
%ADD20RoundRect,0.155000X0.212500X0.155000X-0.212500X0.155000X-0.212500X-0.155000X0.212500X-0.155000X0*%
%TD*%
%TA.AperFunction,SMDPad,CuDef*%
%ADD21RoundRect,0.237500X-0.300000X-0.237500X0.300000X-0.237500X0.300000X0.237500X-0.300000X0.237500X0*%
%TD*%
%TA.AperFunction,SMDPad,CuDef*%
%ADD22RoundRect,0.150000X-0.150000X0.512500X-0.150000X-0.512500X0.150000X-0.512500X0.150000X0.512500X0*%
%TD*%
%TA.AperFunction,SMDPad,CuDef*%
%ADD23RoundRect,0.250000X-0.337500X-0.475000X0.337500X-0.475000X0.337500X0.475000X-0.337500X0.475000X0*%
%TD*%
%TA.AperFunction,SMDPad,CuDef*%
%ADD24R,1.200000X1.200000*%
%TD*%
%TA.AperFunction,ViaPad*%
%ADD25C,0.600000*%
%TD*%
%TA.AperFunction,Conductor*%
%ADD26C,0.450000*%
%TD*%
G04 APERTURE END LIST*
D10*
%TO.P,J7,1,Pin_1*%
%TO.N,Net-(C10-Pad1)*%
X151000000Y-59000000D03*
D11*
%TO.P,J7,2,Pin_2*%
%TO.N,Net-(J7-Pad2)*%
X149000000Y-59000000D03*
%TD*%
D10*
%TO.P,J3,1,Pin_1*%
%TO.N,Net-(C3-Pad1)*%
X127000000Y-59000000D03*
D11*
%TO.P,J3,2,Pin_2*%
%TO.N,Net-(J3-Pad2)*%
X125000000Y-59000000D03*
%TD*%
D10*
%TO.P,J6,1,Pin_1*%
%TO.N,Net-(C9-Pad1)*%
X139000000Y-59000000D03*
D11*
%TO.P,J6,2,Pin_2*%
%TO.N,Net-(J6-Pad2)*%
X137000000Y-59000000D03*
%TD*%
D10*
%TO.P,J2,1,Pin_1*%
%TO.N,Net-(C2-Pad1)*%
X115000000Y-59000000D03*
D11*
%TO.P,J2,2,Pin_2*%
%TO.N,Net-(J2-Pad2)*%
X113000000Y-59000000D03*
%TD*%
D12*
%TO.P,J1,1,Pin_1*%
%TO.N,+12V*%
X104450000Y-50000000D03*
D13*
%TO.P,J1,2,Pin_2*%
%TO.N,GND*%
X104450000Y-48000000D03*
%TD*%
D14*
%TO.P,U3,1*%
%TO.N,Net-(J9-Pad3)*%
X142775000Y-42795000D03*
%TO.P,U3,2,-*%
X142775000Y-44065000D03*
%TO.P,U3,3,+*%
%TO.N,Net-(C10-Pad1)*%
X142775000Y-45335000D03*
%TO.P,U3,4,V-*%
%TO.N,GND*%
X142775000Y-46605000D03*
%TO.P,U3,5,+*%
%TO.N,Net-(C9-Pad1)*%
X137825000Y-46605000D03*
%TO.P,U3,6,-*%
%TO.N,Net-(J8-Pad3)*%
X137825000Y-45335000D03*
%TO.P,U3,7*%
X137825000Y-44065000D03*
%TO.P,U3,8,V+*%
%TO.N,+12V*%
X137825000Y-42795000D03*
%TD*%
D15*
%TO.P,R4,1*%
%TO.N,GND*%
X121700000Y-46497500D03*
%TO.P,R4,2*%
%TO.N,Net-(C3-Pad1)*%
X121700000Y-45302500D03*
%TD*%
D16*
%TO.P,R1,1*%
%TO.N,Net-(J2-Pad2)*%
X111400000Y-58302500D03*
%TO.P,R1,2*%
%TO.N,+5V*%
X111400000Y-59497500D03*
%TD*%
%TO.P,R7,1*%
%TO.N,Net-(J6-Pad2)*%
X135400000Y-58302500D03*
%TO.P,R7,2*%
%TO.N,+5V*%
X135400000Y-59497500D03*
%TD*%
D17*
%TO.P,R8,1*%
%TO.N,GND*%
X136602500Y-49100000D03*
%TO.P,R8,2*%
%TO.N,Net-(C9-Pad1)*%
X137797500Y-49100000D03*
%TD*%
D15*
%TO.P,R10,1*%
%TO.N,GND*%
X145700000Y-46597500D03*
%TO.P,R10,2*%
%TO.N,Net-(C10-Pad1)*%
X145700000Y-45402500D03*
%TD*%
%TO.P,R6,1*%
%TO.N,Net-(C3-Pad1)*%
X120600000Y-43997500D03*
%TO.P,R6,2*%
%TO.N,Net-(J5-Pad3)*%
X120600000Y-42802500D03*
%TD*%
D18*
%TO.P,C10,1*%
%TO.N,Net-(C10-Pad1)*%
X144600000Y-45432500D03*
%TO.P,C10,2*%
%TO.N,GND*%
X144600000Y-46567500D03*
%TD*%
D19*
%TO.P,C11,1*%
%TO.N,+12V*%
X138432500Y-41400000D03*
%TO.P,C11,2*%
%TO.N,GND*%
X139567500Y-41400000D03*
%TD*%
D20*
%TO.P,C9,1*%
%TO.N,Net-(C9-Pad1)*%
X137767500Y-48000000D03*
%TO.P,C9,2*%
%TO.N,GND*%
X136632500Y-48000000D03*
%TD*%
D21*
%TO.P,C8,1*%
%TO.N,+5V*%
X108487502Y-56937501D03*
%TO.P,C8,2*%
%TO.N,GND*%
X110212502Y-56937501D03*
%TD*%
D18*
%TO.P,C3,1*%
%TO.N,Net-(C3-Pad1)*%
X120600000Y-45332500D03*
%TO.P,C3,2*%
%TO.N,GND*%
X120600000Y-46467500D03*
%TD*%
D15*
%TO.P,R11,1*%
%TO.N,Net-(C9-Pad1)*%
X136000000Y-45297500D03*
%TO.P,R11,2*%
%TO.N,Net-(J8-Pad3)*%
X136000000Y-44102500D03*
%TD*%
D19*
%TO.P,C4,1*%
%TO.N,+12V*%
X114432500Y-41400000D03*
%TO.P,C4,2*%
%TO.N,GND*%
X115567500Y-41400000D03*
%TD*%
D14*
%TO.P,U1,1*%
%TO.N,Net-(J5-Pad3)*%
X118775000Y-42795000D03*
%TO.P,U1,2,-*%
X118775000Y-44065000D03*
%TO.P,U1,3,+*%
%TO.N,Net-(C3-Pad1)*%
X118775000Y-45335000D03*
%TO.P,U1,4,V-*%
%TO.N,GND*%
X118775000Y-46605000D03*
%TO.P,U1,5,+*%
%TO.N,Net-(C2-Pad1)*%
X113825000Y-46605000D03*
%TO.P,U1,6,-*%
%TO.N,Net-(J4-Pad3)*%
X113825000Y-45335000D03*
%TO.P,U1,7*%
X113825000Y-44065000D03*
%TO.P,U1,8,V+*%
%TO.N,+12V*%
X113825000Y-42795000D03*
%TD*%
D15*
%TO.P,R12,1*%
%TO.N,Net-(C10-Pad1)*%
X144600000Y-43997500D03*
%TO.P,R12,2*%
%TO.N,Net-(J9-Pad3)*%
X144600000Y-42802500D03*
%TD*%
D17*
%TO.P,R2,1*%
%TO.N,GND*%
X112602500Y-49100000D03*
%TO.P,R2,2*%
%TO.N,Net-(C2-Pad1)*%
X113797500Y-49100000D03*
%TD*%
D16*
%TO.P,R3,1*%
%TO.N,Net-(J3-Pad2)*%
X123400000Y-58302500D03*
%TO.P,R3,2*%
%TO.N,+5V*%
X123400000Y-59497500D03*
%TD*%
%TO.P,R9,1*%
%TO.N,Net-(J7-Pad2)*%
X147400000Y-58302500D03*
%TO.P,R9,2*%
%TO.N,+5V*%
X147400000Y-59497500D03*
%TD*%
D22*
%TO.P,U2,1,IN*%
%TO.N,+12V*%
X108350000Y-52862500D03*
%TO.P,U2,2,GND*%
%TO.N,GND*%
X109300000Y-52862500D03*
%TO.P,U2,3,EN*%
%TO.N,+12V*%
X110250000Y-52862500D03*
%TO.P,U2,4,NC*%
%TO.N,GND*%
X110250000Y-55137500D03*
%TO.P,U2,5,OUT*%
%TO.N,+5V*%
X108350000Y-55137500D03*
%TD*%
D20*
%TO.P,C2,1*%
%TO.N,Net-(C2-Pad1)*%
X113767500Y-48000000D03*
%TO.P,C2,2*%
%TO.N,GND*%
X112632500Y-48000000D03*
%TD*%
D23*
%TO.P,C5,1*%
%TO.N,+12V*%
X108362500Y-50900000D03*
%TO.P,C5,2*%
%TO.N,GND*%
X110437500Y-50900000D03*
%TD*%
D24*
%TO.P,D1,1,K*%
%TO.N,+12V*%
X106300000Y-52000000D03*
%TO.P,D1,2,A*%
%TO.N,+5V*%
X106300000Y-54800000D03*
%TD*%
D15*
%TO.P,R5,1*%
%TO.N,Net-(C2-Pad1)*%
X112000000Y-45297500D03*
%TO.P,R5,2*%
%TO.N,Net-(J4-Pad3)*%
X112000000Y-44102500D03*
%TD*%
D25*
%TO.N,GND*%
X144475000Y-58875000D03*
X126475000Y-38875000D03*
X116475000Y-56875000D03*
X126475000Y-36875000D03*
X116475000Y-38875000D03*
X138200000Y-50900000D03*
X122100000Y-44000000D03*
X158475000Y-42875000D03*
X114100000Y-50900000D03*
X154475000Y-56875000D03*
X126000000Y-47200000D03*
X108475000Y-60875000D03*
X106475000Y-44875000D03*
X124400000Y-45600000D03*
X106475000Y-36875000D03*
X136475000Y-36875000D03*
X160475000Y-52875000D03*
X110475000Y-58875000D03*
X116475000Y-36875000D03*
X106475000Y-60875000D03*
X138475000Y-38875000D03*
X102475000Y-46875000D03*
X162475000Y-58875000D03*
X154475000Y-60875000D03*
X122475000Y-50875000D03*
X158475000Y-48875000D03*
X106475000Y-56875000D03*
X150200000Y-50900000D03*
X102475000Y-44875000D03*
X156475000Y-40875000D03*
X150000000Y-47200000D03*
X162475000Y-38875000D03*
X122900000Y-46900000D03*
X134475000Y-56875000D03*
X120475000Y-56875000D03*
X110475000Y-46875000D03*
X114475000Y-36875000D03*
X128475000Y-36875000D03*
X146900000Y-47000000D03*
X150000000Y-45500000D03*
X152475000Y-58875000D03*
X112475000Y-56875000D03*
X112475000Y-36875000D03*
X128475000Y-58875000D03*
X146475000Y-40875000D03*
X158475000Y-52875000D03*
X144475000Y-40875000D03*
X156475000Y-56875000D03*
X162475000Y-56875000D03*
X160475000Y-54875000D03*
X134475000Y-46875000D03*
X134475000Y-44875000D03*
X142475000Y-56875000D03*
X154475000Y-58875000D03*
X112475000Y-38875000D03*
X160475000Y-50875000D03*
X162475000Y-52875000D03*
X160475000Y-46875000D03*
X136475000Y-56875000D03*
X118475000Y-56875000D03*
X102475000Y-40875000D03*
X158475000Y-46875000D03*
X134475000Y-50875000D03*
X156475000Y-36875000D03*
X148475000Y-36875000D03*
X158475000Y-36875000D03*
X114475000Y-38875000D03*
X152475000Y-38875000D03*
X126000000Y-45600000D03*
X102475000Y-56875000D03*
X162475000Y-36875000D03*
X119700000Y-41600000D03*
X122100000Y-41600000D03*
X118475000Y-58875000D03*
X150475000Y-36875000D03*
X106475000Y-40875000D03*
X160475000Y-48875000D03*
X158475000Y-54875000D03*
X148475000Y-60875000D03*
X138475000Y-36875000D03*
X102475000Y-42875000D03*
X106475000Y-42875000D03*
X156475000Y-42875000D03*
X132475000Y-42875000D03*
X158475000Y-50875000D03*
X140475000Y-58875000D03*
X124475000Y-36875000D03*
X122475000Y-58875000D03*
X124475000Y-56875000D03*
X144475000Y-56875000D03*
X156475000Y-38875000D03*
X110600000Y-41700000D03*
X102475000Y-36875000D03*
X136475000Y-38875000D03*
X122475000Y-56875000D03*
X128475000Y-38875000D03*
X140475000Y-56875000D03*
X160475000Y-42875000D03*
X132475000Y-58875000D03*
X136475000Y-50875000D03*
X142475000Y-58875000D03*
X124475000Y-50875000D03*
X102475000Y-60875000D03*
X162475000Y-60875000D03*
X156475000Y-58875000D03*
X134475000Y-58875000D03*
X162475000Y-40875000D03*
X130475000Y-58875000D03*
X152475000Y-60875000D03*
X146475000Y-50875000D03*
X134400000Y-41600000D03*
X106475000Y-46875000D03*
X104475000Y-42875000D03*
X158475000Y-56875000D03*
X146475000Y-56875000D03*
X152475000Y-36875000D03*
X162475000Y-42875000D03*
X104500000Y-44900000D03*
X130475000Y-56875000D03*
X140475000Y-38875000D03*
X148475000Y-38875000D03*
X150475000Y-60875000D03*
X148475000Y-50875000D03*
X146200000Y-44000000D03*
X112475000Y-50875000D03*
X148400000Y-45500000D03*
X109500000Y-49000000D03*
X162475000Y-50875000D03*
X116475000Y-58875000D03*
X140475000Y-36875000D03*
X124475000Y-38875000D03*
X162475000Y-46875000D03*
X110475000Y-44875000D03*
X162475000Y-48875000D03*
X148475000Y-56875000D03*
X150475000Y-38875000D03*
X152475000Y-56875000D03*
X126200000Y-50900000D03*
X160475000Y-36875000D03*
X132475000Y-56875000D03*
X120475000Y-58875000D03*
X162475000Y-54875000D03*
X160475000Y-44875000D03*
X156475000Y-60875000D03*
X158475000Y-44875000D03*
X128475000Y-56875000D03*
X160475000Y-56875000D03*
X162475000Y-44875000D03*
X132500000Y-41700000D03*
%TO.N,+12V*%
X111400000Y-52900000D03*
%TO.N,Net-(J4-Pad3)*%
X110500000Y-42800000D03*
%TO.N,Net-(J5-Pad3)*%
X122500000Y-42800000D03*
%TO.N,Net-(J8-Pad3)*%
X134500000Y-42800000D03*
%TO.N,Net-(J9-Pad3)*%
X146500000Y-42800000D03*
%TD*%
D26*
%TO.N,GND*%
X109300000Y-52900000D02*
X109300000Y-52037500D01*
X109300000Y-52037500D02*
X110437500Y-50900000D01*
%TO.N,Net-(C2-Pad1)*%
X113767500Y-48000000D02*
X113767500Y-46662500D01*
X112000000Y-45297500D02*
X112000000Y-45654999D01*
X112950001Y-46605000D02*
X113825000Y-46605000D01*
X115000000Y-50302500D02*
X113797500Y-49100000D01*
X115000000Y-59000000D02*
X115000000Y-50302500D01*
X112000000Y-45654999D02*
X112950001Y-46605000D01*
X113797500Y-49100000D02*
X113797500Y-48030000D01*
%TO.N,Net-(C3-Pad1)*%
X122597500Y-45302500D02*
X121700000Y-45302500D01*
X120600000Y-43997500D02*
X120600000Y-45332500D01*
X122600000Y-45300000D02*
X122597500Y-45302500D01*
X127000000Y-49700000D02*
X122600000Y-45300000D01*
X121700000Y-45302500D02*
X120630000Y-45302500D01*
X127000000Y-59000000D02*
X127000000Y-49700000D01*
X118775000Y-45335000D02*
X120597500Y-45335000D01*
%TO.N,Net-(C9-Pad1)*%
X136000000Y-45297500D02*
X136000000Y-45654999D01*
X137797500Y-49100000D02*
X137797500Y-48030000D01*
X137767500Y-48000000D02*
X137767500Y-46662500D01*
X139000000Y-50302500D02*
X137797500Y-49100000D01*
X136950001Y-46605000D02*
X137825000Y-46605000D01*
X136000000Y-45654999D02*
X136950001Y-46605000D01*
X139000000Y-59000000D02*
X139000000Y-50302500D01*
%TO.N,Net-(C10-Pad1)*%
X145700000Y-45402500D02*
X144630000Y-45402500D01*
X144502500Y-45335000D02*
X144600000Y-45432500D01*
X146600000Y-45400000D02*
X146597500Y-45402500D01*
X151000000Y-59000000D02*
X151000000Y-49800000D01*
X142775000Y-45335000D02*
X144502500Y-45335000D01*
X151000000Y-49800000D02*
X146600000Y-45400000D01*
X144600000Y-43997500D02*
X144600000Y-45432500D01*
X146597500Y-45402500D02*
X145700000Y-45402500D01*
%TO.N,+12V*%
X137825000Y-42795000D02*
X137825000Y-42007500D01*
X114465480Y-40665480D02*
X109934520Y-40665480D01*
X114432500Y-41400000D02*
X114432500Y-40698460D01*
X137697980Y-40665480D02*
X114465480Y-40665480D01*
X137825000Y-42007500D02*
X138432500Y-41400000D01*
X108350000Y-50912500D02*
X108362500Y-50900000D01*
X106300000Y-52000000D02*
X106300000Y-50900000D01*
X110300000Y-52900000D02*
X111400000Y-52900000D01*
X106300000Y-50900000D02*
X105350000Y-50900000D01*
X108362500Y-42237500D02*
X108362500Y-50900000D01*
X109934520Y-40665480D02*
X108362500Y-42237500D01*
X108362500Y-50900000D02*
X106300000Y-50900000D01*
X114432500Y-40698460D02*
X114465480Y-40665480D01*
X108350000Y-52862500D02*
X108350000Y-50912500D01*
X138432500Y-41400000D02*
X137697980Y-40665480D01*
X105350000Y-50900000D02*
X104450000Y-50000000D01*
X113825000Y-42007500D02*
X114432500Y-41400000D01*
X113825000Y-42795000D02*
X113825000Y-42007500D01*
%TO.N,Net-(J2-Pad2)*%
X111400000Y-58302500D02*
X112302500Y-58302500D01*
X112302500Y-58302500D02*
X113000000Y-59000000D01*
%TO.N,Net-(J3-Pad2)*%
X123400000Y-58302500D02*
X124302500Y-58302500D01*
X124302500Y-58302500D02*
X125000000Y-59000000D01*
%TO.N,Net-(J4-Pad3)*%
X113825000Y-45335000D02*
X113825000Y-44065000D01*
X113825000Y-44065000D02*
X112037500Y-44065000D01*
X110697500Y-42800000D02*
X112000000Y-44102500D01*
X110500000Y-42800000D02*
X110697500Y-42800000D01*
%TO.N,Net-(J5-Pad3)*%
X118775000Y-42795000D02*
X118775000Y-44065000D01*
X122500000Y-42800000D02*
X120602500Y-42800000D01*
X120600000Y-42802500D02*
X118782500Y-42802500D01*
%TO.N,Net-(J6-Pad2)*%
X136302500Y-58302500D02*
X137000000Y-59000000D01*
X135400000Y-58302500D02*
X136302500Y-58302500D01*
%TO.N,Net-(J7-Pad2)*%
X147400000Y-58302500D02*
X148302500Y-58302500D01*
X148302500Y-58302500D02*
X149000000Y-59000000D01*
%TO.N,Net-(J8-Pad3)*%
X134500000Y-42800000D02*
X134697500Y-42800000D01*
X134697500Y-42800000D02*
X136000000Y-44102500D01*
X137825000Y-44065000D02*
X136037500Y-44065000D01*
X137825000Y-44065000D02*
X137825000Y-45335000D01*
%TO.N,Net-(J9-Pad3)*%
X142775000Y-42795000D02*
X142775000Y-44065000D01*
X146500000Y-42800000D02*
X144602500Y-42800000D01*
X144600000Y-42802500D02*
X142782500Y-42802500D01*
%TO.N,+5V*%
X111400000Y-61000000D02*
X110700000Y-61000000D01*
X123400000Y-59497500D02*
X123400000Y-61000000D01*
X111400000Y-59497500D02*
X111400000Y-61000000D01*
X110700000Y-61000000D02*
X108487502Y-58787502D01*
X145897500Y-61000000D02*
X147400000Y-59497500D01*
X135300000Y-61000000D02*
X145897500Y-61000000D01*
X108487502Y-58787502D02*
X108487502Y-56937501D01*
X111400000Y-61000000D02*
X123400000Y-61000000D01*
X108350000Y-55175000D02*
X108350000Y-56799999D01*
X108350000Y-56799999D02*
X108487502Y-56937501D01*
X106300000Y-54800000D02*
X107975000Y-54800000D01*
X123400000Y-61000000D02*
X135300000Y-61000000D01*
X135400000Y-59497500D02*
X135400000Y-60900000D01*
X107975000Y-54800000D02*
X108350000Y-55175000D01*
X135400000Y-60900000D02*
X135300000Y-61000000D01*
%TD*%
%TA.AperFunction,Conductor*%
%TO.N,GND*%
G36*
X163188121Y-35274002D02*
G01*
X163234614Y-35327658D01*
X163246000Y-35380000D01*
X163246000Y-62620000D01*
X163225998Y-62688121D01*
X163172342Y-62734614D01*
X163120000Y-62746000D01*
X100880000Y-62746000D01*
X100811879Y-62725998D01*
X100765386Y-62672342D01*
X100754000Y-62620000D01*
X100754000Y-58941600D01*
X102641680Y-58941600D01*
X102643975Y-59000000D01*
X102650667Y-59170316D01*
X102651991Y-59204022D01*
X102699174Y-59462373D01*
X102782289Y-59711499D01*
X102789833Y-59726597D01*
X102893170Y-59933406D01*
X102899677Y-59946429D01*
X103048995Y-60162474D01*
X103052011Y-60165736D01*
X103052016Y-60165743D01*
X103224249Y-60352063D01*
X103224254Y-60352067D01*
X103227265Y-60355325D01*
X103430929Y-60521134D01*
X103434747Y-60523433D01*
X103434749Y-60523434D01*
X103586827Y-60614992D01*
X103655924Y-60656592D01*
X103768947Y-60704451D01*
X103893663Y-60757262D01*
X103893666Y-60757263D01*
X103897761Y-60758997D01*
X103902053Y-60760135D01*
X103902056Y-60760136D01*
X104147317Y-60825166D01*
X104147321Y-60825167D01*
X104151614Y-60826305D01*
X104156023Y-60826827D01*
X104156029Y-60826828D01*
X104326509Y-60847005D01*
X104412418Y-60857173D01*
X104674970Y-60850986D01*
X104755543Y-60837575D01*
X104929640Y-60808597D01*
X104929644Y-60808596D01*
X104934030Y-60807866D01*
X104938271Y-60806525D01*
X104938274Y-60806524D01*
X105180185Y-60730018D01*
X105180187Y-60730017D01*
X105184431Y-60728675D01*
X105188442Y-60726749D01*
X105188447Y-60726747D01*
X105417156Y-60616922D01*
X105417157Y-60616921D01*
X105421175Y-60614992D01*
X105530984Y-60541620D01*
X105635831Y-60471563D01*
X105635835Y-60471560D01*
X105639539Y-60469085D01*
X105642856Y-60466114D01*
X105642860Y-60466111D01*
X105831849Y-60296839D01*
X105831850Y-60296838D01*
X105835167Y-60293867D01*
X106004154Y-60092832D01*
X106143130Y-59869992D01*
X106146518Y-59862330D01*
X106247522Y-59633861D01*
X106249320Y-59629794D01*
X106320607Y-59377030D01*
X106343845Y-59204022D01*
X106355141Y-59119924D01*
X106355142Y-59119916D01*
X106355568Y-59116742D01*
X106355669Y-59113531D01*
X106359136Y-59003222D01*
X106359136Y-59003217D01*
X106359237Y-59000000D01*
X106340689Y-58738031D01*
X106339165Y-58730949D01*
X106286350Y-58485636D01*
X106286350Y-58485634D01*
X106285414Y-58481289D01*
X106194515Y-58234897D01*
X106142578Y-58138640D01*
X106071919Y-58007687D01*
X106069806Y-58003771D01*
X105913775Y-57792522D01*
X105907449Y-57786095D01*
X105814105Y-57691275D01*
X105729535Y-57605366D01*
X105520764Y-57446036D01*
X105461217Y-57412688D01*
X105295516Y-57319891D01*
X105295515Y-57319891D01*
X105291625Y-57317712D01*
X105287466Y-57316103D01*
X105050846Y-57224561D01*
X105050840Y-57224559D01*
X105046691Y-57222954D01*
X105042359Y-57221950D01*
X105042356Y-57221949D01*
X104910993Y-57191501D01*
X104790849Y-57163653D01*
X104529204Y-57140992D01*
X104524769Y-57141236D01*
X104524765Y-57141236D01*
X104271419Y-57155179D01*
X104271412Y-57155180D01*
X104266976Y-57155424D01*
X104009397Y-57206659D01*
X103761608Y-57293677D01*
X103757657Y-57295730D01*
X103757651Y-57295732D01*
X103532501Y-57412688D01*
X103528551Y-57414740D01*
X103524936Y-57417323D01*
X103524930Y-57417327D01*
X103401748Y-57505355D01*
X103314878Y-57567433D01*
X103124851Y-57748710D01*
X103122095Y-57752206D01*
X103122094Y-57752207D01*
X103022667Y-57878329D01*
X102962261Y-57954954D01*
X102923448Y-58021776D01*
X102832588Y-58178202D01*
X102832585Y-58178208D01*
X102830354Y-58182049D01*
X102828684Y-58186172D01*
X102758840Y-58358610D01*
X102731761Y-58425464D01*
X102730690Y-58429777D01*
X102730688Y-58429782D01*
X102704810Y-58533960D01*
X102668448Y-58680343D01*
X102641680Y-58941600D01*
X100754000Y-58941600D01*
X100754000Y-54174933D01*
X105445500Y-54174933D01*
X105445501Y-55425066D01*
X105460266Y-55499301D01*
X105516516Y-55583484D01*
X105600699Y-55639734D01*
X105674933Y-55654500D01*
X106299898Y-55654500D01*
X106925066Y-55654499D01*
X106960818Y-55647388D01*
X106987126Y-55642156D01*
X106987128Y-55642155D01*
X106999301Y-55639734D01*
X107009621Y-55632839D01*
X107009622Y-55632838D01*
X107073168Y-55590377D01*
X107083484Y-55583484D01*
X107139734Y-55499301D01*
X107154500Y-55425067D01*
X107154500Y-55405500D01*
X107174502Y-55337379D01*
X107228158Y-55290886D01*
X107280500Y-55279500D01*
X107669500Y-55279500D01*
X107737621Y-55299502D01*
X107784114Y-55353158D01*
X107795500Y-55405500D01*
X107795500Y-55681834D01*
X107810502Y-55776555D01*
X107856767Y-55867354D01*
X107870500Y-55924557D01*
X107870500Y-56263664D01*
X107850498Y-56331785D01*
X107838497Y-56346677D01*
X107836028Y-56348527D01*
X107751509Y-56461302D01*
X107702038Y-56593265D01*
X107695502Y-56653431D01*
X107695502Y-57221571D01*
X107702038Y-57281737D01*
X107751509Y-57413700D01*
X107836028Y-57526475D01*
X107943498Y-57607018D01*
X107948803Y-57610994D01*
X107948199Y-57611799D01*
X107992659Y-57656360D01*
X108008002Y-57716619D01*
X108008002Y-58719682D01*
X108006748Y-58730902D01*
X108007333Y-58730949D01*
X108006613Y-58739894D01*
X108004632Y-58748651D01*
X108005188Y-58757611D01*
X108007760Y-58799075D01*
X108008002Y-58806876D01*
X108008002Y-58821933D01*
X108008636Y-58826359D01*
X108009360Y-58831410D01*
X108010391Y-58841477D01*
X108013136Y-58885738D01*
X108016186Y-58894187D01*
X108017398Y-58900037D01*
X108019596Y-58908854D01*
X108021271Y-58914581D01*
X108022543Y-58923466D01*
X108040906Y-58963852D01*
X108044712Y-58973204D01*
X108056725Y-59006482D01*
X108056727Y-59006486D01*
X108059775Y-59014929D01*
X108065074Y-59022182D01*
X108067865Y-59027431D01*
X108072470Y-59035313D01*
X108075676Y-59040327D01*
X108079392Y-59048499D01*
X108085251Y-59055299D01*
X108085252Y-59055300D01*
X108096597Y-59068466D01*
X108106007Y-59079386D01*
X108108340Y-59082094D01*
X108114628Y-59090013D01*
X108122029Y-59100144D01*
X108132185Y-59110300D01*
X108138542Y-59117146D01*
X108169049Y-59152551D01*
X108176576Y-59157430D01*
X108183346Y-59163336D01*
X108183287Y-59163403D01*
X108193768Y-59171883D01*
X110312981Y-61291096D01*
X110320032Y-61299921D01*
X110320479Y-61299541D01*
X110326297Y-61306377D01*
X110331087Y-61313969D01*
X110337816Y-61319912D01*
X110368973Y-61347429D01*
X110374660Y-61352775D01*
X110385289Y-61363404D01*
X110388867Y-61366086D01*
X110388870Y-61366088D01*
X110392943Y-61369140D01*
X110400787Y-61375526D01*
X110434036Y-61404891D01*
X110442159Y-61408705D01*
X110447131Y-61411971D01*
X110454954Y-61416671D01*
X110460183Y-61419534D01*
X110467366Y-61424917D01*
X110475771Y-61428068D01*
X110475773Y-61428069D01*
X110508886Y-61440482D01*
X110518191Y-61444402D01*
X110558366Y-61463264D01*
X110567238Y-61464645D01*
X110572942Y-61466389D01*
X110581737Y-61468696D01*
X110587570Y-61469979D01*
X110595976Y-61473130D01*
X110604926Y-61473795D01*
X110604930Y-61473796D01*
X110637400Y-61476209D01*
X110640204Y-61476417D01*
X110650241Y-61477569D01*
X110653920Y-61478142D01*
X110657837Y-61478752D01*
X110657839Y-61478752D01*
X110662643Y-61479500D01*
X110677011Y-61479500D01*
X110686349Y-61479846D01*
X110732949Y-61483309D01*
X110741725Y-61481436D01*
X110750682Y-61480825D01*
X110750688Y-61480915D01*
X110764092Y-61479500D01*
X111391799Y-61479500D01*
X111392570Y-61479502D01*
X111465745Y-61479949D01*
X111467027Y-61479583D01*
X111468238Y-61479500D01*
X123391799Y-61479500D01*
X123392570Y-61479502D01*
X123465745Y-61479949D01*
X123467027Y-61479583D01*
X123468238Y-61479500D01*
X135232180Y-61479500D01*
X135243400Y-61480754D01*
X135243447Y-61480169D01*
X135252392Y-61480889D01*
X135261149Y-61482870D01*
X135311573Y-61479742D01*
X135319374Y-61479500D01*
X145829680Y-61479500D01*
X145840900Y-61480754D01*
X145840947Y-61480169D01*
X145849892Y-61480889D01*
X145858649Y-61482870D01*
X145909073Y-61479742D01*
X145916874Y-61479500D01*
X145931931Y-61479500D01*
X145941418Y-61478141D01*
X145951475Y-61477111D01*
X145995736Y-61474366D01*
X146004185Y-61471316D01*
X146010035Y-61470104D01*
X146018852Y-61467906D01*
X146024579Y-61466231D01*
X146033464Y-61464959D01*
X146073850Y-61446596D01*
X146083202Y-61442790D01*
X146116480Y-61430777D01*
X146116484Y-61430775D01*
X146124927Y-61427727D01*
X146132180Y-61422428D01*
X146137429Y-61419637D01*
X146145311Y-61415032D01*
X146150325Y-61411826D01*
X146158497Y-61408110D01*
X146192093Y-61379161D01*
X146200011Y-61372874D01*
X146202976Y-61370708D01*
X146206207Y-61368348D01*
X146206211Y-61368345D01*
X146210142Y-61365473D01*
X146220298Y-61355317D01*
X146227145Y-61348959D01*
X146255752Y-61324310D01*
X146255753Y-61324309D01*
X146262549Y-61318453D01*
X146267428Y-61310926D01*
X146273334Y-61304156D01*
X146273401Y-61304215D01*
X146281881Y-61293734D01*
X147429211Y-60146404D01*
X147491523Y-60112378D01*
X147518306Y-60109499D01*
X147592622Y-60109499D01*
X147634441Y-60102876D01*
X147679886Y-60095679D01*
X147679888Y-60095678D01*
X147689684Y-60094127D01*
X147699639Y-60089055D01*
X147797842Y-60039018D01*
X147806674Y-60034518D01*
X147899518Y-59941674D01*
X147959127Y-59824684D01*
X147974500Y-59727623D01*
X147974500Y-59676133D01*
X147994502Y-59608012D01*
X148048158Y-59561519D01*
X148118432Y-59551415D01*
X148183012Y-59580909D01*
X148214879Y-59623279D01*
X148217552Y-59629064D01*
X148219730Y-59635535D01*
X148315351Y-59794677D01*
X148320039Y-59799634D01*
X148320041Y-59799637D01*
X148438227Y-59924614D01*
X148442916Y-59929572D01*
X148596471Y-60033928D01*
X148602805Y-60036461D01*
X148602808Y-60036463D01*
X148762516Y-60100342D01*
X148762521Y-60100343D01*
X148768853Y-60102876D01*
X148775580Y-60103990D01*
X148775585Y-60103991D01*
X148945282Y-60132084D01*
X148945285Y-60132084D01*
X148952019Y-60133199D01*
X148958836Y-60132842D01*
X148958840Y-60132842D01*
X149109920Y-60124923D01*
X149137424Y-60123482D01*
X149143996Y-60121672D01*
X149144001Y-60121671D01*
X149309835Y-60075992D01*
X149316417Y-60074179D01*
X149480648Y-59987590D01*
X149622454Y-59867755D01*
X149626602Y-59862330D01*
X149731075Y-59725685D01*
X149731077Y-59725681D01*
X149735219Y-59720264D01*
X149739306Y-59711499D01*
X149810802Y-59558177D01*
X149810803Y-59558174D01*
X149813682Y-59552000D01*
X149854182Y-59370812D01*
X149854500Y-59365124D01*
X149854500Y-58678615D01*
X149839488Y-58540427D01*
X149780270Y-58364465D01*
X149684649Y-58205323D01*
X149621590Y-58138640D01*
X149561773Y-58075386D01*
X149561771Y-58075384D01*
X149557084Y-58070428D01*
X149403529Y-57966072D01*
X149397195Y-57963539D01*
X149397192Y-57963537D01*
X149237484Y-57899658D01*
X149237479Y-57899657D01*
X149231147Y-57897124D01*
X149224420Y-57896010D01*
X149224415Y-57896009D01*
X149054718Y-57867916D01*
X149054715Y-57867916D01*
X149047981Y-57866801D01*
X149041164Y-57867158D01*
X149041160Y-57867158D01*
X148890080Y-57875077D01*
X148862576Y-57876518D01*
X148856004Y-57878328D01*
X148855999Y-57878329D01*
X148685932Y-57925174D01*
X148614946Y-57923980D01*
X148583973Y-57906532D01*
X148582694Y-57908479D01*
X148575193Y-57903552D01*
X148568464Y-57897609D01*
X148560336Y-57893793D01*
X148555358Y-57890523D01*
X148547535Y-57885822D01*
X148542316Y-57882965D01*
X148535135Y-57877583D01*
X148493600Y-57862012D01*
X148484299Y-57858093D01*
X148444134Y-57839236D01*
X148435267Y-57837855D01*
X148429591Y-57836120D01*
X148420714Y-57833792D01*
X148414928Y-57832520D01*
X148406525Y-57829370D01*
X148383576Y-57827664D01*
X148362300Y-57826083D01*
X148352263Y-57824932D01*
X148339857Y-57823000D01*
X148325490Y-57823000D01*
X148316152Y-57822654D01*
X148301767Y-57821585D01*
X148269552Y-57819191D01*
X148260776Y-57821064D01*
X148251819Y-57821675D01*
X148251813Y-57821585D01*
X148238409Y-57823000D01*
X147916382Y-57823000D01*
X147848261Y-57802998D01*
X147827287Y-57786095D01*
X147806674Y-57765482D01*
X147689684Y-57705873D01*
X147679895Y-57704322D01*
X147679893Y-57704322D01*
X147652120Y-57699923D01*
X147592623Y-57690500D01*
X147400039Y-57690500D01*
X147207378Y-57690501D01*
X147183012Y-57694360D01*
X147120114Y-57704321D01*
X147120112Y-57704322D01*
X147110316Y-57705873D01*
X147101479Y-57710376D01*
X147101478Y-57710376D01*
X147040776Y-57741305D01*
X146993326Y-57765482D01*
X146900482Y-57858326D01*
X146840873Y-57975316D01*
X146825500Y-58072377D01*
X146825501Y-58532622D01*
X146840873Y-58629684D01*
X146900482Y-58746674D01*
X146964713Y-58810905D01*
X146998739Y-58873217D01*
X146993674Y-58944032D01*
X146964713Y-58989095D01*
X146900482Y-59053326D01*
X146840873Y-59170316D01*
X146825500Y-59267377D01*
X146825500Y-59341695D01*
X146805498Y-59409816D01*
X146788595Y-59430790D01*
X145735790Y-60483595D01*
X145673478Y-60517621D01*
X145646695Y-60520500D01*
X136005500Y-60520500D01*
X135937379Y-60500498D01*
X135890886Y-60446842D01*
X135879500Y-60394500D01*
X135879500Y-60007527D01*
X135898553Y-59942639D01*
X135899518Y-59941674D01*
X135959127Y-59824684D01*
X135974500Y-59727623D01*
X135974500Y-59676133D01*
X135994502Y-59608012D01*
X136048158Y-59561519D01*
X136118432Y-59551415D01*
X136183012Y-59580909D01*
X136214879Y-59623279D01*
X136217552Y-59629064D01*
X136219730Y-59635535D01*
X136315351Y-59794677D01*
X136320039Y-59799634D01*
X136320041Y-59799637D01*
X136438227Y-59924614D01*
X136442916Y-59929572D01*
X136596471Y-60033928D01*
X136602805Y-60036461D01*
X136602808Y-60036463D01*
X136762516Y-60100342D01*
X136762521Y-60100343D01*
X136768853Y-60102876D01*
X136775580Y-60103990D01*
X136775585Y-60103991D01*
X136945282Y-60132084D01*
X136945285Y-60132084D01*
X136952019Y-60133199D01*
X136958836Y-60132842D01*
X136958840Y-60132842D01*
X137109920Y-60124923D01*
X137137424Y-60123482D01*
X137143996Y-60121672D01*
X137144001Y-60121671D01*
X137309835Y-60075992D01*
X137316417Y-60074179D01*
X137480648Y-59987590D01*
X137622454Y-59867755D01*
X137626602Y-59862330D01*
X137731075Y-59725685D01*
X137731077Y-59725681D01*
X137735219Y-59720264D01*
X137739306Y-59711499D01*
X137810802Y-59558177D01*
X137810803Y-59558174D01*
X137813682Y-59552000D01*
X137854182Y-59370812D01*
X137854500Y-59365124D01*
X137854500Y-58678615D01*
X137839488Y-58540427D01*
X137780270Y-58364465D01*
X137684649Y-58205323D01*
X137621590Y-58138640D01*
X137561773Y-58075386D01*
X137561771Y-58075384D01*
X137557084Y-58070428D01*
X137403529Y-57966072D01*
X137397195Y-57963539D01*
X137397192Y-57963537D01*
X137237484Y-57899658D01*
X137237479Y-57899657D01*
X137231147Y-57897124D01*
X137224420Y-57896010D01*
X137224415Y-57896009D01*
X137054718Y-57867916D01*
X137054715Y-57867916D01*
X137047981Y-57866801D01*
X137041164Y-57867158D01*
X137041160Y-57867158D01*
X136890080Y-57875077D01*
X136862576Y-57876518D01*
X136856004Y-57878328D01*
X136855999Y-57878329D01*
X136685932Y-57925174D01*
X136614946Y-57923980D01*
X136583973Y-57906532D01*
X136582694Y-57908479D01*
X136575193Y-57903552D01*
X136568464Y-57897609D01*
X136560336Y-57893793D01*
X136555358Y-57890523D01*
X136547535Y-57885822D01*
X136542316Y-57882965D01*
X136535135Y-57877583D01*
X136493600Y-57862012D01*
X136484299Y-57858093D01*
X136444134Y-57839236D01*
X136435267Y-57837855D01*
X136429591Y-57836120D01*
X136420714Y-57833792D01*
X136414928Y-57832520D01*
X136406525Y-57829370D01*
X136383576Y-57827664D01*
X136362300Y-57826083D01*
X136352263Y-57824932D01*
X136339857Y-57823000D01*
X136325490Y-57823000D01*
X136316152Y-57822654D01*
X136301767Y-57821585D01*
X136269552Y-57819191D01*
X136260776Y-57821064D01*
X136251819Y-57821675D01*
X136251813Y-57821585D01*
X136238409Y-57823000D01*
X135916382Y-57823000D01*
X135848261Y-57802998D01*
X135827287Y-57786095D01*
X135806674Y-57765482D01*
X135689684Y-57705873D01*
X135679895Y-57704322D01*
X135679893Y-57704322D01*
X135652120Y-57699923D01*
X135592623Y-57690500D01*
X135400039Y-57690500D01*
X135207378Y-57690501D01*
X135183012Y-57694360D01*
X135120114Y-57704321D01*
X135120112Y-57704322D01*
X135110316Y-57705873D01*
X135101479Y-57710376D01*
X135101478Y-57710376D01*
X135040776Y-57741305D01*
X134993326Y-57765482D01*
X134900482Y-57858326D01*
X134840873Y-57975316D01*
X134825500Y-58072377D01*
X134825501Y-58532622D01*
X134840873Y-58629684D01*
X134900482Y-58746674D01*
X134964713Y-58810905D01*
X134998739Y-58873217D01*
X134993674Y-58944032D01*
X134964713Y-58989095D01*
X134900482Y-59053326D01*
X134840873Y-59170316D01*
X134825500Y-59267377D01*
X134825501Y-59727622D01*
X134840873Y-59824684D01*
X134896750Y-59934350D01*
X134896751Y-59934352D01*
X134900482Y-59941674D01*
X134899536Y-59942156D01*
X134920294Y-60000330D01*
X134920500Y-60007527D01*
X134920500Y-60394500D01*
X134900498Y-60462621D01*
X134846842Y-60509114D01*
X134794500Y-60520500D01*
X124005500Y-60520500D01*
X123937379Y-60500498D01*
X123890886Y-60446842D01*
X123879500Y-60394500D01*
X123879500Y-60007527D01*
X123898553Y-59942639D01*
X123899518Y-59941674D01*
X123959127Y-59824684D01*
X123974500Y-59727623D01*
X123974500Y-59676133D01*
X123994502Y-59608012D01*
X124048158Y-59561519D01*
X124118432Y-59551415D01*
X124183012Y-59580909D01*
X124214879Y-59623279D01*
X124217552Y-59629064D01*
X124219730Y-59635535D01*
X124315351Y-59794677D01*
X124320039Y-59799634D01*
X124320041Y-59799637D01*
X124438227Y-59924614D01*
X124442916Y-59929572D01*
X124596471Y-60033928D01*
X124602805Y-60036461D01*
X124602808Y-60036463D01*
X124762516Y-60100342D01*
X124762521Y-60100343D01*
X124768853Y-60102876D01*
X124775580Y-60103990D01*
X124775585Y-60103991D01*
X124945282Y-60132084D01*
X124945285Y-60132084D01*
X124952019Y-60133199D01*
X124958836Y-60132842D01*
X124958840Y-60132842D01*
X125109920Y-60124923D01*
X125137424Y-60123482D01*
X125143996Y-60121672D01*
X125144001Y-60121671D01*
X125309835Y-60075992D01*
X125316417Y-60074179D01*
X125480648Y-59987590D01*
X125622454Y-59867755D01*
X125626602Y-59862330D01*
X125731075Y-59725685D01*
X125731077Y-59725681D01*
X125735219Y-59720264D01*
X125739306Y-59711499D01*
X125810802Y-59558177D01*
X125810803Y-59558174D01*
X125813682Y-59552000D01*
X125854182Y-59370812D01*
X125854500Y-59365124D01*
X125854500Y-58678615D01*
X125839488Y-58540427D01*
X125780270Y-58364465D01*
X125684649Y-58205323D01*
X125621590Y-58138640D01*
X125561773Y-58075386D01*
X125561771Y-58075384D01*
X125557084Y-58070428D01*
X125403529Y-57966072D01*
X125397195Y-57963539D01*
X125397192Y-57963537D01*
X125237484Y-57899658D01*
X125237479Y-57899657D01*
X125231147Y-57897124D01*
X125224420Y-57896010D01*
X125224415Y-57896009D01*
X125054718Y-57867916D01*
X125054715Y-57867916D01*
X125047981Y-57866801D01*
X125041164Y-57867158D01*
X125041160Y-57867158D01*
X124890080Y-57875077D01*
X124862576Y-57876518D01*
X124856004Y-57878328D01*
X124855999Y-57878329D01*
X124685932Y-57925174D01*
X124614946Y-57923980D01*
X124583973Y-57906532D01*
X124582694Y-57908479D01*
X124575193Y-57903552D01*
X124568464Y-57897609D01*
X124560336Y-57893793D01*
X124555358Y-57890523D01*
X124547535Y-57885822D01*
X124542316Y-57882965D01*
X124535135Y-57877583D01*
X124493600Y-57862012D01*
X124484299Y-57858093D01*
X124444134Y-57839236D01*
X124435267Y-57837855D01*
X124429591Y-57836120D01*
X124420714Y-57833792D01*
X124414928Y-57832520D01*
X124406525Y-57829370D01*
X124383576Y-57827664D01*
X124362300Y-57826083D01*
X124352263Y-57824932D01*
X124339857Y-57823000D01*
X124325490Y-57823000D01*
X124316152Y-57822654D01*
X124301767Y-57821585D01*
X124269552Y-57819191D01*
X124260776Y-57821064D01*
X124251819Y-57821675D01*
X124251813Y-57821585D01*
X124238409Y-57823000D01*
X123916382Y-57823000D01*
X123848261Y-57802998D01*
X123827287Y-57786095D01*
X123806674Y-57765482D01*
X123689684Y-57705873D01*
X123679895Y-57704322D01*
X123679893Y-57704322D01*
X123652120Y-57699923D01*
X123592623Y-57690500D01*
X123400039Y-57690500D01*
X123207378Y-57690501D01*
X123183012Y-57694360D01*
X123120114Y-57704321D01*
X123120112Y-57704322D01*
X123110316Y-57705873D01*
X123101479Y-57710376D01*
X123101478Y-57710376D01*
X123040776Y-57741305D01*
X122993326Y-57765482D01*
X122900482Y-57858326D01*
X122840873Y-57975316D01*
X122825500Y-58072377D01*
X122825501Y-58532622D01*
X122840873Y-58629684D01*
X122900482Y-58746674D01*
X122964713Y-58810905D01*
X122998739Y-58873217D01*
X122993674Y-58944032D01*
X122964713Y-58989095D01*
X122900482Y-59053326D01*
X122840873Y-59170316D01*
X122825500Y-59267377D01*
X122825501Y-59727622D01*
X122840873Y-59824684D01*
X122896750Y-59934350D01*
X122896751Y-59934352D01*
X122900482Y-59941674D01*
X122899536Y-59942156D01*
X122920294Y-60000330D01*
X122920500Y-60007527D01*
X122920500Y-60394500D01*
X122900498Y-60462621D01*
X122846842Y-60509114D01*
X122794500Y-60520500D01*
X112005500Y-60520500D01*
X111937379Y-60500498D01*
X111890886Y-60446842D01*
X111879500Y-60394500D01*
X111879500Y-60007527D01*
X111898553Y-59942639D01*
X111899518Y-59941674D01*
X111959127Y-59824684D01*
X111974500Y-59727623D01*
X111974500Y-59676133D01*
X111994502Y-59608012D01*
X112048158Y-59561519D01*
X112118432Y-59551415D01*
X112183012Y-59580909D01*
X112214879Y-59623279D01*
X112217552Y-59629064D01*
X112219730Y-59635535D01*
X112315351Y-59794677D01*
X112320039Y-59799634D01*
X112320041Y-59799637D01*
X112438227Y-59924614D01*
X112442916Y-59929572D01*
X112596471Y-60033928D01*
X112602805Y-60036461D01*
X112602808Y-60036463D01*
X112762516Y-60100342D01*
X112762521Y-60100343D01*
X112768853Y-60102876D01*
X112775580Y-60103990D01*
X112775585Y-60103991D01*
X112945282Y-60132084D01*
X112945285Y-60132084D01*
X112952019Y-60133199D01*
X112958836Y-60132842D01*
X112958840Y-60132842D01*
X113109920Y-60124923D01*
X113137424Y-60123482D01*
X113143996Y-60121672D01*
X113144001Y-60121671D01*
X113309835Y-60075992D01*
X113316417Y-60074179D01*
X113480648Y-59987590D01*
X113622454Y-59867755D01*
X113626602Y-59862330D01*
X113731075Y-59725685D01*
X113731077Y-59725681D01*
X113735219Y-59720264D01*
X113739306Y-59711499D01*
X113810802Y-59558177D01*
X113810803Y-59558174D01*
X113813682Y-59552000D01*
X113854182Y-59370812D01*
X113854500Y-59365124D01*
X113854500Y-58678615D01*
X113839488Y-58540427D01*
X113780270Y-58364465D01*
X113684649Y-58205323D01*
X113621590Y-58138640D01*
X113561773Y-58075386D01*
X113561771Y-58075384D01*
X113557084Y-58070428D01*
X113403529Y-57966072D01*
X113397195Y-57963539D01*
X113397192Y-57963537D01*
X113237484Y-57899658D01*
X113237479Y-57899657D01*
X113231147Y-57897124D01*
X113224420Y-57896010D01*
X113224415Y-57896009D01*
X113054718Y-57867916D01*
X113054715Y-57867916D01*
X113047981Y-57866801D01*
X113041164Y-57867158D01*
X113041160Y-57867158D01*
X112890080Y-57875077D01*
X112862576Y-57876518D01*
X112856004Y-57878328D01*
X112855999Y-57878329D01*
X112685932Y-57925174D01*
X112614946Y-57923980D01*
X112583973Y-57906532D01*
X112582694Y-57908479D01*
X112575193Y-57903552D01*
X112568464Y-57897609D01*
X112560336Y-57893793D01*
X112555358Y-57890523D01*
X112547535Y-57885822D01*
X112542316Y-57882965D01*
X112535135Y-57877583D01*
X112493600Y-57862012D01*
X112484299Y-57858093D01*
X112444134Y-57839236D01*
X112435267Y-57837855D01*
X112429591Y-57836120D01*
X112420714Y-57833792D01*
X112414928Y-57832520D01*
X112406525Y-57829370D01*
X112383576Y-57827664D01*
X112362300Y-57826083D01*
X112352263Y-57824932D01*
X112339857Y-57823000D01*
X112325490Y-57823000D01*
X112316152Y-57822654D01*
X112301767Y-57821585D01*
X112269552Y-57819191D01*
X112260776Y-57821064D01*
X112251819Y-57821675D01*
X112251813Y-57821585D01*
X112238409Y-57823000D01*
X111916382Y-57823000D01*
X111848261Y-57802998D01*
X111827287Y-57786095D01*
X111806674Y-57765482D01*
X111689684Y-57705873D01*
X111679895Y-57704322D01*
X111679893Y-57704322D01*
X111652120Y-57699923D01*
X111592623Y-57690500D01*
X111572277Y-57690500D01*
X111296206Y-57690501D01*
X111228087Y-57670499D01*
X111181594Y-57616844D01*
X111171489Y-57546570D01*
X111186420Y-57505355D01*
X111185819Y-57505075D01*
X111195058Y-57485260D01*
X111245317Y-57333735D01*
X111248183Y-57320369D01*
X111257674Y-57227731D01*
X111258002Y-57221316D01*
X111258002Y-57209616D01*
X111253527Y-57194377D01*
X111252137Y-57193172D01*
X111244454Y-57191501D01*
X110484617Y-57191501D01*
X110469378Y-57195976D01*
X110468173Y-57197366D01*
X110466502Y-57205049D01*
X110466502Y-57902386D01*
X110470977Y-57917625D01*
X110472367Y-57918830D01*
X110480050Y-57920501D01*
X110558768Y-57920501D01*
X110565284Y-57920164D01*
X110659138Y-57910425D01*
X110678123Y-57906325D01*
X110748931Y-57911495D01*
X110805703Y-57954127D01*
X110830414Y-58020685D01*
X110829171Y-58049193D01*
X110826275Y-58067479D01*
X110826274Y-58067489D01*
X110825500Y-58072377D01*
X110825501Y-58532622D01*
X110840873Y-58629684D01*
X110900482Y-58746674D01*
X110964713Y-58810905D01*
X110998739Y-58873217D01*
X110993674Y-58944032D01*
X110964713Y-58989095D01*
X110900482Y-59053326D01*
X110840873Y-59170316D01*
X110825500Y-59267377D01*
X110825501Y-59727622D01*
X110840873Y-59824684D01*
X110896750Y-59934350D01*
X110896751Y-59934352D01*
X110900482Y-59941674D01*
X110899536Y-59942156D01*
X110920294Y-60000330D01*
X110920500Y-60007527D01*
X110920500Y-60238195D01*
X110900498Y-60306316D01*
X110846842Y-60352809D01*
X110776568Y-60362913D01*
X110711988Y-60333419D01*
X110705405Y-60327290D01*
X109003907Y-58625792D01*
X108969881Y-58563480D01*
X108967002Y-58536697D01*
X108967002Y-57716619D01*
X108987004Y-57648498D01*
X109026629Y-57611564D01*
X109026201Y-57610994D01*
X109031506Y-57607018D01*
X109037323Y-57602659D01*
X109106837Y-57550562D01*
X109173344Y-57525715D01*
X109242726Y-57540769D01*
X109289546Y-57585087D01*
X109320429Y-57634993D01*
X109329462Y-57646391D01*
X109442131Y-57758864D01*
X109453542Y-57767876D01*
X109589065Y-57851413D01*
X109602243Y-57857557D01*
X109753768Y-57907816D01*
X109767134Y-57910682D01*
X109859772Y-57920173D01*
X109866187Y-57920501D01*
X109940387Y-57920501D01*
X109955626Y-57916026D01*
X109956831Y-57914636D01*
X109958502Y-57906953D01*
X109958502Y-56665386D01*
X110466502Y-56665386D01*
X110470977Y-56680625D01*
X110472367Y-56681830D01*
X110480050Y-56683501D01*
X111239887Y-56683501D01*
X111255126Y-56679026D01*
X111256331Y-56677636D01*
X111258002Y-56669953D01*
X111258002Y-56653735D01*
X111257665Y-56647219D01*
X111247927Y-56553369D01*
X111245034Y-56539973D01*
X111194514Y-56388548D01*
X111188349Y-56375386D01*
X111104576Y-56240009D01*
X111095542Y-56228611D01*
X110982873Y-56116138D01*
X110971462Y-56107126D01*
X110835939Y-56023589D01*
X110822762Y-56017445D01*
X110776528Y-56002110D01*
X110718168Y-55961680D01*
X110690931Y-55896116D01*
X110702995Y-55827185D01*
X110735754Y-55760165D01*
X110741463Y-55741694D01*
X110749340Y-55687703D01*
X110750000Y-55678604D01*
X110750000Y-55409615D01*
X110745525Y-55394376D01*
X110744135Y-55393171D01*
X110736452Y-55391500D01*
X110522115Y-55391500D01*
X110506876Y-55395975D01*
X110505671Y-55397365D01*
X110504000Y-55405048D01*
X110504000Y-55957523D01*
X110483998Y-56025644D01*
X110473225Y-56040035D01*
X110468173Y-56045865D01*
X110466502Y-56053548D01*
X110466502Y-56665386D01*
X109958502Y-56665386D01*
X109958502Y-55996978D01*
X109978504Y-55928857D01*
X109989277Y-55914466D01*
X109994329Y-55908636D01*
X109996000Y-55900953D01*
X109996000Y-55409615D01*
X109991525Y-55394376D01*
X109990135Y-55393171D01*
X109982452Y-55391500D01*
X109768116Y-55391500D01*
X109752877Y-55395975D01*
X109751672Y-55397365D01*
X109750001Y-55405048D01*
X109750001Y-55678568D01*
X109750672Y-55687734D01*
X109758700Y-55742278D01*
X109764443Y-55760759D01*
X109786419Y-55805520D01*
X109798487Y-55875484D01*
X109770813Y-55940865D01*
X109713192Y-55980575D01*
X109601049Y-56017989D01*
X109587887Y-56024154D01*
X109452510Y-56107927D01*
X109441112Y-56116961D01*
X109328639Y-56229630D01*
X109319625Y-56241044D01*
X109289630Y-56289705D01*
X109236858Y-56337199D01*
X109166787Y-56348623D01*
X109106806Y-56324417D01*
X109033384Y-56269391D01*
X109033383Y-56269390D01*
X109026201Y-56264008D01*
X109017800Y-56260858D01*
X109017797Y-56260857D01*
X108911270Y-56220922D01*
X108854506Y-56178280D01*
X108829806Y-56111719D01*
X108829500Y-56102940D01*
X108829500Y-55924557D01*
X108843233Y-55867354D01*
X108889498Y-55776555D01*
X108904500Y-55681834D01*
X108904500Y-54865385D01*
X109750000Y-54865385D01*
X109754475Y-54880624D01*
X109755865Y-54881829D01*
X109763548Y-54883500D01*
X109977885Y-54883500D01*
X109993124Y-54879025D01*
X109994329Y-54877635D01*
X109996000Y-54869952D01*
X109996000Y-54865385D01*
X110504000Y-54865385D01*
X110508475Y-54880624D01*
X110509865Y-54881829D01*
X110517548Y-54883500D01*
X110731884Y-54883500D01*
X110747123Y-54879025D01*
X110748328Y-54877635D01*
X110749999Y-54869952D01*
X110749999Y-54596432D01*
X110749328Y-54587266D01*
X110741300Y-54532722D01*
X110735557Y-54514241D01*
X110693111Y-54427787D01*
X110681151Y-54411082D01*
X110613428Y-54343477D01*
X110596700Y-54331545D01*
X110520277Y-54294189D01*
X110506375Y-54291816D01*
X110504158Y-54295074D01*
X110504000Y-54296078D01*
X110504000Y-54865385D01*
X109996000Y-54865385D01*
X109996000Y-54304239D01*
X109992027Y-54290708D01*
X109988186Y-54290156D01*
X109987112Y-54290488D01*
X109902787Y-54331889D01*
X109886082Y-54343849D01*
X109818477Y-54411572D01*
X109806545Y-54428300D01*
X109764245Y-54514838D01*
X109758537Y-54533306D01*
X109750660Y-54587297D01*
X109750000Y-54596396D01*
X109750000Y-54865385D01*
X108904500Y-54865385D01*
X108904500Y-54593166D01*
X108889498Y-54498445D01*
X108831326Y-54384277D01*
X108740723Y-54293674D01*
X108626555Y-54235502D01*
X108531834Y-54220500D01*
X108168166Y-54220500D01*
X108073445Y-54235502D01*
X107959277Y-54293674D01*
X107955629Y-54297322D01*
X107891250Y-54320294D01*
X107884054Y-54320500D01*
X107280499Y-54320500D01*
X107212378Y-54300498D01*
X107165885Y-54246842D01*
X107154499Y-54194500D01*
X107154499Y-54174934D01*
X107139734Y-54100699D01*
X107083484Y-54016516D01*
X106999301Y-53960266D01*
X106925067Y-53945500D01*
X106300102Y-53945500D01*
X105674934Y-53945501D01*
X105639182Y-53952612D01*
X105612874Y-53957844D01*
X105612872Y-53957845D01*
X105600699Y-53960266D01*
X105590379Y-53967161D01*
X105590378Y-53967162D01*
X105571692Y-53979648D01*
X105516516Y-54016516D01*
X105460266Y-54100699D01*
X105445500Y-54174933D01*
X100754000Y-54174933D01*
X100754000Y-48267399D01*
X103099712Y-48267399D01*
X103121194Y-48356537D01*
X103125083Y-48367832D01*
X103207629Y-48549382D01*
X103213576Y-48559724D01*
X103328968Y-48722397D01*
X103336761Y-48731425D01*
X103480831Y-48869342D01*
X103490196Y-48876738D01*
X103632423Y-48968573D01*
X103678801Y-49022328D01*
X103688754Y-49092624D01*
X103659122Y-49157141D01*
X103608304Y-49192407D01*
X103580236Y-49202929D01*
X103573057Y-49208309D01*
X103573054Y-49208311D01*
X103485023Y-49274287D01*
X103464596Y-49289596D01*
X103459215Y-49296776D01*
X103383311Y-49398054D01*
X103383309Y-49398057D01*
X103377929Y-49405236D01*
X103327202Y-49540552D01*
X103326349Y-49548402D01*
X103326349Y-49548403D01*
X103322807Y-49581012D01*
X103320500Y-49602244D01*
X103320500Y-50397756D01*
X103320869Y-50401152D01*
X103320869Y-50401153D01*
X103322925Y-50420074D01*
X103327202Y-50459448D01*
X103377929Y-50594764D01*
X103383309Y-50601943D01*
X103383311Y-50601946D01*
X103416328Y-50646000D01*
X103464596Y-50710404D01*
X103471776Y-50715785D01*
X103573054Y-50791689D01*
X103573057Y-50791691D01*
X103580236Y-50797071D01*
X103669954Y-50830704D01*
X103708157Y-50845026D01*
X103708159Y-50845026D01*
X103715552Y-50847798D01*
X103723402Y-50848651D01*
X103723403Y-50848651D01*
X103773847Y-50854131D01*
X103777244Y-50854500D01*
X104574195Y-50854500D01*
X104642316Y-50874502D01*
X104663290Y-50891405D01*
X104962981Y-51191096D01*
X104970032Y-51199921D01*
X104970479Y-51199541D01*
X104976297Y-51206377D01*
X104981087Y-51213969D01*
X104987816Y-51219912D01*
X105018973Y-51247429D01*
X105024660Y-51252775D01*
X105035289Y-51263404D01*
X105038877Y-51266093D01*
X105042952Y-51269148D01*
X105050783Y-51275524D01*
X105071048Y-51293421D01*
X105084036Y-51304891D01*
X105092164Y-51308707D01*
X105097142Y-51311977D01*
X105104965Y-51316678D01*
X105110184Y-51319535D01*
X105117365Y-51324917D01*
X105158900Y-51340488D01*
X105168201Y-51344407D01*
X105208366Y-51363264D01*
X105217233Y-51364645D01*
X105222909Y-51366380D01*
X105231786Y-51368708D01*
X105237572Y-51369980D01*
X105245975Y-51373130D01*
X105268924Y-51374836D01*
X105290200Y-51376417D01*
X105300237Y-51377568D01*
X105312643Y-51379500D01*
X105319500Y-51379500D01*
X105320213Y-51379710D01*
X105322365Y-51379876D01*
X105322330Y-51380331D01*
X105387621Y-51399502D01*
X105434114Y-51453158D01*
X105445500Y-51505500D01*
X105445501Y-52062239D01*
X105445501Y-52625066D01*
X105460266Y-52699301D01*
X105467161Y-52709620D01*
X105467162Y-52709622D01*
X105507516Y-52770015D01*
X105516516Y-52783484D01*
X105600699Y-52839734D01*
X105674933Y-52854500D01*
X106299898Y-52854500D01*
X106925066Y-52854499D01*
X106960818Y-52847388D01*
X106987126Y-52842156D01*
X106987128Y-52842155D01*
X106999301Y-52839734D01*
X107009621Y-52832839D01*
X107009622Y-52832838D01*
X107073168Y-52790377D01*
X107083484Y-52783484D01*
X107139734Y-52699301D01*
X107154500Y-52625067D01*
X107154499Y-51505500D01*
X107174501Y-51437379D01*
X107228157Y-51390886D01*
X107280499Y-51379500D01*
X107403709Y-51379500D01*
X107471830Y-51399502D01*
X107518323Y-51453158D01*
X107526291Y-51476353D01*
X107526349Y-51476598D01*
X107527202Y-51484448D01*
X107577929Y-51619764D01*
X107583309Y-51626943D01*
X107583311Y-51626946D01*
X107630999Y-51690576D01*
X107664596Y-51735404D01*
X107671776Y-51740785D01*
X107773054Y-51816689D01*
X107773057Y-51816691D01*
X107780236Y-51822071D01*
X107788638Y-51825221D01*
X107788642Y-51825223D01*
X107788731Y-51825256D01*
X107788806Y-51825313D01*
X107796515Y-51829533D01*
X107795906Y-51830646D01*
X107845495Y-51867898D01*
X107870194Y-51934460D01*
X107870500Y-51943237D01*
X107870500Y-52075443D01*
X107856767Y-52132645D01*
X107810502Y-52223445D01*
X107795500Y-52318166D01*
X107795500Y-53406834D01*
X107810502Y-53501555D01*
X107868674Y-53615723D01*
X107959277Y-53706326D01*
X108073445Y-53764498D01*
X108168166Y-53779500D01*
X108531834Y-53779500D01*
X108536719Y-53778726D01*
X108536736Y-53778725D01*
X108547949Y-53776949D01*
X108618359Y-53786050D01*
X108656750Y-53812303D01*
X108737896Y-53893449D01*
X108750322Y-53903089D01*
X108879779Y-53979648D01*
X108894210Y-53985893D01*
X109028605Y-54024939D01*
X109042706Y-54024899D01*
X109046000Y-54017630D01*
X109046000Y-52734500D01*
X109066002Y-52666379D01*
X109119658Y-52619886D01*
X109172000Y-52608500D01*
X109428000Y-52608500D01*
X109496121Y-52628502D01*
X109542614Y-52682158D01*
X109554000Y-52734500D01*
X109554000Y-54011878D01*
X109557973Y-54025409D01*
X109565871Y-54026544D01*
X109705790Y-53985893D01*
X109720221Y-53979648D01*
X109849678Y-53903089D01*
X109862104Y-53893449D01*
X109943250Y-53812303D01*
X110005562Y-53778277D01*
X110052051Y-53776949D01*
X110063264Y-53778725D01*
X110063281Y-53778726D01*
X110068166Y-53779500D01*
X110431834Y-53779500D01*
X110526555Y-53764498D01*
X110640723Y-53706326D01*
X110731326Y-53615723D01*
X110789498Y-53501555D01*
X110791995Y-53485789D01*
X110822408Y-53421636D01*
X110882676Y-53384109D01*
X110916444Y-53379500D01*
X111083573Y-53379500D01*
X111131790Y-53389091D01*
X111255246Y-53440228D01*
X111400000Y-53459285D01*
X111408188Y-53458207D01*
X111536566Y-53441306D01*
X111544754Y-53440228D01*
X111679643Y-53384355D01*
X111686196Y-53379327D01*
X111788921Y-53300503D01*
X111788924Y-53300500D01*
X111795474Y-53295474D01*
X111884355Y-53179642D01*
X111940228Y-53044754D01*
X111959285Y-52900000D01*
X111943946Y-52783484D01*
X111941306Y-52763432D01*
X111941305Y-52763430D01*
X111940228Y-52755246D01*
X111912012Y-52687128D01*
X111887515Y-52627986D01*
X111887514Y-52627984D01*
X111884355Y-52620358D01*
X111795474Y-52504526D01*
X111788924Y-52499500D01*
X111788921Y-52499497D01*
X111686196Y-52420673D01*
X111686194Y-52420672D01*
X111679643Y-52415645D01*
X111544754Y-52359772D01*
X111400000Y-52340715D01*
X111391812Y-52341793D01*
X111263432Y-52358694D01*
X111263430Y-52358695D01*
X111255246Y-52359772D01*
X111156926Y-52400498D01*
X111131792Y-52410909D01*
X111083573Y-52420500D01*
X110928322Y-52420500D01*
X110860201Y-52400498D01*
X110813708Y-52346842D01*
X110803873Y-52314210D01*
X110796782Y-52269438D01*
X110805882Y-52199027D01*
X110851604Y-52144713D01*
X110908229Y-52124401D01*
X110924205Y-52122744D01*
X110937600Y-52119851D01*
X111091784Y-52068412D01*
X111104962Y-52062239D01*
X111242807Y-51976937D01*
X111254208Y-51967901D01*
X111368739Y-51853171D01*
X111377751Y-51841760D01*
X111462816Y-51703757D01*
X111468963Y-51690576D01*
X111520138Y-51536290D01*
X111523005Y-51522914D01*
X111532672Y-51428562D01*
X111533000Y-51422146D01*
X111533000Y-51172115D01*
X111528525Y-51156876D01*
X111527135Y-51155671D01*
X111519452Y-51154000D01*
X110309500Y-51154000D01*
X110241379Y-51133998D01*
X110194886Y-51080342D01*
X110183500Y-51028000D01*
X110183500Y-50627885D01*
X110691500Y-50627885D01*
X110695975Y-50643124D01*
X110697365Y-50644329D01*
X110705048Y-50646000D01*
X111514884Y-50646000D01*
X111530123Y-50641525D01*
X111531328Y-50640135D01*
X111532999Y-50632452D01*
X111532999Y-50377905D01*
X111532662Y-50371386D01*
X111522743Y-50275794D01*
X111519851Y-50262400D01*
X111468412Y-50108216D01*
X111462239Y-50095038D01*
X111376937Y-49957193D01*
X111367901Y-49945792D01*
X111253171Y-49831261D01*
X111241760Y-49822249D01*
X111103757Y-49737184D01*
X111090576Y-49731037D01*
X110936290Y-49679862D01*
X110922914Y-49676995D01*
X110828562Y-49667328D01*
X110822145Y-49667000D01*
X110709615Y-49667000D01*
X110694376Y-49671475D01*
X110693171Y-49672865D01*
X110691500Y-49680548D01*
X110691500Y-50627885D01*
X110183500Y-50627885D01*
X110183500Y-49685116D01*
X110179025Y-49669877D01*
X110177635Y-49668672D01*
X110169952Y-49667001D01*
X110052905Y-49667001D01*
X110046386Y-49667338D01*
X109950794Y-49677257D01*
X109937400Y-49680149D01*
X109783216Y-49731588D01*
X109770038Y-49737761D01*
X109632193Y-49823063D01*
X109620792Y-49832099D01*
X109506261Y-49946829D01*
X109497249Y-49958240D01*
X109412184Y-50096243D01*
X109406036Y-50109426D01*
X109384283Y-50175010D01*
X109343853Y-50233370D01*
X109278288Y-50260607D01*
X109208407Y-50248074D01*
X109154170Y-50195853D01*
X109150221Y-50188640D01*
X109147071Y-50180236D01*
X109136804Y-50166536D01*
X109065785Y-50071776D01*
X109060404Y-50064596D01*
X109029591Y-50041503D01*
X108951946Y-49983311D01*
X108951943Y-49983309D01*
X108944764Y-49977929D01*
X108923769Y-49970059D01*
X108867006Y-49927417D01*
X108842306Y-49860856D01*
X108842000Y-49852077D01*
X108842000Y-49370404D01*
X111742239Y-49370404D01*
X111742751Y-49375973D01*
X111745361Y-49389006D01*
X111789439Y-49529661D01*
X111795645Y-49543406D01*
X111871533Y-49668711D01*
X111880840Y-49680580D01*
X111984420Y-49784160D01*
X111996289Y-49793467D01*
X112121594Y-49869355D01*
X112135339Y-49875561D01*
X112275989Y-49919637D01*
X112289036Y-49922250D01*
X112330459Y-49926056D01*
X112345336Y-49923134D01*
X112348500Y-49911240D01*
X112348500Y-49372115D01*
X112344025Y-49356876D01*
X112342635Y-49355671D01*
X112334952Y-49354000D01*
X111758847Y-49354000D01*
X111744302Y-49358271D01*
X111742239Y-49370404D01*
X108842000Y-49370404D01*
X108842000Y-48827961D01*
X111742389Y-48827961D01*
X111745312Y-48842835D01*
X111757207Y-48846000D01*
X112330385Y-48846000D01*
X112345624Y-48841525D01*
X112346829Y-48840135D01*
X112348500Y-48832452D01*
X112348500Y-48272115D01*
X112344025Y-48256876D01*
X112342635Y-48255671D01*
X112334952Y-48254000D01*
X111779342Y-48254000D01*
X111764797Y-48258271D01*
X111762752Y-48270302D01*
X111765313Y-48283088D01*
X111809029Y-48422589D01*
X111815236Y-48436335D01*
X111832608Y-48465020D01*
X111850787Y-48533649D01*
X111832607Y-48595563D01*
X111795647Y-48656591D01*
X111789439Y-48670339D01*
X111745361Y-48810994D01*
X111742751Y-48824027D01*
X111742389Y-48827961D01*
X108842000Y-48827961D01*
X108842000Y-47728503D01*
X111762991Y-47728503D01*
X111765806Y-47742835D01*
X111777702Y-47746000D01*
X112360385Y-47746000D01*
X112375624Y-47741525D01*
X112376829Y-47740135D01*
X112378500Y-47732452D01*
X112378500Y-47200115D01*
X112374025Y-47184876D01*
X112372635Y-47183671D01*
X112365814Y-47182187D01*
X112364112Y-47182266D01*
X112304954Y-47187702D01*
X112291904Y-47190315D01*
X112152411Y-47234029D01*
X112138666Y-47240235D01*
X112014396Y-47315496D01*
X112002527Y-47324803D01*
X111899803Y-47427527D01*
X111890496Y-47439396D01*
X111815235Y-47563666D01*
X111809029Y-47577411D01*
X111765313Y-47716912D01*
X111762991Y-47728503D01*
X108842000Y-47728503D01*
X108842000Y-42488305D01*
X108862002Y-42420184D01*
X108878905Y-42399210D01*
X110096230Y-41181885D01*
X110158542Y-41147859D01*
X110185325Y-41144980D01*
X113684500Y-41144980D01*
X113752621Y-41164982D01*
X113799114Y-41218638D01*
X113810500Y-41270980D01*
X113810500Y-41291695D01*
X113790498Y-41359816D01*
X113773595Y-41380790D01*
X113533904Y-41620481D01*
X113525079Y-41627532D01*
X113525459Y-41627979D01*
X113518623Y-41633797D01*
X113511031Y-41638587D01*
X113505088Y-41645316D01*
X113477571Y-41676473D01*
X113472225Y-41682160D01*
X113461596Y-41692789D01*
X113458907Y-41696377D01*
X113455852Y-41700452D01*
X113449476Y-41708283D01*
X113431579Y-41728548D01*
X113420109Y-41741536D01*
X113416293Y-41749664D01*
X113413023Y-41754642D01*
X113408322Y-41762465D01*
X113405465Y-41767684D01*
X113400083Y-41774865D01*
X113391149Y-41798698D01*
X113384514Y-41816396D01*
X113380593Y-41825701D01*
X113361736Y-41865866D01*
X113360355Y-41874733D01*
X113358620Y-41880409D01*
X113356292Y-41889286D01*
X113355020Y-41895072D01*
X113351870Y-41903475D01*
X113351205Y-41912425D01*
X113348583Y-41947700D01*
X113347432Y-41957737D01*
X113345500Y-41970143D01*
X113345500Y-41984510D01*
X113345154Y-41993848D01*
X113341691Y-42040448D01*
X113343564Y-42049224D01*
X113344175Y-42058181D01*
X113344085Y-42058187D01*
X113345500Y-42071591D01*
X113345500Y-42114500D01*
X113325498Y-42182621D01*
X113271842Y-42229114D01*
X113219500Y-42240500D01*
X112968166Y-42240500D01*
X112873445Y-42255502D01*
X112759277Y-42313674D01*
X112668674Y-42404277D01*
X112610502Y-42518445D01*
X112595500Y-42613166D01*
X112595500Y-42976834D01*
X112610502Y-43071555D01*
X112668674Y-43185723D01*
X112759277Y-43276326D01*
X112834687Y-43314750D01*
X112840542Y-43317733D01*
X112892157Y-43366482D01*
X112909223Y-43435397D01*
X112886322Y-43502598D01*
X112840543Y-43542266D01*
X112782647Y-43571766D01*
X112725443Y-43585500D01*
X112472527Y-43585500D01*
X112407639Y-43566447D01*
X112406674Y-43565482D01*
X112289684Y-43505873D01*
X112279895Y-43504322D01*
X112279893Y-43504322D01*
X112252120Y-43499923D01*
X112192623Y-43490500D01*
X112118305Y-43490500D01*
X112050184Y-43470498D01*
X112029210Y-43453595D01*
X111084519Y-42508904D01*
X111077468Y-42500079D01*
X111077021Y-42500459D01*
X111071203Y-42493623D01*
X111066413Y-42486031D01*
X111028527Y-42452571D01*
X111022840Y-42447225D01*
X111012211Y-42436596D01*
X111007336Y-42432942D01*
X111004548Y-42430852D01*
X110996717Y-42424476D01*
X110970193Y-42401052D01*
X110963464Y-42395109D01*
X110955336Y-42391293D01*
X110950358Y-42388023D01*
X110942535Y-42383322D01*
X110937316Y-42380465D01*
X110930135Y-42375083D01*
X110888600Y-42359512D01*
X110879299Y-42355593D01*
X110839134Y-42336736D01*
X110830267Y-42335355D01*
X110824591Y-42333620D01*
X110807741Y-42329200D01*
X110801530Y-42326872D01*
X110801943Y-42325771D01*
X110783529Y-42318627D01*
X110779643Y-42315645D01*
X110772017Y-42312486D01*
X110772015Y-42312485D01*
X110652383Y-42262932D01*
X110644754Y-42259772D01*
X110500000Y-42240715D01*
X110491812Y-42241793D01*
X110363432Y-42258694D01*
X110363430Y-42258695D01*
X110355246Y-42259772D01*
X110341461Y-42265482D01*
X110227986Y-42312485D01*
X110227984Y-42312486D01*
X110220358Y-42315645D01*
X110104526Y-42404526D01*
X110015645Y-42520358D01*
X109959772Y-42655246D01*
X109940715Y-42800000D01*
X109959772Y-42944754D01*
X109979578Y-42992570D01*
X110008239Y-43061762D01*
X110015645Y-43079642D01*
X110104526Y-43195474D01*
X110111076Y-43200500D01*
X110111079Y-43200503D01*
X110209893Y-43276326D01*
X110220357Y-43284355D01*
X110355246Y-43340228D01*
X110500000Y-43359285D01*
X110508188Y-43358207D01*
X110516446Y-43358207D01*
X110516446Y-43359574D01*
X110578061Y-43369182D01*
X110613455Y-43394070D01*
X111388596Y-44169211D01*
X111422622Y-44231523D01*
X111425501Y-44258306D01*
X111425501Y-44332622D01*
X111440873Y-44429684D01*
X111445376Y-44438521D01*
X111445376Y-44438522D01*
X111454140Y-44455723D01*
X111500482Y-44546674D01*
X111564713Y-44610905D01*
X111598739Y-44673217D01*
X111593674Y-44744032D01*
X111564713Y-44789095D01*
X111500482Y-44853326D01*
X111440873Y-44970316D01*
X111425500Y-45067377D01*
X111425501Y-45527622D01*
X111426276Y-45532515D01*
X111438794Y-45611555D01*
X111440873Y-45624684D01*
X111500482Y-45741674D01*
X111508034Y-45749226D01*
X111508688Y-45750329D01*
X111513321Y-45756706D01*
X111512724Y-45757140D01*
X111533250Y-45791776D01*
X111535041Y-45790962D01*
X111535041Y-45790963D01*
X111553404Y-45831349D01*
X111557210Y-45840701D01*
X111569223Y-45873979D01*
X111569225Y-45873983D01*
X111572273Y-45882426D01*
X111577572Y-45889679D01*
X111580363Y-45894928D01*
X111584968Y-45902810D01*
X111588174Y-45907824D01*
X111591890Y-45915996D01*
X111597749Y-45922796D01*
X111597750Y-45922797D01*
X111620838Y-45949591D01*
X111627126Y-45957510D01*
X111634527Y-45967641D01*
X111644683Y-45977797D01*
X111651040Y-45984643D01*
X111681547Y-46020048D01*
X111689074Y-46024927D01*
X111695844Y-46030833D01*
X111695785Y-46030900D01*
X111706265Y-46039379D01*
X112562986Y-46896101D01*
X112570033Y-46904921D01*
X112570480Y-46904541D01*
X112576297Y-46911376D01*
X112581088Y-46918969D01*
X112599284Y-46935039D01*
X112618965Y-46952421D01*
X112624652Y-46957767D01*
X112635289Y-46968404D01*
X112638875Y-46971092D01*
X112638879Y-46971095D01*
X112642951Y-46974147D01*
X112650794Y-46980532D01*
X112666052Y-46994007D01*
X112670890Y-46998280D01*
X112676576Y-47003625D01*
X112759277Y-47086326D01*
X112768109Y-47090826D01*
X112768112Y-47090828D01*
X112817704Y-47116097D01*
X112869318Y-47164845D01*
X112886500Y-47228363D01*
X112886500Y-48784176D01*
X112866498Y-48852297D01*
X112858308Y-48863238D01*
X112856500Y-48871548D01*
X112856500Y-49909598D01*
X112860771Y-49924143D01*
X112872904Y-49926206D01*
X112915973Y-49922249D01*
X112929006Y-49919639D01*
X113069661Y-49875561D01*
X113083406Y-49869355D01*
X113208711Y-49793467D01*
X113220580Y-49784160D01*
X113322974Y-49681766D01*
X113385286Y-49647740D01*
X113451748Y-49652494D01*
X113452051Y-49651561D01*
X113455817Y-49652785D01*
X113456101Y-49652805D01*
X113456727Y-49653081D01*
X113461482Y-49654626D01*
X113470316Y-49659127D01*
X113567377Y-49674500D01*
X113641695Y-49674500D01*
X113709816Y-49694502D01*
X113730790Y-49711405D01*
X114483595Y-50464210D01*
X114517621Y-50526522D01*
X114520500Y-50553305D01*
X114520500Y-57797391D01*
X114500498Y-57865512D01*
X114446842Y-57912005D01*
X114438735Y-57915371D01*
X114405236Y-57927929D01*
X114398057Y-57933309D01*
X114398054Y-57933311D01*
X114342007Y-57975316D01*
X114289596Y-58014596D01*
X114284215Y-58021776D01*
X114208311Y-58123054D01*
X114208309Y-58123057D01*
X114202929Y-58130236D01*
X114152202Y-58265552D01*
X114145500Y-58327244D01*
X114145500Y-59672756D01*
X114145869Y-59676152D01*
X114145869Y-59676153D01*
X114149990Y-59714082D01*
X114152202Y-59734448D01*
X114202929Y-59869764D01*
X114208309Y-59876943D01*
X114208311Y-59876946D01*
X114257403Y-59942449D01*
X114289596Y-59985404D01*
X114296776Y-59990785D01*
X114398054Y-60066689D01*
X114398057Y-60066691D01*
X114405236Y-60072071D01*
X114490384Y-60103991D01*
X114533157Y-60120026D01*
X114533159Y-60120026D01*
X114540552Y-60122798D01*
X114548402Y-60123651D01*
X114548403Y-60123651D01*
X114550134Y-60123839D01*
X114602244Y-60129500D01*
X115397756Y-60129500D01*
X115449866Y-60123839D01*
X115451597Y-60123651D01*
X115451598Y-60123651D01*
X115459448Y-60122798D01*
X115466841Y-60120026D01*
X115466843Y-60120026D01*
X115509616Y-60103991D01*
X115594764Y-60072071D01*
X115601943Y-60066691D01*
X115601946Y-60066689D01*
X115703224Y-59990785D01*
X115710404Y-59985404D01*
X115742597Y-59942449D01*
X115791689Y-59876946D01*
X115791691Y-59876943D01*
X115797071Y-59869764D01*
X115847798Y-59734448D01*
X115850011Y-59714082D01*
X115854131Y-59676153D01*
X115854131Y-59676152D01*
X115854500Y-59672756D01*
X115854500Y-58327244D01*
X115847798Y-58265552D01*
X115797071Y-58130236D01*
X115791691Y-58123057D01*
X115791689Y-58123054D01*
X115715785Y-58021776D01*
X115710404Y-58014596D01*
X115657993Y-57975316D01*
X115601946Y-57933311D01*
X115601943Y-57933309D01*
X115594764Y-57927929D01*
X115561270Y-57915373D01*
X115504506Y-57872731D01*
X115479806Y-57806170D01*
X115479500Y-57797391D01*
X115479500Y-50370325D01*
X115480754Y-50359100D01*
X115480170Y-50359053D01*
X115480890Y-50350107D01*
X115482871Y-50341351D01*
X115479742Y-50290916D01*
X115479500Y-50283115D01*
X115479500Y-50268069D01*
X115478689Y-50262400D01*
X115478143Y-50258592D01*
X115477113Y-50248537D01*
X115474922Y-50213226D01*
X115474366Y-50204264D01*
X115471318Y-50195820D01*
X115470106Y-50189969D01*
X115467908Y-50181156D01*
X115466232Y-50175423D01*
X115464959Y-50166536D01*
X115446598Y-50126154D01*
X115442800Y-50116825D01*
X115427728Y-50075073D01*
X115422433Y-50067825D01*
X115419646Y-50062583D01*
X115415046Y-50054711D01*
X115411826Y-50049676D01*
X115408110Y-50041503D01*
X115379161Y-50007905D01*
X115372879Y-49999994D01*
X115368346Y-49993790D01*
X115368344Y-49993788D01*
X115365473Y-49989858D01*
X115355317Y-49979702D01*
X115348959Y-49972855D01*
X115324310Y-49944248D01*
X115324309Y-49944247D01*
X115318453Y-49937451D01*
X115310926Y-49932572D01*
X115304156Y-49926666D01*
X115304215Y-49926599D01*
X115293734Y-49918119D01*
X114446404Y-49070789D01*
X114412378Y-49008477D01*
X114409499Y-48981694D01*
X114409499Y-48907378D01*
X114404646Y-48876738D01*
X114395679Y-48820114D01*
X114395678Y-48820112D01*
X114394127Y-48810316D01*
X114334518Y-48693326D01*
X114313905Y-48672713D01*
X114279879Y-48610401D01*
X114277000Y-48583618D01*
X114277000Y-48489310D01*
X114297002Y-48421189D01*
X114302854Y-48413927D01*
X114302583Y-48413730D01*
X114308410Y-48405710D01*
X114315422Y-48398698D01*
X114374312Y-48283120D01*
X114378660Y-48255671D01*
X114380337Y-48245079D01*
X114389500Y-48187226D01*
X114389500Y-47812774D01*
X114378924Y-47746000D01*
X114375863Y-47726671D01*
X114375862Y-47726669D01*
X114374312Y-47716880D01*
X114315422Y-47601302D01*
X114283905Y-47569785D01*
X114249879Y-47507473D01*
X114247000Y-47480690D01*
X114247000Y-47285500D01*
X114267002Y-47217379D01*
X114320658Y-47170886D01*
X114373000Y-47159500D01*
X114681834Y-47159500D01*
X114776555Y-47144498D01*
X114890723Y-47086326D01*
X114981326Y-46995723D01*
X115039498Y-46881555D01*
X115041190Y-46870871D01*
X117298456Y-46870871D01*
X117339107Y-47010790D01*
X117345352Y-47025221D01*
X117421911Y-47154678D01*
X117431551Y-47167104D01*
X117537896Y-47273449D01*
X117550322Y-47283089D01*
X117679779Y-47359648D01*
X117694210Y-47365893D01*
X117840065Y-47408269D01*
X117852667Y-47410570D01*
X117881084Y-47412807D01*
X117886014Y-47413000D01*
X118502885Y-47413000D01*
X118518124Y-47408525D01*
X118519329Y-47407135D01*
X118521000Y-47399452D01*
X118521000Y-47394884D01*
X119029000Y-47394884D01*
X119033475Y-47410123D01*
X119034865Y-47411328D01*
X119042548Y-47412999D01*
X119663984Y-47412999D01*
X119668920Y-47412805D01*
X119697336Y-47410570D01*
X119709931Y-47408270D01*
X119855790Y-47365893D01*
X119870221Y-47359648D01*
X119999675Y-47283090D01*
X120001939Y-47281334D01*
X120004038Y-47280510D01*
X120006498Y-47279055D01*
X120006733Y-47279452D01*
X120068025Y-47255388D01*
X120137647Y-47269290D01*
X120144435Y-47273119D01*
X120163662Y-47284763D01*
X120177411Y-47290971D01*
X120316912Y-47334687D01*
X120328503Y-47337009D01*
X120342835Y-47334194D01*
X120346000Y-47322298D01*
X120346000Y-47320658D01*
X120854000Y-47320658D01*
X120858271Y-47335203D01*
X120870302Y-47337248D01*
X120883088Y-47334687D01*
X121022589Y-47290971D01*
X121036335Y-47284764D01*
X121065020Y-47267392D01*
X121133649Y-47249213D01*
X121195563Y-47267393D01*
X121256591Y-47304353D01*
X121270339Y-47310561D01*
X121410994Y-47354639D01*
X121424027Y-47357249D01*
X121427961Y-47357611D01*
X121442835Y-47354688D01*
X121446000Y-47342793D01*
X121446000Y-47341153D01*
X121954000Y-47341153D01*
X121958271Y-47355698D01*
X121970404Y-47357761D01*
X121975973Y-47357249D01*
X121989006Y-47354639D01*
X122129661Y-47310561D01*
X122143406Y-47304355D01*
X122268711Y-47228467D01*
X122280580Y-47219160D01*
X122384160Y-47115580D01*
X122393467Y-47103711D01*
X122469355Y-46978406D01*
X122475561Y-46964661D01*
X122519637Y-46824011D01*
X122522250Y-46810964D01*
X122526056Y-46769541D01*
X122523134Y-46754664D01*
X122511240Y-46751500D01*
X121972115Y-46751500D01*
X121956876Y-46755975D01*
X121955671Y-46757365D01*
X121954000Y-46765048D01*
X121954000Y-47341153D01*
X121446000Y-47341153D01*
X121446000Y-46769615D01*
X121441525Y-46754376D01*
X121440135Y-46753171D01*
X121432452Y-46751500D01*
X120872115Y-46751500D01*
X120856876Y-46755975D01*
X120855671Y-46757365D01*
X120854000Y-46765048D01*
X120854000Y-47320658D01*
X120346000Y-47320658D01*
X120346000Y-46739615D01*
X120341525Y-46724376D01*
X120340135Y-46723171D01*
X120332452Y-46721500D01*
X120316115Y-46721500D01*
X120300876Y-46725975D01*
X120299671Y-46727365D01*
X120295121Y-46748283D01*
X120293609Y-46747954D01*
X120277998Y-46801121D01*
X120224342Y-46847614D01*
X120172000Y-46859000D01*
X119047115Y-46859000D01*
X119031876Y-46863475D01*
X119030671Y-46864865D01*
X119029000Y-46872548D01*
X119029000Y-47394884D01*
X118521000Y-47394884D01*
X118521000Y-46877115D01*
X118516525Y-46861876D01*
X118515135Y-46860671D01*
X118507452Y-46859000D01*
X117313122Y-46859000D01*
X117299591Y-46862973D01*
X117298456Y-46870871D01*
X115041190Y-46870871D01*
X115054500Y-46786834D01*
X115054500Y-46423166D01*
X115040315Y-46333605D01*
X117300061Y-46333605D01*
X117300101Y-46347706D01*
X117307370Y-46351000D01*
X119723885Y-46351000D01*
X119739124Y-46346525D01*
X119740329Y-46345135D01*
X119744879Y-46324217D01*
X119746391Y-46324546D01*
X119762002Y-46271379D01*
X119815658Y-46224886D01*
X119868000Y-46213500D01*
X121384176Y-46213500D01*
X121452297Y-46233502D01*
X121463238Y-46241692D01*
X121471548Y-46243500D01*
X122509598Y-46243500D01*
X122524143Y-46239229D01*
X122526206Y-46227094D01*
X122525439Y-46218741D01*
X122539127Y-46149076D01*
X122588305Y-46097870D01*
X122657360Y-46081381D01*
X122724368Y-46104844D01*
X122740006Y-46118121D01*
X126483595Y-49861710D01*
X126517621Y-49924022D01*
X126520500Y-49950805D01*
X126520500Y-57797391D01*
X126500498Y-57865512D01*
X126446842Y-57912005D01*
X126438735Y-57915371D01*
X126405236Y-57927929D01*
X126398057Y-57933309D01*
X126398054Y-57933311D01*
X126342007Y-57975316D01*
X126289596Y-58014596D01*
X126284215Y-58021776D01*
X126208311Y-58123054D01*
X126208309Y-58123057D01*
X126202929Y-58130236D01*
X126152202Y-58265552D01*
X126145500Y-58327244D01*
X126145500Y-59672756D01*
X126145869Y-59676152D01*
X126145869Y-59676153D01*
X126149990Y-59714082D01*
X126152202Y-59734448D01*
X126202929Y-59869764D01*
X126208309Y-59876943D01*
X126208311Y-59876946D01*
X126257403Y-59942449D01*
X126289596Y-59985404D01*
X126296776Y-59990785D01*
X126398054Y-60066689D01*
X126398057Y-60066691D01*
X126405236Y-60072071D01*
X126490384Y-60103991D01*
X126533157Y-60120026D01*
X126533159Y-60120026D01*
X126540552Y-60122798D01*
X126548402Y-60123651D01*
X126548403Y-60123651D01*
X126550134Y-60123839D01*
X126602244Y-60129500D01*
X127397756Y-60129500D01*
X127449866Y-60123839D01*
X127451597Y-60123651D01*
X127451598Y-60123651D01*
X127459448Y-60122798D01*
X127466841Y-60120026D01*
X127466843Y-60120026D01*
X127509616Y-60103991D01*
X127594764Y-60072071D01*
X127601943Y-60066691D01*
X127601946Y-60066689D01*
X127703224Y-59990785D01*
X127710404Y-59985404D01*
X127742597Y-59942449D01*
X127791689Y-59876946D01*
X127791691Y-59876943D01*
X127797071Y-59869764D01*
X127847798Y-59734448D01*
X127850011Y-59714082D01*
X127854131Y-59676153D01*
X127854131Y-59676152D01*
X127854500Y-59672756D01*
X127854500Y-58327244D01*
X127847798Y-58265552D01*
X127797071Y-58130236D01*
X127791691Y-58123057D01*
X127791689Y-58123054D01*
X127715785Y-58021776D01*
X127710404Y-58014596D01*
X127657993Y-57975316D01*
X127601946Y-57933311D01*
X127601943Y-57933309D01*
X127594764Y-57927929D01*
X127561270Y-57915373D01*
X127504506Y-57872731D01*
X127479806Y-57806170D01*
X127479500Y-57797391D01*
X127479500Y-49767826D01*
X127480754Y-49756601D01*
X127480170Y-49756554D01*
X127480890Y-49747608D01*
X127482871Y-49738852D01*
X127479742Y-49688416D01*
X127479500Y-49680615D01*
X127479500Y-49665569D01*
X127478578Y-49659127D01*
X127478143Y-49656092D01*
X127477113Y-49646037D01*
X127474922Y-49610726D01*
X127474366Y-49601764D01*
X127471318Y-49593320D01*
X127470106Y-49587469D01*
X127467908Y-49578656D01*
X127466232Y-49572923D01*
X127464959Y-49564036D01*
X127446598Y-49523654D01*
X127442800Y-49514325D01*
X127427728Y-49472573D01*
X127422433Y-49465325D01*
X127419646Y-49460083D01*
X127415046Y-49452211D01*
X127411826Y-49447176D01*
X127408110Y-49439003D01*
X127395268Y-49424099D01*
X127379161Y-49405405D01*
X127372879Y-49397494D01*
X127368346Y-49391290D01*
X127368344Y-49391288D01*
X127365473Y-49387358D01*
X127355317Y-49377202D01*
X127349005Y-49370404D01*
X135742239Y-49370404D01*
X135742751Y-49375973D01*
X135745361Y-49389006D01*
X135789439Y-49529661D01*
X135795645Y-49543406D01*
X135871533Y-49668711D01*
X135880840Y-49680580D01*
X135984420Y-49784160D01*
X135996289Y-49793467D01*
X136121594Y-49869355D01*
X136135339Y-49875561D01*
X136275989Y-49919637D01*
X136289036Y-49922250D01*
X136330459Y-49926056D01*
X136345336Y-49923134D01*
X136348500Y-49911240D01*
X136348500Y-49372115D01*
X136344025Y-49356876D01*
X136342635Y-49355671D01*
X136334952Y-49354000D01*
X135758847Y-49354000D01*
X135744302Y-49358271D01*
X135742239Y-49370404D01*
X127349005Y-49370404D01*
X127348959Y-49370355D01*
X127324310Y-49341748D01*
X127324309Y-49341747D01*
X127318453Y-49334951D01*
X127310926Y-49330072D01*
X127304156Y-49324166D01*
X127304215Y-49324099D01*
X127293734Y-49315619D01*
X126806076Y-48827961D01*
X135742389Y-48827961D01*
X135745312Y-48842835D01*
X135757207Y-48846000D01*
X136330385Y-48846000D01*
X136345624Y-48841525D01*
X136346829Y-48840135D01*
X136348500Y-48832452D01*
X136348500Y-48272115D01*
X136344025Y-48256876D01*
X136342635Y-48255671D01*
X136334952Y-48254000D01*
X135779342Y-48254000D01*
X135764797Y-48258271D01*
X135762752Y-48270302D01*
X135765313Y-48283088D01*
X135809029Y-48422589D01*
X135815236Y-48436335D01*
X135832608Y-48465020D01*
X135850787Y-48533649D01*
X135832607Y-48595563D01*
X135795647Y-48656591D01*
X135789439Y-48670339D01*
X135745361Y-48810994D01*
X135742751Y-48824027D01*
X135742389Y-48827961D01*
X126806076Y-48827961D01*
X125706618Y-47728503D01*
X135762991Y-47728503D01*
X135765806Y-47742835D01*
X135777702Y-47746000D01*
X136360385Y-47746000D01*
X136375624Y-47741525D01*
X136376829Y-47740135D01*
X136378500Y-47732452D01*
X136378500Y-47200115D01*
X136374025Y-47184876D01*
X136372635Y-47183671D01*
X136365814Y-47182187D01*
X136364112Y-47182266D01*
X136304954Y-47187702D01*
X136291904Y-47190315D01*
X136152411Y-47234029D01*
X136138666Y-47240235D01*
X136014396Y-47315496D01*
X136002527Y-47324803D01*
X135899803Y-47427527D01*
X135890496Y-47439396D01*
X135815235Y-47563666D01*
X135809029Y-47577411D01*
X135765313Y-47716912D01*
X135762991Y-47728503D01*
X125706618Y-47728503D01*
X122944905Y-44966790D01*
X122944362Y-44966244D01*
X122892887Y-44914136D01*
X122868933Y-44900831D01*
X122854553Y-44891510D01*
X122846107Y-44885180D01*
X122832635Y-44875083D01*
X122810461Y-44866770D01*
X122793517Y-44858941D01*
X122780665Y-44851802D01*
X122780664Y-44851801D01*
X122772815Y-44847442D01*
X122746085Y-44841394D01*
X122739597Y-44839453D01*
X122739134Y-44839236D01*
X122738584Y-44839150D01*
X122729678Y-44836487D01*
X122704025Y-44826870D01*
X122680418Y-44825116D01*
X122661950Y-44822356D01*
X122638852Y-44817129D01*
X122611510Y-44818825D01*
X122594373Y-44818721D01*
X122592260Y-44818564D01*
X122567052Y-44816691D01*
X122550500Y-44820224D01*
X122524198Y-44823000D01*
X122216382Y-44823000D01*
X122148261Y-44802998D01*
X122127287Y-44786095D01*
X122106674Y-44765482D01*
X121989684Y-44705873D01*
X121979895Y-44704322D01*
X121979893Y-44704322D01*
X121952120Y-44699923D01*
X121892623Y-44690500D01*
X121700039Y-44690500D01*
X121507378Y-44690501D01*
X121483012Y-44694360D01*
X121420114Y-44704321D01*
X121420112Y-44704322D01*
X121410316Y-44705873D01*
X121401479Y-44710376D01*
X121401478Y-44710376D01*
X121363945Y-44729500D01*
X121293326Y-44765482D01*
X121286315Y-44772493D01*
X121279563Y-44777399D01*
X121212696Y-44801259D01*
X121143544Y-44785180D01*
X121094063Y-44734268D01*
X121079500Y-44675465D01*
X121079500Y-44507527D01*
X121098553Y-44442639D01*
X121099518Y-44441674D01*
X121159127Y-44324684D01*
X121174500Y-44227623D01*
X121174499Y-43767378D01*
X121159127Y-43670316D01*
X121099518Y-43553326D01*
X121040787Y-43494595D01*
X121006761Y-43432283D01*
X121011826Y-43361468D01*
X121054373Y-43304632D01*
X121120893Y-43279821D01*
X121129882Y-43279500D01*
X122183573Y-43279500D01*
X122231790Y-43289091D01*
X122355246Y-43340228D01*
X122500000Y-43359285D01*
X122508188Y-43358207D01*
X122636566Y-43341306D01*
X122644754Y-43340228D01*
X122779643Y-43284355D01*
X122790107Y-43276326D01*
X122888921Y-43200503D01*
X122888924Y-43200500D01*
X122895474Y-43195474D01*
X122984355Y-43079642D01*
X122991762Y-43061762D01*
X123020422Y-42992570D01*
X123040228Y-42944754D01*
X123059285Y-42800000D01*
X123040228Y-42655246D01*
X122984355Y-42520358D01*
X122915675Y-42430852D01*
X122900501Y-42411077D01*
X122900500Y-42411076D01*
X122895474Y-42404526D01*
X122888924Y-42399500D01*
X122888921Y-42399497D01*
X122786196Y-42320673D01*
X122786194Y-42320672D01*
X122779643Y-42315645D01*
X122644754Y-42259772D01*
X122500000Y-42240715D01*
X122491812Y-42241793D01*
X122363432Y-42258694D01*
X122363430Y-42258695D01*
X122355246Y-42259772D01*
X122235756Y-42309267D01*
X122231792Y-42310909D01*
X122183573Y-42320500D01*
X121113882Y-42320500D01*
X121045761Y-42300498D01*
X121024787Y-42283595D01*
X121006674Y-42265482D01*
X120889684Y-42205873D01*
X120879895Y-42204322D01*
X120879893Y-42204322D01*
X120851877Y-42199885D01*
X120792623Y-42190500D01*
X120600039Y-42190500D01*
X120407378Y-42190501D01*
X120383012Y-42194360D01*
X120320114Y-42204321D01*
X120320112Y-42204322D01*
X120310316Y-42205873D01*
X120301479Y-42210376D01*
X120301478Y-42210376D01*
X120275038Y-42223848D01*
X120193326Y-42265482D01*
X120172713Y-42286095D01*
X120110401Y-42320121D01*
X120083618Y-42323000D01*
X119889277Y-42323000D01*
X119832074Y-42309267D01*
X119790702Y-42288187D01*
X119726555Y-42255502D01*
X119631834Y-42240500D01*
X117918166Y-42240500D01*
X117823445Y-42255502D01*
X117709277Y-42313674D01*
X117618674Y-42404277D01*
X117560502Y-42518445D01*
X117545500Y-42613166D01*
X117545500Y-42976834D01*
X117560502Y-43071555D01*
X117618674Y-43185723D01*
X117709277Y-43276326D01*
X117784687Y-43314750D01*
X117790542Y-43317733D01*
X117842157Y-43366482D01*
X117859223Y-43435397D01*
X117836322Y-43502598D01*
X117790542Y-43542267D01*
X117709277Y-43583674D01*
X117618674Y-43674277D01*
X117560502Y-43788445D01*
X117545500Y-43883166D01*
X117545500Y-44246834D01*
X117560502Y-44341555D01*
X117618674Y-44455723D01*
X117709277Y-44546326D01*
X117757190Y-44570739D01*
X117790542Y-44587733D01*
X117842157Y-44636482D01*
X117859223Y-44705397D01*
X117836322Y-44772598D01*
X117790542Y-44812267D01*
X117709277Y-44853674D01*
X117618674Y-44944277D01*
X117560502Y-45058445D01*
X117545500Y-45153166D01*
X117545500Y-45516834D01*
X117560502Y-45611555D01*
X117618674Y-45725723D01*
X117621442Y-45728491D01*
X117644180Y-45792217D01*
X117628101Y-45861369D01*
X117582525Y-45907867D01*
X117550323Y-45926911D01*
X117537896Y-45936551D01*
X117431551Y-46042896D01*
X117421911Y-46055322D01*
X117345352Y-46184779D01*
X117339107Y-46199210D01*
X117300061Y-46333605D01*
X115040315Y-46333605D01*
X115039498Y-46328445D01*
X114981326Y-46214277D01*
X114890723Y-46123674D01*
X114809458Y-46082267D01*
X114757843Y-46033518D01*
X114740777Y-45964603D01*
X114763678Y-45897402D01*
X114809458Y-45857733D01*
X114815313Y-45854750D01*
X114890723Y-45816326D01*
X114981326Y-45725723D01*
X115039498Y-45611555D01*
X115054500Y-45516834D01*
X115054500Y-45153166D01*
X115039498Y-45058445D01*
X114981326Y-44944277D01*
X114890723Y-44853674D01*
X114809458Y-44812267D01*
X114757843Y-44763518D01*
X114740777Y-44694603D01*
X114763678Y-44627402D01*
X114809458Y-44587733D01*
X114842810Y-44570739D01*
X114890723Y-44546326D01*
X114981326Y-44455723D01*
X115039498Y-44341555D01*
X115054500Y-44246834D01*
X115054500Y-43883166D01*
X115039498Y-43788445D01*
X114981326Y-43674277D01*
X114890723Y-43583674D01*
X114809458Y-43542267D01*
X114757843Y-43493518D01*
X114740777Y-43424603D01*
X114763678Y-43357402D01*
X114809458Y-43317733D01*
X114815313Y-43314750D01*
X114890723Y-43276326D01*
X114981326Y-43185723D01*
X115039498Y-43071555D01*
X115054500Y-42976834D01*
X115054500Y-42613166D01*
X115039498Y-42518445D01*
X114981326Y-42404277D01*
X114947352Y-42370303D01*
X114913326Y-42307991D01*
X114918391Y-42237176D01*
X114960938Y-42180340D01*
X115027458Y-42155529D01*
X115079800Y-42164856D01*
X115080162Y-42163699D01*
X115226904Y-42209685D01*
X115239954Y-42212298D01*
X115296962Y-42217537D01*
X115310624Y-42213525D01*
X115311829Y-42212135D01*
X115313500Y-42204452D01*
X115313500Y-42199885D01*
X115821500Y-42199885D01*
X115825975Y-42215124D01*
X115827365Y-42216329D01*
X115834186Y-42217813D01*
X115835888Y-42217734D01*
X115895046Y-42212298D01*
X115908096Y-42209685D01*
X116047589Y-42165971D01*
X116061334Y-42159765D01*
X116185604Y-42084504D01*
X116197473Y-42075197D01*
X116300197Y-41972473D01*
X116309504Y-41960604D01*
X116384765Y-41836334D01*
X116390971Y-41822589D01*
X116434687Y-41683088D01*
X116437009Y-41671497D01*
X116434194Y-41657165D01*
X116422298Y-41654000D01*
X115839615Y-41654000D01*
X115824376Y-41658475D01*
X115823171Y-41659865D01*
X115821500Y-41667548D01*
X115821500Y-42199885D01*
X115313500Y-42199885D01*
X115313500Y-41272000D01*
X115333502Y-41203879D01*
X115387158Y-41157386D01*
X115439500Y-41146000D01*
X116435152Y-41146000D01*
X116442247Y-41144980D01*
X137447175Y-41144980D01*
X137515296Y-41164982D01*
X137536270Y-41181885D01*
X137665290Y-41310905D01*
X137699316Y-41373217D01*
X137694251Y-41444032D01*
X137665290Y-41489095D01*
X137533904Y-41620481D01*
X137525079Y-41627532D01*
X137525459Y-41627979D01*
X137518623Y-41633797D01*
X137511031Y-41638587D01*
X137505088Y-41645316D01*
X137477571Y-41676473D01*
X137472225Y-41682160D01*
X137461596Y-41692789D01*
X137458907Y-41696377D01*
X137455852Y-41700452D01*
X137449476Y-41708283D01*
X137431579Y-41728548D01*
X137420109Y-41741536D01*
X137416293Y-41749664D01*
X137413023Y-41754642D01*
X137408322Y-41762465D01*
X137405465Y-41767684D01*
X137400083Y-41774865D01*
X137391149Y-41798698D01*
X137384514Y-41816396D01*
X137380593Y-41825701D01*
X137361736Y-41865866D01*
X137360355Y-41874733D01*
X137358620Y-41880409D01*
X137356292Y-41889286D01*
X137355020Y-41895072D01*
X137351870Y-41903475D01*
X137351205Y-41912425D01*
X137348583Y-41947700D01*
X137347432Y-41957737D01*
X137345500Y-41970143D01*
X137345500Y-41984510D01*
X137345154Y-41993848D01*
X137341691Y-42040448D01*
X137343564Y-42049224D01*
X137344175Y-42058181D01*
X137344085Y-42058187D01*
X137345500Y-42071591D01*
X137345500Y-42114500D01*
X137325498Y-42182621D01*
X137271842Y-42229114D01*
X137219500Y-42240500D01*
X136968166Y-42240500D01*
X136873445Y-42255502D01*
X136759277Y-42313674D01*
X136668674Y-42404277D01*
X136610502Y-42518445D01*
X136595500Y-42613166D01*
X136595500Y-42976834D01*
X136610502Y-43071555D01*
X136668674Y-43185723D01*
X136759277Y-43276326D01*
X136834687Y-43314750D01*
X136840542Y-43317733D01*
X136892157Y-43366482D01*
X136909223Y-43435397D01*
X136886322Y-43502598D01*
X136840543Y-43542266D01*
X136782647Y-43571766D01*
X136725443Y-43585500D01*
X136472527Y-43585500D01*
X136407639Y-43566447D01*
X136406674Y-43565482D01*
X136289684Y-43505873D01*
X136279895Y-43504322D01*
X136279893Y-43504322D01*
X136252120Y-43499923D01*
X136192623Y-43490500D01*
X136118305Y-43490500D01*
X136050184Y-43470498D01*
X136029210Y-43453595D01*
X135084519Y-42508904D01*
X135077468Y-42500079D01*
X135077021Y-42500459D01*
X135071203Y-42493623D01*
X135066413Y-42486031D01*
X135028527Y-42452571D01*
X135022840Y-42447225D01*
X135012211Y-42436596D01*
X135007336Y-42432942D01*
X135004548Y-42430852D01*
X134996717Y-42424476D01*
X134970193Y-42401052D01*
X134963464Y-42395109D01*
X134955336Y-42391293D01*
X134950358Y-42388023D01*
X134942535Y-42383322D01*
X134937316Y-42380465D01*
X134930135Y-42375083D01*
X134888600Y-42359512D01*
X134879299Y-42355593D01*
X134839134Y-42336736D01*
X134830267Y-42335355D01*
X134824591Y-42333620D01*
X134807741Y-42329200D01*
X134801530Y-42326872D01*
X134801943Y-42325771D01*
X134783529Y-42318627D01*
X134779643Y-42315645D01*
X134772017Y-42312486D01*
X134772015Y-42312485D01*
X134652383Y-42262932D01*
X134644754Y-42259772D01*
X134500000Y-42240715D01*
X134491812Y-42241793D01*
X134363432Y-42258694D01*
X134363430Y-42258695D01*
X134355246Y-42259772D01*
X134341461Y-42265482D01*
X134227986Y-42312485D01*
X134227984Y-42312486D01*
X134220358Y-42315645D01*
X134104526Y-42404526D01*
X134015645Y-42520358D01*
X133959772Y-42655246D01*
X133940715Y-42800000D01*
X133959772Y-42944754D01*
X133979578Y-42992570D01*
X134008239Y-43061762D01*
X134015645Y-43079642D01*
X134104526Y-43195474D01*
X134111076Y-43200500D01*
X134111079Y-43200503D01*
X134209893Y-43276326D01*
X134220357Y-43284355D01*
X134355246Y-43340228D01*
X134500000Y-43359285D01*
X134508188Y-43358207D01*
X134516446Y-43358207D01*
X134516446Y-43359574D01*
X134578061Y-43369182D01*
X134613455Y-43394070D01*
X135388596Y-44169211D01*
X135422622Y-44231523D01*
X135425501Y-44258306D01*
X135425501Y-44332622D01*
X135440873Y-44429684D01*
X135445376Y-44438521D01*
X135445376Y-44438522D01*
X135454140Y-44455723D01*
X135500482Y-44546674D01*
X135564713Y-44610905D01*
X135598739Y-44673217D01*
X135593674Y-44744032D01*
X135564713Y-44789095D01*
X135500482Y-44853326D01*
X135440873Y-44970316D01*
X135425500Y-45067377D01*
X135425501Y-45527622D01*
X135426276Y-45532515D01*
X135438794Y-45611555D01*
X135440873Y-45624684D01*
X135500482Y-45741674D01*
X135508034Y-45749226D01*
X135508688Y-45750329D01*
X135513321Y-45756706D01*
X135512724Y-45757140D01*
X135533250Y-45791776D01*
X135535041Y-45790962D01*
X135535041Y-45790963D01*
X135553404Y-45831349D01*
X135557210Y-45840701D01*
X135569223Y-45873979D01*
X135569225Y-45873983D01*
X135572273Y-45882426D01*
X135577572Y-45889679D01*
X135580363Y-45894928D01*
X135584968Y-45902810D01*
X135588174Y-45907824D01*
X135591890Y-45915996D01*
X135597749Y-45922796D01*
X135597750Y-45922797D01*
X135620838Y-45949591D01*
X135627126Y-45957510D01*
X135634527Y-45967641D01*
X135644683Y-45977797D01*
X135651040Y-45984643D01*
X135681547Y-46020048D01*
X135689074Y-46024927D01*
X135695844Y-46030833D01*
X135695785Y-46030900D01*
X135706265Y-46039379D01*
X136562986Y-46896101D01*
X136570033Y-46904921D01*
X136570480Y-46904541D01*
X136576297Y-46911376D01*
X136581088Y-46918969D01*
X136599284Y-46935039D01*
X136618965Y-46952421D01*
X136624652Y-46957767D01*
X136635289Y-46968404D01*
X136638875Y-46971092D01*
X136638879Y-46971095D01*
X136642951Y-46974147D01*
X136650794Y-46980532D01*
X136666052Y-46994007D01*
X136670890Y-46998280D01*
X136676576Y-47003625D01*
X136759277Y-47086326D01*
X136768109Y-47090826D01*
X136768112Y-47090828D01*
X136817704Y-47116097D01*
X136869318Y-47164845D01*
X136886500Y-47228363D01*
X136886500Y-48784176D01*
X136866498Y-48852297D01*
X136858308Y-48863238D01*
X136856500Y-48871548D01*
X136856500Y-49909598D01*
X136860771Y-49924143D01*
X136872904Y-49926206D01*
X136915973Y-49922249D01*
X136929006Y-49919639D01*
X137069661Y-49875561D01*
X137083406Y-49869355D01*
X137208711Y-49793467D01*
X137220580Y-49784160D01*
X137322974Y-49681766D01*
X137385286Y-49647740D01*
X137451748Y-49652494D01*
X137452051Y-49651561D01*
X137455817Y-49652785D01*
X137456101Y-49652805D01*
X137456727Y-49653081D01*
X137461482Y-49654626D01*
X137470316Y-49659127D01*
X137567377Y-49674500D01*
X137641695Y-49674500D01*
X137709816Y-49694502D01*
X137730790Y-49711405D01*
X138483595Y-50464210D01*
X138517621Y-50526522D01*
X138520500Y-50553305D01*
X138520500Y-57797391D01*
X138500498Y-57865512D01*
X138446842Y-57912005D01*
X138438735Y-57915371D01*
X138405236Y-57927929D01*
X138398057Y-57933309D01*
X138398054Y-57933311D01*
X138342007Y-57975316D01*
X138289596Y-58014596D01*
X138284215Y-58021776D01*
X138208311Y-58123054D01*
X138208309Y-58123057D01*
X138202929Y-58130236D01*
X138152202Y-58265552D01*
X138145500Y-58327244D01*
X138145500Y-59672756D01*
X138145869Y-59676152D01*
X138145869Y-59676153D01*
X138149990Y-59714082D01*
X138152202Y-59734448D01*
X138202929Y-59869764D01*
X138208309Y-59876943D01*
X138208311Y-59876946D01*
X138257403Y-59942449D01*
X138289596Y-59985404D01*
X138296776Y-59990785D01*
X138398054Y-60066689D01*
X138398057Y-60066691D01*
X138405236Y-60072071D01*
X138490384Y-60103991D01*
X138533157Y-60120026D01*
X138533159Y-60120026D01*
X138540552Y-60122798D01*
X138548402Y-60123651D01*
X138548403Y-60123651D01*
X138550134Y-60123839D01*
X138602244Y-60129500D01*
X139397756Y-60129500D01*
X139449866Y-60123839D01*
X139451597Y-60123651D01*
X139451598Y-60123651D01*
X139459448Y-60122798D01*
X139466841Y-60120026D01*
X139466843Y-60120026D01*
X139509616Y-60103991D01*
X139594764Y-60072071D01*
X139601943Y-60066691D01*
X139601946Y-60066689D01*
X139703224Y-59990785D01*
X139710404Y-59985404D01*
X139742597Y-59942449D01*
X139791689Y-59876946D01*
X139791691Y-59876943D01*
X139797071Y-59869764D01*
X139847798Y-59734448D01*
X139850011Y-59714082D01*
X139854131Y-59676153D01*
X139854131Y-59676152D01*
X139854500Y-59672756D01*
X139854500Y-58327244D01*
X139847798Y-58265552D01*
X139797071Y-58130236D01*
X139791691Y-58123057D01*
X139791689Y-58123054D01*
X139715785Y-58021776D01*
X139710404Y-58014596D01*
X139657993Y-57975316D01*
X139601946Y-57933311D01*
X139601943Y-57933309D01*
X139594764Y-57927929D01*
X139561270Y-57915373D01*
X139504506Y-57872731D01*
X139479806Y-57806170D01*
X139479500Y-57797391D01*
X139479500Y-50370325D01*
X139480754Y-50359100D01*
X139480170Y-50359053D01*
X139480890Y-50350107D01*
X139482871Y-50341351D01*
X139479742Y-50290916D01*
X139479500Y-50283115D01*
X139479500Y-50268069D01*
X139478689Y-50262400D01*
X139478143Y-50258592D01*
X139477113Y-50248537D01*
X139474922Y-50213226D01*
X139474366Y-50204264D01*
X139471318Y-50195820D01*
X139470106Y-50189969D01*
X139467908Y-50181156D01*
X139466232Y-50175423D01*
X139464959Y-50166536D01*
X139446598Y-50126154D01*
X139442800Y-50116825D01*
X139427728Y-50075073D01*
X139422433Y-50067825D01*
X139419646Y-50062583D01*
X139415046Y-50054711D01*
X139411826Y-50049676D01*
X139408110Y-50041503D01*
X139379161Y-50007905D01*
X139372879Y-49999994D01*
X139368346Y-49993790D01*
X139368344Y-49993788D01*
X139365473Y-49989858D01*
X139355317Y-49979702D01*
X139348959Y-49972855D01*
X139324310Y-49944248D01*
X139324309Y-49944247D01*
X139318453Y-49937451D01*
X139310926Y-49932572D01*
X139304156Y-49926666D01*
X139304215Y-49926599D01*
X139293734Y-49918119D01*
X138446404Y-49070789D01*
X138412378Y-49008477D01*
X138409499Y-48981694D01*
X138409499Y-48907378D01*
X138404646Y-48876738D01*
X138395679Y-48820114D01*
X138395678Y-48820112D01*
X138394127Y-48810316D01*
X138334518Y-48693326D01*
X138313905Y-48672713D01*
X138279879Y-48610401D01*
X138277000Y-48583618D01*
X138277000Y-48489310D01*
X138297002Y-48421189D01*
X138302854Y-48413927D01*
X138302583Y-48413730D01*
X138308410Y-48405710D01*
X138315422Y-48398698D01*
X138374312Y-48283120D01*
X138378660Y-48255671D01*
X138380337Y-48245079D01*
X138389500Y-48187226D01*
X138389500Y-47812774D01*
X138378924Y-47746000D01*
X138375863Y-47726671D01*
X138375862Y-47726669D01*
X138374312Y-47716880D01*
X138315422Y-47601302D01*
X138283905Y-47569785D01*
X138249879Y-47507473D01*
X138247000Y-47480690D01*
X138247000Y-47285500D01*
X138267002Y-47217379D01*
X138320658Y-47170886D01*
X138373000Y-47159500D01*
X138681834Y-47159500D01*
X138776555Y-47144498D01*
X138890723Y-47086326D01*
X138981326Y-46995723D01*
X139039498Y-46881555D01*
X139041190Y-46870871D01*
X141298456Y-46870871D01*
X141339107Y-47010790D01*
X141345352Y-47025221D01*
X141421911Y-47154678D01*
X141431551Y-47167104D01*
X141537896Y-47273449D01*
X141550322Y-47283089D01*
X141679779Y-47359648D01*
X141694210Y-47365893D01*
X141840065Y-47408269D01*
X141852667Y-47410570D01*
X141881084Y-47412807D01*
X141886014Y-47413000D01*
X142502885Y-47413000D01*
X142518124Y-47408525D01*
X142519329Y-47407135D01*
X142521000Y-47399452D01*
X142521000Y-47394884D01*
X143029000Y-47394884D01*
X143033475Y-47410123D01*
X143034865Y-47411328D01*
X143042548Y-47412999D01*
X143663984Y-47412999D01*
X143668920Y-47412805D01*
X143697336Y-47410570D01*
X143709931Y-47408270D01*
X143855790Y-47365893D01*
X143870221Y-47359648D01*
X143932797Y-47322641D01*
X144001613Y-47305182D01*
X144062208Y-47323319D01*
X144163667Y-47384765D01*
X144177411Y-47390971D01*
X144316912Y-47434687D01*
X144328503Y-47437009D01*
X144342835Y-47434194D01*
X144346000Y-47422298D01*
X144346000Y-47420658D01*
X144854000Y-47420658D01*
X144858271Y-47435203D01*
X144870302Y-47437248D01*
X144883088Y-47434687D01*
X145022589Y-47390971D01*
X145036335Y-47384764D01*
X145065020Y-47367392D01*
X145133649Y-47349213D01*
X145195563Y-47367393D01*
X145256591Y-47404353D01*
X145270339Y-47410561D01*
X145410994Y-47454639D01*
X145424027Y-47457249D01*
X145427961Y-47457611D01*
X145442835Y-47454688D01*
X145446000Y-47442793D01*
X145446000Y-47441153D01*
X145954000Y-47441153D01*
X145958271Y-47455698D01*
X145970404Y-47457761D01*
X145975973Y-47457249D01*
X145989006Y-47454639D01*
X146129661Y-47410561D01*
X146143406Y-47404355D01*
X146268711Y-47328467D01*
X146280580Y-47319160D01*
X146384160Y-47215580D01*
X146393467Y-47203711D01*
X146469355Y-47078406D01*
X146475561Y-47064661D01*
X146519637Y-46924011D01*
X146522250Y-46910964D01*
X146526056Y-46869541D01*
X146523134Y-46854664D01*
X146511240Y-46851500D01*
X145972115Y-46851500D01*
X145956876Y-46855975D01*
X145955671Y-46857365D01*
X145954000Y-46865048D01*
X145954000Y-47441153D01*
X145446000Y-47441153D01*
X145446000Y-46869615D01*
X145441525Y-46854376D01*
X145440135Y-46853171D01*
X145432452Y-46851500D01*
X144872115Y-46851500D01*
X144856876Y-46855975D01*
X144855671Y-46857365D01*
X144854000Y-46865048D01*
X144854000Y-47420658D01*
X144346000Y-47420658D01*
X144346000Y-46839615D01*
X144341525Y-46824376D01*
X144340135Y-46823171D01*
X144332452Y-46821500D01*
X144316115Y-46821500D01*
X144287593Y-46829875D01*
X144250216Y-46853896D01*
X144214717Y-46859000D01*
X143047115Y-46859000D01*
X143031876Y-46863475D01*
X143030671Y-46864865D01*
X143029000Y-46872548D01*
X143029000Y-47394884D01*
X142521000Y-47394884D01*
X142521000Y-46877115D01*
X142516525Y-46861876D01*
X142515135Y-46860671D01*
X142507452Y-46859000D01*
X141313122Y-46859000D01*
X141299591Y-46862973D01*
X141298456Y-46870871D01*
X139041190Y-46870871D01*
X139054500Y-46786834D01*
X139054500Y-46423166D01*
X139040315Y-46333605D01*
X141300061Y-46333605D01*
X141300101Y-46347706D01*
X141307370Y-46351000D01*
X143723885Y-46351000D01*
X143752407Y-46342625D01*
X143789784Y-46318604D01*
X143825283Y-46313500D01*
X145384176Y-46313500D01*
X145452297Y-46333502D01*
X145463238Y-46341692D01*
X145471548Y-46343500D01*
X146509598Y-46343500D01*
X146524143Y-46339229D01*
X146526206Y-46327094D01*
X146525439Y-46318741D01*
X146539127Y-46249076D01*
X146588305Y-46197870D01*
X146657360Y-46181381D01*
X146724368Y-46204844D01*
X146740006Y-46218121D01*
X150483595Y-49961710D01*
X150517621Y-50024022D01*
X150520500Y-50050805D01*
X150520500Y-57797391D01*
X150500498Y-57865512D01*
X150446842Y-57912005D01*
X150438735Y-57915371D01*
X150405236Y-57927929D01*
X150398057Y-57933309D01*
X150398054Y-57933311D01*
X150342007Y-57975316D01*
X150289596Y-58014596D01*
X150284215Y-58021776D01*
X150208311Y-58123054D01*
X150208309Y-58123057D01*
X150202929Y-58130236D01*
X150152202Y-58265552D01*
X150145500Y-58327244D01*
X150145500Y-59672756D01*
X150145869Y-59676152D01*
X150145869Y-59676153D01*
X150149990Y-59714082D01*
X150152202Y-59734448D01*
X150202929Y-59869764D01*
X150208309Y-59876943D01*
X150208311Y-59876946D01*
X150257403Y-59942449D01*
X150289596Y-59985404D01*
X150296776Y-59990785D01*
X150398054Y-60066689D01*
X150398057Y-60066691D01*
X150405236Y-60072071D01*
X150490384Y-60103991D01*
X150533157Y-60120026D01*
X150533159Y-60120026D01*
X150540552Y-60122798D01*
X150548402Y-60123651D01*
X150548403Y-60123651D01*
X150550134Y-60123839D01*
X150602244Y-60129500D01*
X151397756Y-60129500D01*
X151449866Y-60123839D01*
X151451597Y-60123651D01*
X151451598Y-60123651D01*
X151459448Y-60122798D01*
X151466841Y-60120026D01*
X151466843Y-60120026D01*
X151509616Y-60103991D01*
X151594764Y-60072071D01*
X151601943Y-60066691D01*
X151601946Y-60066689D01*
X151703224Y-59990785D01*
X151710404Y-59985404D01*
X151742597Y-59942449D01*
X151791689Y-59876946D01*
X151791691Y-59876943D01*
X151797071Y-59869764D01*
X151847798Y-59734448D01*
X151850011Y-59714082D01*
X151854131Y-59676153D01*
X151854131Y-59676152D01*
X151854500Y-59672756D01*
X151854500Y-58941600D01*
X157641680Y-58941600D01*
X157643975Y-59000000D01*
X157650667Y-59170316D01*
X157651991Y-59204022D01*
X157699174Y-59462373D01*
X157782289Y-59711499D01*
X157789833Y-59726597D01*
X157893170Y-59933406D01*
X157899677Y-59946429D01*
X158048995Y-60162474D01*
X158052011Y-60165736D01*
X158052016Y-60165743D01*
X158224249Y-60352063D01*
X158224254Y-60352067D01*
X158227265Y-60355325D01*
X158430929Y-60521134D01*
X158434747Y-60523433D01*
X158434749Y-60523434D01*
X158586827Y-60614992D01*
X158655924Y-60656592D01*
X158768947Y-60704451D01*
X158893663Y-60757262D01*
X158893666Y-60757263D01*
X158897761Y-60758997D01*
X158902053Y-60760135D01*
X158902056Y-60760136D01*
X159147317Y-60825166D01*
X159147321Y-60825167D01*
X159151614Y-60826305D01*
X159156023Y-60826827D01*
X159156029Y-60826828D01*
X159326509Y-60847005D01*
X159412418Y-60857173D01*
X159674970Y-60850986D01*
X159755543Y-60837575D01*
X159929640Y-60808597D01*
X159929644Y-60808596D01*
X159934030Y-60807866D01*
X159938271Y-60806525D01*
X159938274Y-60806524D01*
X160180185Y-60730018D01*
X160180187Y-60730017D01*
X160184431Y-60728675D01*
X160188442Y-60726749D01*
X160188447Y-60726747D01*
X160417156Y-60616922D01*
X160417157Y-60616921D01*
X160421175Y-60614992D01*
X160530984Y-60541620D01*
X160635831Y-60471563D01*
X160635835Y-60471560D01*
X160639539Y-60469085D01*
X160642856Y-60466114D01*
X160642860Y-60466111D01*
X160831849Y-60296839D01*
X160831850Y-60296838D01*
X160835167Y-60293867D01*
X161004154Y-60092832D01*
X161143130Y-59869992D01*
X161146518Y-59862330D01*
X161247522Y-59633861D01*
X161249320Y-59629794D01*
X161320607Y-59377030D01*
X161343845Y-59204022D01*
X161355141Y-59119924D01*
X161355142Y-59119916D01*
X161355568Y-59116742D01*
X161355669Y-59113531D01*
X161359136Y-59003222D01*
X161359136Y-59003217D01*
X161359237Y-59000000D01*
X161340689Y-58738031D01*
X161339165Y-58730949D01*
X161286350Y-58485636D01*
X161286350Y-58485634D01*
X161285414Y-58481289D01*
X161194515Y-58234897D01*
X161142578Y-58138640D01*
X161071919Y-58007687D01*
X161069806Y-58003771D01*
X160913775Y-57792522D01*
X160907449Y-57786095D01*
X160814105Y-57691275D01*
X160729535Y-57605366D01*
X160520764Y-57446036D01*
X160461217Y-57412688D01*
X160295516Y-57319891D01*
X160295515Y-57319891D01*
X160291625Y-57317712D01*
X160287466Y-57316103D01*
X160050846Y-57224561D01*
X160050840Y-57224559D01*
X160046691Y-57222954D01*
X160042359Y-57221950D01*
X160042356Y-57221949D01*
X159910993Y-57191501D01*
X159790849Y-57163653D01*
X159529204Y-57140992D01*
X159524769Y-57141236D01*
X159524765Y-57141236D01*
X159271419Y-57155179D01*
X159271412Y-57155180D01*
X159266976Y-57155424D01*
X159009397Y-57206659D01*
X158761608Y-57293677D01*
X158757657Y-57295730D01*
X158757651Y-57295732D01*
X158532501Y-57412688D01*
X158528551Y-57414740D01*
X158524936Y-57417323D01*
X158524930Y-57417327D01*
X158401748Y-57505355D01*
X158314878Y-57567433D01*
X158124851Y-57748710D01*
X158122095Y-57752206D01*
X158122094Y-57752207D01*
X158022667Y-57878329D01*
X157962261Y-57954954D01*
X157923448Y-58021776D01*
X157832588Y-58178202D01*
X157832585Y-58178208D01*
X157830354Y-58182049D01*
X157828684Y-58186172D01*
X157758840Y-58358610D01*
X157731761Y-58425464D01*
X157730690Y-58429777D01*
X157730688Y-58429782D01*
X157704810Y-58533960D01*
X157668448Y-58680343D01*
X157641680Y-58941600D01*
X151854500Y-58941600D01*
X151854500Y-58327244D01*
X151847798Y-58265552D01*
X151797071Y-58130236D01*
X151791691Y-58123057D01*
X151791689Y-58123054D01*
X151715785Y-58021776D01*
X151710404Y-58014596D01*
X151657993Y-57975316D01*
X151601946Y-57933311D01*
X151601943Y-57933309D01*
X151594764Y-57927929D01*
X151561270Y-57915373D01*
X151504506Y-57872731D01*
X151479806Y-57806170D01*
X151479500Y-57797391D01*
X151479500Y-49867826D01*
X151480754Y-49856601D01*
X151480170Y-49856554D01*
X151480890Y-49847608D01*
X151482871Y-49838852D01*
X151479742Y-49788416D01*
X151479500Y-49780615D01*
X151479500Y-49765569D01*
X151478143Y-49756092D01*
X151477113Y-49746037D01*
X151474922Y-49710726D01*
X151474366Y-49701764D01*
X151471318Y-49693320D01*
X151470106Y-49687469D01*
X151467908Y-49678656D01*
X151466232Y-49672923D01*
X151464959Y-49664036D01*
X151446598Y-49623654D01*
X151442800Y-49614325D01*
X151427728Y-49572573D01*
X151422433Y-49565325D01*
X151419646Y-49560083D01*
X151415046Y-49552211D01*
X151411826Y-49547176D01*
X151408110Y-49539003D01*
X151379161Y-49505405D01*
X151372879Y-49497494D01*
X151368346Y-49491290D01*
X151368344Y-49491288D01*
X151365473Y-49487358D01*
X151355317Y-49477202D01*
X151348959Y-49470355D01*
X151324310Y-49441748D01*
X151324309Y-49441747D01*
X151318453Y-49434951D01*
X151310926Y-49430072D01*
X151304156Y-49424166D01*
X151304215Y-49424099D01*
X151293734Y-49415619D01*
X146944905Y-45066790D01*
X146944362Y-45066244D01*
X146899197Y-45020524D01*
X146892887Y-45014136D01*
X146868933Y-45000831D01*
X146854553Y-44991510D01*
X146852773Y-44990176D01*
X146832635Y-44975083D01*
X146810461Y-44966770D01*
X146793517Y-44958941D01*
X146780665Y-44951802D01*
X146780664Y-44951801D01*
X146772815Y-44947442D01*
X146746085Y-44941394D01*
X146739597Y-44939453D01*
X146739134Y-44939236D01*
X146738584Y-44939150D01*
X146729678Y-44936487D01*
X146704025Y-44926870D01*
X146680418Y-44925116D01*
X146661950Y-44922356D01*
X146638852Y-44917129D01*
X146611510Y-44918825D01*
X146594373Y-44918721D01*
X146592260Y-44918564D01*
X146567052Y-44916691D01*
X146550500Y-44920224D01*
X146524198Y-44923000D01*
X146216382Y-44923000D01*
X146148261Y-44902998D01*
X146127287Y-44886095D01*
X146106674Y-44865482D01*
X145989684Y-44805873D01*
X145979895Y-44804322D01*
X145979893Y-44804322D01*
X145952120Y-44799923D01*
X145892623Y-44790500D01*
X145700039Y-44790500D01*
X145507378Y-44790501D01*
X145483012Y-44794360D01*
X145420114Y-44804321D01*
X145420112Y-44804322D01*
X145410316Y-44805873D01*
X145401479Y-44810376D01*
X145401478Y-44810376D01*
X145387779Y-44817356D01*
X145293326Y-44865482D01*
X145286315Y-44872493D01*
X145279563Y-44877399D01*
X145212696Y-44901259D01*
X145143544Y-44885180D01*
X145094063Y-44834268D01*
X145079500Y-44775465D01*
X145079500Y-44507527D01*
X145098553Y-44442639D01*
X145099518Y-44441674D01*
X145159127Y-44324684D01*
X145174500Y-44227623D01*
X145174499Y-43767378D01*
X145159127Y-43670316D01*
X145099518Y-43553326D01*
X145040787Y-43494595D01*
X145006761Y-43432283D01*
X145011826Y-43361468D01*
X145054373Y-43304632D01*
X145120893Y-43279821D01*
X145129882Y-43279500D01*
X146183573Y-43279500D01*
X146231790Y-43289091D01*
X146355246Y-43340228D01*
X146500000Y-43359285D01*
X146508188Y-43358207D01*
X146636566Y-43341306D01*
X146644754Y-43340228D01*
X146779643Y-43284355D01*
X146790107Y-43276326D01*
X146888921Y-43200503D01*
X146888924Y-43200500D01*
X146895474Y-43195474D01*
X146984355Y-43079642D01*
X146991762Y-43061762D01*
X147020422Y-42992570D01*
X147040228Y-42944754D01*
X147059285Y-42800000D01*
X147040228Y-42655246D01*
X146984355Y-42520358D01*
X146915675Y-42430852D01*
X146900501Y-42411077D01*
X146900500Y-42411076D01*
X146895474Y-42404526D01*
X146888924Y-42399500D01*
X146888921Y-42399497D01*
X146786196Y-42320673D01*
X146786194Y-42320672D01*
X146779643Y-42315645D01*
X146644754Y-42259772D01*
X146500000Y-42240715D01*
X146491812Y-42241793D01*
X146363432Y-42258694D01*
X146363430Y-42258695D01*
X146355246Y-42259772D01*
X146235756Y-42309267D01*
X146231792Y-42310909D01*
X146183573Y-42320500D01*
X145113882Y-42320500D01*
X145045761Y-42300498D01*
X145024787Y-42283595D01*
X145006674Y-42265482D01*
X144889684Y-42205873D01*
X144879895Y-42204322D01*
X144879893Y-42204322D01*
X144851877Y-42199885D01*
X144792623Y-42190500D01*
X144600039Y-42190500D01*
X144407378Y-42190501D01*
X144383012Y-42194360D01*
X144320114Y-42204321D01*
X144320112Y-42204322D01*
X144310316Y-42205873D01*
X144301479Y-42210376D01*
X144301478Y-42210376D01*
X144275038Y-42223848D01*
X144193326Y-42265482D01*
X144172713Y-42286095D01*
X144110401Y-42320121D01*
X144083618Y-42323000D01*
X143889277Y-42323000D01*
X143832074Y-42309267D01*
X143790702Y-42288187D01*
X143726555Y-42255502D01*
X143631834Y-42240500D01*
X141918166Y-42240500D01*
X141823445Y-42255502D01*
X141709277Y-42313674D01*
X141618674Y-42404277D01*
X141560502Y-42518445D01*
X141545500Y-42613166D01*
X141545500Y-42976834D01*
X141560502Y-43071555D01*
X141618674Y-43185723D01*
X141709277Y-43276326D01*
X141784687Y-43314750D01*
X141790542Y-43317733D01*
X141842157Y-43366482D01*
X141859223Y-43435397D01*
X141836322Y-43502598D01*
X141790542Y-43542267D01*
X141709277Y-43583674D01*
X141618674Y-43674277D01*
X141560502Y-43788445D01*
X141545500Y-43883166D01*
X141545500Y-44246834D01*
X141560502Y-44341555D01*
X141618674Y-44455723D01*
X141709277Y-44546326D01*
X141757190Y-44570739D01*
X141790542Y-44587733D01*
X141842157Y-44636482D01*
X141859223Y-44705397D01*
X141836322Y-44772598D01*
X141790542Y-44812267D01*
X141709277Y-44853674D01*
X141618674Y-44944277D01*
X141560502Y-45058445D01*
X141545500Y-45153166D01*
X141545500Y-45516834D01*
X141560502Y-45611555D01*
X141618674Y-45725723D01*
X141621442Y-45728491D01*
X141644180Y-45792217D01*
X141628101Y-45861369D01*
X141582525Y-45907867D01*
X141550323Y-45926911D01*
X141537896Y-45936551D01*
X141431551Y-46042896D01*
X141421911Y-46055322D01*
X141345352Y-46184779D01*
X141339107Y-46199210D01*
X141300061Y-46333605D01*
X139040315Y-46333605D01*
X139039498Y-46328445D01*
X138981326Y-46214277D01*
X138890723Y-46123674D01*
X138809458Y-46082267D01*
X138757843Y-46033518D01*
X138740777Y-45964603D01*
X138763678Y-45897402D01*
X138809458Y-45857733D01*
X138815313Y-45854750D01*
X138890723Y-45816326D01*
X138981326Y-45725723D01*
X139039498Y-45611555D01*
X139054500Y-45516834D01*
X139054500Y-45153166D01*
X139039498Y-45058445D01*
X138981326Y-44944277D01*
X138890723Y-44853674D01*
X138809458Y-44812267D01*
X138757843Y-44763518D01*
X138740777Y-44694603D01*
X138763678Y-44627402D01*
X138809458Y-44587733D01*
X138842810Y-44570739D01*
X138890723Y-44546326D01*
X138981326Y-44455723D01*
X139039498Y-44341555D01*
X139054500Y-44246834D01*
X139054500Y-43883166D01*
X139039498Y-43788445D01*
X138981326Y-43674277D01*
X138890723Y-43583674D01*
X138809458Y-43542267D01*
X138757843Y-43493518D01*
X138740777Y-43424603D01*
X138763678Y-43357402D01*
X138809458Y-43317733D01*
X138815313Y-43314750D01*
X138890723Y-43276326D01*
X138981326Y-43185723D01*
X139039498Y-43071555D01*
X139054500Y-42976834D01*
X139054500Y-42613166D01*
X139039498Y-42518445D01*
X138981326Y-42404277D01*
X138947352Y-42370303D01*
X138913326Y-42307991D01*
X138918391Y-42237176D01*
X138960938Y-42180340D01*
X139027458Y-42155529D01*
X139079800Y-42164856D01*
X139080162Y-42163699D01*
X139226904Y-42209685D01*
X139239954Y-42212298D01*
X139296962Y-42217537D01*
X139310624Y-42213525D01*
X139311829Y-42212135D01*
X139313500Y-42204452D01*
X139313500Y-42199885D01*
X139821500Y-42199885D01*
X139825975Y-42215124D01*
X139827365Y-42216329D01*
X139834186Y-42217813D01*
X139835888Y-42217734D01*
X139895046Y-42212298D01*
X139908096Y-42209685D01*
X140047589Y-42165971D01*
X140061334Y-42159765D01*
X140185604Y-42084504D01*
X140197473Y-42075197D01*
X140300197Y-41972473D01*
X140309504Y-41960604D01*
X140384765Y-41836334D01*
X140390971Y-41822589D01*
X140434687Y-41683088D01*
X140437009Y-41671497D01*
X140434194Y-41657165D01*
X140422298Y-41654000D01*
X139839615Y-41654000D01*
X139824376Y-41658475D01*
X139823171Y-41659865D01*
X139821500Y-41667548D01*
X139821500Y-42199885D01*
X139313500Y-42199885D01*
X139313500Y-41127885D01*
X139821500Y-41127885D01*
X139825975Y-41143124D01*
X139827365Y-41144329D01*
X139835048Y-41146000D01*
X140420658Y-41146000D01*
X140435203Y-41141729D01*
X140437248Y-41129698D01*
X140434687Y-41116912D01*
X140390971Y-40977411D01*
X140384765Y-40963666D01*
X140309504Y-40839396D01*
X140300197Y-40827527D01*
X140197473Y-40724803D01*
X140185604Y-40715496D01*
X140061334Y-40640235D01*
X140047589Y-40634029D01*
X139908096Y-40590315D01*
X139895046Y-40587702D01*
X139838038Y-40582463D01*
X139824376Y-40586475D01*
X139823171Y-40587865D01*
X139821500Y-40595548D01*
X139821500Y-41127885D01*
X139313500Y-41127885D01*
X139313500Y-40600115D01*
X139309025Y-40584876D01*
X139307635Y-40583671D01*
X139300814Y-40582187D01*
X139299112Y-40582266D01*
X139239954Y-40587702D01*
X139226904Y-40590315D01*
X139087411Y-40634029D01*
X139073666Y-40640235D01*
X138949396Y-40715496D01*
X138937527Y-40724803D01*
X138851772Y-40810558D01*
X138789460Y-40844584D01*
X138742967Y-40845912D01*
X138707148Y-40840239D01*
X138677226Y-40835500D01*
X138598305Y-40835500D01*
X138530184Y-40815498D01*
X138509210Y-40798595D01*
X138084999Y-40374384D01*
X138077948Y-40365559D01*
X138077501Y-40365939D01*
X138071683Y-40359103D01*
X138066893Y-40351511D01*
X138029007Y-40318051D01*
X138023320Y-40312705D01*
X138012691Y-40302076D01*
X138005704Y-40296839D01*
X138005028Y-40296332D01*
X137997197Y-40289956D01*
X137970673Y-40266532D01*
X137963944Y-40260589D01*
X137955816Y-40256773D01*
X137950838Y-40253503D01*
X137943015Y-40248802D01*
X137937796Y-40245945D01*
X137930615Y-40240563D01*
X137889080Y-40224992D01*
X137879779Y-40221073D01*
X137839614Y-40202216D01*
X137830747Y-40200835D01*
X137825071Y-40199100D01*
X137816194Y-40196772D01*
X137810408Y-40195500D01*
X137802005Y-40192350D01*
X137777893Y-40190558D01*
X137757780Y-40189063D01*
X137747743Y-40187912D01*
X137735337Y-40185980D01*
X137720970Y-40185980D01*
X137711632Y-40185634D01*
X137665032Y-40182171D01*
X137656256Y-40184044D01*
X137647299Y-40184655D01*
X137647293Y-40184565D01*
X137633889Y-40185980D01*
X114533305Y-40185980D01*
X114522080Y-40184726D01*
X114522033Y-40185310D01*
X114513087Y-40184590D01*
X114504331Y-40182609D01*
X114455573Y-40185634D01*
X114453897Y-40185738D01*
X114446095Y-40185980D01*
X110002340Y-40185980D01*
X109991120Y-40184726D01*
X109991073Y-40185311D01*
X109982128Y-40184591D01*
X109973371Y-40182610D01*
X109924624Y-40185634D01*
X109922947Y-40185738D01*
X109915146Y-40185980D01*
X109900089Y-40185980D01*
X109890602Y-40187339D01*
X109880545Y-40188369D01*
X109836284Y-40191114D01*
X109827835Y-40194164D01*
X109821985Y-40195376D01*
X109813168Y-40197574D01*
X109807441Y-40199249D01*
X109798556Y-40200521D01*
X109758170Y-40218884D01*
X109748818Y-40222690D01*
X109715540Y-40234703D01*
X109715536Y-40234705D01*
X109707093Y-40237753D01*
X109699840Y-40243052D01*
X109694591Y-40245843D01*
X109686709Y-40250448D01*
X109681695Y-40253654D01*
X109673523Y-40257370D01*
X109666723Y-40263229D01*
X109666722Y-40263230D01*
X109639928Y-40286318D01*
X109632009Y-40292606D01*
X109630283Y-40293867D01*
X109625813Y-40297132D01*
X109625809Y-40297135D01*
X109621878Y-40300007D01*
X109611722Y-40310163D01*
X109604876Y-40316520D01*
X109569471Y-40347027D01*
X109564592Y-40354554D01*
X109558686Y-40361324D01*
X109558619Y-40361265D01*
X109550139Y-40371746D01*
X108071404Y-41850481D01*
X108062579Y-41857532D01*
X108062959Y-41857979D01*
X108056123Y-41863797D01*
X108048531Y-41868587D01*
X108042588Y-41875316D01*
X108015071Y-41906473D01*
X108009725Y-41912160D01*
X107999096Y-41922789D01*
X107996407Y-41926377D01*
X107993352Y-41930452D01*
X107986976Y-41938283D01*
X107978660Y-41947700D01*
X107957609Y-41971536D01*
X107953793Y-41979664D01*
X107950523Y-41984642D01*
X107945822Y-41992465D01*
X107942965Y-41997684D01*
X107937583Y-42004865D01*
X107934433Y-42013268D01*
X107922014Y-42046396D01*
X107918093Y-42055701D01*
X107899236Y-42095866D01*
X107897855Y-42104733D01*
X107896120Y-42110409D01*
X107893792Y-42119286D01*
X107892520Y-42125072D01*
X107889370Y-42133475D01*
X107888705Y-42142425D01*
X107886083Y-42177700D01*
X107884932Y-42187737D01*
X107883000Y-42200143D01*
X107883000Y-42214510D01*
X107882654Y-42223848D01*
X107879191Y-42270448D01*
X107881064Y-42279224D01*
X107881675Y-42288181D01*
X107881585Y-42288187D01*
X107883000Y-42301591D01*
X107883000Y-49852077D01*
X107862998Y-49920198D01*
X107809342Y-49966691D01*
X107801235Y-49970057D01*
X107780236Y-49977929D01*
X107773057Y-49983309D01*
X107773054Y-49983311D01*
X107695409Y-50041503D01*
X107664596Y-50064596D01*
X107659215Y-50071776D01*
X107583311Y-50173054D01*
X107583309Y-50173057D01*
X107577929Y-50180236D01*
X107550431Y-50253588D01*
X107537900Y-50287016D01*
X107527202Y-50315552D01*
X107526349Y-50323402D01*
X107526291Y-50323647D01*
X107491073Y-50385293D01*
X107428118Y-50418113D01*
X107403709Y-50420500D01*
X106308201Y-50420500D01*
X106307431Y-50420498D01*
X106304482Y-50420480D01*
X106234255Y-50420051D01*
X106232973Y-50420417D01*
X106231762Y-50420500D01*
X105705500Y-50420500D01*
X105637379Y-50400498D01*
X105590886Y-50346842D01*
X105579500Y-50294500D01*
X105579500Y-49602244D01*
X105577193Y-49581012D01*
X105573651Y-49548403D01*
X105573651Y-49548402D01*
X105572798Y-49540552D01*
X105522071Y-49405236D01*
X105516691Y-49398057D01*
X105516689Y-49398054D01*
X105440785Y-49296776D01*
X105435404Y-49289596D01*
X105414977Y-49274287D01*
X105326946Y-49208311D01*
X105326943Y-49208309D01*
X105319764Y-49202929D01*
X105290557Y-49191980D01*
X105233793Y-49149338D01*
X105209093Y-49082776D01*
X105224301Y-49013428D01*
X105277095Y-48961982D01*
X105320978Y-48939381D01*
X105331024Y-48932931D01*
X105487857Y-48809738D01*
X105496506Y-48801501D01*
X105627212Y-48650877D01*
X105634147Y-48641153D01*
X105734010Y-48468533D01*
X105738984Y-48457669D01*
X105804407Y-48269273D01*
X105804648Y-48268284D01*
X105803180Y-48257992D01*
X105789615Y-48254000D01*
X103114598Y-48254000D01*
X103101067Y-48257973D01*
X103099712Y-48267399D01*
X100754000Y-48267399D01*
X100754000Y-47731716D01*
X103095352Y-47731716D01*
X103096820Y-47742008D01*
X103110385Y-47746000D01*
X104177885Y-47746000D01*
X104193124Y-47741525D01*
X104194329Y-47740135D01*
X104196000Y-47732452D01*
X104196000Y-47727885D01*
X104704000Y-47727885D01*
X104708475Y-47743124D01*
X104709865Y-47744329D01*
X104717548Y-47746000D01*
X105785402Y-47746000D01*
X105798933Y-47742027D01*
X105800288Y-47732601D01*
X105778806Y-47643463D01*
X105774917Y-47632168D01*
X105692371Y-47450618D01*
X105686424Y-47440276D01*
X105571032Y-47277603D01*
X105563239Y-47268575D01*
X105419169Y-47130658D01*
X105409804Y-47123262D01*
X105242259Y-47015079D01*
X105231655Y-47009583D01*
X105046688Y-46935039D01*
X105035230Y-46931645D01*
X104838072Y-46893143D01*
X104829209Y-46892066D01*
X104826500Y-46892000D01*
X104722115Y-46892000D01*
X104706876Y-46896475D01*
X104705671Y-46897865D01*
X104704000Y-46905548D01*
X104704000Y-47727885D01*
X104196000Y-47727885D01*
X104196000Y-46910115D01*
X104191525Y-46894876D01*
X104190135Y-46893671D01*
X104182452Y-46892000D01*
X104125168Y-46892000D01*
X104119192Y-46892285D01*
X103970506Y-46906471D01*
X103958772Y-46908730D01*
X103767401Y-46964872D01*
X103756325Y-46969302D01*
X103579022Y-47060619D01*
X103568976Y-47067069D01*
X103412143Y-47190262D01*
X103403494Y-47198499D01*
X103272788Y-47349123D01*
X103265853Y-47358847D01*
X103165990Y-47531467D01*
X103161016Y-47542331D01*
X103095593Y-47730727D01*
X103095352Y-47731716D01*
X100754000Y-47731716D01*
X100754000Y-38941600D01*
X102641680Y-38941600D01*
X102651991Y-39204022D01*
X102699174Y-39462373D01*
X102782289Y-39711499D01*
X102784282Y-39715487D01*
X102861484Y-39869992D01*
X102899677Y-39946429D01*
X103048995Y-40162474D01*
X103052011Y-40165736D01*
X103052016Y-40165743D01*
X103224249Y-40352063D01*
X103224254Y-40352067D01*
X103227265Y-40355325D01*
X103430929Y-40521134D01*
X103434747Y-40523433D01*
X103434749Y-40523434D01*
X103586827Y-40614992D01*
X103655924Y-40656592D01*
X103768947Y-40704451D01*
X103893663Y-40757262D01*
X103893666Y-40757263D01*
X103897761Y-40758997D01*
X103902053Y-40760135D01*
X103902056Y-40760136D01*
X104147317Y-40825166D01*
X104147321Y-40825167D01*
X104151614Y-40826305D01*
X104156023Y-40826827D01*
X104156029Y-40826828D01*
X104306053Y-40844584D01*
X104412418Y-40857173D01*
X104674970Y-40850986D01*
X104768008Y-40835500D01*
X104929640Y-40808597D01*
X104929644Y-40808596D01*
X104934030Y-40807866D01*
X104938271Y-40806525D01*
X104938274Y-40806524D01*
X105180185Y-40730018D01*
X105180187Y-40730017D01*
X105184431Y-40728675D01*
X105188442Y-40726749D01*
X105188447Y-40726747D01*
X105417156Y-40616922D01*
X105417157Y-40616921D01*
X105421175Y-40614992D01*
X105530984Y-40541620D01*
X105635831Y-40471563D01*
X105635835Y-40471560D01*
X105639539Y-40469085D01*
X105642856Y-40466114D01*
X105642860Y-40466111D01*
X105831849Y-40296839D01*
X105831850Y-40296838D01*
X105835167Y-40293867D01*
X106004154Y-40092832D01*
X106143130Y-39869992D01*
X106249320Y-39629794D01*
X106320607Y-39377030D01*
X106343845Y-39204022D01*
X106355141Y-39119924D01*
X106355142Y-39119916D01*
X106355568Y-39116742D01*
X106359237Y-39000000D01*
X106355102Y-38941600D01*
X157641680Y-38941600D01*
X157651991Y-39204022D01*
X157699174Y-39462373D01*
X157782289Y-39711499D01*
X157784282Y-39715487D01*
X157861484Y-39869992D01*
X157899677Y-39946429D01*
X158048995Y-40162474D01*
X158052011Y-40165736D01*
X158052016Y-40165743D01*
X158224249Y-40352063D01*
X158224254Y-40352067D01*
X158227265Y-40355325D01*
X158430929Y-40521134D01*
X158434747Y-40523433D01*
X158434749Y-40523434D01*
X158586827Y-40614992D01*
X158655924Y-40656592D01*
X158768947Y-40704451D01*
X158893663Y-40757262D01*
X158893666Y-40757263D01*
X158897761Y-40758997D01*
X158902053Y-40760135D01*
X158902056Y-40760136D01*
X159147317Y-40825166D01*
X159147321Y-40825167D01*
X159151614Y-40826305D01*
X159156023Y-40826827D01*
X159156029Y-40826828D01*
X159306053Y-40844584D01*
X159412418Y-40857173D01*
X159674970Y-40850986D01*
X159768008Y-40835500D01*
X159929640Y-40808597D01*
X159929644Y-40808596D01*
X159934030Y-40807866D01*
X159938271Y-40806525D01*
X159938274Y-40806524D01*
X160180185Y-40730018D01*
X160180187Y-40730017D01*
X160184431Y-40728675D01*
X160188442Y-40726749D01*
X160188447Y-40726747D01*
X160417156Y-40616922D01*
X160417157Y-40616921D01*
X160421175Y-40614992D01*
X160530984Y-40541620D01*
X160635831Y-40471563D01*
X160635835Y-40471560D01*
X160639539Y-40469085D01*
X160642856Y-40466114D01*
X160642860Y-40466111D01*
X160831849Y-40296839D01*
X160831850Y-40296838D01*
X160835167Y-40293867D01*
X161004154Y-40092832D01*
X161143130Y-39869992D01*
X161249320Y-39629794D01*
X161320607Y-39377030D01*
X161343845Y-39204022D01*
X161355141Y-39119924D01*
X161355142Y-39119916D01*
X161355568Y-39116742D01*
X161359237Y-39000000D01*
X161340689Y-38738031D01*
X161327339Y-38676020D01*
X161286350Y-38485636D01*
X161286350Y-38485634D01*
X161285414Y-38481289D01*
X161194515Y-38234897D01*
X161069806Y-38003771D01*
X160913775Y-37792522D01*
X160867622Y-37745638D01*
X160732666Y-37608547D01*
X160729535Y-37605366D01*
X160520764Y-37446036D01*
X160291625Y-37317712D01*
X160287466Y-37316103D01*
X160050846Y-37224561D01*
X160050840Y-37224559D01*
X160046691Y-37222954D01*
X160042359Y-37221950D01*
X160042356Y-37221949D01*
X159937747Y-37197702D01*
X159790849Y-37163653D01*
X159529204Y-37140992D01*
X159524769Y-37141236D01*
X159524765Y-37141236D01*
X159271419Y-37155179D01*
X159271412Y-37155180D01*
X159266976Y-37155424D01*
X159009397Y-37206659D01*
X158761608Y-37293677D01*
X158757657Y-37295730D01*
X158757651Y-37295732D01*
X158532501Y-37412688D01*
X158528551Y-37414740D01*
X158524936Y-37417323D01*
X158524930Y-37417327D01*
X158480975Y-37448738D01*
X158314878Y-37567433D01*
X158124851Y-37748710D01*
X158122095Y-37752206D01*
X158122094Y-37752207D01*
X157965017Y-37951458D01*
X157962261Y-37954954D01*
X157902898Y-38057156D01*
X157832588Y-38178202D01*
X157832585Y-38178208D01*
X157830354Y-38182049D01*
X157828684Y-38186172D01*
X157807257Y-38239074D01*
X157731761Y-38425464D01*
X157730690Y-38429777D01*
X157730688Y-38429782D01*
X157717894Y-38481289D01*
X157668448Y-38680343D01*
X157641680Y-38941600D01*
X106355102Y-38941600D01*
X106340689Y-38738031D01*
X106327339Y-38676020D01*
X106286350Y-38485636D01*
X106286350Y-38485634D01*
X106285414Y-38481289D01*
X106194515Y-38234897D01*
X106069806Y-38003771D01*
X105913775Y-37792522D01*
X105867622Y-37745638D01*
X105732666Y-37608547D01*
X105729535Y-37605366D01*
X105520764Y-37446036D01*
X105291625Y-37317712D01*
X105287466Y-37316103D01*
X105050846Y-37224561D01*
X105050840Y-37224559D01*
X105046691Y-37222954D01*
X105042359Y-37221950D01*
X105042356Y-37221949D01*
X104937747Y-37197702D01*
X104790849Y-37163653D01*
X104529204Y-37140992D01*
X104524769Y-37141236D01*
X104524765Y-37141236D01*
X104271419Y-37155179D01*
X104271412Y-37155180D01*
X104266976Y-37155424D01*
X104009397Y-37206659D01*
X103761608Y-37293677D01*
X103757657Y-37295730D01*
X103757651Y-37295732D01*
X103532501Y-37412688D01*
X103528551Y-37414740D01*
X103524936Y-37417323D01*
X103524930Y-37417327D01*
X103480975Y-37448738D01*
X103314878Y-37567433D01*
X103124851Y-37748710D01*
X103122095Y-37752206D01*
X103122094Y-37752207D01*
X102965017Y-37951458D01*
X102962261Y-37954954D01*
X102902898Y-38057156D01*
X102832588Y-38178202D01*
X102832585Y-38178208D01*
X102830354Y-38182049D01*
X102828684Y-38186172D01*
X102807257Y-38239074D01*
X102731761Y-38425464D01*
X102730690Y-38429777D01*
X102730688Y-38429782D01*
X102717894Y-38481289D01*
X102668448Y-38680343D01*
X102641680Y-38941600D01*
X100754000Y-38941600D01*
X100754000Y-35380000D01*
X100774002Y-35311879D01*
X100827658Y-35265386D01*
X100880000Y-35254000D01*
X163120000Y-35254000D01*
X163188121Y-35274002D01*
G37*
%TD.AperFunction*%
%TD*%
M02*
