M48
; DRILL file {KiCad (5.99.0-12650-g5c402a64ab)} date Sun 10 Oct 2021 09:45:15 PM CEST
; FORMAT={-:-/ absolute / inch / decimal}
; #@! TF.CreationDate,2021-10-10T21:45:15+02:00
; #@! TF.GenerationSoftware,Kicad,Pcbnew,(5.99.0-12650-g5c402a64ab)
; #@! TF.FileFunction,Plated,1,2,PTH
FMAT,2
INCH
; #@! TA.AperFunction,Plated,PTH,ViaDrill
T1C0.0118
; #@! TA.AperFunction,Plated,PTH,ComponentDrill
T2C0.0295
%
G90
G05
T1
X4.0344Y-1.4518
X4.0344Y-1.6093
X4.0344Y-1.688
X4.0344Y-1.7667
X4.0344Y-1.8455
X4.0344Y-2.2392
X4.0344Y-2.3967
X4.1132Y-1.688
X4.1142Y-1.7677
X4.1919Y-1.4518
X4.1919Y-1.6093
X4.1919Y-1.688
X4.1919Y-1.7667
X4.1919Y-1.8455
X4.1919Y-2.2392
X4.1919Y-2.3967
X4.2707Y-2.3967
X4.311Y-1.9291
X4.3494Y-1.7667
X4.3494Y-1.8455
X4.3494Y-2.3179
X4.3504Y-1.685
X4.3543Y-1.6417
X4.3858Y-2.0827
X4.4281Y-1.4518
X4.4281Y-1.5305
X4.4281Y-2.003
X4.4281Y-2.2392
X4.4921Y-2.0039
X4.5069Y-1.4518
X4.5069Y-1.5305
X4.5856Y-1.4518
X4.5856Y-1.5305
X4.5856Y-2.2392
X4.5856Y-2.3179
X4.6644Y-2.2392
X4.6644Y-2.3179
X4.7126Y-1.6378
X4.7431Y-2.2392
X4.7431Y-2.3179
X4.8071Y-1.6378
X4.8071Y-1.7323
X4.8219Y-2.003
X4.8219Y-2.2392
X4.8219Y-2.3179
X4.8228Y-1.685
X4.8386Y-1.8465
X4.8976Y-1.7953
X4.9006Y-1.4518
X4.9006Y-1.5305
X4.9006Y-2.003
X4.9006Y-2.2392
X4.9606Y-1.7953
X4.9606Y-1.8583
X4.9685Y-2.0039
X4.9793Y-1.4518
X4.9793Y-1.5305
X5.0581Y-1.4518
X5.0581Y-1.5305
X5.0581Y-2.2392
X5.0581Y-2.3179
X5.1368Y-2.2392
X5.1368Y-2.3179
X5.2156Y-1.688
X5.2156Y-2.2392
X5.2156Y-2.3179
X5.2165Y-1.6417
X5.2913Y-1.6378
X5.2943Y-1.7667
X5.2943Y-1.8455
X5.2943Y-2.003
X5.2943Y-2.2392
X5.2943Y-2.3179
X5.2953Y-1.685
X5.373Y-1.4518
X5.373Y-1.5305
X5.373Y-2.003
X5.373Y-2.2392
X5.4409Y-2.0039
X5.4518Y-1.4518
X5.4518Y-1.5305
X5.5305Y-1.4518
X5.5305Y-1.5305
X5.5305Y-2.2392
X5.5305Y-2.3179
X5.6093Y-2.2392
X5.6093Y-2.3179
X5.688Y-1.6093
X5.688Y-2.2392
X5.688Y-2.3179
X5.7559Y-1.7323
X5.7667Y-1.6093
X5.7667Y-2.003
X5.7667Y-2.2392
X5.7677Y-1.685
X5.7835Y-1.8504
X5.8425Y-1.7913
X5.8455Y-1.4518
X5.8455Y-1.5305
X5.8455Y-2.003
X5.8455Y-2.2392
X5.8455Y-2.3967
X5.9055Y-1.7913
X5.9055Y-1.8583
X5.9134Y-2.0039
X5.9242Y-1.4518
X5.9242Y-1.5305
X5.9242Y-2.3967
X6.003Y-1.4518
X6.003Y-1.5305
X6.003Y-2.2392
X6.003Y-2.3179
X6.003Y-2.3967
X6.0817Y-2.2392
X6.0817Y-2.3179
X6.0817Y-2.3967
X6.1604Y-1.4518
X6.1604Y-1.5305
X6.1604Y-1.6093
X6.1604Y-1.688
X6.1604Y-2.2392
X6.1604Y-2.3179
X6.1604Y-2.3967
X6.2392Y-1.4518
X6.2392Y-1.688
X6.2392Y-1.7667
X6.2392Y-1.8455
X6.2392Y-1.9242
X6.2392Y-2.003
X6.2392Y-2.0817
X6.2392Y-2.1604
X6.2392Y-2.2392
X6.3179Y-1.4518
X6.3179Y-1.688
X6.3179Y-1.7667
X6.3179Y-1.8455
X6.3179Y-1.9242
X6.3179Y-2.003
X6.3179Y-2.0817
X6.3179Y-2.1604
X6.3179Y-2.2392
X6.3967Y-1.4518
X6.3967Y-1.5305
X6.3967Y-1.6093
X6.3967Y-1.688
X6.3967Y-1.7667
X6.3967Y-1.8455
X6.3967Y-1.9242
X6.3967Y-2.003
X6.3967Y-2.0817
X6.3967Y-2.1604
X6.3967Y-2.2392
X6.3967Y-2.3179
X6.3967Y-2.3967
T2
X4.1122Y-1.8898
X4.1122Y-1.9685
X4.4488Y-2.3228
X4.5276Y-2.3228
X4.9213Y-2.3228
X5.0Y-2.3228
X5.3937Y-2.3228
X5.4724Y-2.3228
X5.8661Y-2.3228
X5.9449Y-2.3228
T0
M30
