%TF.GenerationSoftware,KiCad,Pcbnew,(5.99.0-12650-g5c402a64ab)*%
%TF.CreationDate,2021-10-05T22:34:50+02:00*%
%TF.ProjectId,mini_light_control,6d696e69-5f6c-4696-9768-745f636f6e74,v1.0*%
%TF.SameCoordinates,Original*%
%TF.FileFunction,Copper,L1,Top*%
%TF.FilePolarity,Positive*%
%FSLAX46Y46*%
G04 Gerber Fmt 4.6, Leading zero omitted, Abs format (unit mm)*
G04 Created by KiCad (PCBNEW (5.99.0-12650-g5c402a64ab)) date 2021-10-05 22:34:50*
%MOMM*%
%LPD*%
G01*
G04 APERTURE LIST*
G04 Aperture macros list*
%AMRoundRect*
0 Rectangle with rounded corners*
0 $1 Rounding radius*
0 $2 $3 $4 $5 $6 $7 $8 $9 X,Y pos of 4 corners*
0 Add a 4 corners polygon primitive as box body*
4,1,4,$2,$3,$4,$5,$6,$7,$8,$9,$2,$3,0*
0 Add four circle primitives for the rounded corners*
1,1,$1+$1,$2,$3*
1,1,$1+$1,$4,$5*
1,1,$1+$1,$6,$7*
1,1,$1+$1,$8,$9*
0 Add four rect primitives between the rounded corners*
20,1,$1+$1,$2,$3,$4,$5,0*
20,1,$1+$1,$4,$5,$6,$7,0*
20,1,$1+$1,$6,$7,$8,$9,0*
20,1,$1+$1,$8,$9,$2,$3,0*%
G04 Aperture macros list end*
%TA.AperFunction,SMDPad,CuDef*%
%ADD10RoundRect,0.250000X1.500000X0.550000X-1.500000X0.550000X-1.500000X-0.550000X1.500000X-0.550000X0*%
%TD*%
%TA.AperFunction,ComponentPad*%
%ADD11RoundRect,0.250000X0.350000X0.625000X-0.350000X0.625000X-0.350000X-0.625000X0.350000X-0.625000X0*%
%TD*%
%TA.AperFunction,ComponentPad*%
%ADD12O,1.200000X1.750000*%
%TD*%
%TA.AperFunction,SMDPad,CuDef*%
%ADD13RoundRect,0.250000X0.250000X1.500000X-0.250000X1.500000X-0.250000X-1.500000X0.250000X-1.500000X0*%
%TD*%
%TA.AperFunction,SMDPad,CuDef*%
%ADD14RoundRect,0.250001X0.499999X1.449999X-0.499999X1.449999X-0.499999X-1.449999X0.499999X-1.449999X0*%
%TD*%
%TA.AperFunction,ComponentPad*%
%ADD15RoundRect,0.250000X0.625000X-0.350000X0.625000X0.350000X-0.625000X0.350000X-0.625000X-0.350000X0*%
%TD*%
%TA.AperFunction,ComponentPad*%
%ADD16O,1.750000X1.200000*%
%TD*%
%TA.AperFunction,ViaPad*%
%ADD17C,0.600000*%
%TD*%
%TA.AperFunction,Conductor*%
%ADD18C,0.450000*%
%TD*%
G04 APERTURE END LIST*
D10*
%TO.P,C12,1*%
%TO.N,+12V*%
X141700000Y-49000000D03*
%TO.P,C12,2*%
%TO.N,GND*%
X136300000Y-49000000D03*
%TD*%
%TO.P,C13,1*%
%TO.N,+12V*%
X153700000Y-49000000D03*
%TO.P,C13,2*%
%TO.N,GND*%
X148300000Y-49000000D03*
%TD*%
D11*
%TO.P,J7,1,Pin_1*%
%TO.N,Net-(C10-Pad1)*%
X151000000Y-59000000D03*
D12*
%TO.P,J7,2,Pin_2*%
%TO.N,Net-(J7-Pad2)*%
X149000000Y-59000000D03*
%TD*%
D11*
%TO.P,J3,1,Pin_1*%
%TO.N,Net-(C3-Pad1)*%
X127000000Y-59000000D03*
D12*
%TO.P,J3,2,Pin_2*%
%TO.N,Net-(J3-Pad2)*%
X125000000Y-59000000D03*
%TD*%
D10*
%TO.P,C7,1*%
%TO.N,+12V*%
X129700000Y-49000000D03*
%TO.P,C7,2*%
%TO.N,GND*%
X124300000Y-49000000D03*
%TD*%
D13*
%TO.P,J4,1,Pin_1*%
%TO.N,+12V*%
X116000000Y-42850000D03*
%TO.P,J4,2,Pin_2*%
%TO.N,GND*%
X114000000Y-42850000D03*
%TO.P,J4,3,Pin_3*%
%TO.N,Net-(J4-Pad3)*%
X112000000Y-42850000D03*
D14*
%TO.P,J4,MP*%
%TO.N,N/C*%
X109650000Y-37100000D03*
X118350000Y-37100000D03*
%TD*%
D11*
%TO.P,J6,1,Pin_1*%
%TO.N,Net-(C9-Pad1)*%
X139000000Y-59000000D03*
D12*
%TO.P,J6,2,Pin_2*%
%TO.N,Net-(J6-Pad2)*%
X137000000Y-59000000D03*
%TD*%
D11*
%TO.P,J2,1,Pin_1*%
%TO.N,Net-(C2-Pad1)*%
X115000000Y-59000000D03*
D12*
%TO.P,J2,2,Pin_2*%
%TO.N,Net-(J2-Pad2)*%
X113000000Y-59000000D03*
%TD*%
D10*
%TO.P,C6,1*%
%TO.N,+12V*%
X117700000Y-49000000D03*
%TO.P,C6,2*%
%TO.N,GND*%
X112300000Y-49000000D03*
%TD*%
D13*
%TO.P,J8,1,Pin_1*%
%TO.N,+12V*%
X140000000Y-42850000D03*
%TO.P,J8,2,Pin_2*%
%TO.N,GND*%
X138000000Y-42850000D03*
%TO.P,J8,3,Pin_3*%
%TO.N,Net-(J8-Pad3)*%
X136000000Y-42850000D03*
D14*
%TO.P,J8,MP*%
%TO.N,N/C*%
X133650000Y-37100000D03*
X142350000Y-37100000D03*
%TD*%
D15*
%TO.P,J1,1,Pin_1*%
%TO.N,+12V*%
X104450000Y-52000000D03*
D16*
%TO.P,J1,2,Pin_2*%
X104450000Y-50000000D03*
%TO.P,J1,3,Pin_3*%
%TO.N,GND*%
X104450000Y-48000000D03*
%TO.P,J1,4,Pin_4*%
X104450000Y-46000000D03*
%TD*%
D13*
%TO.P,J9,1,Pin_1*%
%TO.N,+12V*%
X152000000Y-42850000D03*
%TO.P,J9,2,Pin_2*%
%TO.N,GND*%
X150000000Y-42850000D03*
%TO.P,J9,3,Pin_3*%
%TO.N,Net-(J9-Pad3)*%
X148000000Y-42850000D03*
D14*
%TO.P,J9,MP*%
%TO.N,N/C*%
X154350000Y-37100000D03*
X145650000Y-37100000D03*
%TD*%
D13*
%TO.P,J5,1,Pin_1*%
%TO.N,+12V*%
X128000000Y-42850000D03*
%TO.P,J5,2,Pin_2*%
%TO.N,GND*%
X126000000Y-42850000D03*
%TO.P,J5,3,Pin_3*%
%TO.N,Net-(J5-Pad3)*%
X124000000Y-42850000D03*
D14*
%TO.P,J5,MP*%
%TO.N,N/C*%
X130350000Y-37100000D03*
X121650000Y-37100000D03*
%TD*%
D17*
%TO.N,GND*%
X144475000Y-58875000D03*
X126475000Y-38875000D03*
X116475000Y-56875000D03*
X126475000Y-36875000D03*
X116475000Y-38875000D03*
X138200000Y-50900000D03*
X122100000Y-44000000D03*
X158475000Y-42875000D03*
X114100000Y-50900000D03*
X154475000Y-56875000D03*
X126000000Y-47200000D03*
X108475000Y-60875000D03*
X106475000Y-44875000D03*
X124400000Y-45600000D03*
X106475000Y-36875000D03*
X136475000Y-36875000D03*
X160475000Y-52875000D03*
X110475000Y-58875000D03*
X116475000Y-36875000D03*
X106475000Y-60875000D03*
X138475000Y-38875000D03*
X102475000Y-46875000D03*
X162475000Y-58875000D03*
X154475000Y-60875000D03*
X122475000Y-50875000D03*
X158475000Y-48875000D03*
X106475000Y-56875000D03*
X150200000Y-50900000D03*
X102475000Y-44875000D03*
X156475000Y-40875000D03*
X150000000Y-47200000D03*
X162475000Y-38875000D03*
X122900000Y-46900000D03*
X134475000Y-56875000D03*
X120475000Y-56875000D03*
X110475000Y-46875000D03*
X114475000Y-36875000D03*
X128475000Y-36875000D03*
X146900000Y-47000000D03*
X150000000Y-45500000D03*
X152475000Y-58875000D03*
X112475000Y-56875000D03*
X112475000Y-36875000D03*
X128475000Y-58875000D03*
X146475000Y-40875000D03*
X158475000Y-52875000D03*
X144475000Y-40875000D03*
X156475000Y-56875000D03*
X162475000Y-56875000D03*
X160475000Y-54875000D03*
X134475000Y-46875000D03*
X134475000Y-44875000D03*
X142475000Y-56875000D03*
X154475000Y-58875000D03*
X112475000Y-38875000D03*
X160475000Y-50875000D03*
X162475000Y-52875000D03*
X160475000Y-46875000D03*
X136475000Y-56875000D03*
X118475000Y-56875000D03*
X102475000Y-40875000D03*
X158475000Y-46875000D03*
X134475000Y-50875000D03*
X156475000Y-36875000D03*
X148475000Y-36875000D03*
X158475000Y-36875000D03*
X114475000Y-38875000D03*
X152475000Y-38875000D03*
X126000000Y-45600000D03*
X102475000Y-56875000D03*
X162475000Y-36875000D03*
X119700000Y-41600000D03*
X122100000Y-41600000D03*
X118475000Y-58875000D03*
X150475000Y-36875000D03*
X106475000Y-40875000D03*
X160475000Y-48875000D03*
X158475000Y-54875000D03*
X148475000Y-60875000D03*
X138475000Y-36875000D03*
X102475000Y-42875000D03*
X106475000Y-42875000D03*
X156475000Y-42875000D03*
X132475000Y-42875000D03*
X158475000Y-50875000D03*
X140475000Y-58875000D03*
X124475000Y-36875000D03*
X122475000Y-58875000D03*
X124475000Y-56875000D03*
X144475000Y-56875000D03*
X156475000Y-38875000D03*
X110600000Y-41700000D03*
X102475000Y-36875000D03*
X136475000Y-38875000D03*
X122475000Y-56875000D03*
X128475000Y-38875000D03*
X140475000Y-56875000D03*
X160475000Y-42875000D03*
X132475000Y-58875000D03*
X136475000Y-50875000D03*
X142475000Y-58875000D03*
X124475000Y-50875000D03*
X102475000Y-60875000D03*
X162475000Y-60875000D03*
X156475000Y-58875000D03*
X134475000Y-58875000D03*
X162475000Y-40875000D03*
X130475000Y-58875000D03*
X152475000Y-60875000D03*
X146475000Y-50875000D03*
X134400000Y-41600000D03*
X106475000Y-46875000D03*
X104475000Y-42875000D03*
X158475000Y-56875000D03*
X146475000Y-56875000D03*
X152475000Y-36875000D03*
X162475000Y-42875000D03*
X130475000Y-56875000D03*
X140475000Y-38875000D03*
X148475000Y-38875000D03*
X150475000Y-60875000D03*
X148475000Y-50875000D03*
X146200000Y-44000000D03*
X112475000Y-50875000D03*
X148400000Y-45500000D03*
X109500000Y-49000000D03*
X162475000Y-50875000D03*
X116475000Y-58875000D03*
X140475000Y-36875000D03*
X124475000Y-38875000D03*
X162475000Y-46875000D03*
X110475000Y-44875000D03*
X162475000Y-48875000D03*
X148475000Y-56875000D03*
X150475000Y-38875000D03*
X152475000Y-56875000D03*
X126200000Y-50900000D03*
X160475000Y-36875000D03*
X132475000Y-56875000D03*
X120475000Y-58875000D03*
X162475000Y-54875000D03*
X160475000Y-44875000D03*
X156475000Y-60875000D03*
X158475000Y-44875000D03*
X128475000Y-56875000D03*
X160475000Y-56875000D03*
X162475000Y-44875000D03*
X132500000Y-41700000D03*
%TO.N,+12V*%
X112300000Y-52900000D03*
%TO.N,Net-(J4-Pad3)*%
X110500000Y-42800000D03*
%TO.N,Net-(J5-Pad3)*%
X122500000Y-42800000D03*
%TO.N,Net-(J8-Pad3)*%
X134500000Y-42800000D03*
%TO.N,Net-(J9-Pad3)*%
X146500000Y-42800000D03*
%TD*%
D18*
%TO.N,Net-(J4-Pad3)*%
X110550000Y-42850000D02*
X110500000Y-42800000D01*
X112000000Y-42850000D02*
X110550000Y-42850000D01*
%TO.N,Net-(J5-Pad3)*%
X122550000Y-42850000D02*
X122500000Y-42800000D01*
X124000000Y-42850000D02*
X122550000Y-42850000D01*
%TO.N,Net-(J8-Pad3)*%
X136000000Y-42850000D02*
X134550000Y-42850000D01*
X134550000Y-42850000D02*
X134500000Y-42800000D01*
%TO.N,Net-(J9-Pad3)*%
X146550000Y-42850000D02*
X146500000Y-42800000D01*
X148000000Y-42850000D02*
X146550000Y-42850000D01*
%TD*%
%TA.AperFunction,Conductor*%
%TO.N,GND*%
G36*
X108645948Y-35274002D02*
G01*
X108692441Y-35327658D01*
X108702545Y-35397932D01*
X108695809Y-35424229D01*
X108652202Y-35540553D01*
X108645500Y-35602245D01*
X108645501Y-38597754D01*
X108652202Y-38659447D01*
X108702929Y-38794764D01*
X108708309Y-38801943D01*
X108708311Y-38801946D01*
X108774287Y-38889977D01*
X108789596Y-38910404D01*
X108796776Y-38915785D01*
X108898054Y-38991689D01*
X108898057Y-38991691D01*
X108905236Y-38997071D01*
X108913639Y-39000221D01*
X109033158Y-39045026D01*
X109033159Y-39045026D01*
X109040553Y-39047798D01*
X109048403Y-39048651D01*
X109048404Y-39048651D01*
X109098839Y-39054130D01*
X109102245Y-39054500D01*
X109649919Y-39054500D01*
X110197754Y-39054499D01*
X110201148Y-39054130D01*
X110201154Y-39054130D01*
X110251589Y-39048652D01*
X110251593Y-39048651D01*
X110259447Y-39047798D01*
X110394764Y-38997071D01*
X110401943Y-38991691D01*
X110401946Y-38991689D01*
X110503224Y-38915785D01*
X110510404Y-38910404D01*
X110525713Y-38889977D01*
X110591689Y-38801946D01*
X110591691Y-38801943D01*
X110597071Y-38794764D01*
X110647798Y-38659447D01*
X110654500Y-38597755D01*
X110654499Y-35602246D01*
X110647798Y-35540553D01*
X110604191Y-35424229D01*
X110599008Y-35353421D01*
X110632930Y-35291053D01*
X110695185Y-35256924D01*
X110722173Y-35254000D01*
X117277827Y-35254000D01*
X117345948Y-35274002D01*
X117392441Y-35327658D01*
X117402545Y-35397932D01*
X117395809Y-35424229D01*
X117352202Y-35540553D01*
X117345500Y-35602245D01*
X117345501Y-38597754D01*
X117352202Y-38659447D01*
X117402929Y-38794764D01*
X117408309Y-38801943D01*
X117408311Y-38801946D01*
X117474287Y-38889977D01*
X117489596Y-38910404D01*
X117496776Y-38915785D01*
X117598054Y-38991689D01*
X117598057Y-38991691D01*
X117605236Y-38997071D01*
X117613639Y-39000221D01*
X117733158Y-39045026D01*
X117733159Y-39045026D01*
X117740553Y-39047798D01*
X117748403Y-39048651D01*
X117748404Y-39048651D01*
X117798839Y-39054130D01*
X117802245Y-39054500D01*
X118349919Y-39054500D01*
X118897754Y-39054499D01*
X118901148Y-39054130D01*
X118901154Y-39054130D01*
X118951589Y-39048652D01*
X118951593Y-39048651D01*
X118959447Y-39047798D01*
X119094764Y-38997071D01*
X119101943Y-38991691D01*
X119101946Y-38991689D01*
X119203224Y-38915785D01*
X119210404Y-38910404D01*
X119225713Y-38889977D01*
X119291689Y-38801946D01*
X119291691Y-38801943D01*
X119297071Y-38794764D01*
X119347798Y-38659447D01*
X119354500Y-38597755D01*
X119354499Y-35602246D01*
X119347798Y-35540553D01*
X119304191Y-35424229D01*
X119299008Y-35353421D01*
X119332930Y-35291053D01*
X119395185Y-35256924D01*
X119422173Y-35254000D01*
X120577827Y-35254000D01*
X120645948Y-35274002D01*
X120692441Y-35327658D01*
X120702545Y-35397932D01*
X120695809Y-35424229D01*
X120652202Y-35540553D01*
X120645500Y-35602245D01*
X120645501Y-38597754D01*
X120652202Y-38659447D01*
X120702929Y-38794764D01*
X120708309Y-38801943D01*
X120708311Y-38801946D01*
X120774287Y-38889977D01*
X120789596Y-38910404D01*
X120796776Y-38915785D01*
X120898054Y-38991689D01*
X120898057Y-38991691D01*
X120905236Y-38997071D01*
X120913639Y-39000221D01*
X121033158Y-39045026D01*
X121033159Y-39045026D01*
X121040553Y-39047798D01*
X121048403Y-39048651D01*
X121048404Y-39048651D01*
X121098839Y-39054130D01*
X121102245Y-39054500D01*
X121649919Y-39054500D01*
X122197754Y-39054499D01*
X122201148Y-39054130D01*
X122201154Y-39054130D01*
X122251589Y-39048652D01*
X122251593Y-39048651D01*
X122259447Y-39047798D01*
X122394764Y-38997071D01*
X122401943Y-38991691D01*
X122401946Y-38991689D01*
X122503224Y-38915785D01*
X122510404Y-38910404D01*
X122525713Y-38889977D01*
X122591689Y-38801946D01*
X122591691Y-38801943D01*
X122597071Y-38794764D01*
X122647798Y-38659447D01*
X122654500Y-38597755D01*
X122654499Y-35602246D01*
X122647798Y-35540553D01*
X122604191Y-35424229D01*
X122599008Y-35353421D01*
X122632930Y-35291053D01*
X122695185Y-35256924D01*
X122722173Y-35254000D01*
X129277827Y-35254000D01*
X129345948Y-35274002D01*
X129392441Y-35327658D01*
X129402545Y-35397932D01*
X129395809Y-35424229D01*
X129352202Y-35540553D01*
X129345500Y-35602245D01*
X129345501Y-38597754D01*
X129352202Y-38659447D01*
X129402929Y-38794764D01*
X129408309Y-38801943D01*
X129408311Y-38801946D01*
X129474287Y-38889977D01*
X129489596Y-38910404D01*
X129496776Y-38915785D01*
X129598054Y-38991689D01*
X129598057Y-38991691D01*
X129605236Y-38997071D01*
X129613639Y-39000221D01*
X129733158Y-39045026D01*
X129733159Y-39045026D01*
X129740553Y-39047798D01*
X129748403Y-39048651D01*
X129748404Y-39048651D01*
X129798839Y-39054130D01*
X129802245Y-39054500D01*
X130349919Y-39054500D01*
X130897754Y-39054499D01*
X130901148Y-39054130D01*
X130901154Y-39054130D01*
X130951589Y-39048652D01*
X130951593Y-39048651D01*
X130959447Y-39047798D01*
X131094764Y-38997071D01*
X131101943Y-38991691D01*
X131101946Y-38991689D01*
X131203224Y-38915785D01*
X131210404Y-38910404D01*
X131225713Y-38889977D01*
X131291689Y-38801946D01*
X131291691Y-38801943D01*
X131297071Y-38794764D01*
X131347798Y-38659447D01*
X131354500Y-38597755D01*
X131354499Y-35602246D01*
X131347798Y-35540553D01*
X131304191Y-35424229D01*
X131299008Y-35353421D01*
X131332930Y-35291053D01*
X131395185Y-35256924D01*
X131422173Y-35254000D01*
X132577827Y-35254000D01*
X132645948Y-35274002D01*
X132692441Y-35327658D01*
X132702545Y-35397932D01*
X132695809Y-35424229D01*
X132652202Y-35540553D01*
X132645500Y-35602245D01*
X132645501Y-38597754D01*
X132652202Y-38659447D01*
X132702929Y-38794764D01*
X132708309Y-38801943D01*
X132708311Y-38801946D01*
X132774287Y-38889977D01*
X132789596Y-38910404D01*
X132796776Y-38915785D01*
X132898054Y-38991689D01*
X132898057Y-38991691D01*
X132905236Y-38997071D01*
X132913639Y-39000221D01*
X133033158Y-39045026D01*
X133033159Y-39045026D01*
X133040553Y-39047798D01*
X133048403Y-39048651D01*
X133048404Y-39048651D01*
X133098839Y-39054130D01*
X133102245Y-39054500D01*
X133649919Y-39054500D01*
X134197754Y-39054499D01*
X134201148Y-39054130D01*
X134201154Y-39054130D01*
X134251589Y-39048652D01*
X134251593Y-39048651D01*
X134259447Y-39047798D01*
X134394764Y-38997071D01*
X134401943Y-38991691D01*
X134401946Y-38991689D01*
X134503224Y-38915785D01*
X134510404Y-38910404D01*
X134525713Y-38889977D01*
X134591689Y-38801946D01*
X134591691Y-38801943D01*
X134597071Y-38794764D01*
X134647798Y-38659447D01*
X134654500Y-38597755D01*
X134654499Y-35602246D01*
X134647798Y-35540553D01*
X134604191Y-35424229D01*
X134599008Y-35353421D01*
X134632930Y-35291053D01*
X134695185Y-35256924D01*
X134722173Y-35254000D01*
X141277827Y-35254000D01*
X141345948Y-35274002D01*
X141392441Y-35327658D01*
X141402545Y-35397932D01*
X141395809Y-35424229D01*
X141352202Y-35540553D01*
X141345500Y-35602245D01*
X141345501Y-38597754D01*
X141352202Y-38659447D01*
X141402929Y-38794764D01*
X141408309Y-38801943D01*
X141408311Y-38801946D01*
X141474287Y-38889977D01*
X141489596Y-38910404D01*
X141496776Y-38915785D01*
X141598054Y-38991689D01*
X141598057Y-38991691D01*
X141605236Y-38997071D01*
X141613639Y-39000221D01*
X141733158Y-39045026D01*
X141733159Y-39045026D01*
X141740553Y-39047798D01*
X141748403Y-39048651D01*
X141748404Y-39048651D01*
X141798839Y-39054130D01*
X141802245Y-39054500D01*
X142349919Y-39054500D01*
X142897754Y-39054499D01*
X142901148Y-39054130D01*
X142901154Y-39054130D01*
X142951589Y-39048652D01*
X142951593Y-39048651D01*
X142959447Y-39047798D01*
X143094764Y-38997071D01*
X143101943Y-38991691D01*
X143101946Y-38991689D01*
X143203224Y-38915785D01*
X143210404Y-38910404D01*
X143225713Y-38889977D01*
X143291689Y-38801946D01*
X143291691Y-38801943D01*
X143297071Y-38794764D01*
X143347798Y-38659447D01*
X143354500Y-38597755D01*
X143354499Y-35602246D01*
X143347798Y-35540553D01*
X143304191Y-35424229D01*
X143299008Y-35353421D01*
X143332930Y-35291053D01*
X143395185Y-35256924D01*
X143422173Y-35254000D01*
X144577827Y-35254000D01*
X144645948Y-35274002D01*
X144692441Y-35327658D01*
X144702545Y-35397932D01*
X144695809Y-35424229D01*
X144652202Y-35540553D01*
X144645500Y-35602245D01*
X144645501Y-38597754D01*
X144652202Y-38659447D01*
X144702929Y-38794764D01*
X144708309Y-38801943D01*
X144708311Y-38801946D01*
X144774287Y-38889977D01*
X144789596Y-38910404D01*
X144796776Y-38915785D01*
X144898054Y-38991689D01*
X144898057Y-38991691D01*
X144905236Y-38997071D01*
X144913639Y-39000221D01*
X145033158Y-39045026D01*
X145033159Y-39045026D01*
X145040553Y-39047798D01*
X145048403Y-39048651D01*
X145048404Y-39048651D01*
X145098839Y-39054130D01*
X145102245Y-39054500D01*
X145649919Y-39054500D01*
X146197754Y-39054499D01*
X146201148Y-39054130D01*
X146201154Y-39054130D01*
X146251589Y-39048652D01*
X146251593Y-39048651D01*
X146259447Y-39047798D01*
X146394764Y-38997071D01*
X146401943Y-38991691D01*
X146401946Y-38991689D01*
X146503224Y-38915785D01*
X146510404Y-38910404D01*
X146525713Y-38889977D01*
X146591689Y-38801946D01*
X146591691Y-38801943D01*
X146597071Y-38794764D01*
X146647798Y-38659447D01*
X146654500Y-38597755D01*
X146654499Y-35602246D01*
X146647798Y-35540553D01*
X146604191Y-35424229D01*
X146599008Y-35353421D01*
X146632930Y-35291053D01*
X146695185Y-35256924D01*
X146722173Y-35254000D01*
X153277827Y-35254000D01*
X153345948Y-35274002D01*
X153392441Y-35327658D01*
X153402545Y-35397932D01*
X153395809Y-35424229D01*
X153352202Y-35540553D01*
X153345500Y-35602245D01*
X153345501Y-38597754D01*
X153352202Y-38659447D01*
X153402929Y-38794764D01*
X153408309Y-38801943D01*
X153408311Y-38801946D01*
X153474287Y-38889977D01*
X153489596Y-38910404D01*
X153496776Y-38915785D01*
X153598054Y-38991689D01*
X153598057Y-38991691D01*
X153605236Y-38997071D01*
X153613639Y-39000221D01*
X153733158Y-39045026D01*
X153733159Y-39045026D01*
X153740553Y-39047798D01*
X153748403Y-39048651D01*
X153748404Y-39048651D01*
X153798839Y-39054130D01*
X153802245Y-39054500D01*
X154349919Y-39054500D01*
X154897754Y-39054499D01*
X154901148Y-39054130D01*
X154901154Y-39054130D01*
X154951589Y-39048652D01*
X154951593Y-39048651D01*
X154959447Y-39047798D01*
X155094764Y-38997071D01*
X155101943Y-38991691D01*
X155101946Y-38991689D01*
X155168779Y-38941600D01*
X157641680Y-38941600D01*
X157641855Y-38946052D01*
X157646102Y-39054131D01*
X157651991Y-39204022D01*
X157699174Y-39462373D01*
X157700583Y-39466596D01*
X157776436Y-39693954D01*
X157782289Y-39711499D01*
X157823768Y-39794511D01*
X157893927Y-39934921D01*
X157899677Y-39946429D01*
X158048995Y-40162474D01*
X158052011Y-40165736D01*
X158052016Y-40165743D01*
X158224249Y-40352063D01*
X158224254Y-40352067D01*
X158227265Y-40355325D01*
X158430929Y-40521134D01*
X158434747Y-40523433D01*
X158434749Y-40523434D01*
X158648998Y-40652422D01*
X158655924Y-40656592D01*
X158669130Y-40662184D01*
X158893663Y-40757262D01*
X158893666Y-40757263D01*
X158897761Y-40758997D01*
X158902053Y-40760135D01*
X158902056Y-40760136D01*
X159147317Y-40825166D01*
X159147321Y-40825167D01*
X159151614Y-40826305D01*
X159156023Y-40826827D01*
X159156029Y-40826828D01*
X159316910Y-40845869D01*
X159412418Y-40857173D01*
X159674970Y-40850986D01*
X159755543Y-40837575D01*
X159929640Y-40808597D01*
X159929644Y-40808596D01*
X159934030Y-40807866D01*
X159938271Y-40806525D01*
X159938274Y-40806524D01*
X160180185Y-40730018D01*
X160180187Y-40730017D01*
X160184431Y-40728675D01*
X160188442Y-40726749D01*
X160188447Y-40726747D01*
X160417156Y-40616922D01*
X160417157Y-40616921D01*
X160421175Y-40614992D01*
X160530984Y-40541620D01*
X160635831Y-40471563D01*
X160635835Y-40471560D01*
X160639539Y-40469085D01*
X160642856Y-40466114D01*
X160642860Y-40466111D01*
X160831849Y-40296839D01*
X160831850Y-40296838D01*
X160835167Y-40293867D01*
X161004154Y-40092832D01*
X161143130Y-39869992D01*
X161168890Y-39811725D01*
X161247522Y-39633861D01*
X161249320Y-39629794D01*
X161320607Y-39377030D01*
X161343845Y-39204022D01*
X161355141Y-39119924D01*
X161355142Y-39119916D01*
X161355568Y-39116742D01*
X161359237Y-39000000D01*
X161340689Y-38738031D01*
X161327339Y-38676020D01*
X161286350Y-38485636D01*
X161286350Y-38485634D01*
X161285414Y-38481289D01*
X161194515Y-38234897D01*
X161069806Y-38003771D01*
X160913775Y-37792522D01*
X160867622Y-37745638D01*
X160732666Y-37608547D01*
X160729535Y-37605366D01*
X160520764Y-37446036D01*
X160291625Y-37317712D01*
X160287466Y-37316103D01*
X160050846Y-37224561D01*
X160050840Y-37224559D01*
X160046691Y-37222954D01*
X160042359Y-37221950D01*
X160042356Y-37221949D01*
X159937747Y-37197702D01*
X159790849Y-37163653D01*
X159529204Y-37140992D01*
X159524769Y-37141236D01*
X159524765Y-37141236D01*
X159271419Y-37155179D01*
X159271412Y-37155180D01*
X159266976Y-37155424D01*
X159009397Y-37206659D01*
X158761608Y-37293677D01*
X158757657Y-37295730D01*
X158757651Y-37295732D01*
X158532501Y-37412688D01*
X158528551Y-37414740D01*
X158524936Y-37417323D01*
X158524930Y-37417327D01*
X158480975Y-37448738D01*
X158314878Y-37567433D01*
X158124851Y-37748710D01*
X158122095Y-37752206D01*
X158122094Y-37752207D01*
X157965017Y-37951458D01*
X157962261Y-37954954D01*
X157902898Y-38057156D01*
X157832588Y-38178202D01*
X157832585Y-38178208D01*
X157830354Y-38182049D01*
X157828684Y-38186172D01*
X157807257Y-38239074D01*
X157731761Y-38425464D01*
X157730690Y-38429777D01*
X157730688Y-38429782D01*
X157717894Y-38481289D01*
X157668448Y-38680343D01*
X157641680Y-38941600D01*
X155168779Y-38941600D01*
X155203224Y-38915785D01*
X155210404Y-38910404D01*
X155225713Y-38889977D01*
X155291689Y-38801946D01*
X155291691Y-38801943D01*
X155297071Y-38794764D01*
X155347798Y-38659447D01*
X155354500Y-38597755D01*
X155354499Y-35602246D01*
X155347798Y-35540553D01*
X155304191Y-35424229D01*
X155299008Y-35353421D01*
X155332930Y-35291053D01*
X155395185Y-35256924D01*
X155422173Y-35254000D01*
X163120000Y-35254000D01*
X163188121Y-35274002D01*
X163234614Y-35327658D01*
X163246000Y-35380000D01*
X163246000Y-62620000D01*
X163225998Y-62688121D01*
X163172342Y-62734614D01*
X163120000Y-62746000D01*
X100880000Y-62746000D01*
X100811879Y-62725998D01*
X100765386Y-62672342D01*
X100754000Y-62620000D01*
X100754000Y-58941600D01*
X102641680Y-58941600D01*
X102651991Y-59204022D01*
X102699174Y-59462373D01*
X102700583Y-59466596D01*
X102754787Y-59629064D01*
X102782289Y-59711499D01*
X102789833Y-59726597D01*
X102893170Y-59933406D01*
X102899677Y-59946429D01*
X103048995Y-60162474D01*
X103052011Y-60165736D01*
X103052016Y-60165743D01*
X103224249Y-60352063D01*
X103224254Y-60352067D01*
X103227265Y-60355325D01*
X103430929Y-60521134D01*
X103434747Y-60523433D01*
X103434749Y-60523434D01*
X103586827Y-60614992D01*
X103655924Y-60656592D01*
X103768947Y-60704451D01*
X103893663Y-60757262D01*
X103893666Y-60757263D01*
X103897761Y-60758997D01*
X103902053Y-60760135D01*
X103902056Y-60760136D01*
X104147317Y-60825166D01*
X104147321Y-60825167D01*
X104151614Y-60826305D01*
X104156023Y-60826827D01*
X104156029Y-60826828D01*
X104326509Y-60847005D01*
X104412418Y-60857173D01*
X104674970Y-60850986D01*
X104755543Y-60837575D01*
X104929640Y-60808597D01*
X104929644Y-60808596D01*
X104934030Y-60807866D01*
X104938271Y-60806525D01*
X104938274Y-60806524D01*
X105180185Y-60730018D01*
X105180187Y-60730017D01*
X105184431Y-60728675D01*
X105188442Y-60726749D01*
X105188447Y-60726747D01*
X105417156Y-60616922D01*
X105417157Y-60616921D01*
X105421175Y-60614992D01*
X105530984Y-60541620D01*
X105635831Y-60471563D01*
X105635835Y-60471560D01*
X105639539Y-60469085D01*
X105642856Y-60466114D01*
X105642860Y-60466111D01*
X105831849Y-60296839D01*
X105831850Y-60296838D01*
X105835167Y-60293867D01*
X106004154Y-60092832D01*
X106143130Y-59869992D01*
X106146518Y-59862330D01*
X106247522Y-59633861D01*
X106249320Y-59629794D01*
X106320607Y-59377030D01*
X106328081Y-59321385D01*
X112145500Y-59321385D01*
X112160512Y-59459573D01*
X112162876Y-59466596D01*
X112216357Y-59625511D01*
X112219730Y-59635535D01*
X112315351Y-59794677D01*
X112320039Y-59799634D01*
X112320041Y-59799637D01*
X112438227Y-59924614D01*
X112442916Y-59929572D01*
X112596471Y-60033928D01*
X112602805Y-60036461D01*
X112602808Y-60036463D01*
X112762516Y-60100342D01*
X112762521Y-60100343D01*
X112768853Y-60102876D01*
X112775580Y-60103990D01*
X112775585Y-60103991D01*
X112945282Y-60132084D01*
X112945285Y-60132084D01*
X112952019Y-60133199D01*
X112958836Y-60132842D01*
X112958840Y-60132842D01*
X113109920Y-60124923D01*
X113137424Y-60123482D01*
X113143996Y-60121672D01*
X113144001Y-60121671D01*
X113309835Y-60075992D01*
X113316417Y-60074179D01*
X113480648Y-59987590D01*
X113622454Y-59867755D01*
X113626602Y-59862330D01*
X113731075Y-59725685D01*
X113731077Y-59725681D01*
X113735219Y-59720264D01*
X113739306Y-59711499D01*
X113757372Y-59672756D01*
X114145500Y-59672756D01*
X114145869Y-59676152D01*
X114145869Y-59676153D01*
X114149990Y-59714082D01*
X114152202Y-59734448D01*
X114202929Y-59869764D01*
X114208309Y-59876943D01*
X114208311Y-59876946D01*
X114247752Y-59929572D01*
X114289596Y-59985404D01*
X114296776Y-59990785D01*
X114398054Y-60066689D01*
X114398057Y-60066691D01*
X114405236Y-60072071D01*
X114490384Y-60103991D01*
X114533157Y-60120026D01*
X114533159Y-60120026D01*
X114540552Y-60122798D01*
X114548402Y-60123651D01*
X114548403Y-60123651D01*
X114550134Y-60123839D01*
X114602244Y-60129500D01*
X115397756Y-60129500D01*
X115449866Y-60123839D01*
X115451597Y-60123651D01*
X115451598Y-60123651D01*
X115459448Y-60122798D01*
X115466841Y-60120026D01*
X115466843Y-60120026D01*
X115509616Y-60103991D01*
X115594764Y-60072071D01*
X115601943Y-60066691D01*
X115601946Y-60066689D01*
X115703224Y-59990785D01*
X115710404Y-59985404D01*
X115752248Y-59929572D01*
X115791689Y-59876946D01*
X115791691Y-59876943D01*
X115797071Y-59869764D01*
X115847798Y-59734448D01*
X115850011Y-59714082D01*
X115854131Y-59676153D01*
X115854131Y-59676152D01*
X115854500Y-59672756D01*
X115854500Y-59321385D01*
X124145500Y-59321385D01*
X124160512Y-59459573D01*
X124162876Y-59466596D01*
X124216357Y-59625511D01*
X124219730Y-59635535D01*
X124315351Y-59794677D01*
X124320039Y-59799634D01*
X124320041Y-59799637D01*
X124438227Y-59924614D01*
X124442916Y-59929572D01*
X124596471Y-60033928D01*
X124602805Y-60036461D01*
X124602808Y-60036463D01*
X124762516Y-60100342D01*
X124762521Y-60100343D01*
X124768853Y-60102876D01*
X124775580Y-60103990D01*
X124775585Y-60103991D01*
X124945282Y-60132084D01*
X124945285Y-60132084D01*
X124952019Y-60133199D01*
X124958836Y-60132842D01*
X124958840Y-60132842D01*
X125109920Y-60124923D01*
X125137424Y-60123482D01*
X125143996Y-60121672D01*
X125144001Y-60121671D01*
X125309835Y-60075992D01*
X125316417Y-60074179D01*
X125480648Y-59987590D01*
X125622454Y-59867755D01*
X125626602Y-59862330D01*
X125731075Y-59725685D01*
X125731077Y-59725681D01*
X125735219Y-59720264D01*
X125739306Y-59711499D01*
X125757372Y-59672756D01*
X126145500Y-59672756D01*
X126145869Y-59676152D01*
X126145869Y-59676153D01*
X126149990Y-59714082D01*
X126152202Y-59734448D01*
X126202929Y-59869764D01*
X126208309Y-59876943D01*
X126208311Y-59876946D01*
X126247752Y-59929572D01*
X126289596Y-59985404D01*
X126296776Y-59990785D01*
X126398054Y-60066689D01*
X126398057Y-60066691D01*
X126405236Y-60072071D01*
X126490384Y-60103991D01*
X126533157Y-60120026D01*
X126533159Y-60120026D01*
X126540552Y-60122798D01*
X126548402Y-60123651D01*
X126548403Y-60123651D01*
X126550134Y-60123839D01*
X126602244Y-60129500D01*
X127397756Y-60129500D01*
X127449866Y-60123839D01*
X127451597Y-60123651D01*
X127451598Y-60123651D01*
X127459448Y-60122798D01*
X127466841Y-60120026D01*
X127466843Y-60120026D01*
X127509616Y-60103991D01*
X127594764Y-60072071D01*
X127601943Y-60066691D01*
X127601946Y-60066689D01*
X127703224Y-59990785D01*
X127710404Y-59985404D01*
X127752248Y-59929572D01*
X127791689Y-59876946D01*
X127791691Y-59876943D01*
X127797071Y-59869764D01*
X127847798Y-59734448D01*
X127850011Y-59714082D01*
X127854131Y-59676153D01*
X127854131Y-59676152D01*
X127854500Y-59672756D01*
X127854500Y-59321385D01*
X136145500Y-59321385D01*
X136160512Y-59459573D01*
X136162876Y-59466596D01*
X136216357Y-59625511D01*
X136219730Y-59635535D01*
X136315351Y-59794677D01*
X136320039Y-59799634D01*
X136320041Y-59799637D01*
X136438227Y-59924614D01*
X136442916Y-59929572D01*
X136596471Y-60033928D01*
X136602805Y-60036461D01*
X136602808Y-60036463D01*
X136762516Y-60100342D01*
X136762521Y-60100343D01*
X136768853Y-60102876D01*
X136775580Y-60103990D01*
X136775585Y-60103991D01*
X136945282Y-60132084D01*
X136945285Y-60132084D01*
X136952019Y-60133199D01*
X136958836Y-60132842D01*
X136958840Y-60132842D01*
X137109920Y-60124923D01*
X137137424Y-60123482D01*
X137143996Y-60121672D01*
X137144001Y-60121671D01*
X137309835Y-60075992D01*
X137316417Y-60074179D01*
X137480648Y-59987590D01*
X137622454Y-59867755D01*
X137626602Y-59862330D01*
X137731075Y-59725685D01*
X137731077Y-59725681D01*
X137735219Y-59720264D01*
X137739306Y-59711499D01*
X137757372Y-59672756D01*
X138145500Y-59672756D01*
X138145869Y-59676152D01*
X138145869Y-59676153D01*
X138149990Y-59714082D01*
X138152202Y-59734448D01*
X138202929Y-59869764D01*
X138208309Y-59876943D01*
X138208311Y-59876946D01*
X138247752Y-59929572D01*
X138289596Y-59985404D01*
X138296776Y-59990785D01*
X138398054Y-60066689D01*
X138398057Y-60066691D01*
X138405236Y-60072071D01*
X138490384Y-60103991D01*
X138533157Y-60120026D01*
X138533159Y-60120026D01*
X138540552Y-60122798D01*
X138548402Y-60123651D01*
X138548403Y-60123651D01*
X138550134Y-60123839D01*
X138602244Y-60129500D01*
X139397756Y-60129500D01*
X139449866Y-60123839D01*
X139451597Y-60123651D01*
X139451598Y-60123651D01*
X139459448Y-60122798D01*
X139466841Y-60120026D01*
X139466843Y-60120026D01*
X139509616Y-60103991D01*
X139594764Y-60072071D01*
X139601943Y-60066691D01*
X139601946Y-60066689D01*
X139703224Y-59990785D01*
X139710404Y-59985404D01*
X139752248Y-59929572D01*
X139791689Y-59876946D01*
X139791691Y-59876943D01*
X139797071Y-59869764D01*
X139847798Y-59734448D01*
X139850011Y-59714082D01*
X139854131Y-59676153D01*
X139854131Y-59676152D01*
X139854500Y-59672756D01*
X139854500Y-59321385D01*
X148145500Y-59321385D01*
X148160512Y-59459573D01*
X148162876Y-59466596D01*
X148216357Y-59625511D01*
X148219730Y-59635535D01*
X148315351Y-59794677D01*
X148320039Y-59799634D01*
X148320041Y-59799637D01*
X148438227Y-59924614D01*
X148442916Y-59929572D01*
X148596471Y-60033928D01*
X148602805Y-60036461D01*
X148602808Y-60036463D01*
X148762516Y-60100342D01*
X148762521Y-60100343D01*
X148768853Y-60102876D01*
X148775580Y-60103990D01*
X148775585Y-60103991D01*
X148945282Y-60132084D01*
X148945285Y-60132084D01*
X148952019Y-60133199D01*
X148958836Y-60132842D01*
X148958840Y-60132842D01*
X149109920Y-60124923D01*
X149137424Y-60123482D01*
X149143996Y-60121672D01*
X149144001Y-60121671D01*
X149309835Y-60075992D01*
X149316417Y-60074179D01*
X149480648Y-59987590D01*
X149622454Y-59867755D01*
X149626602Y-59862330D01*
X149731075Y-59725685D01*
X149731077Y-59725681D01*
X149735219Y-59720264D01*
X149739306Y-59711499D01*
X149757372Y-59672756D01*
X150145500Y-59672756D01*
X150145869Y-59676152D01*
X150145869Y-59676153D01*
X150149990Y-59714082D01*
X150152202Y-59734448D01*
X150202929Y-59869764D01*
X150208309Y-59876943D01*
X150208311Y-59876946D01*
X150247752Y-59929572D01*
X150289596Y-59985404D01*
X150296776Y-59990785D01*
X150398054Y-60066689D01*
X150398057Y-60066691D01*
X150405236Y-60072071D01*
X150490384Y-60103991D01*
X150533157Y-60120026D01*
X150533159Y-60120026D01*
X150540552Y-60122798D01*
X150548402Y-60123651D01*
X150548403Y-60123651D01*
X150550134Y-60123839D01*
X150602244Y-60129500D01*
X151397756Y-60129500D01*
X151449866Y-60123839D01*
X151451597Y-60123651D01*
X151451598Y-60123651D01*
X151459448Y-60122798D01*
X151466841Y-60120026D01*
X151466843Y-60120026D01*
X151509616Y-60103991D01*
X151594764Y-60072071D01*
X151601943Y-60066691D01*
X151601946Y-60066689D01*
X151703224Y-59990785D01*
X151710404Y-59985404D01*
X151752248Y-59929572D01*
X151791689Y-59876946D01*
X151791691Y-59876943D01*
X151797071Y-59869764D01*
X151847798Y-59734448D01*
X151850011Y-59714082D01*
X151854131Y-59676153D01*
X151854131Y-59676152D01*
X151854500Y-59672756D01*
X151854500Y-58941600D01*
X157641680Y-58941600D01*
X157651991Y-59204022D01*
X157699174Y-59462373D01*
X157700583Y-59466596D01*
X157754787Y-59629064D01*
X157782289Y-59711499D01*
X157789833Y-59726597D01*
X157893170Y-59933406D01*
X157899677Y-59946429D01*
X158048995Y-60162474D01*
X158052011Y-60165736D01*
X158052016Y-60165743D01*
X158224249Y-60352063D01*
X158224254Y-60352067D01*
X158227265Y-60355325D01*
X158430929Y-60521134D01*
X158434747Y-60523433D01*
X158434749Y-60523434D01*
X158586827Y-60614992D01*
X158655924Y-60656592D01*
X158768947Y-60704451D01*
X158893663Y-60757262D01*
X158893666Y-60757263D01*
X158897761Y-60758997D01*
X158902053Y-60760135D01*
X158902056Y-60760136D01*
X159147317Y-60825166D01*
X159147321Y-60825167D01*
X159151614Y-60826305D01*
X159156023Y-60826827D01*
X159156029Y-60826828D01*
X159326509Y-60847005D01*
X159412418Y-60857173D01*
X159674970Y-60850986D01*
X159755543Y-60837575D01*
X159929640Y-60808597D01*
X159929644Y-60808596D01*
X159934030Y-60807866D01*
X159938271Y-60806525D01*
X159938274Y-60806524D01*
X160180185Y-60730018D01*
X160180187Y-60730017D01*
X160184431Y-60728675D01*
X160188442Y-60726749D01*
X160188447Y-60726747D01*
X160417156Y-60616922D01*
X160417157Y-60616921D01*
X160421175Y-60614992D01*
X160530984Y-60541620D01*
X160635831Y-60471563D01*
X160635835Y-60471560D01*
X160639539Y-60469085D01*
X160642856Y-60466114D01*
X160642860Y-60466111D01*
X160831849Y-60296839D01*
X160831850Y-60296838D01*
X160835167Y-60293867D01*
X161004154Y-60092832D01*
X161143130Y-59869992D01*
X161146518Y-59862330D01*
X161247522Y-59633861D01*
X161249320Y-59629794D01*
X161320607Y-59377030D01*
X161343845Y-59204022D01*
X161355141Y-59119924D01*
X161355142Y-59119916D01*
X161355568Y-59116742D01*
X161359237Y-59000000D01*
X161340689Y-58738031D01*
X161327339Y-58676020D01*
X161286350Y-58485636D01*
X161286350Y-58485634D01*
X161285414Y-58481289D01*
X161194515Y-58234897D01*
X161142578Y-58138640D01*
X161071919Y-58007687D01*
X161069806Y-58003771D01*
X160913775Y-57792522D01*
X160867622Y-57745638D01*
X160732666Y-57608547D01*
X160729535Y-57605366D01*
X160520764Y-57446036D01*
X160291625Y-57317712D01*
X160287466Y-57316103D01*
X160050846Y-57224561D01*
X160050840Y-57224559D01*
X160046691Y-57222954D01*
X160042359Y-57221950D01*
X160042356Y-57221949D01*
X159937747Y-57197702D01*
X159790849Y-57163653D01*
X159529204Y-57140992D01*
X159524769Y-57141236D01*
X159524765Y-57141236D01*
X159271419Y-57155179D01*
X159271412Y-57155180D01*
X159266976Y-57155424D01*
X159009397Y-57206659D01*
X158761608Y-57293677D01*
X158757657Y-57295730D01*
X158757651Y-57295732D01*
X158532501Y-57412688D01*
X158528551Y-57414740D01*
X158524936Y-57417323D01*
X158524930Y-57417327D01*
X158480975Y-57448738D01*
X158314878Y-57567433D01*
X158124851Y-57748710D01*
X158122095Y-57752206D01*
X158122094Y-57752207D01*
X158024228Y-57876349D01*
X157962261Y-57954954D01*
X157930744Y-58009215D01*
X157832588Y-58178202D01*
X157832585Y-58178208D01*
X157830354Y-58182049D01*
X157828684Y-58186172D01*
X157758840Y-58358610D01*
X157731761Y-58425464D01*
X157730690Y-58429777D01*
X157730688Y-58429782D01*
X157717894Y-58481289D01*
X157668448Y-58680343D01*
X157641680Y-58941600D01*
X151854500Y-58941600D01*
X151854500Y-58327244D01*
X151854131Y-58323847D01*
X151848651Y-58273403D01*
X151848651Y-58273402D01*
X151847798Y-58265552D01*
X151797071Y-58130236D01*
X151791691Y-58123057D01*
X151791689Y-58123054D01*
X151715785Y-58021776D01*
X151710404Y-58014596D01*
X151689977Y-57999287D01*
X151601946Y-57933311D01*
X151601943Y-57933309D01*
X151594764Y-57927929D01*
X151505046Y-57894296D01*
X151466843Y-57879974D01*
X151466841Y-57879974D01*
X151459448Y-57877202D01*
X151451598Y-57876349D01*
X151451597Y-57876349D01*
X151401153Y-57870869D01*
X151401152Y-57870869D01*
X151397756Y-57870500D01*
X150602244Y-57870500D01*
X150598848Y-57870869D01*
X150598847Y-57870869D01*
X150548403Y-57876349D01*
X150548402Y-57876349D01*
X150540552Y-57877202D01*
X150533159Y-57879974D01*
X150533157Y-57879974D01*
X150494954Y-57894296D01*
X150405236Y-57927929D01*
X150398057Y-57933309D01*
X150398054Y-57933311D01*
X150310023Y-57999287D01*
X150289596Y-58014596D01*
X150284215Y-58021776D01*
X150208311Y-58123054D01*
X150208309Y-58123057D01*
X150202929Y-58130236D01*
X150152202Y-58265552D01*
X150151349Y-58273402D01*
X150151349Y-58273403D01*
X150145869Y-58323847D01*
X150145500Y-58327244D01*
X150145500Y-59672756D01*
X149757372Y-59672756D01*
X149810802Y-59558177D01*
X149810803Y-59558174D01*
X149813682Y-59552000D01*
X149854182Y-59370812D01*
X149854500Y-59365124D01*
X149854500Y-58678615D01*
X149839488Y-58540427D01*
X149780270Y-58364465D01*
X149684649Y-58205323D01*
X149621590Y-58138640D01*
X149561773Y-58075386D01*
X149561771Y-58075384D01*
X149557084Y-58070428D01*
X149403529Y-57966072D01*
X149397195Y-57963539D01*
X149397192Y-57963537D01*
X149237484Y-57899658D01*
X149237479Y-57899657D01*
X149231147Y-57897124D01*
X149224420Y-57896010D01*
X149224415Y-57896009D01*
X149054718Y-57867916D01*
X149054715Y-57867916D01*
X149047981Y-57866801D01*
X149041164Y-57867158D01*
X149041160Y-57867158D01*
X148890080Y-57875077D01*
X148862576Y-57876518D01*
X148856004Y-57878328D01*
X148855999Y-57878329D01*
X148690165Y-57924008D01*
X148683583Y-57925821D01*
X148519352Y-58012410D01*
X148377546Y-58132245D01*
X148373399Y-58137668D01*
X148373398Y-58137670D01*
X148268925Y-58274315D01*
X148268923Y-58274319D01*
X148264781Y-58279736D01*
X148261899Y-58285916D01*
X148261898Y-58285918D01*
X148196827Y-58425464D01*
X148186318Y-58448000D01*
X148145818Y-58629188D01*
X148145500Y-58634876D01*
X148145500Y-59321385D01*
X139854500Y-59321385D01*
X139854500Y-58327244D01*
X139854131Y-58323847D01*
X139848651Y-58273403D01*
X139848651Y-58273402D01*
X139847798Y-58265552D01*
X139797071Y-58130236D01*
X139791691Y-58123057D01*
X139791689Y-58123054D01*
X139715785Y-58021776D01*
X139710404Y-58014596D01*
X139689977Y-57999287D01*
X139601946Y-57933311D01*
X139601943Y-57933309D01*
X139594764Y-57927929D01*
X139505046Y-57894296D01*
X139466843Y-57879974D01*
X139466841Y-57879974D01*
X139459448Y-57877202D01*
X139451598Y-57876349D01*
X139451597Y-57876349D01*
X139401153Y-57870869D01*
X139401152Y-57870869D01*
X139397756Y-57870500D01*
X138602244Y-57870500D01*
X138598848Y-57870869D01*
X138598847Y-57870869D01*
X138548403Y-57876349D01*
X138548402Y-57876349D01*
X138540552Y-57877202D01*
X138533159Y-57879974D01*
X138533157Y-57879974D01*
X138494954Y-57894296D01*
X138405236Y-57927929D01*
X138398057Y-57933309D01*
X138398054Y-57933311D01*
X138310023Y-57999287D01*
X138289596Y-58014596D01*
X138284215Y-58021776D01*
X138208311Y-58123054D01*
X138208309Y-58123057D01*
X138202929Y-58130236D01*
X138152202Y-58265552D01*
X138151349Y-58273402D01*
X138151349Y-58273403D01*
X138145869Y-58323847D01*
X138145500Y-58327244D01*
X138145500Y-59672756D01*
X137757372Y-59672756D01*
X137810802Y-59558177D01*
X137810803Y-59558174D01*
X137813682Y-59552000D01*
X137854182Y-59370812D01*
X137854500Y-59365124D01*
X137854500Y-58678615D01*
X137839488Y-58540427D01*
X137780270Y-58364465D01*
X137684649Y-58205323D01*
X137621590Y-58138640D01*
X137561773Y-58075386D01*
X137561771Y-58075384D01*
X137557084Y-58070428D01*
X137403529Y-57966072D01*
X137397195Y-57963539D01*
X137397192Y-57963537D01*
X137237484Y-57899658D01*
X137237479Y-57899657D01*
X137231147Y-57897124D01*
X137224420Y-57896010D01*
X137224415Y-57896009D01*
X137054718Y-57867916D01*
X137054715Y-57867916D01*
X137047981Y-57866801D01*
X137041164Y-57867158D01*
X137041160Y-57867158D01*
X136890080Y-57875077D01*
X136862576Y-57876518D01*
X136856004Y-57878328D01*
X136855999Y-57878329D01*
X136690165Y-57924008D01*
X136683583Y-57925821D01*
X136519352Y-58012410D01*
X136377546Y-58132245D01*
X136373399Y-58137668D01*
X136373398Y-58137670D01*
X136268925Y-58274315D01*
X136268923Y-58274319D01*
X136264781Y-58279736D01*
X136261899Y-58285916D01*
X136261898Y-58285918D01*
X136196827Y-58425464D01*
X136186318Y-58448000D01*
X136145818Y-58629188D01*
X136145500Y-58634876D01*
X136145500Y-59321385D01*
X127854500Y-59321385D01*
X127854500Y-58327244D01*
X127854131Y-58323847D01*
X127848651Y-58273403D01*
X127848651Y-58273402D01*
X127847798Y-58265552D01*
X127797071Y-58130236D01*
X127791691Y-58123057D01*
X127791689Y-58123054D01*
X127715785Y-58021776D01*
X127710404Y-58014596D01*
X127689977Y-57999287D01*
X127601946Y-57933311D01*
X127601943Y-57933309D01*
X127594764Y-57927929D01*
X127505046Y-57894296D01*
X127466843Y-57879974D01*
X127466841Y-57879974D01*
X127459448Y-57877202D01*
X127451598Y-57876349D01*
X127451597Y-57876349D01*
X127401153Y-57870869D01*
X127401152Y-57870869D01*
X127397756Y-57870500D01*
X126602244Y-57870500D01*
X126598848Y-57870869D01*
X126598847Y-57870869D01*
X126548403Y-57876349D01*
X126548402Y-57876349D01*
X126540552Y-57877202D01*
X126533159Y-57879974D01*
X126533157Y-57879974D01*
X126494954Y-57894296D01*
X126405236Y-57927929D01*
X126398057Y-57933309D01*
X126398054Y-57933311D01*
X126310023Y-57999287D01*
X126289596Y-58014596D01*
X126284215Y-58021776D01*
X126208311Y-58123054D01*
X126208309Y-58123057D01*
X126202929Y-58130236D01*
X126152202Y-58265552D01*
X126151349Y-58273402D01*
X126151349Y-58273403D01*
X126145869Y-58323847D01*
X126145500Y-58327244D01*
X126145500Y-59672756D01*
X125757372Y-59672756D01*
X125810802Y-59558177D01*
X125810803Y-59558174D01*
X125813682Y-59552000D01*
X125854182Y-59370812D01*
X125854500Y-59365124D01*
X125854500Y-58678615D01*
X125839488Y-58540427D01*
X125780270Y-58364465D01*
X125684649Y-58205323D01*
X125621590Y-58138640D01*
X125561773Y-58075386D01*
X125561771Y-58075384D01*
X125557084Y-58070428D01*
X125403529Y-57966072D01*
X125397195Y-57963539D01*
X125397192Y-57963537D01*
X125237484Y-57899658D01*
X125237479Y-57899657D01*
X125231147Y-57897124D01*
X125224420Y-57896010D01*
X125224415Y-57896009D01*
X125054718Y-57867916D01*
X125054715Y-57867916D01*
X125047981Y-57866801D01*
X125041164Y-57867158D01*
X125041160Y-57867158D01*
X124890080Y-57875077D01*
X124862576Y-57876518D01*
X124856004Y-57878328D01*
X124855999Y-57878329D01*
X124690165Y-57924008D01*
X124683583Y-57925821D01*
X124519352Y-58012410D01*
X124377546Y-58132245D01*
X124373399Y-58137668D01*
X124373398Y-58137670D01*
X124268925Y-58274315D01*
X124268923Y-58274319D01*
X124264781Y-58279736D01*
X124261899Y-58285916D01*
X124261898Y-58285918D01*
X124196827Y-58425464D01*
X124186318Y-58448000D01*
X124145818Y-58629188D01*
X124145500Y-58634876D01*
X124145500Y-59321385D01*
X115854500Y-59321385D01*
X115854500Y-58327244D01*
X115854131Y-58323847D01*
X115848651Y-58273403D01*
X115848651Y-58273402D01*
X115847798Y-58265552D01*
X115797071Y-58130236D01*
X115791691Y-58123057D01*
X115791689Y-58123054D01*
X115715785Y-58021776D01*
X115710404Y-58014596D01*
X115689977Y-57999287D01*
X115601946Y-57933311D01*
X115601943Y-57933309D01*
X115594764Y-57927929D01*
X115505046Y-57894296D01*
X115466843Y-57879974D01*
X115466841Y-57879974D01*
X115459448Y-57877202D01*
X115451598Y-57876349D01*
X115451597Y-57876349D01*
X115401153Y-57870869D01*
X115401152Y-57870869D01*
X115397756Y-57870500D01*
X114602244Y-57870500D01*
X114598848Y-57870869D01*
X114598847Y-57870869D01*
X114548403Y-57876349D01*
X114548402Y-57876349D01*
X114540552Y-57877202D01*
X114533159Y-57879974D01*
X114533157Y-57879974D01*
X114494954Y-57894296D01*
X114405236Y-57927929D01*
X114398057Y-57933309D01*
X114398054Y-57933311D01*
X114310023Y-57999287D01*
X114289596Y-58014596D01*
X114284215Y-58021776D01*
X114208311Y-58123054D01*
X114208309Y-58123057D01*
X114202929Y-58130236D01*
X114152202Y-58265552D01*
X114151349Y-58273402D01*
X114151349Y-58273403D01*
X114145869Y-58323847D01*
X114145500Y-58327244D01*
X114145500Y-59672756D01*
X113757372Y-59672756D01*
X113810802Y-59558177D01*
X113810803Y-59558174D01*
X113813682Y-59552000D01*
X113854182Y-59370812D01*
X113854500Y-59365124D01*
X113854500Y-58678615D01*
X113839488Y-58540427D01*
X113780270Y-58364465D01*
X113684649Y-58205323D01*
X113621590Y-58138640D01*
X113561773Y-58075386D01*
X113561771Y-58075384D01*
X113557084Y-58070428D01*
X113403529Y-57966072D01*
X113397195Y-57963539D01*
X113397192Y-57963537D01*
X113237484Y-57899658D01*
X113237479Y-57899657D01*
X113231147Y-57897124D01*
X113224420Y-57896010D01*
X113224415Y-57896009D01*
X113054718Y-57867916D01*
X113054715Y-57867916D01*
X113047981Y-57866801D01*
X113041164Y-57867158D01*
X113041160Y-57867158D01*
X112890080Y-57875077D01*
X112862576Y-57876518D01*
X112856004Y-57878328D01*
X112855999Y-57878329D01*
X112690165Y-57924008D01*
X112683583Y-57925821D01*
X112519352Y-58012410D01*
X112377546Y-58132245D01*
X112373399Y-58137668D01*
X112373398Y-58137670D01*
X112268925Y-58274315D01*
X112268923Y-58274319D01*
X112264781Y-58279736D01*
X112261899Y-58285916D01*
X112261898Y-58285918D01*
X112196827Y-58425464D01*
X112186318Y-58448000D01*
X112145818Y-58629188D01*
X112145500Y-58634876D01*
X112145500Y-59321385D01*
X106328081Y-59321385D01*
X106343845Y-59204022D01*
X106355141Y-59119924D01*
X106355142Y-59119916D01*
X106355568Y-59116742D01*
X106359237Y-59000000D01*
X106340689Y-58738031D01*
X106327339Y-58676020D01*
X106286350Y-58485636D01*
X106286350Y-58485634D01*
X106285414Y-58481289D01*
X106194515Y-58234897D01*
X106142578Y-58138640D01*
X106071919Y-58007687D01*
X106069806Y-58003771D01*
X105913775Y-57792522D01*
X105867622Y-57745638D01*
X105732666Y-57608547D01*
X105729535Y-57605366D01*
X105520764Y-57446036D01*
X105291625Y-57317712D01*
X105287466Y-57316103D01*
X105050846Y-57224561D01*
X105050840Y-57224559D01*
X105046691Y-57222954D01*
X105042359Y-57221950D01*
X105042356Y-57221949D01*
X104937747Y-57197702D01*
X104790849Y-57163653D01*
X104529204Y-57140992D01*
X104524769Y-57141236D01*
X104524765Y-57141236D01*
X104271419Y-57155179D01*
X104271412Y-57155180D01*
X104266976Y-57155424D01*
X104009397Y-57206659D01*
X103761608Y-57293677D01*
X103757657Y-57295730D01*
X103757651Y-57295732D01*
X103532501Y-57412688D01*
X103528551Y-57414740D01*
X103524936Y-57417323D01*
X103524930Y-57417327D01*
X103480975Y-57448738D01*
X103314878Y-57567433D01*
X103124851Y-57748710D01*
X103122095Y-57752206D01*
X103122094Y-57752207D01*
X103024228Y-57876349D01*
X102962261Y-57954954D01*
X102930744Y-58009215D01*
X102832588Y-58178202D01*
X102832585Y-58178208D01*
X102830354Y-58182049D01*
X102828684Y-58186172D01*
X102758840Y-58358610D01*
X102731761Y-58425464D01*
X102730690Y-58429777D01*
X102730688Y-58429782D01*
X102717894Y-58481289D01*
X102668448Y-58680343D01*
X102641680Y-58941600D01*
X100754000Y-58941600D01*
X100754000Y-52495499D01*
X101492000Y-52495499D01*
X101492324Y-52513630D01*
X101492645Y-52522618D01*
X101493616Y-52540741D01*
X101493655Y-52541281D01*
X101493656Y-52541294D01*
X101494639Y-52555039D01*
X101505951Y-52713199D01*
X101513008Y-52811881D01*
X101516887Y-52847954D01*
X101519445Y-52865742D01*
X101525881Y-52901416D01*
X101578991Y-53145558D01*
X101578992Y-53145558D01*
X101582705Y-53162629D01*
X101591668Y-53197751D01*
X101596731Y-53214997D01*
X101608190Y-53249428D01*
X101701619Y-53499921D01*
X101715502Y-53533437D01*
X101722968Y-53549784D01*
X101739195Y-53582199D01*
X101867316Y-53816834D01*
X101885820Y-53848021D01*
X101895539Y-53863144D01*
X101916221Y-53892932D01*
X101998040Y-54002229D01*
X102075757Y-54106047D01*
X102075771Y-54106065D01*
X102076429Y-54106944D01*
X102099192Y-54135190D01*
X102110965Y-54148776D01*
X102135666Y-54175306D01*
X102324694Y-54364334D01*
X102351224Y-54389035D01*
X102364810Y-54400808D01*
X102393056Y-54423571D01*
X102393935Y-54424229D01*
X102393953Y-54424243D01*
X102497771Y-54501960D01*
X102607068Y-54583779D01*
X102636856Y-54604461D01*
X102637785Y-54605058D01*
X102651062Y-54613591D01*
X102651075Y-54613599D01*
X102651979Y-54614180D01*
X102683166Y-54632684D01*
X102684138Y-54633215D01*
X102684156Y-54633225D01*
X102916784Y-54760250D01*
X102916798Y-54760257D01*
X102917801Y-54760805D01*
X102950216Y-54777032D01*
X102966563Y-54784498D01*
X102967579Y-54784919D01*
X102967600Y-54784928D01*
X102999048Y-54797954D01*
X103000079Y-54798381D01*
X103001129Y-54798772D01*
X103001135Y-54798775D01*
X103249523Y-54891419D01*
X103249536Y-54891423D01*
X103250572Y-54891810D01*
X103251628Y-54892161D01*
X103251638Y-54892165D01*
X103283934Y-54902914D01*
X103284998Y-54903268D01*
X103286075Y-54903584D01*
X103286084Y-54903587D01*
X103301163Y-54908014D01*
X103301173Y-54908017D01*
X103302240Y-54908330D01*
X103303295Y-54908599D01*
X103303305Y-54908602D01*
X103336261Y-54917013D01*
X103337359Y-54917293D01*
X103497842Y-54952204D01*
X103597507Y-54973885D01*
X103597522Y-54973888D01*
X103598584Y-54974119D01*
X103599656Y-54974312D01*
X103599674Y-54974316D01*
X103633145Y-54980355D01*
X103633159Y-54980357D01*
X103634266Y-54980557D01*
X103652049Y-54983114D01*
X103653186Y-54983236D01*
X103653192Y-54983237D01*
X103660467Y-54984019D01*
X103688110Y-54986991D01*
X103689212Y-54987070D01*
X103689214Y-54987070D01*
X103909889Y-55002853D01*
X103959273Y-55006385D01*
X103959763Y-55006411D01*
X103959775Y-55006412D01*
X103966221Y-55006757D01*
X103977382Y-55007355D01*
X103986370Y-55007676D01*
X103986867Y-55007685D01*
X103986908Y-55007686D01*
X103998707Y-55007896D01*
X104004501Y-55008000D01*
X154995499Y-55008000D01*
X155001293Y-55007896D01*
X155013092Y-55007686D01*
X155013133Y-55007685D01*
X155013630Y-55007676D01*
X155022618Y-55007355D01*
X155033779Y-55006757D01*
X155040225Y-55006412D01*
X155040237Y-55006411D01*
X155040727Y-55006385D01*
X155090111Y-55002853D01*
X155310786Y-54987070D01*
X155310788Y-54987070D01*
X155311890Y-54986991D01*
X155339533Y-54984019D01*
X155346808Y-54983237D01*
X155346814Y-54983236D01*
X155347951Y-54983114D01*
X155365734Y-54980557D01*
X155366841Y-54980357D01*
X155366855Y-54980355D01*
X155400326Y-54974316D01*
X155400344Y-54974312D01*
X155401416Y-54974119D01*
X155402478Y-54973888D01*
X155402493Y-54973885D01*
X155502158Y-54952204D01*
X155662641Y-54917293D01*
X155663739Y-54917013D01*
X155696695Y-54908602D01*
X155696705Y-54908599D01*
X155697760Y-54908330D01*
X155698827Y-54908017D01*
X155698837Y-54908014D01*
X155713916Y-54903587D01*
X155713925Y-54903584D01*
X155715002Y-54903268D01*
X155716066Y-54902914D01*
X155748362Y-54892165D01*
X155748372Y-54892161D01*
X155749428Y-54891810D01*
X155750464Y-54891423D01*
X155750477Y-54891419D01*
X155998865Y-54798775D01*
X155998871Y-54798772D01*
X155999921Y-54798381D01*
X156000952Y-54797954D01*
X156032400Y-54784928D01*
X156032421Y-54784919D01*
X156033437Y-54784498D01*
X156049784Y-54777032D01*
X156082199Y-54760805D01*
X156083202Y-54760257D01*
X156083216Y-54760250D01*
X156315844Y-54633225D01*
X156315862Y-54633215D01*
X156316834Y-54632684D01*
X156348021Y-54614180D01*
X156348925Y-54613599D01*
X156348938Y-54613591D01*
X156362215Y-54605058D01*
X156363144Y-54604461D01*
X156392932Y-54583779D01*
X156502229Y-54501960D01*
X156606047Y-54424243D01*
X156606065Y-54424229D01*
X156606944Y-54423571D01*
X156635190Y-54400808D01*
X156648776Y-54389035D01*
X156675306Y-54364334D01*
X156864334Y-54175306D01*
X156889035Y-54148776D01*
X156900808Y-54135190D01*
X156923571Y-54106944D01*
X156924229Y-54106065D01*
X156924243Y-54106047D01*
X157001960Y-54002229D01*
X157083779Y-53892932D01*
X157104461Y-53863144D01*
X157114180Y-53848021D01*
X157132684Y-53816834D01*
X157260805Y-53582199D01*
X157277032Y-53549784D01*
X157284498Y-53533437D01*
X157298381Y-53499921D01*
X157391810Y-53249428D01*
X157403269Y-53214997D01*
X157408332Y-53197751D01*
X157417295Y-53162629D01*
X157421008Y-53145558D01*
X157421009Y-53145558D01*
X157474119Y-52901416D01*
X157480555Y-52865742D01*
X157481231Y-52861042D01*
X157482952Y-52849075D01*
X157482953Y-52849064D01*
X157483113Y-52847954D01*
X157486992Y-52811886D01*
X157494050Y-52713204D01*
X157494050Y-52713201D01*
X157506385Y-52540725D01*
X157507355Y-52522618D01*
X157507676Y-52513630D01*
X157508000Y-52495499D01*
X157508000Y-46832549D01*
X157507728Y-46815914D01*
X157507458Y-46807673D01*
X157506642Y-46791083D01*
X157490342Y-46542392D01*
X157490248Y-46541442D01*
X157490246Y-46541412D01*
X157487184Y-46510321D01*
X157487184Y-46510319D01*
X157487085Y-46509316D01*
X157484934Y-46492976D01*
X157479518Y-46460171D01*
X157479021Y-46457669D01*
X157439080Y-46256876D01*
X157431702Y-46219783D01*
X157424153Y-46187409D01*
X157419887Y-46171488D01*
X157410237Y-46139676D01*
X157331453Y-45907587D01*
X157319742Y-45876471D01*
X157313435Y-45861245D01*
X157299718Y-45830971D01*
X157248882Y-45727885D01*
X157191756Y-45612045D01*
X157191753Y-45612039D01*
X157191316Y-45611153D01*
X157190855Y-45610290D01*
X157176118Y-45582719D01*
X157176104Y-45582693D01*
X157175646Y-45581837D01*
X157167405Y-45567563D01*
X157159310Y-45554544D01*
X157150387Y-45540194D01*
X157150377Y-45540178D01*
X157149850Y-45539331D01*
X157013684Y-45335544D01*
X156994329Y-45308534D01*
X156984296Y-45295458D01*
X156983655Y-45294677D01*
X156983640Y-45294658D01*
X156963856Y-45270550D01*
X156963841Y-45270532D01*
X156963199Y-45269750D01*
X156841219Y-45130658D01*
X156799199Y-45082743D01*
X156799158Y-45082697D01*
X156798858Y-45082355D01*
X156787649Y-45069990D01*
X156785835Y-45068054D01*
X156782377Y-45064362D01*
X156782346Y-45064329D01*
X156782012Y-45063973D01*
X156770496Y-45052076D01*
X154544905Y-42826485D01*
X154510879Y-42764173D01*
X154508000Y-42737390D01*
X154508000Y-41605507D01*
X154507517Y-41583369D01*
X154507038Y-41572388D01*
X154505588Y-41550252D01*
X154485759Y-41323600D01*
X154479974Y-41279660D01*
X154476160Y-41258030D01*
X154470646Y-41233157D01*
X154466866Y-41216106D01*
X154466862Y-41216090D01*
X154466569Y-41214768D01*
X154459587Y-41188710D01*
X154455084Y-41171902D01*
X154455079Y-41171883D01*
X154418246Y-41034424D01*
X154409113Y-41000338D01*
X154404030Y-40984215D01*
X154396208Y-40959408D01*
X154396207Y-40959405D01*
X154395787Y-40958073D01*
X154388275Y-40937434D01*
X154387749Y-40936164D01*
X154371833Y-40897740D01*
X154371822Y-40897716D01*
X154371315Y-40896491D01*
X154277498Y-40695300D01*
X154257033Y-40655986D01*
X154246051Y-40636965D01*
X154245315Y-40635809D01*
X154245303Y-40635790D01*
X154222985Y-40600760D01*
X154222241Y-40599592D01*
X154094911Y-40417746D01*
X154067921Y-40382573D01*
X154053803Y-40365749D01*
X154023874Y-40333089D01*
X153866911Y-40176126D01*
X153834251Y-40146197D01*
X153833211Y-40145324D01*
X153818481Y-40132963D01*
X153818468Y-40132953D01*
X153817427Y-40132079D01*
X153782254Y-40105089D01*
X153600408Y-39977759D01*
X153593159Y-39973141D01*
X153564210Y-39954697D01*
X153564191Y-39954685D01*
X153563035Y-39953949D01*
X153561856Y-39953268D01*
X153561844Y-39953261D01*
X153550010Y-39946429D01*
X153544014Y-39942967D01*
X153528557Y-39934921D01*
X153505911Y-39923132D01*
X153505897Y-39923125D01*
X153504700Y-39922502D01*
X153303509Y-39828685D01*
X153302284Y-39828178D01*
X153302260Y-39828167D01*
X153263836Y-39812251D01*
X153263833Y-39812250D01*
X153262566Y-39811725D01*
X153241927Y-39804213D01*
X153240610Y-39803798D01*
X153240593Y-39803792D01*
X153222853Y-39798199D01*
X153199656Y-39790886D01*
X153150949Y-39777836D01*
X153150931Y-39777830D01*
X152985234Y-39733431D01*
X152979920Y-39732253D01*
X152943282Y-39724131D01*
X152943261Y-39724127D01*
X152941949Y-39723836D01*
X152927871Y-39721354D01*
X152921688Y-39720264D01*
X152921683Y-39720263D01*
X152920326Y-39720024D01*
X152914667Y-39719279D01*
X152877751Y-39714419D01*
X152877736Y-39714417D01*
X152876404Y-39714242D01*
X152702932Y-39699065D01*
X152649752Y-39694412D01*
X152649093Y-39694369D01*
X152649069Y-39694367D01*
X152640333Y-39693795D01*
X152627612Y-39692962D01*
X152616631Y-39692483D01*
X152615983Y-39692469D01*
X152615957Y-39692468D01*
X152595136Y-39692014D01*
X152595133Y-39692014D01*
X152594493Y-39692000D01*
X152504956Y-39692000D01*
X152490290Y-39692288D01*
X152485639Y-39692379D01*
X152485626Y-39692379D01*
X152485034Y-39692391D01*
X152484454Y-39692414D01*
X152484412Y-39692415D01*
X152480437Y-39692571D01*
X152475148Y-39692779D01*
X152455214Y-39693954D01*
X152402270Y-39698121D01*
X152236592Y-39711159D01*
X152236577Y-39711160D01*
X152235376Y-39711255D01*
X152195754Y-39715945D01*
X152194511Y-39716142D01*
X152194503Y-39716143D01*
X152177464Y-39718842D01*
X152177453Y-39718844D01*
X152176228Y-39719038D01*
X152175038Y-39719275D01*
X152175014Y-39719279D01*
X152138300Y-39726582D01*
X152138277Y-39726587D01*
X152137116Y-39726818D01*
X151927522Y-39777137D01*
X151889128Y-39787965D01*
X151887988Y-39788336D01*
X151887963Y-39788343D01*
X151881231Y-39790531D01*
X151870333Y-39794072D01*
X151869145Y-39794510D01*
X151869143Y-39794511D01*
X151834068Y-39807451D01*
X151834041Y-39807462D01*
X151832915Y-39807877D01*
X151633763Y-39890368D01*
X151597530Y-39907072D01*
X151596459Y-39907618D01*
X151596444Y-39907625D01*
X151581015Y-39915487D01*
X151579932Y-39916039D01*
X151545136Y-39935526D01*
X151361342Y-40048156D01*
X151360325Y-40048835D01*
X151360304Y-40048849D01*
X151329213Y-40069625D01*
X151328164Y-40070326D01*
X151312173Y-40081945D01*
X151280862Y-40106629D01*
X151279900Y-40107450D01*
X151279891Y-40107458D01*
X151216001Y-40162025D01*
X151215993Y-40162032D01*
X151214250Y-40163521D01*
X151212630Y-40165124D01*
X151212621Y-40165132D01*
X151200519Y-40177105D01*
X151161445Y-40215762D01*
X151159946Y-40217480D01*
X151159938Y-40217488D01*
X151138785Y-40241724D01*
X151137277Y-40243452D01*
X151135898Y-40245287D01*
X151135895Y-40245291D01*
X151096738Y-40297404D01*
X151096736Y-40297407D01*
X151092645Y-40302852D01*
X151032579Y-40434378D01*
X151031311Y-40438697D01*
X151021661Y-40471563D01*
X151012577Y-40502499D01*
X151011937Y-40506947D01*
X151011936Y-40506954D01*
X150992639Y-40641170D01*
X150992638Y-40641177D01*
X150992000Y-40645618D01*
X150992000Y-40715814D01*
X150971998Y-40783935D01*
X150918342Y-40830428D01*
X150848068Y-40840532D01*
X150783488Y-40811038D01*
X150776982Y-40804987D01*
X150728171Y-40756261D01*
X150716760Y-40747249D01*
X150578757Y-40662184D01*
X150565576Y-40656037D01*
X150517194Y-40639989D01*
X150503101Y-40639500D01*
X150500000Y-40645711D01*
X150500000Y-44901654D01*
X150498718Y-44919583D01*
X150492000Y-44966310D01*
X150492000Y-47765901D01*
X150471998Y-47834022D01*
X150418342Y-47880515D01*
X150348068Y-47890619D01*
X150283488Y-47861125D01*
X150278749Y-47856718D01*
X150266760Y-47847249D01*
X150128757Y-47762184D01*
X150115576Y-47756037D01*
X149961290Y-47704862D01*
X149947914Y-47701995D01*
X149853562Y-47692328D01*
X149847145Y-47692000D01*
X148826115Y-47692000D01*
X148810876Y-47696475D01*
X148809671Y-47697865D01*
X148808000Y-47705548D01*
X148808000Y-50289884D01*
X148812475Y-50305123D01*
X148813865Y-50306328D01*
X148821548Y-50307999D01*
X149847095Y-50307999D01*
X149853614Y-50307662D01*
X149949206Y-50297743D01*
X149962600Y-50294851D01*
X150116784Y-50243412D01*
X150129962Y-50237239D01*
X150267807Y-50151937D01*
X150284945Y-50138354D01*
X150286322Y-50140091D01*
X150339107Y-50111208D01*
X150409927Y-50116209D01*
X150466801Y-50158705D01*
X150491671Y-50225203D01*
X150492000Y-50234304D01*
X150492000Y-50778612D01*
X150492097Y-50780342D01*
X150492097Y-50780352D01*
X150492658Y-50790380D01*
X150495166Y-50835239D01*
X150495362Y-50836982D01*
X150501131Y-50888413D01*
X150500689Y-50919997D01*
X150497251Y-50944458D01*
X150497249Y-50944472D01*
X150496944Y-50946646D01*
X150496791Y-50948835D01*
X150494129Y-50986908D01*
X150492000Y-51017346D01*
X150492000Y-51366000D01*
X150471998Y-51434121D01*
X150418342Y-51480614D01*
X150366000Y-51492000D01*
X145634000Y-51492000D01*
X145565879Y-51471998D01*
X145519386Y-51418342D01*
X145508000Y-51366000D01*
X145508000Y-49597095D01*
X146042001Y-49597095D01*
X146042338Y-49603614D01*
X146052257Y-49699206D01*
X146055149Y-49712600D01*
X146106588Y-49866784D01*
X146112761Y-49879962D01*
X146198063Y-50017807D01*
X146207099Y-50029208D01*
X146321829Y-50143739D01*
X146333240Y-50152751D01*
X146471243Y-50237816D01*
X146484424Y-50243963D01*
X146638710Y-50295138D01*
X146652086Y-50298005D01*
X146746438Y-50307672D01*
X146752854Y-50308000D01*
X147773885Y-50308000D01*
X147789124Y-50303525D01*
X147790329Y-50302135D01*
X147792000Y-50294452D01*
X147792000Y-49526115D01*
X147787525Y-49510876D01*
X147786135Y-49509671D01*
X147778452Y-49508000D01*
X146060116Y-49508000D01*
X146044877Y-49512475D01*
X146043672Y-49513865D01*
X146042001Y-49521548D01*
X146042001Y-49597095D01*
X145508000Y-49597095D01*
X145508000Y-48473885D01*
X146042000Y-48473885D01*
X146046475Y-48489124D01*
X146047865Y-48490329D01*
X146055548Y-48492000D01*
X147773885Y-48492000D01*
X147789124Y-48487525D01*
X147790329Y-48486135D01*
X147792000Y-48478452D01*
X147792000Y-47710116D01*
X147787525Y-47694877D01*
X147786135Y-47693672D01*
X147778452Y-47692001D01*
X146752905Y-47692001D01*
X146746386Y-47692338D01*
X146650794Y-47702257D01*
X146637400Y-47705149D01*
X146483216Y-47756588D01*
X146470038Y-47762761D01*
X146332193Y-47848063D01*
X146320792Y-47857099D01*
X146206261Y-47971829D01*
X146197249Y-47983240D01*
X146112184Y-48121243D01*
X146106037Y-48134424D01*
X146054862Y-48288710D01*
X146051995Y-48302086D01*
X146042328Y-48396438D01*
X146042000Y-48402855D01*
X146042000Y-48473885D01*
X145508000Y-48473885D01*
X145508000Y-46832549D01*
X145507728Y-46815914D01*
X145507458Y-46807673D01*
X145506642Y-46791083D01*
X145490342Y-46542392D01*
X145490248Y-46541442D01*
X145490246Y-46541412D01*
X145487184Y-46510321D01*
X145487184Y-46510319D01*
X145487085Y-46509316D01*
X145484934Y-46492976D01*
X145479518Y-46460171D01*
X145479021Y-46457669D01*
X145439080Y-46256876D01*
X145431702Y-46219783D01*
X145424153Y-46187409D01*
X145419887Y-46171488D01*
X145410237Y-46139676D01*
X145331453Y-45907587D01*
X145319742Y-45876471D01*
X145313435Y-45861245D01*
X145299718Y-45830971D01*
X145248882Y-45727885D01*
X145191756Y-45612045D01*
X145191753Y-45612039D01*
X145191316Y-45611153D01*
X145190855Y-45610290D01*
X145176118Y-45582719D01*
X145176104Y-45582693D01*
X145175646Y-45581837D01*
X145167405Y-45567563D01*
X145159310Y-45554544D01*
X145150387Y-45540194D01*
X145150377Y-45540178D01*
X145149850Y-45539331D01*
X145013684Y-45335544D01*
X144994329Y-45308534D01*
X144984296Y-45295458D01*
X144983655Y-45294677D01*
X144983640Y-45294658D01*
X144963856Y-45270550D01*
X144963841Y-45270532D01*
X144963199Y-45269750D01*
X144841219Y-45130658D01*
X144799199Y-45082743D01*
X144799158Y-45082697D01*
X144798858Y-45082355D01*
X144787649Y-45069990D01*
X144785835Y-45068054D01*
X144782377Y-45064362D01*
X144782346Y-45064329D01*
X144782012Y-45063973D01*
X144770496Y-45052076D01*
X142544905Y-42826485D01*
X142530443Y-42800000D01*
X145940715Y-42800000D01*
X145959772Y-42944754D01*
X146015645Y-43079642D01*
X146104526Y-43195474D01*
X146111076Y-43200500D01*
X146111079Y-43200503D01*
X146213804Y-43279327D01*
X146220357Y-43284355D01*
X146329346Y-43329500D01*
X146346128Y-43336451D01*
X146355246Y-43340228D01*
X146500000Y-43359285D01*
X146508188Y-43358207D01*
X146636566Y-43341306D01*
X146644754Y-43340228D01*
X146652384Y-43337068D01*
X146660362Y-43334930D01*
X146660770Y-43336451D01*
X146695717Y-43329500D01*
X147119500Y-43329500D01*
X147187621Y-43349502D01*
X147234114Y-43403158D01*
X147245500Y-43455500D01*
X147245500Y-44397756D01*
X147252202Y-44459448D01*
X147254974Y-44466841D01*
X147254974Y-44466843D01*
X147267106Y-44499206D01*
X147302929Y-44594764D01*
X147308309Y-44601943D01*
X147308311Y-44601946D01*
X147324498Y-44623544D01*
X147389596Y-44710404D01*
X147396776Y-44715785D01*
X147498054Y-44791689D01*
X147498057Y-44791691D01*
X147505236Y-44797071D01*
X147574912Y-44823191D01*
X147633157Y-44845026D01*
X147633159Y-44845026D01*
X147640552Y-44847798D01*
X147648402Y-44848651D01*
X147648403Y-44848651D01*
X147698847Y-44854131D01*
X147702244Y-44854500D01*
X148297756Y-44854500D01*
X148301153Y-44854131D01*
X148351597Y-44848651D01*
X148351598Y-44848651D01*
X148359448Y-44847798D01*
X148366841Y-44845026D01*
X148366843Y-44845026D01*
X148425088Y-44823191D01*
X148494764Y-44797071D01*
X148501943Y-44791691D01*
X148501946Y-44791689D01*
X148603224Y-44715785D01*
X148610404Y-44710404D01*
X148675502Y-44623544D01*
X148691689Y-44601946D01*
X148691691Y-44601943D01*
X148697071Y-44594764D01*
X148747798Y-44459448D01*
X148748652Y-44451588D01*
X148750343Y-44444476D01*
X148785561Y-44382830D01*
X148848516Y-44350010D01*
X148919221Y-44356436D01*
X148975228Y-44400068D01*
X148998253Y-44460620D01*
X149002257Y-44499206D01*
X149005149Y-44512600D01*
X149056588Y-44666784D01*
X149062761Y-44679962D01*
X149148063Y-44817807D01*
X149157099Y-44829208D01*
X149271829Y-44943739D01*
X149283240Y-44952751D01*
X149421243Y-45037816D01*
X149434424Y-45043963D01*
X149482806Y-45060011D01*
X149496899Y-45060500D01*
X149500000Y-45054289D01*
X149500000Y-40652422D01*
X149496027Y-40638891D01*
X149489201Y-40637910D01*
X149433216Y-40656588D01*
X149420038Y-40662761D01*
X149282193Y-40748063D01*
X149270792Y-40757099D01*
X149156261Y-40871829D01*
X149147249Y-40883240D01*
X149062184Y-41021243D01*
X149056037Y-41034424D01*
X149004862Y-41188710D01*
X149001995Y-41202086D01*
X148998214Y-41238985D01*
X148971372Y-41304712D01*
X148913257Y-41345494D01*
X148842319Y-41348382D01*
X148781081Y-41312460D01*
X148750287Y-41255288D01*
X148748652Y-41248409D01*
X148747798Y-41240552D01*
X148697071Y-41105236D01*
X148691691Y-41098057D01*
X148691689Y-41098054D01*
X148615785Y-40996776D01*
X148610404Y-40989596D01*
X148566594Y-40956762D01*
X148501946Y-40908311D01*
X148501943Y-40908309D01*
X148494764Y-40902929D01*
X148405046Y-40869296D01*
X148366843Y-40854974D01*
X148366841Y-40854974D01*
X148359448Y-40852202D01*
X148351598Y-40851349D01*
X148351597Y-40851349D01*
X148301153Y-40845869D01*
X148301152Y-40845869D01*
X148297756Y-40845500D01*
X147702244Y-40845500D01*
X147698848Y-40845869D01*
X147698847Y-40845869D01*
X147648403Y-40851349D01*
X147648402Y-40851349D01*
X147640552Y-40852202D01*
X147633159Y-40854974D01*
X147633157Y-40854974D01*
X147594954Y-40869296D01*
X147505236Y-40902929D01*
X147498057Y-40908309D01*
X147498054Y-40908311D01*
X147433406Y-40956762D01*
X147389596Y-40989596D01*
X147384215Y-40996776D01*
X147308311Y-41098054D01*
X147308309Y-41098057D01*
X147302929Y-41105236D01*
X147252202Y-41240552D01*
X147245500Y-41302244D01*
X147245500Y-42244500D01*
X147225498Y-42312621D01*
X147171842Y-42359114D01*
X147119500Y-42370500D01*
X146893902Y-42370500D01*
X146825781Y-42350498D01*
X146817198Y-42344462D01*
X146811959Y-42340442D01*
X146779643Y-42315645D01*
X146644754Y-42259772D01*
X146500000Y-42240715D01*
X146491812Y-42241793D01*
X146363432Y-42258694D01*
X146363430Y-42258695D01*
X146355246Y-42259772D01*
X146307430Y-42279578D01*
X146227986Y-42312485D01*
X146227984Y-42312486D01*
X146220358Y-42315645D01*
X146104526Y-42404526D01*
X146015645Y-42520358D01*
X145959772Y-42655246D01*
X145940715Y-42800000D01*
X142530443Y-42800000D01*
X142510879Y-42764173D01*
X142508000Y-42737390D01*
X142508000Y-41605507D01*
X142507517Y-41583369D01*
X142507038Y-41572388D01*
X142505588Y-41550252D01*
X142485759Y-41323600D01*
X142479974Y-41279660D01*
X142476160Y-41258030D01*
X142470646Y-41233157D01*
X142466866Y-41216106D01*
X142466862Y-41216090D01*
X142466569Y-41214768D01*
X142459587Y-41188710D01*
X142455084Y-41171902D01*
X142455079Y-41171883D01*
X142418246Y-41034424D01*
X142409113Y-41000338D01*
X142404030Y-40984215D01*
X142396208Y-40959408D01*
X142396207Y-40959405D01*
X142395787Y-40958073D01*
X142388275Y-40937434D01*
X142387749Y-40936164D01*
X142371833Y-40897740D01*
X142371822Y-40897716D01*
X142371315Y-40896491D01*
X142277498Y-40695300D01*
X142257033Y-40655986D01*
X142246051Y-40636965D01*
X142245315Y-40635809D01*
X142245303Y-40635790D01*
X142222985Y-40600760D01*
X142222241Y-40599592D01*
X142094911Y-40417746D01*
X142067921Y-40382573D01*
X142053803Y-40365749D01*
X142023874Y-40333089D01*
X141866911Y-40176126D01*
X141834251Y-40146197D01*
X141833211Y-40145324D01*
X141818481Y-40132963D01*
X141818468Y-40132953D01*
X141817427Y-40132079D01*
X141782254Y-40105089D01*
X141600408Y-39977759D01*
X141593159Y-39973141D01*
X141564210Y-39954697D01*
X141564191Y-39954685D01*
X141563035Y-39953949D01*
X141561856Y-39953268D01*
X141561844Y-39953261D01*
X141550010Y-39946429D01*
X141544014Y-39942967D01*
X141528557Y-39934921D01*
X141505911Y-39923132D01*
X141505897Y-39923125D01*
X141504700Y-39922502D01*
X141303509Y-39828685D01*
X141302284Y-39828178D01*
X141302260Y-39828167D01*
X141263836Y-39812251D01*
X141263833Y-39812250D01*
X141262566Y-39811725D01*
X141241927Y-39804213D01*
X141240610Y-39803798D01*
X141240593Y-39803792D01*
X141222853Y-39798199D01*
X141199656Y-39790886D01*
X141150949Y-39777836D01*
X141150931Y-39777830D01*
X140985234Y-39733431D01*
X140979920Y-39732253D01*
X140943282Y-39724131D01*
X140943261Y-39724127D01*
X140941949Y-39723836D01*
X140927871Y-39721354D01*
X140921688Y-39720264D01*
X140921683Y-39720263D01*
X140920326Y-39720024D01*
X140914667Y-39719279D01*
X140877751Y-39714419D01*
X140877736Y-39714417D01*
X140876404Y-39714242D01*
X140702932Y-39699065D01*
X140649752Y-39694412D01*
X140649093Y-39694369D01*
X140649069Y-39694367D01*
X140640333Y-39693795D01*
X140627612Y-39692962D01*
X140616631Y-39692483D01*
X140615983Y-39692469D01*
X140615957Y-39692468D01*
X140595136Y-39692014D01*
X140595133Y-39692014D01*
X140594493Y-39692000D01*
X140504956Y-39692000D01*
X140490290Y-39692288D01*
X140485639Y-39692379D01*
X140485626Y-39692379D01*
X140485034Y-39692391D01*
X140484454Y-39692414D01*
X140484412Y-39692415D01*
X140480437Y-39692571D01*
X140475148Y-39692779D01*
X140455214Y-39693954D01*
X140402270Y-39698121D01*
X140236592Y-39711159D01*
X140236577Y-39711160D01*
X140235376Y-39711255D01*
X140195754Y-39715945D01*
X140194511Y-39716142D01*
X140194503Y-39716143D01*
X140177464Y-39718842D01*
X140177453Y-39718844D01*
X140176228Y-39719038D01*
X140175038Y-39719275D01*
X140175014Y-39719279D01*
X140138300Y-39726582D01*
X140138277Y-39726587D01*
X140137116Y-39726818D01*
X139927522Y-39777137D01*
X139889128Y-39787965D01*
X139887988Y-39788336D01*
X139887963Y-39788343D01*
X139881231Y-39790531D01*
X139870333Y-39794072D01*
X139869145Y-39794510D01*
X139869143Y-39794511D01*
X139834068Y-39807451D01*
X139834041Y-39807462D01*
X139832915Y-39807877D01*
X139633763Y-39890368D01*
X139597530Y-39907072D01*
X139596459Y-39907618D01*
X139596444Y-39907625D01*
X139581015Y-39915487D01*
X139579932Y-39916039D01*
X139545136Y-39935526D01*
X139361342Y-40048156D01*
X139360325Y-40048835D01*
X139360304Y-40048849D01*
X139329213Y-40069625D01*
X139328164Y-40070326D01*
X139312173Y-40081945D01*
X139280862Y-40106629D01*
X139279900Y-40107450D01*
X139279891Y-40107458D01*
X139216001Y-40162025D01*
X139215993Y-40162032D01*
X139214250Y-40163521D01*
X139212630Y-40165124D01*
X139212621Y-40165132D01*
X139200519Y-40177105D01*
X139161445Y-40215762D01*
X139159946Y-40217480D01*
X139159938Y-40217488D01*
X139138785Y-40241724D01*
X139137277Y-40243452D01*
X139135898Y-40245287D01*
X139135895Y-40245291D01*
X139096738Y-40297404D01*
X139096736Y-40297407D01*
X139092645Y-40302852D01*
X139032579Y-40434378D01*
X139031311Y-40438697D01*
X139021661Y-40471563D01*
X139012577Y-40502499D01*
X139011937Y-40506947D01*
X139011936Y-40506954D01*
X138992639Y-40641170D01*
X138992638Y-40641177D01*
X138992000Y-40645618D01*
X138992000Y-40715814D01*
X138971998Y-40783935D01*
X138918342Y-40830428D01*
X138848068Y-40840532D01*
X138783488Y-40811038D01*
X138776982Y-40804987D01*
X138728171Y-40756261D01*
X138716760Y-40747249D01*
X138578757Y-40662184D01*
X138565576Y-40656037D01*
X138517194Y-40639989D01*
X138503101Y-40639500D01*
X138500000Y-40645711D01*
X138500000Y-44901654D01*
X138498718Y-44919583D01*
X138492000Y-44966310D01*
X138492000Y-47765901D01*
X138471998Y-47834022D01*
X138418342Y-47880515D01*
X138348068Y-47890619D01*
X138283488Y-47861125D01*
X138278749Y-47856718D01*
X138266760Y-47847249D01*
X138128757Y-47762184D01*
X138115576Y-47756037D01*
X137961290Y-47704862D01*
X137947914Y-47701995D01*
X137853562Y-47692328D01*
X137847145Y-47692000D01*
X136826115Y-47692000D01*
X136810876Y-47696475D01*
X136809671Y-47697865D01*
X136808000Y-47705548D01*
X136808000Y-50289884D01*
X136812475Y-50305123D01*
X136813865Y-50306328D01*
X136821548Y-50307999D01*
X137847095Y-50307999D01*
X137853614Y-50307662D01*
X137949206Y-50297743D01*
X137962600Y-50294851D01*
X138116784Y-50243412D01*
X138129962Y-50237239D01*
X138267807Y-50151937D01*
X138284945Y-50138354D01*
X138286322Y-50140091D01*
X138339107Y-50111208D01*
X138409927Y-50116209D01*
X138466801Y-50158705D01*
X138491671Y-50225203D01*
X138492000Y-50234304D01*
X138492000Y-50778612D01*
X138492097Y-50780342D01*
X138492097Y-50780352D01*
X138492658Y-50790380D01*
X138495166Y-50835239D01*
X138495362Y-50836982D01*
X138501131Y-50888413D01*
X138500689Y-50919997D01*
X138497251Y-50944458D01*
X138497249Y-50944472D01*
X138496944Y-50946646D01*
X138496791Y-50948835D01*
X138494129Y-50986908D01*
X138492000Y-51017346D01*
X138492000Y-51366000D01*
X138471998Y-51434121D01*
X138418342Y-51480614D01*
X138366000Y-51492000D01*
X133634000Y-51492000D01*
X133565879Y-51471998D01*
X133519386Y-51418342D01*
X133508000Y-51366000D01*
X133508000Y-49597095D01*
X134042001Y-49597095D01*
X134042338Y-49603614D01*
X134052257Y-49699206D01*
X134055149Y-49712600D01*
X134106588Y-49866784D01*
X134112761Y-49879962D01*
X134198063Y-50017807D01*
X134207099Y-50029208D01*
X134321829Y-50143739D01*
X134333240Y-50152751D01*
X134471243Y-50237816D01*
X134484424Y-50243963D01*
X134638710Y-50295138D01*
X134652086Y-50298005D01*
X134746438Y-50307672D01*
X134752854Y-50308000D01*
X135773885Y-50308000D01*
X135789124Y-50303525D01*
X135790329Y-50302135D01*
X135792000Y-50294452D01*
X135792000Y-49526115D01*
X135787525Y-49510876D01*
X135786135Y-49509671D01*
X135778452Y-49508000D01*
X134060116Y-49508000D01*
X134044877Y-49512475D01*
X134043672Y-49513865D01*
X134042001Y-49521548D01*
X134042001Y-49597095D01*
X133508000Y-49597095D01*
X133508000Y-48473885D01*
X134042000Y-48473885D01*
X134046475Y-48489124D01*
X134047865Y-48490329D01*
X134055548Y-48492000D01*
X135773885Y-48492000D01*
X135789124Y-48487525D01*
X135790329Y-48486135D01*
X135792000Y-48478452D01*
X135792000Y-47710116D01*
X135787525Y-47694877D01*
X135786135Y-47693672D01*
X135778452Y-47692001D01*
X134752905Y-47692001D01*
X134746386Y-47692338D01*
X134650794Y-47702257D01*
X134637400Y-47705149D01*
X134483216Y-47756588D01*
X134470038Y-47762761D01*
X134332193Y-47848063D01*
X134320792Y-47857099D01*
X134206261Y-47971829D01*
X134197249Y-47983240D01*
X134112184Y-48121243D01*
X134106037Y-48134424D01*
X134054862Y-48288710D01*
X134051995Y-48302086D01*
X134042328Y-48396438D01*
X134042000Y-48402855D01*
X134042000Y-48473885D01*
X133508000Y-48473885D01*
X133508000Y-46832549D01*
X133507728Y-46815914D01*
X133507458Y-46807673D01*
X133506642Y-46791083D01*
X133490342Y-46542392D01*
X133490248Y-46541442D01*
X133490246Y-46541412D01*
X133487184Y-46510321D01*
X133487184Y-46510319D01*
X133487085Y-46509316D01*
X133484934Y-46492976D01*
X133479518Y-46460171D01*
X133479021Y-46457669D01*
X133439080Y-46256876D01*
X133431702Y-46219783D01*
X133424153Y-46187409D01*
X133419887Y-46171488D01*
X133410237Y-46139676D01*
X133331453Y-45907587D01*
X133319742Y-45876471D01*
X133313435Y-45861245D01*
X133299718Y-45830971D01*
X133248882Y-45727885D01*
X133191756Y-45612045D01*
X133191753Y-45612039D01*
X133191316Y-45611153D01*
X133190855Y-45610290D01*
X133176118Y-45582719D01*
X133176104Y-45582693D01*
X133175646Y-45581837D01*
X133167405Y-45567563D01*
X133159310Y-45554544D01*
X133150387Y-45540194D01*
X133150377Y-45540178D01*
X133149850Y-45539331D01*
X133013684Y-45335544D01*
X132994329Y-45308534D01*
X132984296Y-45295458D01*
X132983655Y-45294677D01*
X132983640Y-45294658D01*
X132963856Y-45270550D01*
X132963841Y-45270532D01*
X132963199Y-45269750D01*
X132841219Y-45130658D01*
X132799199Y-45082743D01*
X132799158Y-45082697D01*
X132798858Y-45082355D01*
X132787649Y-45069990D01*
X132785835Y-45068054D01*
X132782377Y-45064362D01*
X132782346Y-45064329D01*
X132782012Y-45063973D01*
X132770496Y-45052076D01*
X130544905Y-42826485D01*
X130530443Y-42800000D01*
X133940715Y-42800000D01*
X133959772Y-42944754D01*
X134015645Y-43079642D01*
X134104526Y-43195474D01*
X134111076Y-43200500D01*
X134111079Y-43200503D01*
X134213804Y-43279327D01*
X134220357Y-43284355D01*
X134329346Y-43329500D01*
X134346128Y-43336451D01*
X134355246Y-43340228D01*
X134500000Y-43359285D01*
X134508188Y-43358207D01*
X134636566Y-43341306D01*
X134644754Y-43340228D01*
X134652384Y-43337068D01*
X134660362Y-43334930D01*
X134660770Y-43336451D01*
X134695717Y-43329500D01*
X135119500Y-43329500D01*
X135187621Y-43349502D01*
X135234114Y-43403158D01*
X135245500Y-43455500D01*
X135245500Y-44397756D01*
X135252202Y-44459448D01*
X135254974Y-44466841D01*
X135254974Y-44466843D01*
X135267106Y-44499206D01*
X135302929Y-44594764D01*
X135308309Y-44601943D01*
X135308311Y-44601946D01*
X135324498Y-44623544D01*
X135389596Y-44710404D01*
X135396776Y-44715785D01*
X135498054Y-44791689D01*
X135498057Y-44791691D01*
X135505236Y-44797071D01*
X135574912Y-44823191D01*
X135633157Y-44845026D01*
X135633159Y-44845026D01*
X135640552Y-44847798D01*
X135648402Y-44848651D01*
X135648403Y-44848651D01*
X135698847Y-44854131D01*
X135702244Y-44854500D01*
X136297756Y-44854500D01*
X136301153Y-44854131D01*
X136351597Y-44848651D01*
X136351598Y-44848651D01*
X136359448Y-44847798D01*
X136366841Y-44845026D01*
X136366843Y-44845026D01*
X136425088Y-44823191D01*
X136494764Y-44797071D01*
X136501943Y-44791691D01*
X136501946Y-44791689D01*
X136603224Y-44715785D01*
X136610404Y-44710404D01*
X136675502Y-44623544D01*
X136691689Y-44601946D01*
X136691691Y-44601943D01*
X136697071Y-44594764D01*
X136747798Y-44459448D01*
X136748652Y-44451588D01*
X136750343Y-44444476D01*
X136785561Y-44382830D01*
X136848516Y-44350010D01*
X136919221Y-44356436D01*
X136975228Y-44400068D01*
X136998253Y-44460620D01*
X137002257Y-44499206D01*
X137005149Y-44512600D01*
X137056588Y-44666784D01*
X137062761Y-44679962D01*
X137148063Y-44817807D01*
X137157099Y-44829208D01*
X137271829Y-44943739D01*
X137283240Y-44952751D01*
X137421243Y-45037816D01*
X137434424Y-45043963D01*
X137482806Y-45060011D01*
X137496899Y-45060500D01*
X137500000Y-45054289D01*
X137500000Y-40652422D01*
X137496027Y-40638891D01*
X137489201Y-40637910D01*
X137433216Y-40656588D01*
X137420038Y-40662761D01*
X137282193Y-40748063D01*
X137270792Y-40757099D01*
X137156261Y-40871829D01*
X137147249Y-40883240D01*
X137062184Y-41021243D01*
X137056037Y-41034424D01*
X137004862Y-41188710D01*
X137001995Y-41202086D01*
X136998214Y-41238985D01*
X136971372Y-41304712D01*
X136913257Y-41345494D01*
X136842319Y-41348382D01*
X136781081Y-41312460D01*
X136750287Y-41255288D01*
X136748652Y-41248409D01*
X136747798Y-41240552D01*
X136697071Y-41105236D01*
X136691691Y-41098057D01*
X136691689Y-41098054D01*
X136615785Y-40996776D01*
X136610404Y-40989596D01*
X136566594Y-40956762D01*
X136501946Y-40908311D01*
X136501943Y-40908309D01*
X136494764Y-40902929D01*
X136405046Y-40869296D01*
X136366843Y-40854974D01*
X136366841Y-40854974D01*
X136359448Y-40852202D01*
X136351598Y-40851349D01*
X136351597Y-40851349D01*
X136301153Y-40845869D01*
X136301152Y-40845869D01*
X136297756Y-40845500D01*
X135702244Y-40845500D01*
X135698848Y-40845869D01*
X135698847Y-40845869D01*
X135648403Y-40851349D01*
X135648402Y-40851349D01*
X135640552Y-40852202D01*
X135633159Y-40854974D01*
X135633157Y-40854974D01*
X135594954Y-40869296D01*
X135505236Y-40902929D01*
X135498057Y-40908309D01*
X135498054Y-40908311D01*
X135433406Y-40956762D01*
X135389596Y-40989596D01*
X135384215Y-40996776D01*
X135308311Y-41098054D01*
X135308309Y-41098057D01*
X135302929Y-41105236D01*
X135252202Y-41240552D01*
X135245500Y-41302244D01*
X135245500Y-42244500D01*
X135225498Y-42312621D01*
X135171842Y-42359114D01*
X135119500Y-42370500D01*
X134893902Y-42370500D01*
X134825781Y-42350498D01*
X134817198Y-42344462D01*
X134811959Y-42340442D01*
X134779643Y-42315645D01*
X134644754Y-42259772D01*
X134500000Y-42240715D01*
X134491812Y-42241793D01*
X134363432Y-42258694D01*
X134363430Y-42258695D01*
X134355246Y-42259772D01*
X134307430Y-42279578D01*
X134227986Y-42312485D01*
X134227984Y-42312486D01*
X134220358Y-42315645D01*
X134104526Y-42404526D01*
X134015645Y-42520358D01*
X133959772Y-42655246D01*
X133940715Y-42800000D01*
X130530443Y-42800000D01*
X130510879Y-42764173D01*
X130508000Y-42737390D01*
X130508000Y-41605507D01*
X130507517Y-41583369D01*
X130507038Y-41572388D01*
X130505588Y-41550252D01*
X130485759Y-41323600D01*
X130479974Y-41279660D01*
X130476160Y-41258030D01*
X130470646Y-41233157D01*
X130466866Y-41216106D01*
X130466862Y-41216090D01*
X130466569Y-41214768D01*
X130459587Y-41188710D01*
X130455084Y-41171902D01*
X130455079Y-41171883D01*
X130418246Y-41034424D01*
X130409113Y-41000338D01*
X130404030Y-40984215D01*
X130396208Y-40959408D01*
X130396207Y-40959405D01*
X130395787Y-40958073D01*
X130388275Y-40937434D01*
X130387749Y-40936164D01*
X130371833Y-40897740D01*
X130371822Y-40897716D01*
X130371315Y-40896491D01*
X130277498Y-40695300D01*
X130257033Y-40655986D01*
X130246051Y-40636965D01*
X130245315Y-40635809D01*
X130245303Y-40635790D01*
X130222985Y-40600760D01*
X130222241Y-40599592D01*
X130094911Y-40417746D01*
X130067921Y-40382573D01*
X130053803Y-40365749D01*
X130023874Y-40333089D01*
X129866911Y-40176126D01*
X129834251Y-40146197D01*
X129833211Y-40145324D01*
X129818481Y-40132963D01*
X129818468Y-40132953D01*
X129817427Y-40132079D01*
X129782254Y-40105089D01*
X129600408Y-39977759D01*
X129593159Y-39973141D01*
X129564210Y-39954697D01*
X129564191Y-39954685D01*
X129563035Y-39953949D01*
X129561856Y-39953268D01*
X129561844Y-39953261D01*
X129550010Y-39946429D01*
X129544014Y-39942967D01*
X129528557Y-39934921D01*
X129505911Y-39923132D01*
X129505897Y-39923125D01*
X129504700Y-39922502D01*
X129303509Y-39828685D01*
X129302284Y-39828178D01*
X129302260Y-39828167D01*
X129263836Y-39812251D01*
X129263833Y-39812250D01*
X129262566Y-39811725D01*
X129241927Y-39804213D01*
X129240610Y-39803798D01*
X129240593Y-39803792D01*
X129222853Y-39798199D01*
X129199656Y-39790886D01*
X129150949Y-39777836D01*
X129150931Y-39777830D01*
X128985234Y-39733431D01*
X128979920Y-39732253D01*
X128943282Y-39724131D01*
X128943261Y-39724127D01*
X128941949Y-39723836D01*
X128927871Y-39721354D01*
X128921688Y-39720264D01*
X128921683Y-39720263D01*
X128920326Y-39720024D01*
X128914667Y-39719279D01*
X128877751Y-39714419D01*
X128877736Y-39714417D01*
X128876404Y-39714242D01*
X128702932Y-39699065D01*
X128649752Y-39694412D01*
X128649093Y-39694369D01*
X128649069Y-39694367D01*
X128640333Y-39693795D01*
X128627612Y-39692962D01*
X128616631Y-39692483D01*
X128615983Y-39692469D01*
X128615957Y-39692468D01*
X128595136Y-39692014D01*
X128595133Y-39692014D01*
X128594493Y-39692000D01*
X128504956Y-39692000D01*
X128490290Y-39692288D01*
X128485639Y-39692379D01*
X128485626Y-39692379D01*
X128485034Y-39692391D01*
X128484454Y-39692414D01*
X128484412Y-39692415D01*
X128480437Y-39692571D01*
X128475148Y-39692779D01*
X128455214Y-39693954D01*
X128402270Y-39698121D01*
X128236592Y-39711159D01*
X128236577Y-39711160D01*
X128235376Y-39711255D01*
X128195754Y-39715945D01*
X128194511Y-39716142D01*
X128194503Y-39716143D01*
X128177464Y-39718842D01*
X128177453Y-39718844D01*
X128176228Y-39719038D01*
X128175038Y-39719275D01*
X128175014Y-39719279D01*
X128138300Y-39726582D01*
X128138277Y-39726587D01*
X128137116Y-39726818D01*
X127927522Y-39777137D01*
X127889128Y-39787965D01*
X127887988Y-39788336D01*
X127887963Y-39788343D01*
X127881231Y-39790531D01*
X127870333Y-39794072D01*
X127869145Y-39794510D01*
X127869143Y-39794511D01*
X127834068Y-39807451D01*
X127834041Y-39807462D01*
X127832915Y-39807877D01*
X127633763Y-39890368D01*
X127597530Y-39907072D01*
X127596459Y-39907618D01*
X127596444Y-39907625D01*
X127581015Y-39915487D01*
X127579932Y-39916039D01*
X127545136Y-39935526D01*
X127361342Y-40048156D01*
X127360325Y-40048835D01*
X127360304Y-40048849D01*
X127329213Y-40069625D01*
X127328164Y-40070326D01*
X127312173Y-40081945D01*
X127280862Y-40106629D01*
X127279900Y-40107450D01*
X127279891Y-40107458D01*
X127216001Y-40162025D01*
X127215993Y-40162032D01*
X127214250Y-40163521D01*
X127212630Y-40165124D01*
X127212621Y-40165132D01*
X127200519Y-40177105D01*
X127161445Y-40215762D01*
X127159946Y-40217480D01*
X127159938Y-40217488D01*
X127138785Y-40241724D01*
X127137277Y-40243452D01*
X127135898Y-40245287D01*
X127135895Y-40245291D01*
X127096738Y-40297404D01*
X127096736Y-40297407D01*
X127092645Y-40302852D01*
X127032579Y-40434378D01*
X127031311Y-40438697D01*
X127021661Y-40471563D01*
X127012577Y-40502499D01*
X127011937Y-40506947D01*
X127011936Y-40506954D01*
X126992639Y-40641170D01*
X126992638Y-40641177D01*
X126992000Y-40645618D01*
X126992000Y-40715814D01*
X126971998Y-40783935D01*
X126918342Y-40830428D01*
X126848068Y-40840532D01*
X126783488Y-40811038D01*
X126776982Y-40804987D01*
X126728171Y-40756261D01*
X126716760Y-40747249D01*
X126578757Y-40662184D01*
X126565576Y-40656037D01*
X126517194Y-40639989D01*
X126503101Y-40639500D01*
X126500000Y-40645711D01*
X126500000Y-44901654D01*
X126498718Y-44919583D01*
X126492000Y-44966310D01*
X126492000Y-47765901D01*
X126471998Y-47834022D01*
X126418342Y-47880515D01*
X126348068Y-47890619D01*
X126283488Y-47861125D01*
X126278749Y-47856718D01*
X126266760Y-47847249D01*
X126128757Y-47762184D01*
X126115576Y-47756037D01*
X125961290Y-47704862D01*
X125947914Y-47701995D01*
X125853562Y-47692328D01*
X125847145Y-47692000D01*
X124826115Y-47692000D01*
X124810876Y-47696475D01*
X124809671Y-47697865D01*
X124808000Y-47705548D01*
X124808000Y-50289884D01*
X124812475Y-50305123D01*
X124813865Y-50306328D01*
X124821548Y-50307999D01*
X125847095Y-50307999D01*
X125853614Y-50307662D01*
X125949206Y-50297743D01*
X125962600Y-50294851D01*
X126116784Y-50243412D01*
X126129962Y-50237239D01*
X126267807Y-50151937D01*
X126284945Y-50138354D01*
X126286322Y-50140091D01*
X126339107Y-50111208D01*
X126409927Y-50116209D01*
X126466801Y-50158705D01*
X126491671Y-50225203D01*
X126492000Y-50234304D01*
X126492000Y-50778612D01*
X126492097Y-50780342D01*
X126492097Y-50780352D01*
X126492658Y-50790380D01*
X126495166Y-50835239D01*
X126495362Y-50836982D01*
X126501131Y-50888413D01*
X126500689Y-50919997D01*
X126497251Y-50944458D01*
X126497249Y-50944472D01*
X126496944Y-50946646D01*
X126496791Y-50948835D01*
X126494129Y-50986908D01*
X126492000Y-51017346D01*
X126492000Y-51366000D01*
X126471998Y-51434121D01*
X126418342Y-51480614D01*
X126366000Y-51492000D01*
X121634000Y-51492000D01*
X121565879Y-51471998D01*
X121519386Y-51418342D01*
X121508000Y-51366000D01*
X121508000Y-49597095D01*
X122042001Y-49597095D01*
X122042338Y-49603614D01*
X122052257Y-49699206D01*
X122055149Y-49712600D01*
X122106588Y-49866784D01*
X122112761Y-49879962D01*
X122198063Y-50017807D01*
X122207099Y-50029208D01*
X122321829Y-50143739D01*
X122333240Y-50152751D01*
X122471243Y-50237816D01*
X122484424Y-50243963D01*
X122638710Y-50295138D01*
X122652086Y-50298005D01*
X122746438Y-50307672D01*
X122752854Y-50308000D01*
X123773885Y-50308000D01*
X123789124Y-50303525D01*
X123790329Y-50302135D01*
X123792000Y-50294452D01*
X123792000Y-49526115D01*
X123787525Y-49510876D01*
X123786135Y-49509671D01*
X123778452Y-49508000D01*
X122060116Y-49508000D01*
X122044877Y-49512475D01*
X122043672Y-49513865D01*
X122042001Y-49521548D01*
X122042001Y-49597095D01*
X121508000Y-49597095D01*
X121508000Y-48473885D01*
X122042000Y-48473885D01*
X122046475Y-48489124D01*
X122047865Y-48490329D01*
X122055548Y-48492000D01*
X123773885Y-48492000D01*
X123789124Y-48487525D01*
X123790329Y-48486135D01*
X123792000Y-48478452D01*
X123792000Y-47710116D01*
X123787525Y-47694877D01*
X123786135Y-47693672D01*
X123778452Y-47692001D01*
X122752905Y-47692001D01*
X122746386Y-47692338D01*
X122650794Y-47702257D01*
X122637400Y-47705149D01*
X122483216Y-47756588D01*
X122470038Y-47762761D01*
X122332193Y-47848063D01*
X122320792Y-47857099D01*
X122206261Y-47971829D01*
X122197249Y-47983240D01*
X122112184Y-48121243D01*
X122106037Y-48134424D01*
X122054862Y-48288710D01*
X122051995Y-48302086D01*
X122042328Y-48396438D01*
X122042000Y-48402855D01*
X122042000Y-48473885D01*
X121508000Y-48473885D01*
X121508000Y-46832549D01*
X121507728Y-46815914D01*
X121507458Y-46807673D01*
X121506642Y-46791083D01*
X121490342Y-46542392D01*
X121490248Y-46541442D01*
X121490246Y-46541412D01*
X121487184Y-46510321D01*
X121487184Y-46510319D01*
X121487085Y-46509316D01*
X121484934Y-46492976D01*
X121479518Y-46460171D01*
X121479021Y-46457669D01*
X121439080Y-46256876D01*
X121431702Y-46219783D01*
X121424153Y-46187409D01*
X121419887Y-46171488D01*
X121410237Y-46139676D01*
X121331453Y-45907587D01*
X121319742Y-45876471D01*
X121313435Y-45861245D01*
X121299718Y-45830971D01*
X121248882Y-45727885D01*
X121191756Y-45612045D01*
X121191753Y-45612039D01*
X121191316Y-45611153D01*
X121190855Y-45610290D01*
X121176118Y-45582719D01*
X121176104Y-45582693D01*
X121175646Y-45581837D01*
X121167405Y-45567563D01*
X121159310Y-45554544D01*
X121150387Y-45540194D01*
X121150377Y-45540178D01*
X121149850Y-45539331D01*
X121013684Y-45335544D01*
X120994329Y-45308534D01*
X120984296Y-45295458D01*
X120983655Y-45294677D01*
X120983640Y-45294658D01*
X120963856Y-45270550D01*
X120963841Y-45270532D01*
X120963199Y-45269750D01*
X120841219Y-45130658D01*
X120799199Y-45082743D01*
X120799158Y-45082697D01*
X120798858Y-45082355D01*
X120787649Y-45069990D01*
X120785835Y-45068054D01*
X120782377Y-45064362D01*
X120782346Y-45064329D01*
X120782012Y-45063973D01*
X120770496Y-45052076D01*
X118544905Y-42826485D01*
X118530443Y-42800000D01*
X121940715Y-42800000D01*
X121959772Y-42944754D01*
X122015645Y-43079642D01*
X122104526Y-43195474D01*
X122111076Y-43200500D01*
X122111079Y-43200503D01*
X122213804Y-43279327D01*
X122220357Y-43284355D01*
X122329346Y-43329500D01*
X122346128Y-43336451D01*
X122355246Y-43340228D01*
X122500000Y-43359285D01*
X122508188Y-43358207D01*
X122636566Y-43341306D01*
X122644754Y-43340228D01*
X122652384Y-43337068D01*
X122660362Y-43334930D01*
X122660770Y-43336451D01*
X122695717Y-43329500D01*
X123119500Y-43329500D01*
X123187621Y-43349502D01*
X123234114Y-43403158D01*
X123245500Y-43455500D01*
X123245500Y-44397756D01*
X123252202Y-44459448D01*
X123254974Y-44466841D01*
X123254974Y-44466843D01*
X123267106Y-44499206D01*
X123302929Y-44594764D01*
X123308309Y-44601943D01*
X123308311Y-44601946D01*
X123324498Y-44623544D01*
X123389596Y-44710404D01*
X123396776Y-44715785D01*
X123498054Y-44791689D01*
X123498057Y-44791691D01*
X123505236Y-44797071D01*
X123574912Y-44823191D01*
X123633157Y-44845026D01*
X123633159Y-44845026D01*
X123640552Y-44847798D01*
X123648402Y-44848651D01*
X123648403Y-44848651D01*
X123698847Y-44854131D01*
X123702244Y-44854500D01*
X124297756Y-44854500D01*
X124301153Y-44854131D01*
X124351597Y-44848651D01*
X124351598Y-44848651D01*
X124359448Y-44847798D01*
X124366841Y-44845026D01*
X124366843Y-44845026D01*
X124425088Y-44823191D01*
X124494764Y-44797071D01*
X124501943Y-44791691D01*
X124501946Y-44791689D01*
X124603224Y-44715785D01*
X124610404Y-44710404D01*
X124675502Y-44623544D01*
X124691689Y-44601946D01*
X124691691Y-44601943D01*
X124697071Y-44594764D01*
X124747798Y-44459448D01*
X124748652Y-44451588D01*
X124750343Y-44444476D01*
X124785561Y-44382830D01*
X124848516Y-44350010D01*
X124919221Y-44356436D01*
X124975228Y-44400068D01*
X124998253Y-44460620D01*
X125002257Y-44499206D01*
X125005149Y-44512600D01*
X125056588Y-44666784D01*
X125062761Y-44679962D01*
X125148063Y-44817807D01*
X125157099Y-44829208D01*
X125271829Y-44943739D01*
X125283240Y-44952751D01*
X125421243Y-45037816D01*
X125434424Y-45043963D01*
X125482806Y-45060011D01*
X125496899Y-45060500D01*
X125500000Y-45054289D01*
X125500000Y-40652422D01*
X125496027Y-40638891D01*
X125489201Y-40637910D01*
X125433216Y-40656588D01*
X125420038Y-40662761D01*
X125282193Y-40748063D01*
X125270792Y-40757099D01*
X125156261Y-40871829D01*
X125147249Y-40883240D01*
X125062184Y-41021243D01*
X125056037Y-41034424D01*
X125004862Y-41188710D01*
X125001995Y-41202086D01*
X124998214Y-41238985D01*
X124971372Y-41304712D01*
X124913257Y-41345494D01*
X124842319Y-41348382D01*
X124781081Y-41312460D01*
X124750287Y-41255288D01*
X124748652Y-41248409D01*
X124747798Y-41240552D01*
X124697071Y-41105236D01*
X124691691Y-41098057D01*
X124691689Y-41098054D01*
X124615785Y-40996776D01*
X124610404Y-40989596D01*
X124566594Y-40956762D01*
X124501946Y-40908311D01*
X124501943Y-40908309D01*
X124494764Y-40902929D01*
X124405046Y-40869296D01*
X124366843Y-40854974D01*
X124366841Y-40854974D01*
X124359448Y-40852202D01*
X124351598Y-40851349D01*
X124351597Y-40851349D01*
X124301153Y-40845869D01*
X124301152Y-40845869D01*
X124297756Y-40845500D01*
X123702244Y-40845500D01*
X123698848Y-40845869D01*
X123698847Y-40845869D01*
X123648403Y-40851349D01*
X123648402Y-40851349D01*
X123640552Y-40852202D01*
X123633159Y-40854974D01*
X123633157Y-40854974D01*
X123594954Y-40869296D01*
X123505236Y-40902929D01*
X123498057Y-40908309D01*
X123498054Y-40908311D01*
X123433406Y-40956762D01*
X123389596Y-40989596D01*
X123384215Y-40996776D01*
X123308311Y-41098054D01*
X123308309Y-41098057D01*
X123302929Y-41105236D01*
X123252202Y-41240552D01*
X123245500Y-41302244D01*
X123245500Y-42244500D01*
X123225498Y-42312621D01*
X123171842Y-42359114D01*
X123119500Y-42370500D01*
X122893902Y-42370500D01*
X122825781Y-42350498D01*
X122817198Y-42344462D01*
X122811959Y-42340442D01*
X122779643Y-42315645D01*
X122644754Y-42259772D01*
X122500000Y-42240715D01*
X122491812Y-42241793D01*
X122363432Y-42258694D01*
X122363430Y-42258695D01*
X122355246Y-42259772D01*
X122307430Y-42279578D01*
X122227986Y-42312485D01*
X122227984Y-42312486D01*
X122220358Y-42315645D01*
X122104526Y-42404526D01*
X122015645Y-42520358D01*
X121959772Y-42655246D01*
X121940715Y-42800000D01*
X118530443Y-42800000D01*
X118510879Y-42764173D01*
X118508000Y-42737390D01*
X118508000Y-41605507D01*
X118507517Y-41583369D01*
X118507038Y-41572388D01*
X118505588Y-41550252D01*
X118485759Y-41323600D01*
X118479974Y-41279660D01*
X118476160Y-41258030D01*
X118470646Y-41233157D01*
X118466866Y-41216106D01*
X118466862Y-41216090D01*
X118466569Y-41214768D01*
X118459587Y-41188710D01*
X118455084Y-41171902D01*
X118455079Y-41171883D01*
X118418246Y-41034424D01*
X118409113Y-41000338D01*
X118404030Y-40984215D01*
X118396208Y-40959408D01*
X118396207Y-40959405D01*
X118395787Y-40958073D01*
X118388275Y-40937434D01*
X118387749Y-40936164D01*
X118371833Y-40897740D01*
X118371822Y-40897716D01*
X118371315Y-40896491D01*
X118277498Y-40695300D01*
X118257033Y-40655986D01*
X118246051Y-40636965D01*
X118245315Y-40635809D01*
X118245303Y-40635790D01*
X118222985Y-40600760D01*
X118222241Y-40599592D01*
X118094911Y-40417746D01*
X118067921Y-40382573D01*
X118053803Y-40365749D01*
X118023874Y-40333089D01*
X117866911Y-40176126D01*
X117834251Y-40146197D01*
X117833211Y-40145324D01*
X117818481Y-40132963D01*
X117818468Y-40132953D01*
X117817427Y-40132079D01*
X117782254Y-40105089D01*
X117600408Y-39977759D01*
X117593159Y-39973141D01*
X117564210Y-39954697D01*
X117564191Y-39954685D01*
X117563035Y-39953949D01*
X117561856Y-39953268D01*
X117561844Y-39953261D01*
X117550010Y-39946429D01*
X117544014Y-39942967D01*
X117528557Y-39934921D01*
X117505911Y-39923132D01*
X117505897Y-39923125D01*
X117504700Y-39922502D01*
X117303509Y-39828685D01*
X117302284Y-39828178D01*
X117302260Y-39828167D01*
X117263836Y-39812251D01*
X117263833Y-39812250D01*
X117262566Y-39811725D01*
X117241927Y-39804213D01*
X117240610Y-39803798D01*
X117240593Y-39803792D01*
X117222853Y-39798199D01*
X117199656Y-39790886D01*
X117150949Y-39777836D01*
X117150931Y-39777830D01*
X116985234Y-39733431D01*
X116979920Y-39732253D01*
X116943282Y-39724131D01*
X116943261Y-39724127D01*
X116941949Y-39723836D01*
X116927871Y-39721354D01*
X116921688Y-39720264D01*
X116921683Y-39720263D01*
X116920326Y-39720024D01*
X116914667Y-39719279D01*
X116877751Y-39714419D01*
X116877736Y-39714417D01*
X116876404Y-39714242D01*
X116702932Y-39699065D01*
X116649752Y-39694412D01*
X116649093Y-39694369D01*
X116649069Y-39694367D01*
X116640333Y-39693795D01*
X116627612Y-39692962D01*
X116616631Y-39692483D01*
X116615983Y-39692469D01*
X116615957Y-39692468D01*
X116595136Y-39692014D01*
X116595133Y-39692014D01*
X116594493Y-39692000D01*
X116504956Y-39692000D01*
X116490290Y-39692288D01*
X116485639Y-39692379D01*
X116485626Y-39692379D01*
X116485034Y-39692391D01*
X116484454Y-39692414D01*
X116484412Y-39692415D01*
X116480437Y-39692571D01*
X116475148Y-39692779D01*
X116455214Y-39693954D01*
X116402270Y-39698121D01*
X116236592Y-39711159D01*
X116236577Y-39711160D01*
X116235376Y-39711255D01*
X116195754Y-39715945D01*
X116194511Y-39716142D01*
X116194503Y-39716143D01*
X116177464Y-39718842D01*
X116177453Y-39718844D01*
X116176228Y-39719038D01*
X116175038Y-39719275D01*
X116175014Y-39719279D01*
X116138300Y-39726582D01*
X116138277Y-39726587D01*
X116137116Y-39726818D01*
X115927522Y-39777137D01*
X115889128Y-39787965D01*
X115887988Y-39788336D01*
X115887963Y-39788343D01*
X115881231Y-39790531D01*
X115870333Y-39794072D01*
X115869145Y-39794510D01*
X115869143Y-39794511D01*
X115834068Y-39807451D01*
X115834041Y-39807462D01*
X115832915Y-39807877D01*
X115633763Y-39890368D01*
X115597530Y-39907072D01*
X115596459Y-39907618D01*
X115596444Y-39907625D01*
X115581015Y-39915487D01*
X115579932Y-39916039D01*
X115545136Y-39935526D01*
X115361342Y-40048156D01*
X115360325Y-40048835D01*
X115360304Y-40048849D01*
X115329213Y-40069625D01*
X115328164Y-40070326D01*
X115312173Y-40081945D01*
X115280862Y-40106629D01*
X115279900Y-40107450D01*
X115279891Y-40107458D01*
X115216001Y-40162025D01*
X115215993Y-40162032D01*
X115214250Y-40163521D01*
X115212630Y-40165124D01*
X115212621Y-40165132D01*
X115200519Y-40177105D01*
X115161445Y-40215762D01*
X115159946Y-40217480D01*
X115159938Y-40217488D01*
X115138785Y-40241724D01*
X115137277Y-40243452D01*
X115135898Y-40245287D01*
X115135895Y-40245291D01*
X115096738Y-40297404D01*
X115096736Y-40297407D01*
X115092645Y-40302852D01*
X115032579Y-40434378D01*
X115031311Y-40438697D01*
X115021661Y-40471563D01*
X115012577Y-40502499D01*
X115011937Y-40506947D01*
X115011936Y-40506954D01*
X114992639Y-40641170D01*
X114992638Y-40641177D01*
X114992000Y-40645618D01*
X114992000Y-40715814D01*
X114971998Y-40783935D01*
X114918342Y-40830428D01*
X114848068Y-40840532D01*
X114783488Y-40811038D01*
X114776982Y-40804987D01*
X114728171Y-40756261D01*
X114716760Y-40747249D01*
X114578757Y-40662184D01*
X114565576Y-40656037D01*
X114517194Y-40639989D01*
X114503101Y-40639500D01*
X114500000Y-40645711D01*
X114500000Y-44901654D01*
X114498718Y-44919583D01*
X114492000Y-44966310D01*
X114492000Y-47765901D01*
X114471998Y-47834022D01*
X114418342Y-47880515D01*
X114348068Y-47890619D01*
X114283488Y-47861125D01*
X114278749Y-47856718D01*
X114266760Y-47847249D01*
X114128757Y-47762184D01*
X114115576Y-47756037D01*
X113961290Y-47704862D01*
X113947914Y-47701995D01*
X113853562Y-47692328D01*
X113847145Y-47692000D01*
X112826115Y-47692000D01*
X112810876Y-47696475D01*
X112809671Y-47697865D01*
X112808000Y-47705548D01*
X112808000Y-50289884D01*
X112812475Y-50305123D01*
X112813865Y-50306328D01*
X112821548Y-50307999D01*
X113847095Y-50307999D01*
X113853614Y-50307662D01*
X113949206Y-50297743D01*
X113962600Y-50294851D01*
X114116784Y-50243412D01*
X114129962Y-50237239D01*
X114267807Y-50151937D01*
X114284945Y-50138354D01*
X114286322Y-50140091D01*
X114339107Y-50111208D01*
X114409927Y-50116209D01*
X114466801Y-50158705D01*
X114491671Y-50225203D01*
X114492000Y-50234304D01*
X114492000Y-51366000D01*
X114471998Y-51434121D01*
X114418342Y-51480614D01*
X114366000Y-51492000D01*
X109262610Y-51492000D01*
X109194489Y-51471998D01*
X109173515Y-51455095D01*
X107315515Y-49597095D01*
X110042001Y-49597095D01*
X110042338Y-49603614D01*
X110052257Y-49699206D01*
X110055149Y-49712600D01*
X110106588Y-49866784D01*
X110112761Y-49879962D01*
X110198063Y-50017807D01*
X110207099Y-50029208D01*
X110321829Y-50143739D01*
X110333240Y-50152751D01*
X110471243Y-50237816D01*
X110484424Y-50243963D01*
X110638710Y-50295138D01*
X110652086Y-50298005D01*
X110746438Y-50307672D01*
X110752854Y-50308000D01*
X111773885Y-50308000D01*
X111789124Y-50303525D01*
X111790329Y-50302135D01*
X111792000Y-50294452D01*
X111792000Y-49526115D01*
X111787525Y-49510876D01*
X111786135Y-49509671D01*
X111778452Y-49508000D01*
X110060116Y-49508000D01*
X110044877Y-49512475D01*
X110043672Y-49513865D01*
X110042001Y-49521548D01*
X110042001Y-49597095D01*
X107315515Y-49597095D01*
X106947924Y-49229504D01*
X106936027Y-49217988D01*
X106935671Y-49217654D01*
X106935638Y-49217623D01*
X106930378Y-49212696D01*
X106930010Y-49212351D01*
X106917645Y-49201142D01*
X106917303Y-49200842D01*
X106917257Y-49200801D01*
X106731012Y-49037469D01*
X106731003Y-49037461D01*
X106730250Y-49036801D01*
X106729468Y-49036159D01*
X106729450Y-49036144D01*
X106705342Y-49016360D01*
X106705323Y-49016345D01*
X106704542Y-49015704D01*
X106691466Y-49005671D01*
X106664456Y-48986316D01*
X106460669Y-48850150D01*
X106459822Y-48849623D01*
X106459806Y-48849613D01*
X106445456Y-48840690D01*
X106432437Y-48832595D01*
X106426498Y-48829166D01*
X106419035Y-48824857D01*
X106419014Y-48824846D01*
X106418163Y-48824354D01*
X106417307Y-48823896D01*
X106417281Y-48823882D01*
X106389710Y-48809145D01*
X106389696Y-48809138D01*
X106388847Y-48808684D01*
X106344094Y-48786614D01*
X106169968Y-48700745D01*
X106169965Y-48700744D01*
X106169029Y-48700282D01*
X106160850Y-48696576D01*
X106139720Y-48687002D01*
X106139708Y-48686997D01*
X106138755Y-48686565D01*
X106137775Y-48686159D01*
X106137761Y-48686153D01*
X106124505Y-48680662D01*
X106124490Y-48680656D01*
X106123529Y-48680258D01*
X106122559Y-48679893D01*
X106122544Y-48679887D01*
X106101016Y-48671785D01*
X106092413Y-48668547D01*
X105860324Y-48589763D01*
X105859371Y-48589474D01*
X105859306Y-48589453D01*
X105834509Y-48581931D01*
X105775128Y-48543016D01*
X105746212Y-48478174D01*
X105746643Y-48473885D01*
X110042000Y-48473885D01*
X110046475Y-48489124D01*
X110047865Y-48490329D01*
X110055548Y-48492000D01*
X111773885Y-48492000D01*
X111789124Y-48487525D01*
X111790329Y-48486135D01*
X111792000Y-48478452D01*
X111792000Y-47710116D01*
X111787525Y-47694877D01*
X111786135Y-47693672D01*
X111778452Y-47692001D01*
X110752905Y-47692001D01*
X110746386Y-47692338D01*
X110650794Y-47702257D01*
X110637400Y-47705149D01*
X110483216Y-47756588D01*
X110470038Y-47762761D01*
X110332193Y-47848063D01*
X110320792Y-47857099D01*
X110206261Y-47971829D01*
X110197249Y-47983240D01*
X110112184Y-48121243D01*
X110106037Y-48134424D01*
X110054862Y-48288710D01*
X110051995Y-48302086D01*
X110042328Y-48396438D01*
X110042000Y-48402855D01*
X110042000Y-48473885D01*
X105746643Y-48473885D01*
X105752057Y-48420024D01*
X105804407Y-48269273D01*
X105804648Y-48268284D01*
X105803180Y-48257992D01*
X105789615Y-48254000D01*
X103114598Y-48254000D01*
X103101067Y-48257973D01*
X103099712Y-48267399D01*
X103121194Y-48356537D01*
X103125083Y-48367832D01*
X103201982Y-48536963D01*
X103211968Y-48607254D01*
X103182368Y-48671785D01*
X103122577Y-48710069D01*
X103096273Y-48714792D01*
X103039756Y-48718835D01*
X103000933Y-48727281D01*
X102974789Y-48732968D01*
X102974785Y-48732969D01*
X102970382Y-48733927D01*
X102966159Y-48735502D01*
X102966156Y-48735503D01*
X102839128Y-48782883D01*
X102839124Y-48782885D01*
X102834909Y-48784457D01*
X102683165Y-48867316D01*
X102651979Y-48885820D01*
X102636856Y-48895539D01*
X102607068Y-48916221D01*
X102512662Y-48986893D01*
X102393953Y-49075757D01*
X102393935Y-49075771D01*
X102393056Y-49076429D01*
X102364810Y-49099192D01*
X102351224Y-49110965D01*
X102324694Y-49135666D01*
X102135666Y-49324694D01*
X102110965Y-49351224D01*
X102099192Y-49364810D01*
X102076429Y-49393056D01*
X102075771Y-49393935D01*
X102075757Y-49393953D01*
X101998040Y-49497771D01*
X101916221Y-49607068D01*
X101895539Y-49636856D01*
X101885820Y-49651979D01*
X101867316Y-49683166D01*
X101866785Y-49684138D01*
X101866775Y-49684156D01*
X101739750Y-49916784D01*
X101739195Y-49917801D01*
X101722968Y-49950216D01*
X101715502Y-49966563D01*
X101701618Y-50000080D01*
X101701230Y-50001119D01*
X101701223Y-50001138D01*
X101658304Y-50116209D01*
X101655721Y-50123135D01*
X101655720Y-50123140D01*
X101608191Y-50250569D01*
X101596734Y-50284992D01*
X101591671Y-50302237D01*
X101582707Y-50337359D01*
X101525881Y-50598584D01*
X101519443Y-50634266D01*
X101516886Y-50652049D01*
X101513010Y-50688106D01*
X101512929Y-50689236D01*
X101512928Y-50689249D01*
X101506536Y-50778612D01*
X101505695Y-50790374D01*
X101505694Y-50790380D01*
X101493615Y-50959275D01*
X101492645Y-50977382D01*
X101492324Y-50986370D01*
X101492000Y-51004501D01*
X101492000Y-52495499D01*
X100754000Y-52495499D01*
X100754000Y-47731716D01*
X103095352Y-47731716D01*
X103096820Y-47742008D01*
X103110385Y-47746000D01*
X104177885Y-47746000D01*
X104193124Y-47741525D01*
X104194329Y-47740135D01*
X104196000Y-47732452D01*
X104196000Y-47727885D01*
X104704000Y-47727885D01*
X104708475Y-47743124D01*
X104709865Y-47744329D01*
X104717548Y-47746000D01*
X105785402Y-47746000D01*
X105798933Y-47742027D01*
X105800288Y-47732601D01*
X105778806Y-47643463D01*
X105774917Y-47632168D01*
X105692371Y-47450618D01*
X105686424Y-47440276D01*
X105571032Y-47277603D01*
X105563239Y-47268575D01*
X105419169Y-47130658D01*
X105409799Y-47123258D01*
X105381979Y-47105295D01*
X105335601Y-47051540D01*
X105325647Y-46981244D01*
X105355278Y-46916727D01*
X105372493Y-46900357D01*
X105487857Y-46809738D01*
X105496506Y-46801501D01*
X105627212Y-46650877D01*
X105634147Y-46641153D01*
X105734010Y-46468533D01*
X105738984Y-46457669D01*
X105804407Y-46269273D01*
X105804648Y-46268284D01*
X105803180Y-46257992D01*
X105789615Y-46254000D01*
X104722115Y-46254000D01*
X104706876Y-46258475D01*
X104705671Y-46259865D01*
X104704000Y-46267548D01*
X104704000Y-47727885D01*
X104196000Y-47727885D01*
X104196000Y-46272115D01*
X104191525Y-46256876D01*
X104190135Y-46255671D01*
X104182452Y-46254000D01*
X103114598Y-46254000D01*
X103101067Y-46257973D01*
X103099712Y-46267399D01*
X103121194Y-46356537D01*
X103125083Y-46367832D01*
X103207629Y-46549382D01*
X103213576Y-46559724D01*
X103328968Y-46722397D01*
X103336761Y-46731425D01*
X103480831Y-46869342D01*
X103490201Y-46876742D01*
X103518021Y-46894705D01*
X103564399Y-46948460D01*
X103574353Y-47018756D01*
X103544722Y-47083273D01*
X103527507Y-47099643D01*
X103412143Y-47190262D01*
X103403494Y-47198499D01*
X103272788Y-47349123D01*
X103265853Y-47358847D01*
X103165990Y-47531467D01*
X103161016Y-47542331D01*
X103095593Y-47730727D01*
X103095352Y-47731716D01*
X100754000Y-47731716D01*
X100754000Y-45731716D01*
X103095352Y-45731716D01*
X103096820Y-45742008D01*
X103110385Y-45746000D01*
X104177885Y-45746000D01*
X104193124Y-45741525D01*
X104194329Y-45740135D01*
X104196000Y-45732452D01*
X104196000Y-45727885D01*
X104704000Y-45727885D01*
X104708475Y-45743124D01*
X104709865Y-45744329D01*
X104717548Y-45746000D01*
X105785402Y-45746000D01*
X105798933Y-45742027D01*
X105800288Y-45732601D01*
X105778806Y-45643463D01*
X105774917Y-45632168D01*
X105692371Y-45450618D01*
X105686424Y-45440276D01*
X105571032Y-45277603D01*
X105563239Y-45268575D01*
X105419169Y-45130658D01*
X105409804Y-45123262D01*
X105242259Y-45015079D01*
X105231655Y-45009583D01*
X105046688Y-44935039D01*
X105035230Y-44931645D01*
X104838072Y-44893143D01*
X104829209Y-44892066D01*
X104826500Y-44892000D01*
X104722115Y-44892000D01*
X104706876Y-44896475D01*
X104705671Y-44897865D01*
X104704000Y-44905548D01*
X104704000Y-45727885D01*
X104196000Y-45727885D01*
X104196000Y-44910115D01*
X104191525Y-44894876D01*
X104190135Y-44893671D01*
X104182452Y-44892000D01*
X104125168Y-44892000D01*
X104119192Y-44892285D01*
X103970506Y-44906471D01*
X103958772Y-44908730D01*
X103767401Y-44964872D01*
X103756325Y-44969302D01*
X103579022Y-45060619D01*
X103568976Y-45067069D01*
X103412143Y-45190262D01*
X103403494Y-45198499D01*
X103272788Y-45349123D01*
X103265853Y-45358847D01*
X103165990Y-45531467D01*
X103161016Y-45542331D01*
X103095593Y-45730727D01*
X103095352Y-45731716D01*
X100754000Y-45731716D01*
X100754000Y-42800000D01*
X109940715Y-42800000D01*
X109959772Y-42944754D01*
X110015645Y-43079642D01*
X110104526Y-43195474D01*
X110111076Y-43200500D01*
X110111079Y-43200503D01*
X110213804Y-43279327D01*
X110220357Y-43284355D01*
X110329346Y-43329500D01*
X110346128Y-43336451D01*
X110355246Y-43340228D01*
X110500000Y-43359285D01*
X110508188Y-43358207D01*
X110636566Y-43341306D01*
X110644754Y-43340228D01*
X110652384Y-43337068D01*
X110660362Y-43334930D01*
X110660770Y-43336451D01*
X110695717Y-43329500D01*
X111119500Y-43329500D01*
X111187621Y-43349502D01*
X111234114Y-43403158D01*
X111245500Y-43455500D01*
X111245500Y-44397756D01*
X111252202Y-44459448D01*
X111254974Y-44466841D01*
X111254974Y-44466843D01*
X111267106Y-44499206D01*
X111302929Y-44594764D01*
X111308309Y-44601943D01*
X111308311Y-44601946D01*
X111324498Y-44623544D01*
X111389596Y-44710404D01*
X111396776Y-44715785D01*
X111498054Y-44791689D01*
X111498057Y-44791691D01*
X111505236Y-44797071D01*
X111574912Y-44823191D01*
X111633157Y-44845026D01*
X111633159Y-44845026D01*
X111640552Y-44847798D01*
X111648402Y-44848651D01*
X111648403Y-44848651D01*
X111698847Y-44854131D01*
X111702244Y-44854500D01*
X112297756Y-44854500D01*
X112301153Y-44854131D01*
X112351597Y-44848651D01*
X112351598Y-44848651D01*
X112359448Y-44847798D01*
X112366841Y-44845026D01*
X112366843Y-44845026D01*
X112425088Y-44823191D01*
X112494764Y-44797071D01*
X112501943Y-44791691D01*
X112501946Y-44791689D01*
X112603224Y-44715785D01*
X112610404Y-44710404D01*
X112675502Y-44623544D01*
X112691689Y-44601946D01*
X112691691Y-44601943D01*
X112697071Y-44594764D01*
X112747798Y-44459448D01*
X112748652Y-44451588D01*
X112750343Y-44444476D01*
X112785561Y-44382830D01*
X112848516Y-44350010D01*
X112919221Y-44356436D01*
X112975228Y-44400068D01*
X112998253Y-44460620D01*
X113002257Y-44499206D01*
X113005149Y-44512600D01*
X113056588Y-44666784D01*
X113062761Y-44679962D01*
X113148063Y-44817807D01*
X113157099Y-44829208D01*
X113271829Y-44943739D01*
X113283240Y-44952751D01*
X113421243Y-45037816D01*
X113434424Y-45043963D01*
X113482806Y-45060011D01*
X113496899Y-45060500D01*
X113500000Y-45054289D01*
X113500000Y-40652422D01*
X113496027Y-40638891D01*
X113489201Y-40637910D01*
X113433216Y-40656588D01*
X113420038Y-40662761D01*
X113282193Y-40748063D01*
X113270792Y-40757099D01*
X113156261Y-40871829D01*
X113147249Y-40883240D01*
X113062184Y-41021243D01*
X113056037Y-41034424D01*
X113004862Y-41188710D01*
X113001995Y-41202086D01*
X112998214Y-41238985D01*
X112971372Y-41304712D01*
X112913257Y-41345494D01*
X112842319Y-41348382D01*
X112781081Y-41312460D01*
X112750287Y-41255288D01*
X112748652Y-41248409D01*
X112747798Y-41240552D01*
X112697071Y-41105236D01*
X112691691Y-41098057D01*
X112691689Y-41098054D01*
X112615785Y-40996776D01*
X112610404Y-40989596D01*
X112566594Y-40956762D01*
X112501946Y-40908311D01*
X112501943Y-40908309D01*
X112494764Y-40902929D01*
X112405046Y-40869296D01*
X112366843Y-40854974D01*
X112366841Y-40854974D01*
X112359448Y-40852202D01*
X112351598Y-40851349D01*
X112351597Y-40851349D01*
X112301153Y-40845869D01*
X112301152Y-40845869D01*
X112297756Y-40845500D01*
X111702244Y-40845500D01*
X111698848Y-40845869D01*
X111698847Y-40845869D01*
X111648403Y-40851349D01*
X111648402Y-40851349D01*
X111640552Y-40852202D01*
X111633159Y-40854974D01*
X111633157Y-40854974D01*
X111594954Y-40869296D01*
X111505236Y-40902929D01*
X111498057Y-40908309D01*
X111498054Y-40908311D01*
X111433406Y-40956762D01*
X111389596Y-40989596D01*
X111384215Y-40996776D01*
X111308311Y-41098054D01*
X111308309Y-41098057D01*
X111302929Y-41105236D01*
X111252202Y-41240552D01*
X111245500Y-41302244D01*
X111245500Y-42244500D01*
X111225498Y-42312621D01*
X111171842Y-42359114D01*
X111119500Y-42370500D01*
X110893902Y-42370500D01*
X110825781Y-42350498D01*
X110817198Y-42344462D01*
X110811959Y-42340442D01*
X110779643Y-42315645D01*
X110644754Y-42259772D01*
X110500000Y-42240715D01*
X110491812Y-42241793D01*
X110363432Y-42258694D01*
X110363430Y-42258695D01*
X110355246Y-42259772D01*
X110307430Y-42279578D01*
X110227986Y-42312485D01*
X110227984Y-42312486D01*
X110220358Y-42315645D01*
X110104526Y-42404526D01*
X110015645Y-42520358D01*
X109959772Y-42655246D01*
X109940715Y-42800000D01*
X100754000Y-42800000D01*
X100754000Y-38941600D01*
X102641680Y-38941600D01*
X102641855Y-38946052D01*
X102646102Y-39054131D01*
X102651991Y-39204022D01*
X102699174Y-39462373D01*
X102700583Y-39466596D01*
X102776436Y-39693954D01*
X102782289Y-39711499D01*
X102823768Y-39794511D01*
X102893927Y-39934921D01*
X102899677Y-39946429D01*
X103048995Y-40162474D01*
X103052011Y-40165736D01*
X103052016Y-40165743D01*
X103224249Y-40352063D01*
X103224254Y-40352067D01*
X103227265Y-40355325D01*
X103430929Y-40521134D01*
X103434747Y-40523433D01*
X103434749Y-40523434D01*
X103648998Y-40652422D01*
X103655924Y-40656592D01*
X103669130Y-40662184D01*
X103893663Y-40757262D01*
X103893666Y-40757263D01*
X103897761Y-40758997D01*
X103902053Y-40760135D01*
X103902056Y-40760136D01*
X104147317Y-40825166D01*
X104147321Y-40825167D01*
X104151614Y-40826305D01*
X104156023Y-40826827D01*
X104156029Y-40826828D01*
X104316910Y-40845869D01*
X104412418Y-40857173D01*
X104674970Y-40850986D01*
X104755543Y-40837575D01*
X104929640Y-40808597D01*
X104929644Y-40808596D01*
X104934030Y-40807866D01*
X104938271Y-40806525D01*
X104938274Y-40806524D01*
X105180185Y-40730018D01*
X105180187Y-40730017D01*
X105184431Y-40728675D01*
X105188442Y-40726749D01*
X105188447Y-40726747D01*
X105417156Y-40616922D01*
X105417157Y-40616921D01*
X105421175Y-40614992D01*
X105530984Y-40541620D01*
X105635831Y-40471563D01*
X105635835Y-40471560D01*
X105639539Y-40469085D01*
X105642856Y-40466114D01*
X105642860Y-40466111D01*
X105831849Y-40296839D01*
X105831850Y-40296838D01*
X105835167Y-40293867D01*
X106004154Y-40092832D01*
X106143130Y-39869992D01*
X106168890Y-39811725D01*
X106247522Y-39633861D01*
X106249320Y-39629794D01*
X106320607Y-39377030D01*
X106343845Y-39204022D01*
X106355141Y-39119924D01*
X106355142Y-39119916D01*
X106355568Y-39116742D01*
X106359237Y-39000000D01*
X106340689Y-38738031D01*
X106327339Y-38676020D01*
X106286350Y-38485636D01*
X106286350Y-38485634D01*
X106285414Y-38481289D01*
X106194515Y-38234897D01*
X106069806Y-38003771D01*
X105913775Y-37792522D01*
X105867622Y-37745638D01*
X105732666Y-37608547D01*
X105729535Y-37605366D01*
X105520764Y-37446036D01*
X105291625Y-37317712D01*
X105287466Y-37316103D01*
X105050846Y-37224561D01*
X105050840Y-37224559D01*
X105046691Y-37222954D01*
X105042359Y-37221950D01*
X105042356Y-37221949D01*
X104937747Y-37197702D01*
X104790849Y-37163653D01*
X104529204Y-37140992D01*
X104524769Y-37141236D01*
X104524765Y-37141236D01*
X104271419Y-37155179D01*
X104271412Y-37155180D01*
X104266976Y-37155424D01*
X104009397Y-37206659D01*
X103761608Y-37293677D01*
X103757657Y-37295730D01*
X103757651Y-37295732D01*
X103532501Y-37412688D01*
X103528551Y-37414740D01*
X103524936Y-37417323D01*
X103524930Y-37417327D01*
X103480975Y-37448738D01*
X103314878Y-37567433D01*
X103124851Y-37748710D01*
X103122095Y-37752206D01*
X103122094Y-37752207D01*
X102965017Y-37951458D01*
X102962261Y-37954954D01*
X102902898Y-38057156D01*
X102832588Y-38178202D01*
X102832585Y-38178208D01*
X102830354Y-38182049D01*
X102828684Y-38186172D01*
X102807257Y-38239074D01*
X102731761Y-38425464D01*
X102730690Y-38429777D01*
X102730688Y-38429782D01*
X102717894Y-38481289D01*
X102668448Y-38680343D01*
X102641680Y-38941600D01*
X100754000Y-38941600D01*
X100754000Y-35380000D01*
X100774002Y-35311879D01*
X100827658Y-35265386D01*
X100880000Y-35254000D01*
X108577827Y-35254000D01*
X108645948Y-35274002D01*
G37*
%TD.AperFunction*%
%TD*%
%TA.AperFunction,Conductor*%
%TO.N,+12V*%
G36*
X116605474Y-40200479D02*
G01*
X116658654Y-40205132D01*
X116832129Y-40220309D01*
X116853752Y-40224121D01*
X117019449Y-40268520D01*
X117068180Y-40281577D01*
X117088819Y-40289089D01*
X117290010Y-40382906D01*
X117309031Y-40393888D01*
X117490877Y-40521218D01*
X117507701Y-40535336D01*
X117664664Y-40692299D01*
X117678782Y-40709123D01*
X117806112Y-40890969D01*
X117817094Y-40909990D01*
X117910911Y-41111181D01*
X117918423Y-41131820D01*
X117964389Y-41303365D01*
X117975878Y-41346244D01*
X117979692Y-41367874D01*
X117999521Y-41594526D01*
X118000000Y-41605507D01*
X118000000Y-43000000D01*
X120411286Y-45411286D01*
X120416923Y-45417303D01*
X120581264Y-45604698D01*
X120591297Y-45617774D01*
X120727463Y-45821561D01*
X120735704Y-45835835D01*
X120844106Y-46055653D01*
X120850413Y-46070879D01*
X120929197Y-46302968D01*
X120933463Y-46318889D01*
X120981279Y-46559277D01*
X120983430Y-46575617D01*
X120999730Y-46824308D01*
X121000000Y-46832549D01*
X121000000Y-52000000D01*
X127000000Y-52000000D01*
X127000000Y-51017346D01*
X127012748Y-50926639D01*
X127012748Y-50926636D01*
X127013299Y-50922717D01*
X127013616Y-50900000D01*
X127000000Y-50778612D01*
X127000000Y-49596635D01*
X127449001Y-49596635D01*
X127449338Y-49603154D01*
X127459155Y-49697765D01*
X127462047Y-49711159D01*
X127512973Y-49863804D01*
X127519137Y-49876963D01*
X127603590Y-50013438D01*
X127612617Y-50024827D01*
X127726197Y-50138209D01*
X127737608Y-50147221D01*
X127874223Y-50231431D01*
X127887401Y-50237575D01*
X128040143Y-50288238D01*
X128053509Y-50291104D01*
X128146899Y-50300672D01*
X128153314Y-50301000D01*
X129173885Y-50301000D01*
X129189124Y-50296525D01*
X129190329Y-50295135D01*
X129192000Y-50287452D01*
X129192000Y-50282884D01*
X130208000Y-50282884D01*
X130212475Y-50298123D01*
X130213865Y-50299328D01*
X130221548Y-50300999D01*
X131246635Y-50300999D01*
X131253154Y-50300662D01*
X131347765Y-50290845D01*
X131361159Y-50287953D01*
X131513804Y-50237027D01*
X131526963Y-50230863D01*
X131663438Y-50146410D01*
X131674827Y-50137383D01*
X131788209Y-50023803D01*
X131797221Y-50012392D01*
X131881431Y-49875777D01*
X131887575Y-49862599D01*
X131938238Y-49709857D01*
X131941104Y-49696491D01*
X131950672Y-49603101D01*
X131951000Y-49596686D01*
X131951000Y-49526115D01*
X131946525Y-49510876D01*
X131945135Y-49509671D01*
X131937452Y-49508000D01*
X130226115Y-49508000D01*
X130210876Y-49512475D01*
X130209671Y-49513865D01*
X130208000Y-49521548D01*
X130208000Y-50282884D01*
X129192000Y-50282884D01*
X129192000Y-49526115D01*
X129187525Y-49510876D01*
X129186135Y-49509671D01*
X129178452Y-49508000D01*
X127467116Y-49508000D01*
X127451877Y-49512475D01*
X127450672Y-49513865D01*
X127449001Y-49521548D01*
X127449001Y-49596635D01*
X127000000Y-49596635D01*
X127000000Y-48473885D01*
X127449000Y-48473885D01*
X127453475Y-48489124D01*
X127454865Y-48490329D01*
X127462548Y-48492000D01*
X129173885Y-48492000D01*
X129189124Y-48487525D01*
X129190329Y-48486135D01*
X129192000Y-48478452D01*
X129192000Y-48473885D01*
X130208000Y-48473885D01*
X130212475Y-48489124D01*
X130213865Y-48490329D01*
X130221548Y-48492000D01*
X131932884Y-48492000D01*
X131948123Y-48487525D01*
X131949328Y-48486135D01*
X131950999Y-48478452D01*
X131950999Y-48403365D01*
X131950662Y-48396846D01*
X131940845Y-48302235D01*
X131937953Y-48288841D01*
X131887027Y-48136196D01*
X131880863Y-48123037D01*
X131796410Y-47986562D01*
X131787383Y-47975173D01*
X131673803Y-47861791D01*
X131662392Y-47852779D01*
X131525777Y-47768569D01*
X131512599Y-47762425D01*
X131359857Y-47711762D01*
X131346491Y-47708896D01*
X131253101Y-47699328D01*
X131246686Y-47699000D01*
X130226115Y-47699000D01*
X130210876Y-47703475D01*
X130209671Y-47704865D01*
X130208000Y-47712548D01*
X130208000Y-48473885D01*
X129192000Y-48473885D01*
X129192000Y-47717116D01*
X129187525Y-47701877D01*
X129186135Y-47700672D01*
X129178452Y-47699001D01*
X128153365Y-47699001D01*
X128146846Y-47699338D01*
X128052235Y-47709155D01*
X128038841Y-47712047D01*
X127886196Y-47762973D01*
X127873037Y-47769137D01*
X127736562Y-47853590D01*
X127725173Y-47862617D01*
X127611791Y-47976197D01*
X127602779Y-47987608D01*
X127518569Y-48124223D01*
X127512425Y-48137401D01*
X127461762Y-48290143D01*
X127458896Y-48303509D01*
X127449328Y-48396899D01*
X127449000Y-48403314D01*
X127449000Y-48473885D01*
X127000000Y-48473885D01*
X127000000Y-44966310D01*
X127020002Y-44898189D01*
X127073658Y-44851696D01*
X127143932Y-44841592D01*
X127208512Y-44871086D01*
X127215017Y-44877137D01*
X127276192Y-44938205D01*
X127287608Y-44947221D01*
X127424221Y-45031429D01*
X127437402Y-45037576D01*
X127482806Y-45052636D01*
X127496899Y-45053125D01*
X127500000Y-45046914D01*
X127500000Y-45040199D01*
X128500000Y-45040199D01*
X128503973Y-45053730D01*
X128510799Y-45054711D01*
X128563800Y-45037028D01*
X128576964Y-45030862D01*
X128713438Y-44946410D01*
X128724827Y-44937383D01*
X128838209Y-44823803D01*
X128847221Y-44812392D01*
X128931431Y-44675777D01*
X128937575Y-44662599D01*
X128988238Y-44509857D01*
X128991104Y-44496491D01*
X129000672Y-44403101D01*
X129001000Y-44396686D01*
X129001000Y-43368115D01*
X128996525Y-43352876D01*
X128995135Y-43351671D01*
X128987452Y-43350000D01*
X128518115Y-43350000D01*
X128502876Y-43354475D01*
X128501671Y-43355865D01*
X128500000Y-43363548D01*
X128500000Y-45040199D01*
X127500000Y-45040199D01*
X127500000Y-42331885D01*
X128500000Y-42331885D01*
X128504475Y-42347124D01*
X128505865Y-42348329D01*
X128513548Y-42350000D01*
X128982884Y-42350000D01*
X128998123Y-42345525D01*
X128999328Y-42344135D01*
X129000999Y-42336452D01*
X129000999Y-41303365D01*
X129000662Y-41296846D01*
X128990845Y-41202235D01*
X128987953Y-41188841D01*
X128937027Y-41036196D01*
X128930863Y-41023037D01*
X128846410Y-40886562D01*
X128837383Y-40875173D01*
X128723803Y-40761791D01*
X128712392Y-40752779D01*
X128575779Y-40668571D01*
X128562598Y-40662424D01*
X128517194Y-40647364D01*
X128503101Y-40646875D01*
X128500000Y-40653086D01*
X128500000Y-42331885D01*
X127500000Y-42331885D01*
X127500000Y-40645618D01*
X127520002Y-40577497D01*
X127544170Y-40549807D01*
X127610782Y-40492915D01*
X127626773Y-40481296D01*
X127810567Y-40368666D01*
X127828165Y-40359699D01*
X128027317Y-40277208D01*
X128046112Y-40271101D01*
X128255706Y-40220782D01*
X128275232Y-40217689D01*
X128495070Y-40200388D01*
X128504956Y-40200000D01*
X128594493Y-40200000D01*
X128605474Y-40200479D01*
X128658654Y-40205132D01*
X128832129Y-40220309D01*
X128853752Y-40224121D01*
X129019449Y-40268520D01*
X129068180Y-40281577D01*
X129088819Y-40289089D01*
X129290010Y-40382906D01*
X129309031Y-40393888D01*
X129490877Y-40521218D01*
X129507701Y-40535336D01*
X129664664Y-40692299D01*
X129678782Y-40709123D01*
X129806112Y-40890969D01*
X129817094Y-40909990D01*
X129910911Y-41111181D01*
X129918423Y-41131820D01*
X129964389Y-41303365D01*
X129975878Y-41346244D01*
X129979692Y-41367874D01*
X129999521Y-41594526D01*
X130000000Y-41605507D01*
X130000000Y-43000000D01*
X132411286Y-45411286D01*
X132416923Y-45417303D01*
X132581264Y-45604698D01*
X132591297Y-45617774D01*
X132727463Y-45821561D01*
X132735704Y-45835835D01*
X132844106Y-46055653D01*
X132850413Y-46070879D01*
X132929197Y-46302968D01*
X132933463Y-46318889D01*
X132981279Y-46559277D01*
X132983430Y-46575617D01*
X132999730Y-46824308D01*
X133000000Y-46832549D01*
X133000000Y-52000000D01*
X139000000Y-52000000D01*
X139000000Y-51017346D01*
X139012748Y-50926639D01*
X139012748Y-50926636D01*
X139013299Y-50922717D01*
X139013616Y-50900000D01*
X139000000Y-50778612D01*
X139000000Y-49596635D01*
X139449001Y-49596635D01*
X139449338Y-49603154D01*
X139459155Y-49697765D01*
X139462047Y-49711159D01*
X139512973Y-49863804D01*
X139519137Y-49876963D01*
X139603590Y-50013438D01*
X139612617Y-50024827D01*
X139726197Y-50138209D01*
X139737608Y-50147221D01*
X139874223Y-50231431D01*
X139887401Y-50237575D01*
X140040143Y-50288238D01*
X140053509Y-50291104D01*
X140146899Y-50300672D01*
X140153314Y-50301000D01*
X141173885Y-50301000D01*
X141189124Y-50296525D01*
X141190329Y-50295135D01*
X141192000Y-50287452D01*
X141192000Y-50282884D01*
X142208000Y-50282884D01*
X142212475Y-50298123D01*
X142213865Y-50299328D01*
X142221548Y-50300999D01*
X143246635Y-50300999D01*
X143253154Y-50300662D01*
X143347765Y-50290845D01*
X143361159Y-50287953D01*
X143513804Y-50237027D01*
X143526963Y-50230863D01*
X143663438Y-50146410D01*
X143674827Y-50137383D01*
X143788209Y-50023803D01*
X143797221Y-50012392D01*
X143881431Y-49875777D01*
X143887575Y-49862599D01*
X143938238Y-49709857D01*
X143941104Y-49696491D01*
X143950672Y-49603101D01*
X143951000Y-49596686D01*
X143951000Y-49526115D01*
X143946525Y-49510876D01*
X143945135Y-49509671D01*
X143937452Y-49508000D01*
X142226115Y-49508000D01*
X142210876Y-49512475D01*
X142209671Y-49513865D01*
X142208000Y-49521548D01*
X142208000Y-50282884D01*
X141192000Y-50282884D01*
X141192000Y-49526115D01*
X141187525Y-49510876D01*
X141186135Y-49509671D01*
X141178452Y-49508000D01*
X139467116Y-49508000D01*
X139451877Y-49512475D01*
X139450672Y-49513865D01*
X139449001Y-49521548D01*
X139449001Y-49596635D01*
X139000000Y-49596635D01*
X139000000Y-48473885D01*
X139449000Y-48473885D01*
X139453475Y-48489124D01*
X139454865Y-48490329D01*
X139462548Y-48492000D01*
X141173885Y-48492000D01*
X141189124Y-48487525D01*
X141190329Y-48486135D01*
X141192000Y-48478452D01*
X141192000Y-48473885D01*
X142208000Y-48473885D01*
X142212475Y-48489124D01*
X142213865Y-48490329D01*
X142221548Y-48492000D01*
X143932884Y-48492000D01*
X143948123Y-48487525D01*
X143949328Y-48486135D01*
X143950999Y-48478452D01*
X143950999Y-48403365D01*
X143950662Y-48396846D01*
X143940845Y-48302235D01*
X143937953Y-48288841D01*
X143887027Y-48136196D01*
X143880863Y-48123037D01*
X143796410Y-47986562D01*
X143787383Y-47975173D01*
X143673803Y-47861791D01*
X143662392Y-47852779D01*
X143525777Y-47768569D01*
X143512599Y-47762425D01*
X143359857Y-47711762D01*
X143346491Y-47708896D01*
X143253101Y-47699328D01*
X143246686Y-47699000D01*
X142226115Y-47699000D01*
X142210876Y-47703475D01*
X142209671Y-47704865D01*
X142208000Y-47712548D01*
X142208000Y-48473885D01*
X141192000Y-48473885D01*
X141192000Y-47717116D01*
X141187525Y-47701877D01*
X141186135Y-47700672D01*
X141178452Y-47699001D01*
X140153365Y-47699001D01*
X140146846Y-47699338D01*
X140052235Y-47709155D01*
X140038841Y-47712047D01*
X139886196Y-47762973D01*
X139873037Y-47769137D01*
X139736562Y-47853590D01*
X139725173Y-47862617D01*
X139611791Y-47976197D01*
X139602779Y-47987608D01*
X139518569Y-48124223D01*
X139512425Y-48137401D01*
X139461762Y-48290143D01*
X139458896Y-48303509D01*
X139449328Y-48396899D01*
X139449000Y-48403314D01*
X139449000Y-48473885D01*
X139000000Y-48473885D01*
X139000000Y-44966310D01*
X139020002Y-44898189D01*
X139073658Y-44851696D01*
X139143932Y-44841592D01*
X139208512Y-44871086D01*
X139215017Y-44877137D01*
X139276192Y-44938205D01*
X139287608Y-44947221D01*
X139424221Y-45031429D01*
X139437402Y-45037576D01*
X139482806Y-45052636D01*
X139496899Y-45053125D01*
X139500000Y-45046914D01*
X139500000Y-45040199D01*
X140500000Y-45040199D01*
X140503973Y-45053730D01*
X140510799Y-45054711D01*
X140563800Y-45037028D01*
X140576964Y-45030862D01*
X140713438Y-44946410D01*
X140724827Y-44937383D01*
X140838209Y-44823803D01*
X140847221Y-44812392D01*
X140931431Y-44675777D01*
X140937575Y-44662599D01*
X140988238Y-44509857D01*
X140991104Y-44496491D01*
X141000672Y-44403101D01*
X141001000Y-44396686D01*
X141001000Y-43368115D01*
X140996525Y-43352876D01*
X140995135Y-43351671D01*
X140987452Y-43350000D01*
X140518115Y-43350000D01*
X140502876Y-43354475D01*
X140501671Y-43355865D01*
X140500000Y-43363548D01*
X140500000Y-45040199D01*
X139500000Y-45040199D01*
X139500000Y-42331885D01*
X140500000Y-42331885D01*
X140504475Y-42347124D01*
X140505865Y-42348329D01*
X140513548Y-42350000D01*
X140982884Y-42350000D01*
X140998123Y-42345525D01*
X140999328Y-42344135D01*
X141000999Y-42336452D01*
X141000999Y-41303365D01*
X141000662Y-41296846D01*
X140990845Y-41202235D01*
X140987953Y-41188841D01*
X140937027Y-41036196D01*
X140930863Y-41023037D01*
X140846410Y-40886562D01*
X140837383Y-40875173D01*
X140723803Y-40761791D01*
X140712392Y-40752779D01*
X140575779Y-40668571D01*
X140562598Y-40662424D01*
X140517194Y-40647364D01*
X140503101Y-40646875D01*
X140500000Y-40653086D01*
X140500000Y-42331885D01*
X139500000Y-42331885D01*
X139500000Y-40645618D01*
X139520002Y-40577497D01*
X139544170Y-40549807D01*
X139610782Y-40492915D01*
X139626773Y-40481296D01*
X139810567Y-40368666D01*
X139828165Y-40359699D01*
X140027317Y-40277208D01*
X140046112Y-40271101D01*
X140255706Y-40220782D01*
X140275232Y-40217689D01*
X140495070Y-40200388D01*
X140504956Y-40200000D01*
X140594493Y-40200000D01*
X140605474Y-40200479D01*
X140658654Y-40205132D01*
X140832129Y-40220309D01*
X140853752Y-40224121D01*
X141019449Y-40268520D01*
X141068180Y-40281577D01*
X141088819Y-40289089D01*
X141290010Y-40382906D01*
X141309031Y-40393888D01*
X141490877Y-40521218D01*
X141507701Y-40535336D01*
X141664664Y-40692299D01*
X141678782Y-40709123D01*
X141806112Y-40890969D01*
X141817094Y-40909990D01*
X141910911Y-41111181D01*
X141918423Y-41131820D01*
X141964389Y-41303365D01*
X141975878Y-41346244D01*
X141979692Y-41367874D01*
X141999521Y-41594526D01*
X142000000Y-41605507D01*
X142000000Y-43000000D01*
X144411286Y-45411286D01*
X144416923Y-45417303D01*
X144581264Y-45604698D01*
X144591297Y-45617774D01*
X144727463Y-45821561D01*
X144735704Y-45835835D01*
X144844106Y-46055653D01*
X144850413Y-46070879D01*
X144929197Y-46302968D01*
X144933463Y-46318889D01*
X144981279Y-46559277D01*
X144983430Y-46575617D01*
X144999730Y-46824308D01*
X145000000Y-46832549D01*
X145000000Y-52000000D01*
X151000000Y-52000000D01*
X151000000Y-51017346D01*
X151012748Y-50926639D01*
X151012748Y-50926636D01*
X151013299Y-50922717D01*
X151013616Y-50900000D01*
X151000000Y-50778612D01*
X151000000Y-49596635D01*
X151449001Y-49596635D01*
X151449338Y-49603154D01*
X151459155Y-49697765D01*
X151462047Y-49711159D01*
X151512973Y-49863804D01*
X151519137Y-49876963D01*
X151603590Y-50013438D01*
X151612617Y-50024827D01*
X151726197Y-50138209D01*
X151737608Y-50147221D01*
X151874223Y-50231431D01*
X151887401Y-50237575D01*
X152040143Y-50288238D01*
X152053509Y-50291104D01*
X152146899Y-50300672D01*
X152153314Y-50301000D01*
X153173885Y-50301000D01*
X153189124Y-50296525D01*
X153190329Y-50295135D01*
X153192000Y-50287452D01*
X153192000Y-50282884D01*
X154208000Y-50282884D01*
X154212475Y-50298123D01*
X154213865Y-50299328D01*
X154221548Y-50300999D01*
X155246635Y-50300999D01*
X155253154Y-50300662D01*
X155347765Y-50290845D01*
X155361159Y-50287953D01*
X155513804Y-50237027D01*
X155526963Y-50230863D01*
X155663438Y-50146410D01*
X155674827Y-50137383D01*
X155788209Y-50023803D01*
X155797221Y-50012392D01*
X155881431Y-49875777D01*
X155887575Y-49862599D01*
X155938238Y-49709857D01*
X155941104Y-49696491D01*
X155950672Y-49603101D01*
X155951000Y-49596686D01*
X155951000Y-49526115D01*
X155946525Y-49510876D01*
X155945135Y-49509671D01*
X155937452Y-49508000D01*
X154226115Y-49508000D01*
X154210876Y-49512475D01*
X154209671Y-49513865D01*
X154208000Y-49521548D01*
X154208000Y-50282884D01*
X153192000Y-50282884D01*
X153192000Y-49526115D01*
X153187525Y-49510876D01*
X153186135Y-49509671D01*
X153178452Y-49508000D01*
X151467116Y-49508000D01*
X151451877Y-49512475D01*
X151450672Y-49513865D01*
X151449001Y-49521548D01*
X151449001Y-49596635D01*
X151000000Y-49596635D01*
X151000000Y-48473885D01*
X151449000Y-48473885D01*
X151453475Y-48489124D01*
X151454865Y-48490329D01*
X151462548Y-48492000D01*
X153173885Y-48492000D01*
X153189124Y-48487525D01*
X153190329Y-48486135D01*
X153192000Y-48478452D01*
X153192000Y-48473885D01*
X154208000Y-48473885D01*
X154212475Y-48489124D01*
X154213865Y-48490329D01*
X154221548Y-48492000D01*
X155932884Y-48492000D01*
X155948123Y-48487525D01*
X155949328Y-48486135D01*
X155950999Y-48478452D01*
X155950999Y-48403365D01*
X155950662Y-48396846D01*
X155940845Y-48302235D01*
X155937953Y-48288841D01*
X155887027Y-48136196D01*
X155880863Y-48123037D01*
X155796410Y-47986562D01*
X155787383Y-47975173D01*
X155673803Y-47861791D01*
X155662392Y-47852779D01*
X155525777Y-47768569D01*
X155512599Y-47762425D01*
X155359857Y-47711762D01*
X155346491Y-47708896D01*
X155253101Y-47699328D01*
X155246686Y-47699000D01*
X154226115Y-47699000D01*
X154210876Y-47703475D01*
X154209671Y-47704865D01*
X154208000Y-47712548D01*
X154208000Y-48473885D01*
X153192000Y-48473885D01*
X153192000Y-47717116D01*
X153187525Y-47701877D01*
X153186135Y-47700672D01*
X153178452Y-47699001D01*
X152153365Y-47699001D01*
X152146846Y-47699338D01*
X152052235Y-47709155D01*
X152038841Y-47712047D01*
X151886196Y-47762973D01*
X151873037Y-47769137D01*
X151736562Y-47853590D01*
X151725173Y-47862617D01*
X151611791Y-47976197D01*
X151602779Y-47987608D01*
X151518569Y-48124223D01*
X151512425Y-48137401D01*
X151461762Y-48290143D01*
X151458896Y-48303509D01*
X151449328Y-48396899D01*
X151449000Y-48403314D01*
X151449000Y-48473885D01*
X151000000Y-48473885D01*
X151000000Y-44966310D01*
X151020002Y-44898189D01*
X151073658Y-44851696D01*
X151143932Y-44841592D01*
X151208512Y-44871086D01*
X151215017Y-44877137D01*
X151276192Y-44938205D01*
X151287608Y-44947221D01*
X151424221Y-45031429D01*
X151437402Y-45037576D01*
X151482806Y-45052636D01*
X151496899Y-45053125D01*
X151500000Y-45046914D01*
X151500000Y-45040199D01*
X152500000Y-45040199D01*
X152503973Y-45053730D01*
X152510799Y-45054711D01*
X152563800Y-45037028D01*
X152576964Y-45030862D01*
X152713438Y-44946410D01*
X152724827Y-44937383D01*
X152838209Y-44823803D01*
X152847221Y-44812392D01*
X152931431Y-44675777D01*
X152937575Y-44662599D01*
X152988238Y-44509857D01*
X152991104Y-44496491D01*
X153000672Y-44403101D01*
X153001000Y-44396686D01*
X153001000Y-43368115D01*
X152996525Y-43352876D01*
X152995135Y-43351671D01*
X152987452Y-43350000D01*
X152518115Y-43350000D01*
X152502876Y-43354475D01*
X152501671Y-43355865D01*
X152500000Y-43363548D01*
X152500000Y-45040199D01*
X151500000Y-45040199D01*
X151500000Y-42331885D01*
X152500000Y-42331885D01*
X152504475Y-42347124D01*
X152505865Y-42348329D01*
X152513548Y-42350000D01*
X152982884Y-42350000D01*
X152998123Y-42345525D01*
X152999328Y-42344135D01*
X153000999Y-42336452D01*
X153000999Y-41303365D01*
X153000662Y-41296846D01*
X152990845Y-41202235D01*
X152987953Y-41188841D01*
X152937027Y-41036196D01*
X152930863Y-41023037D01*
X152846410Y-40886562D01*
X152837383Y-40875173D01*
X152723803Y-40761791D01*
X152712392Y-40752779D01*
X152575779Y-40668571D01*
X152562598Y-40662424D01*
X152517194Y-40647364D01*
X152503101Y-40646875D01*
X152500000Y-40653086D01*
X152500000Y-42331885D01*
X151500000Y-42331885D01*
X151500000Y-40645618D01*
X151520002Y-40577497D01*
X151544170Y-40549807D01*
X151610782Y-40492915D01*
X151626773Y-40481296D01*
X151810567Y-40368666D01*
X151828165Y-40359699D01*
X152027317Y-40277208D01*
X152046112Y-40271101D01*
X152255706Y-40220782D01*
X152275232Y-40217689D01*
X152495070Y-40200388D01*
X152504956Y-40200000D01*
X152594493Y-40200000D01*
X152605474Y-40200479D01*
X152658654Y-40205132D01*
X152832129Y-40220309D01*
X152853752Y-40224121D01*
X153019449Y-40268520D01*
X153068180Y-40281577D01*
X153088819Y-40289089D01*
X153290010Y-40382906D01*
X153309031Y-40393888D01*
X153490877Y-40521218D01*
X153507701Y-40535336D01*
X153664664Y-40692299D01*
X153678782Y-40709123D01*
X153806112Y-40890969D01*
X153817094Y-40909990D01*
X153910911Y-41111181D01*
X153918423Y-41131820D01*
X153964389Y-41303365D01*
X153975878Y-41346244D01*
X153979692Y-41367874D01*
X153999521Y-41594526D01*
X154000000Y-41605507D01*
X154000000Y-43000000D01*
X156411286Y-45411286D01*
X156416923Y-45417303D01*
X156581264Y-45604698D01*
X156591297Y-45617774D01*
X156727463Y-45821561D01*
X156735704Y-45835835D01*
X156844106Y-46055653D01*
X156850413Y-46070879D01*
X156929197Y-46302968D01*
X156933463Y-46318889D01*
X156981279Y-46559277D01*
X156983430Y-46575617D01*
X156999730Y-46824308D01*
X157000000Y-46832549D01*
X157000000Y-52495499D01*
X156999679Y-52504487D01*
X156987344Y-52676963D01*
X156980286Y-52775645D01*
X156977728Y-52793433D01*
X156924618Y-53037575D01*
X156920903Y-53054654D01*
X156915840Y-53071900D01*
X156822411Y-53322393D01*
X156814945Y-53338740D01*
X156686824Y-53573375D01*
X156677105Y-53588498D01*
X156516897Y-53802510D01*
X156505124Y-53816096D01*
X156316096Y-54005124D01*
X156302510Y-54016897D01*
X156088498Y-54177105D01*
X156073375Y-54186824D01*
X155838740Y-54314945D01*
X155822393Y-54322411D01*
X155571900Y-54415840D01*
X155554658Y-54420902D01*
X155293433Y-54477728D01*
X155275650Y-54480285D01*
X155053871Y-54496147D01*
X155004487Y-54499679D01*
X154995499Y-54500000D01*
X104004501Y-54500000D01*
X103995513Y-54499679D01*
X103946129Y-54496147D01*
X103724350Y-54480285D01*
X103706567Y-54477728D01*
X103445342Y-54420902D01*
X103428100Y-54415840D01*
X103177607Y-54322411D01*
X103161260Y-54314945D01*
X102926625Y-54186824D01*
X102911502Y-54177105D01*
X102697490Y-54016897D01*
X102683904Y-54005124D01*
X102494876Y-53816096D01*
X102483103Y-53802510D01*
X102322895Y-53588498D01*
X102313176Y-53573375D01*
X102185055Y-53338740D01*
X102177589Y-53322393D01*
X102084160Y-53071900D01*
X102079097Y-53054654D01*
X102075382Y-53037575D01*
X102022272Y-52793433D01*
X102019714Y-52775645D01*
X102012657Y-52676963D01*
X102001345Y-52518799D01*
X103089596Y-52518799D01*
X103137973Y-52663804D01*
X103144137Y-52676963D01*
X103228590Y-52813438D01*
X103237617Y-52824827D01*
X103351197Y-52938209D01*
X103362608Y-52947221D01*
X103499223Y-53031431D01*
X103512401Y-53037575D01*
X103665143Y-53088238D01*
X103678509Y-53091104D01*
X103771899Y-53100672D01*
X103778314Y-53101000D01*
X103923885Y-53101000D01*
X103939124Y-53096525D01*
X103940329Y-53095135D01*
X103942000Y-53087452D01*
X103942000Y-53082884D01*
X104958000Y-53082884D01*
X104962475Y-53098123D01*
X104963865Y-53099328D01*
X104971548Y-53100999D01*
X105121635Y-53100999D01*
X105128154Y-53100662D01*
X105222765Y-53090845D01*
X105236159Y-53087953D01*
X105388804Y-53037027D01*
X105401963Y-53030863D01*
X105538438Y-52946410D01*
X105549827Y-52937383D01*
X105663209Y-52823803D01*
X105672221Y-52812392D01*
X105756431Y-52675777D01*
X105762575Y-52662599D01*
X105808151Y-52525194D01*
X105808640Y-52511101D01*
X105802429Y-52508000D01*
X104976115Y-52508000D01*
X104960876Y-52512475D01*
X104959671Y-52513865D01*
X104958000Y-52521548D01*
X104958000Y-53082884D01*
X103942000Y-53082884D01*
X103942000Y-52526115D01*
X103937525Y-52510876D01*
X103936135Y-52509671D01*
X103928452Y-52508000D01*
X103104108Y-52508000D01*
X103090577Y-52511973D01*
X103089596Y-52518799D01*
X102001345Y-52518799D01*
X102000321Y-52504487D01*
X102000000Y-52495499D01*
X102000000Y-51488899D01*
X103091360Y-51488899D01*
X103097571Y-51492000D01*
X103923885Y-51492000D01*
X103939124Y-51487525D01*
X103940329Y-51486135D01*
X103942000Y-51478452D01*
X103942000Y-51473885D01*
X104958000Y-51473885D01*
X104962475Y-51489124D01*
X104963865Y-51490329D01*
X104971548Y-51492000D01*
X105795892Y-51492000D01*
X105809423Y-51488027D01*
X105810404Y-51481201D01*
X105762027Y-51336196D01*
X105755863Y-51323037D01*
X105671410Y-51186562D01*
X105662383Y-51175173D01*
X105548803Y-51061791D01*
X105537392Y-51052779D01*
X105483677Y-51019669D01*
X105436184Y-50966897D01*
X105424760Y-50896826D01*
X105453034Y-50831702D01*
X105471962Y-50813321D01*
X105483011Y-50804642D01*
X105491657Y-50796409D01*
X105621486Y-50646793D01*
X105628423Y-50637067D01*
X105694018Y-50523681D01*
X105697355Y-50509979D01*
X105696081Y-50508976D01*
X105691031Y-50508000D01*
X104976115Y-50508000D01*
X104960876Y-50512475D01*
X104959671Y-50513865D01*
X104958000Y-50521548D01*
X104958000Y-51473885D01*
X103942000Y-51473885D01*
X103942000Y-50526115D01*
X103937525Y-50510876D01*
X103936135Y-50509671D01*
X103928452Y-50508000D01*
X103214619Y-50508000D01*
X103201088Y-50511973D01*
X103200421Y-50516615D01*
X103213722Y-50545870D01*
X103219674Y-50556221D01*
X103334291Y-50717802D01*
X103342084Y-50726831D01*
X103439500Y-50820086D01*
X103474876Y-50881641D01*
X103471357Y-50952551D01*
X103430060Y-51010301D01*
X103418672Y-51018248D01*
X103361568Y-51053585D01*
X103350173Y-51062617D01*
X103236791Y-51176197D01*
X103227779Y-51187608D01*
X103143569Y-51324223D01*
X103137425Y-51337401D01*
X103091849Y-51474806D01*
X103091360Y-51488899D01*
X102000000Y-51488899D01*
X102000000Y-51004501D01*
X102000321Y-50995513D01*
X102012400Y-50826618D01*
X102019715Y-50724350D01*
X102022272Y-50706567D01*
X102079098Y-50445342D01*
X102084161Y-50428097D01*
X102131692Y-50300662D01*
X102177589Y-50177607D01*
X102185055Y-50161260D01*
X102313176Y-49926625D01*
X102322895Y-49911502D01*
X102483103Y-49697490D01*
X102494876Y-49683904D01*
X102683904Y-49494876D01*
X102697490Y-49483103D01*
X102911502Y-49322895D01*
X102926625Y-49313176D01*
X103078369Y-49230317D01*
X103147743Y-49215225D01*
X103214264Y-49240036D01*
X103256811Y-49296871D01*
X103261876Y-49367687D01*
X103247820Y-49403998D01*
X103205981Y-49476320D01*
X103202645Y-49490021D01*
X103203919Y-49491024D01*
X103208969Y-49492000D01*
X105685381Y-49492000D01*
X105698912Y-49488027D01*
X105699579Y-49483385D01*
X105686278Y-49454130D01*
X105680326Y-49443779D01*
X105565713Y-49282203D01*
X105556494Y-49271524D01*
X105527122Y-49206888D01*
X105537358Y-49136633D01*
X105583951Y-49083064D01*
X105652109Y-49063190D01*
X105676446Y-49065609D01*
X105677986Y-49065915D01*
X105681106Y-49066536D01*
X105697032Y-49070803D01*
X105929121Y-49149587D01*
X105944347Y-49155894D01*
X106164165Y-49264296D01*
X106178439Y-49272537D01*
X106382226Y-49408703D01*
X106395302Y-49418736D01*
X106582697Y-49583077D01*
X106588714Y-49588714D01*
X109000000Y-52000000D01*
X115000000Y-52000000D01*
X115000000Y-49596635D01*
X115449001Y-49596635D01*
X115449338Y-49603154D01*
X115459155Y-49697765D01*
X115462047Y-49711159D01*
X115512973Y-49863804D01*
X115519137Y-49876963D01*
X115603590Y-50013438D01*
X115612617Y-50024827D01*
X115726197Y-50138209D01*
X115737608Y-50147221D01*
X115874223Y-50231431D01*
X115887401Y-50237575D01*
X116040143Y-50288238D01*
X116053509Y-50291104D01*
X116146899Y-50300672D01*
X116153314Y-50301000D01*
X117173885Y-50301000D01*
X117189124Y-50296525D01*
X117190329Y-50295135D01*
X117192000Y-50287452D01*
X117192000Y-50282884D01*
X118208000Y-50282884D01*
X118212475Y-50298123D01*
X118213865Y-50299328D01*
X118221548Y-50300999D01*
X119246635Y-50300999D01*
X119253154Y-50300662D01*
X119347765Y-50290845D01*
X119361159Y-50287953D01*
X119513804Y-50237027D01*
X119526963Y-50230863D01*
X119663438Y-50146410D01*
X119674827Y-50137383D01*
X119788209Y-50023803D01*
X119797221Y-50012392D01*
X119881431Y-49875777D01*
X119887575Y-49862599D01*
X119938238Y-49709857D01*
X119941104Y-49696491D01*
X119950672Y-49603101D01*
X119951000Y-49596686D01*
X119951000Y-49526115D01*
X119946525Y-49510876D01*
X119945135Y-49509671D01*
X119937452Y-49508000D01*
X118226115Y-49508000D01*
X118210876Y-49512475D01*
X118209671Y-49513865D01*
X118208000Y-49521548D01*
X118208000Y-50282884D01*
X117192000Y-50282884D01*
X117192000Y-49526115D01*
X117187525Y-49510876D01*
X117186135Y-49509671D01*
X117178452Y-49508000D01*
X115467116Y-49508000D01*
X115451877Y-49512475D01*
X115450672Y-49513865D01*
X115449001Y-49521548D01*
X115449001Y-49596635D01*
X115000000Y-49596635D01*
X115000000Y-48473885D01*
X115449000Y-48473885D01*
X115453475Y-48489124D01*
X115454865Y-48490329D01*
X115462548Y-48492000D01*
X117173885Y-48492000D01*
X117189124Y-48487525D01*
X117190329Y-48486135D01*
X117192000Y-48478452D01*
X117192000Y-48473885D01*
X118208000Y-48473885D01*
X118212475Y-48489124D01*
X118213865Y-48490329D01*
X118221548Y-48492000D01*
X119932884Y-48492000D01*
X119948123Y-48487525D01*
X119949328Y-48486135D01*
X119950999Y-48478452D01*
X119950999Y-48403365D01*
X119950662Y-48396846D01*
X119940845Y-48302235D01*
X119937953Y-48288841D01*
X119887027Y-48136196D01*
X119880863Y-48123037D01*
X119796410Y-47986562D01*
X119787383Y-47975173D01*
X119673803Y-47861791D01*
X119662392Y-47852779D01*
X119525777Y-47768569D01*
X119512599Y-47762425D01*
X119359857Y-47711762D01*
X119346491Y-47708896D01*
X119253101Y-47699328D01*
X119246686Y-47699000D01*
X118226115Y-47699000D01*
X118210876Y-47703475D01*
X118209671Y-47704865D01*
X118208000Y-47712548D01*
X118208000Y-48473885D01*
X117192000Y-48473885D01*
X117192000Y-47717116D01*
X117187525Y-47701877D01*
X117186135Y-47700672D01*
X117178452Y-47699001D01*
X116153365Y-47699001D01*
X116146846Y-47699338D01*
X116052235Y-47709155D01*
X116038841Y-47712047D01*
X115886196Y-47762973D01*
X115873037Y-47769137D01*
X115736562Y-47853590D01*
X115725173Y-47862617D01*
X115611791Y-47976197D01*
X115602779Y-47987608D01*
X115518569Y-48124223D01*
X115512425Y-48137401D01*
X115461762Y-48290143D01*
X115458896Y-48303509D01*
X115449328Y-48396899D01*
X115449000Y-48403314D01*
X115449000Y-48473885D01*
X115000000Y-48473885D01*
X115000000Y-44966310D01*
X115020002Y-44898189D01*
X115073658Y-44851696D01*
X115143932Y-44841592D01*
X115208512Y-44871086D01*
X115215017Y-44877137D01*
X115276192Y-44938205D01*
X115287608Y-44947221D01*
X115424221Y-45031429D01*
X115437402Y-45037576D01*
X115482806Y-45052636D01*
X115496899Y-45053125D01*
X115500000Y-45046914D01*
X115500000Y-45040199D01*
X116500000Y-45040199D01*
X116503973Y-45053730D01*
X116510799Y-45054711D01*
X116563800Y-45037028D01*
X116576964Y-45030862D01*
X116713438Y-44946410D01*
X116724827Y-44937383D01*
X116838209Y-44823803D01*
X116847221Y-44812392D01*
X116931431Y-44675777D01*
X116937575Y-44662599D01*
X116988238Y-44509857D01*
X116991104Y-44496491D01*
X117000672Y-44403101D01*
X117001000Y-44396686D01*
X117001000Y-43368115D01*
X116996525Y-43352876D01*
X116995135Y-43351671D01*
X116987452Y-43350000D01*
X116518115Y-43350000D01*
X116502876Y-43354475D01*
X116501671Y-43355865D01*
X116500000Y-43363548D01*
X116500000Y-45040199D01*
X115500000Y-45040199D01*
X115500000Y-42331885D01*
X116500000Y-42331885D01*
X116504475Y-42347124D01*
X116505865Y-42348329D01*
X116513548Y-42350000D01*
X116982884Y-42350000D01*
X116998123Y-42345525D01*
X116999328Y-42344135D01*
X117000999Y-42336452D01*
X117000999Y-41303365D01*
X117000662Y-41296846D01*
X116990845Y-41202235D01*
X116987953Y-41188841D01*
X116937027Y-41036196D01*
X116930863Y-41023037D01*
X116846410Y-40886562D01*
X116837383Y-40875173D01*
X116723803Y-40761791D01*
X116712392Y-40752779D01*
X116575779Y-40668571D01*
X116562598Y-40662424D01*
X116517194Y-40647364D01*
X116503101Y-40646875D01*
X116500000Y-40653086D01*
X116500000Y-42331885D01*
X115500000Y-42331885D01*
X115500000Y-40645618D01*
X115520002Y-40577497D01*
X115544170Y-40549807D01*
X115610782Y-40492915D01*
X115626773Y-40481296D01*
X115810567Y-40368666D01*
X115828165Y-40359699D01*
X116027317Y-40277208D01*
X116046112Y-40271101D01*
X116255706Y-40220782D01*
X116275232Y-40217689D01*
X116495070Y-40200388D01*
X116504956Y-40200000D01*
X116594493Y-40200000D01*
X116605474Y-40200479D01*
G37*
%TD.AperFunction*%
%TD*%
M02*
