%TF.GenerationSoftware,KiCad,Pcbnew,6.0.0*%
%TF.CreationDate,2022-01-04T21:54:10+01:00*%
%TF.ProjectId,mini_light_control,6d696e69-5f6c-4696-9768-745f636f6e74,v1.0*%
%TF.SameCoordinates,Original*%
%TF.FileFunction,Soldermask,Bot*%
%TF.FilePolarity,Negative*%
%FSLAX46Y46*%
G04 Gerber Fmt 4.6, Leading zero omitted, Abs format (unit mm)*
G04 Created by KiCad (PCBNEW 6.0.0) date 2022-01-04 21:54:10*
%MOMM*%
%LPD*%
G01*
G04 APERTURE LIST*
G04 Aperture macros list*
%AMRoundRect*
0 Rectangle with rounded corners*
0 $1 Rounding radius*
0 $2 $3 $4 $5 $6 $7 $8 $9 X,Y pos of 4 corners*
0 Add a 4 corners polygon primitive as box body*
4,1,4,$2,$3,$4,$5,$6,$7,$8,$9,$2,$3,0*
0 Add four circle primitives for the rounded corners*
1,1,$1+$1,$2,$3*
1,1,$1+$1,$4,$5*
1,1,$1+$1,$6,$7*
1,1,$1+$1,$8,$9*
0 Add four rect primitives between the rounded corners*
20,1,$1+$1,$2,$3,$4,$5,0*
20,1,$1+$1,$4,$5,$6,$7,0*
20,1,$1+$1,$6,$7,$8,$9,0*
20,1,$1+$1,$8,$9,$2,$3,0*%
G04 Aperture macros list end*
%ADD10RoundRect,0.250000X-0.350000X-0.625000X0.350000X-0.625000X0.350000X0.625000X-0.350000X0.625000X0*%
%ADD11O,1.200000X1.750000*%
%ADD12C,3.200000*%
%ADD13O,1.750000X1.200000*%
%ADD14RoundRect,0.250000X-0.625000X0.350000X-0.625000X-0.350000X0.625000X-0.350000X0.625000X0.350000X0*%
%ADD15RoundRect,0.150000X0.825000X0.150000X-0.825000X0.150000X-0.825000X-0.150000X0.825000X-0.150000X0*%
%ADD16RoundRect,0.160000X0.160000X-0.197500X0.160000X0.197500X-0.160000X0.197500X-0.160000X-0.197500X0*%
%ADD17RoundRect,0.160000X-0.160000X0.197500X-0.160000X-0.197500X0.160000X-0.197500X0.160000X0.197500X0*%
%ADD18RoundRect,0.160000X-0.197500X-0.160000X0.197500X-0.160000X0.197500X0.160000X-0.197500X0.160000X0*%
%ADD19RoundRect,0.155000X-0.155000X0.212500X-0.155000X-0.212500X0.155000X-0.212500X0.155000X0.212500X0*%
%ADD20RoundRect,0.155000X-0.212500X-0.155000X0.212500X-0.155000X0.212500X0.155000X-0.212500X0.155000X0*%
%ADD21RoundRect,0.155000X0.212500X0.155000X-0.212500X0.155000X-0.212500X-0.155000X0.212500X-0.155000X0*%
%ADD22RoundRect,0.237500X-0.300000X-0.237500X0.300000X-0.237500X0.300000X0.237500X-0.300000X0.237500X0*%
%ADD23RoundRect,0.150000X-0.150000X0.512500X-0.150000X-0.512500X0.150000X-0.512500X0.150000X0.512500X0*%
%ADD24RoundRect,0.250000X-0.337500X-0.475000X0.337500X-0.475000X0.337500X0.475000X-0.337500X0.475000X0*%
%ADD25R,1.200000X1.200000*%
G04 APERTURE END LIST*
D10*
%TO.C,J7*%
X149000000Y-59000000D03*
D11*
X151000000Y-59000000D03*
%TD*%
D12*
%TO.C,H1*%
X159500000Y-59000000D03*
%TD*%
%TO.C,H4*%
X159500000Y-39000000D03*
%TD*%
D10*
%TO.C,J3*%
X124968000Y-59000000D03*
D11*
X126968000Y-59000000D03*
%TD*%
D12*
%TO.C,H3*%
X104500000Y-39000000D03*
%TD*%
D10*
%TO.C,J6*%
X137000000Y-59000000D03*
D11*
X139000000Y-59000000D03*
%TD*%
D10*
%TO.C,J2*%
X113046000Y-59000000D03*
D11*
X115046000Y-59000000D03*
%TD*%
D12*
%TO.C,H2*%
X104500000Y-59000000D03*
%TD*%
D13*
%TO.C,J1*%
X106000000Y-50000000D03*
D14*
X106000000Y-48000000D03*
%TD*%
D15*
%TO.C,U3*%
X142775000Y-42795000D03*
X142775000Y-44065000D03*
X142775000Y-45335000D03*
X142775000Y-46605000D03*
X137825000Y-46605000D03*
X137825000Y-45335000D03*
X137825000Y-44065000D03*
X137825000Y-42795000D03*
%TD*%
D16*
%TO.C,R4*%
X121700000Y-46497500D03*
X121700000Y-45302500D03*
%TD*%
D17*
%TO.C,R1*%
X111400000Y-58302500D03*
X111400000Y-59497500D03*
%TD*%
%TO.C,R7*%
X135400000Y-58302500D03*
X135400000Y-59497500D03*
%TD*%
D18*
%TO.C,R8*%
X136602500Y-49100000D03*
X137797500Y-49100000D03*
%TD*%
D16*
%TO.C,R10*%
X145700000Y-46597500D03*
X145700000Y-45402500D03*
%TD*%
%TO.C,R6*%
X120600000Y-43997500D03*
X120600000Y-42802500D03*
%TD*%
D19*
%TO.C,C10*%
X144600000Y-45432500D03*
X144600000Y-46567500D03*
%TD*%
D20*
%TO.C,C11*%
X138432500Y-41400000D03*
X139567500Y-41400000D03*
%TD*%
D21*
%TO.C,C9*%
X137767500Y-48000000D03*
X136632500Y-48000000D03*
%TD*%
D22*
%TO.C,C8*%
X108487502Y-56937501D03*
X110212502Y-56937501D03*
%TD*%
D19*
%TO.C,C3*%
X120600000Y-45332500D03*
X120600000Y-46467500D03*
%TD*%
D16*
%TO.C,R11*%
X136000000Y-45297500D03*
X136000000Y-44102500D03*
%TD*%
D20*
%TO.C,C4*%
X114432500Y-41400000D03*
X115567500Y-41400000D03*
%TD*%
D15*
%TO.C,U1*%
X118775000Y-42795000D03*
X118775000Y-44065000D03*
X118775000Y-45335000D03*
X118775000Y-46605000D03*
X113825000Y-46605000D03*
X113825000Y-45335000D03*
X113825000Y-44065000D03*
X113825000Y-42795000D03*
%TD*%
D16*
%TO.C,R12*%
X144600000Y-43997500D03*
X144600000Y-42802500D03*
%TD*%
D18*
%TO.C,R2*%
X112602500Y-49100000D03*
X113797500Y-49100000D03*
%TD*%
D17*
%TO.C,R3*%
X123400000Y-58302500D03*
X123400000Y-59497500D03*
%TD*%
%TO.C,R9*%
X147400000Y-58302500D03*
X147400000Y-59497500D03*
%TD*%
D23*
%TO.C,U2*%
X108350000Y-52862500D03*
X109300000Y-52862500D03*
X110250000Y-52862500D03*
X110250000Y-55137500D03*
X108350000Y-55137500D03*
%TD*%
D21*
%TO.C,C2*%
X113767500Y-48000000D03*
X112632500Y-48000000D03*
%TD*%
D24*
%TO.C,C5*%
X108362500Y-50900000D03*
X110437500Y-50900000D03*
%TD*%
D25*
%TO.C,D1*%
X106300000Y-52000000D03*
X106300000Y-54800000D03*
%TD*%
D16*
%TO.C,R5*%
X112000000Y-45297500D03*
X112000000Y-44102500D03*
%TD*%
M02*
