%TF.GenerationSoftware,KiCad,Pcbnew,(5.99.0-12650-g5c402a64ab)*%
%TF.CreationDate,2021-10-05T22:34:51+02:00*%
%TF.ProjectId,mini_light_control,6d696e69-5f6c-4696-9768-745f636f6e74,v1.0*%
%TF.SameCoordinates,Original*%
%TF.FileFunction,Legend,Top*%
%TF.FilePolarity,Positive*%
%FSLAX46Y46*%
G04 Gerber Fmt 4.6, Leading zero omitted, Abs format (unit mm)*
G04 Created by KiCad (PCBNEW (5.99.0-12650-g5c402a64ab)) date 2021-10-05 22:34:51*
%MOMM*%
%LPD*%
G01*
G04 APERTURE LIST*
%ADD10C,0.153000*%
%ADD11C,0.150000*%
%ADD12C,0.120000*%
G04 APERTURE END LIST*
D10*
X112521428Y-55407142D02*
X112521428Y-54507142D01*
X112864285Y-54507142D01*
X112950000Y-54550000D01*
X112992857Y-54592857D01*
X113035714Y-54678571D01*
X113035714Y-54807142D01*
X112992857Y-54892857D01*
X112950000Y-54935714D01*
X112864285Y-54978571D01*
X112521428Y-54978571D01*
X113592857Y-54507142D02*
X113764285Y-54507142D01*
X113850000Y-54550000D01*
X113935714Y-54635714D01*
X113978571Y-54807142D01*
X113978571Y-55107142D01*
X113935714Y-55278571D01*
X113850000Y-55364285D01*
X113764285Y-55407142D01*
X113592857Y-55407142D01*
X113507142Y-55364285D01*
X113421428Y-55278571D01*
X113378571Y-55107142D01*
X113378571Y-54807142D01*
X113421428Y-54635714D01*
X113507142Y-54550000D01*
X113592857Y-54507142D01*
X114235714Y-54507142D02*
X114750000Y-54507142D01*
X114492857Y-55407142D02*
X114492857Y-54507142D01*
X115521428Y-55407142D02*
X115007142Y-55407142D01*
X115264285Y-55407142D02*
X115264285Y-54507142D01*
X115178571Y-54635714D01*
X115092857Y-54721428D01*
X115007142Y-54764285D01*
X120957142Y-47392307D02*
X120957142Y-47220878D01*
X121000000Y-47135164D01*
X121085714Y-47049450D01*
X121257142Y-47006592D01*
X121557142Y-47006592D01*
X121728571Y-47049450D01*
X121814285Y-47135164D01*
X121857142Y-47220878D01*
X121857142Y-47392307D01*
X121814285Y-47478021D01*
X121728571Y-47563735D01*
X121557142Y-47606592D01*
X121257142Y-47606592D01*
X121085714Y-47563735D01*
X121000000Y-47478021D01*
X120957142Y-47392307D01*
X120957142Y-46620878D02*
X121685714Y-46620878D01*
X121771428Y-46578021D01*
X121814285Y-46535164D01*
X121857142Y-46449450D01*
X121857142Y-46278021D01*
X121814285Y-46192307D01*
X121771428Y-46149450D01*
X121685714Y-46106592D01*
X120957142Y-46106592D01*
X120957142Y-45806592D02*
X120957142Y-45292307D01*
X121857142Y-45549450D02*
X120957142Y-45549450D01*
X121042857Y-45035164D02*
X121000000Y-44992307D01*
X120957142Y-44906592D01*
X120957142Y-44692307D01*
X121000000Y-44606592D01*
X121042857Y-44563735D01*
X121128571Y-44520878D01*
X121214285Y-44520878D01*
X121342857Y-44563735D01*
X121857142Y-45078021D01*
X121857142Y-44520878D01*
X101564285Y-52585714D02*
X101564285Y-51900000D01*
X101907142Y-52242857D02*
X101221428Y-52242857D01*
X101907142Y-51000000D02*
X101907142Y-51514285D01*
X101907142Y-51257142D02*
X101007142Y-51257142D01*
X101135714Y-51342857D01*
X101221428Y-51428571D01*
X101264285Y-51514285D01*
X101092857Y-50657142D02*
X101050000Y-50614285D01*
X101007142Y-50528571D01*
X101007142Y-50314285D01*
X101050000Y-50228571D01*
X101092857Y-50185714D01*
X101178571Y-50142857D01*
X101264285Y-50142857D01*
X101392857Y-50185714D01*
X101907142Y-50700000D01*
X101907142Y-50142857D01*
X101007142Y-49885714D02*
X101907142Y-49585714D01*
X101007142Y-49285714D01*
X101050000Y-47685714D02*
X101007142Y-47771428D01*
X101007142Y-47900000D01*
X101050000Y-48028571D01*
X101135714Y-48114285D01*
X101221428Y-48157142D01*
X101392857Y-48200000D01*
X101521428Y-48200000D01*
X101692857Y-48157142D01*
X101778571Y-48114285D01*
X101864285Y-48028571D01*
X101907142Y-47900000D01*
X101907142Y-47814285D01*
X101864285Y-47685714D01*
X101821428Y-47642857D01*
X101521428Y-47642857D01*
X101521428Y-47814285D01*
X101907142Y-47257142D02*
X101007142Y-47257142D01*
X101907142Y-46742857D01*
X101007142Y-46742857D01*
X101907142Y-46314285D02*
X101007142Y-46314285D01*
X101007142Y-46100000D01*
X101050000Y-45971428D01*
X101135714Y-45885714D01*
X101221428Y-45842857D01*
X101392857Y-45800000D01*
X101521428Y-45800000D01*
X101692857Y-45842857D01*
X101778571Y-45885714D01*
X101864285Y-45971428D01*
X101907142Y-46100000D01*
X101907142Y-46314285D01*
X136521428Y-55407142D02*
X136521428Y-54507142D01*
X136864285Y-54507142D01*
X136950000Y-54550000D01*
X136992857Y-54592857D01*
X137035714Y-54678571D01*
X137035714Y-54807142D01*
X136992857Y-54892857D01*
X136950000Y-54935714D01*
X136864285Y-54978571D01*
X136521428Y-54978571D01*
X137592857Y-54507142D02*
X137764285Y-54507142D01*
X137850000Y-54550000D01*
X137935714Y-54635714D01*
X137978571Y-54807142D01*
X137978571Y-55107142D01*
X137935714Y-55278571D01*
X137850000Y-55364285D01*
X137764285Y-55407142D01*
X137592857Y-55407142D01*
X137507142Y-55364285D01*
X137421428Y-55278571D01*
X137378571Y-55107142D01*
X137378571Y-54807142D01*
X137421428Y-54635714D01*
X137507142Y-54550000D01*
X137592857Y-54507142D01*
X138235714Y-54507142D02*
X138750000Y-54507142D01*
X138492857Y-55407142D02*
X138492857Y-54507142D01*
X138964285Y-54507142D02*
X139521428Y-54507142D01*
X139221428Y-54850000D01*
X139350000Y-54850000D01*
X139435714Y-54892857D01*
X139478571Y-54935714D01*
X139521428Y-55021428D01*
X139521428Y-55235714D01*
X139478571Y-55321428D01*
X139435714Y-55364285D01*
X139350000Y-55407142D01*
X139092857Y-55407142D01*
X139007142Y-55364285D01*
X138964285Y-55321428D01*
X124521428Y-55407142D02*
X124521428Y-54507142D01*
X124864285Y-54507142D01*
X124950000Y-54550000D01*
X124992857Y-54592857D01*
X125035714Y-54678571D01*
X125035714Y-54807142D01*
X124992857Y-54892857D01*
X124950000Y-54935714D01*
X124864285Y-54978571D01*
X124521428Y-54978571D01*
X125592857Y-54507142D02*
X125764285Y-54507142D01*
X125850000Y-54550000D01*
X125935714Y-54635714D01*
X125978571Y-54807142D01*
X125978571Y-55107142D01*
X125935714Y-55278571D01*
X125850000Y-55364285D01*
X125764285Y-55407142D01*
X125592857Y-55407142D01*
X125507142Y-55364285D01*
X125421428Y-55278571D01*
X125378571Y-55107142D01*
X125378571Y-54807142D01*
X125421428Y-54635714D01*
X125507142Y-54550000D01*
X125592857Y-54507142D01*
X126235714Y-54507142D02*
X126750000Y-54507142D01*
X126492857Y-55407142D02*
X126492857Y-54507142D01*
X127007142Y-54592857D02*
X127050000Y-54550000D01*
X127135714Y-54507142D01*
X127350000Y-54507142D01*
X127435714Y-54550000D01*
X127478571Y-54592857D01*
X127521428Y-54678571D01*
X127521428Y-54764285D01*
X127478571Y-54892857D01*
X126964285Y-55407142D01*
X127521428Y-55407142D01*
X144957142Y-47392307D02*
X144957142Y-47220878D01*
X145000000Y-47135164D01*
X145085714Y-47049450D01*
X145257142Y-47006592D01*
X145557142Y-47006592D01*
X145728571Y-47049450D01*
X145814285Y-47135164D01*
X145857142Y-47220878D01*
X145857142Y-47392307D01*
X145814285Y-47478021D01*
X145728571Y-47563735D01*
X145557142Y-47606592D01*
X145257142Y-47606592D01*
X145085714Y-47563735D01*
X145000000Y-47478021D01*
X144957142Y-47392307D01*
X144957142Y-46620878D02*
X145685714Y-46620878D01*
X145771428Y-46578021D01*
X145814285Y-46535164D01*
X145857142Y-46449450D01*
X145857142Y-46278021D01*
X145814285Y-46192307D01*
X145771428Y-46149450D01*
X145685714Y-46106592D01*
X144957142Y-46106592D01*
X144957142Y-45806592D02*
X144957142Y-45292307D01*
X145857142Y-45549450D02*
X144957142Y-45549450D01*
X145257142Y-44606592D02*
X145857142Y-44606592D01*
X144914285Y-44820878D02*
X145557142Y-45035164D01*
X145557142Y-44478021D01*
X148521428Y-55407142D02*
X148521428Y-54507142D01*
X148864285Y-54507142D01*
X148950000Y-54550000D01*
X148992857Y-54592857D01*
X149035714Y-54678571D01*
X149035714Y-54807142D01*
X148992857Y-54892857D01*
X148950000Y-54935714D01*
X148864285Y-54978571D01*
X148521428Y-54978571D01*
X149592857Y-54507142D02*
X149764285Y-54507142D01*
X149850000Y-54550000D01*
X149935714Y-54635714D01*
X149978571Y-54807142D01*
X149978571Y-55107142D01*
X149935714Y-55278571D01*
X149850000Y-55364285D01*
X149764285Y-55407142D01*
X149592857Y-55407142D01*
X149507142Y-55364285D01*
X149421428Y-55278571D01*
X149378571Y-55107142D01*
X149378571Y-54807142D01*
X149421428Y-54635714D01*
X149507142Y-54550000D01*
X149592857Y-54507142D01*
X150235714Y-54507142D02*
X150750000Y-54507142D01*
X150492857Y-55407142D02*
X150492857Y-54507142D01*
X151435714Y-54807142D02*
X151435714Y-55407142D01*
X151221428Y-54464285D02*
X151007142Y-55107142D01*
X151564285Y-55107142D01*
X132957142Y-47392307D02*
X132957142Y-47220878D01*
X133000000Y-47135164D01*
X133085714Y-47049450D01*
X133257142Y-47006592D01*
X133557142Y-47006592D01*
X133728571Y-47049450D01*
X133814285Y-47135164D01*
X133857142Y-47220878D01*
X133857142Y-47392307D01*
X133814285Y-47478021D01*
X133728571Y-47563735D01*
X133557142Y-47606592D01*
X133257142Y-47606592D01*
X133085714Y-47563735D01*
X133000000Y-47478021D01*
X132957142Y-47392307D01*
X132957142Y-46620878D02*
X133685714Y-46620878D01*
X133771428Y-46578021D01*
X133814285Y-46535164D01*
X133857142Y-46449450D01*
X133857142Y-46278021D01*
X133814285Y-46192307D01*
X133771428Y-46149450D01*
X133685714Y-46106592D01*
X132957142Y-46106592D01*
X132957142Y-45806592D02*
X132957142Y-45292307D01*
X133857142Y-45549450D02*
X132957142Y-45549450D01*
X132957142Y-45078021D02*
X132957142Y-44520878D01*
X133300000Y-44820878D01*
X133300000Y-44692307D01*
X133342857Y-44606592D01*
X133385714Y-44563735D01*
X133471428Y-44520878D01*
X133685714Y-44520878D01*
X133771428Y-44563735D01*
X133814285Y-44606592D01*
X133857142Y-44692307D01*
X133857142Y-44949450D01*
X133814285Y-45035164D01*
X133771428Y-45078021D01*
X158458142Y-54914285D02*
X157558142Y-54914285D01*
X158201000Y-54614285D01*
X157558142Y-54314285D01*
X158458142Y-54314285D01*
X158458142Y-53885714D02*
X157858142Y-53885714D01*
X157558142Y-53885714D02*
X157601000Y-53928571D01*
X157643857Y-53885714D01*
X157601000Y-53842857D01*
X157558142Y-53885714D01*
X157643857Y-53885714D01*
X157858142Y-53457142D02*
X158458142Y-53457142D01*
X157943857Y-53457142D02*
X157901000Y-53414285D01*
X157858142Y-53328571D01*
X157858142Y-53200000D01*
X157901000Y-53114285D01*
X157986714Y-53071428D01*
X158458142Y-53071428D01*
X158458142Y-52642857D02*
X157858142Y-52642857D01*
X157558142Y-52642857D02*
X157601000Y-52685714D01*
X157643857Y-52642857D01*
X157601000Y-52600000D01*
X157558142Y-52642857D01*
X157643857Y-52642857D01*
X158458142Y-51100000D02*
X158458142Y-51528571D01*
X157558142Y-51528571D01*
X158458142Y-50800000D02*
X157858142Y-50800000D01*
X157558142Y-50800000D02*
X157601000Y-50842857D01*
X157643857Y-50800000D01*
X157601000Y-50757142D01*
X157558142Y-50800000D01*
X157643857Y-50800000D01*
X157858142Y-49985714D02*
X158586714Y-49985714D01*
X158672428Y-50028571D01*
X158715285Y-50071428D01*
X158758142Y-50157142D01*
X158758142Y-50285714D01*
X158715285Y-50371428D01*
X158415285Y-49985714D02*
X158458142Y-50071428D01*
X158458142Y-50242857D01*
X158415285Y-50328571D01*
X158372428Y-50371428D01*
X158286714Y-50414285D01*
X158029571Y-50414285D01*
X157943857Y-50371428D01*
X157901000Y-50328571D01*
X157858142Y-50242857D01*
X157858142Y-50071428D01*
X157901000Y-49985714D01*
X158458142Y-49557142D02*
X157558142Y-49557142D01*
X158458142Y-49171428D02*
X157986714Y-49171428D01*
X157901000Y-49214285D01*
X157858142Y-49300000D01*
X157858142Y-49428571D01*
X157901000Y-49514285D01*
X157943857Y-49557142D01*
X157858142Y-48871428D02*
X157858142Y-48528571D01*
X157558142Y-48742857D02*
X158329571Y-48742857D01*
X158415285Y-48700000D01*
X158458142Y-48614285D01*
X158458142Y-48528571D01*
X158372428Y-47028571D02*
X158415285Y-47071428D01*
X158458142Y-47200000D01*
X158458142Y-47285714D01*
X158415285Y-47414285D01*
X158329571Y-47500000D01*
X158243857Y-47542857D01*
X158072428Y-47585714D01*
X157943857Y-47585714D01*
X157772428Y-47542857D01*
X157686714Y-47500000D01*
X157601000Y-47414285D01*
X157558142Y-47285714D01*
X157558142Y-47200000D01*
X157601000Y-47071428D01*
X157643857Y-47028571D01*
X158458142Y-46514285D02*
X158415285Y-46600000D01*
X158372428Y-46642857D01*
X158286714Y-46685714D01*
X158029571Y-46685714D01*
X157943857Y-46642857D01*
X157901000Y-46600000D01*
X157858142Y-46514285D01*
X157858142Y-46385714D01*
X157901000Y-46300000D01*
X157943857Y-46257142D01*
X158029571Y-46214285D01*
X158286714Y-46214285D01*
X158372428Y-46257142D01*
X158415285Y-46300000D01*
X158458142Y-46385714D01*
X158458142Y-46514285D01*
X157858142Y-45828571D02*
X158458142Y-45828571D01*
X157943857Y-45828571D02*
X157901000Y-45785714D01*
X157858142Y-45700000D01*
X157858142Y-45571428D01*
X157901000Y-45485714D01*
X157986714Y-45442857D01*
X158458142Y-45442857D01*
X157858142Y-45142857D02*
X157858142Y-44800000D01*
X157558142Y-45014285D02*
X158329571Y-45014285D01*
X158415285Y-44971428D01*
X158458142Y-44885714D01*
X158458142Y-44800000D01*
X158458142Y-44500000D02*
X157858142Y-44500000D01*
X158029571Y-44500000D02*
X157943857Y-44457142D01*
X157901000Y-44414285D01*
X157858142Y-44328571D01*
X157858142Y-44242857D01*
X158458142Y-43814285D02*
X158415285Y-43900000D01*
X158372428Y-43942857D01*
X158286714Y-43985714D01*
X158029571Y-43985714D01*
X157943857Y-43942857D01*
X157901000Y-43900000D01*
X157858142Y-43814285D01*
X157858142Y-43685714D01*
X157901000Y-43600000D01*
X157943857Y-43557142D01*
X158029571Y-43514285D01*
X158286714Y-43514285D01*
X158372428Y-43557142D01*
X158415285Y-43600000D01*
X158458142Y-43685714D01*
X158458142Y-43814285D01*
X158458142Y-43000000D02*
X158415285Y-43085714D01*
X158329571Y-43128571D01*
X157558142Y-43128571D01*
X159435714Y-53371428D02*
X159478571Y-53242857D01*
X159521428Y-53200000D01*
X159607142Y-53157142D01*
X159735714Y-53157142D01*
X159821428Y-53200000D01*
X159864285Y-53242857D01*
X159907142Y-53328571D01*
X159907142Y-53671428D01*
X159007142Y-53671428D01*
X159007142Y-53371428D01*
X159050000Y-53285714D01*
X159092857Y-53242857D01*
X159178571Y-53200000D01*
X159264285Y-53200000D01*
X159350000Y-53242857D01*
X159392857Y-53285714D01*
X159435714Y-53371428D01*
X159435714Y-53671428D01*
X159307142Y-52857142D02*
X159907142Y-52642857D01*
X159307142Y-52428571D02*
X159907142Y-52642857D01*
X160121428Y-52728571D01*
X160164285Y-52771428D01*
X160207142Y-52857142D01*
X159650000Y-51442857D02*
X159650000Y-51014285D01*
X159907142Y-51528571D02*
X159007142Y-51228571D01*
X159907142Y-50928571D01*
X159307142Y-50628571D02*
X159907142Y-50628571D01*
X159392857Y-50628571D02*
X159350000Y-50585714D01*
X159307142Y-50500000D01*
X159307142Y-50371428D01*
X159350000Y-50285714D01*
X159435714Y-50242857D01*
X159907142Y-50242857D01*
X159307142Y-49942857D02*
X159307142Y-49600000D01*
X159007142Y-49814285D02*
X159778571Y-49814285D01*
X159864285Y-49771428D01*
X159907142Y-49685714D01*
X159907142Y-49600000D01*
X159907142Y-49171428D02*
X159864285Y-49257142D01*
X159821428Y-49300000D01*
X159735714Y-49342857D01*
X159478571Y-49342857D01*
X159392857Y-49300000D01*
X159350000Y-49257142D01*
X159307142Y-49171428D01*
X159307142Y-49042857D01*
X159350000Y-48957142D01*
X159392857Y-48914285D01*
X159478571Y-48871428D01*
X159735714Y-48871428D01*
X159821428Y-48914285D01*
X159864285Y-48957142D01*
X159907142Y-49042857D01*
X159907142Y-49171428D01*
X159907142Y-48485714D02*
X159307142Y-48485714D01*
X159007142Y-48485714D02*
X159050000Y-48528571D01*
X159092857Y-48485714D01*
X159050000Y-48442857D01*
X159007142Y-48485714D01*
X159092857Y-48485714D01*
X159307142Y-48057142D02*
X159907142Y-48057142D01*
X159392857Y-48057142D02*
X159350000Y-48014285D01*
X159307142Y-47928571D01*
X159307142Y-47800000D01*
X159350000Y-47714285D01*
X159435714Y-47671428D01*
X159907142Y-47671428D01*
X159864285Y-46900000D02*
X159907142Y-46985714D01*
X159907142Y-47157142D01*
X159864285Y-47242857D01*
X159778571Y-47285714D01*
X159435714Y-47285714D01*
X159350000Y-47242857D01*
X159307142Y-47157142D01*
X159307142Y-46985714D01*
X159350000Y-46900000D01*
X159435714Y-46857142D01*
X159521428Y-46857142D01*
X159607142Y-47285714D01*
X159907142Y-46000000D02*
X159907142Y-46514285D01*
X159907142Y-46257142D02*
X159007142Y-46257142D01*
X159135714Y-46342857D01*
X159221428Y-46428571D01*
X159264285Y-46514285D01*
X159007142Y-45228571D02*
X159007142Y-45400000D01*
X159050000Y-45485714D01*
X159092857Y-45528571D01*
X159221428Y-45614285D01*
X159392857Y-45657142D01*
X159735714Y-45657142D01*
X159821428Y-45614285D01*
X159864285Y-45571428D01*
X159907142Y-45485714D01*
X159907142Y-45314285D01*
X159864285Y-45228571D01*
X159821428Y-45185714D01*
X159735714Y-45142857D01*
X159521428Y-45142857D01*
X159435714Y-45185714D01*
X159392857Y-45228571D01*
X159350000Y-45314285D01*
X159350000Y-45485714D01*
X159392857Y-45571428D01*
X159435714Y-45614285D01*
X159521428Y-45657142D01*
X159007142Y-44842857D02*
X159007142Y-44285714D01*
X159350000Y-44585714D01*
X159350000Y-44457142D01*
X159392857Y-44371428D01*
X159435714Y-44328571D01*
X159521428Y-44285714D01*
X159735714Y-44285714D01*
X159821428Y-44328571D01*
X159864285Y-44371428D01*
X159907142Y-44457142D01*
X159907142Y-44714285D01*
X159864285Y-44800000D01*
X159821428Y-44842857D01*
X160756142Y-53671428D02*
X161356142Y-53457142D01*
X160756142Y-53242857D01*
X161356142Y-52428571D02*
X161356142Y-52942857D01*
X161356142Y-52685714D02*
X160456142Y-52685714D01*
X160584714Y-52771428D01*
X160670428Y-52857142D01*
X160713285Y-52942857D01*
X161270428Y-52042857D02*
X161313285Y-52000000D01*
X161356142Y-52042857D01*
X161313285Y-52085714D01*
X161270428Y-52042857D01*
X161356142Y-52042857D01*
X160456142Y-51442857D02*
X160456142Y-51357142D01*
X160499000Y-51271428D01*
X160541857Y-51228571D01*
X160627571Y-51185714D01*
X160799000Y-51142857D01*
X161013285Y-51142857D01*
X161184714Y-51185714D01*
X161270428Y-51228571D01*
X161313285Y-51271428D01*
X161356142Y-51357142D01*
X161356142Y-51442857D01*
X161313285Y-51528571D01*
X161270428Y-51571428D01*
X161184714Y-51614285D01*
X161013285Y-51657142D01*
X160799000Y-51657142D01*
X160627571Y-51614285D01*
X160541857Y-51571428D01*
X160499000Y-51528571D01*
X160456142Y-51442857D01*
X161356142Y-49600000D02*
X161356142Y-50114285D01*
X161356142Y-49857142D02*
X160456142Y-49857142D01*
X160584714Y-49942857D01*
X160670428Y-50028571D01*
X160713285Y-50114285D01*
X160456142Y-49042857D02*
X160456142Y-48957142D01*
X160499000Y-48871428D01*
X160541857Y-48828571D01*
X160627571Y-48785714D01*
X160799000Y-48742857D01*
X161013285Y-48742857D01*
X161184714Y-48785714D01*
X161270428Y-48828571D01*
X161313285Y-48871428D01*
X161356142Y-48957142D01*
X161356142Y-49042857D01*
X161313285Y-49128571D01*
X161270428Y-49171428D01*
X161184714Y-49214285D01*
X161013285Y-49257142D01*
X160799000Y-49257142D01*
X160627571Y-49214285D01*
X160541857Y-49171428D01*
X160499000Y-49128571D01*
X160456142Y-49042857D01*
X160413285Y-47714285D02*
X161570428Y-48485714D01*
X160541857Y-47457142D02*
X160499000Y-47414285D01*
X160456142Y-47328571D01*
X160456142Y-47114285D01*
X160499000Y-47028571D01*
X160541857Y-46985714D01*
X160627571Y-46942857D01*
X160713285Y-46942857D01*
X160841857Y-46985714D01*
X161356142Y-47500000D01*
X161356142Y-46942857D01*
X160456142Y-46385714D02*
X160456142Y-46300000D01*
X160499000Y-46214285D01*
X160541857Y-46171428D01*
X160627571Y-46128571D01*
X160799000Y-46085714D01*
X161013285Y-46085714D01*
X161184714Y-46128571D01*
X161270428Y-46171428D01*
X161313285Y-46214285D01*
X161356142Y-46300000D01*
X161356142Y-46385714D01*
X161313285Y-46471428D01*
X161270428Y-46514285D01*
X161184714Y-46557142D01*
X161013285Y-46600000D01*
X160799000Y-46600000D01*
X160627571Y-46557142D01*
X160541857Y-46514285D01*
X160499000Y-46471428D01*
X160456142Y-46385714D01*
X160541857Y-45742857D02*
X160499000Y-45700000D01*
X160456142Y-45614285D01*
X160456142Y-45400000D01*
X160499000Y-45314285D01*
X160541857Y-45271428D01*
X160627571Y-45228571D01*
X160713285Y-45228571D01*
X160841857Y-45271428D01*
X161356142Y-45785714D01*
X161356142Y-45228571D01*
X161356142Y-44371428D02*
X161356142Y-44885714D01*
X161356142Y-44628571D02*
X160456142Y-44628571D01*
X160584714Y-44714285D01*
X160670428Y-44800000D01*
X160713285Y-44885714D01*
X108957142Y-47392307D02*
X108957142Y-47220878D01*
X109000000Y-47135164D01*
X109085714Y-47049450D01*
X109257142Y-47006592D01*
X109557142Y-47006592D01*
X109728571Y-47049450D01*
X109814285Y-47135164D01*
X109857142Y-47220878D01*
X109857142Y-47392307D01*
X109814285Y-47478021D01*
X109728571Y-47563735D01*
X109557142Y-47606592D01*
X109257142Y-47606592D01*
X109085714Y-47563735D01*
X109000000Y-47478021D01*
X108957142Y-47392307D01*
X108957142Y-46620878D02*
X109685714Y-46620878D01*
X109771428Y-46578021D01*
X109814285Y-46535164D01*
X109857142Y-46449450D01*
X109857142Y-46278021D01*
X109814285Y-46192307D01*
X109771428Y-46149450D01*
X109685714Y-46106592D01*
X108957142Y-46106592D01*
X108957142Y-45806592D02*
X108957142Y-45292307D01*
X109857142Y-45549450D02*
X108957142Y-45549450D01*
X109857142Y-44520878D02*
X109857142Y-45035164D01*
X109857142Y-44778021D02*
X108957142Y-44778021D01*
X109085714Y-44863735D01*
X109171428Y-44949450D01*
X109214285Y-45035164D01*
D11*
%TO.C,C12*%
X136857142Y-51857142D02*
X136809523Y-51904761D01*
X136666666Y-51952380D01*
X136571428Y-51952380D01*
X136428571Y-51904761D01*
X136333333Y-51809523D01*
X136285714Y-51714285D01*
X136238095Y-51523809D01*
X136238095Y-51380952D01*
X136285714Y-51190476D01*
X136333333Y-51095238D01*
X136428571Y-51000000D01*
X136571428Y-50952380D01*
X136666666Y-50952380D01*
X136809523Y-51000000D01*
X136857142Y-51047619D01*
X137809523Y-51952380D02*
X137238095Y-51952380D01*
X137523809Y-51952380D02*
X137523809Y-50952380D01*
X137428571Y-51095238D01*
X137333333Y-51190476D01*
X137238095Y-51238095D01*
X138190476Y-51047619D02*
X138238095Y-51000000D01*
X138333333Y-50952380D01*
X138571428Y-50952380D01*
X138666666Y-51000000D01*
X138714285Y-51047619D01*
X138761904Y-51142857D01*
X138761904Y-51238095D01*
X138714285Y-51380952D01*
X138142857Y-51952380D01*
X138761904Y-51952380D01*
%TO.C,C13*%
X148857142Y-51857142D02*
X148809523Y-51904761D01*
X148666666Y-51952380D01*
X148571428Y-51952380D01*
X148428571Y-51904761D01*
X148333333Y-51809523D01*
X148285714Y-51714285D01*
X148238095Y-51523809D01*
X148238095Y-51380952D01*
X148285714Y-51190476D01*
X148333333Y-51095238D01*
X148428571Y-51000000D01*
X148571428Y-50952380D01*
X148666666Y-50952380D01*
X148809523Y-51000000D01*
X148857142Y-51047619D01*
X149809523Y-51952380D02*
X149238095Y-51952380D01*
X149523809Y-51952380D02*
X149523809Y-50952380D01*
X149428571Y-51095238D01*
X149333333Y-51190476D01*
X149238095Y-51238095D01*
X150142857Y-50952380D02*
X150761904Y-50952380D01*
X150428571Y-51333333D01*
X150571428Y-51333333D01*
X150666666Y-51380952D01*
X150714285Y-51428571D01*
X150761904Y-51523809D01*
X150761904Y-51761904D01*
X150714285Y-51857142D01*
X150666666Y-51904761D01*
X150571428Y-51952380D01*
X150285714Y-51952380D01*
X150190476Y-51904761D01*
X150142857Y-51857142D01*
%TO.C,J7*%
X149666666Y-61352380D02*
X149666666Y-62066666D01*
X149619047Y-62209523D01*
X149523809Y-62304761D01*
X149380952Y-62352380D01*
X149285714Y-62352380D01*
X150047619Y-61352380D02*
X150714285Y-61352380D01*
X150285714Y-62352380D01*
%TO.C,J3*%
X125666666Y-61352380D02*
X125666666Y-62066666D01*
X125619047Y-62209523D01*
X125523809Y-62304761D01*
X125380952Y-62352380D01*
X125285714Y-62352380D01*
X126047619Y-61352380D02*
X126666666Y-61352380D01*
X126333333Y-61733333D01*
X126476190Y-61733333D01*
X126571428Y-61780952D01*
X126619047Y-61828571D01*
X126666666Y-61923809D01*
X126666666Y-62161904D01*
X126619047Y-62257142D01*
X126571428Y-62304761D01*
X126476190Y-62352380D01*
X126190476Y-62352380D01*
X126095238Y-62304761D01*
X126047619Y-62257142D01*
%TO.C,C7*%
X124833333Y-51857142D02*
X124785714Y-51904761D01*
X124642857Y-51952380D01*
X124547619Y-51952380D01*
X124404761Y-51904761D01*
X124309523Y-51809523D01*
X124261904Y-51714285D01*
X124214285Y-51523809D01*
X124214285Y-51380952D01*
X124261904Y-51190476D01*
X124309523Y-51095238D01*
X124404761Y-51000000D01*
X124547619Y-50952380D01*
X124642857Y-50952380D01*
X124785714Y-51000000D01*
X124833333Y-51047619D01*
X125166666Y-50952380D02*
X125833333Y-50952380D01*
X125404761Y-51952380D01*
%TO.C,J4*%
X113666666Y-36452380D02*
X113666666Y-37166666D01*
X113619047Y-37309523D01*
X113523809Y-37404761D01*
X113380952Y-37452380D01*
X113285714Y-37452380D01*
X114571428Y-36785714D02*
X114571428Y-37452380D01*
X114333333Y-36404761D02*
X114095238Y-37119047D01*
X114714285Y-37119047D01*
%TO.C,J6*%
X137666666Y-61352380D02*
X137666666Y-62066666D01*
X137619047Y-62209523D01*
X137523809Y-62304761D01*
X137380952Y-62352380D01*
X137285714Y-62352380D01*
X138571428Y-61352380D02*
X138380952Y-61352380D01*
X138285714Y-61400000D01*
X138238095Y-61447619D01*
X138142857Y-61590476D01*
X138095238Y-61780952D01*
X138095238Y-62161904D01*
X138142857Y-62257142D01*
X138190476Y-62304761D01*
X138285714Y-62352380D01*
X138476190Y-62352380D01*
X138571428Y-62304761D01*
X138619047Y-62257142D01*
X138666666Y-62161904D01*
X138666666Y-61923809D01*
X138619047Y-61828571D01*
X138571428Y-61780952D01*
X138476190Y-61733333D01*
X138285714Y-61733333D01*
X138190476Y-61780952D01*
X138142857Y-61828571D01*
X138095238Y-61923809D01*
%TO.C,J2*%
X113666666Y-61352380D02*
X113666666Y-62066666D01*
X113619047Y-62209523D01*
X113523809Y-62304761D01*
X113380952Y-62352380D01*
X113285714Y-62352380D01*
X114095238Y-61447619D02*
X114142857Y-61400000D01*
X114238095Y-61352380D01*
X114476190Y-61352380D01*
X114571428Y-61400000D01*
X114619047Y-61447619D01*
X114666666Y-61542857D01*
X114666666Y-61638095D01*
X114619047Y-61780952D01*
X114047619Y-62352380D01*
X114666666Y-62352380D01*
%TO.C,C6*%
X112833333Y-51857142D02*
X112785714Y-51904761D01*
X112642857Y-51952380D01*
X112547619Y-51952380D01*
X112404761Y-51904761D01*
X112309523Y-51809523D01*
X112261904Y-51714285D01*
X112214285Y-51523809D01*
X112214285Y-51380952D01*
X112261904Y-51190476D01*
X112309523Y-51095238D01*
X112404761Y-51000000D01*
X112547619Y-50952380D01*
X112642857Y-50952380D01*
X112785714Y-51000000D01*
X112833333Y-51047619D01*
X113690476Y-50952380D02*
X113500000Y-50952380D01*
X113404761Y-51000000D01*
X113357142Y-51047619D01*
X113261904Y-51190476D01*
X113214285Y-51380952D01*
X113214285Y-51761904D01*
X113261904Y-51857142D01*
X113309523Y-51904761D01*
X113404761Y-51952380D01*
X113595238Y-51952380D01*
X113690476Y-51904761D01*
X113738095Y-51857142D01*
X113785714Y-51761904D01*
X113785714Y-51523809D01*
X113738095Y-51428571D01*
X113690476Y-51380952D01*
X113595238Y-51333333D01*
X113404761Y-51333333D01*
X113309523Y-51380952D01*
X113261904Y-51428571D01*
X113214285Y-51523809D01*
%TO.C,J8*%
X137666666Y-36452380D02*
X137666666Y-37166666D01*
X137619047Y-37309523D01*
X137523809Y-37404761D01*
X137380952Y-37452380D01*
X137285714Y-37452380D01*
X138285714Y-36880952D02*
X138190476Y-36833333D01*
X138142857Y-36785714D01*
X138095238Y-36690476D01*
X138095238Y-36642857D01*
X138142857Y-36547619D01*
X138190476Y-36500000D01*
X138285714Y-36452380D01*
X138476190Y-36452380D01*
X138571428Y-36500000D01*
X138619047Y-36547619D01*
X138666666Y-36642857D01*
X138666666Y-36690476D01*
X138619047Y-36785714D01*
X138571428Y-36833333D01*
X138476190Y-36880952D01*
X138285714Y-36880952D01*
X138190476Y-36928571D01*
X138142857Y-36976190D01*
X138095238Y-37071428D01*
X138095238Y-37261904D01*
X138142857Y-37357142D01*
X138190476Y-37404761D01*
X138285714Y-37452380D01*
X138476190Y-37452380D01*
X138571428Y-37404761D01*
X138619047Y-37357142D01*
X138666666Y-37261904D01*
X138666666Y-37071428D01*
X138619047Y-36976190D01*
X138571428Y-36928571D01*
X138476190Y-36880952D01*
%TO.C,J1*%
X104666666Y-42202380D02*
X104666666Y-42916666D01*
X104619047Y-43059523D01*
X104523809Y-43154761D01*
X104380952Y-43202380D01*
X104285714Y-43202380D01*
X105666666Y-43202380D02*
X105095238Y-43202380D01*
X105380952Y-43202380D02*
X105380952Y-42202380D01*
X105285714Y-42345238D01*
X105190476Y-42440476D01*
X105095238Y-42488095D01*
%TO.C,J9*%
X149666666Y-36452380D02*
X149666666Y-37166666D01*
X149619047Y-37309523D01*
X149523809Y-37404761D01*
X149380952Y-37452380D01*
X149285714Y-37452380D01*
X150190476Y-37452380D02*
X150380952Y-37452380D01*
X150476190Y-37404761D01*
X150523809Y-37357142D01*
X150619047Y-37214285D01*
X150666666Y-37023809D01*
X150666666Y-36642857D01*
X150619047Y-36547619D01*
X150571428Y-36500000D01*
X150476190Y-36452380D01*
X150285714Y-36452380D01*
X150190476Y-36500000D01*
X150142857Y-36547619D01*
X150095238Y-36642857D01*
X150095238Y-36880952D01*
X150142857Y-36976190D01*
X150190476Y-37023809D01*
X150285714Y-37071428D01*
X150476190Y-37071428D01*
X150571428Y-37023809D01*
X150619047Y-36976190D01*
X150666666Y-36880952D01*
%TO.C,J5*%
X125666666Y-36452380D02*
X125666666Y-37166666D01*
X125619047Y-37309523D01*
X125523809Y-37404761D01*
X125380952Y-37452380D01*
X125285714Y-37452380D01*
X126619047Y-36452380D02*
X126142857Y-36452380D01*
X126095238Y-36928571D01*
X126142857Y-36880952D01*
X126238095Y-36833333D01*
X126476190Y-36833333D01*
X126571428Y-36880952D01*
X126619047Y-36928571D01*
X126666666Y-37023809D01*
X126666666Y-37261904D01*
X126619047Y-37357142D01*
X126571428Y-37404761D01*
X126476190Y-37452380D01*
X126238095Y-37452380D01*
X126142857Y-37404761D01*
X126095238Y-37357142D01*
D12*
%TO.C,C12*%
X141345563Y-45590000D02*
X135590000Y-45590000D01*
X135590000Y-45590000D02*
X135590000Y-47940000D01*
X142410000Y-51345563D02*
X142410000Y-50060000D01*
X135590000Y-52410000D02*
X135590000Y-50060000D01*
X142410000Y-46654437D02*
X141345563Y-45590000D01*
X143437500Y-50847500D02*
X142650000Y-50847500D01*
X143043750Y-51241250D02*
X143043750Y-50453750D01*
X142410000Y-46654437D02*
X142410000Y-47940000D01*
X142410000Y-51345563D02*
X141345563Y-52410000D01*
X141345563Y-52410000D02*
X135590000Y-52410000D01*
%TO.C,C13*%
X153345563Y-45590000D02*
X147590000Y-45590000D01*
X155437500Y-50847500D02*
X154650000Y-50847500D01*
X147590000Y-45590000D02*
X147590000Y-47940000D01*
X155043750Y-51241250D02*
X155043750Y-50453750D01*
X154410000Y-46654437D02*
X154410000Y-47940000D01*
X154410000Y-51345563D02*
X154410000Y-50060000D01*
X154410000Y-46654437D02*
X153345563Y-45590000D01*
X153345563Y-52410000D02*
X147590000Y-52410000D01*
X147590000Y-52410000D02*
X147590000Y-50060000D01*
X154410000Y-51345563D02*
X153345563Y-52410000D01*
%TO.C,J7*%
X153060000Y-60810000D02*
X153060000Y-56090000D01*
X150500000Y-60200000D02*
X152450000Y-60200000D01*
X149900000Y-57200000D02*
X149900000Y-56700000D01*
X147550000Y-60200000D02*
X149500000Y-60200000D01*
X149500000Y-60200000D02*
X149500000Y-60810000D01*
X153360000Y-61110000D02*
X153360000Y-59860000D01*
X150100000Y-57200000D02*
X149900000Y-57200000D01*
X151300000Y-60810000D02*
X151300000Y-61010000D01*
X146940000Y-56090000D02*
X146940000Y-60810000D01*
X147550000Y-56700000D02*
X147550000Y-60200000D01*
X152450000Y-60200000D02*
X152450000Y-56700000D01*
X152110000Y-61110000D02*
X153360000Y-61110000D01*
X153060000Y-59500000D02*
X152450000Y-59500000D01*
X150000000Y-56700000D02*
X150000000Y-57200000D01*
X153060000Y-58200000D02*
X152450000Y-58200000D01*
X151300000Y-61010000D02*
X151600000Y-61010000D01*
X146940000Y-60810000D02*
X153060000Y-60810000D01*
X152450000Y-56700000D02*
X147550000Y-56700000D01*
X146940000Y-59500000D02*
X147550000Y-59500000D01*
X151600000Y-61010000D02*
X151600000Y-60810000D01*
X150500000Y-60810000D02*
X150500000Y-60200000D01*
X153060000Y-56090000D02*
X146940000Y-56090000D01*
X146940000Y-58200000D02*
X147550000Y-58200000D01*
X151300000Y-60910000D02*
X151600000Y-60910000D01*
X150100000Y-56700000D02*
X150100000Y-57200000D01*
%TO.C,J3*%
X126100000Y-56700000D02*
X126100000Y-57200000D01*
X129360000Y-61110000D02*
X129360000Y-59860000D01*
X122940000Y-60810000D02*
X129060000Y-60810000D01*
X126500000Y-60810000D02*
X126500000Y-60200000D01*
X126500000Y-60200000D02*
X128450000Y-60200000D01*
X128450000Y-60200000D02*
X128450000Y-56700000D01*
X129060000Y-59500000D02*
X128450000Y-59500000D01*
X127300000Y-60910000D02*
X127600000Y-60910000D01*
X123550000Y-56700000D02*
X123550000Y-60200000D01*
X123550000Y-60200000D02*
X125500000Y-60200000D01*
X129060000Y-56090000D02*
X122940000Y-56090000D01*
X129060000Y-58200000D02*
X128450000Y-58200000D01*
X126000000Y-56700000D02*
X126000000Y-57200000D01*
X122940000Y-56090000D02*
X122940000Y-60810000D01*
X126100000Y-57200000D02*
X125900000Y-57200000D01*
X129060000Y-60810000D02*
X129060000Y-56090000D01*
X127300000Y-60810000D02*
X127300000Y-61010000D01*
X127300000Y-61010000D02*
X127600000Y-61010000D01*
X122940000Y-59500000D02*
X123550000Y-59500000D01*
X125900000Y-57200000D02*
X125900000Y-56700000D01*
X127600000Y-61010000D02*
X127600000Y-60810000D01*
X125500000Y-60200000D02*
X125500000Y-60810000D01*
X128110000Y-61110000D02*
X129360000Y-61110000D01*
X128450000Y-56700000D02*
X123550000Y-56700000D01*
X122940000Y-58200000D02*
X123550000Y-58200000D01*
%TO.C,C7*%
X131043750Y-51241250D02*
X131043750Y-50453750D01*
X130410000Y-46654437D02*
X130410000Y-47940000D01*
X129345563Y-45590000D02*
X123590000Y-45590000D01*
X130410000Y-46654437D02*
X129345563Y-45590000D01*
X123590000Y-52410000D02*
X123590000Y-50060000D01*
X130410000Y-51345563D02*
X130410000Y-50060000D01*
X130410000Y-51345563D02*
X129345563Y-52410000D01*
X131437500Y-50847500D02*
X130650000Y-50847500D01*
X129345563Y-52410000D02*
X123590000Y-52410000D01*
X123590000Y-45590000D02*
X123590000Y-47940000D01*
%TO.C,J4*%
X119060000Y-43310000D02*
X118040000Y-43310000D01*
X109960000Y-43310000D02*
X109960000Y-41710000D01*
X118040000Y-43310000D02*
X118040000Y-41710000D01*
X109960000Y-41710000D02*
X111240000Y-41710000D01*
X119060000Y-39060000D02*
X119060000Y-43310000D01*
X117340000Y-35490000D02*
X110660000Y-35490000D01*
X108940000Y-39060000D02*
X108940000Y-43310000D01*
X118040000Y-41710000D02*
X116760000Y-41710000D01*
X108940000Y-43310000D02*
X109960000Y-43310000D01*
X116760000Y-41710000D02*
X116760000Y-44600000D01*
%TO.C,J6*%
X135550000Y-60200000D02*
X137500000Y-60200000D01*
X137900000Y-57200000D02*
X137900000Y-56700000D01*
X138100000Y-56700000D02*
X138100000Y-57200000D01*
X138500000Y-60810000D02*
X138500000Y-60200000D01*
X141060000Y-59500000D02*
X140450000Y-59500000D01*
X134940000Y-59500000D02*
X135550000Y-59500000D01*
X139300000Y-60910000D02*
X139600000Y-60910000D01*
X140450000Y-56700000D02*
X135550000Y-56700000D01*
X141060000Y-60810000D02*
X141060000Y-56090000D01*
X141060000Y-56090000D02*
X134940000Y-56090000D01*
X139600000Y-61010000D02*
X139600000Y-60810000D01*
X141060000Y-58200000D02*
X140450000Y-58200000D01*
X135550000Y-56700000D02*
X135550000Y-60200000D01*
X138500000Y-60200000D02*
X140450000Y-60200000D01*
X134940000Y-56090000D02*
X134940000Y-60810000D01*
X141360000Y-61110000D02*
X141360000Y-59860000D01*
X137500000Y-60200000D02*
X137500000Y-60810000D01*
X134940000Y-60810000D02*
X141060000Y-60810000D01*
X140450000Y-60200000D02*
X140450000Y-56700000D01*
X138100000Y-57200000D02*
X137900000Y-57200000D01*
X139300000Y-60810000D02*
X139300000Y-61010000D01*
X139300000Y-61010000D02*
X139600000Y-61010000D01*
X134940000Y-58200000D02*
X135550000Y-58200000D01*
X140110000Y-61110000D02*
X141360000Y-61110000D01*
X138000000Y-56700000D02*
X138000000Y-57200000D01*
%TO.C,J2*%
X115300000Y-61010000D02*
X115600000Y-61010000D01*
X117060000Y-59500000D02*
X116450000Y-59500000D01*
X114500000Y-60810000D02*
X114500000Y-60200000D01*
X114100000Y-57200000D02*
X113900000Y-57200000D01*
X110940000Y-59500000D02*
X111550000Y-59500000D01*
X114100000Y-56700000D02*
X114100000Y-57200000D01*
X113500000Y-60200000D02*
X113500000Y-60810000D01*
X114000000Y-56700000D02*
X114000000Y-57200000D01*
X117060000Y-60810000D02*
X117060000Y-56090000D01*
X115600000Y-61010000D02*
X115600000Y-60810000D01*
X116450000Y-60200000D02*
X116450000Y-56700000D01*
X111550000Y-60200000D02*
X113500000Y-60200000D01*
X116450000Y-56700000D02*
X111550000Y-56700000D01*
X115300000Y-60810000D02*
X115300000Y-61010000D01*
X110940000Y-60810000D02*
X117060000Y-60810000D01*
X110940000Y-58200000D02*
X111550000Y-58200000D01*
X116110000Y-61110000D02*
X117360000Y-61110000D01*
X111550000Y-56700000D02*
X111550000Y-60200000D01*
X117060000Y-56090000D02*
X110940000Y-56090000D01*
X117060000Y-58200000D02*
X116450000Y-58200000D01*
X110940000Y-56090000D02*
X110940000Y-60810000D01*
X117360000Y-61110000D02*
X117360000Y-59860000D01*
X113900000Y-57200000D02*
X113900000Y-56700000D01*
X115300000Y-60910000D02*
X115600000Y-60910000D01*
X114500000Y-60200000D02*
X116450000Y-60200000D01*
%TO.C,C6*%
X117345563Y-45590000D02*
X111590000Y-45590000D01*
X111590000Y-52410000D02*
X111590000Y-50060000D01*
X118410000Y-51345563D02*
X117345563Y-52410000D01*
X119437500Y-50847500D02*
X118650000Y-50847500D01*
X118410000Y-46654437D02*
X117345563Y-45590000D01*
X118410000Y-46654437D02*
X118410000Y-47940000D01*
X111590000Y-45590000D02*
X111590000Y-47940000D01*
X117345563Y-52410000D02*
X111590000Y-52410000D01*
X118410000Y-51345563D02*
X118410000Y-50060000D01*
X119043750Y-51241250D02*
X119043750Y-50453750D01*
%TO.C,J8*%
X133960000Y-43310000D02*
X133960000Y-41710000D01*
X142040000Y-41710000D02*
X140760000Y-41710000D01*
X143060000Y-39060000D02*
X143060000Y-43310000D01*
X132940000Y-43310000D02*
X133960000Y-43310000D01*
X142040000Y-43310000D02*
X142040000Y-41710000D01*
X140760000Y-41710000D02*
X140760000Y-44600000D01*
X133960000Y-41710000D02*
X135240000Y-41710000D01*
X141340000Y-35490000D02*
X134660000Y-35490000D01*
X143060000Y-43310000D02*
X142040000Y-43310000D01*
X132940000Y-39060000D02*
X132940000Y-43310000D01*
%TO.C,J1*%
X105250000Y-54060000D02*
X105250000Y-53450000D01*
X102340000Y-53110000D02*
X102340000Y-54360000D01*
X103250000Y-46500000D02*
X102640000Y-46500000D01*
X106250000Y-51100000D02*
X106250000Y-50900000D01*
X102640000Y-51500000D02*
X103250000Y-51500000D01*
X103950000Y-54060000D02*
X103950000Y-53450000D01*
X102440000Y-52300000D02*
X102440000Y-52600000D01*
X103250000Y-51500000D02*
X103250000Y-53450000D01*
X103950000Y-43940000D02*
X103950000Y-44550000D01*
X107360000Y-43940000D02*
X102640000Y-43940000D01*
X102640000Y-52300000D02*
X102440000Y-52300000D01*
X102340000Y-54360000D02*
X103590000Y-54360000D01*
X102540000Y-52300000D02*
X102540000Y-52600000D01*
X106250000Y-48900000D02*
X106750000Y-48900000D01*
X103250000Y-44550000D02*
X103250000Y-46500000D01*
X106750000Y-49100000D02*
X106250000Y-49100000D01*
X106750000Y-53450000D02*
X106750000Y-44550000D01*
X106750000Y-49000000D02*
X106250000Y-49000000D01*
X106750000Y-51100000D02*
X106250000Y-51100000D01*
X106250000Y-49100000D02*
X106250000Y-48900000D01*
X106750000Y-51000000D02*
X106250000Y-51000000D01*
X106250000Y-47100000D02*
X106250000Y-46900000D01*
X107360000Y-54060000D02*
X107360000Y-43940000D01*
X106750000Y-47000000D02*
X106250000Y-47000000D01*
X102440000Y-52600000D02*
X102640000Y-52600000D01*
X103250000Y-53450000D02*
X106750000Y-53450000D01*
X106750000Y-44550000D02*
X103250000Y-44550000D01*
X106250000Y-46900000D02*
X106750000Y-46900000D01*
X102640000Y-54060000D02*
X107360000Y-54060000D01*
X106750000Y-47100000D02*
X106250000Y-47100000D01*
X105250000Y-43940000D02*
X105250000Y-44550000D01*
X102640000Y-43940000D02*
X102640000Y-54060000D01*
X106250000Y-50900000D02*
X106750000Y-50900000D01*
%TO.C,J9*%
X154040000Y-41710000D02*
X152760000Y-41710000D01*
X155060000Y-43310000D02*
X154040000Y-43310000D01*
X152760000Y-41710000D02*
X152760000Y-44600000D01*
X154040000Y-43310000D02*
X154040000Y-41710000D01*
X153340000Y-35490000D02*
X146660000Y-35490000D01*
X144940000Y-39060000D02*
X144940000Y-43310000D01*
X155060000Y-39060000D02*
X155060000Y-43310000D01*
X145960000Y-41710000D02*
X147240000Y-41710000D01*
X145960000Y-43310000D02*
X145960000Y-41710000D01*
X144940000Y-43310000D02*
X145960000Y-43310000D01*
%TO.C,J5*%
X120940000Y-43310000D02*
X121960000Y-43310000D01*
X120940000Y-39060000D02*
X120940000Y-43310000D01*
X130040000Y-43310000D02*
X130040000Y-41710000D01*
X129340000Y-35490000D02*
X122660000Y-35490000D01*
X121960000Y-43310000D02*
X121960000Y-41710000D01*
X121960000Y-41710000D02*
X123240000Y-41710000D01*
X131060000Y-43310000D02*
X130040000Y-43310000D01*
X130040000Y-41710000D02*
X128760000Y-41710000D01*
X128760000Y-41710000D02*
X128760000Y-44600000D01*
X131060000Y-39060000D02*
X131060000Y-43310000D01*
%TD*%
M02*
