%TF.GenerationSoftware,KiCad,Pcbnew,6.0.0*%
%TF.CreationDate,2022-01-04T21:54:10+01:00*%
%TF.ProjectId,mini_light_control,6d696e69-5f6c-4696-9768-745f636f6e74,v1.0*%
%TF.SameCoordinates,Original*%
%TF.FileFunction,Copper,L1,Top*%
%TF.FilePolarity,Positive*%
%FSLAX46Y46*%
G04 Gerber Fmt 4.6, Leading zero omitted, Abs format (unit mm)*
G04 Created by KiCad (PCBNEW 6.0.0) date 2022-01-04 21:54:10*
%MOMM*%
%LPD*%
G01*
G04 APERTURE LIST*
G04 Aperture macros list*
%AMRoundRect*
0 Rectangle with rounded corners*
0 $1 Rounding radius*
0 $2 $3 $4 $5 $6 $7 $8 $9 X,Y pos of 4 corners*
0 Add a 4 corners polygon primitive as box body*
4,1,4,$2,$3,$4,$5,$6,$7,$8,$9,$2,$3,0*
0 Add four circle primitives for the rounded corners*
1,1,$1+$1,$2,$3*
1,1,$1+$1,$4,$5*
1,1,$1+$1,$6,$7*
1,1,$1+$1,$8,$9*
0 Add four rect primitives between the rounded corners*
20,1,$1+$1,$2,$3,$4,$5,0*
20,1,$1+$1,$4,$5,$6,$7,0*
20,1,$1+$1,$6,$7,$8,$9,0*
20,1,$1+$1,$8,$9,$2,$3,0*%
G04 Aperture macros list end*
%TA.AperFunction,SMDPad,CuDef*%
%ADD10RoundRect,0.250000X1.500000X0.550000X-1.500000X0.550000X-1.500000X-0.550000X1.500000X-0.550000X0*%
%TD*%
%TA.AperFunction,ComponentPad*%
%ADD11RoundRect,0.250000X-0.350000X-0.625000X0.350000X-0.625000X0.350000X0.625000X-0.350000X0.625000X0*%
%TD*%
%TA.AperFunction,ComponentPad*%
%ADD12O,1.200000X1.750000*%
%TD*%
%TA.AperFunction,SMDPad,CuDef*%
%ADD13RoundRect,0.250000X0.250000X1.500000X-0.250000X1.500000X-0.250000X-1.500000X0.250000X-1.500000X0*%
%TD*%
%TA.AperFunction,SMDPad,CuDef*%
%ADD14RoundRect,0.250001X0.499999X1.449999X-0.499999X1.449999X-0.499999X-1.449999X0.499999X-1.449999X0*%
%TD*%
%TA.AperFunction,ComponentPad*%
%ADD15O,1.750000X1.200000*%
%TD*%
%TA.AperFunction,ComponentPad*%
%ADD16RoundRect,0.250000X-0.625000X0.350000X-0.625000X-0.350000X0.625000X-0.350000X0.625000X0.350000X0*%
%TD*%
%TA.AperFunction,ViaPad*%
%ADD17C,0.600000*%
%TD*%
%TA.AperFunction,Conductor*%
%ADD18C,0.450000*%
%TD*%
G04 APERTURE END LIST*
D10*
%TO.P,C12,1*%
%TO.N,+12V*%
X141700000Y-49000000D03*
%TO.P,C12,2*%
%TO.N,GND*%
X136300000Y-49000000D03*
%TD*%
%TO.P,C13,1*%
%TO.N,+12V*%
X153700000Y-49000000D03*
%TO.P,C13,2*%
%TO.N,GND*%
X148300000Y-49000000D03*
%TD*%
D11*
%TO.P,J7,1,Pin_1*%
%TO.N,Net-(R9-Pad1)*%
X149000000Y-59000000D03*
D12*
%TO.P,J7,2,Pin_2*%
%TO.N,Net-(C10-Pad1)*%
X151000000Y-59000000D03*
%TD*%
D11*
%TO.P,J3,1,Pin_1*%
%TO.N,Net-(R3-Pad1)*%
X124968000Y-59000000D03*
D12*
%TO.P,J3,2,Pin_2*%
%TO.N,Net-(C3-Pad1)*%
X126968000Y-59000000D03*
%TD*%
D10*
%TO.P,C7,1*%
%TO.N,+12V*%
X129700000Y-49000000D03*
%TO.P,C7,2*%
%TO.N,GND*%
X124300000Y-49000000D03*
%TD*%
D13*
%TO.P,J4,1,Pin_1*%
%TO.N,+12V*%
X116000000Y-42850000D03*
%TO.P,J4,2,Pin_2*%
%TO.N,GND*%
X114000000Y-42850000D03*
%TO.P,J4,3,Pin_3*%
%TO.N,Net-(J4-Pad3)*%
X112000000Y-42850000D03*
D14*
%TO.P,J4,MP,MountPin*%
%TO.N,GND*%
X109650000Y-37100000D03*
X118350000Y-37100000D03*
%TD*%
D11*
%TO.P,J6,1,Pin_1*%
%TO.N,Net-(R7-Pad1)*%
X137000000Y-59000000D03*
D12*
%TO.P,J6,2,Pin_2*%
%TO.N,Net-(C9-Pad1)*%
X139000000Y-59000000D03*
%TD*%
D11*
%TO.P,J2,1,Pin_1*%
%TO.N,Net-(R1-Pad1)*%
X113046000Y-59000000D03*
D12*
%TO.P,J2,2,Pin_2*%
%TO.N,Net-(C2-Pad1)*%
X115046000Y-59000000D03*
%TD*%
D10*
%TO.P,C6,1*%
%TO.N,+12V*%
X117700000Y-49000000D03*
%TO.P,C6,2*%
%TO.N,GND*%
X112300000Y-49000000D03*
%TD*%
D13*
%TO.P,J8,1,Pin_1*%
%TO.N,+12V*%
X140000000Y-42850000D03*
%TO.P,J8,2,Pin_2*%
%TO.N,GND*%
X138000000Y-42850000D03*
%TO.P,J8,3,Pin_3*%
%TO.N,Net-(J8-Pad3)*%
X136000000Y-42850000D03*
D14*
%TO.P,J8,MP,MountPin*%
%TO.N,GND*%
X133650000Y-37100000D03*
X142350000Y-37100000D03*
%TD*%
D15*
%TO.P,J1,2,Pin_2*%
%TO.N,GND*%
X106000000Y-50000000D03*
D16*
%TO.P,J1,1,Pin_1*%
%TO.N,+12V*%
X106000000Y-48000000D03*
%TD*%
D13*
%TO.P,J9,1,Pin_1*%
%TO.N,+12V*%
X152000000Y-42850000D03*
%TO.P,J9,2,Pin_2*%
%TO.N,GND*%
X150000000Y-42850000D03*
%TO.P,J9,3,Pin_3*%
%TO.N,Net-(J9-Pad3)*%
X148000000Y-42850000D03*
D14*
%TO.P,J9,MP,MountPin*%
%TO.N,GND*%
X154350000Y-37100000D03*
X145650000Y-37100000D03*
%TD*%
D13*
%TO.P,J5,1,Pin_1*%
%TO.N,+12V*%
X128000000Y-42850000D03*
%TO.P,J5,2,Pin_2*%
%TO.N,GND*%
X126000000Y-42850000D03*
%TO.P,J5,3,Pin_3*%
%TO.N,Net-(J5-Pad3)*%
X124000000Y-42850000D03*
D14*
%TO.P,J5,MP,MountPin*%
%TO.N,GND*%
X130350000Y-37100000D03*
X121650000Y-37100000D03*
%TD*%
D17*
%TO.N,GND*%
X110600000Y-41700000D03*
X120200000Y-41600000D03*
X122700000Y-41600000D03*
X109400000Y-49200000D03*
X123100000Y-47100000D03*
X146900000Y-47100000D03*
X122700000Y-44000000D03*
X125900000Y-47100000D03*
X146700000Y-43900000D03*
X150000000Y-47200000D03*
X162475000Y-60875000D03*
X162475000Y-58875000D03*
X162475000Y-56875000D03*
X162475000Y-54875000D03*
X162475000Y-52875000D03*
X162475000Y-50875000D03*
X162475000Y-48875000D03*
X162475000Y-46875000D03*
X162475000Y-44875000D03*
X162475000Y-42875000D03*
X162475000Y-40875000D03*
X162475000Y-38875000D03*
X162475000Y-36875000D03*
X160475000Y-56875000D03*
X160475000Y-54875000D03*
X160475000Y-52875000D03*
X160475000Y-50875000D03*
X160475000Y-48875000D03*
X160475000Y-46875000D03*
X160475000Y-44875000D03*
X160475000Y-42875000D03*
X160475000Y-36875000D03*
X158475000Y-56875000D03*
X158475000Y-54875000D03*
X158475000Y-52875000D03*
X158475000Y-50875000D03*
X158475000Y-48875000D03*
X158475000Y-46875000D03*
X158475000Y-44875000D03*
X158475000Y-42875000D03*
X158475000Y-36875000D03*
X156475000Y-60875000D03*
X156475000Y-58875000D03*
X156475000Y-56875000D03*
X156475000Y-42875000D03*
X156475000Y-40875000D03*
X156475000Y-38875000D03*
X156475000Y-36875000D03*
X154475000Y-60875000D03*
X154475000Y-58875000D03*
X154475000Y-56875000D03*
X152475000Y-60875000D03*
X152475000Y-58875000D03*
X152475000Y-56875000D03*
X152475000Y-38875000D03*
X152475000Y-36875000D03*
X150475000Y-60875000D03*
X150475000Y-38875000D03*
X150475000Y-36875000D03*
X148475000Y-60875000D03*
X148475000Y-56875000D03*
X148475000Y-50875000D03*
X148475000Y-48875000D03*
X148475000Y-38875000D03*
X148475000Y-36875000D03*
X146475000Y-56875000D03*
X146475000Y-50875000D03*
X146475000Y-40875000D03*
X144475000Y-58875000D03*
X144475000Y-56875000D03*
X144475000Y-40875000D03*
X142475000Y-58875000D03*
X142475000Y-56875000D03*
X140475000Y-58875000D03*
X140475000Y-56875000D03*
X140475000Y-38875000D03*
X140475000Y-36875000D03*
X138475000Y-38875000D03*
X138475000Y-36875000D03*
X136475000Y-56875000D03*
X136475000Y-50875000D03*
X136475000Y-38875000D03*
X136475000Y-36875000D03*
X134475000Y-58875000D03*
X134475000Y-56875000D03*
X134475000Y-50875000D03*
X134475000Y-46875000D03*
X134475000Y-44875000D03*
X132475000Y-58875000D03*
X132475000Y-56875000D03*
X132475000Y-42875000D03*
X130475000Y-58875000D03*
X130475000Y-56875000D03*
X128475000Y-58875000D03*
X128475000Y-56875000D03*
X128475000Y-38875000D03*
X128475000Y-36875000D03*
X126475000Y-38875000D03*
X126475000Y-36875000D03*
X124475000Y-56875000D03*
X124475000Y-50875000D03*
X124475000Y-48875000D03*
X124475000Y-38875000D03*
X124475000Y-36875000D03*
X122475000Y-58875000D03*
X122475000Y-56875000D03*
X122475000Y-50875000D03*
X120475000Y-58875000D03*
X120475000Y-56875000D03*
X118475000Y-58875000D03*
X118475000Y-56875000D03*
X116475000Y-58875000D03*
X116475000Y-56875000D03*
X116475000Y-38875000D03*
X116475000Y-36875000D03*
X114475000Y-38875000D03*
X114475000Y-36875000D03*
X112475000Y-56875000D03*
X112475000Y-50875000D03*
X112475000Y-38875000D03*
X112475000Y-36875000D03*
X110475000Y-58875000D03*
X110475000Y-46875000D03*
X110475000Y-44875000D03*
X108475000Y-60875000D03*
X106475000Y-60875000D03*
X106475000Y-56875000D03*
X106475000Y-44875000D03*
X106475000Y-42875000D03*
X106475000Y-40875000D03*
X106475000Y-36875000D03*
X104475000Y-44875000D03*
X104475000Y-42875000D03*
X102475000Y-60875000D03*
X102475000Y-56875000D03*
X102475000Y-44875000D03*
X102475000Y-42875000D03*
X102475000Y-40875000D03*
X102475000Y-36875000D03*
%TO.N,+12V*%
X111400000Y-52900000D03*
%TO.N,Net-(J4-Pad3)*%
X110500000Y-42800000D03*
%TO.N,Net-(J5-Pad3)*%
X122500000Y-42800000D03*
%TO.N,Net-(J8-Pad3)*%
X134500000Y-42800000D03*
%TO.N,Net-(J9-Pad3)*%
X146500000Y-42800000D03*
%TD*%
D18*
%TO.N,Net-(J4-Pad3)*%
X110550000Y-42850000D02*
X110500000Y-42800000D01*
X112000000Y-42850000D02*
X110550000Y-42850000D01*
%TO.N,Net-(J5-Pad3)*%
X122550000Y-42850000D02*
X122500000Y-42800000D01*
X124000000Y-42850000D02*
X122550000Y-42850000D01*
%TO.N,Net-(J8-Pad3)*%
X136000000Y-42850000D02*
X134550000Y-42850000D01*
X134550000Y-42850000D02*
X134500000Y-42800000D01*
%TO.N,Net-(J9-Pad3)*%
X146550000Y-42850000D02*
X146500000Y-42800000D01*
X148000000Y-42850000D02*
X146550000Y-42850000D01*
%TD*%
%TA.AperFunction,Conductor*%
%TO.N,+12V*%
G36*
X116605474Y-40200479D02*
G01*
X116658654Y-40205132D01*
X116832129Y-40220309D01*
X116853752Y-40224121D01*
X117019449Y-40268520D01*
X117068180Y-40281577D01*
X117088819Y-40289089D01*
X117290010Y-40382906D01*
X117309031Y-40393888D01*
X117490877Y-40521218D01*
X117507701Y-40535336D01*
X117664664Y-40692299D01*
X117678782Y-40709123D01*
X117806112Y-40890969D01*
X117817094Y-40909990D01*
X117910911Y-41111181D01*
X117918423Y-41131820D01*
X117964389Y-41303365D01*
X117975878Y-41346244D01*
X117979692Y-41367874D01*
X117999521Y-41594526D01*
X118000000Y-41605507D01*
X118000000Y-43000000D01*
X120411286Y-45411286D01*
X120416923Y-45417303D01*
X120581264Y-45604698D01*
X120591297Y-45617774D01*
X120727463Y-45821561D01*
X120735704Y-45835835D01*
X120844106Y-46055653D01*
X120850413Y-46070879D01*
X120929197Y-46302968D01*
X120933463Y-46318889D01*
X120981279Y-46559277D01*
X120983430Y-46575617D01*
X120999730Y-46824308D01*
X121000000Y-46832549D01*
X121000000Y-52000000D01*
X127000000Y-52000000D01*
X127000000Y-49596635D01*
X127449001Y-49596635D01*
X127449338Y-49603154D01*
X127459155Y-49697765D01*
X127462047Y-49711159D01*
X127512973Y-49863804D01*
X127519137Y-49876963D01*
X127603590Y-50013438D01*
X127612617Y-50024827D01*
X127726197Y-50138209D01*
X127737608Y-50147221D01*
X127874223Y-50231431D01*
X127887401Y-50237575D01*
X128040143Y-50288238D01*
X128053509Y-50291104D01*
X128146899Y-50300672D01*
X128153314Y-50301000D01*
X129173885Y-50301000D01*
X129189124Y-50296525D01*
X129190329Y-50295135D01*
X129192000Y-50287452D01*
X129192000Y-50282884D01*
X130208000Y-50282884D01*
X130212475Y-50298123D01*
X130213865Y-50299328D01*
X130221548Y-50300999D01*
X131246635Y-50300999D01*
X131253154Y-50300662D01*
X131347765Y-50290845D01*
X131361159Y-50287953D01*
X131513804Y-50237027D01*
X131526963Y-50230863D01*
X131663438Y-50146410D01*
X131674827Y-50137383D01*
X131788209Y-50023803D01*
X131797221Y-50012392D01*
X131881431Y-49875777D01*
X131887575Y-49862599D01*
X131938238Y-49709857D01*
X131941104Y-49696491D01*
X131950672Y-49603101D01*
X131951000Y-49596686D01*
X131951000Y-49526115D01*
X131946525Y-49510876D01*
X131945135Y-49509671D01*
X131937452Y-49508000D01*
X130226115Y-49508000D01*
X130210876Y-49512475D01*
X130209671Y-49513865D01*
X130208000Y-49521548D01*
X130208000Y-50282884D01*
X129192000Y-50282884D01*
X129192000Y-49526115D01*
X129187525Y-49510876D01*
X129186135Y-49509671D01*
X129178452Y-49508000D01*
X127467116Y-49508000D01*
X127451877Y-49512475D01*
X127450672Y-49513865D01*
X127449001Y-49521548D01*
X127449001Y-49596635D01*
X127000000Y-49596635D01*
X127000000Y-48473885D01*
X127449000Y-48473885D01*
X127453475Y-48489124D01*
X127454865Y-48490329D01*
X127462548Y-48492000D01*
X129173885Y-48492000D01*
X129189124Y-48487525D01*
X129190329Y-48486135D01*
X129192000Y-48478452D01*
X129192000Y-48473885D01*
X130208000Y-48473885D01*
X130212475Y-48489124D01*
X130213865Y-48490329D01*
X130221548Y-48492000D01*
X131932884Y-48492000D01*
X131948123Y-48487525D01*
X131949328Y-48486135D01*
X131950999Y-48478452D01*
X131950999Y-48403365D01*
X131950662Y-48396846D01*
X131940845Y-48302235D01*
X131937953Y-48288841D01*
X131887027Y-48136196D01*
X131880863Y-48123037D01*
X131796410Y-47986562D01*
X131787383Y-47975173D01*
X131673803Y-47861791D01*
X131662392Y-47852779D01*
X131525777Y-47768569D01*
X131512599Y-47762425D01*
X131359857Y-47711762D01*
X131346491Y-47708896D01*
X131253101Y-47699328D01*
X131246686Y-47699000D01*
X130226115Y-47699000D01*
X130210876Y-47703475D01*
X130209671Y-47704865D01*
X130208000Y-47712548D01*
X130208000Y-48473885D01*
X129192000Y-48473885D01*
X129192000Y-47717116D01*
X129187525Y-47701877D01*
X129186135Y-47700672D01*
X129178452Y-47699001D01*
X128153365Y-47699001D01*
X128146846Y-47699338D01*
X128052235Y-47709155D01*
X128038841Y-47712047D01*
X127886196Y-47762973D01*
X127873037Y-47769137D01*
X127736562Y-47853590D01*
X127725173Y-47862617D01*
X127611791Y-47976197D01*
X127602779Y-47987608D01*
X127518569Y-48124223D01*
X127512425Y-48137401D01*
X127461762Y-48290143D01*
X127458896Y-48303509D01*
X127449328Y-48396899D01*
X127449000Y-48403314D01*
X127449000Y-48473885D01*
X127000000Y-48473885D01*
X127000000Y-44966310D01*
X127020002Y-44898189D01*
X127073658Y-44851696D01*
X127143932Y-44841592D01*
X127208512Y-44871086D01*
X127215017Y-44877137D01*
X127276192Y-44938205D01*
X127287608Y-44947221D01*
X127424221Y-45031429D01*
X127437402Y-45037576D01*
X127482806Y-45052636D01*
X127496899Y-45053125D01*
X127500000Y-45046914D01*
X127500000Y-45040199D01*
X128500000Y-45040199D01*
X128503973Y-45053730D01*
X128510799Y-45054711D01*
X128563800Y-45037028D01*
X128576964Y-45030862D01*
X128713438Y-44946410D01*
X128724827Y-44937383D01*
X128838209Y-44823803D01*
X128847221Y-44812392D01*
X128931431Y-44675777D01*
X128937575Y-44662599D01*
X128988238Y-44509857D01*
X128991104Y-44496491D01*
X129000672Y-44403101D01*
X129001000Y-44396686D01*
X129001000Y-43368115D01*
X128996525Y-43352876D01*
X128995135Y-43351671D01*
X128987452Y-43350000D01*
X128518115Y-43350000D01*
X128502876Y-43354475D01*
X128501671Y-43355865D01*
X128500000Y-43363548D01*
X128500000Y-45040199D01*
X127500000Y-45040199D01*
X127500000Y-42331885D01*
X128500000Y-42331885D01*
X128504475Y-42347124D01*
X128505865Y-42348329D01*
X128513548Y-42350000D01*
X128982884Y-42350000D01*
X128998123Y-42345525D01*
X128999328Y-42344135D01*
X129000999Y-42336452D01*
X129000999Y-41303365D01*
X129000662Y-41296846D01*
X128990845Y-41202235D01*
X128987953Y-41188841D01*
X128937027Y-41036196D01*
X128930863Y-41023037D01*
X128846410Y-40886562D01*
X128837383Y-40875173D01*
X128723803Y-40761791D01*
X128712392Y-40752779D01*
X128575779Y-40668571D01*
X128562598Y-40662424D01*
X128517194Y-40647364D01*
X128503101Y-40646875D01*
X128500000Y-40653086D01*
X128500000Y-42331885D01*
X127500000Y-42331885D01*
X127500000Y-40645618D01*
X127520002Y-40577497D01*
X127544170Y-40549807D01*
X127610782Y-40492915D01*
X127626773Y-40481296D01*
X127810567Y-40368666D01*
X127828165Y-40359699D01*
X128027317Y-40277208D01*
X128046112Y-40271101D01*
X128255706Y-40220782D01*
X128275232Y-40217689D01*
X128495070Y-40200388D01*
X128504956Y-40200000D01*
X128594493Y-40200000D01*
X128605474Y-40200479D01*
X128658654Y-40205132D01*
X128832129Y-40220309D01*
X128853752Y-40224121D01*
X129019449Y-40268520D01*
X129068180Y-40281577D01*
X129088819Y-40289089D01*
X129290010Y-40382906D01*
X129309031Y-40393888D01*
X129490877Y-40521218D01*
X129507701Y-40535336D01*
X129664664Y-40692299D01*
X129678782Y-40709123D01*
X129806112Y-40890969D01*
X129817094Y-40909990D01*
X129910911Y-41111181D01*
X129918423Y-41131820D01*
X129964389Y-41303365D01*
X129975878Y-41346244D01*
X129979692Y-41367874D01*
X129999521Y-41594526D01*
X130000000Y-41605507D01*
X130000000Y-43000000D01*
X132411286Y-45411286D01*
X132416923Y-45417303D01*
X132581264Y-45604698D01*
X132591297Y-45617774D01*
X132727463Y-45821561D01*
X132735704Y-45835835D01*
X132844106Y-46055653D01*
X132850413Y-46070879D01*
X132929197Y-46302968D01*
X132933463Y-46318889D01*
X132981279Y-46559277D01*
X132983430Y-46575617D01*
X132999730Y-46824308D01*
X133000000Y-46832549D01*
X133000000Y-52000000D01*
X139000000Y-52000000D01*
X139000000Y-49596635D01*
X139449001Y-49596635D01*
X139449338Y-49603154D01*
X139459155Y-49697765D01*
X139462047Y-49711159D01*
X139512973Y-49863804D01*
X139519137Y-49876963D01*
X139603590Y-50013438D01*
X139612617Y-50024827D01*
X139726197Y-50138209D01*
X139737608Y-50147221D01*
X139874223Y-50231431D01*
X139887401Y-50237575D01*
X140040143Y-50288238D01*
X140053509Y-50291104D01*
X140146899Y-50300672D01*
X140153314Y-50301000D01*
X141173885Y-50301000D01*
X141189124Y-50296525D01*
X141190329Y-50295135D01*
X141192000Y-50287452D01*
X141192000Y-50282884D01*
X142208000Y-50282884D01*
X142212475Y-50298123D01*
X142213865Y-50299328D01*
X142221548Y-50300999D01*
X143246635Y-50300999D01*
X143253154Y-50300662D01*
X143347765Y-50290845D01*
X143361159Y-50287953D01*
X143513804Y-50237027D01*
X143526963Y-50230863D01*
X143663438Y-50146410D01*
X143674827Y-50137383D01*
X143788209Y-50023803D01*
X143797221Y-50012392D01*
X143881431Y-49875777D01*
X143887575Y-49862599D01*
X143938238Y-49709857D01*
X143941104Y-49696491D01*
X143950672Y-49603101D01*
X143951000Y-49596686D01*
X143951000Y-49526115D01*
X143946525Y-49510876D01*
X143945135Y-49509671D01*
X143937452Y-49508000D01*
X142226115Y-49508000D01*
X142210876Y-49512475D01*
X142209671Y-49513865D01*
X142208000Y-49521548D01*
X142208000Y-50282884D01*
X141192000Y-50282884D01*
X141192000Y-49526115D01*
X141187525Y-49510876D01*
X141186135Y-49509671D01*
X141178452Y-49508000D01*
X139467116Y-49508000D01*
X139451877Y-49512475D01*
X139450672Y-49513865D01*
X139449001Y-49521548D01*
X139449001Y-49596635D01*
X139000000Y-49596635D01*
X139000000Y-48473885D01*
X139449000Y-48473885D01*
X139453475Y-48489124D01*
X139454865Y-48490329D01*
X139462548Y-48492000D01*
X141173885Y-48492000D01*
X141189124Y-48487525D01*
X141190329Y-48486135D01*
X141192000Y-48478452D01*
X141192000Y-48473885D01*
X142208000Y-48473885D01*
X142212475Y-48489124D01*
X142213865Y-48490329D01*
X142221548Y-48492000D01*
X143932884Y-48492000D01*
X143948123Y-48487525D01*
X143949328Y-48486135D01*
X143950999Y-48478452D01*
X143950999Y-48403365D01*
X143950662Y-48396846D01*
X143940845Y-48302235D01*
X143937953Y-48288841D01*
X143887027Y-48136196D01*
X143880863Y-48123037D01*
X143796410Y-47986562D01*
X143787383Y-47975173D01*
X143673803Y-47861791D01*
X143662392Y-47852779D01*
X143525777Y-47768569D01*
X143512599Y-47762425D01*
X143359857Y-47711762D01*
X143346491Y-47708896D01*
X143253101Y-47699328D01*
X143246686Y-47699000D01*
X142226115Y-47699000D01*
X142210876Y-47703475D01*
X142209671Y-47704865D01*
X142208000Y-47712548D01*
X142208000Y-48473885D01*
X141192000Y-48473885D01*
X141192000Y-47717116D01*
X141187525Y-47701877D01*
X141186135Y-47700672D01*
X141178452Y-47699001D01*
X140153365Y-47699001D01*
X140146846Y-47699338D01*
X140052235Y-47709155D01*
X140038841Y-47712047D01*
X139886196Y-47762973D01*
X139873037Y-47769137D01*
X139736562Y-47853590D01*
X139725173Y-47862617D01*
X139611791Y-47976197D01*
X139602779Y-47987608D01*
X139518569Y-48124223D01*
X139512425Y-48137401D01*
X139461762Y-48290143D01*
X139458896Y-48303509D01*
X139449328Y-48396899D01*
X139449000Y-48403314D01*
X139449000Y-48473885D01*
X139000000Y-48473885D01*
X139000000Y-44966310D01*
X139020002Y-44898189D01*
X139073658Y-44851696D01*
X139143932Y-44841592D01*
X139208512Y-44871086D01*
X139215017Y-44877137D01*
X139276192Y-44938205D01*
X139287608Y-44947221D01*
X139424221Y-45031429D01*
X139437402Y-45037576D01*
X139482806Y-45052636D01*
X139496899Y-45053125D01*
X139500000Y-45046914D01*
X139500000Y-45040199D01*
X140500000Y-45040199D01*
X140503973Y-45053730D01*
X140510799Y-45054711D01*
X140563800Y-45037028D01*
X140576964Y-45030862D01*
X140713438Y-44946410D01*
X140724827Y-44937383D01*
X140838209Y-44823803D01*
X140847221Y-44812392D01*
X140931431Y-44675777D01*
X140937575Y-44662599D01*
X140988238Y-44509857D01*
X140991104Y-44496491D01*
X141000672Y-44403101D01*
X141001000Y-44396686D01*
X141001000Y-43368115D01*
X140996525Y-43352876D01*
X140995135Y-43351671D01*
X140987452Y-43350000D01*
X140518115Y-43350000D01*
X140502876Y-43354475D01*
X140501671Y-43355865D01*
X140500000Y-43363548D01*
X140500000Y-45040199D01*
X139500000Y-45040199D01*
X139500000Y-42331885D01*
X140500000Y-42331885D01*
X140504475Y-42347124D01*
X140505865Y-42348329D01*
X140513548Y-42350000D01*
X140982884Y-42350000D01*
X140998123Y-42345525D01*
X140999328Y-42344135D01*
X141000999Y-42336452D01*
X141000999Y-41303365D01*
X141000662Y-41296846D01*
X140990845Y-41202235D01*
X140987953Y-41188841D01*
X140937027Y-41036196D01*
X140930863Y-41023037D01*
X140846410Y-40886562D01*
X140837383Y-40875173D01*
X140723803Y-40761791D01*
X140712392Y-40752779D01*
X140575779Y-40668571D01*
X140562598Y-40662424D01*
X140517194Y-40647364D01*
X140503101Y-40646875D01*
X140500000Y-40653086D01*
X140500000Y-42331885D01*
X139500000Y-42331885D01*
X139500000Y-40645618D01*
X139520002Y-40577497D01*
X139544170Y-40549807D01*
X139610782Y-40492915D01*
X139626773Y-40481296D01*
X139810567Y-40368666D01*
X139828165Y-40359699D01*
X140027317Y-40277208D01*
X140046112Y-40271101D01*
X140255706Y-40220782D01*
X140275232Y-40217689D01*
X140495070Y-40200388D01*
X140504956Y-40200000D01*
X140594493Y-40200000D01*
X140605474Y-40200479D01*
X140658654Y-40205132D01*
X140832129Y-40220309D01*
X140853752Y-40224121D01*
X141019449Y-40268520D01*
X141068180Y-40281577D01*
X141088819Y-40289089D01*
X141290010Y-40382906D01*
X141309031Y-40393888D01*
X141490877Y-40521218D01*
X141507701Y-40535336D01*
X141664664Y-40692299D01*
X141678782Y-40709123D01*
X141806112Y-40890969D01*
X141817094Y-40909990D01*
X141910911Y-41111181D01*
X141918423Y-41131820D01*
X141964389Y-41303365D01*
X141975878Y-41346244D01*
X141979692Y-41367874D01*
X141999521Y-41594526D01*
X142000000Y-41605507D01*
X142000000Y-43000000D01*
X144411286Y-45411286D01*
X144416923Y-45417303D01*
X144581264Y-45604698D01*
X144591297Y-45617774D01*
X144727463Y-45821561D01*
X144735704Y-45835835D01*
X144844106Y-46055653D01*
X144850413Y-46070879D01*
X144929197Y-46302968D01*
X144933463Y-46318889D01*
X144981279Y-46559277D01*
X144983430Y-46575617D01*
X144999730Y-46824308D01*
X145000000Y-46832549D01*
X145000000Y-52000000D01*
X151000000Y-52000000D01*
X151000000Y-49596635D01*
X151449001Y-49596635D01*
X151449338Y-49603154D01*
X151459155Y-49697765D01*
X151462047Y-49711159D01*
X151512973Y-49863804D01*
X151519137Y-49876963D01*
X151603590Y-50013438D01*
X151612617Y-50024827D01*
X151726197Y-50138209D01*
X151737608Y-50147221D01*
X151874223Y-50231431D01*
X151887401Y-50237575D01*
X152040143Y-50288238D01*
X152053509Y-50291104D01*
X152146899Y-50300672D01*
X152153314Y-50301000D01*
X153173885Y-50301000D01*
X153189124Y-50296525D01*
X153190329Y-50295135D01*
X153192000Y-50287452D01*
X153192000Y-50282884D01*
X154208000Y-50282884D01*
X154212475Y-50298123D01*
X154213865Y-50299328D01*
X154221548Y-50300999D01*
X155246635Y-50300999D01*
X155253154Y-50300662D01*
X155347765Y-50290845D01*
X155361159Y-50287953D01*
X155513804Y-50237027D01*
X155526963Y-50230863D01*
X155663438Y-50146410D01*
X155674827Y-50137383D01*
X155788209Y-50023803D01*
X155797221Y-50012392D01*
X155881431Y-49875777D01*
X155887575Y-49862599D01*
X155938238Y-49709857D01*
X155941104Y-49696491D01*
X155950672Y-49603101D01*
X155951000Y-49596686D01*
X155951000Y-49526115D01*
X155946525Y-49510876D01*
X155945135Y-49509671D01*
X155937452Y-49508000D01*
X154226115Y-49508000D01*
X154210876Y-49512475D01*
X154209671Y-49513865D01*
X154208000Y-49521548D01*
X154208000Y-50282884D01*
X153192000Y-50282884D01*
X153192000Y-49526115D01*
X153187525Y-49510876D01*
X153186135Y-49509671D01*
X153178452Y-49508000D01*
X151467116Y-49508000D01*
X151451877Y-49512475D01*
X151450672Y-49513865D01*
X151449001Y-49521548D01*
X151449001Y-49596635D01*
X151000000Y-49596635D01*
X151000000Y-48473885D01*
X151449000Y-48473885D01*
X151453475Y-48489124D01*
X151454865Y-48490329D01*
X151462548Y-48492000D01*
X153173885Y-48492000D01*
X153189124Y-48487525D01*
X153190329Y-48486135D01*
X153192000Y-48478452D01*
X153192000Y-48473885D01*
X154208000Y-48473885D01*
X154212475Y-48489124D01*
X154213865Y-48490329D01*
X154221548Y-48492000D01*
X155932884Y-48492000D01*
X155948123Y-48487525D01*
X155949328Y-48486135D01*
X155950999Y-48478452D01*
X155950999Y-48403365D01*
X155950662Y-48396846D01*
X155940845Y-48302235D01*
X155937953Y-48288841D01*
X155887027Y-48136196D01*
X155880863Y-48123037D01*
X155796410Y-47986562D01*
X155787383Y-47975173D01*
X155673803Y-47861791D01*
X155662392Y-47852779D01*
X155525777Y-47768569D01*
X155512599Y-47762425D01*
X155359857Y-47711762D01*
X155346491Y-47708896D01*
X155253101Y-47699328D01*
X155246686Y-47699000D01*
X154226115Y-47699000D01*
X154210876Y-47703475D01*
X154209671Y-47704865D01*
X154208000Y-47712548D01*
X154208000Y-48473885D01*
X153192000Y-48473885D01*
X153192000Y-47717116D01*
X153187525Y-47701877D01*
X153186135Y-47700672D01*
X153178452Y-47699001D01*
X152153365Y-47699001D01*
X152146846Y-47699338D01*
X152052235Y-47709155D01*
X152038841Y-47712047D01*
X151886196Y-47762973D01*
X151873037Y-47769137D01*
X151736562Y-47853590D01*
X151725173Y-47862617D01*
X151611791Y-47976197D01*
X151602779Y-47987608D01*
X151518569Y-48124223D01*
X151512425Y-48137401D01*
X151461762Y-48290143D01*
X151458896Y-48303509D01*
X151449328Y-48396899D01*
X151449000Y-48403314D01*
X151449000Y-48473885D01*
X151000000Y-48473885D01*
X151000000Y-44966310D01*
X151020002Y-44898189D01*
X151073658Y-44851696D01*
X151143932Y-44841592D01*
X151208512Y-44871086D01*
X151215017Y-44877137D01*
X151276192Y-44938205D01*
X151287608Y-44947221D01*
X151424221Y-45031429D01*
X151437402Y-45037576D01*
X151482806Y-45052636D01*
X151496899Y-45053125D01*
X151500000Y-45046914D01*
X151500000Y-45040199D01*
X152500000Y-45040199D01*
X152503973Y-45053730D01*
X152510799Y-45054711D01*
X152563800Y-45037028D01*
X152576964Y-45030862D01*
X152713438Y-44946410D01*
X152724827Y-44937383D01*
X152838209Y-44823803D01*
X152847221Y-44812392D01*
X152931431Y-44675777D01*
X152937575Y-44662599D01*
X152988238Y-44509857D01*
X152991104Y-44496491D01*
X153000672Y-44403101D01*
X153001000Y-44396686D01*
X153001000Y-43368115D01*
X152996525Y-43352876D01*
X152995135Y-43351671D01*
X152987452Y-43350000D01*
X152518115Y-43350000D01*
X152502876Y-43354475D01*
X152501671Y-43355865D01*
X152500000Y-43363548D01*
X152500000Y-45040199D01*
X151500000Y-45040199D01*
X151500000Y-42331885D01*
X152500000Y-42331885D01*
X152504475Y-42347124D01*
X152505865Y-42348329D01*
X152513548Y-42350000D01*
X152982884Y-42350000D01*
X152998123Y-42345525D01*
X152999328Y-42344135D01*
X153000999Y-42336452D01*
X153000999Y-41303365D01*
X153000662Y-41296846D01*
X152990845Y-41202235D01*
X152987953Y-41188841D01*
X152937027Y-41036196D01*
X152930863Y-41023037D01*
X152846410Y-40886562D01*
X152837383Y-40875173D01*
X152723803Y-40761791D01*
X152712392Y-40752779D01*
X152575779Y-40668571D01*
X152562598Y-40662424D01*
X152517194Y-40647364D01*
X152503101Y-40646875D01*
X152500000Y-40653086D01*
X152500000Y-42331885D01*
X151500000Y-42331885D01*
X151500000Y-40645618D01*
X151520002Y-40577497D01*
X151544170Y-40549807D01*
X151610782Y-40492915D01*
X151626773Y-40481296D01*
X151810567Y-40368666D01*
X151828165Y-40359699D01*
X152027317Y-40277208D01*
X152046112Y-40271101D01*
X152255706Y-40220782D01*
X152275232Y-40217689D01*
X152495070Y-40200388D01*
X152504956Y-40200000D01*
X152594493Y-40200000D01*
X152605474Y-40200479D01*
X152658654Y-40205132D01*
X152832129Y-40220309D01*
X152853752Y-40224121D01*
X153019449Y-40268520D01*
X153068180Y-40281577D01*
X153088819Y-40289089D01*
X153290010Y-40382906D01*
X153309031Y-40393888D01*
X153490877Y-40521218D01*
X153507701Y-40535336D01*
X153664664Y-40692299D01*
X153678782Y-40709123D01*
X153806112Y-40890969D01*
X153817094Y-40909990D01*
X153910911Y-41111181D01*
X153918423Y-41131820D01*
X153964389Y-41303365D01*
X153975878Y-41346244D01*
X153979692Y-41367874D01*
X153999521Y-41594526D01*
X154000000Y-41605507D01*
X154000000Y-43000000D01*
X156411286Y-45411286D01*
X156416923Y-45417303D01*
X156581264Y-45604698D01*
X156591297Y-45617774D01*
X156727463Y-45821561D01*
X156735704Y-45835835D01*
X156844106Y-46055653D01*
X156850413Y-46070879D01*
X156929197Y-46302968D01*
X156933463Y-46318889D01*
X156981279Y-46559277D01*
X156983430Y-46575617D01*
X156999730Y-46824308D01*
X157000000Y-46832549D01*
X157000000Y-52495499D01*
X156999679Y-52504487D01*
X156980286Y-52775645D01*
X156977728Y-52793433D01*
X156920903Y-53054654D01*
X156915840Y-53071900D01*
X156822411Y-53322393D01*
X156814945Y-53338740D01*
X156686824Y-53573375D01*
X156677105Y-53588498D01*
X156516897Y-53802510D01*
X156505124Y-53816096D01*
X156316096Y-54005124D01*
X156302510Y-54016897D01*
X156088498Y-54177105D01*
X156073375Y-54186824D01*
X155838740Y-54314945D01*
X155822393Y-54322411D01*
X155571900Y-54415840D01*
X155554658Y-54420902D01*
X155293433Y-54477728D01*
X155275650Y-54480285D01*
X155053871Y-54496147D01*
X155004487Y-54499679D01*
X154995499Y-54500000D01*
X104104501Y-54500000D01*
X104095513Y-54499679D01*
X104046129Y-54496147D01*
X103824350Y-54480285D01*
X103806567Y-54477728D01*
X103545342Y-54420902D01*
X103528100Y-54415840D01*
X103277607Y-54322411D01*
X103261260Y-54314945D01*
X103026625Y-54186824D01*
X103011502Y-54177105D01*
X102797490Y-54016897D01*
X102783904Y-54005124D01*
X102594876Y-53816096D01*
X102583103Y-53802510D01*
X102422895Y-53588498D01*
X102413176Y-53573375D01*
X102285055Y-53338740D01*
X102277589Y-53322393D01*
X102184160Y-53071900D01*
X102179097Y-53054654D01*
X102122272Y-52793433D01*
X102119714Y-52775645D01*
X102100321Y-52504487D01*
X102100000Y-52495499D01*
X102100000Y-48104501D01*
X102100321Y-48095513D01*
X102108294Y-47984033D01*
X102119715Y-47824350D01*
X102122272Y-47806567D01*
X102179098Y-47545342D01*
X102184161Y-47528097D01*
X102198781Y-47488899D01*
X104641360Y-47488899D01*
X104647571Y-47492000D01*
X105473885Y-47492000D01*
X105489124Y-47487525D01*
X105490329Y-47486135D01*
X105492000Y-47478452D01*
X105492000Y-47473885D01*
X106508000Y-47473885D01*
X106512475Y-47489124D01*
X106513865Y-47490329D01*
X106521548Y-47492000D01*
X107345892Y-47492000D01*
X107359423Y-47488027D01*
X107360404Y-47481201D01*
X107312027Y-47336196D01*
X107305863Y-47323037D01*
X107221410Y-47186562D01*
X107212383Y-47175173D01*
X107098803Y-47061791D01*
X107087392Y-47052779D01*
X106950777Y-46968569D01*
X106937599Y-46962425D01*
X106784857Y-46911762D01*
X106771491Y-46908896D01*
X106678101Y-46899328D01*
X106671686Y-46899000D01*
X106526115Y-46899000D01*
X106510876Y-46903475D01*
X106509671Y-46904865D01*
X106508000Y-46912548D01*
X106508000Y-47473885D01*
X105492000Y-47473885D01*
X105492000Y-46917116D01*
X105487525Y-46901877D01*
X105486135Y-46900672D01*
X105478452Y-46899001D01*
X105328365Y-46899001D01*
X105321846Y-46899338D01*
X105227235Y-46909155D01*
X105213841Y-46912047D01*
X105061196Y-46962973D01*
X105048037Y-46969137D01*
X104911562Y-47053590D01*
X104900173Y-47062617D01*
X104786791Y-47176197D01*
X104777779Y-47187608D01*
X104693569Y-47324223D01*
X104687425Y-47337401D01*
X104641849Y-47474806D01*
X104641360Y-47488899D01*
X102198781Y-47488899D01*
X102277589Y-47277607D01*
X102285055Y-47261260D01*
X102413176Y-47026625D01*
X102422895Y-47011502D01*
X102583103Y-46797490D01*
X102594876Y-46783904D01*
X102783904Y-46594876D01*
X102797490Y-46583103D01*
X103011502Y-46422895D01*
X103026625Y-46413176D01*
X103261260Y-46285055D01*
X103277607Y-46277589D01*
X103528100Y-46184160D01*
X103545342Y-46179098D01*
X103806567Y-46122272D01*
X103824350Y-46119715D01*
X104046129Y-46103853D01*
X104095513Y-46100321D01*
X104104501Y-46100000D01*
X107044494Y-46100000D01*
X107055475Y-46100479D01*
X107256080Y-46118029D01*
X107277707Y-46121843D01*
X107372293Y-46147187D01*
X107466877Y-46172531D01*
X107487516Y-46180043D01*
X107665013Y-46262811D01*
X107684033Y-46273793D01*
X107844456Y-46386122D01*
X107861281Y-46400240D01*
X107999760Y-46538719D01*
X108013878Y-46555544D01*
X108126207Y-46715967D01*
X108137189Y-46734987D01*
X108219957Y-46912484D01*
X108227469Y-46933123D01*
X108278157Y-47122292D01*
X108281971Y-47143920D01*
X108285701Y-47186562D01*
X108299039Y-47339019D01*
X108299039Y-47360981D01*
X108281971Y-47556078D01*
X108278157Y-47577708D01*
X108227469Y-47766877D01*
X108219957Y-47787516D01*
X108137189Y-47965013D01*
X108126207Y-47984033D01*
X108013878Y-48144456D01*
X107999760Y-48161281D01*
X107861281Y-48299760D01*
X107844456Y-48313878D01*
X107684033Y-48426207D01*
X107665013Y-48437189D01*
X107487516Y-48519957D01*
X107466906Y-48527461D01*
X107465494Y-48527840D01*
X107463952Y-48528253D01*
X107392976Y-48526580D01*
X107375029Y-48519284D01*
X107352429Y-48508000D01*
X104654108Y-48508000D01*
X104640577Y-48511973D01*
X104639596Y-48518799D01*
X104666687Y-48600000D01*
X104600000Y-48600000D01*
X104600000Y-52000000D01*
X115000000Y-52000000D01*
X115000000Y-49596635D01*
X115449001Y-49596635D01*
X115449338Y-49603154D01*
X115459155Y-49697765D01*
X115462047Y-49711159D01*
X115512973Y-49863804D01*
X115519137Y-49876963D01*
X115603590Y-50013438D01*
X115612617Y-50024827D01*
X115726197Y-50138209D01*
X115737608Y-50147221D01*
X115874223Y-50231431D01*
X115887401Y-50237575D01*
X116040143Y-50288238D01*
X116053509Y-50291104D01*
X116146899Y-50300672D01*
X116153314Y-50301000D01*
X117173885Y-50301000D01*
X117189124Y-50296525D01*
X117190329Y-50295135D01*
X117192000Y-50287452D01*
X117192000Y-50282884D01*
X118208000Y-50282884D01*
X118212475Y-50298123D01*
X118213865Y-50299328D01*
X118221548Y-50300999D01*
X119246635Y-50300999D01*
X119253154Y-50300662D01*
X119347765Y-50290845D01*
X119361159Y-50287953D01*
X119513804Y-50237027D01*
X119526963Y-50230863D01*
X119663438Y-50146410D01*
X119674827Y-50137383D01*
X119788209Y-50023803D01*
X119797221Y-50012392D01*
X119881431Y-49875777D01*
X119887575Y-49862599D01*
X119938238Y-49709857D01*
X119941104Y-49696491D01*
X119950672Y-49603101D01*
X119951000Y-49596686D01*
X119951000Y-49526115D01*
X119946525Y-49510876D01*
X119945135Y-49509671D01*
X119937452Y-49508000D01*
X118226115Y-49508000D01*
X118210876Y-49512475D01*
X118209671Y-49513865D01*
X118208000Y-49521548D01*
X118208000Y-50282884D01*
X117192000Y-50282884D01*
X117192000Y-49526115D01*
X117187525Y-49510876D01*
X117186135Y-49509671D01*
X117178452Y-49508000D01*
X115467116Y-49508000D01*
X115451877Y-49512475D01*
X115450672Y-49513865D01*
X115449001Y-49521548D01*
X115449001Y-49596635D01*
X115000000Y-49596635D01*
X115000000Y-48473885D01*
X115449000Y-48473885D01*
X115453475Y-48489124D01*
X115454865Y-48490329D01*
X115462548Y-48492000D01*
X117173885Y-48492000D01*
X117189124Y-48487525D01*
X117190329Y-48486135D01*
X117192000Y-48478452D01*
X117192000Y-48473885D01*
X118208000Y-48473885D01*
X118212475Y-48489124D01*
X118213865Y-48490329D01*
X118221548Y-48492000D01*
X119932884Y-48492000D01*
X119948123Y-48487525D01*
X119949328Y-48486135D01*
X119950999Y-48478452D01*
X119950999Y-48403365D01*
X119950662Y-48396846D01*
X119940845Y-48302235D01*
X119937953Y-48288841D01*
X119887027Y-48136196D01*
X119880863Y-48123037D01*
X119796410Y-47986562D01*
X119787383Y-47975173D01*
X119673803Y-47861791D01*
X119662392Y-47852779D01*
X119525777Y-47768569D01*
X119512599Y-47762425D01*
X119359857Y-47711762D01*
X119346491Y-47708896D01*
X119253101Y-47699328D01*
X119246686Y-47699000D01*
X118226115Y-47699000D01*
X118210876Y-47703475D01*
X118209671Y-47704865D01*
X118208000Y-47712548D01*
X118208000Y-48473885D01*
X117192000Y-48473885D01*
X117192000Y-47717116D01*
X117187525Y-47701877D01*
X117186135Y-47700672D01*
X117178452Y-47699001D01*
X116153365Y-47699001D01*
X116146846Y-47699338D01*
X116052235Y-47709155D01*
X116038841Y-47712047D01*
X115886196Y-47762973D01*
X115873037Y-47769137D01*
X115736562Y-47853590D01*
X115725173Y-47862617D01*
X115611791Y-47976197D01*
X115602779Y-47987608D01*
X115518569Y-48124223D01*
X115512425Y-48137401D01*
X115461762Y-48290143D01*
X115458896Y-48303509D01*
X115449328Y-48396899D01*
X115449000Y-48403314D01*
X115449000Y-48473885D01*
X115000000Y-48473885D01*
X115000000Y-44966310D01*
X115020002Y-44898189D01*
X115073658Y-44851696D01*
X115143932Y-44841592D01*
X115208512Y-44871086D01*
X115215017Y-44877137D01*
X115276192Y-44938205D01*
X115287608Y-44947221D01*
X115424221Y-45031429D01*
X115437402Y-45037576D01*
X115482806Y-45052636D01*
X115496899Y-45053125D01*
X115500000Y-45046914D01*
X115500000Y-45040199D01*
X116500000Y-45040199D01*
X116503973Y-45053730D01*
X116510799Y-45054711D01*
X116563800Y-45037028D01*
X116576964Y-45030862D01*
X116713438Y-44946410D01*
X116724827Y-44937383D01*
X116838209Y-44823803D01*
X116847221Y-44812392D01*
X116931431Y-44675777D01*
X116937575Y-44662599D01*
X116988238Y-44509857D01*
X116991104Y-44496491D01*
X117000672Y-44403101D01*
X117001000Y-44396686D01*
X117001000Y-43368115D01*
X116996525Y-43352876D01*
X116995135Y-43351671D01*
X116987452Y-43350000D01*
X116518115Y-43350000D01*
X116502876Y-43354475D01*
X116501671Y-43355865D01*
X116500000Y-43363548D01*
X116500000Y-45040199D01*
X115500000Y-45040199D01*
X115500000Y-42331885D01*
X116500000Y-42331885D01*
X116504475Y-42347124D01*
X116505865Y-42348329D01*
X116513548Y-42350000D01*
X116982884Y-42350000D01*
X116998123Y-42345525D01*
X116999328Y-42344135D01*
X117000999Y-42336452D01*
X117000999Y-41303365D01*
X117000662Y-41296846D01*
X116990845Y-41202235D01*
X116987953Y-41188841D01*
X116937027Y-41036196D01*
X116930863Y-41023037D01*
X116846410Y-40886562D01*
X116837383Y-40875173D01*
X116723803Y-40761791D01*
X116712392Y-40752779D01*
X116575779Y-40668571D01*
X116562598Y-40662424D01*
X116517194Y-40647364D01*
X116503101Y-40646875D01*
X116500000Y-40653086D01*
X116500000Y-42331885D01*
X115500000Y-42331885D01*
X115500000Y-40645618D01*
X115520002Y-40577497D01*
X115544170Y-40549807D01*
X115610782Y-40492915D01*
X115626773Y-40481296D01*
X115810567Y-40368666D01*
X115828165Y-40359699D01*
X116027317Y-40277208D01*
X116046112Y-40271101D01*
X116255706Y-40220782D01*
X116275232Y-40217689D01*
X116495070Y-40200388D01*
X116504956Y-40200000D01*
X116594493Y-40200000D01*
X116605474Y-40200479D01*
G37*
%TD.AperFunction*%
%TD*%
%TA.AperFunction,Conductor*%
%TO.N,GND*%
G36*
X108376291Y-35274002D02*
G01*
X108422784Y-35327658D01*
X108432888Y-35397932D01*
X108427763Y-35419667D01*
X108404861Y-35488716D01*
X108401995Y-35502081D01*
X108392328Y-35596439D01*
X108392000Y-35602855D01*
X108392000Y-36573885D01*
X108396475Y-36589124D01*
X108397865Y-36590329D01*
X108405548Y-36592000D01*
X110889885Y-36592000D01*
X110905124Y-36587525D01*
X110906329Y-36586135D01*
X110908000Y-36578452D01*
X110908000Y-35602904D01*
X110907663Y-35596389D01*
X110897744Y-35500797D01*
X110894850Y-35487398D01*
X110872323Y-35419876D01*
X110869739Y-35348927D01*
X110905922Y-35287843D01*
X110969387Y-35256018D01*
X110991847Y-35254000D01*
X117008170Y-35254000D01*
X117076291Y-35274002D01*
X117122784Y-35327658D01*
X117132888Y-35397932D01*
X117127763Y-35419667D01*
X117104861Y-35488716D01*
X117101995Y-35502081D01*
X117092328Y-35596439D01*
X117092000Y-35602856D01*
X117092000Y-36573885D01*
X117096475Y-36589124D01*
X117097865Y-36590329D01*
X117105548Y-36592000D01*
X119589885Y-36592000D01*
X119605124Y-36587525D01*
X119606329Y-36586135D01*
X119608000Y-36578452D01*
X119608000Y-35602904D01*
X119607663Y-35596389D01*
X119597744Y-35500797D01*
X119594850Y-35487398D01*
X119572323Y-35419876D01*
X119569739Y-35348927D01*
X119605922Y-35287843D01*
X119669387Y-35256018D01*
X119691847Y-35254000D01*
X120308170Y-35254000D01*
X120376291Y-35274002D01*
X120422784Y-35327658D01*
X120432888Y-35397932D01*
X120427763Y-35419667D01*
X120404861Y-35488716D01*
X120401995Y-35502081D01*
X120392328Y-35596439D01*
X120392000Y-35602856D01*
X120392000Y-36573885D01*
X120396475Y-36589124D01*
X120397865Y-36590329D01*
X120405548Y-36592000D01*
X122889885Y-36592000D01*
X122905124Y-36587525D01*
X122906329Y-36586135D01*
X122908000Y-36578452D01*
X122908000Y-35602904D01*
X122907663Y-35596389D01*
X122897744Y-35500797D01*
X122894850Y-35487398D01*
X122872323Y-35419876D01*
X122869739Y-35348927D01*
X122905922Y-35287843D01*
X122969387Y-35256018D01*
X122991847Y-35254000D01*
X129008170Y-35254000D01*
X129076291Y-35274002D01*
X129122784Y-35327658D01*
X129132888Y-35397932D01*
X129127763Y-35419667D01*
X129104861Y-35488716D01*
X129101995Y-35502081D01*
X129092328Y-35596439D01*
X129092000Y-35602856D01*
X129092000Y-36573885D01*
X129096475Y-36589124D01*
X129097865Y-36590329D01*
X129105548Y-36592000D01*
X131589885Y-36592000D01*
X131605124Y-36587525D01*
X131606329Y-36586135D01*
X131608000Y-36578452D01*
X131608000Y-35602904D01*
X131607663Y-35596389D01*
X131597744Y-35500797D01*
X131594850Y-35487398D01*
X131572323Y-35419876D01*
X131569739Y-35348927D01*
X131605922Y-35287843D01*
X131669387Y-35256018D01*
X131691847Y-35254000D01*
X132308170Y-35254000D01*
X132376291Y-35274002D01*
X132422784Y-35327658D01*
X132432888Y-35397932D01*
X132427763Y-35419667D01*
X132404861Y-35488716D01*
X132401995Y-35502081D01*
X132392328Y-35596439D01*
X132392000Y-35602856D01*
X132392000Y-36573885D01*
X132396475Y-36589124D01*
X132397865Y-36590329D01*
X132405548Y-36592000D01*
X134889885Y-36592000D01*
X134905124Y-36587525D01*
X134906329Y-36586135D01*
X134908000Y-36578452D01*
X134908000Y-35602904D01*
X134907663Y-35596389D01*
X134897744Y-35500797D01*
X134894850Y-35487398D01*
X134872323Y-35419876D01*
X134869739Y-35348927D01*
X134905922Y-35287843D01*
X134969387Y-35256018D01*
X134991847Y-35254000D01*
X141008170Y-35254000D01*
X141076291Y-35274002D01*
X141122784Y-35327658D01*
X141132888Y-35397932D01*
X141127763Y-35419667D01*
X141104861Y-35488716D01*
X141101995Y-35502081D01*
X141092328Y-35596439D01*
X141092000Y-35602856D01*
X141092000Y-36573885D01*
X141096475Y-36589124D01*
X141097865Y-36590329D01*
X141105548Y-36592000D01*
X143589885Y-36592000D01*
X143605124Y-36587525D01*
X143606329Y-36586135D01*
X143608000Y-36578452D01*
X143608000Y-35602904D01*
X143607663Y-35596389D01*
X143597744Y-35500797D01*
X143594850Y-35487398D01*
X143572323Y-35419876D01*
X143569739Y-35348927D01*
X143605922Y-35287843D01*
X143669387Y-35256018D01*
X143691847Y-35254000D01*
X144308170Y-35254000D01*
X144376291Y-35274002D01*
X144422784Y-35327658D01*
X144432888Y-35397932D01*
X144427763Y-35419667D01*
X144404861Y-35488716D01*
X144401995Y-35502081D01*
X144392328Y-35596439D01*
X144392000Y-35602856D01*
X144392000Y-36573885D01*
X144396475Y-36589124D01*
X144397865Y-36590329D01*
X144405548Y-36592000D01*
X146889885Y-36592000D01*
X146905124Y-36587525D01*
X146906329Y-36586135D01*
X146908000Y-36578452D01*
X146908000Y-35602904D01*
X146907663Y-35596389D01*
X146897744Y-35500797D01*
X146894850Y-35487398D01*
X146872323Y-35419876D01*
X146869739Y-35348927D01*
X146905922Y-35287843D01*
X146969387Y-35256018D01*
X146991847Y-35254000D01*
X153008170Y-35254000D01*
X153076291Y-35274002D01*
X153122784Y-35327658D01*
X153132888Y-35397932D01*
X153127763Y-35419667D01*
X153104861Y-35488716D01*
X153101995Y-35502081D01*
X153092328Y-35596439D01*
X153092000Y-35602856D01*
X153092000Y-36573885D01*
X153096475Y-36589124D01*
X153097865Y-36590329D01*
X153105548Y-36592000D01*
X155589885Y-36592000D01*
X155605124Y-36587525D01*
X155606329Y-36586135D01*
X155608000Y-36578452D01*
X155608000Y-35602904D01*
X155607663Y-35596389D01*
X155597744Y-35500797D01*
X155594850Y-35487398D01*
X155572323Y-35419876D01*
X155569739Y-35348927D01*
X155605922Y-35287843D01*
X155669387Y-35256018D01*
X155691847Y-35254000D01*
X163120000Y-35254000D01*
X163188121Y-35274002D01*
X163234614Y-35327658D01*
X163246000Y-35380000D01*
X163246000Y-62620000D01*
X163225998Y-62688121D01*
X163172342Y-62734614D01*
X163120000Y-62746000D01*
X100880000Y-62746000D01*
X100811879Y-62725998D01*
X100765386Y-62672342D01*
X100754000Y-62620000D01*
X100754000Y-59042186D01*
X102641018Y-59042186D01*
X102666579Y-59310100D01*
X102667664Y-59314534D01*
X102667665Y-59314540D01*
X102729461Y-59567080D01*
X102730547Y-59571518D01*
X102831583Y-59820963D01*
X102967569Y-60053210D01*
X103135658Y-60263395D01*
X103332327Y-60447113D01*
X103553457Y-60600516D01*
X103794416Y-60720391D01*
X103798750Y-60721812D01*
X103798753Y-60721813D01*
X104045823Y-60802807D01*
X104045829Y-60802808D01*
X104050156Y-60804227D01*
X104054647Y-60805007D01*
X104054648Y-60805007D01*
X104311538Y-60849611D01*
X104311546Y-60849612D01*
X104315319Y-60850267D01*
X104319156Y-60850458D01*
X104398777Y-60854422D01*
X104398785Y-60854422D01*
X104400348Y-60854500D01*
X104568374Y-60854500D01*
X104570642Y-60854335D01*
X104570654Y-60854335D01*
X104701457Y-60844844D01*
X104768425Y-60839985D01*
X104772880Y-60839001D01*
X104772883Y-60839001D01*
X105026770Y-60782947D01*
X105026772Y-60782946D01*
X105031226Y-60781963D01*
X105282900Y-60686613D01*
X105518172Y-60555931D01*
X105664842Y-60443996D01*
X105728491Y-60395421D01*
X105728495Y-60395417D01*
X105732116Y-60392654D01*
X105920249Y-60200203D01*
X105975833Y-60123839D01*
X106075942Y-59986304D01*
X106075947Y-59986297D01*
X106078630Y-59982610D01*
X106203941Y-59744433D01*
X106229253Y-59672756D01*
X112191500Y-59672756D01*
X112191869Y-59676152D01*
X112191869Y-59676153D01*
X112195990Y-59714082D01*
X112198202Y-59734448D01*
X112248929Y-59869764D01*
X112254309Y-59876943D01*
X112254311Y-59876946D01*
X112293752Y-59929572D01*
X112335596Y-59985404D01*
X112342776Y-59990785D01*
X112444054Y-60066689D01*
X112444057Y-60066691D01*
X112451236Y-60072071D01*
X112536384Y-60103991D01*
X112579157Y-60120026D01*
X112579159Y-60120026D01*
X112586552Y-60122798D01*
X112594402Y-60123651D01*
X112594403Y-60123651D01*
X112596134Y-60123839D01*
X112648244Y-60129500D01*
X113443756Y-60129500D01*
X113495866Y-60123839D01*
X113497597Y-60123651D01*
X113497598Y-60123651D01*
X113505448Y-60122798D01*
X113512841Y-60120026D01*
X113512843Y-60120026D01*
X113555616Y-60103991D01*
X113640764Y-60072071D01*
X113647943Y-60066691D01*
X113647946Y-60066689D01*
X113749224Y-59990785D01*
X113756404Y-59985404D01*
X113798248Y-59929572D01*
X113837689Y-59876946D01*
X113837691Y-59876943D01*
X113843071Y-59869764D01*
X113893798Y-59734448D01*
X113896011Y-59714082D01*
X113900131Y-59676153D01*
X113900131Y-59676152D01*
X113900500Y-59672756D01*
X113900500Y-59321385D01*
X114191500Y-59321385D01*
X114206512Y-59459573D01*
X114265730Y-59635535D01*
X114361351Y-59794677D01*
X114366039Y-59799634D01*
X114366041Y-59799637D01*
X114484227Y-59924614D01*
X114488916Y-59929572D01*
X114642471Y-60033928D01*
X114648805Y-60036461D01*
X114648808Y-60036463D01*
X114808516Y-60100342D01*
X114808521Y-60100343D01*
X114814853Y-60102876D01*
X114821580Y-60103990D01*
X114821585Y-60103991D01*
X114991282Y-60132084D01*
X114991285Y-60132084D01*
X114998019Y-60133199D01*
X115004836Y-60132842D01*
X115004840Y-60132842D01*
X115155920Y-60124923D01*
X115183424Y-60123482D01*
X115189996Y-60121672D01*
X115190001Y-60121671D01*
X115355835Y-60075992D01*
X115362417Y-60074179D01*
X115526648Y-59987590D01*
X115668454Y-59867755D01*
X115672602Y-59862330D01*
X115777075Y-59725685D01*
X115777077Y-59725681D01*
X115781219Y-59720264D01*
X115784102Y-59714082D01*
X115803373Y-59672756D01*
X124113500Y-59672756D01*
X124113869Y-59676152D01*
X124113869Y-59676153D01*
X124117990Y-59714082D01*
X124120202Y-59734448D01*
X124170929Y-59869764D01*
X124176309Y-59876943D01*
X124176311Y-59876946D01*
X124215752Y-59929572D01*
X124257596Y-59985404D01*
X124264776Y-59990785D01*
X124366054Y-60066689D01*
X124366057Y-60066691D01*
X124373236Y-60072071D01*
X124458384Y-60103991D01*
X124501157Y-60120026D01*
X124501159Y-60120026D01*
X124508552Y-60122798D01*
X124516402Y-60123651D01*
X124516403Y-60123651D01*
X124518134Y-60123839D01*
X124570244Y-60129500D01*
X125365756Y-60129500D01*
X125417866Y-60123839D01*
X125419597Y-60123651D01*
X125419598Y-60123651D01*
X125427448Y-60122798D01*
X125434841Y-60120026D01*
X125434843Y-60120026D01*
X125477616Y-60103991D01*
X125562764Y-60072071D01*
X125569943Y-60066691D01*
X125569946Y-60066689D01*
X125671224Y-59990785D01*
X125678404Y-59985404D01*
X125720248Y-59929572D01*
X125759689Y-59876946D01*
X125759691Y-59876943D01*
X125765071Y-59869764D01*
X125815798Y-59734448D01*
X125818011Y-59714082D01*
X125822131Y-59676153D01*
X125822131Y-59676152D01*
X125822500Y-59672756D01*
X125822500Y-59321385D01*
X126113500Y-59321385D01*
X126128512Y-59459573D01*
X126187730Y-59635535D01*
X126283351Y-59794677D01*
X126288039Y-59799634D01*
X126288041Y-59799637D01*
X126406227Y-59924614D01*
X126410916Y-59929572D01*
X126564471Y-60033928D01*
X126570805Y-60036461D01*
X126570808Y-60036463D01*
X126730516Y-60100342D01*
X126730521Y-60100343D01*
X126736853Y-60102876D01*
X126743580Y-60103990D01*
X126743585Y-60103991D01*
X126913282Y-60132084D01*
X126913285Y-60132084D01*
X126920019Y-60133199D01*
X126926836Y-60132842D01*
X126926840Y-60132842D01*
X127077920Y-60124923D01*
X127105424Y-60123482D01*
X127111996Y-60121672D01*
X127112001Y-60121671D01*
X127277835Y-60075992D01*
X127284417Y-60074179D01*
X127448648Y-59987590D01*
X127590454Y-59867755D01*
X127594602Y-59862330D01*
X127699075Y-59725685D01*
X127699077Y-59725681D01*
X127703219Y-59720264D01*
X127706102Y-59714082D01*
X127725373Y-59672756D01*
X136145500Y-59672756D01*
X136145869Y-59676152D01*
X136145869Y-59676153D01*
X136149990Y-59714082D01*
X136152202Y-59734448D01*
X136202929Y-59869764D01*
X136208309Y-59876943D01*
X136208311Y-59876946D01*
X136247752Y-59929572D01*
X136289596Y-59985404D01*
X136296776Y-59990785D01*
X136398054Y-60066689D01*
X136398057Y-60066691D01*
X136405236Y-60072071D01*
X136490384Y-60103991D01*
X136533157Y-60120026D01*
X136533159Y-60120026D01*
X136540552Y-60122798D01*
X136548402Y-60123651D01*
X136548403Y-60123651D01*
X136550134Y-60123839D01*
X136602244Y-60129500D01*
X137397756Y-60129500D01*
X137449866Y-60123839D01*
X137451597Y-60123651D01*
X137451598Y-60123651D01*
X137459448Y-60122798D01*
X137466841Y-60120026D01*
X137466843Y-60120026D01*
X137509616Y-60103991D01*
X137594764Y-60072071D01*
X137601943Y-60066691D01*
X137601946Y-60066689D01*
X137703224Y-59990785D01*
X137710404Y-59985404D01*
X137752248Y-59929572D01*
X137791689Y-59876946D01*
X137791691Y-59876943D01*
X137797071Y-59869764D01*
X137847798Y-59734448D01*
X137850011Y-59714082D01*
X137854131Y-59676153D01*
X137854131Y-59676152D01*
X137854500Y-59672756D01*
X137854500Y-59321385D01*
X138145500Y-59321385D01*
X138160512Y-59459573D01*
X138219730Y-59635535D01*
X138315351Y-59794677D01*
X138320039Y-59799634D01*
X138320041Y-59799637D01*
X138438227Y-59924614D01*
X138442916Y-59929572D01*
X138596471Y-60033928D01*
X138602805Y-60036461D01*
X138602808Y-60036463D01*
X138762516Y-60100342D01*
X138762521Y-60100343D01*
X138768853Y-60102876D01*
X138775580Y-60103990D01*
X138775585Y-60103991D01*
X138945282Y-60132084D01*
X138945285Y-60132084D01*
X138952019Y-60133199D01*
X138958836Y-60132842D01*
X138958840Y-60132842D01*
X139109920Y-60124923D01*
X139137424Y-60123482D01*
X139143996Y-60121672D01*
X139144001Y-60121671D01*
X139309835Y-60075992D01*
X139316417Y-60074179D01*
X139480648Y-59987590D01*
X139622454Y-59867755D01*
X139626602Y-59862330D01*
X139731075Y-59725685D01*
X139731077Y-59725681D01*
X139735219Y-59720264D01*
X139738102Y-59714082D01*
X139757373Y-59672756D01*
X148145500Y-59672756D01*
X148145869Y-59676152D01*
X148145869Y-59676153D01*
X148149990Y-59714082D01*
X148152202Y-59734448D01*
X148202929Y-59869764D01*
X148208309Y-59876943D01*
X148208311Y-59876946D01*
X148247752Y-59929572D01*
X148289596Y-59985404D01*
X148296776Y-59990785D01*
X148398054Y-60066689D01*
X148398057Y-60066691D01*
X148405236Y-60072071D01*
X148490384Y-60103991D01*
X148533157Y-60120026D01*
X148533159Y-60120026D01*
X148540552Y-60122798D01*
X148548402Y-60123651D01*
X148548403Y-60123651D01*
X148550134Y-60123839D01*
X148602244Y-60129500D01*
X149397756Y-60129500D01*
X149449866Y-60123839D01*
X149451597Y-60123651D01*
X149451598Y-60123651D01*
X149459448Y-60122798D01*
X149466841Y-60120026D01*
X149466843Y-60120026D01*
X149509616Y-60103991D01*
X149594764Y-60072071D01*
X149601943Y-60066691D01*
X149601946Y-60066689D01*
X149703224Y-59990785D01*
X149710404Y-59985404D01*
X149752248Y-59929572D01*
X149791689Y-59876946D01*
X149791691Y-59876943D01*
X149797071Y-59869764D01*
X149847798Y-59734448D01*
X149850011Y-59714082D01*
X149854131Y-59676153D01*
X149854131Y-59676152D01*
X149854500Y-59672756D01*
X149854500Y-59321385D01*
X150145500Y-59321385D01*
X150160512Y-59459573D01*
X150219730Y-59635535D01*
X150315351Y-59794677D01*
X150320039Y-59799634D01*
X150320041Y-59799637D01*
X150438227Y-59924614D01*
X150442916Y-59929572D01*
X150596471Y-60033928D01*
X150602805Y-60036461D01*
X150602808Y-60036463D01*
X150762516Y-60100342D01*
X150762521Y-60100343D01*
X150768853Y-60102876D01*
X150775580Y-60103990D01*
X150775585Y-60103991D01*
X150945282Y-60132084D01*
X150945285Y-60132084D01*
X150952019Y-60133199D01*
X150958836Y-60132842D01*
X150958840Y-60132842D01*
X151109920Y-60124923D01*
X151137424Y-60123482D01*
X151143996Y-60121672D01*
X151144001Y-60121671D01*
X151309835Y-60075992D01*
X151316417Y-60074179D01*
X151480648Y-59987590D01*
X151622454Y-59867755D01*
X151626602Y-59862330D01*
X151731075Y-59725685D01*
X151731077Y-59725681D01*
X151735219Y-59720264D01*
X151738102Y-59714082D01*
X151810802Y-59558177D01*
X151810803Y-59558174D01*
X151813682Y-59552000D01*
X151826429Y-59494975D01*
X151853056Y-59375849D01*
X151854182Y-59370812D01*
X151854500Y-59365124D01*
X151854500Y-59042186D01*
X157641018Y-59042186D01*
X157666579Y-59310100D01*
X157667664Y-59314534D01*
X157667665Y-59314540D01*
X157729461Y-59567080D01*
X157730547Y-59571518D01*
X157831583Y-59820963D01*
X157967569Y-60053210D01*
X158135658Y-60263395D01*
X158332327Y-60447113D01*
X158553457Y-60600516D01*
X158794416Y-60720391D01*
X158798750Y-60721812D01*
X158798753Y-60721813D01*
X159045823Y-60802807D01*
X159045829Y-60802808D01*
X159050156Y-60804227D01*
X159054647Y-60805007D01*
X159054648Y-60805007D01*
X159311538Y-60849611D01*
X159311546Y-60849612D01*
X159315319Y-60850267D01*
X159319156Y-60850458D01*
X159398777Y-60854422D01*
X159398785Y-60854422D01*
X159400348Y-60854500D01*
X159568374Y-60854500D01*
X159570642Y-60854335D01*
X159570654Y-60854335D01*
X159701457Y-60844844D01*
X159768425Y-60839985D01*
X159772880Y-60839001D01*
X159772883Y-60839001D01*
X160026770Y-60782947D01*
X160026772Y-60782946D01*
X160031226Y-60781963D01*
X160282900Y-60686613D01*
X160518172Y-60555931D01*
X160664842Y-60443996D01*
X160728491Y-60395421D01*
X160728495Y-60395417D01*
X160732116Y-60392654D01*
X160920249Y-60200203D01*
X160975833Y-60123839D01*
X161075942Y-59986304D01*
X161075947Y-59986297D01*
X161078630Y-59982610D01*
X161203941Y-59744433D01*
X161293557Y-59490662D01*
X161327595Y-59317968D01*
X161344720Y-59231083D01*
X161344721Y-59231077D01*
X161345601Y-59226611D01*
X161354782Y-59042186D01*
X161358755Y-58962383D01*
X161358755Y-58962377D01*
X161358982Y-58957814D01*
X161333421Y-58689900D01*
X161329829Y-58675218D01*
X161270539Y-58432920D01*
X161269453Y-58428482D01*
X161168417Y-58179037D01*
X161032431Y-57946790D01*
X160864342Y-57736605D01*
X160667673Y-57552887D01*
X160446543Y-57399484D01*
X160205584Y-57279609D01*
X160201250Y-57278188D01*
X160201247Y-57278187D01*
X159954177Y-57197193D01*
X159954171Y-57197192D01*
X159949844Y-57195773D01*
X159945352Y-57194993D01*
X159688462Y-57150389D01*
X159688454Y-57150388D01*
X159684681Y-57149733D01*
X159674718Y-57149237D01*
X159601223Y-57145578D01*
X159601215Y-57145578D01*
X159599652Y-57145500D01*
X159431626Y-57145500D01*
X159429358Y-57145665D01*
X159429346Y-57145665D01*
X159298543Y-57155156D01*
X159231575Y-57160015D01*
X159227120Y-57160999D01*
X159227117Y-57160999D01*
X158973230Y-57217053D01*
X158973228Y-57217054D01*
X158968774Y-57218037D01*
X158717100Y-57313387D01*
X158481828Y-57444069D01*
X158478196Y-57446841D01*
X158271509Y-57604579D01*
X158271505Y-57604583D01*
X158267884Y-57607346D01*
X158079751Y-57799797D01*
X158077066Y-57803486D01*
X157924058Y-58013696D01*
X157924053Y-58013703D01*
X157921370Y-58017390D01*
X157796059Y-58255567D01*
X157706443Y-58509338D01*
X157698978Y-58547212D01*
X157670855Y-58689900D01*
X157654399Y-58773389D01*
X157654172Y-58777942D01*
X157654172Y-58777945D01*
X157644991Y-58962383D01*
X157641018Y-59042186D01*
X151854500Y-59042186D01*
X151854500Y-58678615D01*
X151839488Y-58540427D01*
X151780270Y-58364465D01*
X151684649Y-58205323D01*
X151663792Y-58183267D01*
X151561773Y-58075386D01*
X151561771Y-58075384D01*
X151557084Y-58070428D01*
X151403529Y-57966072D01*
X151397195Y-57963539D01*
X151397192Y-57963537D01*
X151237484Y-57899658D01*
X151237479Y-57899657D01*
X151231147Y-57897124D01*
X151224420Y-57896010D01*
X151224415Y-57896009D01*
X151054718Y-57867916D01*
X151054715Y-57867916D01*
X151047981Y-57866801D01*
X151041164Y-57867158D01*
X151041160Y-57867158D01*
X150890080Y-57875077D01*
X150862576Y-57876518D01*
X150856004Y-57878328D01*
X150855999Y-57878329D01*
X150690165Y-57924008D01*
X150683583Y-57925821D01*
X150519352Y-58012410D01*
X150377546Y-58132245D01*
X150373399Y-58137668D01*
X150373398Y-58137670D01*
X150268925Y-58274315D01*
X150268923Y-58274319D01*
X150264781Y-58279736D01*
X150261899Y-58285916D01*
X150261898Y-58285918D01*
X150222254Y-58370936D01*
X150186318Y-58448000D01*
X150184832Y-58454648D01*
X150184831Y-58454651D01*
X150167104Y-58533960D01*
X150145818Y-58629188D01*
X150145500Y-58634876D01*
X150145500Y-59321385D01*
X149854500Y-59321385D01*
X149854500Y-58327244D01*
X149854131Y-58323847D01*
X149848651Y-58273403D01*
X149848651Y-58273402D01*
X149847798Y-58265552D01*
X149797071Y-58130236D01*
X149791691Y-58123057D01*
X149791689Y-58123054D01*
X149715785Y-58021776D01*
X149710404Y-58014596D01*
X149689977Y-57999287D01*
X149601946Y-57933311D01*
X149601943Y-57933309D01*
X149594764Y-57927929D01*
X149505046Y-57894296D01*
X149466843Y-57879974D01*
X149466841Y-57879974D01*
X149459448Y-57877202D01*
X149451598Y-57876349D01*
X149451597Y-57876349D01*
X149401153Y-57870869D01*
X149401152Y-57870869D01*
X149397756Y-57870500D01*
X148602244Y-57870500D01*
X148598848Y-57870869D01*
X148598847Y-57870869D01*
X148548403Y-57876349D01*
X148548402Y-57876349D01*
X148540552Y-57877202D01*
X148533159Y-57879974D01*
X148533157Y-57879974D01*
X148494954Y-57894296D01*
X148405236Y-57927929D01*
X148398057Y-57933309D01*
X148398054Y-57933311D01*
X148310023Y-57999287D01*
X148289596Y-58014596D01*
X148284215Y-58021776D01*
X148208311Y-58123054D01*
X148208309Y-58123057D01*
X148202929Y-58130236D01*
X148152202Y-58265552D01*
X148151349Y-58273402D01*
X148151349Y-58273403D01*
X148145869Y-58323847D01*
X148145500Y-58327244D01*
X148145500Y-59672756D01*
X139757373Y-59672756D01*
X139810802Y-59558177D01*
X139810803Y-59558174D01*
X139813682Y-59552000D01*
X139826429Y-59494975D01*
X139853056Y-59375849D01*
X139854182Y-59370812D01*
X139854500Y-59365124D01*
X139854500Y-58678615D01*
X139839488Y-58540427D01*
X139780270Y-58364465D01*
X139684649Y-58205323D01*
X139663792Y-58183267D01*
X139561773Y-58075386D01*
X139561771Y-58075384D01*
X139557084Y-58070428D01*
X139403529Y-57966072D01*
X139397195Y-57963539D01*
X139397192Y-57963537D01*
X139237484Y-57899658D01*
X139237479Y-57899657D01*
X139231147Y-57897124D01*
X139224420Y-57896010D01*
X139224415Y-57896009D01*
X139054718Y-57867916D01*
X139054715Y-57867916D01*
X139047981Y-57866801D01*
X139041164Y-57867158D01*
X139041160Y-57867158D01*
X138890080Y-57875077D01*
X138862576Y-57876518D01*
X138856004Y-57878328D01*
X138855999Y-57878329D01*
X138690165Y-57924008D01*
X138683583Y-57925821D01*
X138519352Y-58012410D01*
X138377546Y-58132245D01*
X138373399Y-58137668D01*
X138373398Y-58137670D01*
X138268925Y-58274315D01*
X138268923Y-58274319D01*
X138264781Y-58279736D01*
X138261899Y-58285916D01*
X138261898Y-58285918D01*
X138222254Y-58370936D01*
X138186318Y-58448000D01*
X138184832Y-58454648D01*
X138184831Y-58454651D01*
X138167104Y-58533960D01*
X138145818Y-58629188D01*
X138145500Y-58634876D01*
X138145500Y-59321385D01*
X137854500Y-59321385D01*
X137854500Y-58327244D01*
X137854131Y-58323847D01*
X137848651Y-58273403D01*
X137848651Y-58273402D01*
X137847798Y-58265552D01*
X137797071Y-58130236D01*
X137791691Y-58123057D01*
X137791689Y-58123054D01*
X137715785Y-58021776D01*
X137710404Y-58014596D01*
X137689977Y-57999287D01*
X137601946Y-57933311D01*
X137601943Y-57933309D01*
X137594764Y-57927929D01*
X137505046Y-57894296D01*
X137466843Y-57879974D01*
X137466841Y-57879974D01*
X137459448Y-57877202D01*
X137451598Y-57876349D01*
X137451597Y-57876349D01*
X137401153Y-57870869D01*
X137401152Y-57870869D01*
X137397756Y-57870500D01*
X136602244Y-57870500D01*
X136598848Y-57870869D01*
X136598847Y-57870869D01*
X136548403Y-57876349D01*
X136548402Y-57876349D01*
X136540552Y-57877202D01*
X136533159Y-57879974D01*
X136533157Y-57879974D01*
X136494954Y-57894296D01*
X136405236Y-57927929D01*
X136398057Y-57933309D01*
X136398054Y-57933311D01*
X136310023Y-57999287D01*
X136289596Y-58014596D01*
X136284215Y-58021776D01*
X136208311Y-58123054D01*
X136208309Y-58123057D01*
X136202929Y-58130236D01*
X136152202Y-58265552D01*
X136151349Y-58273402D01*
X136151349Y-58273403D01*
X136145869Y-58323847D01*
X136145500Y-58327244D01*
X136145500Y-59672756D01*
X127725373Y-59672756D01*
X127778802Y-59558177D01*
X127778803Y-59558174D01*
X127781682Y-59552000D01*
X127794429Y-59494975D01*
X127821056Y-59375849D01*
X127822182Y-59370812D01*
X127822500Y-59365124D01*
X127822500Y-58678615D01*
X127807488Y-58540427D01*
X127748270Y-58364465D01*
X127652649Y-58205323D01*
X127631792Y-58183267D01*
X127529773Y-58075386D01*
X127529771Y-58075384D01*
X127525084Y-58070428D01*
X127371529Y-57966072D01*
X127365195Y-57963539D01*
X127365192Y-57963537D01*
X127205484Y-57899658D01*
X127205479Y-57899657D01*
X127199147Y-57897124D01*
X127192420Y-57896010D01*
X127192415Y-57896009D01*
X127022718Y-57867916D01*
X127022715Y-57867916D01*
X127015981Y-57866801D01*
X127009164Y-57867158D01*
X127009160Y-57867158D01*
X126858080Y-57875077D01*
X126830576Y-57876518D01*
X126824004Y-57878328D01*
X126823999Y-57878329D01*
X126658165Y-57924008D01*
X126651583Y-57925821D01*
X126487352Y-58012410D01*
X126345546Y-58132245D01*
X126341399Y-58137668D01*
X126341398Y-58137670D01*
X126236925Y-58274315D01*
X126236923Y-58274319D01*
X126232781Y-58279736D01*
X126229899Y-58285916D01*
X126229898Y-58285918D01*
X126190254Y-58370936D01*
X126154318Y-58448000D01*
X126152832Y-58454648D01*
X126152831Y-58454651D01*
X126135104Y-58533960D01*
X126113818Y-58629188D01*
X126113500Y-58634876D01*
X126113500Y-59321385D01*
X125822500Y-59321385D01*
X125822500Y-58327244D01*
X125822131Y-58323847D01*
X125816651Y-58273403D01*
X125816651Y-58273402D01*
X125815798Y-58265552D01*
X125765071Y-58130236D01*
X125759691Y-58123057D01*
X125759689Y-58123054D01*
X125683785Y-58021776D01*
X125678404Y-58014596D01*
X125657977Y-57999287D01*
X125569946Y-57933311D01*
X125569943Y-57933309D01*
X125562764Y-57927929D01*
X125473046Y-57894296D01*
X125434843Y-57879974D01*
X125434841Y-57879974D01*
X125427448Y-57877202D01*
X125419598Y-57876349D01*
X125419597Y-57876349D01*
X125369153Y-57870869D01*
X125369152Y-57870869D01*
X125365756Y-57870500D01*
X124570244Y-57870500D01*
X124566848Y-57870869D01*
X124566847Y-57870869D01*
X124516403Y-57876349D01*
X124516402Y-57876349D01*
X124508552Y-57877202D01*
X124501159Y-57879974D01*
X124501157Y-57879974D01*
X124462954Y-57894296D01*
X124373236Y-57927929D01*
X124366057Y-57933309D01*
X124366054Y-57933311D01*
X124278023Y-57999287D01*
X124257596Y-58014596D01*
X124252215Y-58021776D01*
X124176311Y-58123054D01*
X124176309Y-58123057D01*
X124170929Y-58130236D01*
X124120202Y-58265552D01*
X124119349Y-58273402D01*
X124119349Y-58273403D01*
X124113869Y-58323847D01*
X124113500Y-58327244D01*
X124113500Y-59672756D01*
X115803373Y-59672756D01*
X115856802Y-59558177D01*
X115856803Y-59558174D01*
X115859682Y-59552000D01*
X115872429Y-59494975D01*
X115899056Y-59375849D01*
X115900182Y-59370812D01*
X115900500Y-59365124D01*
X115900500Y-58678615D01*
X115885488Y-58540427D01*
X115826270Y-58364465D01*
X115730649Y-58205323D01*
X115709792Y-58183267D01*
X115607773Y-58075386D01*
X115607771Y-58075384D01*
X115603084Y-58070428D01*
X115449529Y-57966072D01*
X115443195Y-57963539D01*
X115443192Y-57963537D01*
X115283484Y-57899658D01*
X115283479Y-57899657D01*
X115277147Y-57897124D01*
X115270420Y-57896010D01*
X115270415Y-57896009D01*
X115100718Y-57867916D01*
X115100715Y-57867916D01*
X115093981Y-57866801D01*
X115087164Y-57867158D01*
X115087160Y-57867158D01*
X114936080Y-57875077D01*
X114908576Y-57876518D01*
X114902004Y-57878328D01*
X114901999Y-57878329D01*
X114736165Y-57924008D01*
X114729583Y-57925821D01*
X114565352Y-58012410D01*
X114423546Y-58132245D01*
X114419399Y-58137668D01*
X114419398Y-58137670D01*
X114314925Y-58274315D01*
X114314923Y-58274319D01*
X114310781Y-58279736D01*
X114307899Y-58285916D01*
X114307898Y-58285918D01*
X114268254Y-58370936D01*
X114232318Y-58448000D01*
X114230832Y-58454648D01*
X114230831Y-58454651D01*
X114213104Y-58533960D01*
X114191818Y-58629188D01*
X114191500Y-58634876D01*
X114191500Y-59321385D01*
X113900500Y-59321385D01*
X113900500Y-58327244D01*
X113900131Y-58323847D01*
X113894651Y-58273403D01*
X113894651Y-58273402D01*
X113893798Y-58265552D01*
X113843071Y-58130236D01*
X113837691Y-58123057D01*
X113837689Y-58123054D01*
X113761785Y-58021776D01*
X113756404Y-58014596D01*
X113735977Y-57999287D01*
X113647946Y-57933311D01*
X113647943Y-57933309D01*
X113640764Y-57927929D01*
X113551046Y-57894296D01*
X113512843Y-57879974D01*
X113512841Y-57879974D01*
X113505448Y-57877202D01*
X113497598Y-57876349D01*
X113497597Y-57876349D01*
X113447153Y-57870869D01*
X113447152Y-57870869D01*
X113443756Y-57870500D01*
X112648244Y-57870500D01*
X112644848Y-57870869D01*
X112644847Y-57870869D01*
X112594403Y-57876349D01*
X112594402Y-57876349D01*
X112586552Y-57877202D01*
X112579159Y-57879974D01*
X112579157Y-57879974D01*
X112540954Y-57894296D01*
X112451236Y-57927929D01*
X112444057Y-57933309D01*
X112444054Y-57933311D01*
X112356023Y-57999287D01*
X112335596Y-58014596D01*
X112330215Y-58021776D01*
X112254311Y-58123054D01*
X112254309Y-58123057D01*
X112248929Y-58130236D01*
X112198202Y-58265552D01*
X112197349Y-58273402D01*
X112197349Y-58273403D01*
X112191869Y-58323847D01*
X112191500Y-58327244D01*
X112191500Y-59672756D01*
X106229253Y-59672756D01*
X106293557Y-59490662D01*
X106327595Y-59317968D01*
X106344720Y-59231083D01*
X106344721Y-59231077D01*
X106345601Y-59226611D01*
X106354782Y-59042186D01*
X106358755Y-58962383D01*
X106358755Y-58962377D01*
X106358982Y-58957814D01*
X106333421Y-58689900D01*
X106329829Y-58675218D01*
X106270539Y-58432920D01*
X106269453Y-58428482D01*
X106168417Y-58179037D01*
X106032431Y-57946790D01*
X105864342Y-57736605D01*
X105667673Y-57552887D01*
X105446543Y-57399484D01*
X105205584Y-57279609D01*
X105201250Y-57278188D01*
X105201247Y-57278187D01*
X104954177Y-57197193D01*
X104954171Y-57197192D01*
X104949844Y-57195773D01*
X104945352Y-57194993D01*
X104688462Y-57150389D01*
X104688454Y-57150388D01*
X104684681Y-57149733D01*
X104674718Y-57149237D01*
X104601223Y-57145578D01*
X104601215Y-57145578D01*
X104599652Y-57145500D01*
X104431626Y-57145500D01*
X104429358Y-57145665D01*
X104429346Y-57145665D01*
X104298543Y-57155156D01*
X104231575Y-57160015D01*
X104227120Y-57160999D01*
X104227117Y-57160999D01*
X103973230Y-57217053D01*
X103973228Y-57217054D01*
X103968774Y-57218037D01*
X103717100Y-57313387D01*
X103481828Y-57444069D01*
X103478196Y-57446841D01*
X103271509Y-57604579D01*
X103271505Y-57604583D01*
X103267884Y-57607346D01*
X103079751Y-57799797D01*
X103077066Y-57803486D01*
X102924058Y-58013696D01*
X102924053Y-58013703D01*
X102921370Y-58017390D01*
X102796059Y-58255567D01*
X102706443Y-58509338D01*
X102698978Y-58547212D01*
X102670855Y-58689900D01*
X102654399Y-58773389D01*
X102654172Y-58777942D01*
X102654172Y-58777945D01*
X102644991Y-58962383D01*
X102641018Y-59042186D01*
X100754000Y-59042186D01*
X100754000Y-52495499D01*
X101592000Y-52495499D01*
X101592324Y-52513630D01*
X101592645Y-52522618D01*
X101593615Y-52540726D01*
X101613008Y-52811884D01*
X101616887Y-52847954D01*
X101619445Y-52865742D01*
X101625881Y-52901416D01*
X101682706Y-53162637D01*
X101691668Y-53197751D01*
X101696731Y-53214997D01*
X101708190Y-53249428D01*
X101801619Y-53499921D01*
X101815502Y-53533437D01*
X101822968Y-53549784D01*
X101839195Y-53582199D01*
X101967316Y-53816834D01*
X101985820Y-53848021D01*
X101995539Y-53863144D01*
X102016221Y-53892932D01*
X102098040Y-54002229D01*
X102175757Y-54106047D01*
X102175771Y-54106065D01*
X102176429Y-54106944D01*
X102199192Y-54135190D01*
X102210965Y-54148776D01*
X102235666Y-54175306D01*
X102424694Y-54364334D01*
X102451224Y-54389035D01*
X102464810Y-54400808D01*
X102493056Y-54423571D01*
X102493935Y-54424229D01*
X102493953Y-54424243D01*
X102597771Y-54501960D01*
X102707068Y-54583779D01*
X102736856Y-54604461D01*
X102737785Y-54605058D01*
X102751062Y-54613591D01*
X102751075Y-54613599D01*
X102751979Y-54614180D01*
X102783166Y-54632684D01*
X102784138Y-54633215D01*
X102784156Y-54633225D01*
X103016784Y-54760250D01*
X103016798Y-54760257D01*
X103017801Y-54760805D01*
X103050216Y-54777032D01*
X103066563Y-54784498D01*
X103067579Y-54784919D01*
X103067600Y-54784928D01*
X103099048Y-54797954D01*
X103100079Y-54798381D01*
X103101129Y-54798772D01*
X103101135Y-54798775D01*
X103349523Y-54891419D01*
X103349536Y-54891423D01*
X103350572Y-54891810D01*
X103351628Y-54892161D01*
X103351638Y-54892165D01*
X103383934Y-54902914D01*
X103384998Y-54903268D01*
X103386075Y-54903584D01*
X103386084Y-54903587D01*
X103401163Y-54908014D01*
X103401173Y-54908017D01*
X103402240Y-54908330D01*
X103403295Y-54908599D01*
X103403305Y-54908602D01*
X103436261Y-54917013D01*
X103437359Y-54917293D01*
X103597842Y-54952204D01*
X103697507Y-54973885D01*
X103697522Y-54973888D01*
X103698584Y-54974119D01*
X103699656Y-54974312D01*
X103699674Y-54974316D01*
X103733145Y-54980355D01*
X103733159Y-54980357D01*
X103734266Y-54980557D01*
X103752049Y-54983114D01*
X103753186Y-54983236D01*
X103753192Y-54983237D01*
X103760467Y-54984019D01*
X103788110Y-54986991D01*
X103789212Y-54987070D01*
X103789214Y-54987070D01*
X104009889Y-55002853D01*
X104059273Y-55006385D01*
X104059763Y-55006411D01*
X104059775Y-55006412D01*
X104066221Y-55006757D01*
X104077382Y-55007355D01*
X104086370Y-55007676D01*
X104086867Y-55007685D01*
X104086908Y-55007686D01*
X104098707Y-55007896D01*
X104104501Y-55008000D01*
X154995499Y-55008000D01*
X155001293Y-55007896D01*
X155013092Y-55007686D01*
X155013133Y-55007685D01*
X155013630Y-55007676D01*
X155022618Y-55007355D01*
X155033779Y-55006757D01*
X155040225Y-55006412D01*
X155040237Y-55006411D01*
X155040727Y-55006385D01*
X155090111Y-55002853D01*
X155310786Y-54987070D01*
X155310788Y-54987070D01*
X155311890Y-54986991D01*
X155339533Y-54984019D01*
X155346808Y-54983237D01*
X155346814Y-54983236D01*
X155347951Y-54983114D01*
X155365734Y-54980557D01*
X155366841Y-54980357D01*
X155366855Y-54980355D01*
X155400326Y-54974316D01*
X155400344Y-54974312D01*
X155401416Y-54974119D01*
X155402478Y-54973888D01*
X155402493Y-54973885D01*
X155502158Y-54952204D01*
X155662641Y-54917293D01*
X155663739Y-54917013D01*
X155696695Y-54908602D01*
X155696705Y-54908599D01*
X155697760Y-54908330D01*
X155698827Y-54908017D01*
X155698837Y-54908014D01*
X155713916Y-54903587D01*
X155713925Y-54903584D01*
X155715002Y-54903268D01*
X155716066Y-54902914D01*
X155748362Y-54892165D01*
X155748372Y-54892161D01*
X155749428Y-54891810D01*
X155750464Y-54891423D01*
X155750477Y-54891419D01*
X155998865Y-54798775D01*
X155998871Y-54798772D01*
X155999921Y-54798381D01*
X156000952Y-54797954D01*
X156032400Y-54784928D01*
X156032421Y-54784919D01*
X156033437Y-54784498D01*
X156049784Y-54777032D01*
X156082199Y-54760805D01*
X156083202Y-54760257D01*
X156083216Y-54760250D01*
X156315844Y-54633225D01*
X156315862Y-54633215D01*
X156316834Y-54632684D01*
X156348021Y-54614180D01*
X156348925Y-54613599D01*
X156348938Y-54613591D01*
X156362215Y-54605058D01*
X156363144Y-54604461D01*
X156392932Y-54583779D01*
X156502229Y-54501960D01*
X156606047Y-54424243D01*
X156606065Y-54424229D01*
X156606944Y-54423571D01*
X156635190Y-54400808D01*
X156648776Y-54389035D01*
X156675306Y-54364334D01*
X156864334Y-54175306D01*
X156889035Y-54148776D01*
X156900808Y-54135190D01*
X156923571Y-54106944D01*
X156924229Y-54106065D01*
X156924243Y-54106047D01*
X157001960Y-54002229D01*
X157083779Y-53892932D01*
X157104461Y-53863144D01*
X157114180Y-53848021D01*
X157132684Y-53816834D01*
X157260805Y-53582199D01*
X157277032Y-53549784D01*
X157284498Y-53533437D01*
X157298381Y-53499921D01*
X157391810Y-53249428D01*
X157403269Y-53214997D01*
X157408332Y-53197751D01*
X157417294Y-53162637D01*
X157474119Y-52901416D01*
X157480555Y-52865742D01*
X157483113Y-52847954D01*
X157486992Y-52811884D01*
X157506385Y-52540726D01*
X157507355Y-52522618D01*
X157507676Y-52513630D01*
X157508000Y-52495499D01*
X157508000Y-46832549D01*
X157507728Y-46815914D01*
X157507458Y-46807673D01*
X157506642Y-46791083D01*
X157490342Y-46542392D01*
X157490248Y-46541442D01*
X157490246Y-46541412D01*
X157487184Y-46510321D01*
X157487184Y-46510319D01*
X157487085Y-46509316D01*
X157484934Y-46492976D01*
X157483153Y-46482185D01*
X157480284Y-46464810D01*
X157479518Y-46460171D01*
X157477739Y-46451224D01*
X157433758Y-46230120D01*
X157431702Y-46219783D01*
X157429646Y-46210965D01*
X157424387Y-46188412D01*
X157424385Y-46188405D01*
X157424153Y-46187409D01*
X157419887Y-46171488D01*
X157410237Y-46139676D01*
X157331453Y-45907587D01*
X157319742Y-45876471D01*
X157313435Y-45861245D01*
X157299718Y-45830971D01*
X157292090Y-45815502D01*
X157191756Y-45612045D01*
X157191753Y-45612039D01*
X157191316Y-45611153D01*
X157183830Y-45597147D01*
X157176118Y-45582719D01*
X157176104Y-45582693D01*
X157175646Y-45581837D01*
X157167405Y-45567563D01*
X157149850Y-45539331D01*
X157013684Y-45335544D01*
X156994329Y-45308534D01*
X156984296Y-45295458D01*
X156983655Y-45294677D01*
X156983640Y-45294658D01*
X156963856Y-45270550D01*
X156963841Y-45270532D01*
X156963199Y-45269750D01*
X156962531Y-45268988D01*
X156799199Y-45082743D01*
X156799158Y-45082697D01*
X156798858Y-45082355D01*
X156787649Y-45069990D01*
X156785835Y-45068054D01*
X156782377Y-45064362D01*
X156782346Y-45064329D01*
X156782012Y-45063973D01*
X156770496Y-45052076D01*
X154544905Y-42826485D01*
X154510879Y-42764173D01*
X154508000Y-42737390D01*
X154508000Y-41605507D01*
X154507517Y-41583369D01*
X154507038Y-41572388D01*
X154505588Y-41550252D01*
X154485759Y-41323600D01*
X154479974Y-41279660D01*
X154476160Y-41258030D01*
X154470646Y-41233157D01*
X154466866Y-41216106D01*
X154466862Y-41216090D01*
X154466569Y-41214768D01*
X154459587Y-41188710D01*
X154455084Y-41171902D01*
X154455079Y-41171883D01*
X154418246Y-41034424D01*
X154409113Y-41000338D01*
X154404030Y-40984215D01*
X154396208Y-40959408D01*
X154396207Y-40959405D01*
X154395787Y-40958073D01*
X154388275Y-40937434D01*
X154387749Y-40936164D01*
X154371833Y-40897740D01*
X154371822Y-40897716D01*
X154371315Y-40896491D01*
X154277498Y-40695300D01*
X154257033Y-40655986D01*
X154246051Y-40636965D01*
X154245315Y-40635809D01*
X154245303Y-40635790D01*
X154222985Y-40600760D01*
X154222241Y-40599592D01*
X154094911Y-40417746D01*
X154067921Y-40382573D01*
X154053803Y-40365749D01*
X154023874Y-40333089D01*
X153866911Y-40176126D01*
X153834251Y-40146197D01*
X153833211Y-40145324D01*
X153818481Y-40132963D01*
X153818468Y-40132953D01*
X153817427Y-40132079D01*
X153782254Y-40105089D01*
X153600408Y-39977759D01*
X153593159Y-39973141D01*
X153564210Y-39954697D01*
X153564191Y-39954685D01*
X153563035Y-39953949D01*
X153561856Y-39953268D01*
X153561844Y-39953261D01*
X153553524Y-39948458D01*
X153544014Y-39942967D01*
X153528557Y-39934921D01*
X153505911Y-39923132D01*
X153505897Y-39923125D01*
X153504700Y-39922502D01*
X153303509Y-39828685D01*
X153302284Y-39828178D01*
X153302260Y-39828167D01*
X153263836Y-39812251D01*
X153263833Y-39812250D01*
X153262566Y-39811725D01*
X153241927Y-39804213D01*
X153240610Y-39803798D01*
X153240593Y-39803792D01*
X153222853Y-39798199D01*
X153199656Y-39790886D01*
X153150949Y-39777836D01*
X153150931Y-39777830D01*
X152985234Y-39733431D01*
X152979920Y-39732253D01*
X152943282Y-39724131D01*
X152943261Y-39724127D01*
X152941949Y-39723836D01*
X152927871Y-39721354D01*
X152921688Y-39720264D01*
X152921683Y-39720263D01*
X152920326Y-39720024D01*
X152914667Y-39719279D01*
X152877751Y-39714419D01*
X152877736Y-39714417D01*
X152876404Y-39714242D01*
X152702932Y-39699065D01*
X152649752Y-39694412D01*
X152649093Y-39694369D01*
X152649069Y-39694367D01*
X152640333Y-39693795D01*
X152627612Y-39692962D01*
X152616631Y-39692483D01*
X152615983Y-39692469D01*
X152615957Y-39692468D01*
X152595136Y-39692014D01*
X152595133Y-39692014D01*
X152594493Y-39692000D01*
X152504956Y-39692000D01*
X152490290Y-39692288D01*
X152485639Y-39692379D01*
X152485626Y-39692379D01*
X152485034Y-39692391D01*
X152484454Y-39692414D01*
X152484412Y-39692415D01*
X152480437Y-39692571D01*
X152475148Y-39692779D01*
X152455214Y-39693954D01*
X152402270Y-39698121D01*
X152236592Y-39711159D01*
X152236577Y-39711160D01*
X152235376Y-39711255D01*
X152195754Y-39715945D01*
X152194511Y-39716142D01*
X152194503Y-39716143D01*
X152177464Y-39718842D01*
X152177453Y-39718844D01*
X152176228Y-39719038D01*
X152175038Y-39719275D01*
X152175014Y-39719279D01*
X152138300Y-39726582D01*
X152138277Y-39726587D01*
X152137116Y-39726818D01*
X151927522Y-39777137D01*
X151889128Y-39787965D01*
X151887988Y-39788336D01*
X151887963Y-39788343D01*
X151881231Y-39790531D01*
X151870333Y-39794072D01*
X151869145Y-39794510D01*
X151869143Y-39794511D01*
X151834068Y-39807451D01*
X151834041Y-39807462D01*
X151832915Y-39807877D01*
X151633763Y-39890368D01*
X151597530Y-39907072D01*
X151596459Y-39907618D01*
X151596444Y-39907625D01*
X151581015Y-39915487D01*
X151579932Y-39916039D01*
X151545136Y-39935526D01*
X151361342Y-40048156D01*
X151360325Y-40048835D01*
X151360304Y-40048849D01*
X151348440Y-40056777D01*
X151328164Y-40070326D01*
X151312173Y-40081945D01*
X151280862Y-40106629D01*
X151279900Y-40107450D01*
X151279891Y-40107458D01*
X151216001Y-40162025D01*
X151215993Y-40162032D01*
X151214250Y-40163521D01*
X151212630Y-40165124D01*
X151212621Y-40165132D01*
X151163074Y-40214150D01*
X151161445Y-40215762D01*
X151159946Y-40217480D01*
X151159938Y-40217488D01*
X151138785Y-40241724D01*
X151137277Y-40243452D01*
X151135898Y-40245287D01*
X151135895Y-40245291D01*
X151096738Y-40297404D01*
X151096736Y-40297407D01*
X151092645Y-40302852D01*
X151032579Y-40434378D01*
X151012577Y-40502499D01*
X151011937Y-40506947D01*
X151011936Y-40506954D01*
X150992639Y-40641170D01*
X150992638Y-40641177D01*
X150992000Y-40645618D01*
X150992000Y-40715814D01*
X150971998Y-40783935D01*
X150918342Y-40830428D01*
X150848068Y-40840532D01*
X150783488Y-40811038D01*
X150776982Y-40804987D01*
X150728171Y-40756261D01*
X150716760Y-40747249D01*
X150578757Y-40662184D01*
X150565576Y-40656037D01*
X150517194Y-40639989D01*
X150503101Y-40639500D01*
X150500000Y-40645711D01*
X150500000Y-44901654D01*
X150498718Y-44919583D01*
X150492000Y-44966310D01*
X150492000Y-47765901D01*
X150471998Y-47834022D01*
X150418342Y-47880515D01*
X150348068Y-47890619D01*
X150283488Y-47861125D01*
X150278749Y-47856718D01*
X150266760Y-47847249D01*
X150128757Y-47762184D01*
X150115576Y-47756037D01*
X149961290Y-47704862D01*
X149947914Y-47701995D01*
X149853562Y-47692328D01*
X149847145Y-47692000D01*
X148826115Y-47692000D01*
X148810876Y-47696475D01*
X148809671Y-47697865D01*
X148808000Y-47705548D01*
X148808000Y-50289884D01*
X148812475Y-50305123D01*
X148813865Y-50306328D01*
X148821548Y-50307999D01*
X149847095Y-50307999D01*
X149853614Y-50307662D01*
X149949206Y-50297743D01*
X149962600Y-50294851D01*
X150116784Y-50243412D01*
X150129962Y-50237239D01*
X150267807Y-50151937D01*
X150284945Y-50138354D01*
X150286322Y-50140091D01*
X150339107Y-50111208D01*
X150409927Y-50116209D01*
X150466801Y-50158705D01*
X150491671Y-50225203D01*
X150492000Y-50234304D01*
X150492000Y-51366000D01*
X150471998Y-51434121D01*
X150418342Y-51480614D01*
X150366000Y-51492000D01*
X145634000Y-51492000D01*
X145565879Y-51471998D01*
X145519386Y-51418342D01*
X145508000Y-51366000D01*
X145508000Y-49597095D01*
X146042001Y-49597095D01*
X146042338Y-49603614D01*
X146052257Y-49699206D01*
X146055149Y-49712600D01*
X146106588Y-49866784D01*
X146112761Y-49879962D01*
X146198063Y-50017807D01*
X146207099Y-50029208D01*
X146321829Y-50143739D01*
X146333240Y-50152751D01*
X146471243Y-50237816D01*
X146484424Y-50243963D01*
X146638710Y-50295138D01*
X146652086Y-50298005D01*
X146746438Y-50307672D01*
X146752854Y-50308000D01*
X147773885Y-50308000D01*
X147789124Y-50303525D01*
X147790329Y-50302135D01*
X147792000Y-50294452D01*
X147792000Y-49526115D01*
X147787525Y-49510876D01*
X147786135Y-49509671D01*
X147778452Y-49508000D01*
X146060116Y-49508000D01*
X146044877Y-49512475D01*
X146043672Y-49513865D01*
X146042001Y-49521548D01*
X146042001Y-49597095D01*
X145508000Y-49597095D01*
X145508000Y-48473885D01*
X146042000Y-48473885D01*
X146046475Y-48489124D01*
X146047865Y-48490329D01*
X146055548Y-48492000D01*
X147773885Y-48492000D01*
X147789124Y-48487525D01*
X147790329Y-48486135D01*
X147792000Y-48478452D01*
X147792000Y-47710116D01*
X147787525Y-47694877D01*
X147786135Y-47693672D01*
X147778452Y-47692001D01*
X146752905Y-47692001D01*
X146746386Y-47692338D01*
X146650794Y-47702257D01*
X146637400Y-47705149D01*
X146483216Y-47756588D01*
X146470038Y-47762761D01*
X146332193Y-47848063D01*
X146320792Y-47857099D01*
X146206261Y-47971829D01*
X146197249Y-47983240D01*
X146112184Y-48121243D01*
X146106037Y-48134424D01*
X146054862Y-48288710D01*
X146051995Y-48302086D01*
X146042328Y-48396438D01*
X146042000Y-48402855D01*
X146042000Y-48473885D01*
X145508000Y-48473885D01*
X145508000Y-46832549D01*
X145507728Y-46815914D01*
X145507458Y-46807673D01*
X145506642Y-46791083D01*
X145490342Y-46542392D01*
X145490248Y-46541442D01*
X145490246Y-46541412D01*
X145487184Y-46510321D01*
X145487184Y-46510319D01*
X145487085Y-46509316D01*
X145484934Y-46492976D01*
X145483153Y-46482185D01*
X145480284Y-46464810D01*
X145479518Y-46460171D01*
X145477739Y-46451224D01*
X145433758Y-46230120D01*
X145431702Y-46219783D01*
X145429646Y-46210965D01*
X145424387Y-46188412D01*
X145424385Y-46188405D01*
X145424153Y-46187409D01*
X145419887Y-46171488D01*
X145410237Y-46139676D01*
X145331453Y-45907587D01*
X145319742Y-45876471D01*
X145313435Y-45861245D01*
X145299718Y-45830971D01*
X145292090Y-45815502D01*
X145191756Y-45612045D01*
X145191753Y-45612039D01*
X145191316Y-45611153D01*
X145183830Y-45597147D01*
X145176118Y-45582719D01*
X145176104Y-45582693D01*
X145175646Y-45581837D01*
X145167405Y-45567563D01*
X145149850Y-45539331D01*
X145013684Y-45335544D01*
X144994329Y-45308534D01*
X144984296Y-45295458D01*
X144983655Y-45294677D01*
X144983640Y-45294658D01*
X144963856Y-45270550D01*
X144963841Y-45270532D01*
X144963199Y-45269750D01*
X144962531Y-45268988D01*
X144799199Y-45082743D01*
X144799158Y-45082697D01*
X144798858Y-45082355D01*
X144787649Y-45069990D01*
X144785835Y-45068054D01*
X144782377Y-45064362D01*
X144782346Y-45064329D01*
X144782012Y-45063973D01*
X144770496Y-45052076D01*
X142544905Y-42826485D01*
X142530443Y-42800000D01*
X145940715Y-42800000D01*
X145959772Y-42944754D01*
X146015645Y-43079642D01*
X146104526Y-43195474D01*
X146111076Y-43200500D01*
X146111079Y-43200503D01*
X146213804Y-43279327D01*
X146220357Y-43284355D01*
X146329346Y-43329500D01*
X146346128Y-43336451D01*
X146355246Y-43340228D01*
X146500000Y-43359285D01*
X146508188Y-43358207D01*
X146636566Y-43341306D01*
X146644754Y-43340228D01*
X146652384Y-43337068D01*
X146660362Y-43334930D01*
X146660770Y-43336451D01*
X146695717Y-43329500D01*
X147119500Y-43329500D01*
X147187621Y-43349502D01*
X147234114Y-43403158D01*
X147245500Y-43455500D01*
X147245500Y-44397756D01*
X147252202Y-44459448D01*
X147254974Y-44466841D01*
X147254974Y-44466843D01*
X147267106Y-44499206D01*
X147302929Y-44594764D01*
X147308309Y-44601943D01*
X147308311Y-44601946D01*
X147324498Y-44623544D01*
X147389596Y-44710404D01*
X147396776Y-44715785D01*
X147498054Y-44791689D01*
X147498057Y-44791691D01*
X147505236Y-44797071D01*
X147574912Y-44823191D01*
X147633157Y-44845026D01*
X147633159Y-44845026D01*
X147640552Y-44847798D01*
X147648402Y-44848651D01*
X147648403Y-44848651D01*
X147698847Y-44854131D01*
X147702244Y-44854500D01*
X148297756Y-44854500D01*
X148301153Y-44854131D01*
X148351597Y-44848651D01*
X148351598Y-44848651D01*
X148359448Y-44847798D01*
X148366841Y-44845026D01*
X148366843Y-44845026D01*
X148425088Y-44823191D01*
X148494764Y-44797071D01*
X148501943Y-44791691D01*
X148501946Y-44791689D01*
X148603224Y-44715785D01*
X148610404Y-44710404D01*
X148675502Y-44623544D01*
X148691689Y-44601946D01*
X148691691Y-44601943D01*
X148697071Y-44594764D01*
X148747798Y-44459448D01*
X148748652Y-44451588D01*
X148750343Y-44444476D01*
X148785561Y-44382830D01*
X148848516Y-44350010D01*
X148919221Y-44356436D01*
X148975228Y-44400068D01*
X148998253Y-44460620D01*
X149002257Y-44499206D01*
X149005149Y-44512600D01*
X149056588Y-44666784D01*
X149062761Y-44679962D01*
X149148063Y-44817807D01*
X149157099Y-44829208D01*
X149271829Y-44943739D01*
X149283240Y-44952751D01*
X149421243Y-45037816D01*
X149434424Y-45043963D01*
X149482806Y-45060011D01*
X149496899Y-45060500D01*
X149500000Y-45054289D01*
X149500000Y-40652422D01*
X149496027Y-40638891D01*
X149489201Y-40637910D01*
X149433216Y-40656588D01*
X149420038Y-40662761D01*
X149282193Y-40748063D01*
X149270792Y-40757099D01*
X149156261Y-40871829D01*
X149147249Y-40883240D01*
X149062184Y-41021243D01*
X149056037Y-41034424D01*
X149004862Y-41188710D01*
X149001995Y-41202086D01*
X148998214Y-41238985D01*
X148971372Y-41304712D01*
X148913257Y-41345494D01*
X148842319Y-41348382D01*
X148781081Y-41312460D01*
X148750287Y-41255288D01*
X148748652Y-41248409D01*
X148747798Y-41240552D01*
X148697071Y-41105236D01*
X148691691Y-41098057D01*
X148691689Y-41098054D01*
X148615785Y-40996776D01*
X148610404Y-40989596D01*
X148566594Y-40956762D01*
X148501946Y-40908311D01*
X148501943Y-40908309D01*
X148494764Y-40902929D01*
X148405046Y-40869296D01*
X148366843Y-40854974D01*
X148366841Y-40854974D01*
X148359448Y-40852202D01*
X148351598Y-40851349D01*
X148351597Y-40851349D01*
X148301153Y-40845869D01*
X148301152Y-40845869D01*
X148297756Y-40845500D01*
X147702244Y-40845500D01*
X147698848Y-40845869D01*
X147698847Y-40845869D01*
X147648403Y-40851349D01*
X147648402Y-40851349D01*
X147640552Y-40852202D01*
X147633159Y-40854974D01*
X147633157Y-40854974D01*
X147594954Y-40869296D01*
X147505236Y-40902929D01*
X147498057Y-40908309D01*
X147498054Y-40908311D01*
X147433406Y-40956762D01*
X147389596Y-40989596D01*
X147384215Y-40996776D01*
X147308311Y-41098054D01*
X147308309Y-41098057D01*
X147302929Y-41105236D01*
X147252202Y-41240552D01*
X147245500Y-41302244D01*
X147245500Y-42244500D01*
X147225498Y-42312621D01*
X147171842Y-42359114D01*
X147119500Y-42370500D01*
X146893902Y-42370500D01*
X146825781Y-42350498D01*
X146817198Y-42344462D01*
X146811959Y-42340442D01*
X146779643Y-42315645D01*
X146644754Y-42259772D01*
X146500000Y-42240715D01*
X146491812Y-42241793D01*
X146363432Y-42258694D01*
X146363430Y-42258695D01*
X146355246Y-42259772D01*
X146307430Y-42279578D01*
X146227986Y-42312485D01*
X146227984Y-42312486D01*
X146220358Y-42315645D01*
X146104526Y-42404526D01*
X146015645Y-42520358D01*
X145959772Y-42655246D01*
X145940715Y-42800000D01*
X142530443Y-42800000D01*
X142510879Y-42764173D01*
X142508000Y-42737390D01*
X142508000Y-41605507D01*
X142507517Y-41583369D01*
X142507038Y-41572388D01*
X142505588Y-41550252D01*
X142485759Y-41323600D01*
X142479974Y-41279660D01*
X142476160Y-41258030D01*
X142470646Y-41233157D01*
X142466866Y-41216106D01*
X142466862Y-41216090D01*
X142466569Y-41214768D01*
X142459587Y-41188710D01*
X142455084Y-41171902D01*
X142455079Y-41171883D01*
X142418246Y-41034424D01*
X142409113Y-41000338D01*
X142404030Y-40984215D01*
X142396208Y-40959408D01*
X142396207Y-40959405D01*
X142395787Y-40958073D01*
X142388275Y-40937434D01*
X142387749Y-40936164D01*
X142371833Y-40897740D01*
X142371822Y-40897716D01*
X142371315Y-40896491D01*
X142277498Y-40695300D01*
X142257033Y-40655986D01*
X142246051Y-40636965D01*
X142245315Y-40635809D01*
X142245303Y-40635790D01*
X142222985Y-40600760D01*
X142222241Y-40599592D01*
X142094911Y-40417746D01*
X142067921Y-40382573D01*
X142053803Y-40365749D01*
X142023874Y-40333089D01*
X141866911Y-40176126D01*
X141834251Y-40146197D01*
X141833211Y-40145324D01*
X141818481Y-40132963D01*
X141818468Y-40132953D01*
X141817427Y-40132079D01*
X141782254Y-40105089D01*
X141600408Y-39977759D01*
X141593159Y-39973141D01*
X141564210Y-39954697D01*
X141564191Y-39954685D01*
X141563035Y-39953949D01*
X141561856Y-39953268D01*
X141561844Y-39953261D01*
X141553524Y-39948458D01*
X141544014Y-39942967D01*
X141528557Y-39934921D01*
X141505911Y-39923132D01*
X141505897Y-39923125D01*
X141504700Y-39922502D01*
X141303509Y-39828685D01*
X141302284Y-39828178D01*
X141302260Y-39828167D01*
X141263836Y-39812251D01*
X141263833Y-39812250D01*
X141262566Y-39811725D01*
X141241927Y-39804213D01*
X141240610Y-39803798D01*
X141240593Y-39803792D01*
X141222853Y-39798199D01*
X141199656Y-39790886D01*
X141150949Y-39777836D01*
X141150931Y-39777830D01*
X140985234Y-39733431D01*
X140979920Y-39732253D01*
X140943282Y-39724131D01*
X140943261Y-39724127D01*
X140941949Y-39723836D01*
X140927871Y-39721354D01*
X140921688Y-39720264D01*
X140921683Y-39720263D01*
X140920326Y-39720024D01*
X140914667Y-39719279D01*
X140877751Y-39714419D01*
X140877736Y-39714417D01*
X140876404Y-39714242D01*
X140702932Y-39699065D01*
X140649752Y-39694412D01*
X140649093Y-39694369D01*
X140649069Y-39694367D01*
X140640333Y-39693795D01*
X140627612Y-39692962D01*
X140616631Y-39692483D01*
X140615983Y-39692469D01*
X140615957Y-39692468D01*
X140595136Y-39692014D01*
X140595133Y-39692014D01*
X140594493Y-39692000D01*
X140504956Y-39692000D01*
X140490290Y-39692288D01*
X140485639Y-39692379D01*
X140485626Y-39692379D01*
X140485034Y-39692391D01*
X140484454Y-39692414D01*
X140484412Y-39692415D01*
X140480437Y-39692571D01*
X140475148Y-39692779D01*
X140455214Y-39693954D01*
X140402270Y-39698121D01*
X140236592Y-39711159D01*
X140236577Y-39711160D01*
X140235376Y-39711255D01*
X140195754Y-39715945D01*
X140194511Y-39716142D01*
X140194503Y-39716143D01*
X140177464Y-39718842D01*
X140177453Y-39718844D01*
X140176228Y-39719038D01*
X140175038Y-39719275D01*
X140175014Y-39719279D01*
X140138300Y-39726582D01*
X140138277Y-39726587D01*
X140137116Y-39726818D01*
X139927522Y-39777137D01*
X139889128Y-39787965D01*
X139887988Y-39788336D01*
X139887963Y-39788343D01*
X139881231Y-39790531D01*
X139870333Y-39794072D01*
X139869145Y-39794510D01*
X139869143Y-39794511D01*
X139834068Y-39807451D01*
X139834041Y-39807462D01*
X139832915Y-39807877D01*
X139633763Y-39890368D01*
X139597530Y-39907072D01*
X139596459Y-39907618D01*
X139596444Y-39907625D01*
X139581015Y-39915487D01*
X139579932Y-39916039D01*
X139545136Y-39935526D01*
X139361342Y-40048156D01*
X139360325Y-40048835D01*
X139360304Y-40048849D01*
X139348440Y-40056777D01*
X139328164Y-40070326D01*
X139312173Y-40081945D01*
X139280862Y-40106629D01*
X139279900Y-40107450D01*
X139279891Y-40107458D01*
X139216001Y-40162025D01*
X139215993Y-40162032D01*
X139214250Y-40163521D01*
X139212630Y-40165124D01*
X139212621Y-40165132D01*
X139163074Y-40214150D01*
X139161445Y-40215762D01*
X139159946Y-40217480D01*
X139159938Y-40217488D01*
X139138785Y-40241724D01*
X139137277Y-40243452D01*
X139135898Y-40245287D01*
X139135895Y-40245291D01*
X139096738Y-40297404D01*
X139096736Y-40297407D01*
X139092645Y-40302852D01*
X139032579Y-40434378D01*
X139012577Y-40502499D01*
X139011937Y-40506947D01*
X139011936Y-40506954D01*
X138992639Y-40641170D01*
X138992638Y-40641177D01*
X138992000Y-40645618D01*
X138992000Y-40715814D01*
X138971998Y-40783935D01*
X138918342Y-40830428D01*
X138848068Y-40840532D01*
X138783488Y-40811038D01*
X138776982Y-40804987D01*
X138728171Y-40756261D01*
X138716760Y-40747249D01*
X138578757Y-40662184D01*
X138565576Y-40656037D01*
X138517194Y-40639989D01*
X138503101Y-40639500D01*
X138500000Y-40645711D01*
X138500000Y-44901654D01*
X138498718Y-44919583D01*
X138492000Y-44966310D01*
X138492000Y-47765901D01*
X138471998Y-47834022D01*
X138418342Y-47880515D01*
X138348068Y-47890619D01*
X138283488Y-47861125D01*
X138278749Y-47856718D01*
X138266760Y-47847249D01*
X138128757Y-47762184D01*
X138115576Y-47756037D01*
X137961290Y-47704862D01*
X137947914Y-47701995D01*
X137853562Y-47692328D01*
X137847145Y-47692000D01*
X136826115Y-47692000D01*
X136810876Y-47696475D01*
X136809671Y-47697865D01*
X136808000Y-47705548D01*
X136808000Y-50289884D01*
X136812475Y-50305123D01*
X136813865Y-50306328D01*
X136821548Y-50307999D01*
X137847095Y-50307999D01*
X137853614Y-50307662D01*
X137949206Y-50297743D01*
X137962600Y-50294851D01*
X138116784Y-50243412D01*
X138129962Y-50237239D01*
X138267807Y-50151937D01*
X138284945Y-50138354D01*
X138286322Y-50140091D01*
X138339107Y-50111208D01*
X138409927Y-50116209D01*
X138466801Y-50158705D01*
X138491671Y-50225203D01*
X138492000Y-50234304D01*
X138492000Y-51366000D01*
X138471998Y-51434121D01*
X138418342Y-51480614D01*
X138366000Y-51492000D01*
X133634000Y-51492000D01*
X133565879Y-51471998D01*
X133519386Y-51418342D01*
X133508000Y-51366000D01*
X133508000Y-49597095D01*
X134042001Y-49597095D01*
X134042338Y-49603614D01*
X134052257Y-49699206D01*
X134055149Y-49712600D01*
X134106588Y-49866784D01*
X134112761Y-49879962D01*
X134198063Y-50017807D01*
X134207099Y-50029208D01*
X134321829Y-50143739D01*
X134333240Y-50152751D01*
X134471243Y-50237816D01*
X134484424Y-50243963D01*
X134638710Y-50295138D01*
X134652086Y-50298005D01*
X134746438Y-50307672D01*
X134752854Y-50308000D01*
X135773885Y-50308000D01*
X135789124Y-50303525D01*
X135790329Y-50302135D01*
X135792000Y-50294452D01*
X135792000Y-49526115D01*
X135787525Y-49510876D01*
X135786135Y-49509671D01*
X135778452Y-49508000D01*
X134060116Y-49508000D01*
X134044877Y-49512475D01*
X134043672Y-49513865D01*
X134042001Y-49521548D01*
X134042001Y-49597095D01*
X133508000Y-49597095D01*
X133508000Y-48473885D01*
X134042000Y-48473885D01*
X134046475Y-48489124D01*
X134047865Y-48490329D01*
X134055548Y-48492000D01*
X135773885Y-48492000D01*
X135789124Y-48487525D01*
X135790329Y-48486135D01*
X135792000Y-48478452D01*
X135792000Y-47710116D01*
X135787525Y-47694877D01*
X135786135Y-47693672D01*
X135778452Y-47692001D01*
X134752905Y-47692001D01*
X134746386Y-47692338D01*
X134650794Y-47702257D01*
X134637400Y-47705149D01*
X134483216Y-47756588D01*
X134470038Y-47762761D01*
X134332193Y-47848063D01*
X134320792Y-47857099D01*
X134206261Y-47971829D01*
X134197249Y-47983240D01*
X134112184Y-48121243D01*
X134106037Y-48134424D01*
X134054862Y-48288710D01*
X134051995Y-48302086D01*
X134042328Y-48396438D01*
X134042000Y-48402855D01*
X134042000Y-48473885D01*
X133508000Y-48473885D01*
X133508000Y-46832549D01*
X133507728Y-46815914D01*
X133507458Y-46807673D01*
X133506642Y-46791083D01*
X133490342Y-46542392D01*
X133490248Y-46541442D01*
X133490246Y-46541412D01*
X133487184Y-46510321D01*
X133487184Y-46510319D01*
X133487085Y-46509316D01*
X133484934Y-46492976D01*
X133483153Y-46482185D01*
X133480284Y-46464810D01*
X133479518Y-46460171D01*
X133477739Y-46451224D01*
X133433758Y-46230120D01*
X133431702Y-46219783D01*
X133429646Y-46210965D01*
X133424387Y-46188412D01*
X133424385Y-46188405D01*
X133424153Y-46187409D01*
X133419887Y-46171488D01*
X133410237Y-46139676D01*
X133331453Y-45907587D01*
X133319742Y-45876471D01*
X133313435Y-45861245D01*
X133299718Y-45830971D01*
X133292090Y-45815502D01*
X133191756Y-45612045D01*
X133191753Y-45612039D01*
X133191316Y-45611153D01*
X133183830Y-45597147D01*
X133176118Y-45582719D01*
X133176104Y-45582693D01*
X133175646Y-45581837D01*
X133167405Y-45567563D01*
X133149850Y-45539331D01*
X133013684Y-45335544D01*
X132994329Y-45308534D01*
X132984296Y-45295458D01*
X132983655Y-45294677D01*
X132983640Y-45294658D01*
X132963856Y-45270550D01*
X132963841Y-45270532D01*
X132963199Y-45269750D01*
X132962531Y-45268988D01*
X132799199Y-45082743D01*
X132799158Y-45082697D01*
X132798858Y-45082355D01*
X132787649Y-45069990D01*
X132785835Y-45068054D01*
X132782377Y-45064362D01*
X132782346Y-45064329D01*
X132782012Y-45063973D01*
X132770496Y-45052076D01*
X130544905Y-42826485D01*
X130530443Y-42800000D01*
X133940715Y-42800000D01*
X133959772Y-42944754D01*
X134015645Y-43079642D01*
X134104526Y-43195474D01*
X134111076Y-43200500D01*
X134111079Y-43200503D01*
X134213804Y-43279327D01*
X134220357Y-43284355D01*
X134329346Y-43329500D01*
X134346128Y-43336451D01*
X134355246Y-43340228D01*
X134500000Y-43359285D01*
X134508188Y-43358207D01*
X134636566Y-43341306D01*
X134644754Y-43340228D01*
X134652384Y-43337068D01*
X134660362Y-43334930D01*
X134660770Y-43336451D01*
X134695717Y-43329500D01*
X135119500Y-43329500D01*
X135187621Y-43349502D01*
X135234114Y-43403158D01*
X135245500Y-43455500D01*
X135245500Y-44397756D01*
X135252202Y-44459448D01*
X135254974Y-44466841D01*
X135254974Y-44466843D01*
X135267106Y-44499206D01*
X135302929Y-44594764D01*
X135308309Y-44601943D01*
X135308311Y-44601946D01*
X135324498Y-44623544D01*
X135389596Y-44710404D01*
X135396776Y-44715785D01*
X135498054Y-44791689D01*
X135498057Y-44791691D01*
X135505236Y-44797071D01*
X135574912Y-44823191D01*
X135633157Y-44845026D01*
X135633159Y-44845026D01*
X135640552Y-44847798D01*
X135648402Y-44848651D01*
X135648403Y-44848651D01*
X135698847Y-44854131D01*
X135702244Y-44854500D01*
X136297756Y-44854500D01*
X136301153Y-44854131D01*
X136351597Y-44848651D01*
X136351598Y-44848651D01*
X136359448Y-44847798D01*
X136366841Y-44845026D01*
X136366843Y-44845026D01*
X136425088Y-44823191D01*
X136494764Y-44797071D01*
X136501943Y-44791691D01*
X136501946Y-44791689D01*
X136603224Y-44715785D01*
X136610404Y-44710404D01*
X136675502Y-44623544D01*
X136691689Y-44601946D01*
X136691691Y-44601943D01*
X136697071Y-44594764D01*
X136747798Y-44459448D01*
X136748652Y-44451588D01*
X136750343Y-44444476D01*
X136785561Y-44382830D01*
X136848516Y-44350010D01*
X136919221Y-44356436D01*
X136975228Y-44400068D01*
X136998253Y-44460620D01*
X137002257Y-44499206D01*
X137005149Y-44512600D01*
X137056588Y-44666784D01*
X137062761Y-44679962D01*
X137148063Y-44817807D01*
X137157099Y-44829208D01*
X137271829Y-44943739D01*
X137283240Y-44952751D01*
X137421243Y-45037816D01*
X137434424Y-45043963D01*
X137482806Y-45060011D01*
X137496899Y-45060500D01*
X137500000Y-45054289D01*
X137500000Y-40652422D01*
X137496027Y-40638891D01*
X137489201Y-40637910D01*
X137433216Y-40656588D01*
X137420038Y-40662761D01*
X137282193Y-40748063D01*
X137270792Y-40757099D01*
X137156261Y-40871829D01*
X137147249Y-40883240D01*
X137062184Y-41021243D01*
X137056037Y-41034424D01*
X137004862Y-41188710D01*
X137001995Y-41202086D01*
X136998214Y-41238985D01*
X136971372Y-41304712D01*
X136913257Y-41345494D01*
X136842319Y-41348382D01*
X136781081Y-41312460D01*
X136750287Y-41255288D01*
X136748652Y-41248409D01*
X136747798Y-41240552D01*
X136697071Y-41105236D01*
X136691691Y-41098057D01*
X136691689Y-41098054D01*
X136615785Y-40996776D01*
X136610404Y-40989596D01*
X136566594Y-40956762D01*
X136501946Y-40908311D01*
X136501943Y-40908309D01*
X136494764Y-40902929D01*
X136405046Y-40869296D01*
X136366843Y-40854974D01*
X136366841Y-40854974D01*
X136359448Y-40852202D01*
X136351598Y-40851349D01*
X136351597Y-40851349D01*
X136301153Y-40845869D01*
X136301152Y-40845869D01*
X136297756Y-40845500D01*
X135702244Y-40845500D01*
X135698848Y-40845869D01*
X135698847Y-40845869D01*
X135648403Y-40851349D01*
X135648402Y-40851349D01*
X135640552Y-40852202D01*
X135633159Y-40854974D01*
X135633157Y-40854974D01*
X135594954Y-40869296D01*
X135505236Y-40902929D01*
X135498057Y-40908309D01*
X135498054Y-40908311D01*
X135433406Y-40956762D01*
X135389596Y-40989596D01*
X135384215Y-40996776D01*
X135308311Y-41098054D01*
X135308309Y-41098057D01*
X135302929Y-41105236D01*
X135252202Y-41240552D01*
X135245500Y-41302244D01*
X135245500Y-42244500D01*
X135225498Y-42312621D01*
X135171842Y-42359114D01*
X135119500Y-42370500D01*
X134893902Y-42370500D01*
X134825781Y-42350498D01*
X134817198Y-42344462D01*
X134811959Y-42340442D01*
X134779643Y-42315645D01*
X134644754Y-42259772D01*
X134500000Y-42240715D01*
X134491812Y-42241793D01*
X134363432Y-42258694D01*
X134363430Y-42258695D01*
X134355246Y-42259772D01*
X134307430Y-42279578D01*
X134227986Y-42312485D01*
X134227984Y-42312486D01*
X134220358Y-42315645D01*
X134104526Y-42404526D01*
X134015645Y-42520358D01*
X133959772Y-42655246D01*
X133940715Y-42800000D01*
X130530443Y-42800000D01*
X130510879Y-42764173D01*
X130508000Y-42737390D01*
X130508000Y-41605507D01*
X130507517Y-41583369D01*
X130507038Y-41572388D01*
X130505588Y-41550252D01*
X130485759Y-41323600D01*
X130479974Y-41279660D01*
X130476160Y-41258030D01*
X130470646Y-41233157D01*
X130466866Y-41216106D01*
X130466862Y-41216090D01*
X130466569Y-41214768D01*
X130459587Y-41188710D01*
X130455084Y-41171902D01*
X130455079Y-41171883D01*
X130418246Y-41034424D01*
X130409113Y-41000338D01*
X130404030Y-40984215D01*
X130396208Y-40959408D01*
X130396207Y-40959405D01*
X130395787Y-40958073D01*
X130388275Y-40937434D01*
X130387749Y-40936164D01*
X130371833Y-40897740D01*
X130371822Y-40897716D01*
X130371315Y-40896491D01*
X130277498Y-40695300D01*
X130257033Y-40655986D01*
X130246051Y-40636965D01*
X130245315Y-40635809D01*
X130245303Y-40635790D01*
X130222985Y-40600760D01*
X130222241Y-40599592D01*
X130094911Y-40417746D01*
X130067921Y-40382573D01*
X130053803Y-40365749D01*
X130023874Y-40333089D01*
X129866911Y-40176126D01*
X129834251Y-40146197D01*
X129833211Y-40145324D01*
X129818481Y-40132963D01*
X129818468Y-40132953D01*
X129817427Y-40132079D01*
X129782254Y-40105089D01*
X129600408Y-39977759D01*
X129593159Y-39973141D01*
X129564210Y-39954697D01*
X129564191Y-39954685D01*
X129563035Y-39953949D01*
X129561856Y-39953268D01*
X129561844Y-39953261D01*
X129553524Y-39948458D01*
X129544014Y-39942967D01*
X129528557Y-39934921D01*
X129505911Y-39923132D01*
X129505897Y-39923125D01*
X129504700Y-39922502D01*
X129303509Y-39828685D01*
X129302284Y-39828178D01*
X129302260Y-39828167D01*
X129263836Y-39812251D01*
X129263833Y-39812250D01*
X129262566Y-39811725D01*
X129241927Y-39804213D01*
X129240610Y-39803798D01*
X129240593Y-39803792D01*
X129222853Y-39798199D01*
X129199656Y-39790886D01*
X129150949Y-39777836D01*
X129150931Y-39777830D01*
X128985234Y-39733431D01*
X128979920Y-39732253D01*
X128943282Y-39724131D01*
X128943261Y-39724127D01*
X128941949Y-39723836D01*
X128927871Y-39721354D01*
X128921688Y-39720264D01*
X128921683Y-39720263D01*
X128920326Y-39720024D01*
X128914667Y-39719279D01*
X128877751Y-39714419D01*
X128877736Y-39714417D01*
X128876404Y-39714242D01*
X128702932Y-39699065D01*
X128649752Y-39694412D01*
X128649093Y-39694369D01*
X128649069Y-39694367D01*
X128640333Y-39693795D01*
X128627612Y-39692962D01*
X128616631Y-39692483D01*
X128615983Y-39692469D01*
X128615957Y-39692468D01*
X128595136Y-39692014D01*
X128595133Y-39692014D01*
X128594493Y-39692000D01*
X128504956Y-39692000D01*
X128490290Y-39692288D01*
X128485639Y-39692379D01*
X128485626Y-39692379D01*
X128485034Y-39692391D01*
X128484454Y-39692414D01*
X128484412Y-39692415D01*
X128480437Y-39692571D01*
X128475148Y-39692779D01*
X128455214Y-39693954D01*
X128402270Y-39698121D01*
X128236592Y-39711159D01*
X128236577Y-39711160D01*
X128235376Y-39711255D01*
X128195754Y-39715945D01*
X128194511Y-39716142D01*
X128194503Y-39716143D01*
X128177464Y-39718842D01*
X128177453Y-39718844D01*
X128176228Y-39719038D01*
X128175038Y-39719275D01*
X128175014Y-39719279D01*
X128138300Y-39726582D01*
X128138277Y-39726587D01*
X128137116Y-39726818D01*
X127927522Y-39777137D01*
X127889128Y-39787965D01*
X127887988Y-39788336D01*
X127887963Y-39788343D01*
X127881231Y-39790531D01*
X127870333Y-39794072D01*
X127869145Y-39794510D01*
X127869143Y-39794511D01*
X127834068Y-39807451D01*
X127834041Y-39807462D01*
X127832915Y-39807877D01*
X127633763Y-39890368D01*
X127597530Y-39907072D01*
X127596459Y-39907618D01*
X127596444Y-39907625D01*
X127581015Y-39915487D01*
X127579932Y-39916039D01*
X127545136Y-39935526D01*
X127361342Y-40048156D01*
X127360325Y-40048835D01*
X127360304Y-40048849D01*
X127348440Y-40056777D01*
X127328164Y-40070326D01*
X127312173Y-40081945D01*
X127280862Y-40106629D01*
X127279900Y-40107450D01*
X127279891Y-40107458D01*
X127216001Y-40162025D01*
X127215993Y-40162032D01*
X127214250Y-40163521D01*
X127212630Y-40165124D01*
X127212621Y-40165132D01*
X127163074Y-40214150D01*
X127161445Y-40215762D01*
X127159946Y-40217480D01*
X127159938Y-40217488D01*
X127138785Y-40241724D01*
X127137277Y-40243452D01*
X127135898Y-40245287D01*
X127135895Y-40245291D01*
X127096738Y-40297404D01*
X127096736Y-40297407D01*
X127092645Y-40302852D01*
X127032579Y-40434378D01*
X127012577Y-40502499D01*
X127011937Y-40506947D01*
X127011936Y-40506954D01*
X126992639Y-40641170D01*
X126992638Y-40641177D01*
X126992000Y-40645618D01*
X126992000Y-40715814D01*
X126971998Y-40783935D01*
X126918342Y-40830428D01*
X126848068Y-40840532D01*
X126783488Y-40811038D01*
X126776982Y-40804987D01*
X126728171Y-40756261D01*
X126716760Y-40747249D01*
X126578757Y-40662184D01*
X126565576Y-40656037D01*
X126517194Y-40639989D01*
X126503101Y-40639500D01*
X126500000Y-40645711D01*
X126500000Y-44901654D01*
X126498718Y-44919583D01*
X126492000Y-44966310D01*
X126492000Y-47765901D01*
X126471998Y-47834022D01*
X126418342Y-47880515D01*
X126348068Y-47890619D01*
X126283488Y-47861125D01*
X126278749Y-47856718D01*
X126266760Y-47847249D01*
X126128757Y-47762184D01*
X126115576Y-47756037D01*
X125961290Y-47704862D01*
X125947914Y-47701995D01*
X125853562Y-47692328D01*
X125847145Y-47692000D01*
X124826115Y-47692000D01*
X124810876Y-47696475D01*
X124809671Y-47697865D01*
X124808000Y-47705548D01*
X124808000Y-50289884D01*
X124812475Y-50305123D01*
X124813865Y-50306328D01*
X124821548Y-50307999D01*
X125847095Y-50307999D01*
X125853614Y-50307662D01*
X125949206Y-50297743D01*
X125962600Y-50294851D01*
X126116784Y-50243412D01*
X126129962Y-50237239D01*
X126267807Y-50151937D01*
X126284945Y-50138354D01*
X126286322Y-50140091D01*
X126339107Y-50111208D01*
X126409927Y-50116209D01*
X126466801Y-50158705D01*
X126491671Y-50225203D01*
X126492000Y-50234304D01*
X126492000Y-51366000D01*
X126471998Y-51434121D01*
X126418342Y-51480614D01*
X126366000Y-51492000D01*
X121634000Y-51492000D01*
X121565879Y-51471998D01*
X121519386Y-51418342D01*
X121508000Y-51366000D01*
X121508000Y-49597095D01*
X122042001Y-49597095D01*
X122042338Y-49603614D01*
X122052257Y-49699206D01*
X122055149Y-49712600D01*
X122106588Y-49866784D01*
X122112761Y-49879962D01*
X122198063Y-50017807D01*
X122207099Y-50029208D01*
X122321829Y-50143739D01*
X122333240Y-50152751D01*
X122471243Y-50237816D01*
X122484424Y-50243963D01*
X122638710Y-50295138D01*
X122652086Y-50298005D01*
X122746438Y-50307672D01*
X122752854Y-50308000D01*
X123773885Y-50308000D01*
X123789124Y-50303525D01*
X123790329Y-50302135D01*
X123792000Y-50294452D01*
X123792000Y-49526115D01*
X123787525Y-49510876D01*
X123786135Y-49509671D01*
X123778452Y-49508000D01*
X122060116Y-49508000D01*
X122044877Y-49512475D01*
X122043672Y-49513865D01*
X122042001Y-49521548D01*
X122042001Y-49597095D01*
X121508000Y-49597095D01*
X121508000Y-48473885D01*
X122042000Y-48473885D01*
X122046475Y-48489124D01*
X122047865Y-48490329D01*
X122055548Y-48492000D01*
X123773885Y-48492000D01*
X123789124Y-48487525D01*
X123790329Y-48486135D01*
X123792000Y-48478452D01*
X123792000Y-47710116D01*
X123787525Y-47694877D01*
X123786135Y-47693672D01*
X123778452Y-47692001D01*
X122752905Y-47692001D01*
X122746386Y-47692338D01*
X122650794Y-47702257D01*
X122637400Y-47705149D01*
X122483216Y-47756588D01*
X122470038Y-47762761D01*
X122332193Y-47848063D01*
X122320792Y-47857099D01*
X122206261Y-47971829D01*
X122197249Y-47983240D01*
X122112184Y-48121243D01*
X122106037Y-48134424D01*
X122054862Y-48288710D01*
X122051995Y-48302086D01*
X122042328Y-48396438D01*
X122042000Y-48402855D01*
X122042000Y-48473885D01*
X121508000Y-48473885D01*
X121508000Y-46832549D01*
X121507728Y-46815914D01*
X121507458Y-46807673D01*
X121506642Y-46791083D01*
X121490342Y-46542392D01*
X121490248Y-46541442D01*
X121490246Y-46541412D01*
X121487184Y-46510321D01*
X121487184Y-46510319D01*
X121487085Y-46509316D01*
X121484934Y-46492976D01*
X121483153Y-46482185D01*
X121480284Y-46464810D01*
X121479518Y-46460171D01*
X121477739Y-46451224D01*
X121433758Y-46230120D01*
X121431702Y-46219783D01*
X121429646Y-46210965D01*
X121424387Y-46188412D01*
X121424385Y-46188405D01*
X121424153Y-46187409D01*
X121419887Y-46171488D01*
X121410237Y-46139676D01*
X121331453Y-45907587D01*
X121319742Y-45876471D01*
X121313435Y-45861245D01*
X121299718Y-45830971D01*
X121292090Y-45815502D01*
X121191756Y-45612045D01*
X121191753Y-45612039D01*
X121191316Y-45611153D01*
X121183830Y-45597147D01*
X121176118Y-45582719D01*
X121176104Y-45582693D01*
X121175646Y-45581837D01*
X121167405Y-45567563D01*
X121149850Y-45539331D01*
X121013684Y-45335544D01*
X120994329Y-45308534D01*
X120984296Y-45295458D01*
X120983655Y-45294677D01*
X120983640Y-45294658D01*
X120963856Y-45270550D01*
X120963841Y-45270532D01*
X120963199Y-45269750D01*
X120962531Y-45268988D01*
X120799199Y-45082743D01*
X120799158Y-45082697D01*
X120798858Y-45082355D01*
X120787649Y-45069990D01*
X120785835Y-45068054D01*
X120782377Y-45064362D01*
X120782346Y-45064329D01*
X120782012Y-45063973D01*
X120770496Y-45052076D01*
X118544905Y-42826485D01*
X118530443Y-42800000D01*
X121940715Y-42800000D01*
X121959772Y-42944754D01*
X122015645Y-43079642D01*
X122104526Y-43195474D01*
X122111076Y-43200500D01*
X122111079Y-43200503D01*
X122213804Y-43279327D01*
X122220357Y-43284355D01*
X122329346Y-43329500D01*
X122346128Y-43336451D01*
X122355246Y-43340228D01*
X122500000Y-43359285D01*
X122508188Y-43358207D01*
X122636566Y-43341306D01*
X122644754Y-43340228D01*
X122652384Y-43337068D01*
X122660362Y-43334930D01*
X122660770Y-43336451D01*
X122695717Y-43329500D01*
X123119500Y-43329500D01*
X123187621Y-43349502D01*
X123234114Y-43403158D01*
X123245500Y-43455500D01*
X123245500Y-44397756D01*
X123252202Y-44459448D01*
X123254974Y-44466841D01*
X123254974Y-44466843D01*
X123267106Y-44499206D01*
X123302929Y-44594764D01*
X123308309Y-44601943D01*
X123308311Y-44601946D01*
X123324498Y-44623544D01*
X123389596Y-44710404D01*
X123396776Y-44715785D01*
X123498054Y-44791689D01*
X123498057Y-44791691D01*
X123505236Y-44797071D01*
X123574912Y-44823191D01*
X123633157Y-44845026D01*
X123633159Y-44845026D01*
X123640552Y-44847798D01*
X123648402Y-44848651D01*
X123648403Y-44848651D01*
X123698847Y-44854131D01*
X123702244Y-44854500D01*
X124297756Y-44854500D01*
X124301153Y-44854131D01*
X124351597Y-44848651D01*
X124351598Y-44848651D01*
X124359448Y-44847798D01*
X124366841Y-44845026D01*
X124366843Y-44845026D01*
X124425088Y-44823191D01*
X124494764Y-44797071D01*
X124501943Y-44791691D01*
X124501946Y-44791689D01*
X124603224Y-44715785D01*
X124610404Y-44710404D01*
X124675502Y-44623544D01*
X124691689Y-44601946D01*
X124691691Y-44601943D01*
X124697071Y-44594764D01*
X124747798Y-44459448D01*
X124748652Y-44451588D01*
X124750343Y-44444476D01*
X124785561Y-44382830D01*
X124848516Y-44350010D01*
X124919221Y-44356436D01*
X124975228Y-44400068D01*
X124998253Y-44460620D01*
X125002257Y-44499206D01*
X125005149Y-44512600D01*
X125056588Y-44666784D01*
X125062761Y-44679962D01*
X125148063Y-44817807D01*
X125157099Y-44829208D01*
X125271829Y-44943739D01*
X125283240Y-44952751D01*
X125421243Y-45037816D01*
X125434424Y-45043963D01*
X125482806Y-45060011D01*
X125496899Y-45060500D01*
X125500000Y-45054289D01*
X125500000Y-40652422D01*
X125496027Y-40638891D01*
X125489201Y-40637910D01*
X125433216Y-40656588D01*
X125420038Y-40662761D01*
X125282193Y-40748063D01*
X125270792Y-40757099D01*
X125156261Y-40871829D01*
X125147249Y-40883240D01*
X125062184Y-41021243D01*
X125056037Y-41034424D01*
X125004862Y-41188710D01*
X125001995Y-41202086D01*
X124998214Y-41238985D01*
X124971372Y-41304712D01*
X124913257Y-41345494D01*
X124842319Y-41348382D01*
X124781081Y-41312460D01*
X124750287Y-41255288D01*
X124748652Y-41248409D01*
X124747798Y-41240552D01*
X124697071Y-41105236D01*
X124691691Y-41098057D01*
X124691689Y-41098054D01*
X124615785Y-40996776D01*
X124610404Y-40989596D01*
X124566594Y-40956762D01*
X124501946Y-40908311D01*
X124501943Y-40908309D01*
X124494764Y-40902929D01*
X124405046Y-40869296D01*
X124366843Y-40854974D01*
X124366841Y-40854974D01*
X124359448Y-40852202D01*
X124351598Y-40851349D01*
X124351597Y-40851349D01*
X124301153Y-40845869D01*
X124301152Y-40845869D01*
X124297756Y-40845500D01*
X123702244Y-40845500D01*
X123698848Y-40845869D01*
X123698847Y-40845869D01*
X123648403Y-40851349D01*
X123648402Y-40851349D01*
X123640552Y-40852202D01*
X123633159Y-40854974D01*
X123633157Y-40854974D01*
X123594954Y-40869296D01*
X123505236Y-40902929D01*
X123498057Y-40908309D01*
X123498054Y-40908311D01*
X123433406Y-40956762D01*
X123389596Y-40989596D01*
X123384215Y-40996776D01*
X123308311Y-41098054D01*
X123308309Y-41098057D01*
X123302929Y-41105236D01*
X123252202Y-41240552D01*
X123245500Y-41302244D01*
X123245500Y-42244500D01*
X123225498Y-42312621D01*
X123171842Y-42359114D01*
X123119500Y-42370500D01*
X122893902Y-42370500D01*
X122825781Y-42350498D01*
X122817198Y-42344462D01*
X122811959Y-42340442D01*
X122779643Y-42315645D01*
X122644754Y-42259772D01*
X122500000Y-42240715D01*
X122491812Y-42241793D01*
X122363432Y-42258694D01*
X122363430Y-42258695D01*
X122355246Y-42259772D01*
X122307430Y-42279578D01*
X122227986Y-42312485D01*
X122227984Y-42312486D01*
X122220358Y-42315645D01*
X122104526Y-42404526D01*
X122015645Y-42520358D01*
X121959772Y-42655246D01*
X121940715Y-42800000D01*
X118530443Y-42800000D01*
X118510879Y-42764173D01*
X118508000Y-42737390D01*
X118508000Y-41605507D01*
X118507517Y-41583369D01*
X118507038Y-41572388D01*
X118505588Y-41550252D01*
X118485759Y-41323600D01*
X118479974Y-41279660D01*
X118476160Y-41258030D01*
X118470646Y-41233157D01*
X118466866Y-41216106D01*
X118466862Y-41216090D01*
X118466569Y-41214768D01*
X118459587Y-41188710D01*
X118455084Y-41171902D01*
X118455079Y-41171883D01*
X118418246Y-41034424D01*
X118409113Y-41000338D01*
X118404030Y-40984215D01*
X118396208Y-40959408D01*
X118396207Y-40959405D01*
X118395787Y-40958073D01*
X118388275Y-40937434D01*
X118387749Y-40936164D01*
X118371833Y-40897740D01*
X118371822Y-40897716D01*
X118371315Y-40896491D01*
X118277498Y-40695300D01*
X118257033Y-40655986D01*
X118246051Y-40636965D01*
X118245315Y-40635809D01*
X118245303Y-40635790D01*
X118222985Y-40600760D01*
X118222241Y-40599592D01*
X118094911Y-40417746D01*
X118067921Y-40382573D01*
X118053803Y-40365749D01*
X118023874Y-40333089D01*
X117866911Y-40176126D01*
X117834251Y-40146197D01*
X117833211Y-40145324D01*
X117818481Y-40132963D01*
X117818468Y-40132953D01*
X117817427Y-40132079D01*
X117782254Y-40105089D01*
X117600408Y-39977759D01*
X117593159Y-39973141D01*
X117564210Y-39954697D01*
X117564191Y-39954685D01*
X117563035Y-39953949D01*
X117561856Y-39953268D01*
X117561844Y-39953261D01*
X117553524Y-39948458D01*
X117544014Y-39942967D01*
X117528557Y-39934921D01*
X117505911Y-39923132D01*
X117505897Y-39923125D01*
X117504700Y-39922502D01*
X117303509Y-39828685D01*
X117302284Y-39828178D01*
X117302260Y-39828167D01*
X117263836Y-39812251D01*
X117263833Y-39812250D01*
X117262566Y-39811725D01*
X117241927Y-39804213D01*
X117240610Y-39803798D01*
X117240593Y-39803792D01*
X117222853Y-39798199D01*
X117199656Y-39790886D01*
X117150949Y-39777836D01*
X117150931Y-39777830D01*
X116985234Y-39733431D01*
X116979920Y-39732253D01*
X116943282Y-39724131D01*
X116943261Y-39724127D01*
X116941949Y-39723836D01*
X116927871Y-39721354D01*
X116921688Y-39720264D01*
X116921683Y-39720263D01*
X116920326Y-39720024D01*
X116914667Y-39719279D01*
X116877751Y-39714419D01*
X116877736Y-39714417D01*
X116876404Y-39714242D01*
X116702932Y-39699065D01*
X116649752Y-39694412D01*
X116649093Y-39694369D01*
X116649069Y-39694367D01*
X116640333Y-39693795D01*
X116627612Y-39692962D01*
X116616631Y-39692483D01*
X116615983Y-39692469D01*
X116615957Y-39692468D01*
X116595136Y-39692014D01*
X116595133Y-39692014D01*
X116594493Y-39692000D01*
X116504956Y-39692000D01*
X116490290Y-39692288D01*
X116485639Y-39692379D01*
X116485626Y-39692379D01*
X116485034Y-39692391D01*
X116484454Y-39692414D01*
X116484412Y-39692415D01*
X116480437Y-39692571D01*
X116475148Y-39692779D01*
X116455214Y-39693954D01*
X116402270Y-39698121D01*
X116236592Y-39711159D01*
X116236577Y-39711160D01*
X116235376Y-39711255D01*
X116195754Y-39715945D01*
X116194511Y-39716142D01*
X116194503Y-39716143D01*
X116177464Y-39718842D01*
X116177453Y-39718844D01*
X116176228Y-39719038D01*
X116175038Y-39719275D01*
X116175014Y-39719279D01*
X116138300Y-39726582D01*
X116138277Y-39726587D01*
X116137116Y-39726818D01*
X115927522Y-39777137D01*
X115889128Y-39787965D01*
X115887988Y-39788336D01*
X115887963Y-39788343D01*
X115881231Y-39790531D01*
X115870333Y-39794072D01*
X115869145Y-39794510D01*
X115869143Y-39794511D01*
X115834068Y-39807451D01*
X115834041Y-39807462D01*
X115832915Y-39807877D01*
X115633763Y-39890368D01*
X115597530Y-39907072D01*
X115596459Y-39907618D01*
X115596444Y-39907625D01*
X115581015Y-39915487D01*
X115579932Y-39916039D01*
X115545136Y-39935526D01*
X115361342Y-40048156D01*
X115360325Y-40048835D01*
X115360304Y-40048849D01*
X115348440Y-40056777D01*
X115328164Y-40070326D01*
X115312173Y-40081945D01*
X115280862Y-40106629D01*
X115279900Y-40107450D01*
X115279891Y-40107458D01*
X115216001Y-40162025D01*
X115215993Y-40162032D01*
X115214250Y-40163521D01*
X115212630Y-40165124D01*
X115212621Y-40165132D01*
X115163074Y-40214150D01*
X115161445Y-40215762D01*
X115159946Y-40217480D01*
X115159938Y-40217488D01*
X115138785Y-40241724D01*
X115137277Y-40243452D01*
X115135898Y-40245287D01*
X115135895Y-40245291D01*
X115096738Y-40297404D01*
X115096736Y-40297407D01*
X115092645Y-40302852D01*
X115032579Y-40434378D01*
X115012577Y-40502499D01*
X115011937Y-40506947D01*
X115011936Y-40506954D01*
X114992639Y-40641170D01*
X114992638Y-40641177D01*
X114992000Y-40645618D01*
X114992000Y-40715814D01*
X114971998Y-40783935D01*
X114918342Y-40830428D01*
X114848068Y-40840532D01*
X114783488Y-40811038D01*
X114776982Y-40804987D01*
X114728171Y-40756261D01*
X114716760Y-40747249D01*
X114578757Y-40662184D01*
X114565576Y-40656037D01*
X114517194Y-40639989D01*
X114503101Y-40639500D01*
X114500000Y-40645711D01*
X114500000Y-44901654D01*
X114498718Y-44919583D01*
X114492000Y-44966310D01*
X114492000Y-47765901D01*
X114471998Y-47834022D01*
X114418342Y-47880515D01*
X114348068Y-47890619D01*
X114283488Y-47861125D01*
X114278749Y-47856718D01*
X114266760Y-47847249D01*
X114128757Y-47762184D01*
X114115576Y-47756037D01*
X113961290Y-47704862D01*
X113947914Y-47701995D01*
X113853562Y-47692328D01*
X113847145Y-47692000D01*
X112826115Y-47692000D01*
X112810876Y-47696475D01*
X112809671Y-47697865D01*
X112808000Y-47705548D01*
X112808000Y-50289884D01*
X112812475Y-50305123D01*
X112813865Y-50306328D01*
X112821548Y-50307999D01*
X113847095Y-50307999D01*
X113853614Y-50307662D01*
X113949206Y-50297743D01*
X113962600Y-50294851D01*
X114116784Y-50243412D01*
X114129962Y-50237239D01*
X114267807Y-50151937D01*
X114284945Y-50138354D01*
X114286322Y-50140091D01*
X114339107Y-50111208D01*
X114409927Y-50116209D01*
X114466801Y-50158705D01*
X114491671Y-50225203D01*
X114492000Y-50234304D01*
X114492000Y-51366000D01*
X114471998Y-51434121D01*
X114418342Y-51480614D01*
X114366000Y-51492000D01*
X105234000Y-51492000D01*
X105165879Y-51471998D01*
X105119386Y-51418342D01*
X105108000Y-51366000D01*
X105108000Y-51132573D01*
X105128002Y-51064452D01*
X105181658Y-51017959D01*
X105251932Y-51007855D01*
X105281099Y-51015707D01*
X105403315Y-51064962D01*
X105414770Y-51068355D01*
X105474218Y-51079964D01*
X105487168Y-51078760D01*
X105490547Y-51068235D01*
X106508000Y-51068235D01*
X106511973Y-51081766D01*
X106519794Y-51082890D01*
X106682594Y-51035130D01*
X106693681Y-51030695D01*
X106870978Y-50939381D01*
X106881024Y-50932931D01*
X107037857Y-50809738D01*
X107046506Y-50801501D01*
X107177212Y-50650877D01*
X107184147Y-50641153D01*
X107252106Y-50523681D01*
X107255443Y-50509980D01*
X107254168Y-50508975D01*
X107249120Y-50508000D01*
X106526115Y-50508000D01*
X106510876Y-50512475D01*
X106509671Y-50513865D01*
X106508000Y-50521548D01*
X106508000Y-51068235D01*
X105490547Y-51068235D01*
X105492000Y-51063709D01*
X105492000Y-49618000D01*
X105498138Y-49597095D01*
X110042001Y-49597095D01*
X110042338Y-49603614D01*
X110052257Y-49699206D01*
X110055149Y-49712600D01*
X110106588Y-49866784D01*
X110112761Y-49879962D01*
X110198063Y-50017807D01*
X110207099Y-50029208D01*
X110321829Y-50143739D01*
X110333240Y-50152751D01*
X110471243Y-50237816D01*
X110484424Y-50243963D01*
X110638710Y-50295138D01*
X110652086Y-50298005D01*
X110746438Y-50307672D01*
X110752854Y-50308000D01*
X111773885Y-50308000D01*
X111789124Y-50303525D01*
X111790329Y-50302135D01*
X111792000Y-50294452D01*
X111792000Y-49526115D01*
X111787525Y-49510876D01*
X111786135Y-49509671D01*
X111778452Y-49508000D01*
X110060116Y-49508000D01*
X110044877Y-49512475D01*
X110043672Y-49513865D01*
X110042001Y-49521548D01*
X110042001Y-49597095D01*
X105498138Y-49597095D01*
X105512002Y-49549879D01*
X105565658Y-49503386D01*
X105618000Y-49492000D01*
X107243071Y-49492000D01*
X107256602Y-49488027D01*
X107257269Y-49483385D01*
X107242374Y-49450624D01*
X107236422Y-49440273D01*
X107121032Y-49277603D01*
X107113239Y-49268574D01*
X107076096Y-49233018D01*
X107040720Y-49171463D01*
X107044239Y-49100553D01*
X107085536Y-49042803D01*
X107151499Y-49016547D01*
X107163227Y-49016000D01*
X107260695Y-49016000D01*
X107281561Y-49017740D01*
X107381005Y-49034439D01*
X107451981Y-49036112D01*
X107456435Y-49035579D01*
X107456438Y-49035579D01*
X107590919Y-49019491D01*
X107590925Y-49019490D01*
X107595379Y-49018957D01*
X107596921Y-49018544D01*
X107597187Y-49018473D01*
X107598599Y-49018094D01*
X107605235Y-49016000D01*
X107639374Y-49005226D01*
X107640705Y-49004806D01*
X107661315Y-48997302D01*
X107702206Y-48980362D01*
X107879703Y-48897594D01*
X107919027Y-48877122D01*
X107938047Y-48866140D01*
X107975409Y-48842337D01*
X108135832Y-48730008D01*
X108136940Y-48729158D01*
X108136952Y-48729149D01*
X108169880Y-48703882D01*
X108169885Y-48703878D01*
X108170994Y-48703027D01*
X108187819Y-48688909D01*
X108220491Y-48658970D01*
X108358970Y-48520491D01*
X108388909Y-48487819D01*
X108400601Y-48473885D01*
X110042000Y-48473885D01*
X110046475Y-48489124D01*
X110047865Y-48490329D01*
X110055548Y-48492000D01*
X111773885Y-48492000D01*
X111789124Y-48487525D01*
X111790329Y-48486135D01*
X111792000Y-48478452D01*
X111792000Y-47710116D01*
X111787525Y-47694877D01*
X111786135Y-47693672D01*
X111778452Y-47692001D01*
X110752905Y-47692001D01*
X110746386Y-47692338D01*
X110650794Y-47702257D01*
X110637400Y-47705149D01*
X110483216Y-47756588D01*
X110470038Y-47762761D01*
X110332193Y-47848063D01*
X110320792Y-47857099D01*
X110206261Y-47971829D01*
X110197249Y-47983240D01*
X110112184Y-48121243D01*
X110106037Y-48134424D01*
X110054862Y-48288710D01*
X110051995Y-48302086D01*
X110042328Y-48396438D01*
X110042000Y-48402855D01*
X110042000Y-48473885D01*
X108400601Y-48473885D01*
X108403027Y-48470994D01*
X108430008Y-48435832D01*
X108542337Y-48275409D01*
X108566140Y-48238047D01*
X108577122Y-48219027D01*
X108597594Y-48179703D01*
X108680362Y-48002206D01*
X108692945Y-47971829D01*
X108696790Y-47962545D01*
X108696790Y-47962544D01*
X108697321Y-47961263D01*
X108704833Y-47940624D01*
X108718159Y-47898358D01*
X108768847Y-47709189D01*
X108778439Y-47665922D01*
X108782253Y-47644292D01*
X108788038Y-47600351D01*
X108805106Y-47405254D01*
X108807039Y-47360981D01*
X108807039Y-47339019D01*
X108805106Y-47294745D01*
X108791768Y-47142288D01*
X108788039Y-47099653D01*
X108782252Y-47055698D01*
X108778438Y-47034070D01*
X108777864Y-47031482D01*
X108769142Y-46992140D01*
X108769138Y-46992125D01*
X108768847Y-46990811D01*
X108718159Y-46801642D01*
X108704833Y-46759376D01*
X108697321Y-46738737D01*
X108684594Y-46708011D01*
X108680883Y-46699051D01*
X108680877Y-46699038D01*
X108680362Y-46697794D01*
X108597594Y-46520297D01*
X108577122Y-46480973D01*
X108566140Y-46461953D01*
X108542337Y-46424591D01*
X108430008Y-46264168D01*
X108408138Y-46235666D01*
X108403882Y-46230120D01*
X108403878Y-46230115D01*
X108403027Y-46229006D01*
X108395288Y-46219783D01*
X108389793Y-46213234D01*
X108389783Y-46213223D01*
X108388909Y-46212181D01*
X108358970Y-46179509D01*
X108220491Y-46041030D01*
X108187819Y-46011091D01*
X108170994Y-45996973D01*
X108157227Y-45986409D01*
X108136952Y-45970851D01*
X108136940Y-45970842D01*
X108135832Y-45969992D01*
X107975409Y-45857663D01*
X107938047Y-45833860D01*
X107919027Y-45822878D01*
X107879703Y-45802406D01*
X107702206Y-45719638D01*
X107700962Y-45719123D01*
X107700949Y-45719117D01*
X107662545Y-45703210D01*
X107662544Y-45703210D01*
X107661263Y-45702679D01*
X107640624Y-45695167D01*
X107628670Y-45691398D01*
X107599641Y-45682245D01*
X107599619Y-45682239D01*
X107598358Y-45681841D01*
X107503774Y-45656497D01*
X107503772Y-45656496D01*
X107409186Y-45631152D01*
X107365933Y-45621563D01*
X107344306Y-45617749D01*
X107323789Y-45615048D01*
X107301685Y-45612137D01*
X107301668Y-45612135D01*
X107300353Y-45611962D01*
X107299037Y-45611847D01*
X107299020Y-45611845D01*
X107100403Y-45594469D01*
X107100376Y-45594467D01*
X107099748Y-45594412D01*
X107099109Y-45594370D01*
X107099094Y-45594369D01*
X107094243Y-45594051D01*
X107077613Y-45592962D01*
X107066632Y-45592483D01*
X107065984Y-45592469D01*
X107065958Y-45592468D01*
X107045137Y-45592014D01*
X107045134Y-45592014D01*
X107044494Y-45592000D01*
X104104501Y-45592000D01*
X104098707Y-45592104D01*
X104086908Y-45592314D01*
X104086867Y-45592315D01*
X104086370Y-45592324D01*
X104077382Y-45592645D01*
X104066221Y-45593243D01*
X104059775Y-45593588D01*
X104059763Y-45593589D01*
X104059273Y-45593615D01*
X104009889Y-45597147D01*
X103789214Y-45612930D01*
X103789212Y-45612930D01*
X103788110Y-45613009D01*
X103760467Y-45615981D01*
X103753192Y-45616763D01*
X103753186Y-45616764D01*
X103752049Y-45616886D01*
X103734266Y-45619443D01*
X103733159Y-45619643D01*
X103733145Y-45619645D01*
X103699674Y-45625684D01*
X103699656Y-45625688D01*
X103698584Y-45625881D01*
X103697522Y-45626112D01*
X103697507Y-45626115D01*
X103597842Y-45647796D01*
X103437359Y-45682707D01*
X103436305Y-45682976D01*
X103403305Y-45691398D01*
X103403295Y-45691401D01*
X103402240Y-45691670D01*
X103401173Y-45691983D01*
X103401163Y-45691986D01*
X103386084Y-45696413D01*
X103386075Y-45696416D01*
X103384998Y-45696732D01*
X103383941Y-45697084D01*
X103383934Y-45697086D01*
X103351638Y-45707835D01*
X103351628Y-45707839D01*
X103350572Y-45708190D01*
X103349536Y-45708577D01*
X103349523Y-45708581D01*
X103101135Y-45801225D01*
X103100079Y-45801619D01*
X103099051Y-45802045D01*
X103099048Y-45802046D01*
X103067600Y-45815072D01*
X103067579Y-45815081D01*
X103066563Y-45815502D01*
X103050216Y-45822968D01*
X103017801Y-45839195D01*
X103016798Y-45839743D01*
X103016784Y-45839750D01*
X102784156Y-45966775D01*
X102784138Y-45966785D01*
X102783166Y-45967316D01*
X102751979Y-45985820D01*
X102751075Y-45986401D01*
X102751062Y-45986409D01*
X102739064Y-45994120D01*
X102736856Y-45995539D01*
X102735936Y-45996178D01*
X102714457Y-46011091D01*
X102707068Y-46016221D01*
X102597771Y-46098040D01*
X102493953Y-46175757D01*
X102493935Y-46175771D01*
X102493056Y-46176429D01*
X102492186Y-46177130D01*
X102492181Y-46177134D01*
X102478187Y-46188412D01*
X102464810Y-46199192D01*
X102451224Y-46210965D01*
X102424694Y-46235666D01*
X102235666Y-46424694D01*
X102210965Y-46451224D01*
X102199192Y-46464810D01*
X102176429Y-46493056D01*
X102175771Y-46493935D01*
X102175757Y-46493953D01*
X102098040Y-46597771D01*
X102016221Y-46707068D01*
X101995539Y-46736856D01*
X101985820Y-46751979D01*
X101967316Y-46783166D01*
X101966785Y-46784138D01*
X101966775Y-46784156D01*
X101853207Y-46992140D01*
X101839195Y-47017801D01*
X101822968Y-47050216D01*
X101815502Y-47066563D01*
X101801619Y-47100079D01*
X101722812Y-47311368D01*
X101722810Y-47311372D01*
X101708190Y-47350570D01*
X101696734Y-47384992D01*
X101691671Y-47402237D01*
X101682707Y-47437359D01*
X101682471Y-47438444D01*
X101626340Y-47696475D01*
X101625881Y-47698584D01*
X101625688Y-47699656D01*
X101625684Y-47699674D01*
X101623800Y-47710116D01*
X101619443Y-47734266D01*
X101616886Y-47752049D01*
X101613009Y-47788109D01*
X101601588Y-47947792D01*
X101601588Y-47947794D01*
X101593615Y-48059274D01*
X101592645Y-48077382D01*
X101592324Y-48086370D01*
X101592000Y-48104501D01*
X101592000Y-52495499D01*
X100754000Y-52495499D01*
X100754000Y-42800000D01*
X109940715Y-42800000D01*
X109959772Y-42944754D01*
X110015645Y-43079642D01*
X110104526Y-43195474D01*
X110111076Y-43200500D01*
X110111079Y-43200503D01*
X110213804Y-43279327D01*
X110220357Y-43284355D01*
X110329346Y-43329500D01*
X110346128Y-43336451D01*
X110355246Y-43340228D01*
X110500000Y-43359285D01*
X110508188Y-43358207D01*
X110636566Y-43341306D01*
X110644754Y-43340228D01*
X110652384Y-43337068D01*
X110660362Y-43334930D01*
X110660770Y-43336451D01*
X110695717Y-43329500D01*
X111119500Y-43329500D01*
X111187621Y-43349502D01*
X111234114Y-43403158D01*
X111245500Y-43455500D01*
X111245500Y-44397756D01*
X111252202Y-44459448D01*
X111254974Y-44466841D01*
X111254974Y-44466843D01*
X111267106Y-44499206D01*
X111302929Y-44594764D01*
X111308309Y-44601943D01*
X111308311Y-44601946D01*
X111324498Y-44623544D01*
X111389596Y-44710404D01*
X111396776Y-44715785D01*
X111498054Y-44791689D01*
X111498057Y-44791691D01*
X111505236Y-44797071D01*
X111574912Y-44823191D01*
X111633157Y-44845026D01*
X111633159Y-44845026D01*
X111640552Y-44847798D01*
X111648402Y-44848651D01*
X111648403Y-44848651D01*
X111698847Y-44854131D01*
X111702244Y-44854500D01*
X112297756Y-44854500D01*
X112301153Y-44854131D01*
X112351597Y-44848651D01*
X112351598Y-44848651D01*
X112359448Y-44847798D01*
X112366841Y-44845026D01*
X112366843Y-44845026D01*
X112425088Y-44823191D01*
X112494764Y-44797071D01*
X112501943Y-44791691D01*
X112501946Y-44791689D01*
X112603224Y-44715785D01*
X112610404Y-44710404D01*
X112675502Y-44623544D01*
X112691689Y-44601946D01*
X112691691Y-44601943D01*
X112697071Y-44594764D01*
X112747798Y-44459448D01*
X112748652Y-44451588D01*
X112750343Y-44444476D01*
X112785561Y-44382830D01*
X112848516Y-44350010D01*
X112919221Y-44356436D01*
X112975228Y-44400068D01*
X112998253Y-44460620D01*
X113002257Y-44499206D01*
X113005149Y-44512600D01*
X113056588Y-44666784D01*
X113062761Y-44679962D01*
X113148063Y-44817807D01*
X113157099Y-44829208D01*
X113271829Y-44943739D01*
X113283240Y-44952751D01*
X113421243Y-45037816D01*
X113434424Y-45043963D01*
X113482806Y-45060011D01*
X113496899Y-45060500D01*
X113500000Y-45054289D01*
X113500000Y-40652422D01*
X113496027Y-40638891D01*
X113489201Y-40637910D01*
X113433216Y-40656588D01*
X113420038Y-40662761D01*
X113282193Y-40748063D01*
X113270792Y-40757099D01*
X113156261Y-40871829D01*
X113147249Y-40883240D01*
X113062184Y-41021243D01*
X113056037Y-41034424D01*
X113004862Y-41188710D01*
X113001995Y-41202086D01*
X112998214Y-41238985D01*
X112971372Y-41304712D01*
X112913257Y-41345494D01*
X112842319Y-41348382D01*
X112781081Y-41312460D01*
X112750287Y-41255288D01*
X112748652Y-41248409D01*
X112747798Y-41240552D01*
X112697071Y-41105236D01*
X112691691Y-41098057D01*
X112691689Y-41098054D01*
X112615785Y-40996776D01*
X112610404Y-40989596D01*
X112566594Y-40956762D01*
X112501946Y-40908311D01*
X112501943Y-40908309D01*
X112494764Y-40902929D01*
X112405046Y-40869296D01*
X112366843Y-40854974D01*
X112366841Y-40854974D01*
X112359448Y-40852202D01*
X112351598Y-40851349D01*
X112351597Y-40851349D01*
X112301153Y-40845869D01*
X112301152Y-40845869D01*
X112297756Y-40845500D01*
X111702244Y-40845500D01*
X111698848Y-40845869D01*
X111698847Y-40845869D01*
X111648403Y-40851349D01*
X111648402Y-40851349D01*
X111640552Y-40852202D01*
X111633159Y-40854974D01*
X111633157Y-40854974D01*
X111594954Y-40869296D01*
X111505236Y-40902929D01*
X111498057Y-40908309D01*
X111498054Y-40908311D01*
X111433406Y-40956762D01*
X111389596Y-40989596D01*
X111384215Y-40996776D01*
X111308311Y-41098054D01*
X111308309Y-41098057D01*
X111302929Y-41105236D01*
X111252202Y-41240552D01*
X111245500Y-41302244D01*
X111245500Y-42244500D01*
X111225498Y-42312621D01*
X111171842Y-42359114D01*
X111119500Y-42370500D01*
X110893902Y-42370500D01*
X110825781Y-42350498D01*
X110817198Y-42344462D01*
X110811959Y-42340442D01*
X110779643Y-42315645D01*
X110644754Y-42259772D01*
X110500000Y-42240715D01*
X110491812Y-42241793D01*
X110363432Y-42258694D01*
X110363430Y-42258695D01*
X110355246Y-42259772D01*
X110307430Y-42279578D01*
X110227986Y-42312485D01*
X110227984Y-42312486D01*
X110220358Y-42315645D01*
X110104526Y-42404526D01*
X110015645Y-42520358D01*
X109959772Y-42655246D01*
X109940715Y-42800000D01*
X100754000Y-42800000D01*
X100754000Y-39042186D01*
X102641018Y-39042186D01*
X102666579Y-39310100D01*
X102730547Y-39571518D01*
X102831583Y-39820963D01*
X102891405Y-39923132D01*
X102965016Y-40048849D01*
X102967569Y-40053210D01*
X103135658Y-40263395D01*
X103332327Y-40447113D01*
X103553457Y-40600516D01*
X103794416Y-40720391D01*
X103798750Y-40721812D01*
X103798753Y-40721813D01*
X104045823Y-40802807D01*
X104045829Y-40802808D01*
X104050156Y-40804227D01*
X104054647Y-40805007D01*
X104054648Y-40805007D01*
X104311538Y-40849611D01*
X104311546Y-40849612D01*
X104315319Y-40850267D01*
X104319156Y-40850458D01*
X104398777Y-40854422D01*
X104398785Y-40854422D01*
X104400348Y-40854500D01*
X104568374Y-40854500D01*
X104570642Y-40854335D01*
X104570654Y-40854335D01*
X104701457Y-40844844D01*
X104768425Y-40839985D01*
X104772880Y-40839001D01*
X104772883Y-40839001D01*
X105026770Y-40782947D01*
X105026772Y-40782946D01*
X105031226Y-40781963D01*
X105282900Y-40686613D01*
X105326881Y-40662184D01*
X105514179Y-40558149D01*
X105514180Y-40558148D01*
X105518172Y-40555931D01*
X105664842Y-40443996D01*
X105728491Y-40395421D01*
X105728495Y-40395417D01*
X105732116Y-40392654D01*
X105920249Y-40200203D01*
X105960194Y-40145324D01*
X106075942Y-39986304D01*
X106075947Y-39986297D01*
X106078630Y-39982610D01*
X106203941Y-39744433D01*
X106293557Y-39490662D01*
X106318688Y-39363156D01*
X106344720Y-39231083D01*
X106344721Y-39231077D01*
X106345601Y-39226611D01*
X106349278Y-39152751D01*
X106358755Y-38962383D01*
X106358755Y-38962377D01*
X106358982Y-38957814D01*
X106333421Y-38689900D01*
X106312307Y-38603611D01*
X106310713Y-38597096D01*
X108392000Y-38597096D01*
X108392337Y-38603611D01*
X108402256Y-38699203D01*
X108405150Y-38712602D01*
X108456588Y-38866783D01*
X108462762Y-38879962D01*
X108548063Y-39017807D01*
X108557099Y-39029208D01*
X108671830Y-39143739D01*
X108683241Y-39152751D01*
X108821245Y-39237818D01*
X108834423Y-39243962D01*
X108988716Y-39295139D01*
X109002081Y-39298005D01*
X109096439Y-39307672D01*
X109102855Y-39308000D01*
X109123885Y-39308000D01*
X109139124Y-39303525D01*
X109140329Y-39302135D01*
X109142000Y-39294452D01*
X109142000Y-39289885D01*
X110158000Y-39289885D01*
X110162475Y-39305124D01*
X110163865Y-39306329D01*
X110171548Y-39308000D01*
X110197096Y-39308000D01*
X110203611Y-39307663D01*
X110299203Y-39297744D01*
X110312602Y-39294850D01*
X110466783Y-39243412D01*
X110479962Y-39237238D01*
X110617807Y-39151937D01*
X110629208Y-39142901D01*
X110743739Y-39028170D01*
X110752751Y-39016759D01*
X110837818Y-38878755D01*
X110843962Y-38865577D01*
X110895139Y-38711284D01*
X110898005Y-38697919D01*
X110907672Y-38603561D01*
X110908000Y-38597145D01*
X110908000Y-38597096D01*
X117092000Y-38597096D01*
X117092337Y-38603611D01*
X117102256Y-38699203D01*
X117105150Y-38712602D01*
X117156588Y-38866783D01*
X117162762Y-38879962D01*
X117248063Y-39017807D01*
X117257099Y-39029208D01*
X117371830Y-39143739D01*
X117383241Y-39152751D01*
X117521245Y-39237818D01*
X117534423Y-39243962D01*
X117688716Y-39295139D01*
X117702081Y-39298005D01*
X117796439Y-39307672D01*
X117802855Y-39308000D01*
X117823885Y-39308000D01*
X117839124Y-39303525D01*
X117840329Y-39302135D01*
X117842000Y-39294452D01*
X117842000Y-39289885D01*
X118858000Y-39289885D01*
X118862475Y-39305124D01*
X118863865Y-39306329D01*
X118871548Y-39308000D01*
X118897096Y-39308000D01*
X118903611Y-39307663D01*
X118999203Y-39297744D01*
X119012602Y-39294850D01*
X119166783Y-39243412D01*
X119179962Y-39237238D01*
X119317807Y-39151937D01*
X119329208Y-39142901D01*
X119443739Y-39028170D01*
X119452751Y-39016759D01*
X119537818Y-38878755D01*
X119543962Y-38865577D01*
X119595139Y-38711284D01*
X119598005Y-38697919D01*
X119607672Y-38603561D01*
X119608000Y-38597145D01*
X119608000Y-38597096D01*
X120392000Y-38597096D01*
X120392337Y-38603611D01*
X120402256Y-38699203D01*
X120405150Y-38712602D01*
X120456588Y-38866783D01*
X120462762Y-38879962D01*
X120548063Y-39017807D01*
X120557099Y-39029208D01*
X120671830Y-39143739D01*
X120683241Y-39152751D01*
X120821245Y-39237818D01*
X120834423Y-39243962D01*
X120988716Y-39295139D01*
X121002081Y-39298005D01*
X121096439Y-39307672D01*
X121102855Y-39308000D01*
X121123885Y-39308000D01*
X121139124Y-39303525D01*
X121140329Y-39302135D01*
X121142000Y-39294452D01*
X121142000Y-39289885D01*
X122158000Y-39289885D01*
X122162475Y-39305124D01*
X122163865Y-39306329D01*
X122171548Y-39308000D01*
X122197096Y-39308000D01*
X122203611Y-39307663D01*
X122299203Y-39297744D01*
X122312602Y-39294850D01*
X122466783Y-39243412D01*
X122479962Y-39237238D01*
X122617807Y-39151937D01*
X122629208Y-39142901D01*
X122743739Y-39028170D01*
X122752751Y-39016759D01*
X122837818Y-38878755D01*
X122843962Y-38865577D01*
X122895139Y-38711284D01*
X122898005Y-38697919D01*
X122907672Y-38603561D01*
X122908000Y-38597145D01*
X122908000Y-38597096D01*
X129092000Y-38597096D01*
X129092337Y-38603611D01*
X129102256Y-38699203D01*
X129105150Y-38712602D01*
X129156588Y-38866783D01*
X129162762Y-38879962D01*
X129248063Y-39017807D01*
X129257099Y-39029208D01*
X129371830Y-39143739D01*
X129383241Y-39152751D01*
X129521245Y-39237818D01*
X129534423Y-39243962D01*
X129688716Y-39295139D01*
X129702081Y-39298005D01*
X129796439Y-39307672D01*
X129802855Y-39308000D01*
X129823885Y-39308000D01*
X129839124Y-39303525D01*
X129840329Y-39302135D01*
X129842000Y-39294452D01*
X129842000Y-39289885D01*
X130858000Y-39289885D01*
X130862475Y-39305124D01*
X130863865Y-39306329D01*
X130871548Y-39308000D01*
X130897096Y-39308000D01*
X130903611Y-39307663D01*
X130999203Y-39297744D01*
X131012602Y-39294850D01*
X131166783Y-39243412D01*
X131179962Y-39237238D01*
X131317807Y-39151937D01*
X131329208Y-39142901D01*
X131443739Y-39028170D01*
X131452751Y-39016759D01*
X131537818Y-38878755D01*
X131543962Y-38865577D01*
X131595139Y-38711284D01*
X131598005Y-38697919D01*
X131607672Y-38603561D01*
X131608000Y-38597145D01*
X131608000Y-38597096D01*
X132392000Y-38597096D01*
X132392337Y-38603611D01*
X132402256Y-38699203D01*
X132405150Y-38712602D01*
X132456588Y-38866783D01*
X132462762Y-38879962D01*
X132548063Y-39017807D01*
X132557099Y-39029208D01*
X132671830Y-39143739D01*
X132683241Y-39152751D01*
X132821245Y-39237818D01*
X132834423Y-39243962D01*
X132988716Y-39295139D01*
X133002081Y-39298005D01*
X133096439Y-39307672D01*
X133102855Y-39308000D01*
X133123885Y-39308000D01*
X133139124Y-39303525D01*
X133140329Y-39302135D01*
X133142000Y-39294452D01*
X133142000Y-39289885D01*
X134158000Y-39289885D01*
X134162475Y-39305124D01*
X134163865Y-39306329D01*
X134171548Y-39308000D01*
X134197096Y-39308000D01*
X134203611Y-39307663D01*
X134299203Y-39297744D01*
X134312602Y-39294850D01*
X134466783Y-39243412D01*
X134479962Y-39237238D01*
X134617807Y-39151937D01*
X134629208Y-39142901D01*
X134743739Y-39028170D01*
X134752751Y-39016759D01*
X134837818Y-38878755D01*
X134843962Y-38865577D01*
X134895139Y-38711284D01*
X134898005Y-38697919D01*
X134907672Y-38603561D01*
X134908000Y-38597145D01*
X134908000Y-38597096D01*
X141092000Y-38597096D01*
X141092337Y-38603611D01*
X141102256Y-38699203D01*
X141105150Y-38712602D01*
X141156588Y-38866783D01*
X141162762Y-38879962D01*
X141248063Y-39017807D01*
X141257099Y-39029208D01*
X141371830Y-39143739D01*
X141383241Y-39152751D01*
X141521245Y-39237818D01*
X141534423Y-39243962D01*
X141688716Y-39295139D01*
X141702081Y-39298005D01*
X141796439Y-39307672D01*
X141802855Y-39308000D01*
X141823885Y-39308000D01*
X141839124Y-39303525D01*
X141840329Y-39302135D01*
X141842000Y-39294452D01*
X141842000Y-39289885D01*
X142858000Y-39289885D01*
X142862475Y-39305124D01*
X142863865Y-39306329D01*
X142871548Y-39308000D01*
X142897096Y-39308000D01*
X142903611Y-39307663D01*
X142999203Y-39297744D01*
X143012602Y-39294850D01*
X143166783Y-39243412D01*
X143179962Y-39237238D01*
X143317807Y-39151937D01*
X143329208Y-39142901D01*
X143443739Y-39028170D01*
X143452751Y-39016759D01*
X143537818Y-38878755D01*
X143543962Y-38865577D01*
X143595139Y-38711284D01*
X143598005Y-38697919D01*
X143607672Y-38603561D01*
X143608000Y-38597145D01*
X143608000Y-38597096D01*
X144392000Y-38597096D01*
X144392337Y-38603611D01*
X144402256Y-38699203D01*
X144405150Y-38712602D01*
X144456588Y-38866783D01*
X144462762Y-38879962D01*
X144548063Y-39017807D01*
X144557099Y-39029208D01*
X144671830Y-39143739D01*
X144683241Y-39152751D01*
X144821245Y-39237818D01*
X144834423Y-39243962D01*
X144988716Y-39295139D01*
X145002081Y-39298005D01*
X145096439Y-39307672D01*
X145102855Y-39308000D01*
X145123885Y-39308000D01*
X145139124Y-39303525D01*
X145140329Y-39302135D01*
X145142000Y-39294452D01*
X145142000Y-39289885D01*
X146158000Y-39289885D01*
X146162475Y-39305124D01*
X146163865Y-39306329D01*
X146171548Y-39308000D01*
X146197096Y-39308000D01*
X146203611Y-39307663D01*
X146299203Y-39297744D01*
X146312602Y-39294850D01*
X146466783Y-39243412D01*
X146479962Y-39237238D01*
X146617807Y-39151937D01*
X146629208Y-39142901D01*
X146743739Y-39028170D01*
X146752751Y-39016759D01*
X146837818Y-38878755D01*
X146843962Y-38865577D01*
X146895139Y-38711284D01*
X146898005Y-38697919D01*
X146907672Y-38603561D01*
X146908000Y-38597145D01*
X146908000Y-38597096D01*
X153092000Y-38597096D01*
X153092337Y-38603611D01*
X153102256Y-38699203D01*
X153105150Y-38712602D01*
X153156588Y-38866783D01*
X153162762Y-38879962D01*
X153248063Y-39017807D01*
X153257099Y-39029208D01*
X153371830Y-39143739D01*
X153383241Y-39152751D01*
X153521245Y-39237818D01*
X153534423Y-39243962D01*
X153688716Y-39295139D01*
X153702081Y-39298005D01*
X153796439Y-39307672D01*
X153802855Y-39308000D01*
X153823885Y-39308000D01*
X153839124Y-39303525D01*
X153840329Y-39302135D01*
X153842000Y-39294452D01*
X153842000Y-39289885D01*
X154858000Y-39289885D01*
X154862475Y-39305124D01*
X154863865Y-39306329D01*
X154871548Y-39308000D01*
X154897096Y-39308000D01*
X154903611Y-39307663D01*
X154999203Y-39297744D01*
X155012602Y-39294850D01*
X155166783Y-39243412D01*
X155179962Y-39237238D01*
X155317807Y-39151937D01*
X155329208Y-39142901D01*
X155429747Y-39042186D01*
X157641018Y-39042186D01*
X157666579Y-39310100D01*
X157730547Y-39571518D01*
X157831583Y-39820963D01*
X157891405Y-39923132D01*
X157965016Y-40048849D01*
X157967569Y-40053210D01*
X158135658Y-40263395D01*
X158332327Y-40447113D01*
X158553457Y-40600516D01*
X158794416Y-40720391D01*
X158798750Y-40721812D01*
X158798753Y-40721813D01*
X159045823Y-40802807D01*
X159045829Y-40802808D01*
X159050156Y-40804227D01*
X159054647Y-40805007D01*
X159054648Y-40805007D01*
X159311538Y-40849611D01*
X159311546Y-40849612D01*
X159315319Y-40850267D01*
X159319156Y-40850458D01*
X159398777Y-40854422D01*
X159398785Y-40854422D01*
X159400348Y-40854500D01*
X159568374Y-40854500D01*
X159570642Y-40854335D01*
X159570654Y-40854335D01*
X159701457Y-40844844D01*
X159768425Y-40839985D01*
X159772880Y-40839001D01*
X159772883Y-40839001D01*
X160026770Y-40782947D01*
X160026772Y-40782946D01*
X160031226Y-40781963D01*
X160282900Y-40686613D01*
X160326881Y-40662184D01*
X160514179Y-40558149D01*
X160514180Y-40558148D01*
X160518172Y-40555931D01*
X160664842Y-40443996D01*
X160728491Y-40395421D01*
X160728495Y-40395417D01*
X160732116Y-40392654D01*
X160920249Y-40200203D01*
X160960194Y-40145324D01*
X161075942Y-39986304D01*
X161075947Y-39986297D01*
X161078630Y-39982610D01*
X161203941Y-39744433D01*
X161293557Y-39490662D01*
X161318688Y-39363156D01*
X161344720Y-39231083D01*
X161344721Y-39231077D01*
X161345601Y-39226611D01*
X161349278Y-39152751D01*
X161358755Y-38962383D01*
X161358755Y-38962377D01*
X161358982Y-38957814D01*
X161333421Y-38689900D01*
X161312307Y-38603611D01*
X161270539Y-38432920D01*
X161269453Y-38428482D01*
X161168417Y-38179037D01*
X161032431Y-37946790D01*
X160864342Y-37736605D01*
X160667673Y-37552887D01*
X160446543Y-37399484D01*
X160205584Y-37279609D01*
X160201250Y-37278188D01*
X160201247Y-37278187D01*
X159954177Y-37197193D01*
X159954171Y-37197192D01*
X159949844Y-37195773D01*
X159945352Y-37194993D01*
X159688462Y-37150389D01*
X159688454Y-37150388D01*
X159684681Y-37149733D01*
X159674718Y-37149237D01*
X159601223Y-37145578D01*
X159601215Y-37145578D01*
X159599652Y-37145500D01*
X159431626Y-37145500D01*
X159429358Y-37145665D01*
X159429346Y-37145665D01*
X159298543Y-37155156D01*
X159231575Y-37160015D01*
X159227120Y-37160999D01*
X159227117Y-37160999D01*
X158973230Y-37217053D01*
X158973228Y-37217054D01*
X158968774Y-37218037D01*
X158717100Y-37313387D01*
X158481828Y-37444069D01*
X158478196Y-37446841D01*
X158271509Y-37604579D01*
X158271505Y-37604583D01*
X158267884Y-37607346D01*
X158079751Y-37799797D01*
X158077066Y-37803486D01*
X157924058Y-38013696D01*
X157924053Y-38013703D01*
X157921370Y-38017390D01*
X157796059Y-38255567D01*
X157706443Y-38509338D01*
X157687872Y-38603561D01*
X157670855Y-38689900D01*
X157654399Y-38773389D01*
X157654172Y-38777942D01*
X157654172Y-38777945D01*
X157641716Y-39028170D01*
X157641018Y-39042186D01*
X155429747Y-39042186D01*
X155443739Y-39028170D01*
X155452751Y-39016759D01*
X155537818Y-38878755D01*
X155543962Y-38865577D01*
X155595139Y-38711284D01*
X155598005Y-38697919D01*
X155607672Y-38603561D01*
X155608000Y-38597145D01*
X155608000Y-37626115D01*
X155603525Y-37610876D01*
X155602135Y-37609671D01*
X155594452Y-37608000D01*
X154876115Y-37608000D01*
X154860876Y-37612475D01*
X154859671Y-37613865D01*
X154858000Y-37621548D01*
X154858000Y-39289885D01*
X153842000Y-39289885D01*
X153842000Y-37626115D01*
X153837525Y-37610876D01*
X153836135Y-37609671D01*
X153828452Y-37608000D01*
X153110115Y-37608000D01*
X153094876Y-37612475D01*
X153093671Y-37613865D01*
X153092000Y-37621548D01*
X153092000Y-38597096D01*
X146908000Y-38597096D01*
X146908000Y-37626115D01*
X146903525Y-37610876D01*
X146902135Y-37609671D01*
X146894452Y-37608000D01*
X146176115Y-37608000D01*
X146160876Y-37612475D01*
X146159671Y-37613865D01*
X146158000Y-37621548D01*
X146158000Y-39289885D01*
X145142000Y-39289885D01*
X145142000Y-37626115D01*
X145137525Y-37610876D01*
X145136135Y-37609671D01*
X145128452Y-37608000D01*
X144410115Y-37608000D01*
X144394876Y-37612475D01*
X144393671Y-37613865D01*
X144392000Y-37621548D01*
X144392000Y-38597096D01*
X143608000Y-38597096D01*
X143608000Y-37626115D01*
X143603525Y-37610876D01*
X143602135Y-37609671D01*
X143594452Y-37608000D01*
X142876115Y-37608000D01*
X142860876Y-37612475D01*
X142859671Y-37613865D01*
X142858000Y-37621548D01*
X142858000Y-39289885D01*
X141842000Y-39289885D01*
X141842000Y-37626115D01*
X141837525Y-37610876D01*
X141836135Y-37609671D01*
X141828452Y-37608000D01*
X141110115Y-37608000D01*
X141094876Y-37612475D01*
X141093671Y-37613865D01*
X141092000Y-37621548D01*
X141092000Y-38597096D01*
X134908000Y-38597096D01*
X134908000Y-37626115D01*
X134903525Y-37610876D01*
X134902135Y-37609671D01*
X134894452Y-37608000D01*
X134176115Y-37608000D01*
X134160876Y-37612475D01*
X134159671Y-37613865D01*
X134158000Y-37621548D01*
X134158000Y-39289885D01*
X133142000Y-39289885D01*
X133142000Y-37626115D01*
X133137525Y-37610876D01*
X133136135Y-37609671D01*
X133128452Y-37608000D01*
X132410115Y-37608000D01*
X132394876Y-37612475D01*
X132393671Y-37613865D01*
X132392000Y-37621548D01*
X132392000Y-38597096D01*
X131608000Y-38597096D01*
X131608000Y-37626115D01*
X131603525Y-37610876D01*
X131602135Y-37609671D01*
X131594452Y-37608000D01*
X130876115Y-37608000D01*
X130860876Y-37612475D01*
X130859671Y-37613865D01*
X130858000Y-37621548D01*
X130858000Y-39289885D01*
X129842000Y-39289885D01*
X129842000Y-37626115D01*
X129837525Y-37610876D01*
X129836135Y-37609671D01*
X129828452Y-37608000D01*
X129110115Y-37608000D01*
X129094876Y-37612475D01*
X129093671Y-37613865D01*
X129092000Y-37621548D01*
X129092000Y-38597096D01*
X122908000Y-38597096D01*
X122908000Y-37626115D01*
X122903525Y-37610876D01*
X122902135Y-37609671D01*
X122894452Y-37608000D01*
X122176115Y-37608000D01*
X122160876Y-37612475D01*
X122159671Y-37613865D01*
X122158000Y-37621548D01*
X122158000Y-39289885D01*
X121142000Y-39289885D01*
X121142000Y-37626115D01*
X121137525Y-37610876D01*
X121136135Y-37609671D01*
X121128452Y-37608000D01*
X120410115Y-37608000D01*
X120394876Y-37612475D01*
X120393671Y-37613865D01*
X120392000Y-37621548D01*
X120392000Y-38597096D01*
X119608000Y-38597096D01*
X119608000Y-37626115D01*
X119603525Y-37610876D01*
X119602135Y-37609671D01*
X119594452Y-37608000D01*
X118876115Y-37608000D01*
X118860876Y-37612475D01*
X118859671Y-37613865D01*
X118858000Y-37621548D01*
X118858000Y-39289885D01*
X117842000Y-39289885D01*
X117842000Y-37626115D01*
X117837525Y-37610876D01*
X117836135Y-37609671D01*
X117828452Y-37608000D01*
X117110115Y-37608000D01*
X117094876Y-37612475D01*
X117093671Y-37613865D01*
X117092000Y-37621548D01*
X117092000Y-38597096D01*
X110908000Y-38597096D01*
X110908000Y-37626115D01*
X110903525Y-37610876D01*
X110902135Y-37609671D01*
X110894452Y-37608000D01*
X110176115Y-37608000D01*
X110160876Y-37612475D01*
X110159671Y-37613865D01*
X110158000Y-37621548D01*
X110158000Y-39289885D01*
X109142000Y-39289885D01*
X109142000Y-37626115D01*
X109137525Y-37610876D01*
X109136135Y-37609671D01*
X109128452Y-37608000D01*
X108410115Y-37608000D01*
X108394876Y-37612475D01*
X108393671Y-37613865D01*
X108392000Y-37621548D01*
X108392000Y-38597096D01*
X106310713Y-38597096D01*
X106270539Y-38432920D01*
X106269453Y-38428482D01*
X106168417Y-38179037D01*
X106032431Y-37946790D01*
X105864342Y-37736605D01*
X105667673Y-37552887D01*
X105446543Y-37399484D01*
X105205584Y-37279609D01*
X105201250Y-37278188D01*
X105201247Y-37278187D01*
X104954177Y-37197193D01*
X104954171Y-37197192D01*
X104949844Y-37195773D01*
X104945352Y-37194993D01*
X104688462Y-37150389D01*
X104688454Y-37150388D01*
X104684681Y-37149733D01*
X104674718Y-37149237D01*
X104601223Y-37145578D01*
X104601215Y-37145578D01*
X104599652Y-37145500D01*
X104431626Y-37145500D01*
X104429358Y-37145665D01*
X104429346Y-37145665D01*
X104298543Y-37155156D01*
X104231575Y-37160015D01*
X104227120Y-37160999D01*
X104227117Y-37160999D01*
X103973230Y-37217053D01*
X103973228Y-37217054D01*
X103968774Y-37218037D01*
X103717100Y-37313387D01*
X103481828Y-37444069D01*
X103478196Y-37446841D01*
X103271509Y-37604579D01*
X103271505Y-37604583D01*
X103267884Y-37607346D01*
X103079751Y-37799797D01*
X103077066Y-37803486D01*
X102924058Y-38013696D01*
X102924053Y-38013703D01*
X102921370Y-38017390D01*
X102796059Y-38255567D01*
X102706443Y-38509338D01*
X102687872Y-38603561D01*
X102670855Y-38689900D01*
X102654399Y-38773389D01*
X102654172Y-38777942D01*
X102654172Y-38777945D01*
X102641716Y-39028170D01*
X102641018Y-39042186D01*
X100754000Y-39042186D01*
X100754000Y-35380000D01*
X100774002Y-35311879D01*
X100827658Y-35265386D01*
X100880000Y-35254000D01*
X108308170Y-35254000D01*
X108376291Y-35274002D01*
G37*
%TD.AperFunction*%
%TD*%
M02*
