M48
; DRILL file {KiCad 6.0.0} date Tue 04 Jan 2022 10:00:39 PM CET
; FORMAT={-:-/ absolute / inch / decimal}
; #@! TF.CreationDate,2022-01-04T22:00:39+01:00
; #@! TF.GenerationSoftware,Kicad,Pcbnew,6.0.0
; #@! TF.FileFunction,Plated,1,2,PTH
FMAT,2
INCH
; #@! TA.AperFunction,Plated,PTH,ViaDrill
T1C0.0118
; #@! TA.AperFunction,Plated,PTH,ViaDrill
T2C0.0197
%
G90
G05
T1
X3.3994Y-3.8701
X3.3994Y-3.9201
X3.3994Y-3.9701
X3.3994Y-4.0201
X3.4494Y-3.8701
X3.4494Y-3.9201
X3.4494Y-3.9701
X3.4494Y-4.0201
X3.4994Y-3.9201
X3.4994Y-3.9701
X3.4994Y-4.0201
X3.5494Y-3.7701
X3.5494Y-3.9201
X3.5494Y-3.9701
X3.5494Y-4.0201
X3.5494Y-4.0701
X3.5494Y-4.1201
X3.5994Y-3.7701
X3.5994Y-4.0701
X3.5994Y-4.1201
X3.6494Y-3.7701
X3.6494Y-4.0701
X3.6494Y-4.1201
X3.6994Y-3.7701
X3.6994Y-4.0701
X3.6994Y-4.1201
X3.7494Y-3.7701
X3.7494Y-4.1201
X3.752Y-4.0709
X3.7994Y-3.7701
X3.7994Y-3.8201
X3.7994Y-3.8701
X3.7994Y-3.9201
X3.7994Y-3.9701
X3.8228Y-4.1339
X3.8494Y-3.7701
X3.8494Y-3.9701
X3.8994Y-3.9701
X3.8994Y-4.0701
X3.9494Y-3.7701
X3.9494Y-4.0701
X3.9528Y-3.9528
X3.9882Y-3.9173
X3.9994Y-3.8201
X3.9994Y-3.8701
X3.9994Y-4.0701
X4.0494Y-4.0201
X4.0494Y-4.0701
X4.0994Y-3.8201
X4.0994Y-3.8701
X4.0994Y-3.9201
X4.0994Y-3.9701
X4.0994Y-4.0201
X4.0994Y-4.0701
X4.2362Y-3.8346
X4.2362Y-3.8819
X4.2362Y-3.937
X4.2441Y-3.9921
X4.2441Y-4.0394
X4.2638Y-3.8583
X4.2913Y-3.8346
X4.2913Y-3.8819
X4.2913Y-3.937
X4.2992Y-3.9921
X4.2992Y-4.0394
X4.3543Y-3.9921
X4.3543Y-4.0394
X4.3622Y-3.8346
X4.3622Y-3.8819
X4.4094Y-3.9921
X4.4094Y-4.0394
X4.4173Y-3.8346
X4.4173Y-3.8819
X4.437Y-4.0157
X4.4646Y-3.9921
X4.4646Y-4.0394
X4.4724Y-3.8346
X4.4724Y-3.8819
X4.5276Y-3.8346
X4.5276Y-3.8819
X4.5354Y-3.9921
X4.5354Y-4.0394
X4.5827Y-3.8346
X4.5827Y-3.8819
X4.5906Y-3.9921
X4.5906Y-4.0394
X4.6102Y-3.8583
X4.6378Y-3.8346
X4.6378Y-3.8819
X4.6457Y-3.9921
X4.6457Y-4.0394
X4.7008Y-3.9921
X4.7008Y-4.0394
X4.7087Y-3.8346
X4.7087Y-3.8819
X4.7559Y-3.9921
X4.7559Y-4.0394
X4.7638Y-3.8346
X4.7638Y-3.8819
X4.7835Y-4.0157
X4.811Y-3.9921
X4.811Y-4.0394
X4.8189Y-3.8346
X4.8189Y-3.8819
X4.874Y-3.8346
X4.874Y-3.8819
X4.8819Y-3.9921
X4.8819Y-4.0394
X4.9291Y-3.8346
X4.9291Y-3.8819
X4.937Y-3.9921
X4.937Y-4.0394
X4.9567Y-3.8583
X4.9843Y-3.8346
X4.9843Y-3.8819
X4.9921Y-3.9921
X4.9921Y-4.0394
X5.0472Y-3.9921
X5.0472Y-4.0394
X5.1024Y-3.9921
X5.1024Y-4.0394
X5.1299Y-4.0157
X5.1575Y-3.9921
X5.1575Y-4.0394
X5.2795Y-4.1339
X5.311Y-4.0079
X5.3268Y-3.8465
X5.3386Y-3.9606
X5.3494Y-4.1201
X5.378Y-3.9882
X5.3994Y-4.0701
X5.3994Y-4.1201
X5.4452Y-3.8724
X5.4488Y-3.9685
X5.4494Y-4.0201
X5.4494Y-4.0701
X5.4494Y-4.1201
X5.4567Y-3.8395
X5.4961Y-3.9213
X5.4994Y-4.1201
X5.5472Y-3.9213
X5.5494Y-4.1201
X5.5984Y-3.8425
X5.5994Y-3.9201
X5.5994Y-4.1201
X5.6494Y-3.9701
X5.6494Y-4.0701
X5.6494Y-4.1201
X5.6994Y-4.0701
X5.6994Y-4.1201
X5.7087Y-3.8307
X5.7087Y-3.8937
X5.7126Y-3.9843
X5.7323Y-3.7402
X5.7494Y-4.0701
X5.7494Y-4.1201
X5.7994Y-3.7701
X5.7994Y-4.0701
X5.7994Y-4.1201
X5.8494Y-3.7701
X5.8494Y-4.0701
X5.8494Y-4.1201
X5.8994Y-3.7701
X5.8994Y-3.8201
X5.8994Y-3.8701
X5.8994Y-3.9201
X5.8994Y-3.9701
X5.8994Y-4.0201
X5.8994Y-4.0701
X5.8994Y-4.1201
X5.9494Y-3.8701
X5.9494Y-3.9201
X5.9494Y-3.9701
X5.9494Y-4.0201
X5.9994Y-3.8701
X5.9994Y-3.9201
X5.9994Y-3.9701
X5.9994Y-4.0201
X6.0494Y-3.8701
X6.0494Y-3.9201
X6.0494Y-3.9701
X6.0494Y-4.0201
T2
X3.5118Y-3.8583
X3.5591Y-3.8583
X4.0276Y-3.748
X4.0748Y-3.748
X5.3465Y-3.7992
X5.3937Y-3.7992
T0
M30
